G04 EasyPC Gerber Version 20.0.2 Build 4112 *
G04 #@! TF.Part,Single*
G04 #@! TF.FileFunction,Legend,Top *
%FSLAX24Y24*%
%MOIN*%
%ADD11C,0.00100*%
%ADD12C,0.00300*%
%ADD10C,0.00500*%
%ADD13C,0.00600*%
%ADD14C,0.01000*%
X0Y0D02*
D02*
D10*
X4525Y2275D02*
Y7025D01*
X25*
Y2275*
X4525*
X5775Y3115D02*
X5455D01*
Y3825*
X5775*
Y3115*
X5815Y5995D02*
X5435D01*
Y6955*
X5815*
Y5995*
X6165Y3465D02*
Y3785D01*
X6875*
Y3465*
X6165*
Y3975D02*
Y4295D01*
X6875*
Y3975*
X6165*
Y5625D02*
Y5945D01*
X6875*
Y5625*
X6165*
Y6175D02*
Y6495D01*
X6875*
Y6175*
X6165*
X6315Y2095D02*
X5935D01*
Y3055*
X6315*
Y2095*
X6435Y1795D02*
X8815D01*
Y3155*
X6435*
Y1795*
X6885Y4775D02*
Y4455D01*
X6175*
Y4775*
X6885*
Y5375D02*
Y5055D01*
X6175*
Y5375*
X6885*
X8685Y3555D02*
X8155D01*
Y3295*
X8685*
X8815Y3425*
X8685Y3555*
X9385Y6875D02*
Y6555D01*
X8675*
Y6875*
X9385*
X9560Y2710D02*
Y3240D01*
X10790*
Y2710*
X9560*
Y6460D02*
Y6990D01*
X10790*
Y6460*
X9560*
X10744Y6325D02*
X10463D01*
X10400Y6294*
X10369Y6231*
Y6106*
X10400Y6044*
X10463Y6012*
X10744*
X10369Y5762D02*
Y5637D01*
Y5700D02*
X10744D01*
X10681Y5762*
X10335Y3725D02*
Y3405D01*
X9625*
Y3725*
X10335*
X10425Y2725D02*
X9925Y2975D01*
X10425Y3225*
Y6475D02*
X9925Y6725D01*
X10425Y6975*
X12460Y3310D02*
Y3840D01*
X13690*
Y3310*
X12460*
X12565Y2875D02*
Y3195D01*
X13275*
Y2875*
X12565*
X13015Y5625D02*
Y5945D01*
X13725*
Y5625*
X13015*
X13325Y3325D02*
X12825Y3575D01*
X13325Y3825*
X13735Y5525D02*
Y5205D01*
X13025*
Y5525*
X13735*
X14125Y935D02*
X14445D01*
Y225*
X14125*
Y935*
X16090Y8940D02*
Y8410D01*
X14860*
Y8940*
X16090*
X16865Y8225D02*
Y8545D01*
X17575*
Y8225*
X16865*
X17265Y8675D02*
Y8995D01*
X17975*
Y8675*
X17265*
X18675Y1625D02*
X18375Y1925D01*
X18975Y1625D02*
X18375Y2225D01*
X19275Y1625D02*
X18375Y2525D01*
X19575Y1625D02*
X18375Y2825D01*
X19875Y1625D02*
X18375Y3125D01*
X20075Y1625D02*
Y6525D01*
X18375*
Y1625*
X20075*
Y7725*
X14075*
Y1625*
X20075*
Y1725D02*
X18375Y3425D01*
X20075Y2025D02*
X18375Y3725D01*
X20075Y2325D02*
X18375Y4025D01*
X20075Y2625D02*
X18375Y4325D01*
X20075Y2925D02*
X18375Y4625D01*
X20075Y3225D02*
X18375Y4925D01*
X20075Y3525D02*
X18375Y5225D01*
X20075Y3825D02*
X18375Y5525D01*
X20075Y4125D02*
X18375Y5825D01*
X20075Y4425D02*
X18375Y6125D01*
X20075Y4725D02*
X18375Y6425D01*
X20075Y5025D02*
X18575Y6525D01*
X18875*
X20075Y5325*
Y5625*
X19175Y6525*
X19475*
X20075Y5925*
Y6225*
X19775Y6525*
D02*
D11*
X9923Y1957D02*
X9802D01*
X9716Y2099*
X9710Y2110*
X9704Y2119*
X9697Y2128*
X9692Y2135*
X9687Y2142*
X9681Y2148*
X9676Y2152*
X9672Y2156*
X9662Y2162*
X9653Y2167*
X9643Y2169*
X9632Y2170*
X9594*
Y1957*
X9489*
Y2497*
X9673*
X9696Y2497*
X9716Y2495*
X9737Y2492*
X9755Y2488*
X9772Y2483*
X9787Y2477*
X9801Y2469*
X9813Y2461*
X9824Y2451*
X9834Y2440*
X9842Y2428*
X9848Y2415*
X9854Y2400*
X9857Y2385*
X9860Y2369*
X9860Y2351*
X9860Y2338*
X9858Y2325*
X9856Y2313*
X9852Y2301*
X9848Y2290*
X9842Y2278*
X9836Y2268*
X9829Y2258*
X9821Y2248*
X9811Y2239*
X9801Y2232*
X9791Y2224*
X9779Y2217*
X9767Y2212*
X9754Y2206*
X9739Y2202*
Y2200*
X9749Y2196*
X9759Y2191*
X9768Y2183*
X9779Y2173*
X9789Y2162*
X9799Y2149*
X9810Y2134*
X9821Y2117*
X9923Y1957*
X9594Y2416D02*
Y2252D01*
X9656*
X9667*
X9676Y2254*
X9686Y2255*
X9695Y2258*
X9703Y2261*
X9711Y2266*
X9718Y2271*
X9724Y2276*
X9730Y2283*
X9736Y2290*
X9740Y2297*
X9743Y2304*
X9746Y2313*
X9748Y2321*
X9750Y2329*
Y2338*
Y2348*
X9749Y2357*
X9747Y2365*
X9744Y2372*
X9741Y2379*
X9737Y2385*
X9732Y2391*
X9727Y2396*
X9721Y2401*
X9714Y2405*
X9707Y2408*
X9698Y2411*
X9689Y2413*
X9680Y2414*
X9669Y2415*
X9658Y2416*
X9594*
X10402Y1957D02*
X10278D01*
X10175Y2142*
X10173Y2147*
X10170Y2155*
X10167Y2164*
X10164Y2175*
X10163*
X10156Y2157*
X10150Y2141*
X10046Y1957*
X9921*
X10095Y2227*
X9936Y2497*
X10063*
X10150Y2327*
X10154Y2317*
X10159Y2307*
X10163Y2296*
X10167Y2283*
X10169*
X10172Y2292*
X10176Y2302*
X10181Y2315*
X10187Y2329*
X10281Y2497*
X10399*
X10234Y2229*
X10402Y1957*
X10472D02*
Y2497D01*
X10652*
X10669Y2497*
X10686Y2496*
X10703Y2495*
X10718Y2493*
X10734Y2491*
X10749Y2488*
X10763Y2484*
X10777Y2481*
X10790Y2476*
X10803Y2471*
X10815Y2466*
X10826Y2460*
X10837Y2454*
X10848Y2446*
X10858Y2439*
X10867Y2431*
X10875Y2422*
X10884Y2414*
X10891Y2404*
X10898Y2394*
X10904Y2383*
X10910Y2373*
X10916Y2361*
X10921Y2349*
X10925Y2336*
X10928Y2323*
X10931Y2309*
X10934Y2295*
X10936Y2280*
X10937Y2265*
X10938Y2250*
X10939Y2234*
X10938Y2218*
X10937Y2203*
X10936Y2188*
X10933Y2174*
X10930Y2160*
X10927Y2146*
X10923Y2133*
X10918Y2120*
X10913Y2108*
X10907Y2096*
X10900Y2085*
X10893Y2073*
X10885Y2063*
X10877Y2052*
X10867Y2042*
X10858Y2032*
X10847Y2023*
X10837Y2015*
X10825Y2006*
X10814Y1999*
X10802Y1992*
X10790Y1986*
X10778Y1981*
X10765Y1976*
X10752Y1971*
X10738Y1967*
X10724Y1964*
X10710Y1962*
X10696Y1959*
X10680Y1958*
X10665Y1957*
X10649Y1957*
X10472*
X10577Y2410D02*
Y2043D01*
X10643*
X10664Y2044*
X10684Y2046*
X10703Y2050*
X10720Y2056*
X10737Y2063*
X10752Y2072*
X10766Y2082*
X10779Y2094*
X10791Y2107*
X10800Y2121*
X10809Y2137*
X10816Y2153*
X10821Y2171*
X10825Y2191*
X10827Y2211*
X10828Y2232*
X10827Y2253*
X10825Y2273*
X10821Y2291*
X10816Y2308*
X10809Y2324*
X10800Y2338*
X10791Y2352*
X10779Y2364*
X10766Y2375*
X10752Y2384*
X10737Y2392*
X10721Y2399*
X10703Y2403*
X10684Y2407*
X10665Y2409*
X10644Y2410*
X10577*
X9489Y1962D02*
X9594D01*
X9799D02*
X9919D01*
X9924D02*
X10049D01*
X10274D02*
X10399D01*
X10472D02*
X10715D01*
X9489Y1972D02*
X9594D01*
X9793D02*
X9913D01*
X9930D02*
X10055D01*
X10269D02*
X10393D01*
X10472D02*
X10753D01*
X9489Y1981D02*
X9594D01*
X9787D02*
X9907D01*
X9936D02*
X10060D01*
X10264D02*
X10387D01*
X10472D02*
X10779D01*
X9489Y1991D02*
X9594D01*
X9782D02*
X9902D01*
X9943D02*
X10065D01*
X10259D02*
X10381D01*
X10472D02*
X10799D01*
X9489Y2000D02*
X9594D01*
X9776D02*
X9896D01*
X9949D02*
X10071D01*
X10254D02*
X10375D01*
X10472D02*
X10815D01*
X9489Y2009D02*
X9594D01*
X9770D02*
X9890D01*
X9955D02*
X10076D01*
X10248D02*
X10370D01*
X10472D02*
X10829D01*
X9489Y2019D02*
X9594D01*
X9765D02*
X9884D01*
X9961D02*
X10081D01*
X10243D02*
X10364D01*
X10472D02*
X10842D01*
X9489Y2028D02*
X9594D01*
X9759D02*
X9878D01*
X9967D02*
X10086D01*
X10238D02*
X10358D01*
X10472D02*
X10853D01*
X9489Y2037D02*
X9594D01*
X9753D02*
X9872D01*
X9973D02*
X10092D01*
X10233D02*
X10352D01*
X10472D02*
X10863D01*
X9489Y2047D02*
X9594D01*
X9748D02*
X9866D01*
X9979D02*
X10097D01*
X10228D02*
X10347D01*
X10472D02*
X10577D01*
X10685D02*
X10872D01*
X9489Y2056D02*
X9594D01*
X9742D02*
X9860D01*
X9985D02*
X10102D01*
X10222D02*
X10341D01*
X10472D02*
X10577D01*
X10721D02*
X10880D01*
X9489Y2065D02*
X9594D01*
X9736D02*
X9854D01*
X9991D02*
X10108D01*
X10217D02*
X10335D01*
X10472D02*
X10577D01*
X10741D02*
X10887D01*
X9489Y2075D02*
X9594D01*
X9731D02*
X9848D01*
X9997D02*
X10113D01*
X10212D02*
X10329D01*
X10472D02*
X10577D01*
X10756D02*
X10894D01*
X9489Y2084D02*
X9594D01*
X9725D02*
X9842D01*
X10003D02*
X10118D01*
X10207D02*
X10323D01*
X10472D02*
X10577D01*
X10769D02*
X10900D01*
X9489Y2094D02*
X9594D01*
X9719D02*
X9836D01*
X10009D02*
X10123D01*
X10202D02*
X10318D01*
X10472D02*
X10577D01*
X10779D02*
X10906D01*
X9489Y2103D02*
X9594D01*
X9714D02*
X9830D01*
X10015D02*
X10129D01*
X10196D02*
X10312D01*
X10472D02*
X10577D01*
X10787D02*
X10910D01*
X9489Y2112D02*
X9594D01*
X9708D02*
X9824D01*
X10021D02*
X10134D01*
X10191D02*
X10306D01*
X10472D02*
X10577D01*
X10794D02*
X10915D01*
X9489Y2122D02*
X9594D01*
X9702D02*
X9818D01*
X10027D02*
X10139D01*
X10186D02*
X10300D01*
X10472D02*
X10577D01*
X10801D02*
X10919D01*
X9489Y2131D02*
X9594D01*
X9695D02*
X9812D01*
X10034D02*
X10145D01*
X10181D02*
X10295D01*
X10472D02*
X10577D01*
X10806D02*
X10922D01*
X9489Y2140D02*
X9594D01*
X9688D02*
X9805D01*
X10040D02*
X10150D01*
X10176D02*
X10289D01*
X10472D02*
X10577D01*
X10811D02*
X10925D01*
X9489Y2150D02*
X9594D01*
X9679D02*
X9798D01*
X10046D02*
X10154D01*
X10172D02*
X10283D01*
X10472D02*
X10577D01*
X10815D02*
X10928D01*
X9489Y2159D02*
X9594D01*
X9667D02*
X9791D01*
X10052D02*
X10157D01*
X10169D02*
X10277D01*
X10472D02*
X10577D01*
X10818D02*
X10930D01*
X9489Y2169D02*
X9594D01*
X9645D02*
X9783D01*
X10058D02*
X10161D01*
X10166D02*
X10271D01*
X10472D02*
X10577D01*
X10821D02*
X10932D01*
X9489Y2178D02*
X9774D01*
X10064D02*
X10266D01*
X10472D02*
X10577D01*
X10823D02*
X10934D01*
X9489Y2187D02*
X9763D01*
X10070D02*
X10260D01*
X10472D02*
X10577D01*
X10825D02*
X10936D01*
X9489Y2197D02*
X9748D01*
X10076D02*
X10254D01*
X10472D02*
X10577D01*
X10826D02*
X10937D01*
X9489Y2206D02*
X9754D01*
X10082D02*
X10248D01*
X10472D02*
X10577D01*
X10827D02*
X10937D01*
X9489Y2215D02*
X9775D01*
X10088D02*
X10243D01*
X10472D02*
X10577D01*
X10828D02*
X10938D01*
X9489Y2225D02*
X9792D01*
X10094D02*
X10237D01*
X10472D02*
X10577D01*
X10828D02*
X10938D01*
X9489Y2234D02*
X9805D01*
X10091D02*
X10237D01*
X10472D02*
X10577D01*
X10828D02*
X10939D01*
X9489Y2244D02*
X9816D01*
X10085D02*
X10243D01*
X10472D02*
X10577D01*
X10828D02*
X10938D01*
X9489Y2253D02*
X9594D01*
X9672D02*
X9825D01*
X10080D02*
X10249D01*
X10472D02*
X10577D01*
X10827D02*
X10938D01*
X9489Y2262D02*
X9594D01*
X9704D02*
X9832D01*
X10074D02*
X10254D01*
X10472D02*
X10577D01*
X10826D02*
X10937D01*
X9489Y2272D02*
X9594D01*
X9719D02*
X9838D01*
X10069D02*
X10260D01*
X10472D02*
X10577D01*
X10825D02*
X10937D01*
X9489Y2281D02*
X9594D01*
X9729D02*
X9844D01*
X10063D02*
X10266D01*
X10472D02*
X10577D01*
X10824D02*
X10936D01*
X9489Y2290D02*
X9594D01*
X9736D02*
X9848D01*
X10058D02*
X10165D01*
X10171D02*
X10272D01*
X10472D02*
X10577D01*
X10822D02*
X10934D01*
X9489Y2300D02*
X9594D01*
X9741D02*
X9852D01*
X10052D02*
X10162D01*
X10175D02*
X10277D01*
X10472D02*
X10577D01*
X10819D02*
X10933D01*
X9489Y2309D02*
X9594D01*
X9745D02*
X9855D01*
X10047D02*
X10158D01*
X10179D02*
X10283D01*
X10472D02*
X10577D01*
X10816D02*
X10931D01*
X9489Y2318D02*
X9594D01*
X9748D02*
X9857D01*
X10041D02*
X10154D01*
X10182D02*
X10289D01*
X10472D02*
X10577D01*
X10812D02*
X10929D01*
X9489Y2328D02*
X9594D01*
X9749D02*
X9858D01*
X10036D02*
X10150D01*
X10186D02*
X10295D01*
X10472D02*
X10577D01*
X10807D02*
X10927D01*
X9489Y2337D02*
X9594D01*
X9750D02*
X9859D01*
X10030D02*
X10145D01*
X10191D02*
X10300D01*
X10472D02*
X10577D01*
X10801D02*
X10924D01*
X9489Y2347D02*
X9594D01*
X9750D02*
X9860D01*
X10025D02*
X10140D01*
X10197D02*
X10306D01*
X10472D02*
X10577D01*
X10795D02*
X10921D01*
X9489Y2356D02*
X9594D01*
X9749D02*
X9860D01*
X10019D02*
X10135D01*
X10202D02*
X10312D01*
X10472D02*
X10577D01*
X10787D02*
X10918D01*
X9489Y2365D02*
X9594D01*
X9747D02*
X9860D01*
X10014D02*
X10130D01*
X10207D02*
X10318D01*
X10472D02*
X10577D01*
X10778D02*
X10914D01*
X9489Y2375D02*
X9594D01*
X9743D02*
X9859D01*
X10008D02*
X10126D01*
X10213D02*
X10323D01*
X10472D02*
X10577D01*
X10767D02*
X10909D01*
X9489Y2384D02*
X9594D01*
X9738D02*
X9857D01*
X10003D02*
X10121D01*
X10218D02*
X10329D01*
X10472D02*
X10577D01*
X10753D02*
X10904D01*
X9489Y2393D02*
X9594D01*
X9730D02*
X9855D01*
X9997D02*
X10116D01*
X10223D02*
X10335D01*
X10472D02*
X10577D01*
X10734D02*
X10899D01*
X9489Y2403D02*
X9594D01*
X9718D02*
X9853D01*
X9991D02*
X10111D01*
X10228D02*
X10341D01*
X10472D02*
X10577D01*
X10706D02*
X10892D01*
X9489Y2412D02*
X9594D01*
X9692D02*
X9849D01*
X9986D02*
X10107D01*
X10234D02*
X10346D01*
X10472D02*
X10885D01*
X9489Y2422D02*
X9845D01*
X9980D02*
X10102D01*
X10239D02*
X10352D01*
X10472D02*
X10876D01*
X9489Y2431D02*
X9840D01*
X9975D02*
X10097D01*
X10244D02*
X10358D01*
X10472D02*
X10867D01*
X9489Y2440D02*
X9834D01*
X9969D02*
X10092D01*
X10249D02*
X10364D01*
X10472D02*
X10856D01*
X9489Y2450D02*
X9825D01*
X9964D02*
X10087D01*
X10255D02*
X10369D01*
X10472D02*
X10843D01*
X9489Y2459D02*
X9815D01*
X9958D02*
X10083D01*
X10260D02*
X10375D01*
X10472D02*
X10828D01*
X9489Y2468D02*
X9802D01*
X9953D02*
X10078D01*
X10265D02*
X10381D01*
X10472D02*
X10809D01*
X9489Y2478D02*
X9784D01*
X9947D02*
X10073D01*
X10271D02*
X10387D01*
X10472D02*
X10785D01*
X9489Y2487D02*
X9757D01*
X9942D02*
X10068D01*
X10276D02*
X10392D01*
X10472D02*
X10752D01*
X9489Y2496D02*
X9698D01*
X9936D02*
X10064D01*
X10281D02*
X10398D01*
X10472D02*
X10676D01*
X9901Y7660D02*
X9746D01*
Y7207*
X9641*
Y7660*
X9488*
Y7747*
X9901*
Y7660*
X10398Y7207D02*
X10274D01*
X10171Y7392*
X10169Y7397*
X10166Y7405*
X10163Y7414*
X10161Y7425*
X10159*
X10153Y7407*
X10146Y7391*
X10042Y7207*
X9917*
X10092Y7477*
X9932Y7747*
X10059*
X10146Y7577*
X10151Y7567*
X10155Y7557*
X10160Y7546*
X10163Y7533*
X10165*
X10168Y7542*
X10172Y7552*
X10177Y7565*
X10183Y7579*
X10278Y7747*
X10395*
X10230Y7479*
X10398Y7207*
X10469D02*
Y7747D01*
X10648*
X10665Y7747*
X10683Y7746*
X10699Y7745*
X10715Y7743*
X10730Y7741*
X10745Y7738*
X10760Y7734*
X10773Y7731*
X10787Y7726*
X10799Y7721*
X10811Y7716*
X10823Y7710*
X10833Y7704*
X10844Y7696*
X10854Y7689*
X10863Y7681*
X10871Y7672*
X10880Y7664*
X10888Y7654*
X10894Y7644*
X10901Y7633*
X10907Y7623*
X10912Y7611*
X10917Y7599*
X10921Y7586*
X10925Y7573*
X10928Y7559*
X10930Y7545*
X10932Y7530*
X10934Y7515*
X10934Y7500*
X10935Y7484*
X10934Y7468*
X10934Y7453*
X10932Y7438*
X10930Y7424*
X10927Y7410*
X10923Y7396*
X10919Y7383*
X10914Y7370*
X10909Y7358*
X10903Y7346*
X10896Y7335*
X10889Y7323*
X10881Y7313*
X10873Y7302*
X10864Y7292*
X10854Y7282*
X10844Y7273*
X10833Y7265*
X10822Y7256*
X10810Y7249*
X10799Y7242*
X10787Y7236*
X10774Y7231*
X10761Y7226*
X10748Y7221*
X10734Y7217*
X10721Y7214*
X10706Y7212*
X10692Y7209*
X10677Y7208*
X10661Y7207*
X10645Y7207*
X10469*
X10573Y7660D02*
Y7293D01*
X10639*
X10661Y7294*
X10681Y7296*
X10699Y7300*
X10717Y7306*
X10733Y7313*
X10748Y7322*
X10763Y7332*
X10775Y7344*
X10787Y7357*
X10797Y7371*
X10806Y7387*
X10812Y7403*
X10818Y7421*
X10822Y7441*
X10824Y7461*
X10825Y7482*
X10824Y7503*
X10822Y7523*
X10818Y7541*
X10812Y7558*
X10806Y7574*
X10797Y7588*
X10787Y7602*
X10775Y7614*
X10763Y7625*
X10748Y7634*
X10733Y7642*
X10717Y7649*
X10700Y7653*
X10681Y7657*
X10661Y7659*
X10640Y7660*
X10573*
X9641Y7212D02*
X9746D01*
X9921D02*
X10046D01*
X10271D02*
X10395D01*
X10469D02*
X10711D01*
X9641Y7222D02*
X9746D01*
X9927D02*
X10051D01*
X10265D02*
X10389D01*
X10469D02*
X10749D01*
X9641Y7231D02*
X9746D01*
X9933D02*
X10056D01*
X10260D02*
X10383D01*
X10469D02*
X10776D01*
X9641Y7241D02*
X9746D01*
X9939D02*
X10062D01*
X10255D02*
X10377D01*
X10469D02*
X10795D01*
X9641Y7250D02*
X9746D01*
X9945D02*
X10067D01*
X10250D02*
X10372D01*
X10469D02*
X10812D01*
X9641Y7259D02*
X9746D01*
X9951D02*
X10072D01*
X10245D02*
X10366D01*
X10469D02*
X10825D01*
X9641Y7269D02*
X9746D01*
X9957D02*
X10077D01*
X10239D02*
X10360D01*
X10469D02*
X10838D01*
X9641Y7278D02*
X9746D01*
X9963D02*
X10083D01*
X10234D02*
X10354D01*
X10469D02*
X10849D01*
X9641Y7287D02*
X9746D01*
X9969D02*
X10088D01*
X10229D02*
X10349D01*
X10469D02*
X10859D01*
X9641Y7297D02*
X9746D01*
X9975D02*
X10093D01*
X10224D02*
X10343D01*
X10469D02*
X10573D01*
X10682D02*
X10868D01*
X9641Y7306D02*
X9746D01*
X9981D02*
X10099D01*
X10219D02*
X10337D01*
X10469D02*
X10573D01*
X10717D02*
X10876D01*
X9641Y7315D02*
X9746D01*
X9987D02*
X10104D01*
X10214D02*
X10331D01*
X10469D02*
X10573D01*
X10737D02*
X10883D01*
X9641Y7325D02*
X9746D01*
X9993D02*
X10109D01*
X10208D02*
X10325D01*
X10469D02*
X10573D01*
X10753D02*
X10890D01*
X9641Y7334D02*
X9746D01*
X9999D02*
X10114D01*
X10203D02*
X10320D01*
X10469D02*
X10573D01*
X10765D02*
X10896D01*
X9641Y7344D02*
X9746D01*
X10006D02*
X10120D01*
X10198D02*
X10314D01*
X10469D02*
X10573D01*
X10775D02*
X10902D01*
X9641Y7353D02*
X9746D01*
X10012D02*
X10125D01*
X10193D02*
X10308D01*
X10469D02*
X10573D01*
X10783D02*
X10907D01*
X9641Y7362D02*
X9746D01*
X10018D02*
X10130D01*
X10188D02*
X10302D01*
X10469D02*
X10573D01*
X10791D02*
X10911D01*
X9641Y7372D02*
X9746D01*
X10024D02*
X10136D01*
X10182D02*
X10297D01*
X10469D02*
X10573D01*
X10797D02*
X10915D01*
X9641Y7381D02*
X9746D01*
X10030D02*
X10141D01*
X10177D02*
X10291D01*
X10469D02*
X10573D01*
X10802D02*
X10919D01*
X9641Y7390D02*
X9746D01*
X10036D02*
X10146D01*
X10172D02*
X10285D01*
X10469D02*
X10573D01*
X10807D02*
X10922D01*
X9641Y7400D02*
X9746D01*
X10042D02*
X10150D01*
X10168D02*
X10279D01*
X10469D02*
X10573D01*
X10811D02*
X10924D01*
X9641Y7409D02*
X9746D01*
X10048D02*
X10154D01*
X10165D02*
X10273D01*
X10469D02*
X10573D01*
X10814D02*
X10926D01*
X9641Y7419D02*
X9746D01*
X10054D02*
X10157D01*
X10162D02*
X10268D01*
X10469D02*
X10573D01*
X10817D02*
X10928D01*
X9641Y7428D02*
X9746D01*
X10060D02*
X10262D01*
X10469D02*
X10573D01*
X10819D02*
X10930D01*
X9641Y7437D02*
X9746D01*
X10066D02*
X10256D01*
X10469D02*
X10573D01*
X10821D02*
X10932D01*
X9641Y7447D02*
X9746D01*
X10072D02*
X10250D01*
X10469D02*
X10573D01*
X10822D02*
X10933D01*
X9641Y7456D02*
X9746D01*
X10078D02*
X10245D01*
X10469D02*
X10573D01*
X10823D02*
X10934D01*
X9641Y7465D02*
X9746D01*
X10084D02*
X10239D01*
X10469D02*
X10573D01*
X10824D02*
X10934D01*
X9641Y7475D02*
X9746D01*
X10090D02*
X10233D01*
X10469D02*
X10573D01*
X10824D02*
X10935D01*
X9641Y7484D02*
X9746D01*
X10087D02*
X10233D01*
X10469D02*
X10573D01*
X10825D02*
X10935D01*
X9641Y7494D02*
X9746D01*
X10082D02*
X10239D01*
X10469D02*
X10573D01*
X10824D02*
X10935D01*
X9641Y7503D02*
X9746D01*
X10076D02*
X10245D01*
X10469D02*
X10573D01*
X10824D02*
X10934D01*
X9641Y7512D02*
X9746D01*
X10071D02*
X10251D01*
X10469D02*
X10573D01*
X10823D02*
X10934D01*
X9641Y7522D02*
X9746D01*
X10065D02*
X10256D01*
X10469D02*
X10573D01*
X10822D02*
X10933D01*
X9641Y7531D02*
X9746D01*
X10060D02*
X10262D01*
X10469D02*
X10573D01*
X10820D02*
X10932D01*
X9641Y7540D02*
X9746D01*
X10054D02*
X10161D01*
X10167D02*
X10268D01*
X10469D02*
X10573D01*
X10818D02*
X10931D01*
X9641Y7550D02*
X9746D01*
X10049D02*
X10158D01*
X10171D02*
X10274D01*
X10469D02*
X10573D01*
X10815D02*
X10929D01*
X9641Y7559D02*
X9746D01*
X10043D02*
X10154D01*
X10175D02*
X10279D01*
X10469D02*
X10573D01*
X10812D02*
X10928D01*
X9641Y7568D02*
X9746D01*
X10038D02*
X10150D01*
X10179D02*
X10285D01*
X10469D02*
X10573D01*
X10808D02*
X10926D01*
X9641Y7578D02*
X9746D01*
X10032D02*
X10146D01*
X10183D02*
X10291D01*
X10469D02*
X10573D01*
X10803D02*
X10923D01*
X9641Y7587D02*
X9746D01*
X10026D02*
X10141D01*
X10188D02*
X10297D01*
X10469D02*
X10573D01*
X10798D02*
X10920D01*
X9641Y7597D02*
X9746D01*
X10021D02*
X10136D01*
X10193D02*
X10302D01*
X10469D02*
X10573D01*
X10791D02*
X10918D01*
X9641Y7606D02*
X9746D01*
X10015D02*
X10131D01*
X10198D02*
X10308D01*
X10469D02*
X10573D01*
X10783D02*
X10914D01*
X9641Y7615D02*
X9746D01*
X10010D02*
X10127D01*
X10204D02*
X10314D01*
X10469D02*
X10573D01*
X10774D02*
X10910D01*
X9641Y7625D02*
X9746D01*
X10004D02*
X10122D01*
X10209D02*
X10320D01*
X10469D02*
X10573D01*
X10763D02*
X10906D01*
X9641Y7634D02*
X9746D01*
X9999D02*
X10117D01*
X10214D02*
X10325D01*
X10469D02*
X10573D01*
X10749D02*
X10900D01*
X9641Y7643D02*
X9746D01*
X9993D02*
X10112D01*
X10219D02*
X10331D01*
X10469D02*
X10573D01*
X10730D02*
X10895D01*
X9641Y7653D02*
X9746D01*
X9988D02*
X10108D01*
X10225D02*
X10337D01*
X10469D02*
X10573D01*
X10702D02*
X10888D01*
X9488Y7662D02*
X9901D01*
X9982D02*
X10103D01*
X10230D02*
X10343D01*
X10469D02*
X10881D01*
X9488Y7672D02*
X9901D01*
X9977D02*
X10098D01*
X10235D02*
X10349D01*
X10469D02*
X10872D01*
X9488Y7681D02*
X9901D01*
X9971D02*
X10093D01*
X10240D02*
X10354D01*
X10469D02*
X10864D01*
X9488Y7690D02*
X9901D01*
X9966D02*
X10089D01*
X10246D02*
X10360D01*
X10469D02*
X10852D01*
X9488Y7700D02*
X9901D01*
X9960D02*
X10084D01*
X10251D02*
X10366D01*
X10469D02*
X10839D01*
X9488Y7709D02*
X9901D01*
X9955D02*
X10079D01*
X10256D02*
X10371D01*
X10469D02*
X10824D01*
X9488Y7718D02*
X9901D01*
X9949D02*
X10074D01*
X10262D02*
X10377D01*
X10469D02*
X10806D01*
X9488Y7728D02*
X9901D01*
X9944D02*
X10069D01*
X10267D02*
X10383D01*
X10469D02*
X10782D01*
X9488Y7737D02*
X9901D01*
X9938D02*
X10065D01*
X10272D02*
X10389D01*
X10469D02*
X10748D01*
X9488Y7746D02*
X9901D01*
X9932D02*
X10060D01*
X10277D02*
X10395D01*
X10469D02*
X10672D01*
X12092Y4097D02*
X12091Y4071D01*
X12089Y4046*
X12084Y4023*
X12078Y4002*
X12070Y3982*
X12059Y3964*
X12047Y3947*
X12033Y3932*
X12018Y3919*
X12001Y3907*
X11982Y3897*
X11961Y3890*
X11939Y3883*
X11915Y3879*
X11889Y3876*
X11862Y3875*
X11843Y3875*
X11825Y3877*
X11809Y3878*
X11793Y3881*
X11778Y3885*
X11763Y3889*
X11750Y3894*
X11738Y3899*
Y3988*
X11753Y3980*
X11768Y3973*
X11783Y3967*
X11799Y3962*
X11814Y3958*
X11829Y3955*
X11844Y3954*
X11859Y3953*
X11875Y3954*
X11889Y3955*
X11902Y3958*
X11915Y3961*
X11926Y3966*
X11937Y3972*
X11947Y3979*
X11956Y3986*
X11964Y3995*
X11971Y4005*
X11977Y4015*
X11982Y4026*
X11986Y4039*
X11988Y4052*
X11990Y4066*
X11990Y4081*
Y4115*
X11989*
X11984Y4107*
X11978Y4099*
X11972Y4092*
X11966Y4085*
X11959Y4079*
X11952Y4074*
X11945Y4068*
X11937Y4064*
X11929Y4060*
X11921Y4057*
X11912Y4054*
X11904Y4051*
X11895Y4049*
X11885Y4048*
X11875Y4047*
X11865Y4047*
X11848Y4048*
X11831Y4050*
X11815Y4054*
X11800Y4060*
X11786Y4067*
X11773Y4076*
X11760Y4087*
X11749Y4099*
X11739Y4112*
X11730Y4127*
X11722Y4143*
X11716Y4160*
X11711Y4178*
X11708Y4197*
X11706Y4217*
X11705Y4238*
X11706Y4262*
X11708Y4285*
X11712Y4306*
X11717Y4326*
X11724Y4345*
X11732Y4362*
X11742Y4378*
X11754Y4394*
X11766Y4407*
X11779Y4419*
X11794Y4429*
X11809Y4437*
X11826Y4443*
X11843Y4448*
X11862Y4451*
X11881Y4452*
X11898Y4451*
X11914Y4448*
X11929Y4444*
X11944Y4437*
X11956Y4430*
X11968Y4420*
X11979Y4408*
X11989Y4395*
X11990*
Y4442*
X12092*
Y4097*
X11991Y4277D02*
X11991Y4287D01*
X11990Y4296*
X11988Y4305*
X11986Y4313*
X11982Y4322*
X11978Y4330*
X11973Y4337*
X11967Y4344*
X11961Y4351*
X11954Y4356*
X11946Y4361*
X11939Y4365*
X11931Y4368*
X11923Y4370*
X11914Y4372*
X11904Y4372*
X11894Y4372*
X11884Y4370*
X11874Y4367*
X11865Y4363*
X11857Y4358*
X11849Y4353*
X11841Y4346*
X11835Y4338*
X11828Y4329*
X11823Y4319*
X11819Y4309*
X11815Y4297*
X11812Y4285*
X11810Y4271*
X11809Y4257*
X11809Y4242*
X11809Y4229*
X11810Y4217*
X11812Y4206*
X11815Y4195*
X11818Y4185*
X11822Y4175*
X11827Y4166*
X11833Y4158*
X11840Y4151*
X11846Y4145*
X11854Y4139*
X11862Y4135*
X11870Y4131*
X11879Y4129*
X11889Y4127*
X11899Y4127*
X11909Y4127*
X11918Y4129*
X11927Y4131*
X11936Y4135*
X11945Y4139*
X11952Y4145*
X11959Y4151*
X11966Y4158*
X11972Y4166*
X11977Y4175*
X11982Y4184*
X11985Y4194*
X11988Y4204*
X11990Y4215*
X11991Y4227*
X11991Y4239*
Y4277*
X12302Y4104D02*
Y3879D01*
X12199*
Y4442*
X12302*
Y4381*
X12303*
X12309Y4390*
X12315Y4398*
X12321Y4405*
X12328Y4412*
X12335Y4418*
X12341Y4424*
X12349Y4430*
X12357Y4434*
X12365Y4438*
X12374Y4442*
X12382Y4445*
X12391Y4447*
X12401Y4449*
X12410Y4451*
X12420Y4451*
X12430Y4452*
X12447Y4451*
X12465Y4448*
X12480Y4444*
X12495Y4439*
X12509Y4432*
X12522Y4423*
X12534Y4413*
X12545Y4400*
X12555Y4387*
X12563Y4373*
X12571Y4357*
X12576Y4340*
X12581Y4322*
X12584Y4303*
X12586Y4282*
X12587Y4260*
X12586Y4237*
X12584Y4215*
X12580Y4193*
X12575Y4173*
X12569Y4155*
X12560Y4137*
X12550Y4121*
X12539Y4105*
X12527Y4092*
X12513Y4080*
X12499Y4070*
X12484Y4062*
X12467Y4055*
X12450Y4051*
X12431Y4048*
X12412Y4047*
X12395Y4048*
X12379Y4051*
X12363Y4055*
X12349Y4062*
X12336Y4070*
X12324Y4080*
X12313Y4091*
X12303Y4104*
X12302*
X12300Y4225D02*
Y4214D01*
X12302Y4204*
X12304Y4195*
X12306Y4186*
X12310Y4178*
X12314Y4169*
X12319Y4162*
X12324Y4155*
X12331Y4148*
X12338Y4143*
X12344Y4138*
X12352Y4134*
X12360Y4131*
X12368Y4129*
X12377Y4127*
X12386Y4127*
X12398Y4127*
X12408Y4129*
X12418Y4132*
X12426Y4136*
X12435Y4141*
X12443Y4146*
X12450Y4154*
X12457Y4162*
X12463Y4171*
X12468Y4181*
X12472Y4192*
X12476Y4204*
X12478Y4217*
X12481Y4230*
X12482Y4245*
X12482Y4260*
X12482Y4273*
X12481Y4286*
X12479Y4298*
X12476Y4309*
X12473Y4319*
X12469Y4328*
X12465Y4336*
X12460Y4344*
X12454Y4351*
X12447Y4356*
X12440Y4361*
X12432Y4365*
X12424Y4368*
X12414Y4370*
X12404Y4372*
X12394Y4372*
X12384Y4372*
X12374Y4370*
X12364Y4368*
X12356Y4364*
X12347Y4360*
X12340Y4354*
X12333Y4348*
X12326Y4341*
X12320Y4333*
X12315Y4324*
X12310Y4315*
X12307Y4306*
X12304Y4295*
X12302Y4285*
X12300Y4274*
Y4262*
Y4225*
X12661Y4569D02*
X12661Y4575D01*
X12662Y4581*
X12663Y4586*
X12665Y4591*
X12668Y4596*
X12670Y4601*
X12674Y4604*
X12677Y4609*
X12682Y4612*
X12687Y4616*
X12692Y4619*
X12697Y4621*
X12702Y4623*
X12708Y4624*
X12715Y4625*
X12721*
X12733Y4624*
X12744Y4621*
X12755Y4616*
X12764Y4609*
X12768Y4605*
X12771Y4601*
X12774Y4596*
X12777Y4591*
X12779Y4586*
X12780Y4581*
X12781Y4575*
Y4569*
Y4563*
X12780Y4558*
X12779Y4553*
X12777Y4548*
X12775Y4543*
X12772Y4538*
X12768Y4534*
X12764Y4530*
X12759Y4526*
X12755Y4523*
X12750Y4520*
X12745Y4518*
X12739Y4516*
X12733Y4515*
X12727Y4514*
X12721*
X12715*
X12708Y4515*
X12702Y4517*
X12697Y4518*
X12692Y4521*
X12687Y4523*
X12682Y4526*
X12678Y4530*
X12674Y4534*
X12671Y4539*
X12668Y4543*
X12665Y4548*
X12663Y4553*
X12662Y4559*
X12661Y4564*
X12661Y4569*
X12669Y4057D02*
Y4442D01*
X12771*
Y4057*
X12669*
X12854Y4247D02*
X12854Y4270D01*
X12857Y4292*
X12862Y4312*
X12867Y4332*
X12875Y4350*
X12885Y4367*
X12896Y4382*
X12909Y4397*
X12924Y4410*
X12940Y4421*
X12957Y4430*
X12975Y4438*
X12995Y4444*
X13015Y4448*
X13037Y4451*
X13061Y4452*
X13083Y4451*
X13104Y4448*
X13124Y4444*
X13143Y4438*
X13161Y4431*
X13177Y4421*
X13192Y4411*
X13206Y4398*
X13219Y4384*
X13230Y4369*
X13239Y4353*
X13246Y4335*
X13252Y4316*
X13257Y4296*
X13259Y4276*
X13259Y4254*
X13259Y4231*
X13256Y4209*
X13252Y4188*
X13246Y4169*
X13238Y4151*
X13229Y4134*
X13217Y4118*
X13204Y4104*
X13190Y4090*
X13175Y4079*
X13157Y4069*
X13139Y4061*
X13120Y4055*
X13099Y4051*
X13078Y4048*
X13055Y4047*
X13032Y4048*
X13011Y4050*
X12991Y4055*
X12972Y4061*
X12954Y4068*
X12937Y4078*
X12922Y4088*
X12908Y4101*
X12895Y4115*
X12884Y4131*
X12875Y4147*
X12867Y4165*
X12861Y4184*
X12857Y4204*
X12854Y4225*
X12854Y4247*
X12957Y4249D02*
X12958Y4234D01*
X12959Y4220*
X12961Y4208*
X12964Y4195*
X12967Y4185*
X12971Y4175*
X12976Y4166*
X12982Y4158*
X12989Y4150*
X12997Y4144*
X13005Y4139*
X13014Y4135*
X13024Y4131*
X13034Y4129*
X13046Y4127*
X13058Y4127*
X13070Y4127*
X13081Y4129*
X13091Y4131*
X13101Y4135*
X13110Y4139*
X13117Y4145*
X13125Y4151*
X13131Y4158*
X13137Y4166*
X13142Y4176*
X13146Y4186*
X13149Y4197*
X13152Y4209*
X13154Y4222*
X13155Y4236*
X13155Y4251*
X13155Y4266*
X13154Y4280*
X13152Y4292*
X13149Y4304*
X13146Y4315*
X13142Y4325*
X13137Y4334*
X13131Y4342*
X13125Y4349*
X13117Y4355*
X13109Y4360*
X13100Y4364*
X13091Y4368*
X13081Y4370*
X13070Y4372*
X13058Y4372*
X13046Y4372*
X13035Y4370*
X13025Y4367*
X13015Y4364*
X13007Y4359*
X12998Y4354*
X12990Y4347*
X12984Y4339*
X12977Y4331*
X12972Y4321*
X12967Y4311*
X12964Y4300*
X12961Y4289*
X12959Y4276*
X12958Y4263*
X12957Y4249*
X13445Y4143D02*
X13674D01*
Y4057*
X13336*
Y4097*
X13337Y4119*
X13340Y4139*
X13344Y4159*
X13351Y4178*
X13360Y4196*
X13369Y4214*
X13381Y4230*
X13394Y4247*
X13402Y4255*
X13411Y4265*
X13423Y4276*
X13437Y4288*
X13452Y4301*
X13470Y4314*
X13489Y4330*
X13510Y4346*
X13519Y4352*
X13527Y4358*
X13533Y4364*
X13540Y4371*
X13546Y4377*
X13551Y4383*
X13556Y4389*
X13560Y4395*
X13567Y4407*
X13571Y4419*
X13574Y4433*
X13575Y4447*
X13574Y4456*
X13573Y4464*
X13572Y4472*
X13570Y4479*
X13567Y4486*
X13563Y4492*
X13559Y4498*
X13554Y4503*
X13548Y4508*
X13542Y4512*
X13535Y4516*
X13527Y4518*
X13518Y4521*
X13509Y4522*
X13499Y4523*
X13488Y4523*
X13471Y4522*
X13454Y4520*
X13437Y4516*
X13420Y4509*
X13404Y4502*
X13387Y4492*
X13371Y4481*
X13355Y4468*
Y4561*
X13372Y4571*
X13389Y4580*
X13406Y4588*
X13425Y4594*
X13444Y4600*
X13463Y4603*
X13483Y4605*
X13503Y4606*
X13523Y4605*
X13543Y4604*
X13560Y4600*
X13577Y4596*
X13593Y4590*
X13607Y4583*
X13620Y4575*
X13633Y4565*
X13643Y4554*
X13653Y4543*
X13660Y4530*
X13667Y4517*
X13672Y4502*
X13675Y4486*
X13677Y4470*
X13678Y4453*
X13677Y4435*
X13675Y4417*
X13672Y4401*
X13666Y4387*
X13660Y4373*
X13653Y4359*
X13644Y4347*
X13634Y4334*
X13624Y4323*
X13613Y4312*
X13602Y4302*
X13590Y4291*
X13564Y4271*
X13537Y4251*
X13525Y4243*
X13514Y4234*
X13504Y4226*
X13495Y4217*
X13486Y4210*
X13479Y4203*
X13472Y4195*
X13466Y4189*
X13461Y4182*
X13457Y4176*
X13453Y4170*
X13450Y4164*
X13447Y4159*
X13446Y4153*
X13445Y4148*
X13445Y4143*
X11779Y3884D02*
X11942D01*
X12199D02*
X12302D01*
X11750Y3894D02*
X11972D01*
X12199D02*
X12302D01*
X11738Y3903D02*
X11993D01*
X12199D02*
X12302D01*
X11738Y3912D02*
X12008D01*
X12199D02*
X12302D01*
X11738Y3922D02*
X12021D01*
X12199D02*
X12302D01*
X11738Y3931D02*
X12032D01*
X12199D02*
X12302D01*
X11738Y3941D02*
X12041D01*
X12199D02*
X12302D01*
X11738Y3950D02*
X12049D01*
X12199D02*
X12302D01*
X11738Y3959D02*
X11809D01*
X11908D02*
X12056D01*
X12199D02*
X12302D01*
X11738Y3969D02*
X11778D01*
X11932D02*
X12062D01*
X12199D02*
X12302D01*
X11738Y3978D02*
X11757D01*
X11946D02*
X12067D01*
X12199D02*
X12302D01*
X11738Y3987D02*
X11739D01*
X11957D02*
X12072D01*
X12199D02*
X12302D01*
X11965Y3997D02*
X12076D01*
X12199D02*
X12302D01*
X11972Y4006D02*
X12079D01*
X12199D02*
X12302D01*
X11977Y4016D02*
X12082D01*
X12199D02*
X12302D01*
X11981Y4025D02*
X12084D01*
X12199D02*
X12302D01*
X11984Y4034D02*
X12086D01*
X12199D02*
X12302D01*
X11987Y4044D02*
X12088D01*
X12199D02*
X12302D01*
X11820Y4053D02*
X11910D01*
X11989D02*
X12089D01*
X12199D02*
X12302D01*
X12371D02*
X12459D01*
X12998D02*
X13110D01*
X11796Y4062D02*
X11934D01*
X11990D02*
X12091D01*
X12199D02*
X12302D01*
X12348D02*
X12485D01*
X12669D02*
X12771D01*
X12968D02*
X13143D01*
X13336D02*
X13674D01*
X11780Y4072D02*
X11949D01*
X11990D02*
X12092D01*
X12199D02*
X12302D01*
X12334D02*
X12501D01*
X12669D02*
X12771D01*
X12948D02*
X13163D01*
X13336D02*
X13674D01*
X11767Y4081D02*
X11961D01*
X11990D02*
X12092D01*
X12199D02*
X12302D01*
X12322D02*
X12515D01*
X12669D02*
X12771D01*
X12932D02*
X13178D01*
X13336D02*
X13674D01*
X11757Y4091D02*
X11971D01*
X11990D02*
X12092D01*
X12199D02*
X12302D01*
X12313D02*
X12525D01*
X12669D02*
X12771D01*
X12920D02*
X13190D01*
X13336D02*
X13674D01*
X11748Y4100D02*
X11978D01*
X11990D02*
X12092D01*
X12199D02*
X12302D01*
X12306D02*
X12534D01*
X12669D02*
X12771D01*
X12909D02*
X13200D01*
X13336D02*
X13674D01*
X11741Y4109D02*
X11985D01*
X11990D02*
X12092D01*
X12199D02*
X12542D01*
X12669D02*
X12771D01*
X12901D02*
X13209D01*
X13337D02*
X13674D01*
X11735Y4119D02*
X12092D01*
X12199D02*
X12549D01*
X12669D02*
X12771D01*
X12893D02*
X13218D01*
X13337D02*
X13674D01*
X11729Y4128D02*
X11885D01*
X11912D02*
X12092D01*
X12199D02*
X12374D01*
X12401D02*
X12555D01*
X12669D02*
X12771D01*
X12886D02*
X13041D01*
X13074D02*
X13225D01*
X13338D02*
X13674D01*
X11725Y4137D02*
X11857D01*
X11941D02*
X12092D01*
X12199D02*
X12345D01*
X12429D02*
X12560D01*
X12669D02*
X12771D01*
X12880D02*
X13008D01*
X13106D02*
X13231D01*
X13340D02*
X13674D01*
X11721Y4147D02*
X11844D01*
X11954D02*
X12092D01*
X12199D02*
X12333D01*
X12443D02*
X12565D01*
X12669D02*
X12771D01*
X12875D02*
X12993D01*
X13120D02*
X13236D01*
X13342D02*
X13445D01*
X11717Y4156D02*
X11835D01*
X11964D02*
X12092D01*
X12199D02*
X12323D01*
X12452D02*
X12569D01*
X12669D02*
X12771D01*
X12871D02*
X12984D01*
X13129D02*
X13240D01*
X13344D02*
X13447D01*
X11714Y4165D02*
X11828D01*
X11971D02*
X12092D01*
X12199D02*
X12317D01*
X12459D02*
X12572D01*
X12669D02*
X12771D01*
X12867D02*
X12976D01*
X13136D02*
X13244D01*
X13347D02*
X13451D01*
X11712Y4175D02*
X11823D01*
X11977D02*
X12092D01*
X12199D02*
X12311D01*
X12465D02*
X12575D01*
X12669D02*
X12771D01*
X12864D02*
X12971D01*
X13141D02*
X13248D01*
X13350D02*
X13456D01*
X11710Y4184D02*
X11818D01*
X11982D02*
X12092D01*
X12199D02*
X12307D01*
X12469D02*
X12578D01*
X12669D02*
X12771D01*
X12861D02*
X12967D01*
X13145D02*
X13250D01*
X13354D02*
X13463D01*
X11708Y4194D02*
X11815D01*
X11985D02*
X12092D01*
X12199D02*
X12304D01*
X12473D02*
X12580D01*
X12669D02*
X12771D01*
X12859D02*
X12964D01*
X13148D02*
X13253D01*
X13358D02*
X13470D01*
X11707Y4203D02*
X11813D01*
X11988D02*
X12092D01*
X12199D02*
X12302D01*
X12475D02*
X12582D01*
X12669D02*
X12771D01*
X12857D02*
X12962D01*
X13150D02*
X13255D01*
X13363D02*
X13479D01*
X11706Y4212D02*
X11811D01*
X11989D02*
X12092D01*
X12199D02*
X12301D01*
X12477D02*
X12584D01*
X12669D02*
X12771D01*
X12856D02*
X12960D01*
X13152D02*
X13256D01*
X13368D02*
X13489D01*
X11706Y4222D02*
X11810D01*
X11991D02*
X12092D01*
X12199D02*
X12300D01*
X12479D02*
X12585D01*
X12669D02*
X12771D01*
X12855D02*
X12959D01*
X13154D02*
X13258D01*
X13375D02*
X13500D01*
X11705Y4231D02*
X11809D01*
X11991D02*
X12092D01*
X12199D02*
X12300D01*
X12481D02*
X12586D01*
X12669D02*
X12771D01*
X12854D02*
X12958D01*
X13155D02*
X13259D01*
X13381D02*
X13511D01*
X11705Y4240D02*
X11809D01*
X11991D02*
X12092D01*
X12199D02*
X12300D01*
X12481D02*
X12586D01*
X12669D02*
X12771D01*
X12854D02*
X12958D01*
X13155D02*
X13259D01*
X13388D02*
X13522D01*
X11706Y4250D02*
X11809D01*
X11991D02*
X12092D01*
X12199D02*
X12300D01*
X12482D02*
X12587D01*
X12669D02*
X12771D01*
X12854D02*
X12957D01*
X13155D02*
X13259D01*
X13396D02*
X13535D01*
X11706Y4259D02*
X11809D01*
X11991D02*
X12092D01*
X12199D02*
X12300D01*
X12482D02*
X12587D01*
X12669D02*
X12771D01*
X12854D02*
X12958D01*
X13155D02*
X13259D01*
X13405D02*
X13547D01*
X11706Y4269D02*
X11810D01*
X11991D02*
X12092D01*
X12199D02*
X12300D01*
X12482D02*
X12587D01*
X12669D02*
X12771D01*
X12854D02*
X12958D01*
X13155D02*
X13259D01*
X13415D02*
X13560D01*
X11707Y4278D02*
X11811D01*
X11991D02*
X12092D01*
X12199D02*
X12301D01*
X12481D02*
X12586D01*
X12669D02*
X12771D01*
X12855D02*
X12959D01*
X13154D02*
X13259D01*
X13425D02*
X13572D01*
X11709Y4287D02*
X11813D01*
X11991D02*
X12092D01*
X12199D02*
X12302D01*
X12480D02*
X12586D01*
X12669D02*
X12771D01*
X12856D02*
X12960D01*
X13153D02*
X13258D01*
X13436D02*
X13584D01*
X11710Y4297D02*
X11815D01*
X11990D02*
X12092D01*
X12199D02*
X12304D01*
X12479D02*
X12585D01*
X12669D02*
X12771D01*
X12858D02*
X12963D01*
X13151D02*
X13256D01*
X13447D02*
X13596D01*
X11712Y4306D02*
X11818D01*
X11988D02*
X12092D01*
X12199D02*
X12307D01*
X12477D02*
X12584D01*
X12669D02*
X12771D01*
X12860D02*
X12966D01*
X13149D02*
X13254D01*
X13459D02*
X13607D01*
X11714Y4315D02*
X11822D01*
X11985D02*
X12092D01*
X12199D02*
X12310D01*
X12474D02*
X12582D01*
X12669D02*
X12771D01*
X12862D02*
X12969D01*
X13146D02*
X13252D01*
X13471D02*
X13617D01*
X11717Y4325D02*
X11826D01*
X11980D02*
X12092D01*
X12199D02*
X12315D01*
X12471D02*
X12580D01*
X12669D02*
X12771D01*
X12865D02*
X12974D01*
X13142D02*
X13250D01*
X13483D02*
X13626D01*
X11720Y4334D02*
X11832D01*
X11975D02*
X12092D01*
X12199D02*
X12321D01*
X12466D02*
X12578D01*
X12669D02*
X12771D01*
X12868D02*
X12980D01*
X13137D02*
X13247D01*
X13495D02*
X13634D01*
X11723Y4344D02*
X11840D01*
X11968D02*
X12092D01*
X12199D02*
X12328D01*
X12460D02*
X12575D01*
X12669D02*
X12771D01*
X12872D02*
X12987D01*
X13130D02*
X13243D01*
X13507D02*
X13641D01*
X11728Y4353D02*
X11849D01*
X11958D02*
X12092D01*
X12199D02*
X12338D01*
X12451D02*
X12572D01*
X12669D02*
X12771D01*
X12877D02*
X12998D01*
X13120D02*
X13239D01*
X13520D02*
X13648D01*
X11732Y4362D02*
X11863D01*
X11944D02*
X12092D01*
X12199D02*
X12352D01*
X12437D02*
X12568D01*
X12669D02*
X12771D01*
X12882D02*
X13012D01*
X13105D02*
X13233D01*
X13531D02*
X13654D01*
X11738Y4372D02*
X11894D01*
X11913D02*
X12092D01*
X12199D02*
X12384D01*
X12404D02*
X12564D01*
X12669D02*
X12771D01*
X12889D02*
X13046D01*
X13069D02*
X13228D01*
X13541D02*
X13659D01*
X11744Y4381D02*
X12092D01*
X12199D02*
X12558D01*
X12669D02*
X12771D01*
X12895D02*
X13221D01*
X13549D02*
X13664D01*
X11751Y4390D02*
X12092D01*
X12199D02*
X12302D01*
X12309D02*
X12553D01*
X12669D02*
X12771D01*
X12903D02*
X13213D01*
X13557D02*
X13668D01*
X11759Y4400D02*
X11985D01*
X11990D02*
X12092D01*
X12199D02*
X12302D01*
X12316D02*
X12546D01*
X12669D02*
X12771D01*
X12913D02*
X13204D01*
X13563D02*
X13671D01*
X11768Y4409D02*
X11978D01*
X11990D02*
X12092D01*
X12199D02*
X12302D01*
X12325D02*
X12537D01*
X12669D02*
X12771D01*
X12923D02*
X13194D01*
X13567D02*
X13673D01*
X11779Y4418D02*
X11970D01*
X11990D02*
X12092D01*
X12199D02*
X12302D01*
X12335D02*
X12527D01*
X12669D02*
X12771D01*
X12936D02*
X13181D01*
X13571D02*
X13675D01*
X11792Y4428D02*
X11959D01*
X11990D02*
X12092D01*
X12199D02*
X12302D01*
X12347D02*
X12515D01*
X12669D02*
X12771D01*
X12952D02*
X13166D01*
X13573D02*
X13676D01*
X11810Y4437D02*
X11944D01*
X11990D02*
X12092D01*
X12199D02*
X12302D01*
X12363D02*
X12499D01*
X12669D02*
X12771D01*
X12973D02*
X13145D01*
X13574D02*
X13678D01*
X11837Y4447D02*
X11920D01*
X12389D02*
X12471D01*
X13008D02*
X13112D01*
X13575D02*
X13678D01*
X13574Y4456D02*
X13678D01*
X13573Y4465D02*
X13678D01*
X13355Y4475D02*
X13363D01*
X13571D02*
X13677D01*
X13355Y4484D02*
X13375D01*
X13567D02*
X13675D01*
X13355Y4493D02*
X13389D01*
X13562D02*
X13673D01*
X13355Y4503D02*
X13405D01*
X13554D02*
X13671D01*
X13355Y4512D02*
X13428D01*
X13542D02*
X13668D01*
X12690Y4522D02*
X12753D01*
X13355D02*
X13464D01*
X13512D02*
X13664D01*
X12677Y4531D02*
X12765D01*
X13355D02*
X13660D01*
X12670Y4540D02*
X12773D01*
X13355D02*
X13654D01*
X12665Y4550D02*
X12777D01*
X13355D02*
X13647D01*
X12662Y4559D02*
X12780D01*
X13355D02*
X13638D01*
X12661Y4568D02*
X12781D01*
X13368D02*
X13628D01*
X12662Y4578D02*
X12781D01*
X13385D02*
X13615D01*
X12664Y4587D02*
X12778D01*
X13405D02*
X13599D01*
X12668Y4596D02*
X12774D01*
X13432D02*
X13574D01*
X12675Y4606D02*
X12767D01*
X12686Y4615D02*
X12755D01*
X16527Y760D02*
X16526Y729D01*
X16524Y700*
X16519Y672*
X16513Y647*
X16504Y622*
X16494Y600*
X16482Y580*
X16468Y561*
X16461Y552*
X16453Y544*
X16444Y537*
X16435Y529*
X16426Y523*
X16416Y517*
X16405Y511*
X16395Y506*
X16383Y502*
X16372Y498*
X16359Y495*
X16346Y492*
X16333Y490*
X16320Y488*
X16306Y488*
X16291Y487*
X16276Y488*
X16263Y488*
X16250Y490*
X16236Y492*
X16224Y494*
X16213Y497*
X16201Y501*
X16190Y505*
X16180Y509*
X16170Y514*
X16160Y520*
X16151Y526*
X16143Y533*
X16134Y540*
X16127Y547*
X16120Y555*
X16113Y564*
X16107Y573*
X16101Y583*
X16095Y592*
X16090Y603*
X16086Y614*
X16082Y626*
X16078Y638*
X16072Y663*
X16068Y691*
X16066Y720*
X16065Y751*
X16066Y781*
X16068Y810*
X16073Y837*
X16079Y862*
X16088Y886*
X16098Y909*
X16110Y929*
X16124Y947*
X16131Y956*
X16139Y964*
X16148Y971*
X16157Y979*
X16167Y985*
X16176Y991*
X16187Y997*
X16198Y1002*
X16209Y1006*
X16221Y1010*
X16233Y1013*
X16246Y1016*
X16259Y1018*
X16273Y1019*
X16287Y1020*
X16301Y1021*
X16316Y1020*
X16329Y1020*
X16342Y1018*
X16355Y1016*
X16367Y1014*
X16379Y1011*
X16390Y1007*
X16401Y1004*
X16411Y999*
X16421Y994*
X16431Y988*
X16440Y982*
X16448Y976*
X16457Y969*
X16464Y961*
X16472Y953*
X16485Y936*
X16496Y916*
X16506Y895*
X16514Y872*
X16520Y846*
X16524Y819*
X16526Y791*
X16527Y760*
X16455Y755D02*
X16454Y777D01*
X16453Y798*
X16450Y818*
X16447Y837*
X16442Y856*
X16437Y873*
X16429Y888*
X16421Y903*
X16411Y916*
X16400Y928*
X16387Y938*
X16372Y946*
X16356Y953*
X16338Y958*
X16318Y961*
X16297Y962*
X16286Y962*
X16275Y961*
X16266Y960*
X16256Y958*
X16247Y955*
X16238Y953*
X16230Y949*
X16222Y945*
X16208Y936*
X16194Y925*
X16183Y914*
X16172Y900*
X16164Y886*
X16156Y870*
X16150Y853*
X16146Y835*
X16142Y816*
X16139Y796*
X16138Y776*
X16137Y756*
X16138Y734*
X16139Y712*
X16142Y691*
X16145Y672*
X16150Y653*
X16155Y636*
X16162Y620*
X16171Y606*
X16180Y592*
X16191Y581*
X16204Y571*
X16219Y562*
X16234Y556*
X16253Y551*
X16273Y548*
X16295Y547*
X16305*
X16316Y548*
X16326Y549*
X16336Y551*
X16345Y553*
X16354Y556*
X16362Y560*
X16370Y564*
X16385Y573*
X16398Y584*
X16410Y596*
X16420Y609*
X16429Y624*
X16436Y640*
X16442Y657*
X16447Y675*
X16450Y694*
X16453Y714*
X16454Y734*
X16455Y755*
X16960Y691D02*
X16959Y668D01*
X16957Y646*
X16954Y625*
X16949Y606*
X16943Y588*
X16937Y571*
X16929Y556*
X16920Y542*
X16909Y529*
X16897Y519*
X16884Y509*
X16870Y502*
X16855Y495*
X16839Y491*
X16822Y488*
X16804Y487*
X16788Y488*
X16774Y491*
X16760Y495*
X16748Y501*
X16734Y508*
X16722Y518*
X16709Y529*
X16694Y542*
Y362*
X16694Y359*
X16693Y357*
X16691Y355*
X16688Y353*
X16683Y352*
X16678Y351*
X16671Y350*
X16661*
X16652*
X16645Y351*
X16640Y352*
X16635Y353*
X16632Y355*
X16630Y357*
X16629Y359*
X16629Y362*
Y865*
X16629Y868*
X16629Y871*
X16631Y873*
X16634Y875*
X16639Y876*
X16644Y877*
X16650Y878*
X16657*
X16665*
X16671Y877*
X16676Y876*
X16680Y875*
X16683Y873*
X16685Y871*
X16686Y868*
X16687Y865*
Y817*
X16694Y825*
X16703Y833*
X16711Y839*
X16718Y846*
X16726Y852*
X16734Y858*
X16741Y862*
X16749Y867*
X16756Y871*
X16764Y874*
X16772Y877*
X16780Y879*
X16789Y881*
X16797Y882*
X16806Y883*
X16815Y883*
X16833Y882*
X16851Y879*
X16867Y875*
X16881Y868*
X16894Y860*
X16906Y850*
X16917Y839*
X16926Y826*
X16934Y813*
X16941Y798*
X16947Y782*
X16952Y765*
X16955Y747*
X16958Y729*
X16959Y710*
X16960Y691*
X16891Y683D02*
X16891Y697D01*
X16890Y711*
X16889Y724*
X16887Y737*
X16884Y749*
X16881Y761*
X16877Y772*
X16873Y783*
X16867Y792*
X16860Y800*
X16853Y808*
X16845Y815*
X16836Y820*
X16825Y824*
X16814Y826*
X16802Y827*
X16789Y826*
X16776Y823*
X16770Y821*
X16764Y818*
X16757Y815*
X16751Y811*
X16745Y806*
X16738Y801*
X16731Y796*
X16724Y789*
X16717Y782*
X16710Y774*
X16702Y765*
X16694Y756*
Y613*
X16701Y605*
X16708Y597*
X16714Y590*
X16721Y583*
X16728Y577*
X16734Y571*
X16740Y566*
X16746Y562*
X16753Y558*
X16759Y554*
X16765Y551*
X16772Y548*
X16778Y546*
X16785Y545*
X16791Y545*
X16798Y544*
X16810Y545*
X16821Y547*
X16831Y551*
X16841Y556*
X16849Y563*
X16857Y570*
X16864Y579*
X16870Y588*
X16875Y598*
X16879Y609*
X16883Y621*
X16886Y633*
X16888Y646*
X16890Y658*
X16891Y671*
X16891Y683*
X17366Y701D02*
X17366Y693D01*
X17364Y688*
X17362Y682*
X17359Y678*
X17355Y676*
X17350Y673*
X17345Y672*
X17340Y672*
X17104*
X17104Y657*
X17105Y644*
X17107Y630*
X17109Y618*
X17113Y607*
X17118Y596*
X17123Y586*
X17130Y577*
X17137Y568*
X17146Y562*
X17155Y555*
X17166Y550*
X17178Y546*
X17191Y544*
X17206Y542*
X17221Y541*
X17234*
X17246Y542*
X17257Y544*
X17267Y546*
X17277Y547*
X17286Y550*
X17295Y552*
X17302Y555*
X17309Y557*
X17316Y560*
X17321Y562*
X17326Y564*
X17331Y566*
X17335Y567*
X17338Y568*
X17340Y568*
X17343Y568*
X17345Y567*
X17347Y565*
X17349Y563*
X17350Y560*
X17351Y555*
X17351Y549*
Y543*
Y538*
X17351Y534*
X17350Y527*
X17348Y522*
X17344Y517*
X17342Y516*
X17340Y514*
X17336Y512*
X17331Y510*
X17325Y507*
X17319Y504*
X17312Y502*
X17303Y500*
X17294Y498*
X17285Y495*
X17275Y493*
X17263Y491*
X17252Y489*
X17240Y488*
X17215Y487*
X17194Y488*
X17173Y490*
X17155Y494*
X17137Y500*
X17121Y507*
X17107Y515*
X17093Y525*
X17081Y537*
X17070Y549*
X17061Y564*
X17053Y580*
X17047Y598*
X17042Y617*
X17038Y638*
X17036Y660*
X17035Y684*
X17036Y706*
X17038Y728*
X17042Y748*
X17047Y767*
X17054Y785*
X17062Y801*
X17071Y816*
X17082Y830*
X17094Y842*
X17107Y853*
X17121Y862*
X17136Y870*
X17153Y876*
X17171Y880*
X17189Y882*
X17208Y883*
X17229Y882*
X17247Y880*
X17264Y876*
X17280Y870*
X17295Y862*
X17307Y854*
X17319Y844*
X17329Y833*
X17338Y821*
X17346Y808*
X17352Y794*
X17358Y779*
X17361Y763*
X17364Y747*
X17366Y730*
X17366Y713*
Y701*
X17300Y720D02*
Y733D01*
X17299Y745*
X17297Y756*
X17295Y767*
X17292Y776*
X17287Y786*
X17282Y794*
X17277Y802*
X17270Y809*
X17263Y815*
X17255Y820*
X17247Y824*
X17237Y827*
X17227Y830*
X17216Y831*
X17205Y832*
X17192Y831*
X17182Y829*
X17171Y826*
X17162Y822*
X17152Y817*
X17145Y812*
X17137Y805*
X17130Y798*
X17125Y790*
X17120Y781*
X17115Y772*
X17111Y762*
X17108Y752*
X17106Y742*
X17105Y731*
X17104Y720*
X17300*
X17777Y505D02*
X17776Y502D01*
X17775Y500*
X17773Y498*
X17770Y496*
X17766Y495*
X17760Y494*
X17753Y493*
X17744*
X17735*
X17728Y494*
X17722Y495*
X17718Y496*
X17715Y498*
X17713Y500*
X17712Y502*
X17711Y505*
Y716*
X17711Y731*
X17710Y744*
X17709Y755*
X17706Y766*
X17704Y775*
X17700Y783*
X17696Y791*
X17692Y798*
X17687Y805*
X17682Y810*
X17675Y815*
X17669Y819*
X17661Y822*
X17652Y824*
X17644Y826*
X17634Y826*
X17629Y826*
X17622Y825*
X17616Y824*
X17610Y822*
X17604Y819*
X17597Y816*
X17591Y813*
X17585Y809*
X17579Y804*
X17572Y799*
X17566Y793*
X17560Y787*
X17553Y780*
X17546Y773*
X17540Y765*
X17533Y757*
Y505*
X17532Y502*
X17531Y500*
X17529Y498*
X17526Y496*
X17522Y495*
X17516Y494*
X17509Y493*
X17500*
X17491*
X17484Y494*
X17478Y495*
X17474Y496*
X17470Y498*
X17468Y500*
X17467Y502*
X17467Y505*
Y865*
X17467Y868*
X17468Y871*
X17470Y873*
X17473Y875*
X17477Y876*
X17482Y877*
X17488Y878*
X17497*
X17505*
X17511Y877*
X17517Y876*
X17521Y875*
X17523Y873*
X17525Y871*
X17526Y868*
X17526Y865*
Y817*
X17534Y826*
X17542Y834*
X17549Y840*
X17557Y847*
X17565Y853*
X17572Y859*
X17580Y863*
X17587Y867*
X17595Y871*
X17602Y875*
X17610Y877*
X17617Y879*
X17625Y881*
X17633Y882*
X17640Y883*
X17648Y883*
X17666Y882*
X17681Y880*
X17696Y877*
X17709Y871*
X17720Y864*
X17731Y857*
X17740Y848*
X17749Y838*
X17755Y828*
X17762Y816*
X17767Y804*
X17771Y791*
X17773Y776*
X17775Y760*
X17776Y743*
X17777Y725*
Y505*
X18247Y644D02*
X18246Y631D01*
X18245Y620*
X18243Y609*
X18240Y599*
X18237Y588*
X18233Y579*
X18228Y570*
X18223Y562*
X18217Y554*
X18211Y546*
X18204Y539*
X18196Y533*
X18188Y527*
X18179Y522*
X18170Y516*
X18160Y512*
X18150Y508*
X18140Y504*
X18129Y502*
X18118Y500*
X18107Y498*
X18094Y496*
X18081Y495*
X18066*
X17931*
X17926Y496*
X17922Y497*
X17918Y499*
X17914Y502*
X17910Y505*
X17907Y510*
X17906Y516*
X17905Y523*
Y985*
X17906Y992*
X17907Y998*
X17910Y1003*
X17914Y1006*
X17918Y1009*
X17922Y1011*
X17926Y1012*
X17931Y1013*
X18048*
X18060*
X18071Y1012*
X18081Y1011*
X18091Y1010*
X18100Y1009*
X18109Y1008*
X18117Y1006*
X18125Y1004*
X18139Y999*
X18152Y993*
X18164Y986*
X18174Y978*
X18184Y969*
X18191Y960*
X18198Y949*
X18204Y937*
X18209Y924*
X18212Y911*
X18213Y897*
X18214Y882*
X18213Y873*
X18213Y864*
X18212Y855*
X18210Y847*
X18207Y838*
X18204Y831*
X18201Y823*
X18196Y816*
X18192Y809*
X18187Y802*
X18181Y796*
X18175Y790*
X18168Y785*
X18161Y780*
X18153Y776*
X18145Y772*
X18155Y770*
X18166Y766*
X18175Y762*
X18185Y757*
X18193Y752*
X18202Y745*
X18210Y738*
X18217Y731*
X18223Y722*
X18229Y712*
X18234Y703*
X18239Y692*
X18242Y681*
X18245Y669*
X18246Y656*
X18247Y644*
X18143Y875D02*
X18143Y884D01*
X18142Y893*
X18140Y901*
X18138Y909*
X18135Y916*
X18131Y923*
X18127Y929*
X18122Y935*
X18116Y940*
X18109Y944*
X18101Y948*
X18092Y951*
X18083Y953*
X18071Y955*
X18059Y956*
X18045Y957*
X17974*
Y789*
X18052*
X18065Y790*
X18076Y791*
X18087Y793*
X18095Y796*
X18103Y800*
X18110Y804*
X18117Y809*
X18122Y815*
X18128Y821*
X18132Y828*
X18135Y835*
X18138Y842*
X18140Y850*
X18142Y859*
X18143Y867*
X18143Y875*
X18174Y640D02*
X18174Y651D01*
X18172Y661*
X18171Y671*
X18167Y680*
X18163Y689*
X18158Y696*
X18152Y704*
X18146Y710*
X18138Y715*
X18129Y720*
X18120Y725*
X18110Y728*
X18098Y731*
X18086Y733*
X18071Y734*
X18056Y734*
X17974*
Y552*
X18074*
X18085Y552*
X18096Y553*
X18106Y555*
X18115Y557*
X18124Y561*
X18131Y565*
X18139Y569*
X18146Y574*
X18152Y580*
X18158Y587*
X18163Y593*
X18167Y602*
X18170Y610*
X18172Y619*
X18174Y629*
X18174Y640*
X18697Y569D02*
Y563D01*
X18696Y558*
X18696Y553*
X18695Y549*
X18692Y543*
X18691Y540*
X18687Y536*
X18684Y534*
X18681Y531*
X18676Y527*
X18670Y524*
X18663Y520*
X18656Y516*
X18648Y511*
X18638Y507*
X18629Y504*
X18618Y500*
X18607Y497*
X18594Y494*
X18582Y492*
X18569Y490*
X18555Y489*
X18541Y489*
X18528Y489*
X18516Y490*
X18504Y491*
X18493Y493*
X18482Y495*
X18471Y498*
X18460Y502*
X18450Y505*
X18440Y510*
X18430Y515*
X18421Y521*
X18412Y526*
X18403Y533*
X18396Y540*
X18388Y547*
X18380Y555*
X18367Y572*
X18355Y592*
X18345Y613*
X18337Y636*
X18330Y661*
X18325Y688*
X18322Y717*
X18321Y747*
X18321Y763*
X18322Y778*
X18323Y794*
X18325Y808*
X18327Y822*
X18330Y836*
X18334Y849*
X18338Y862*
X18347Y886*
X18358Y908*
X18370Y929*
X18384Y947*
X18392Y956*
X18400Y964*
X18408Y971*
X18417Y978*
X18426Y984*
X18436Y990*
X18446Y996*
X18456Y1001*
X18467Y1005*
X18478Y1009*
X18489Y1012*
X18500Y1014*
X18512Y1017*
X18524Y1018*
X18536Y1019*
X18549Y1019*
X18560Y1019*
X18571Y1018*
X18582Y1017*
X18592Y1015*
X18613Y1010*
X18631Y1004*
X18640Y1001*
X18649Y997*
X18656Y994*
X18664Y989*
X18670Y985*
X18675Y982*
X18680Y979*
X18683Y976*
X18688Y971*
X18690Y967*
X18693Y961*
X18693Y957*
X18694Y952*
X18695Y946*
Y940*
Y932*
X18694Y926*
X18693Y921*
X18691Y917*
X18690Y913*
X18688Y911*
X18686Y910*
X18682Y909*
X18679Y910*
X18676Y911*
X18671Y914*
X18667Y917*
X18661Y921*
X18655Y925*
X18649Y930*
X18641Y934*
X18632Y939*
X18623Y943*
X18613Y947*
X18602Y951*
X18590Y955*
X18577Y957*
X18563Y959*
X18547Y959*
X18530Y958*
X18514Y956*
X18499Y951*
X18484Y945*
X18471Y938*
X18458Y928*
X18446Y917*
X18436Y905*
X18426Y891*
X18418Y875*
X18411Y858*
X18405Y839*
X18400Y819*
X18397Y798*
X18394Y775*
X18394Y751*
X18394Y727*
X18397Y705*
X18400Y684*
X18404Y664*
X18410Y646*
X18417Y629*
X18425Y615*
X18435Y601*
X18445Y589*
X18457Y579*
X18470Y570*
X18484Y563*
X18499Y557*
X18515Y553*
X18532Y551*
X18549Y550*
X18565Y550*
X18579Y552*
X18591Y554*
X18604Y558*
X18615Y562*
X18625Y566*
X18634Y570*
X18643Y574*
X18651Y579*
X18658Y584*
X18664Y587*
X18670Y591*
X18675Y595*
X18679Y597*
X18683Y599*
X18687Y599*
X18689Y599*
X18691Y598*
X18693Y596*
X18694Y593*
X18695Y589*
X18696Y584*
X18697Y577*
Y569*
X18857Y505D02*
X18857Y503D01*
X18856Y500*
X18853Y498*
X18850Y496*
X18845Y495*
X18839Y494*
X18832Y493*
X18823*
X18814*
X18806Y494*
X18800Y495*
X18796Y496*
X18792Y498*
X18790Y500*
X18789Y503*
X18788Y505*
Y1003*
X18789Y1005*
X18790Y1008*
X18793Y1010*
X18796Y1012*
X18801Y1013*
X18807Y1014*
X18814Y1015*
X18823Y1015*
X18832Y1015*
X18839Y1014*
X18845Y1013*
X18850Y1012*
X18853Y1010*
X18856Y1008*
X18857Y1005*
X18857Y1003*
Y505*
X16651Y350D02*
X16672D01*
X16629Y359D02*
X16694D01*
X16629Y369D02*
X16694D01*
X16629Y378D02*
X16694D01*
X16629Y387D02*
X16694D01*
X16629Y397D02*
X16694D01*
X16629Y406D02*
X16694D01*
X16629Y416D02*
X16694D01*
X16629Y425D02*
X16694D01*
X16629Y434D02*
X16694D01*
X16629Y444D02*
X16694D01*
X16629Y453D02*
X16694D01*
X16629Y462D02*
X16694D01*
X16629Y472D02*
X16694D01*
X16629Y481D02*
X16694D01*
X16245Y491D02*
X16337D01*
X16629D02*
X16694D01*
X16776D02*
X16837D01*
X17172D02*
X17259D01*
X18511D02*
X18571D01*
X16203Y500D02*
X16377D01*
X16629D02*
X16694D01*
X16749D02*
X16866D01*
X17137D02*
X17304D01*
X17468D02*
X17531D01*
X17712D02*
X17776D01*
X17916D02*
X18120D01*
X18465D02*
X18617D01*
X18790D02*
X18855D01*
X16180Y509D02*
X16401D01*
X16629D02*
X16694D01*
X16733D02*
X16884D01*
X17117D02*
X17330D01*
X17467D02*
X17533D01*
X17711D02*
X17777D01*
X17908D02*
X18154D01*
X18441D02*
X18643D01*
X18788D02*
X18857D01*
X16163Y519D02*
X16419D01*
X16629D02*
X16694D01*
X16721D02*
X16897D01*
X17102D02*
X17346D01*
X17467D02*
X17533D01*
X17711D02*
X17777D01*
X17906D02*
X18174D01*
X18424D02*
X18661D01*
X18788D02*
X18857D01*
X16149Y528D02*
X16433D01*
X16629D02*
X16694D01*
X16710D02*
X16907D01*
X17090D02*
X17350D01*
X17467D02*
X17533D01*
X17711D02*
X17777D01*
X17905D02*
X18189D01*
X18410D02*
X18677D01*
X18788D02*
X18857D01*
X16137Y537D02*
X16445D01*
X16629D02*
X16694D01*
X16700D02*
X16916D01*
X17081D02*
X17351D01*
X17467D02*
X17533D01*
X17711D02*
X17777D01*
X17905D02*
X18201D01*
X18398D02*
X18688D01*
X18788D02*
X18857D01*
X16127Y547D02*
X16455D01*
X16629D02*
X16777D01*
X16820D02*
X16923D01*
X17073D02*
X17178D01*
X17273D02*
X17351D01*
X17467D02*
X17533D01*
X17711D02*
X17777D01*
X17905D02*
X18211D01*
X18389D02*
X18694D01*
X18788D02*
X18857D01*
X16119Y556D02*
X16234D01*
X16354D02*
X16464D01*
X16629D02*
X16755D01*
X16841D02*
X16929D01*
X17066D02*
X17154D01*
X17306D02*
X17350D01*
X17467D02*
X17533D01*
X17711D02*
X17777D01*
X17905D02*
X17974D01*
X18111D02*
X18219D01*
X18380D02*
X18503D01*
X18598D02*
X18696D01*
X18788D02*
X18857D01*
X16112Y565D02*
X16213D01*
X16373D02*
X16472D01*
X16629D02*
X16742D01*
X16852D02*
X16934D01*
X17060D02*
X17141D01*
X17329D02*
X17347D01*
X17467D02*
X17533D01*
X17711D02*
X17777D01*
X17905D02*
X17974D01*
X18133D02*
X18226D01*
X18372D02*
X18479D01*
X18625D02*
X18697D01*
X18788D02*
X18857D01*
X16105Y575D02*
X16199D01*
X16387D02*
X16479D01*
X16629D02*
X16730D01*
X16861D02*
X16938D01*
X17056D02*
X17132D01*
X17467D02*
X17533D01*
X17711D02*
X17777D01*
X17905D02*
X17974D01*
X18147D02*
X18231D01*
X18365D02*
X18463D01*
X18644D02*
X18697D01*
X18788D02*
X18857D01*
X16100Y584D02*
X16188D01*
X16399D02*
X16485D01*
X16629D02*
X16720D01*
X16867D02*
X16942D01*
X17052D02*
X17124D01*
X17467D02*
X17533D01*
X17711D02*
X17777D01*
X17905D02*
X17974D01*
X18156D02*
X18235D01*
X18360D02*
X18451D01*
X18659D02*
X18696D01*
X18788D02*
X18857D01*
X16095Y594D02*
X16179D01*
X16408D02*
X16490D01*
X16629D02*
X16711D01*
X16873D02*
X16945D01*
X17048D02*
X17119D01*
X17467D02*
X17533D01*
X17711D02*
X17777D01*
X17905D02*
X17974D01*
X18163D02*
X18239D01*
X18354D02*
X18442D01*
X18673D02*
X18694D01*
X18788D02*
X18857D01*
X16091Y603D02*
X16172D01*
X16415D02*
X16496D01*
X16629D02*
X16703D01*
X16877D02*
X16948D01*
X17046D02*
X17115D01*
X17467D02*
X17533D01*
X17711D02*
X17777D01*
X17905D02*
X17974D01*
X18167D02*
X18242D01*
X18350D02*
X18434D01*
X18788D02*
X18857D01*
X16087Y612D02*
X16167D01*
X16422D02*
X16500D01*
X16629D02*
X16695D01*
X16880D02*
X16951D01*
X17043D02*
X17111D01*
X17467D02*
X17533D01*
X17711D02*
X17777D01*
X17905D02*
X17974D01*
X18171D02*
X18244D01*
X18345D02*
X18427D01*
X18788D02*
X18857D01*
X16083Y622D02*
X16162D01*
X16427D02*
X16504D01*
X16629D02*
X16694D01*
X16883D02*
X16953D01*
X17041D02*
X17109D01*
X17467D02*
X17533D01*
X17711D02*
X17777D01*
X17905D02*
X17974D01*
X18173D02*
X18245D01*
X18342D02*
X18421D01*
X18788D02*
X18857D01*
X16080Y631D02*
X16157D01*
X16432D02*
X16508D01*
X16629D02*
X16694D01*
X16885D02*
X16955D01*
X17039D02*
X17107D01*
X17467D02*
X17533D01*
X17711D02*
X17777D01*
X17905D02*
X17974D01*
X18174D02*
X18246D01*
X18338D02*
X18416D01*
X18788D02*
X18857D01*
X16078Y640D02*
X16154D01*
X16436D02*
X16511D01*
X16629D02*
X16694D01*
X16887D02*
X16956D01*
X17038D02*
X17106D01*
X17467D02*
X17533D01*
X17711D02*
X17777D01*
X17905D02*
X17974D01*
X18174D02*
X18247D01*
X18335D02*
X18413D01*
X18788D02*
X18857D01*
X16075Y650D02*
X16151D01*
X16439D02*
X16514D01*
X16629D02*
X16694D01*
X16889D02*
X16957D01*
X17037D02*
X17105D01*
X17467D02*
X17533D01*
X17711D02*
X17777D01*
X17905D02*
X17974D01*
X18174D02*
X18246D01*
X18333D02*
X18409D01*
X18788D02*
X18857D01*
X16073Y659D02*
X16148D01*
X16443D02*
X16516D01*
X16629D02*
X16694D01*
X16890D02*
X16958D01*
X17036D02*
X17104D01*
X17467D02*
X17533D01*
X17711D02*
X17777D01*
X17905D02*
X17974D01*
X18173D02*
X18246D01*
X18330D02*
X18406D01*
X18788D02*
X18857D01*
X16071Y669D02*
X16146D01*
X16445D02*
X16518D01*
X16629D02*
X16694D01*
X16891D02*
X16959D01*
X17036D02*
X17104D01*
X17467D02*
X17533D01*
X17711D02*
X17777D01*
X17905D02*
X17974D01*
X18171D02*
X18245D01*
X18328D02*
X18403D01*
X18788D02*
X18857D01*
X16070Y678D02*
X16144D01*
X16447D02*
X16520D01*
X16629D02*
X16694D01*
X16891D02*
X16959D01*
X17035D02*
X17358D01*
X17467D02*
X17533D01*
X17711D02*
X17777D01*
X17905D02*
X17974D01*
X18168D02*
X18243D01*
X18327D02*
X18401D01*
X18788D02*
X18857D01*
X16069Y687D02*
X16142D01*
X16449D02*
X16521D01*
X16629D02*
X16694D01*
X16891D02*
X16959D01*
X17035D02*
X17364D01*
X17467D02*
X17533D01*
X17711D02*
X17777D01*
X17905D02*
X17974D01*
X18163D02*
X18240D01*
X18325D02*
X18399D01*
X18788D02*
X18857D01*
X16067Y697D02*
X16141D01*
X16451D02*
X16523D01*
X16629D02*
X16694D01*
X16891D02*
X16959D01*
X17036D02*
X17366D01*
X17467D02*
X17533D01*
X17711D02*
X17777D01*
X17905D02*
X17974D01*
X18158D02*
X18237D01*
X18324D02*
X18398D01*
X18788D02*
X18857D01*
X16067Y706D02*
X16140D01*
X16452D02*
X16524D01*
X16629D02*
X16694D01*
X16890D02*
X16959D01*
X17036D02*
X17366D01*
X17467D02*
X17533D01*
X17711D02*
X17777D01*
X17905D02*
X17974D01*
X18150D02*
X18233D01*
X18323D02*
X18396D01*
X18788D02*
X18857D01*
X16066Y715D02*
X16139D01*
X16453D02*
X16525D01*
X16629D02*
X16694D01*
X16890D02*
X16959D01*
X17037D02*
X17366D01*
X17467D02*
X17533D01*
X17711D02*
X17777D01*
X17905D02*
X17974D01*
X18138D02*
X18227D01*
X18322D02*
X18395D01*
X18788D02*
X18857D01*
X16065Y725D02*
X16138D01*
X16454D02*
X16526D01*
X16629D02*
X16694D01*
X16889D02*
X16958D01*
X17038D02*
X17104D01*
X17300D02*
X17366D01*
X17467D02*
X17533D01*
X17711D02*
X17777D01*
X17905D02*
X17974D01*
X18120D02*
X18221D01*
X18322D02*
X18394D01*
X18788D02*
X18857D01*
X16065Y734D02*
X16138D01*
X16454D02*
X16527D01*
X16629D02*
X16694D01*
X16887D02*
X16957D01*
X17039D02*
X17105D01*
X17300D02*
X17365D01*
X17467D02*
X17533D01*
X17710D02*
X17777D01*
X17905D02*
X17974D01*
X18067D02*
X18214D01*
X18321D02*
X18394D01*
X18788D02*
X18857D01*
X16065Y744D02*
X16138D01*
X16454D02*
X16527D01*
X16629D02*
X16694D01*
X16886D02*
X16956D01*
X17041D02*
X17106D01*
X17299D02*
X17364D01*
X17467D02*
X17533D01*
X17710D02*
X17776D01*
X17905D02*
X18204D01*
X18321D02*
X18394D01*
X18788D02*
X18857D01*
X16065Y753D02*
X16137D01*
X16455D02*
X16527D01*
X16629D02*
X16694D01*
X16883D02*
X16954D01*
X17043D02*
X17108D01*
X17298D02*
X17363D01*
X17467D02*
X17533D01*
X17709D02*
X17776D01*
X17905D02*
X18192D01*
X18321D02*
X18394D01*
X18788D02*
X18857D01*
X16065Y762D02*
X16137D01*
X16455D02*
X16527D01*
X16629D02*
X16700D01*
X16881D02*
X16952D01*
X17046D02*
X17111D01*
X17296D02*
X17362D01*
X17467D02*
X17537D01*
X17707D02*
X17775D01*
X17905D02*
X18175D01*
X18321D02*
X18394D01*
X18788D02*
X18857D01*
X16065Y772D02*
X16138D01*
X16454D02*
X16527D01*
X16629D02*
X16708D01*
X16877D02*
X16950D01*
X17049D02*
X17115D01*
X17293D02*
X17359D01*
X17467D02*
X17545D01*
X17705D02*
X17774D01*
X17905D02*
X18147D01*
X18322D02*
X18394D01*
X18788D02*
X18857D01*
X16066Y781D02*
X16138D01*
X16454D02*
X16527D01*
X16629D02*
X16716D01*
X16873D02*
X16947D01*
X17052D02*
X17120D01*
X17289D02*
X17357D01*
X17467D02*
X17554D01*
X17701D02*
X17772D01*
X17905D02*
X18162D01*
X18322D02*
X18395D01*
X18788D02*
X18857D01*
X16066Y790D02*
X16139D01*
X16453D02*
X16526D01*
X16629D02*
X16725D01*
X16868D02*
X16944D01*
X17057D02*
X17125D01*
X17284D02*
X17353D01*
X17467D02*
X17563D01*
X17697D02*
X17771D01*
X17905D02*
X17974D01*
X18073D02*
X18175D01*
X18323D02*
X18396D01*
X18788D02*
X18857D01*
X16067Y800D02*
X16140D01*
X16453D02*
X16526D01*
X16629D02*
X16736D01*
X16861D02*
X16940D01*
X17061D02*
X17132D01*
X17278D02*
X17350D01*
X17467D02*
X17573D01*
X17691D02*
X17768D01*
X17905D02*
X17974D01*
X18103D02*
X18184D01*
X18324D02*
X18397D01*
X18788D02*
X18857D01*
X16068Y809D02*
X16141D01*
X16451D02*
X16525D01*
X16629D02*
X16749D01*
X16852D02*
X16936D01*
X17067D02*
X17142D01*
X17270D02*
X17345D01*
X17467D02*
X17586D01*
X17683D02*
X17765D01*
X17905D02*
X17974D01*
X18117D02*
X18192D01*
X18325D02*
X18398D01*
X18788D02*
X18857D01*
X16070Y818D02*
X16142D01*
X16450D02*
X16524D01*
X16629D02*
X16687D01*
X16688D02*
X16765D01*
X16838D02*
X16931D01*
X17073D02*
X17154D01*
X17257D02*
X17339D01*
X17467D02*
X17526D01*
X17527D02*
X17601D01*
X17669D02*
X17761D01*
X17905D02*
X17974D01*
X18125D02*
X18198D01*
X18327D02*
X18400D01*
X18788D02*
X18857D01*
X16071Y828D02*
X16144D01*
X16449D02*
X16523D01*
X16629D02*
X16687D01*
X16698D02*
X16925D01*
X17080D02*
X17177D01*
X17235D02*
X17333D01*
X17467D02*
X17526D01*
X17536D02*
X17755D01*
X17905D02*
X17974D01*
X18132D02*
X18203D01*
X18328D02*
X18402D01*
X18788D02*
X18857D01*
X16073Y837D02*
X16146D01*
X16447D02*
X16521D01*
X16629D02*
X16687D01*
X16708D02*
X16918D01*
X17089D02*
X17325D01*
X17467D02*
X17526D01*
X17546D02*
X17749D01*
X17905D02*
X17974D01*
X18136D02*
X18207D01*
X18330D02*
X18404D01*
X18788D02*
X18857D01*
X16075Y847D02*
X16149D01*
X16445D02*
X16520D01*
X16629D02*
X16687D01*
X16718D02*
X16910D01*
X17100D02*
X17316D01*
X17467D02*
X17526D01*
X17556D02*
X17742D01*
X17905D02*
X17974D01*
X18139D02*
X18210D01*
X18333D02*
X18407D01*
X18788D02*
X18857D01*
X16078Y856D02*
X16151D01*
X16442D02*
X16517D01*
X16629D02*
X16687D01*
X16731D02*
X16899D01*
X17112D02*
X17304D01*
X17467D02*
X17526D01*
X17568D02*
X17732D01*
X17905D02*
X17974D01*
X18141D02*
X18212D01*
X18336D02*
X18410D01*
X18788D02*
X18857D01*
X16080Y865D02*
X16155D01*
X16439D02*
X16515D01*
X16629D02*
X16687D01*
X16746D02*
X16886D01*
X17128D02*
X17289D01*
X17467D02*
X17526D01*
X17583D02*
X17719D01*
X17905D02*
X17974D01*
X18142D02*
X18213D01*
X18339D02*
X18414D01*
X18788D02*
X18857D01*
X16083Y875D02*
X16159D01*
X16436D02*
X16513D01*
X16635D02*
X16680D01*
X16766D02*
X16867D01*
X17150D02*
X17267D01*
X17473D02*
X17521D01*
X17602D02*
X17700D01*
X17905D02*
X17974D01*
X18143D02*
X18214D01*
X18342D02*
X18418D01*
X18788D02*
X18857D01*
X16087Y884D02*
X16163D01*
X16431D02*
X16510D01*
X17905D02*
X17974D01*
X18143D02*
X18214D01*
X18346D02*
X18423D01*
X18788D02*
X18857D01*
X16091Y893D02*
X16168D01*
X16426D02*
X16506D01*
X17905D02*
X17974D01*
X18142D02*
X18214D01*
X18350D02*
X18428D01*
X18788D02*
X18857D01*
X16095Y903D02*
X16174D01*
X16421D02*
X16502D01*
X17905D02*
X17974D01*
X18140D02*
X18213D01*
X18355D02*
X18435D01*
X18788D02*
X18857D01*
X16100Y912D02*
X16182D01*
X16414D02*
X16498D01*
X17905D02*
X17974D01*
X18136D02*
X18211D01*
X18360D02*
X18442D01*
X18674D02*
X18689D01*
X18788D02*
X18857D01*
X16106Y922D02*
X16191D01*
X16406D02*
X16493D01*
X17905D02*
X17974D01*
X18132D02*
X18209D01*
X18366D02*
X18451D01*
X18660D02*
X18693D01*
X18788D02*
X18857D01*
X16111Y931D02*
X16201D01*
X16396D02*
X16488D01*
X17905D02*
X17974D01*
X18125D02*
X18206D01*
X18372D02*
X18462D01*
X18647D02*
X18695D01*
X18788D02*
X18857D01*
X16118Y940D02*
X16215D01*
X16382D02*
X16481D01*
X17905D02*
X17974D01*
X18115D02*
X18203D01*
X18379D02*
X18476D01*
X18629D02*
X18695D01*
X18788D02*
X18857D01*
X16126Y950D02*
X16231D01*
X16364D02*
X16474D01*
X17905D02*
X17974D01*
X18096D02*
X18198D01*
X18386D02*
X18495D01*
X18607D02*
X18695D01*
X18788D02*
X18857D01*
X16134Y959D02*
X16263D01*
X16332D02*
X16466D01*
X17905D02*
X18192D01*
X18395D02*
X18693D01*
X18788D02*
X18857D01*
X16145Y968D02*
X16457D01*
X17905D02*
X18184D01*
X18405D02*
X18689D01*
X18788D02*
X18857D01*
X16156Y978D02*
X16446D01*
X17905D02*
X18174D01*
X18417D02*
X18681D01*
X18788D02*
X18857D01*
X16170Y987D02*
X16433D01*
X17906D02*
X18162D01*
X18431D02*
X18667D01*
X18788D02*
X18857D01*
X16187Y996D02*
X16416D01*
X17907D02*
X18145D01*
X18448D02*
X18650D01*
X18788D02*
X18857D01*
X16209Y1006D02*
X16395D01*
X17913D02*
X18117D01*
X18469D02*
X18627D01*
X18789D02*
X18856D01*
X16243Y1015D02*
X16360D01*
X18505D02*
X18590D01*
D02*
D12*
X5425Y7853D02*
X5441Y7838D01*
X5472Y7822*
X5503Y7838*
X5519Y7853*
Y8009*
X5550*
X5519D02*
X5456D01*
X5800Y7822D02*
X5675D01*
X5784Y7931*
X5800Y7963*
X5784Y7994*
X5753Y8009*
X5706*
X5675Y7994*
X5525Y1303D02*
X5541Y1288D01*
X5572Y1272*
X5603Y1288*
X5619Y1303*
Y1459*
X5650*
X5619D02*
X5556D01*
X5806Y1272D02*
X5869D01*
X5838D02*
Y1459D01*
X5806Y1428*
X5697Y4181D02*
X5712Y4166D01*
X5728Y4134*
Y4088*
X5712Y4056*
X5697Y4041*
X5666Y4025*
X5603*
X5572Y4041*
X5556Y4056*
X5541Y4088*
Y4134*
X5556Y4166*
X5572Y4181*
X5728Y4306D02*
Y4369D01*
Y4338D02*
X5541D01*
X5572Y4306*
X5541Y5425D02*
X5728D01*
Y5581*
Y5706D02*
Y5769D01*
Y5738D02*
X5541D01*
X5572Y5706*
X6041Y1625D02*
X6228D01*
Y1781*
Y2000D02*
Y1875D01*
X6119Y1984*
X6087Y2000*
X6056Y1984*
X6041Y1953*
Y1906*
X6056Y1875*
X7131Y4063D02*
X7116Y4048D01*
X7084Y4032*
X7038*
X7006Y4048*
X6991Y4063*
X6975Y4094*
Y4157*
X6991Y4188*
X7006Y4204*
X7038Y4219*
X7084*
X7116Y4204*
X7131Y4188*
X7241Y4048D02*
X7272Y4032D01*
X7303*
X7334Y4048*
X7350Y4079*
X7334Y4110*
X7303Y4126*
X7272*
X7303D02*
X7334Y4141D01*
X7350Y4173*
X7334Y4204*
X7303Y4219*
X7272*
X7241Y4204*
X7025Y3522D02*
Y3709D01*
X7119*
X7150Y3694*
X7166Y3678*
X7181Y3647*
Y3584*
X7166Y3553*
X7150Y3538*
X7119Y3522*
X7025*
X7400D02*
X7275D01*
X7384Y3631*
X7400Y3663*
X7384Y3694*
X7353Y3709*
X7306*
X7275Y3694*
X7025Y4532D02*
Y4719D01*
X7134*
X7166Y4704*
X7181Y4673*
X7166Y4641*
X7134Y4626*
X7025*
X7134D02*
X7181Y4532D01*
X7400D02*
X7275D01*
X7384Y4641*
X7400Y4673*
X7384Y4704*
X7353Y4719*
X7306*
X7275Y4704*
X7025Y5132D02*
Y5319D01*
X7134*
X7166Y5304*
X7181Y5273*
X7166Y5241*
X7134Y5226*
X7025*
X7134D02*
X7181Y5132D01*
X7306D02*
X7369D01*
X7338D02*
Y5319D01*
X7306Y5288*
X7181Y5713D02*
X7166Y5698D01*
X7134Y5682*
X7088*
X7056Y5698*
X7041Y5713*
X7025Y5744*
Y5807*
X7041Y5838*
X7056Y5854*
X7088Y5869*
X7134*
X7166Y5854*
X7181Y5838*
X7400Y5682D02*
X7275D01*
X7384Y5791*
X7400Y5823*
X7384Y5854*
X7353Y5869*
X7306*
X7275Y5854*
X7025Y6232D02*
Y6419D01*
X7119*
X7150Y6404*
X7166Y6388*
X7181Y6357*
Y6294*
X7166Y6263*
X7150Y6248*
X7119Y6232*
X7025*
X7306D02*
X7369D01*
X7338D02*
Y6419D01*
X7306Y6388*
X7675Y3322D02*
Y3509D01*
X7769*
X7800Y3494*
X7816Y3478*
X7831Y3447*
Y3384*
X7816Y3353*
X7800Y3338*
X7769Y3322*
X7675*
X7941Y3338D02*
X7972Y3322D01*
X8003*
X8034Y3338*
X8050Y3369*
X8034Y3400*
X8003Y3416*
X7972*
X8003D02*
X8034Y3431D01*
X8050Y3463*
X8034Y3494*
X8003Y3509*
X7972*
X7941Y3494*
X8175Y1422D02*
Y1609D01*
X8331*
X8300Y1516D02*
X8175D01*
X8456Y1422D02*
X8519D01*
X8488D02*
Y1609D01*
X8456Y1578*
X8875Y6972D02*
Y7159D01*
X8984*
X9016Y7144*
X9031Y7113*
X9016Y7081*
X8984Y7066*
X8875*
X8984D02*
X9031Y6972D01*
X9141Y6988D02*
X9172Y6972D01*
X9203*
X9234Y6988*
X9250Y7019*
X9234Y7050*
X9203Y7066*
X9172*
X9203D02*
X9234Y7081D01*
X9250Y7113*
X9234Y7144*
X9203Y7159*
X9172*
X9141Y7144*
X10136Y6182D02*
Y5932D01*
X10011Y6120D02*
X10261Y5995D01*
Y6120D02*
X10011Y5995D01*
X10475Y3472D02*
Y3659D01*
X10584*
X10616Y3644*
X10631Y3613*
X10616Y3581*
X10584Y3566*
X10475*
X10584D02*
X10631Y3472D01*
X10803D02*
Y3659D01*
X10725Y3534*
X10850*
X10925Y2872D02*
Y3059D01*
X11019*
X11050Y3044*
X11066Y3028*
X11081Y2997*
Y2934*
X11066Y2903*
X11050Y2888*
X11019Y2872*
X10925*
X11175Y2888D02*
X11206Y2872D01*
X11253*
X11284Y2888*
X11300Y2919*
Y2934*
X11284Y2966*
X11253Y2981*
X11175*
Y3059*
X11300*
X10925Y6672D02*
Y6859D01*
X11019*
X11050Y6844*
X11066Y6828*
X11081Y6797*
Y6734*
X11066Y6703*
X11050Y6688*
X11019Y6672*
X10925*
X11253D02*
Y6859D01*
X11175Y6734*
X11300*
X11925Y3472D02*
Y3659D01*
X12019*
X12050Y3644*
X12066Y3628*
X12081Y3597*
Y3534*
X12066Y3503*
X12050Y3488*
X12019Y3472*
X11925*
X12175Y3519D02*
X12191Y3550D01*
X12222Y3566*
X12253*
X12284Y3550*
X12300Y3519*
X12284Y3488*
X12253Y3472*
X12222*
X12191Y3488*
X12175Y3519*
Y3566*
X12191Y3613*
X12222Y3644*
X12253Y3659*
X12525Y1769D02*
X12541Y1738D01*
X12572Y1722*
X12634*
X12666Y1738*
X12681Y1769*
X12666Y1800*
X12634Y1816*
X12572*
X12541Y1831*
X12525Y1863*
X12541Y1894*
X12572Y1909*
X12634*
X12666Y1894*
X12681Y1863*
X12806Y1722D02*
X12869D01*
X12838D02*
Y1909D01*
X12806Y1878*
X13175Y4922D02*
Y5109D01*
X13284*
X13316Y5094*
X13331Y5063*
X13316Y5031*
X13284Y5016*
X13175*
X13284D02*
X13331Y4922D01*
X13425D02*
X13550Y5109D01*
X13425*
X13175Y6072D02*
Y6259D01*
X13284*
X13316Y6244*
X13331Y6213*
X13316Y6181*
X13284Y6166*
X13175*
X13284D02*
X13331Y6072D01*
X13425Y6119D02*
X13441Y6150D01*
X13472Y6166*
X13503*
X13534Y6150*
X13550Y6119*
X13534Y6088*
X13503Y6072*
X13472*
X13441Y6088*
X13425Y6119*
Y6166*
X13441Y6213*
X13472Y6244*
X13503Y6259*
X13425Y2922D02*
Y3109D01*
X13534*
X13566Y3094*
X13581Y3063*
X13566Y3031*
X13534Y3016*
X13425*
X13534D02*
X13581Y2922D01*
X13675Y2938D02*
X13706Y2922D01*
X13753*
X13784Y2938*
X13800Y2969*
Y2984*
X13784Y3016*
X13753Y3031*
X13675*
Y3109*
X13800*
X14281Y1053D02*
X14266Y1038D01*
X14234Y1022*
X14188*
X14156Y1038*
X14141Y1053*
X14125Y1084*
Y1147*
X14141Y1178*
X14156Y1194*
X14188Y1209*
X14234*
X14266Y1194*
X14281Y1178*
X14375Y1038D02*
X14406Y1022D01*
X14453*
X14484Y1038*
X14500Y1069*
Y1084*
X14484Y1116*
X14453Y1131*
X14375*
Y1209*
X14500*
X14531Y8603D02*
X14516Y8588D01*
X14484Y8572*
X14438*
X14406Y8588*
X14391Y8603*
X14375Y8634*
Y8697*
X14391Y8728*
X14406Y8744*
X14438Y8759*
X14484*
X14516Y8744*
X14531Y8728*
X14703Y8572D02*
Y8759D01*
X14625Y8634*
X14750*
X16375Y8322D02*
Y8509D01*
X16484*
X16516Y8494*
X16531Y8463*
X16516Y8431*
X16484Y8416*
X16375*
X16484D02*
X16531Y8322D01*
X16672Y8416D02*
X16703D01*
X16734Y8431*
X16750Y8463*
X16734Y8494*
X16703Y8509*
X16672*
X16641Y8494*
X16625Y8463*
X16641Y8431*
X16672Y8416*
X16641Y8400*
X16625Y8369*
X16641Y8338*
X16672Y8322*
X16703*
X16734Y8338*
X16750Y8369*
X16734Y8400*
X16703Y8416*
X16775Y8772D02*
Y8959D01*
X16884*
X16916Y8944*
X16931Y8913*
X16916Y8881*
X16884Y8866*
X16775*
X16884D02*
X16931Y8772D01*
X17072D02*
X17103Y8788D01*
X17134Y8819*
X17150Y8866*
Y8913*
X17134Y8944*
X17103Y8959*
X17072*
X17041Y8944*
X17025Y8913*
X17041Y8881*
X17072Y8866*
X17103*
X17134Y8881*
X17150Y8913*
D02*
D13*
X8488Y5610D02*
Y5812D01*
X8690*
Y4238D02*
X8488D01*
Y4440*
X10062D02*
Y4238D01*
X9860*
X10062Y5610D02*
Y5812D01*
X9860*
D02*
D14*
X10375Y125D02*
X5375D01*
Y1125*
X10375*
Y125*
X12375Y8175D02*
X5375D01*
Y9175*
X12375*
Y8175*
X0Y0D02*
M02*
