G04 EasyPC Gerber Version 20.0.2 Build 4112 *
G04 #@! TF.Part,Single*
G04 #@! TF.FileFunction,Paste,Top *
%FSLAX24Y24*%
%MOIN*%
G04 #@! TA.AperFunction,SMDPad*
%ADD100R,0.00600X0.02600*%
%ADD94R,0.01800X0.01800*%
%ADD101R,0.02600X0.00600*%
%ADD104R,0.01600X0.01400*%
%ADD93R,0.01800X0.01800*%
%ADD96R,0.02156X0.05306*%
%ADD105R,0.02200X0.02900*%
%ADD92R,0.02600X0.12600*%
%ADD97R,0.03337X0.02550*%
%ADD95R,0.03691X0.03337*%
%ADD103R,0.05400X0.12200*%
%ADD102R,0.09400X0.09400*%
%ADD99R,0.24400X0.05700*%
%ADD98R,0.29400X0.05700*%
X0Y0D02*
D02*
D92*
X14575Y2025D03*
Y7305D03*
X15075Y2025D03*
Y7305D03*
X15575Y2025D03*
Y7305D03*
X16075Y2025D03*
Y7305D03*
X16575Y2025D03*
Y7305D03*
X17075Y2025D03*
Y7305D03*
X17575Y2025D03*
Y7305D03*
X18075Y2025D03*
Y7305D03*
X18575D03*
X19075D03*
X19575D03*
D02*
D93*
X6325Y3625D03*
Y4135D03*
Y5785D03*
Y6335D03*
X6335Y4615D03*
Y5215D03*
X6715Y3625D03*
Y4135D03*
Y5785D03*
Y6335D03*
X6725Y4615D03*
Y5215D03*
X8835Y6715D03*
X9225D03*
X9785Y3565D03*
X10175D03*
X12725Y3035D03*
X13115D03*
X13175Y5785D03*
X13185Y5365D03*
X13565Y5785D03*
X13575Y5365D03*
X17025Y8385D03*
X17415D03*
X17425Y8835D03*
X17815D03*
D02*
D94*
X5615Y3275D03*
Y3665D03*
X14285Y385D03*
Y775D03*
D02*
D95*
X9825Y2975D03*
Y6725D03*
X10525Y2975D03*
Y6725D03*
X12725Y3575D03*
X13425D03*
X15125Y8675D03*
X15825D03*
D02*
D96*
X11389Y1314D03*
X12570D03*
X13161D03*
D02*
D97*
X10897Y330D03*
Y1019D03*
X13653Y330D03*
Y1019D03*
D02*
D98*
X1925Y3125D03*
Y6125D03*
D02*
D99*
X2175Y4125D03*
Y5125D03*
D02*
D100*
X8881Y4278D03*
Y5772D03*
X9078Y4278D03*
Y5772D03*
X9275Y4278D03*
Y5772D03*
X9472Y4278D03*
Y5772D03*
X9669Y4278D03*
Y5772D03*
D02*
D101*
X8528Y4631D03*
Y4828D03*
Y5025D03*
Y5222D03*
Y5419D03*
X10022Y4631D03*
Y4828D03*
Y5025D03*
Y5222D03*
Y5419D03*
D02*
D102*
X9275Y5025D03*
D02*
D103*
X6775Y2475D03*
X8475D03*
D02*
D104*
X8295Y3425D03*
X8675D03*
D02*
D105*
X5625Y6220D03*
Y6730D03*
X6125Y2320D03*
Y2830D03*
X0Y0D02*
M02*
