G04 EasyPC Gerber Version 20.0.2 Build 4112 *
G04 #@! TF.Part,Single*
G04 #@! TF.FileFunction,Paste,Top *
%FSLAX24Y24*%
%MOIN*%
G04 #@! TA.AperFunction,SMDPad*
%ADD27R,0.00881X0.04424*%
%ADD80R,0.00900X0.01700*%
%ADD81R,0.01300X0.03200*%
%ADD29R,0.02100X0.02100*%
%ADD78R,0.02300X0.03900*%
%ADD83R,0.03637X0.03991*%
%ADD75R,0.03640X0.04030*%
%ADD77R,0.05200X0.06800*%
%ADD72R,0.06000X0.06000*%
%ADD28R,0.04424X0.00881*%
%ADD79R,0.01700X0.00900*%
%ADD74R,0.06900X0.01400*%
%ADD82R,0.04300X0.01500*%
%ADD73R,0.02100X0.02100*%
%ADD76R,0.04030X0.03640*%
X0Y0D02*
D02*
D27*
X10275Y11841D03*
Y16329D03*
X10472Y11841D03*
Y16329D03*
X10669Y11841D03*
Y16329D03*
X10866Y11841D03*
Y16329D03*
X11062Y11841D03*
Y16329D03*
X11259Y11841D03*
Y16329D03*
X11456Y11841D03*
Y16329D03*
X11653Y11841D03*
Y16329D03*
X11850Y11841D03*
Y16329D03*
X12047Y11841D03*
Y16329D03*
X12243Y11841D03*
Y16329D03*
X12440Y11841D03*
Y16329D03*
X12637Y11841D03*
Y16329D03*
X12834Y11841D03*
Y16329D03*
X13031Y11841D03*
Y16329D03*
X13228Y11841D03*
Y16329D03*
D02*
D28*
X9507Y12609D03*
Y12805D03*
Y13002D03*
Y13199D03*
Y13396D03*
Y13593D03*
Y13790D03*
Y13987D03*
Y14183D03*
Y14380D03*
Y14577D03*
Y14774D03*
Y14971D03*
Y15168D03*
Y15365D03*
Y15561D03*
X13995Y12609D03*
Y12805D03*
Y13002D03*
Y13199D03*
Y13396D03*
Y13593D03*
Y13790D03*
Y13987D03*
Y14183D03*
Y14380D03*
Y14577D03*
Y14774D03*
Y14971D03*
Y15168D03*
Y15365D03*
Y15561D03*
D02*
D29*
X8765Y14185D03*
Y14575D03*
X9445Y1715D03*
Y2105D03*
X14745Y15345D03*
Y15735D03*
X14765Y13895D03*
Y14285D03*
X15115Y15355D03*
Y15745D03*
X15125Y13895D03*
Y14285D03*
X18115Y8995D03*
Y9385D03*
X18665Y6935D03*
Y7325D03*
X21985Y10865D03*
Y11255D03*
D02*
D72*
X7075Y13125D03*
X8415D03*
D02*
D73*
X8295Y12415D03*
Y13755D03*
X8685Y12415D03*
Y13755D03*
X13345Y10735D03*
Y11135D03*
X13735Y10735D03*
Y11135D03*
X16295Y9545D03*
X16685D03*
X16835Y6485D03*
X17225D03*
X19105Y14725D03*
X19495D03*
D02*
D74*
X11806Y6192D03*
Y6448D03*
Y6703D03*
Y6959D03*
Y7215D03*
Y7471D03*
Y7727D03*
Y7983D03*
Y8239D03*
Y8495D03*
Y8751D03*
Y9007D03*
Y9262D03*
Y9518D03*
X14684Y6192D03*
Y6448D03*
Y6703D03*
Y6959D03*
Y7215D03*
Y7471D03*
Y7727D03*
Y7983D03*
Y8239D03*
Y8495D03*
Y8751D03*
Y9007D03*
Y9262D03*
Y9518D03*
D02*
D75*
X7525Y14275D03*
X8225D03*
D02*
D76*
X8845Y1445D03*
Y2145D03*
D02*
D77*
X16285Y7135D03*
Y8865D03*
X17225Y7135D03*
Y8865D03*
D02*
D78*
X18665Y12545D03*
Y14185D03*
X18685Y9255D03*
Y10895D03*
X19515Y12545D03*
Y14185D03*
X19535Y9255D03*
Y10895D03*
D02*
D79*
X8548Y2988D03*
Y3188D03*
Y3388D03*
Y3588D03*
Y3788D03*
X9538Y2988D03*
Y3188D03*
Y3388D03*
Y3588D03*
Y3788D03*
D02*
D80*
X8838Y2888D03*
Y3888D03*
X9038Y2888D03*
Y3888D03*
X9238Y2888D03*
Y3888D03*
D02*
D81*
X7515Y18160D03*
Y18810D03*
X7835Y18160D03*
Y18810D03*
X8155Y18160D03*
Y18810D03*
X8475Y18160D03*
Y18810D03*
X9435Y18150D03*
Y18800D03*
X9755Y18150D03*
Y18800D03*
X10075Y18150D03*
Y18800D03*
X10395Y18150D03*
Y18800D03*
X11355Y18160D03*
Y18810D03*
X11675Y18160D03*
Y18810D03*
X11995Y18160D03*
Y18810D03*
X12315Y18160D03*
Y18810D03*
X13275Y18150D03*
Y18800D03*
X13595Y18150D03*
Y18800D03*
X13915Y18150D03*
Y18800D03*
X14235Y18150D03*
Y18800D03*
X15215Y18150D03*
Y18800D03*
X15535Y18150D03*
Y18800D03*
X15855Y18150D03*
Y18800D03*
X16175Y18150D03*
Y18800D03*
D02*
D82*
X9623Y5449D03*
Y5705D03*
Y5961D03*
X10447Y5449D03*
Y5961D03*
D02*
D83*
X18135Y6725D03*
Y7425D03*
X22505Y12315D03*
Y13015D03*
X0Y0D02*
M02*
