G04 EasyPC Gerber Version 20.0.2 Build 4112 *
G04 #@! TF.Part,Single*
G04 #@! TF.FileFunction,Paste,Bot *
%FSLAX24Y24*%
%MOIN*%
G04 #@! TA.AperFunction,SMDPad*
%ADD138R,0.00700X0.02456*%
%ADD135R,0.01865X0.04424*%
%ADD136R,0.02062X0.04424*%
%ADD29R,0.02100X0.02100*%
%ADD147R,0.02900X0.03600*%
%ADD145R,0.03600X0.13500*%
%ADD83R,0.03637X0.03991*%
%ADD75R,0.03640X0.04030*%
%ADD144R,0.05600X0.13100*%
%ADD82R,0.04300X0.01500*%
%ADD134R,0.04424X0.02062*%
%ADD73R,0.02100X0.02100*%
%ADD146R,0.05600X0.02500*%
%ADD139R,0.12900X0.02900*%
%ADD137R,0.03991X0.03637*%
%ADD76R,0.04030X0.03640*%
%AMT142*0 Rectangle Pad at angle 45*21,1,0.05200,0.06000,0,0,45*%
%ADD142T142*%
G04 #@! TA.AperFunction,ComponentPad*
%AMT86*0 Rectangle Pad at angle 45*21,1,0.06000,0.06000,0,0,45*%
%ADD86T86*%
G04 #@! TA.AperFunction,SMDPad*
%AMT140*0 Rectangle Pad at angle 135*21,1,0.02400,0.06000,0,0,135*%
%ADD140T140*%
%AMT143*0 Rectangle Pad at angle 135*21,1,0.04400,0.06000,0,0,135*%
%ADD143T143*%
%AMT141*0 Rectangle Pad at angle 135*21,1,0.04400,0.08400,0,0,135*%
%ADD141T141*%
%AMT148*0 Rectangle Pad at angle 135*21,1,0.05200,0.05200,0,0,135*%
%ADD148T148*%
X0Y0D02*
D02*
D29*
X11285Y14355D03*
Y14745D03*
X11665Y14355D03*
Y14745D03*
X12045Y14355D03*
Y14745D03*
X12425Y14355D03*
Y14745D03*
X15635Y10275D03*
Y10665D03*
X18335Y10775D03*
Y11165D03*
X21555Y10835D03*
Y11225D03*
X22005Y10835D03*
Y11225D03*
D02*
D73*
X11645Y13535D03*
Y13915D03*
X12035Y13535D03*
Y13915D03*
X12825Y13975D03*
Y14355D03*
X13215Y13975D03*
Y14355D03*
X13395Y9285D03*
X13785D03*
X14635Y11335D03*
X15025D03*
X15445Y11325D03*
X15835D03*
X18995Y7635D03*
X19005Y10115D03*
X19385Y7635D03*
X19395Y10115D03*
D02*
D75*
X12195Y8755D03*
X12895D03*
X13415Y11435D03*
X14115D03*
X14325Y9265D03*
X15025D03*
D02*
D76*
X13525Y7385D03*
Y8085D03*
D02*
D82*
X7295Y19405D03*
Y19655D03*
Y19905D03*
X8155Y19405D03*
Y19661D03*
Y19917D03*
X9235Y19425D03*
Y19675D03*
Y19925D03*
X10095Y19425D03*
Y19681D03*
Y19937D03*
X11255Y19465D03*
Y19715D03*
Y19965D03*
X12115Y19465D03*
Y19721D03*
Y19977D03*
X13235Y19485D03*
Y19735D03*
Y19985D03*
X14095Y19485D03*
Y19741D03*
Y19997D03*
X15235Y19505D03*
Y19755D03*
Y20005D03*
X16095Y19505D03*
Y19761D03*
Y20017D03*
X17255Y19525D03*
Y19775D03*
Y20025D03*
X18115Y19525D03*
Y19781D03*
Y20037D03*
D02*
D83*
X19955Y10815D03*
Y11515D03*
D02*
D86*
X7451Y1541D03*
X8399Y2489D03*
D02*
D134*
X13881Y9951D03*
Y10699D03*
X14909Y9951D03*
Y10325D03*
Y10699D03*
X16631Y10401D03*
Y11149D03*
X17659Y10401D03*
Y10775D03*
Y11149D03*
D02*
D135*
X14251Y7383D03*
Y8407D03*
X14625Y7383D03*
Y8407D03*
X14999Y7383D03*
Y8407D03*
D02*
D136*
X19011Y8331D03*
Y9359D03*
X19385D03*
X19759Y8331D03*
Y9359D03*
D02*
D137*
X15865Y11915D03*
X16565D03*
D02*
D138*
X7664Y16245D03*
Y16757D03*
X7861Y16245D03*
Y16757D03*
X8058Y16245D03*
Y16757D03*
X8255Y16245D03*
Y16757D03*
X9704Y16245D03*
Y16757D03*
X9901Y16245D03*
Y16757D03*
X10098Y16245D03*
Y16757D03*
X10295Y16245D03*
Y16757D03*
X11484Y16245D03*
Y16757D03*
X11681Y16245D03*
Y16757D03*
X11878Y16245D03*
Y16757D03*
X12075Y16245D03*
Y16757D03*
X13244Y16245D03*
Y16757D03*
X13441Y16245D03*
Y16757D03*
X13638Y16245D03*
Y16757D03*
X13835Y16245D03*
Y16757D03*
X15124Y16245D03*
Y16757D03*
X15321Y16245D03*
Y16757D03*
X15518Y16245D03*
Y16757D03*
X15715Y16245D03*
Y16757D03*
D02*
D139*
X11395Y605D03*
Y1105D03*
Y1605D03*
Y2105D03*
Y2605D03*
Y3105D03*
Y3605D03*
Y4105D03*
Y4605D03*
Y5105D03*
Y5605D03*
X16675Y2105D03*
Y2605D03*
Y3105D03*
Y3605D03*
Y4105D03*
Y4605D03*
Y5105D03*
Y5605D03*
D02*
D140*
X6963Y8198D03*
X7267Y7894D03*
X7571Y7589D03*
X7875Y7285D03*
X8179Y6981D03*
X8483Y6677D03*
X8787Y6373D03*
X9091Y6069D03*
X9396Y5765D03*
D02*
D141*
X2621Y6925D03*
X6935Y2611D03*
D02*
D142*
X5542Y9350D03*
D02*
D143*
X9579Y5256D03*
D02*
D144*
X18615Y15905D03*
X21265D03*
D02*
D145*
X19545Y13705D03*
X20335D03*
D02*
D146*
X22675Y10835D03*
Y11425D03*
Y12605D03*
Y13195D03*
D02*
D147*
X22945Y9985D03*
Y14045D03*
X23785Y9985D03*
Y14045D03*
D02*
D148*
X2061Y13479D03*
X2769Y12771D03*
X3476Y12064D03*
X4183Y11357D03*
X0Y0D02*
M02*
