G04 EasyPC Gerber Version 20.0.2 Build 4112 *
G04 #@! TF.Part,Single*
G04 #@! TF.FileFunction,Legend,Bot *
%FSLAX24Y24*%
%MOIN*%
%ADD116C,0.00300*%
%ADD84C,0.00500*%
%ADD117C,0.00600*%
%ADD113C,0.00800*%
X0Y0D02*
D02*
D84*
X1280Y12663D02*
X1227Y12610D01*
X1244Y12592*
X1298Y12574*
X1333*
X1386Y12592*
X1421Y12627*
X1439Y12680*
Y12716*
X1421Y12769*
X1351Y12839*
X1298Y12857*
X1262*
X1209Y12839*
X1174Y12804*
X1156Y12751*
Y12716*
X1174Y12663*
X1209Y12415D02*
X997Y12627D01*
X1032Y12238*
X820Y12451*
X926Y12132D02*
X714Y12344D01*
X608Y12238*
X590Y12185*
Y12150*
X608Y12097*
X679Y12026*
X732Y12009*
X767*
X820Y12026*
X926Y12132*
X2061Y14009D02*
X4695Y11375D01*
X4165Y10845*
X1531Y13479*
X2061Y14009*
X2442Y12158D02*
X2230Y12370D01*
X2106Y12246*
X2088Y12193*
X2106Y12140*
X2159Y12123*
X2212Y12140*
X2336Y12264*
X2212Y12140D02*
X2265Y11981D01*
X2159Y11875D02*
X1947Y12087D01*
X1770Y11911*
X1912Y11840D02*
X2053Y11981D01*
X1876Y11592D02*
X1664Y11804D01*
X1540Y11681*
X1523Y11628*
X1540Y11575*
X1593Y11557*
X1646Y11575*
X1770Y11698*
X1646Y11575D02*
X1699Y11416D01*
X1540Y11363D02*
X1558Y11309D01*
X1540Y11256*
X1470Y11186*
X1417Y11168*
X1364Y11186*
X1346Y11239*
X1364Y11292*
X1434Y11363*
X1452Y11416*
X1434Y11469*
X1381Y11486*
X1328Y11469*
X1258Y11398*
X1240Y11345*
X1258Y11292*
X1222Y10938D02*
X1010Y11150D01*
X1098Y11239D02*
X922Y11062D01*
X3152Y11448D02*
X2940Y11660D01*
X2816Y11536*
X2798Y11483*
X2816Y11430*
X2869Y11413*
X2922Y11430*
X3046Y11554*
X2922Y11430D02*
X2975Y11271D01*
X2869Y11165D02*
X2657Y11377D01*
X2480Y11201*
X2622Y11130D02*
X2763Y11271D01*
X2586Y10882D02*
X2374Y11094D01*
X2250Y10971*
X2233Y10918*
X2250Y10865*
X2303Y10847*
X2356Y10865*
X2480Y10988*
X2356Y10865D02*
X2409Y10706D01*
X2303Y10599D02*
X1915Y10635D01*
X2091Y10812D02*
X2127Y10423D01*
X3822Y10718D02*
X3610Y10930D01*
X3486Y10806*
X3468Y10753*
X3486Y10700*
X3539Y10683*
X3592Y10700*
X3716Y10824*
X3592Y10700D02*
X3645Y10541D01*
X3539Y10435D02*
X3327Y10647D01*
X3150Y10471*
X3292Y10400D02*
X3433Y10541D01*
X3168Y10064D02*
X2956Y10276D01*
X3044Y10364D02*
X2867Y10188D01*
X2973Y9869D02*
X2585Y9905D01*
X2761Y10082D02*
X2797Y9693D01*
X5089Y6706D02*
X5125Y6670D01*
Y6529*
X5266Y6882D02*
Y6387D01*
X5407Y7024D02*
Y6246D01*
X5549Y7165D02*
Y6105D01*
X5690Y7024D02*
Y5963D01*
X5811Y1317D02*
X1327Y5801D01*
X5429Y9902*
X9912Y5419*
X5811Y1317*
X5832Y6882D02*
Y5822D01*
X5973Y6741D02*
Y5680D01*
X6115Y6600D02*
Y5539D01*
X6256Y6458D02*
Y5397D01*
X6397Y6317D02*
Y5256D01*
X6539Y6175D02*
Y5115D01*
X6680Y6034D02*
Y4973D01*
X6822Y5892D02*
Y4832D01*
X6963Y5751D02*
Y4690D01*
X7105Y5610D02*
Y4549D01*
X7246Y5468D02*
Y4408D01*
X7387Y5327D02*
Y4266D01*
X7501Y4096D02*
X4997Y6600D01*
X5556Y7158*
X8059Y4655*
X7501Y4096*
X7953Y4549D02*
Y4761D01*
X7812Y4902*
Y4408*
X7670Y4266*
Y5044*
X7529Y5185*
Y4125*
X8412Y16186D02*
X7546D01*
Y16816*
X8412*
Y16186*
X8986Y2510D02*
X7430Y954D01*
X6864Y1520*
X8420Y3076*
X8986Y2510*
X10620Y11110D02*
X10388Y10878D01*
X10321*
X10255Y10944*
Y11010*
X10354Y11110*
X10255Y11010D02*
X10189Y11010D01*
X10122Y11076*
Y11143*
X10354Y11375*
X10089Y11640D02*
X9857Y11408D01*
X9791*
X9725Y11474*
Y11541*
X9824Y11640*
X9725Y11541D02*
X9658D01*
X9592Y11607*
Y11673*
X9824Y11905*
X9559Y12170D02*
X9327Y11938D01*
X9261*
X9194Y12005*
Y12071*
X9294Y12170*
X9194Y12071D02*
X9128Y12071D01*
X9062Y12137*
Y12203*
X9294Y12435*
X8631Y12568D02*
Y12634D01*
X8664Y12667*
X8333Y13065D02*
X8233Y13032D01*
X8134Y13065*
X8067Y13131*
X8034Y13231*
X8067Y13330*
X8134Y13397*
X8233Y13430*
X8333Y13397*
X8399Y13330*
X8432Y13231*
X8399Y13131*
X8333Y13065*
X7968Y13761D02*
X7603Y13397D01*
X7802Y13596D02*
X7703Y13562D01*
X7603Y13596*
X7537Y13662*
X7504Y13761*
X7537Y13861*
X7603Y13927*
X7703Y13960*
X7802Y13927*
X7869Y13861*
X7902Y13761*
X7869Y13662*
X7802Y13596*
X6940Y14325D02*
Y14258D01*
X7007Y14192*
X7073Y14126*
X7172Y14093*
X7272Y14126*
X7371Y14225*
X7371Y14292*
X7338Y14391*
X7272Y14457*
X7172Y14490*
X7106Y14490*
X7073Y14457*
Y14391*
X7106Y14292*
X7172Y14225*
X7272Y14192*
X7338*
X6642Y14557D02*
X6907Y14822D01*
X6808Y14722D02*
X6841Y14822D01*
X6808Y14921*
X6742Y14988*
X6642Y15021*
X6543Y14988*
X6377Y14822*
X6211Y15187D02*
X6112Y15153D01*
X6012Y15187*
X5946Y15253*
X5913Y15352*
X5946Y15452*
X6012Y15518*
X6112Y15551*
X6211Y15518*
X6278Y15452*
X6311Y15352*
X6278Y15253*
X6112Y15087D02*
X6510Y15485D01*
X5548Y16115D02*
X5648Y16081D01*
X5747Y15982*
X5780Y15883*
X5747Y15783*
X5681Y15717*
X5581Y15684*
X5482Y15717*
X5383Y15816*
X5349Y15916*
X4919Y16280D02*
X5184Y16546D01*
X5283Y16645D02*
X4488Y16711*
X4488Y16778D01*
X4554*
X4554Y16711*
X4488*
X3957Y17706D02*
X4057Y17672D01*
X4156Y17573*
X4189Y17474*
X4156Y17374*
X4090Y17308*
X3990Y17275*
X3891Y17308*
X3792Y17407*
X3758Y17507*
X3560Y17838D02*
X3460Y17805D01*
X3361Y17838*
X3294Y17904*
X3261Y18004*
X3294Y18103*
X3361Y18170*
X3460Y18203*
X3560Y18170*
X3626Y18103*
X3659Y18004*
X3626Y17904*
X3560Y17838*
X2930Y18269D02*
X3195Y18534D01*
X3162Y18501D02*
Y18567D01*
X3096Y18634*
X3029*
X2930Y18534*
X3029Y18634D02*
X3029Y18700D01*
X2963Y18766*
X2897*
X2665Y18534*
X10452Y16186D02*
X9586D01*
Y16816*
X10452*
Y16186*
X11445Y14905D02*
X11125D01*
Y14195*
X11445*
Y14905*
X11825D02*
X11505D01*
Y14195*
X11825*
Y14905*
X12195Y13375D02*
Y13695D01*
X11485*
Y13375*
X12195*
Y13755D02*
Y14075D01*
X11485*
Y13755*
X12195*
X12205Y14905D02*
X11885D01*
Y14195*
X12205*
Y14905*
X12232Y16186D02*
X11366D01*
Y16816*
X12232*
Y16186*
X12585Y14905D02*
X12265D01*
Y14195*
X12585*
Y14905*
X13235Y9445D02*
Y9125D01*
X13945*
Y9445*
X13235*
X13375Y13815D02*
Y14135D01*
X12665*
Y13815*
X13375*
Y14195D02*
Y14515D01*
X12665*
Y14195*
X13375*
X13675Y105D02*
X12175Y1605D01*
Y1305*
X13375Y105*
X13075*
X12175Y1005*
Y705*
X12775Y105*
X12475*
X12175Y405*
X13975Y105D02*
X12275Y1805D01*
X13992Y16186D02*
X13126D01*
Y16816*
X13992*
Y16186*
X14275Y105D02*
X12575Y1805D01*
X14475Y11495D02*
Y11175D01*
X15185*
Y11495*
X14475*
X14575Y105D02*
X12875Y1805D01*
X14875Y105D02*
X13175Y1805D01*
X15175Y105D02*
X13475Y1805D01*
X15475Y105D02*
X13775Y1805D01*
X15475Y10115D02*
X15795D01*
Y10825*
X15475*
Y10115*
X15775Y105D02*
X14075Y1805D01*
X15872Y16186D02*
X15006D01*
Y16816*
X15872*
Y16186*
X15995Y11165D02*
Y11485D01*
X15285*
Y11165*
X15995*
X16075Y105D02*
X14375Y1805D01*
X16375Y105D02*
X14675Y1805D01*
X16675Y105D02*
X14975Y1805D01*
X16830Y11650D02*
Y12180D01*
X15600*
Y11650*
X16830*
X16975Y105D02*
X15275Y1805D01*
X17075Y105D02*
X12175D01*
Y1805*
X17075*
Y105*
X10975*
Y6105*
X17075*
Y105*
Y305D02*
X15575Y1805D01*
X17075Y605D02*
X15875Y1805D01*
X17075Y905D02*
X16175Y1805D01*
X17075Y1205D02*
X16475Y1805D01*
X17075Y1505D02*
X16775Y1805D01*
X17135Y24195D02*
X7115D01*
X35Y17115*
Y7125*
X7105Y55*
X17115*
X24195Y7135*
Y17125*
X23795Y17525*
X17135Y24195*
X18335Y16605D02*
X21585D01*
Y13705*
X18335*
Y16605*
X18495Y11325D02*
X18175D01*
Y10615*
X18495*
Y11325*
X18835Y7795D02*
Y7475D01*
X19545*
Y7795*
X18835*
X18845Y10275D02*
Y9955D01*
X19555*
Y10275*
X18845*
X19435Y12436D02*
X19685D01*
X19560Y12561D02*
Y12311D01*
X19690Y10550D02*
X20220D01*
Y11780*
X19690*
Y10550*
X19705Y11415D02*
X19955Y10915D01*
X20205Y11415*
X20235Y12436D02*
X20485D01*
X20968Y17423D02*
X20874Y17376D01*
X20781*
X20687Y17423*
X20640Y17516*
X20687Y17610*
X20781Y17657*
X20874*
X20781D02*
X20687Y17704D01*
X20640Y17798*
X20687Y17891*
X20781Y17938*
X20874*
X20968Y17891*
X20265Y17938D02*
X20031Y17376D01*
X19796Y17938*
X19515Y17563D02*
X19140D01*
X18671Y17376D02*
X18484D01*
X18577D02*
Y17938D01*
X18671Y17844*
X17640Y17376D02*
X18015D01*
X17687Y17704*
X17640Y17798*
X17687Y17891*
X17781Y17938*
X17921*
X18015Y17891*
X17265Y17938D02*
X17031Y17376D01*
X16796Y17938*
X21715Y11385D02*
X21395D01*
Y10675*
X21715*
Y11385*
X21845Y10675D02*
X22165D01*
Y11385*
X21845*
Y10675*
X23885Y13915D02*
Y10115D01*
X22845*
Y13915*
X23885*
X24485Y12275D02*
Y11755D01*
X23885*
Y12275*
X24485*
D02*
D113*
X11930Y9020D02*
Y8490D01*
X13160*
Y9020*
X11930*
X13260Y7120D02*
X13790D01*
Y8350*
X13260*
Y7120*
X13395Y11075D02*
Y9575D01*
X15395*
Y11075*
X13395*
X13875Y6895D02*
X15375D01*
Y8895*
X13875*
Y6895*
X13986Y8722D02*
X13974Y8723D01*
X13963Y8728*
X13954Y8735*
X13947Y8744*
X13943Y8755*
X13941Y8766*
X13943Y8778*
X13947Y8789*
X13954Y8798*
X13963Y8805*
X13974Y8809*
X13986Y8811*
X13997Y8809*
X14008Y8805*
X14017Y8798*
X14024Y8789*
X14029Y8778*
X14030Y8766*
X14029Y8755*
X14024Y8744*
X14017Y8735*
X14008Y8728*
X13997Y8723*
X13986Y8722*
X14380Y11170D02*
Y11700D01*
X13150*
Y11170*
X14380*
X15214Y10999D02*
X15216Y11011D01*
X15220Y11021*
X15227Y11031*
X15237Y11038*
X15247Y11042*
X15259Y11044*
X15271Y11042*
X15281Y11038*
X15291Y11031*
X15298Y11021*
X15302Y11011*
X15304Y10999*
X15302Y10988*
X15298Y10977*
X15291Y10967*
X15281Y10960*
X15270Y10956*
X15259Y10954*
X15247Y10956*
X15237Y10960*
X15227Y10968*
X15220Y10977*
X15216Y10988*
X15214Y10999*
X15290Y9000D02*
Y9530D01*
X14060*
Y9000*
X15290*
X16145Y11525D02*
Y10025D01*
X18145*
Y11525*
X16145*
X17964Y11449D02*
X17966Y11461D01*
X17970Y11471*
X17977Y11481*
X17987Y11488*
X17997Y11492*
X18009Y11494*
X18021Y11492*
X18031Y11488*
X18041Y11481*
X18048Y11471*
X18052Y11461*
X18054Y11449*
X18052Y11438*
X18048Y11427*
X18041Y11417*
X18031Y11410*
X18020Y11406*
X18009Y11404*
X17997Y11406*
X17987Y11410*
X17977Y11418*
X17970Y11427*
X17966Y11438*
X17964Y11449*
X18635Y7845D02*
X20135D01*
Y9845*
X18635*
Y7845*
X18711Y9664D02*
X18699Y9666D01*
X18689Y9670*
X18679Y9677*
X18672Y9687*
X18668Y9697*
X18666Y9709*
X18668Y9721*
X18672Y9731*
X18679Y9741*
X18689Y9748*
X18699Y9752*
X18711Y9754*
X18722Y9752*
X18733Y9748*
X18743Y9741*
X18750Y9731*
X18754Y9720*
X18756Y9709*
X18754Y9697*
X18750Y9687*
X18742Y9677*
X18733Y9670*
X18722Y9666*
X18711Y9664*
D02*
D116*
X1916Y14049D02*
X1756Y14208D01*
X1664Y14115*
X1650Y14075*
X1664Y14035*
X1703Y14022*
X1743Y14035*
X1836Y14128*
X1544Y13996D02*
X1703Y13837D01*
X1571Y13704*
X1385Y13518D02*
X1491Y13624D01*
X1306*
X1266Y13638*
X1253Y13677*
X1266Y13717*
X1306Y13757*
X1346Y13770*
X7955Y18801D02*
Y19026D01*
X7842*
X7805Y19008*
X7786Y18989*
X7767Y18951*
Y18876*
X7786Y18839*
X7805Y18820*
X7842Y18801*
X7955*
X7505D02*
X7655D01*
X7524Y18933*
X7505Y18970*
X7524Y19008*
X7561Y19026*
X7617*
X7655Y19008*
X8147Y17059D02*
X8166Y17040D01*
X8204Y17021*
X8260*
X8297Y17040*
X8316Y17059*
X8335Y17096*
Y17171*
X8316Y17209*
X8297Y17228*
X8260Y17246*
X8204*
X8166Y17228*
X8147Y17209*
X8016Y17040D02*
X7979Y17021D01*
X7941*
X7904Y17040*
X7885Y17078*
X7904Y17115*
X7941Y17134*
X7979*
X7941D02*
X7904Y17153D01*
X7885Y17190*
X7904Y17228*
X7941Y17246*
X7979*
X8016Y17228*
X8416Y1529D02*
X8443D01*
X8482Y1542*
X8522Y1582*
X8535Y1621*
X8535Y1648*
X8522Y1688*
X8469Y1741*
X8429Y1754*
X8403*
X8363Y1741*
X8323Y1701*
X8310Y1661*
Y1635*
X8297Y1356D02*
X8138Y1515D01*
X8310Y1476*
X8204Y1370*
X9749Y5864D02*
Y5837D01*
X9762Y5798*
X9802Y5758*
X9841Y5745*
X9868Y5745*
X9908Y5758*
X9961Y5811*
X9974Y5851*
Y5877*
X9961Y5917*
X9921Y5957*
X9881Y5970*
X9855*
X9696D02*
X9749Y6023D01*
X9762Y6063*
Y6089*
X9749Y6129*
X9722Y6156*
X9682Y6169*
X9656*
X9616Y6156*
X9563Y6103*
X9550Y6063*
Y6036*
X9563Y5996*
X9590Y5970*
X9629Y5957*
X9656Y5957*
X9696Y5970*
X9431Y6129D02*
X9590Y6288D01*
X9298Y6262*
X9457Y6421*
X9218Y6341D02*
X9377Y6500D01*
X9086Y6474*
X9245Y6633*
X8980Y6580D02*
X8927Y6633D01*
X8953Y6606D02*
X9112Y6765D01*
X9112Y6712*
X9865Y18821D02*
Y19046D01*
X9752*
X9715Y19028*
X9696Y19009*
X9677Y18971*
Y18896*
X9696Y18859*
X9715Y18840*
X9752Y18821*
X9865*
X9546Y18840D02*
X9509Y18821D01*
X9471*
X9434Y18840*
X9415Y18878*
X9434Y18915*
X9471Y18934*
X9509*
X9471D02*
X9434Y18953D01*
X9415Y18990*
X9434Y19028*
X9471Y19046*
X9509*
X9546Y19028*
X10167Y17029D02*
X10186Y17010D01*
X10224Y16991*
X10280*
X10317Y17010*
X10336Y17029*
X10355Y17066*
Y17141*
X10336Y17179*
X10317Y17198*
X10280Y17216*
X10224*
X10186Y17198*
X10167Y17179*
X9999Y16991D02*
X9961Y17010D01*
X9924Y17048*
X9905Y17104*
Y17160*
X9924Y17198*
X9961Y17216*
X9999*
X10036Y17198*
X10055Y17160*
X10036Y17123*
X9999Y17104*
X9961*
X9924Y17123*
X9905Y17160*
X11187Y13479D02*
X11206Y13460D01*
X11244Y13441*
X11300*
X11337Y13460*
X11356Y13479*
X11375Y13516*
Y13591*
X11356Y13629*
X11337Y13648*
X11300Y13666*
X11244*
X11206Y13648*
X11187Y13629*
X10925Y13441D02*
X11075D01*
X10944Y13573*
X10925Y13610*
X10944Y13648*
X10981Y13666*
X11037*
X11075Y13648*
X10737Y13441D02*
X10662D01*
X10700D02*
Y13666D01*
X10737Y13629*
X11207Y13839D02*
X11226Y13820D01*
X11264Y13801*
X11320*
X11357Y13820*
X11376Y13839*
X11395Y13876*
Y13951*
X11376Y13989*
X11357Y14008*
X11320Y14026*
X11264*
X11226Y14008*
X11207Y13989*
X11057Y13801D02*
X10982D01*
X11020D02*
Y14026D01*
X11057Y13989*
X10739Y13914D02*
X10701D01*
X10664Y13933*
X10645Y13970*
X10664Y14008*
X10701Y14026*
X10739*
X10776Y14008*
X10795Y13970*
X10776Y13933*
X10739Y13914*
X10776Y13895*
X10795Y13858*
X10776Y13820*
X10739Y13801*
X10701*
X10664Y13820*
X10645Y13858*
X10664Y13895*
X10701Y13914*
X11331Y15577D02*
X11350Y15596D01*
X11369Y15634*
Y15690*
X11350Y15727*
X11331Y15746*
X11294Y15765*
X11219*
X11181Y15746*
X11162Y15727*
X11144Y15690*
Y15634*
X11162Y15596*
X11181Y15577*
X11369Y15427D02*
Y15352D01*
Y15390D02*
X11144D01*
X11181Y15427*
X11350Y15146D02*
X11369Y15109D01*
Y15071*
X11350Y15034*
X11312Y15015*
X11275Y15034*
X11256Y15071*
Y15109*
Y15071D02*
X11237Y15034D01*
X11200Y15015*
X11162Y15034*
X11144Y15071*
Y15109*
X11162Y15146*
X11721Y15567D02*
X11740Y15586D01*
X11759Y15624*
Y15680*
X11740Y15717*
X11721Y15736*
X11684Y15755*
X11609*
X11571Y15736*
X11552Y15717*
X11534Y15680*
Y15624*
X11552Y15586*
X11571Y15567*
X11759Y15417D02*
Y15342D01*
Y15380D02*
X11534D01*
X11571Y15417*
X11759Y15155D02*
X11534Y15005D01*
Y15155*
X11647Y8699D02*
X11666Y8680D01*
X11704Y8661*
X11760*
X11797Y8680*
X11816Y8699*
X11835Y8736*
Y8811*
X11816Y8849*
X11797Y8868*
X11760Y8886*
X11704*
X11666Y8868*
X11647Y8849*
X11385Y8661D02*
X11535D01*
X11404Y8793*
X11385Y8830*
X11404Y8868*
X11441Y8886*
X11497*
X11535Y8868*
X11235Y8680D02*
X11197Y8661D01*
X11141*
X11104Y8680*
X11085Y8718*
Y8736*
X11104Y8774*
X11141Y8793*
X11235*
Y8886*
X11085*
X11895Y18861D02*
Y19086D01*
X11782*
X11745Y19068*
X11726Y19049*
X11707Y19011*
Y18936*
X11726Y18899*
X11745Y18880*
X11782Y18861*
X11895*
X11501D02*
Y19086D01*
X11595Y18936*
X11445*
X11957Y17059D02*
X11976Y17040D01*
X12014Y17021*
X12070*
X12107Y17040*
X12126Y17059*
X12145Y17096*
Y17171*
X12126Y17209*
X12107Y17228*
X12070Y17246*
X12014*
X11976Y17228*
X11957Y17209*
X11807Y17021D02*
X11732D01*
X11770D02*
Y17246D01*
X11807Y17209*
X11507Y17021D02*
X11432D01*
X11470D02*
Y17246D01*
X11507Y17209*
X12151Y15567D02*
X12170Y15586D01*
X12189Y15624*
Y15680*
X12170Y15717*
X12151Y15736*
X12114Y15755*
X12039*
X12001Y15736*
X11982Y15717*
X11964Y15680*
Y15624*
X11982Y15586*
X12001Y15567*
X12189Y15305D02*
Y15455D01*
X12057Y15324*
X12020Y15305*
X11982Y15324*
X11964Y15361*
Y15417*
X11982Y15455*
X12189Y15005D02*
Y15155D01*
X12057Y15024*
X12020Y15005*
X11982Y15024*
X11964Y15061*
Y15117*
X11982Y15155*
X12521Y15567D02*
X12540Y15586D01*
X12559Y15624*
Y15680*
X12540Y15717*
X12521Y15736*
X12484Y15755*
X12409*
X12371Y15736*
X12352Y15717*
X12334Y15680*
Y15624*
X12352Y15586*
X12371Y15567*
X12559Y15305D02*
Y15455D01*
X12427Y15324*
X12390Y15305*
X12352Y15324*
X12334Y15361*
Y15417*
X12352Y15455*
X12559Y15061D02*
X12334D01*
X12484Y15155*
Y15005*
X12787Y11359D02*
X12806Y11340D01*
X12844Y11321*
X12900*
X12937Y11340*
X12956Y11359*
X12975Y11396*
Y11471*
X12956Y11509*
X12937Y11528*
X12900Y11546*
X12844*
X12806Y11528*
X12787Y11509*
X12525Y11321D02*
X12675D01*
X12544Y11453*
X12525Y11490*
X12544Y11528*
X12581Y11546*
X12637*
X12675Y11528*
X12319Y11321D02*
X12281Y11340D01*
X12244Y11378*
X12225Y11434*
Y11490*
X12244Y11528*
X12281Y11546*
X12319*
X12356Y11528*
X12375Y11490*
X12356Y11453*
X12319Y11434*
X12281*
X12244Y11453*
X12225Y11490*
X12967Y9239D02*
X12986Y9220D01*
X13024Y9201*
X13080*
X13117Y9220*
X13136Y9239*
X13155Y9276*
Y9351*
X13136Y9389*
X13117Y9408*
X13080Y9426*
X13024*
X12986Y9408*
X12967Y9389*
X12836Y9220D02*
X12799Y9201D01*
X12761*
X12724Y9220*
X12705Y9258*
X12724Y9295*
X12761Y9314*
X12799*
X12761D02*
X12724Y9333D01*
X12705Y9370*
X12724Y9408*
X12761Y9426*
X12799*
X12836Y9408*
X12536Y9220D02*
X12499Y9201D01*
X12461*
X12424Y9220*
X12405Y9258*
Y9370*
X12424Y9408*
X12461Y9426*
X12499*
X12536Y9408*
X12555Y9370*
Y9258*
X12536Y9220*
X12424Y9408*
X13101Y7927D02*
X13120Y7946D01*
X13139Y7984*
Y8040*
X13120Y8077*
X13101Y8096*
X13064Y8115*
X12989*
X12951Y8096*
X12932Y8077*
X12914Y8040*
Y7984*
X12932Y7946*
X12951Y7927*
X13120Y7796D02*
X13139Y7759D01*
Y7721*
X13120Y7684*
X13082Y7665*
X13045Y7684*
X13026Y7721*
Y7759*
Y7721D02*
X13007Y7684D01*
X12970Y7665*
X12932Y7684*
X12914Y7721*
Y7759*
X12932Y7796*
X13139Y7477D02*
Y7402D01*
Y7440D02*
X12914D01*
X12951Y7477*
X13274Y8915D02*
X13442D01*
X13480Y8896*
X13499Y8859*
Y8784*
X13480Y8746*
X13442Y8727*
X13274*
X13480Y8596D02*
X13499Y8559D01*
Y8521*
X13480Y8484*
X13442Y8465*
X13405Y8484*
X13386Y8521*
Y8559*
Y8521D02*
X13367Y8484D01*
X13330Y8465*
X13292Y8484*
X13274Y8521*
Y8559*
X13292Y8596*
X13905Y18911D02*
Y19136D01*
X13792*
X13755Y19118*
X13736Y19099*
X13717Y19061*
Y18986*
X13736Y18949*
X13755Y18930*
X13792Y18911*
X13905*
X13605Y18930D02*
X13567Y18911D01*
X13511*
X13474Y18930*
X13455Y18968*
Y18986*
X13474Y19024*
X13511Y19043*
X13605*
Y19136*
X13455*
X13727Y17059D02*
X13746Y17040D01*
X13784Y17021*
X13840*
X13877Y17040*
X13896Y17059*
X13915Y17096*
Y17171*
X13896Y17209*
X13877Y17228*
X13840Y17246*
X13784*
X13746Y17228*
X13727Y17209*
X13465Y17021D02*
X13615D01*
X13484Y17153*
X13465Y17190*
X13484Y17228*
X13521Y17246*
X13577*
X13615Y17228*
X13315Y17078D02*
X13296Y17115D01*
X13259Y17134*
X13221*
X13184Y17115*
X13165Y17078*
X13184Y17040*
X13221Y17021*
X13259*
X13296Y17040*
X13315Y17078*
Y17134*
X13296Y17190*
X13259Y17228*
X13221Y17246*
X14107Y14289D02*
X14126Y14270D01*
X14164Y14251*
X14220*
X14257Y14270*
X14276Y14289*
X14295Y14326*
Y14401*
X14276Y14439*
X14257Y14458*
X14220Y14476*
X14164*
X14126Y14458*
X14107Y14439*
X13845Y14251D02*
X13995D01*
X13864Y14383*
X13845Y14420*
X13864Y14458*
X13901Y14476*
X13957*
X13995Y14458*
X13695Y14251D02*
X13545Y14476D01*
X13695*
X14117Y13899D02*
X14136Y13880D01*
X14174Y13861*
X14230*
X14267Y13880*
X14286Y13899*
X14305Y13936*
Y14011*
X14286Y14049*
X14267Y14068*
X14230Y14086*
X14174*
X14136Y14068*
X14117Y14049*
X13855Y13861D02*
X14005D01*
X13874Y13993*
X13855Y14030*
X13874Y14068*
X13911Y14086*
X13967*
X14005Y14068*
X13649Y13974D02*
X13611D01*
X13574Y13993*
X13555Y14030*
X13574Y14068*
X13611Y14086*
X13649*
X13686Y14068*
X13705Y14030*
X13686Y13993*
X13649Y13974*
X13686Y13955*
X13705Y13918*
X13686Y13880*
X13649Y13861*
X13611*
X13574Y13880*
X13555Y13918*
X13574Y13955*
X13611Y13974*
X14387Y11929D02*
X14406Y11910D01*
X14444Y11891*
X14500*
X14537Y11910*
X14556Y11929*
X14575Y11966*
Y12041*
X14556Y12079*
X14537Y12098*
X14500Y12116*
X14444*
X14406Y12098*
X14387Y12079*
X14256Y11910D02*
X14219Y11891D01*
X14181*
X14144Y11910*
X14125Y11948*
X14144Y11985*
X14181Y12004*
X14219*
X14181D02*
X14144Y12023D01*
X14125Y12060*
X14144Y12098*
X14181Y12116*
X14219*
X14256Y12098*
X13825Y11891D02*
X13975D01*
X13844Y12023*
X13825Y12060*
X13844Y12098*
X13881Y12116*
X13937*
X13975Y12098*
X15327Y11929D02*
X15346Y11910D01*
X15384Y11891*
X15440*
X15477Y11910*
X15496Y11929*
X15515Y11966*
Y12041*
X15496Y12079*
X15477Y12098*
X15440Y12116*
X15384*
X15346Y12098*
X15327Y12079*
X15196Y11910D02*
X15159Y11891D01*
X15121*
X15084Y11910*
X15065Y11948*
X15084Y11985*
X15121Y12004*
X15159*
X15121D02*
X15084Y12023D01*
X15065Y12060*
X15084Y12098*
X15121Y12116*
X15159*
X15196Y12098*
X14915Y11910D02*
X14877Y11891D01*
X14821*
X14784Y11910*
X14765Y11948*
Y11966*
X14784Y12004*
X14821Y12023*
X14915*
Y12116*
X14765*
X15687Y17069D02*
X15706Y17050D01*
X15744Y17031*
X15800*
X15837Y17050*
X15856Y17069*
X15875Y17106*
Y17181*
X15856Y17219*
X15837Y17238*
X15800Y17256*
X15744*
X15706Y17238*
X15687Y17219*
X15556Y17050D02*
X15519Y17031D01*
X15481*
X15444Y17050*
X15425Y17088*
X15444Y17125*
X15481Y17144*
X15519*
X15481D02*
X15444Y17163D01*
X15425Y17200*
X15444Y17238*
X15481Y17256*
X15519*
X15556Y17238*
X15181Y17031D02*
Y17256D01*
X15275Y17106*
X15125*
X15895Y18921D02*
Y19146D01*
X15782*
X15745Y19128*
X15726Y19109*
X15707Y19071*
Y18996*
X15726Y18959*
X15745Y18940*
X15782Y18921*
X15895*
X15595Y18978D02*
X15576Y19015D01*
X15539Y19034*
X15501*
X15464Y19015*
X15445Y18978*
X15464Y18940*
X15501Y18921*
X15539*
X15576Y18940*
X15595Y18978*
Y19034*
X15576Y19090*
X15539Y19128*
X15501Y19146*
X15927Y9229D02*
X15946Y9210D01*
X15984Y9191*
X16040*
X16077Y9210*
X16096Y9229*
X16115Y9266*
Y9341*
X16096Y9379*
X16077Y9398*
X16040Y9416*
X15984*
X15946Y9398*
X15927Y9379*
X15796Y9210D02*
X15759Y9191D01*
X15721*
X15684Y9210*
X15665Y9248*
X15684Y9285*
X15721Y9304*
X15759*
X15721D02*
X15684Y9323D01*
X15665Y9360*
X15684Y9398*
X15721Y9416*
X15759*
X15796Y9398*
X15496Y9210D02*
X15459Y9191D01*
X15421*
X15384Y9210*
X15365Y9248*
X15384Y9285*
X15421Y9304*
X15459*
X15421D02*
X15384Y9323D01*
X15365Y9360*
X15384Y9398*
X15421Y9416*
X15459*
X15496Y9398*
X16135Y11086D02*
X16041Y10861D01*
X15947Y11086*
X15835Y10861D02*
Y11086D01*
X15704*
X15666Y11068*
X15647Y11030*
X15666Y10993*
X15704Y10974*
X15835*
X15704D02*
X15647Y10861D01*
X15497D02*
X15422D01*
X15460D02*
Y11086D01*
X15497Y11049*
X16007Y9739D02*
X16026Y9720D01*
X16064Y9701*
X16120*
X16157Y9720*
X16176Y9739*
X16195Y9776*
Y9851*
X16176Y9889*
X16157Y9908*
X16120Y9926*
X16064*
X16026Y9908*
X16007Y9889*
X15876Y9720D02*
X15839Y9701D01*
X15801*
X15764Y9720*
X15745Y9758*
X15764Y9795*
X15801Y9814*
X15839*
X15801D02*
X15764Y9833D01*
X15745Y9870*
X15764Y9908*
X15801Y9926*
X15839*
X15876Y9908*
X15595Y9758D02*
X15576Y9795D01*
X15539Y9814*
X15501*
X15464Y9795*
X15445Y9758*
X15464Y9720*
X15501Y9701*
X15539*
X15576Y9720*
X15595Y9758*
Y9814*
X15576Y9870*
X15539Y9908*
X15501Y9926*
X16745Y13361D02*
X16651Y13586D01*
X16557Y13361*
X16707Y13455D02*
X16595D01*
X16314D02*
X16257D01*
Y13436*
X16276Y13399*
X16295Y13380*
X16332Y13361*
X16370*
X16407Y13380*
X16426Y13399*
X16445Y13436*
Y13511*
X16426Y13549*
X16407Y13568*
X16370Y13586*
X16332*
X16295Y13568*
X16276Y13549*
X16257Y13511*
X16145Y13361D02*
Y13586D01*
X15957Y13361*
Y13586*
X15845Y13361D02*
Y13586D01*
X15732*
X15695Y13568*
X15676Y13549*
X15657Y13511*
Y13436*
X15676Y13399*
X15695Y13380*
X15732Y13361*
X15845*
X16617Y12299D02*
X16636Y12280D01*
X16674Y12261*
X16730*
X16767Y12280*
X16786Y12299*
X16805Y12336*
Y12411*
X16786Y12449*
X16767Y12468*
X16730Y12486*
X16674*
X16636Y12468*
X16617Y12449*
X16486Y12280D02*
X16449Y12261D01*
X16411*
X16374Y12280*
X16355Y12318*
X16374Y12355*
X16411Y12374*
X16449*
X16411D02*
X16374Y12393D01*
X16355Y12430*
X16374Y12468*
X16411Y12486*
X16449*
X16486Y12468*
X16205Y12261D02*
X16055Y12486D01*
X16205*
X16964Y6414D02*
X16926Y6395D01*
X16907Y6358*
X16926Y6320*
X16964Y6301*
X17095*
Y6526*
X16964*
X16926Y6508*
X16907Y6470*
X16926Y6433*
X16964Y6414*
X17095*
X16795Y6526D02*
Y6301D01*
X16607*
X16495D02*
Y6526D01*
X16307*
X16345Y6414D02*
X16495D01*
Y6301D02*
X16307D01*
X16157D02*
X16082D01*
X16120D02*
Y6526D01*
X16157Y6489*
X17955Y18951D02*
Y19176D01*
X17842*
X17805Y19158*
X17786Y19139*
X17767Y19101*
Y19026*
X17786Y18989*
X17805Y18970*
X17842Y18951*
X17955*
X17655D02*
X17505Y19176D01*
X17655*
X18165Y11816D02*
Y11648D01*
X18146Y11610*
X18109Y11591*
X18034*
X17996Y11610*
X17977Y11648*
Y11816*
X17771Y11591D02*
Y11816D01*
X17865Y11666*
X17715*
X18334Y9645D02*
X18502D01*
X18540Y9626*
X18559Y9589*
Y9514*
X18540Y9476*
X18502Y9457*
X18334*
X18540Y9345D02*
X18559Y9307D01*
Y9251*
X18540Y9214*
X18502Y9195*
X18484*
X18446Y9214*
X18427Y9251*
Y9345*
X18334*
Y9195*
X18584Y16194D02*
X18546Y16175D01*
X18527Y16138*
X18546Y16100*
X18584Y16081*
X18715*
Y16306*
X18584*
X18546Y16288*
X18527Y16250*
X18546Y16213*
X18584Y16194*
X18715*
X18359Y16081D02*
X18284D01*
X18321D02*
Y16306D01*
X18359D02*
X18284D01*
X18115Y16081D02*
X18021Y16306D01*
X17927Y16081*
X18077Y16175D02*
X17965D01*
X17815Y16138D02*
X17796Y16100D01*
X17759Y16081*
X17684*
X17646Y16100*
X17627Y16138*
X17646Y16175*
X17684Y16194*
X17759*
X17796Y16213*
X17815Y16250*
X17796Y16288*
X17759Y16306*
X17684*
X17646Y16288*
X17627Y16250*
X17515Y16081D02*
X17327D01*
X17159D02*
X17084D01*
X17121D02*
Y16306D01*
X17159D02*
X17084D01*
X16915Y16081D02*
Y16306D01*
X16727Y16081*
Y16306*
X16615D02*
X16521Y16081D01*
X16427Y16306*
X18744Y14014D02*
X18706Y13995D01*
X18687Y13958*
X18706Y13920*
X18744Y13901*
X18875*
Y14126*
X18744*
X18706Y14108*
X18687Y14070*
X18706Y14033*
X18744Y14014*
X18875*
X18537Y13901D02*
X18462D01*
X18500D02*
Y14126D01*
X18537Y14089*
X18791Y11147D02*
X18810Y11166D01*
X18829Y11204*
Y11260*
X18810Y11297*
X18791Y11316*
X18754Y11335*
X18679*
X18641Y11316*
X18622Y11297*
X18604Y11260*
Y11204*
X18622Y11166*
X18641Y11147*
X18810Y11016D02*
X18829Y10979D01*
Y10941*
X18810Y10904*
X18772Y10885*
X18735Y10904*
X18716Y10941*
Y10979*
Y10941D02*
X18697Y10904D01*
X18660Y10885*
X18622Y10904*
X18604Y10941*
Y10979*
X18622Y11016*
X18716Y10679D02*
Y10641D01*
X18697Y10604*
X18660Y10585*
X18622Y10604*
X18604Y10641*
Y10679*
X18622Y10716*
X18660Y10735*
X18697Y10716*
X18716Y10679*
X18735Y10716*
X18772Y10735*
X18810Y10716*
X18829Y10679*
Y10641*
X18810Y10604*
X18772Y10585*
X18735Y10604*
X18716Y10641*
X19337Y7209D02*
X19356Y7190D01*
X19394Y7171*
X19450*
X19487Y7190*
X19506Y7209*
X19525Y7246*
Y7321*
X19506Y7359*
X19487Y7378*
X19450Y7396*
X19394*
X19356Y7378*
X19337Y7359*
X19131Y7171D02*
Y7396D01*
X19225Y7246*
X19075*
X18906Y7190D02*
X18869Y7171D01*
X18831*
X18794Y7190*
X18775Y7228*
Y7340*
X18794Y7378*
X18831Y7396*
X18869*
X18906Y7378*
X18925Y7340*
Y7228*
X18906Y7190*
X18794Y7378*
X20207Y10069D02*
X20226Y10050D01*
X20264Y10031*
X20320*
X20357Y10050*
X20376Y10069*
X20395Y10106*
Y10181*
X20376Y10219*
X20357Y10238*
X20320Y10256*
X20264*
X20226Y10238*
X20207Y10219*
X20076Y10050D02*
X20039Y10031D01*
X20001*
X19964Y10050*
X19945Y10088*
X19964Y10125*
X20001Y10144*
X20039*
X20001D02*
X19964Y10163D01*
X19945Y10200*
X19964Y10238*
X20001Y10256*
X20039*
X20076Y10238*
X19739Y10031D02*
X19701Y10050D01*
X19664Y10088*
X19645Y10144*
Y10200*
X19664Y10238*
X19701Y10256*
X19739*
X19776Y10238*
X19795Y10200*
X19776Y10163*
X19739Y10144*
X19701*
X19664Y10163*
X19645Y10200*
X20529Y11655D02*
X20304D01*
Y11542*
X20322Y11505*
X20341Y11486*
X20379Y11467*
X20454*
X20491Y11486*
X20510Y11505*
X20529Y11542*
Y11655*
Y11299D02*
X20510Y11261D01*
X20472Y11224*
X20416Y11205*
X20360*
X20322Y11224*
X20304Y11261*
Y11299*
X20322Y11336*
X20360Y11355*
X20397Y11336*
X20416Y11299*
Y11261*
X20397Y11224*
X20360Y11205*
X21199Y11375D02*
X20974D01*
Y11262*
X20992Y11225*
X21011Y11206*
X21049Y11187*
X21124*
X21161Y11206*
X21180Y11225*
X21199Y11262*
Y11375*
Y11037D02*
Y10962D01*
Y11000D02*
X20974D01*
X21011Y11037*
X21180Y10756D02*
X21199Y10719D01*
Y10681*
X21180Y10644*
X21142Y10625*
X21030*
X20992Y10644*
X20974Y10681*
Y10719*
X20992Y10756*
X21030Y10775*
X21142*
X21180Y10756*
X20992Y10644*
X21649Y10515D02*
X21424D01*
X21536D02*
Y10459D01*
X21424Y10327*
X21536Y10459D02*
X21649Y10327D01*
Y11685D02*
X21424Y11591D01*
X21649Y11497*
X21555Y11647D02*
Y11535D01*
X22109Y10545D02*
X21884D01*
Y10414*
X21902Y10376*
X21940Y10357*
X21977Y10376*
X21996Y10414*
Y10545*
Y10414D02*
X22109Y10357D01*
Y10207D02*
Y10132D01*
Y10170D02*
X21884D01*
X21921Y10207*
X22109Y9907D02*
Y9832D01*
Y9870D02*
X21884D01*
X21921Y9907*
X23725Y14448D02*
X23706Y14410D01*
X23669Y14391*
X23594*
X23556Y14410*
X23537Y14448*
X23556Y14485*
X23594Y14504*
X23669*
X23706Y14523*
X23725Y14560*
X23706Y14598*
X23669Y14616*
X23594*
X23556Y14598*
X23537Y14560*
X23425Y14616D02*
X23406Y14391D01*
X23331Y14504*
X23256Y14391*
X23237Y14616*
X22975Y14391D02*
X23125D01*
X22994Y14523*
X22975Y14560*
X22994Y14598*
X23031Y14616*
X23087*
X23125Y14598*
D02*
D117*
X7648Y20104D02*
X7837D01*
X7794Y19995D02*
X7777Y19989D01*
X7760Y19985*
X7743Y19984*
X7725Y19985*
X7708Y19989*
X7691Y19995*
X7837Y19218D02*
X7648D01*
X9588Y20124D02*
X9777D01*
X9734Y20015D02*
X9717Y20009D01*
X9700Y20005*
X9683Y20004*
X9665Y20005*
X9648Y20009*
X9631Y20015*
X9777Y19238D02*
X9588D01*
X11608Y20164D02*
X11797D01*
X11754Y20055D02*
X11737Y20049D01*
X11720Y20045*
X11703Y20044*
X11685Y20045*
X11668Y20049*
X11651Y20055*
X11797Y19278D02*
X11608D01*
X13588Y20184D02*
X13777D01*
X13734Y20075D02*
X13717Y20069D01*
X13700Y20065*
X13683Y20064*
X13665Y20065*
X13648Y20069*
X13631Y20075*
X13777Y19298D02*
X13588D01*
X15588Y20204D02*
X15777D01*
X15734Y20095D02*
X15717Y20089D01*
X15700Y20085*
X15683Y20084*
X15665Y20085*
X15648Y20089*
X15631Y20095*
X15777Y19318D02*
X15588D01*
X17608Y20224D02*
X17797D01*
X17754Y20115D02*
X17737Y20109D01*
X17720Y20105*
X17703Y20104*
X17685Y20105*
X17668Y20109*
X17651Y20115*
X17797Y19338D02*
X17608D01*
X0Y0D02*
M02*
