G04 EasyPC Gerber Version 20.0.2 Build 4112 *
G04 #@! TF.Part,Single*
G04 #@! TF.FileFunction,Copper,L4,Bot *
%FSLAX24Y24*%
%MOIN*%
G04 #@! TA.AperFunction,SMDPad*
%ADD100R,0.01000X0.02756*%
%ADD94R,0.02165X0.04724*%
%ADD96R,0.02362X0.04724*%
%ADD92R,0.02400X0.02400*%
%ADD109R,0.03200X0.03900*%
%ADD107R,0.03900X0.13800*%
%ADD110R,0.03937X0.04291*%
%ADD93R,0.03940X0.04330*%
%ADD106R,0.05900X0.13400*%
%ADD72R,0.06000X0.06000*%
G04 #@! TD.AperFunction*
%ADD84C,0.00500*%
%ADD113C,0.00800*%
%ADD89C,0.01000*%
%ADD85C,0.01500*%
%ADD112C,0.02000*%
%ADD115C,0.03000*%
G04 #@! TA.AperFunction,ViaPad*
%ADD88C,0.03200*%
G04 #@! TA.AperFunction,ComponentPad*
%ADD87C,0.03600*%
G04 #@! TD.AperFunction*
%ADD114C,0.04000*%
G04 #@! TA.AperFunction,SMDPad*
%ADD97R,0.04600X0.01800*%
%ADD91R,0.04724X0.02362*%
%ADD90R,0.02400X0.02400*%
%ADD108R,0.05900X0.02800*%
%ADD101R,0.13200X0.03200*%
%ADD98R,0.04291X0.03937*%
%ADD95R,0.04330X0.03940*%
%AMT104*0 Rectangle Pad at angle 45*21,1,0.05500,0.06300,0,0,45*%
%ADD104T104*%
G04 #@! TA.AperFunction,ComponentPad*
%AMT86*0 Rectangle Pad at angle 45*21,1,0.06000,0.06000,0,0,45*%
%ADD86T86*%
G04 #@! TA.AperFunction,SMDPad*
%AMT99*0 Rectangle Pad at angle 45*21,1,0.06300,0.06300,0,0,45*%
%ADD99T99*%
%AMT102*0 Rectangle Pad at angle 135*21,1,0.02700,0.06300,0,0,135*%
%ADD102T102*%
%AMT105*0 Rectangle Pad at angle 135*21,1,0.04700,0.06300,0,0,135*%
%ADD105T105*%
%AMT103*0 Rectangle Pad at angle 135*21,1,0.04700,0.08700,0,0,135*%
%ADD103T103*%
%AMT111*0 Rectangle Pad at angle 135*21,1,0.05500,0.05500,0,0,135*%
%ADD111T111*%
X0Y0D02*
D02*
D72*
X6205Y20745D03*
Y21745D03*
X7205Y20745D03*
Y21745D03*
X8205Y20745D03*
Y21745D03*
X9205Y20745D03*
Y21745D03*
X10205Y20745D03*
Y21745D03*
X11205Y20745D03*
Y21745D03*
X12205Y20745D03*
Y21745D03*
X13205Y20745D03*
Y21745D03*
X14205Y20745D03*
Y21745D03*
X15205Y20745D03*
Y21745D03*
X16145Y14385D03*
Y15385D03*
X16205Y20745D03*
Y21745D03*
X17205Y20745D03*
Y21745D03*
X18205Y20745D03*
Y21745D03*
X21075Y5945D03*
Y6945D03*
Y7945D03*
Y8945D03*
D02*
D84*
X2572Y19298D02*
X285Y17011D01*
Y16250*
X294Y16306*
X307Y16362*
X323Y16417*
X341Y16471*
X363Y16525*
X387Y16576*
X414Y16627*
X444Y16676*
X476Y16723*
X511Y16769*
X549Y16812*
X588Y16853*
X630Y16892*
X674Y16929*
X720Y16963*
X768Y16995*
X817Y17024*
X868Y17051*
X921Y17074*
X974Y17095*
X1029Y17112*
X1084Y17127*
X1140Y17139*
X1197Y17147*
X1254Y17153*
X1311Y17155*
X1369Y17154*
X1426Y17150*
X1483Y17143*
X1539Y17133*
X1595Y17120*
X1650Y17104*
X1704Y17084*
X1757Y17062*
X1808Y17037*
X1858Y17009*
X1907Y16979*
X1954Y16946*
X1999Y16910*
X2042Y16872*
X2082Y16832*
X2121Y16790*
X2157Y16745*
X2191Y16699*
X2222Y16651*
X2250Y16601*
X2276Y16550*
X2299Y16497*
X2319Y16444*
X2336Y16389*
X2350Y16333*
X2361Y16277*
X2369Y16220*
X2373Y16163*
X2375Y16105*
X2373Y16048*
X2369Y15991*
X2361Y15934*
X2350Y15878*
X2336Y15822*
X2319Y15767*
X2299Y15713*
X2276Y15661*
X2251Y15610*
X2222Y15560*
X2191Y15512*
X2158Y15465*
X2121Y15421*
X2083Y15378*
X2042Y15338*
X1999Y15300*
X1954Y15265*
X1908Y15231*
X1859Y15201*
X1809Y15173*
X1757Y15148*
X1704Y15126*
X1650Y15107*
X1596Y15091*
X1540Y15077*
X1483Y15067*
X1426Y15060*
X1369Y15056*
X1312Y15055*
X1255Y15057*
X1198Y15063*
X1141Y15071*
X1085Y15083*
X1029Y15098*
X975Y15115*
X921Y15136*
X869Y15159*
X818Y15186*
X769Y15215*
X721Y15246*
X675Y15281*
X631Y15317*
X589Y15356*
X549Y15398*
X512Y15441*
X477Y15486*
X444Y15533*
X414Y15582*
X387Y15633*
X363Y15685*
X341Y15738*
X323Y15792*
X307Y15847*
X295Y15903*
X285Y15960*
Y8250*
X294Y8306*
X307Y8362*
X323Y8417*
X341Y8471*
X363Y8525*
X387Y8576*
X414Y8627*
X444Y8676*
X476Y8723*
X511Y8769*
X549Y8812*
X588Y8853*
X630Y8892*
X674Y8929*
X720Y8963*
X768Y8995*
X817Y9024*
X868Y9051*
X921Y9074*
X974Y9095*
X1029Y9112*
X1084Y9127*
X1140Y9139*
X1197Y9147*
X1254Y9153*
X1311Y9155*
X1369Y9154*
X1426Y9150*
X1483Y9143*
X1539Y9133*
X1595Y9120*
X1650Y9104*
X1704Y9084*
X1757Y9062*
X1808Y9037*
X1858Y9009*
X1907Y8979*
X1954Y8946*
X1999Y8910*
X2042Y8872*
X2082Y8832*
X2121Y8790*
X2157Y8745*
X2191Y8699*
X2222Y8651*
X2250Y8601*
X2276Y8550*
X2299Y8497*
X2319Y8444*
X2336Y8389*
X2350Y8333*
X2361Y8277*
X2369Y8220*
X2373Y8163*
X2375Y8105*
X2373Y8048*
X2369Y7991*
X2361Y7934*
X2350Y7878*
X2336Y7822*
X2319Y7767*
X2299Y7713*
X2276Y7661*
X2251Y7610*
X2222Y7560*
X2191Y7512*
X2158Y7465*
X2121Y7421*
X2083Y7378*
X2042Y7338*
X1999Y7300*
X1954Y7265*
X1908Y7231*
X1859Y7201*
X1809Y7173*
X1757Y7148*
X1704Y7126*
X1650Y7107*
X1596Y7091*
X1540Y7077*
X1483Y7067*
X1426Y7060*
X1369Y7056*
X1312Y7055*
X1255Y7057*
X1198Y7063*
X1141Y7071*
X1085Y7083*
X1029Y7098*
X975Y7115*
X921Y7136*
X869Y7159*
X818Y7186*
X769Y7215*
X721Y7246*
X675Y7281*
X631Y7317*
X589Y7356*
X549Y7398*
X512Y7441*
X477Y7486*
X444Y7533*
X414Y7582*
X387Y7633*
X363Y7685*
X341Y7738*
X323Y7792*
X307Y7847*
X295Y7903*
X285Y7960*
Y7229*
X7209Y305*
X12085*
Y320*
X10610*
Y360*
X10047*
X10023Y355*
X9998Y353*
X9972*
X9948Y355*
X9923Y360*
X8395*
X8368Y362*
X8340Y366*
X8314Y374*
X8289Y384*
X8265Y398*
X8242Y413*
X8222Y432*
X7839Y815*
X7819Y825*
X7800Y837*
X7782Y850*
X7766Y865*
X7580Y1048*
X7451Y919*
X6829Y1541*
X6967Y1679*
X6762Y1884*
X6743Y1905*
X6727Y1927*
X6714Y1951*
X6704Y1977*
X6696Y2003*
X6691Y2030*
X6690Y2058*
Y2064*
X6284Y2470*
X7076Y3262*
X7585Y2753*
X7180Y2347*
Y2159*
X7313Y2026*
X7451Y2163*
X8073Y1541*
X7949Y1417*
X8132Y1237*
X8148Y1220*
X8162Y1202*
X8174Y1182*
X8185Y1161*
X8496Y850*
X9923*
X9947Y855*
X9972Y857*
X9998*
X10022Y855*
X10047Y850*
X10110*
Y1785*
X10111Y1807*
X10115Y1828*
X10121Y1849*
X10129Y1870*
X10140Y1889*
X10153Y1907*
X10167Y1923*
X10487Y2243*
X10504Y2258*
X10523Y2271*
X10544Y2282*
X10565Y2290*
X10587Y2296*
X10610Y2299*
Y3044*
X8465*
X9021Y2489*
X8399Y1867*
X7777Y2489*
X8332Y3044*
X7365*
X7344Y3046*
X7323Y3050*
X7303Y3057*
X7285Y3066*
X7267Y3078*
X7251Y3091*
X2651Y7691*
X2637Y7707*
X2626Y7725*
X2616Y7744*
X2610Y7763*
X2606Y7784*
X2604Y7805*
Y12370*
X2203Y12771*
X2769Y13337*
X3334Y12771*
X2926Y12363*
Y12080*
X3476Y12630*
X4041Y12064*
X3476Y11499*
X3396Y11579*
Y9932*
X9062Y4266*
X9165*
X9147Y4277*
X9131Y4291*
X3561Y9861*
X3547Y9877*
X3536Y9895*
X3526Y9914*
X3520Y9933*
X3516Y9954*
X3514Y9975*
Y10955*
X3516Y10976*
X3520Y10997*
X3526Y11017*
X3536Y11035*
X3547Y11053*
X3561Y11069*
X3734Y11241*
X3617Y11357*
X4183Y11923*
X4748Y11357*
X4183Y10792*
X3961Y11014*
X3836Y10888*
Y10042*
X9312Y4566*
X9706*
X9687Y4583*
X9670Y4601*
X9654Y4621*
X9641Y4643*
X9630Y4666*
X9621Y4690*
X9615Y4714*
X9611Y4740*
X9610Y4765*
X9610Y4778*
X9523Y4690*
X9152Y5061*
X8994*
X8972Y5062*
X8951Y5066*
X8930Y5072*
X8909Y5080*
X8890Y5091*
X8872Y5104*
X8856Y5118*
X8793Y5181*
X8767Y5185*
X8740Y5191*
X8715Y5200*
X8691Y5212*
X8668Y5227*
X8647Y5244*
X8627Y5262*
X8610Y5283*
X8595Y5306*
X8583Y5330*
X8573Y5355*
X8566Y5381*
X8561Y5408*
X8560Y5435*
X8561Y5462*
X8566Y5489*
X8573Y5515*
X8583Y5541*
X8596Y5565*
X8611Y5588*
X8628Y5609*
X8648Y5628*
X8669Y5644*
X8693Y5659*
X8717Y5670*
X8743Y5680*
X8769Y5686*
X8797Y5689*
X8824Y5690*
X8851Y5687*
X8579Y5960*
X8572Y5952*
X8557Y5940*
X8542Y5929*
X8525Y5921*
X8507Y5915*
X8488Y5911*
X8469Y5910*
X8055*
X8036Y5911*
X8017Y5915*
X8000Y5921*
X7983Y5929*
X7967Y5940*
X7952Y5952*
X3952Y9952*
X3940Y9967*
X3929Y9983*
X3921Y10000*
X3915Y10017*
X3911Y10036*
X3910Y10055*
Y10305*
X3911Y10324*
X3915Y10343*
X3921Y10360*
X3929Y10377*
X3940Y10393*
X3952Y10408*
X4770Y11225*
Y11845*
X3952Y12662*
X3939Y12678*
X3928Y12696*
X3919Y12714*
X3913Y12734*
X3910Y12755*
Y12775*
X3913Y12796*
X3919Y12816*
X3928Y12834*
X3939Y12852*
X3952Y12868*
X4027Y12942*
X3803Y13166*
X4404Y13767*
X5005Y13166*
X4432Y12593*
X4538Y12487*
X5111Y13060*
X5712Y12459*
X5280Y12026*
Y11814*
X5819Y12352*
X6420Y11751*
X5920Y11252*
Y11185*
X5993Y11112*
X6526Y11645*
X6835Y11336*
X7655*
X7676Y11334*
X7697Y11330*
X7717Y11323*
X7736Y11314*
X7753Y11302*
X7769Y11288*
X8862Y10186*
X10307*
X10325Y10206*
X10346Y10224*
X10368Y10240*
X10392Y10253*
X10417Y10264*
X10443Y10272*
X10469Y10277*
X10497Y10280*
X10524Y10279*
X10551Y10276*
X10577Y10269*
X10603Y10260*
X10628Y10249*
X10651Y10234*
X10672Y10217*
X10692Y10199*
X10709Y10178*
X10724Y10155*
X10737Y10131*
X10747Y10105*
X10754Y10079*
X10758Y10052*
X10760Y10025*
X10759Y9998*
X10754Y9971*
X10747Y9944*
X10737Y9919*
X10724Y9894*
X10709Y9872*
X10691Y9851*
X10671Y9832*
X10650Y9815*
X10626Y9801*
X10601Y9789*
X10576Y9780*
X10549Y9774*
X10522Y9771*
X10494Y9770*
X10467Y9773*
X10492Y9761*
X10516Y9747*
X10539Y9731*
X10559Y9712*
X10577Y9690*
X10593Y9668*
X10606Y9643*
X10616Y9617*
X10624Y9590*
X10628Y9563*
X10630Y9535*
X10629Y9507*
X10624Y9480*
X10617Y9454*
X10606Y9428*
X10594Y9404*
X10578Y9381*
X10560Y9360*
X10540Y9341*
X10518Y9324*
X10494Y9310*
X10469Y9298*
X10443Y9289*
X10416Y9283*
X10389Y9280*
X10361*
X10334Y9283*
X10307Y9289*
X10281Y9298*
X10256Y9310*
X10232Y9324*
X10210Y9341*
X10190Y9360*
X10172Y9381*
X10157Y9403*
X10144Y9428*
X10133Y9453*
X10126Y9480*
X10122Y9507*
X10120Y9535*
X10121Y9562*
X10126Y9589*
X10133Y9616*
X10143Y9641*
X10156Y9666*
X10171Y9688*
X10189Y9709*
X10209Y9728*
X10230Y9745*
X10254Y9759*
X10279Y9771*
X10304Y9780*
X10331Y9786*
X10358Y9789*
X10386Y9790*
X10413Y9787*
X10389Y9798*
X10366Y9811*
X10344Y9827*
X10325Y9845*
X10307Y9864*
X9934*
X9950Y9842*
X9964Y9817*
X9975Y9792*
X9983Y9765*
X9988Y9737*
X9990Y9710*
X9989Y9682*
X9985Y9654*
X9978Y9627*
X9968Y9601*
X9955Y9576*
X9940Y9553*
X9922Y9532*
X9902Y9512*
X9880Y9495*
Y8505*
X9902Y8488*
X9921Y8469*
X9939Y8448*
X9954Y8425*
X9967Y8401*
X9977Y8376*
X9984Y8349*
X9989Y8322*
X9990Y8295*
X9989Y8267*
X9984Y8240*
X9977Y8214*
X9966Y8188*
X9954Y8164*
X9938Y8141*
X9920Y8120*
X9900Y8101*
X9878Y8084*
X9854Y8070*
X9829Y8058*
X9803Y8049*
X9776Y8043*
X9749Y8040*
X9721*
X9694Y8043*
X9667Y8049*
X9641Y8058*
X9616Y8070*
X9592Y8084*
X9570Y8101*
X9550Y8120*
X9532Y8141*
X9517Y8163*
X9504Y8188*
X9493Y8213*
X9486Y8240*
X9482Y8267*
X9480Y8295*
X9481Y8322*
X9486Y8349*
X9493Y8376*
X9503Y8401*
X9516Y8425*
X9531Y8448*
X9549Y8469*
X9568Y8488*
X9590Y8505*
Y9495*
X9572Y9509*
X9555Y9525*
X9539Y9542*
X9525Y9560*
X9419*
X9440Y9541*
X9458Y9519*
X9474Y9496*
X9487Y9471*
X9497Y9445*
X9504Y9418*
X9509Y9391*
X9510Y9363*
X9508Y9335*
X9503Y9307*
X9496Y9280*
X9485Y9254*
X9471Y9230*
X9455Y9207*
X9437Y9186*
X9416Y9167*
Y8193*
X9436Y8174*
X9455Y8154*
X9471Y8131*
X9484Y8107*
X9495Y8081*
X9503Y8055*
X9508Y8027*
X9510Y8000*
X9509Y7972*
X9505Y7944*
X9498Y7918*
X9488Y7892*
X9476Y7867*
X9460Y7844*
X9443Y7822*
X9423Y7803*
X9401Y7786*
X10685*
X10706Y7804*
X10728Y7820*
X10752Y7833*
X10777Y7844*
X10803Y7852*
X10829Y7857*
X10856Y7860*
X10884Y7859*
X10911Y7856*
X10937Y7849*
X10963Y7840*
X10988Y7829*
X11011Y7814*
X11032Y7797*
X11052Y7779*
X11069Y7758*
X11084Y7735*
X11097Y7711*
X11107Y7685*
X11114Y7659*
X11118Y7632*
X11120Y7605*
X11119Y7578*
X11114Y7551*
X11107Y7525*
X11097Y7500*
X11085Y7476*
X11070Y7453*
X11052Y7432*
X11033Y7413*
X11011Y7396*
X10988Y7382*
X10964Y7370*
X10938Y7361*
X10912Y7354*
X10885Y7351*
X10858Y7350*
X10831Y7352*
X10804Y7357*
X10778Y7365*
X10753Y7376*
X10729Y7389*
X10707Y7405*
X10687Y7423*
X10668Y7443*
X10652Y7464*
X10321*
X10341Y7448*
X10360Y7430*
X10377Y7410*
X10392Y7388*
X10405Y7365*
X10415Y7341*
X10423Y7316*
X10428Y7290*
X10430Y7264*
X10429Y7237*
X10426Y7211*
X10420Y7185*
X10412Y7160*
X10401Y7137*
X10910Y6627*
X10912Y6655*
X10916Y6682*
X10924Y6708*
X10934Y6734*
X10947Y6758*
X10963Y6781*
X10981Y6802*
X11001Y6820*
X11023Y6837*
X11047Y6851*
X11072Y6862*
X11098Y6871*
X11125Y6877*
X11152Y6880*
X11180Y6880*
X11207Y6876*
X11234Y6870*
X11260Y6862*
X11285Y6850*
X11309Y6836*
X11331Y6819*
X11350Y6800*
X11368Y6779*
X11384Y6756*
X11397Y6732*
X11407Y6706*
X11414Y6680*
X11419Y6653*
X11420Y6625*
X11419Y6599*
X11415Y6573*
X11408Y6547*
X11398Y6522*
X11386Y6499*
X11372Y6476*
X11356Y6456*
X12285*
X12306Y6454*
X12327Y6450*
X12347Y6444*
X12365Y6434*
X12383Y6423*
X12399Y6409*
X13122Y5686*
X13796*
X13815Y5705*
X13837Y5723*
X13861Y5738*
X13886Y5750*
X13912Y5759*
X13939Y5766*
X13967Y5769*
X13995Y5770*
X14023Y5767*
X14050Y5762*
X14076Y5753*
X14102Y5742*
X14126Y5727*
X14148Y5711*
X14169Y5692*
X14187Y5671*
X14203Y5648*
X14216Y5623*
X14226Y5597*
X14234Y5570*
X14238Y5543*
X14240Y5515*
X14239Y5487*
X14234Y5460*
X14226Y5433*
X14216Y5407*
X14203Y5383*
X14187Y5360*
X14169Y5339*
X14149Y5320*
X14127Y5303*
X14103Y5289*
X14077Y5277*
X14051Y5269*
X14024Y5263*
X13996Y5260*
X13968Y5261*
X13941Y5264*
X13914Y5270*
X13887Y5279*
X13862Y5291*
X13839Y5306*
X13817Y5323*
X13797Y5343*
X13779Y5364*
X13055*
X13034Y5366*
X13013Y5370*
X12993Y5376*
X12975Y5386*
X12957Y5397*
X12941Y5411*
X12218Y6134*
X11015*
X10994Y6136*
X10973Y6140*
X10953Y6146*
X10935Y6156*
X10917Y6167*
X10901Y6181*
X10050Y7033*
X10026Y7048*
X10005Y7065*
X9985Y7085*
X9968Y7106*
X9953Y7130*
X9941Y7141*
X9927Y7158*
X9915Y7177*
X9905Y7197*
X9899Y7218*
X9895Y7240*
X9894Y7262*
X9897Y7284*
X9902Y7306*
X9911Y7326*
X9922Y7345*
X9936Y7363*
X9952Y7378*
X9964Y7398*
X9978Y7417*
X9994Y7434*
X10011Y7450*
X10029Y7464*
X8860*
X8586Y7197*
X8647Y7136*
X8705Y7194*
X8711Y7221*
X8721Y7247*
X8734Y7272*
X8749Y7295*
X8766Y7317*
X8786Y7336*
X8808Y7353*
X8832Y7368*
X8857Y7380*
X8883Y7390*
X8910Y7396*
X8938Y7399*
X8965Y7400*
X8993Y7397*
X9020Y7392*
X9047Y7383*
X9072Y7371*
X9096Y7357*
X9119Y7341*
X9139Y7322*
X9157Y7301*
X9173Y7278*
X9186Y7253*
X9196Y7227*
X9204Y7200*
X9209Y7173*
X9210Y7145*
X9209Y7118*
X9204Y7091*
X9197Y7065*
X9187Y7039*
X9175Y7015*
X9159Y6993*
X9142Y6972*
X9123Y6953*
X9101Y6936*
X9078Y6922*
X9054Y6910*
X9028Y6901*
X9001Y6894*
X8945Y6838*
X8998Y6785*
X9013Y6794*
X9029Y6801*
X9045Y6806*
X9062Y6809*
X9079Y6810*
X9415*
X9434Y6809*
X9453Y6805*
X9470Y6799*
X9487Y6790*
X9503Y6780*
X9518Y6767*
X10488Y5798*
X10500Y5783*
X10511Y5767*
X10519Y5750*
X10525Y5733*
X10529Y5714*
X10530Y5695*
Y4975*
X10549Y4960*
X10567Y4944*
X10583Y4925*
X10598Y4906*
X10610Y4885*
Y5890*
X12180*
Y5340*
X12284*
X12311Y5346*
X12339Y5349*
X12367Y5350*
X12394Y5347*
X12421Y5341*
X12448Y5332*
X12473Y5321*
X12497Y5307*
X12519Y5290*
X12539Y5271*
X12557Y5250*
X12573Y5227*
X12586Y5203*
X12596Y5177*
X12604Y5150*
X12609Y5123*
X12610Y5095*
X12609Y5067*
X12604Y5040*
X12596Y5013*
X12586Y4987*
X12573Y4963*
X12557Y4940*
X12539Y4919*
X12519Y4900*
X12497Y4883*
X12473Y4869*
X12448Y4857*
X12421Y4849*
X12394Y4843*
X12367Y4840*
X12339Y4841*
X12311Y4844*
X12284Y4850*
X12180*
Y1885*
X15366*
X15343Y1900*
X15322Y1917*
X15303Y1937*
X15286Y1958*
X15272Y1982*
X15260Y2006*
X15251Y2032*
X15244Y2058*
X15241Y2086*
X15240Y2113*
X15242Y2140*
X15248Y2167*
X15256Y2193*
X15266Y2218*
X15280Y2242*
X15296Y2264*
X15314Y2284*
X15334Y2303*
X15356Y2319*
X15380Y2332*
X15405Y2343*
X15431Y2352*
X15457Y2357*
X15485Y2360*
X15512Y2359*
X15539Y2356*
X15566Y2350*
X15890*
Y2910*
X15455*
X15438Y2888*
X15418Y2868*
X15396Y2850*
X15373Y2834*
X15348Y2822*
X15321Y2812*
X15294Y2805*
X15266Y2801*
X15238Y2800*
X15210Y2802*
X15183Y2808*
X15156Y2816*
X15130Y2827*
X15106Y2841*
X15083Y2858*
X15062Y2877*
X15044Y2898*
X15028Y2921*
X15014Y2946*
X15004Y2972*
X14996Y2999*
X14992Y3027*
X14990Y3055*
X14991Y3082*
X14996Y3109*
X15003Y3136*
X15013Y3161*
X15026Y3185*
X15041Y3208*
X15059Y3229*
X15078Y3248*
X15100Y3265*
Y5415*
X15101Y5434*
X15105Y5453*
X15111Y5470*
X15119Y5487*
X15130Y5503*
X15142Y5518*
X15630Y6005*
Y6946*
X15604Y6953*
X15580Y6963*
X15556Y6975*
X15534Y6989*
X15513Y7006*
X15495Y7025*
X15478Y7046*
X15464Y7068*
X15452Y7092*
X15442Y7117*
X15436Y7142*
X15431Y7169*
X15430Y7195*
X15431Y7223*
X15436Y7250*
X15443Y7276*
X15454Y7302*
X15466Y7326*
X15482Y7349*
X15500Y7370*
X15520Y7389*
X15542Y7406*
X15566Y7420*
X15591Y7432*
X15617Y7441*
X15644Y7447*
X15671Y7450*
X15699*
X15726Y7447*
X15753Y7441*
X15779Y7432*
X15804Y7420*
X15828Y7406*
X15850Y7389*
X15870Y7370*
X15888Y7349*
X15903Y7327*
X15916Y7302*
X15927Y7277*
X15934Y7250*
X15938Y7223*
X15940Y7195*
X15939Y7170*
X15935Y7146*
X15929Y7122*
X15921Y7099*
X15911Y7076*
X15916Y7060*
X15919Y7042*
X15920Y7025*
Y5945*
X15919Y5926*
X15915Y5908*
X15909Y5890*
X17390*
Y6105*
X15985Y7510*
X15597*
X15582Y7486*
X15565Y7464*
X15545Y7445*
X15523Y7427*
X15499Y7412*
X15474Y7400*
X15447Y7390*
X15420Y7384*
X15392Y7381*
X15364Y7380*
X15336Y7383*
X15309Y7389*
X15282Y7398*
X15256Y7409*
X15232Y7424*
Y7022*
X14018*
Y7174*
X13866*
Y7063*
X13183*
Y7707*
X13778*
X13766Y7716*
X13756Y7726*
X13719Y7763*
X13183*
Y8407*
X13647*
X13623Y8431*
X13596Y8435*
X13569Y8441*
X13543Y8451*
X13519Y8463*
X13496Y8478*
X13474Y8496*
X13455Y8515*
X13437Y8537*
X13423Y8560*
X13217*
Y8413*
X12680*
Y8275*
X12702Y8258*
X12721Y8239*
X12739Y8218*
X12754Y8195*
X12767Y8171*
X12777Y8146*
X12784Y8119*
X12789Y8092*
X12790Y8065*
X12789Y8037*
X12784Y8010*
X12777Y7984*
X12766Y7958*
X12754Y7934*
X12738Y7911*
X12720Y7890*
X12700Y7871*
X12678Y7854*
X12654Y7840*
X12629Y7828*
X12603Y7819*
X12576Y7813*
X12549Y7810*
X12521*
X12494Y7813*
X12467Y7819*
X12441Y7828*
X12416Y7840*
X12392Y7854*
X12370Y7871*
X12350Y7890*
X12332Y7911*
X12317Y7933*
X12304Y7958*
X12293Y7983*
X12286Y8010*
X12282Y8037*
X12280Y8065*
X12281Y8092*
X12286Y8119*
X12293Y8146*
X12303Y8171*
X12316Y8195*
X12331Y8218*
X12349Y8239*
X12368Y8258*
X12390Y8275*
Y8355*
X12332Y8413*
X11873*
Y9096*
X12517*
Y8638*
X12573Y8582*
Y9096*
X13150*
Y9530*
X13184*
Y9955*
X13186Y9980*
X13190Y10005*
X13198Y10030*
X13208Y10053*
X13221Y10075*
X13237Y10095*
X13255Y10113*
X13275Y10128*
X13297Y10142*
X13320Y10152*
X13345Y10160*
X13370Y10164*
X13395Y10166*
X13520*
Y10194*
X14242*
Y9708*
X13606*
Y9530*
X14003*
Y9607*
X14647*
Y9071*
X14703Y9126*
Y9607*
X14830*
Y9708*
X14548*
Y10942*
X14830*
Y11090*
X14410*
Y10933*
X14409Y10904*
X14404Y10876*
X14397Y10848*
X14388Y10820*
X14375Y10794*
X14360Y10769*
X14343Y10746*
X14324Y10725*
X14242Y10643*
Y10456*
X14048*
X14023Y10440*
X13996Y10427*
X13968Y10417*
X13940Y10410*
X13910Y10406*
X13881Y10404*
X13851Y10406*
X13822Y10410*
X13793Y10417*
X13766Y10427*
X13739Y10440*
X13714Y10456*
X13520*
Y10942*
X13707*
X13820Y11055*
Y11094*
X13793*
Y11720*
X13737Y11776*
Y11094*
X13093*
Y11240*
X12979*
X13000Y11221*
X13018Y11200*
X13033Y11177*
X13046Y11153*
X13057Y11127*
X13064Y11100*
X13068Y11073*
X13070Y11045*
X13069Y11017*
X13064Y10990*
X13057Y10964*
X13046Y10938*
X13034Y10914*
X13018Y10891*
X13000Y10870*
X12980Y10851*
X12958Y10834*
X12934Y10820*
X12909Y10808*
X12883Y10799*
X12856Y10793*
X12829Y10790*
X12801*
X12774Y10793*
X12747Y10799*
X12721Y10808*
X12696Y10820*
X12672Y10834*
X12650Y10851*
X12630Y10870*
X12612Y10891*
X12597Y10913*
X12584Y10938*
X12573Y10963*
X12566Y10990*
X12562Y11017*
X12560Y11045*
X12561Y11073*
X12566Y11100*
X12573Y11127*
X12584Y11153*
X12597Y11177*
X12612Y11200*
X12630Y11221*
X12651Y11240*
X12206*
X12200Y11213*
X12190Y11186*
X12178Y11161*
X12163Y11138*
X12146Y11116*
X12126Y11096*
X12104Y11078*
X12081Y11063*
X12056Y11051*
X12029Y11041*
X12002Y11034*
X11974Y11031*
X11946Y11030*
X11919Y11033*
X11891Y11038*
X11864Y11047*
X11839Y11058*
X11815Y11072*
X11792Y11089*
X11772Y11108*
X11753Y11129*
X11737Y11152*
X11724Y11177*
X11714Y11203*
X11706Y11229*
X11701Y11257*
X11700Y11285*
X11701Y11312*
X11706Y11339*
X11713Y11365*
X11723Y11390*
X11735Y11414*
X11750Y11437*
X11767Y11457*
X11786Y11476*
X11808Y11493*
X11831Y11508*
X11855Y11520*
X11880Y11529*
X11906Y11535*
X11933Y11539*
X11967Y11573*
X11983Y11587*
X12001Y11600*
X12020Y11611*
X12041Y11619*
X12062Y11625*
X12083Y11629*
X12105Y11630*
X13093*
Y11776*
X13736*
X13368Y12145*
X9925*
Y11755*
X7355*
X5785Y13325*
Y16085*
X2572Y19298*
X2176Y13930D02*
X2197Y13937D01*
X2220Y13942*
X2242Y13945*
X2265Y13946*
X3169*
X3697Y14474*
X4298Y13873*
X3697Y13272*
X3478Y13491*
X3456Y13474*
X3434Y13459*
X3409Y13447*
X3384Y13437*
X3357Y13430*
X3330Y13426*
X3303Y13424*
X2573*
X2061Y12913*
X1496Y13479*
X2061Y14044*
X2176Y13930*
X2389Y14580D02*
X2990Y15181D01*
X3591Y14580*
X2990Y13979*
X2389Y14580*
X2765Y6559D02*
X2480Y6274D01*
X1971Y6783*
X2763Y7575*
X3272Y7066*
X3041Y6835*
X3097Y6779*
X3123Y6775*
X3150Y6769*
X3175Y6760*
X3199Y6748*
X3222Y6733*
X3243Y6716*
X3263Y6698*
X3280Y6677*
X3295Y6654*
X3307Y6630*
X3317Y6605*
X3324Y6579*
X3329Y6552*
X3330Y6525*
X3328Y6497*
X3324Y6470*
X3316Y6443*
X3306Y6417*
X3293Y6393*
X3277Y6370*
X3259Y6349*
X3239Y6330*
X3217Y6313*
X3193Y6299*
X3167Y6287*
X3141Y6279*
X3114Y6273*
X3086Y6270*
X3058Y6271*
X3030Y6274*
X3003Y6280*
X2977Y6289*
X2952Y6302*
X2928Y6316*
X2907Y6333*
X2887Y6353*
X2869Y6374*
X2854Y6398*
X2841Y6423*
X2832Y6449*
X2825Y6476*
X2821Y6503*
X2765Y6559*
X3601Y5719D02*
X3624Y5740D01*
X3649Y5758*
X3675Y5774*
X3703Y5787*
X3732Y5797*
X3763Y5804*
X3793Y5808*
X3824Y5808*
X3855Y5806*
X3885Y5801*
X3915Y5792*
X3944Y5781*
X3971Y5766*
X3997Y5749*
X4021Y5730*
X4043Y5708*
X4062Y5684*
X4079Y5658*
X4094Y5631*
X4105Y5602*
X4114Y5573*
X4119Y5542*
X4121Y5511*
X4121Y5481*
X4117Y5450*
X4110Y5420*
X4100Y5391*
X4087Y5363*
X4071Y5336*
X4053Y5311*
X4032Y5288*
X4009Y5267*
X3984Y5249*
X3958Y5233*
X3930Y5220*
X3900Y5210*
X3870Y5203*
X3840Y5199*
X3809Y5199*
X3778Y5201*
X3748Y5206*
X3718Y5215*
X3689Y5226*
X3662Y5241*
X3636Y5258*
X3612Y5277*
X3590Y5299*
X3571Y5323*
X3554Y5349*
X3539Y5376*
X3528Y5405*
X3519Y5434*
X3514Y5465*
X3512Y5496*
X3512Y5527*
X3516Y5557*
X3523Y5587*
X3533Y5616*
X3546Y5645*
X3562Y5671*
X3580Y5696*
X3601Y5719*
X4450Y16275D02*
X4449Y16247D01*
X4444Y16220*
X4437Y16194*
X4426Y16168*
X4414Y16144*
X4398Y16121*
X4380Y16100*
X4360Y16081*
X4338Y16064*
X4314Y16050*
X4289Y16038*
X4263Y16029*
X4236Y16023*
X4209Y16020*
X4181*
X4154Y16023*
X4127Y16029*
X4101Y16038*
X4076Y16050*
X4052Y16064*
X4030Y16081*
X4010Y16100*
X3992Y16121*
X3977Y16143*
X3964Y16168*
X3953Y16193*
X3946Y16220*
X3942Y16247*
X3940Y16275*
X3941Y16303*
X3946Y16330*
X3953Y16356*
X3964Y16382*
X3976Y16406*
X3992Y16429*
X4010Y16450*
X4030Y16469*
X4052Y16486*
X4076Y16500*
X4101Y16512*
X4127Y16521*
X4154Y16527*
X4181Y16530*
X4209*
X4236Y16527*
X4263Y16521*
X4289Y16512*
X4314Y16500*
X4338Y16486*
X4360Y16469*
X4380Y16450*
X4398Y16429*
X4413Y16407*
X4426Y16382*
X4437Y16357*
X4444Y16330*
X4448Y16303*
X4450Y16275*
X5828Y3492D02*
X5851Y3513D01*
X5876Y3531*
X5903Y3546*
X5931Y3559*
X5960Y3569*
X5990Y3576*
X6021Y3580*
X6051Y3581*
X6082Y3579*
X6113Y3573*
X6142Y3565*
X6171Y3553*
X6199Y3539*
X6224Y3522*
X6248Y3503*
X6270Y3481*
X6290Y3457*
X6307Y3431*
X6321Y3404*
X6332Y3375*
X6341Y3345*
X6346Y3315*
X6349Y3284*
X6348Y3253*
X6344Y3223*
X6337Y3192*
X6327Y3163*
X6314Y3135*
X6299Y3109*
X6280Y3084*
X6260Y3060*
X6237Y3040*
X6212Y3021*
X6185Y3006*
X6157Y2993*
X6128Y2983*
X6098Y2976*
X6067Y2972*
X6036Y2971*
X6005Y2974*
X5975Y2979*
X5945Y2987*
X5917Y2999*
X5889Y3013*
X5863Y3030*
X5839Y3050*
X5818Y3072*
X5798Y3096*
X5781Y3121*
X5767Y3149*
X5755Y3177*
X5747Y3207*
X5741Y3237*
X5739Y3268*
X5740Y3299*
X5744Y3330*
X5751Y3360*
X5761Y3389*
X5773Y3417*
X5789Y3444*
X5807Y3469*
X5828Y3492*
X9770Y11475D02*
X9769Y11447D01*
X9764Y11420*
X9757Y11394*
X9746Y11368*
X9734Y11344*
X9718Y11321*
X9700Y11300*
X9680Y11281*
X9658Y11264*
X9634Y11250*
X9609Y11238*
X9583Y11229*
X9556Y11223*
X9529Y11220*
X9501*
X9474Y11223*
X9447Y11229*
X9421Y11238*
X9396Y11250*
X9372Y11264*
X9350Y11281*
X9330Y11300*
X9312Y11321*
X9297Y11343*
X9284Y11368*
X9273Y11393*
X9266Y11420*
X9262Y11447*
X9260Y11475*
X9261Y11503*
X9266Y11530*
X9273Y11556*
X9284Y11582*
X9296Y11606*
X9312Y11629*
X9330Y11650*
X9350Y11669*
X9372Y11686*
X9396Y11700*
X9421Y11712*
X9447Y11721*
X9474Y11727*
X9501Y11730*
X9529*
X9556Y11727*
X9583Y11721*
X9609Y11712*
X9634Y11700*
X9658Y11686*
X9680Y11669*
X9700Y11650*
X9718Y11629*
X9733Y11607*
X9746Y11582*
X9757Y11557*
X9764Y11530*
X9768Y11503*
X9770Y11475*
X10930Y9685D02*
X10931Y9713D01*
X10936Y9740*
X10943Y9766*
X10954Y9792*
X10966Y9816*
X10982Y9839*
X11000Y9860*
X11020Y9879*
X11042Y9896*
X11066Y9910*
X11091Y9922*
X11117Y9931*
X11144Y9937*
X11171Y9940*
X11199*
X11226Y9937*
X11253Y9931*
X11279Y9922*
X11304Y9910*
X11328Y9896*
X11350Y9879*
X11370Y9860*
X11388Y9839*
X11403Y9817*
X11416Y9792*
X11427Y9767*
X11434Y9740*
X11438Y9713*
X11440Y9685*
X11439Y9657*
X11434Y9630*
X11427Y9604*
X11416Y9578*
X11404Y9554*
X11388Y9531*
X11370Y9510*
X11350Y9491*
X11328Y9474*
X11304Y9460*
X11279Y9448*
X11253Y9439*
X11226Y9433*
X11199Y9430*
X11171*
X11144Y9433*
X11117Y9439*
X11091Y9448*
X11066Y9460*
X11042Y9474*
X11020Y9491*
X11000Y9510*
X10982Y9531*
X10967Y9553*
X10954Y9578*
X10943Y9603*
X10936Y9630*
X10932Y9657*
X10930Y9685*
X11535Y10305D02*
X11512Y10317D01*
X11491Y10332*
X11471Y10349*
X11453Y10368*
X11436Y10388*
X11423Y10410*
X11411Y10434*
X11402Y10458*
X11395Y10483*
X11391Y10509*
X11390Y10535*
X11391Y10563*
X11396Y10590*
X11403Y10616*
X11414Y10642*
X11426Y10666*
X11442Y10689*
X11460Y10710*
X11480Y10729*
X11502Y10746*
X11526Y10760*
X11551Y10772*
X11577Y10781*
X11604Y10787*
X11631Y10790*
X11659*
X11686Y10787*
X11713Y10781*
X11739Y10772*
X11764Y10760*
X11788Y10746*
X11810Y10729*
X11830Y10710*
X11848Y10689*
X11863Y10667*
X11876Y10642*
X11887Y10617*
X11894Y10590*
X11898Y10563*
X11900Y10535*
X11899Y10509*
X11895Y10483*
X11888Y10458*
X11879Y10434*
X11867Y10410*
X11854Y10388*
X11837Y10368*
X11819Y10349*
X11799Y10332*
X11778Y10317*
X11755Y10305*
X11778Y10293*
X11799Y10278*
X11819Y10261*
X11837Y10242*
X11854Y10222*
X11867Y10200*
X11879Y10176*
X11888Y10152*
X11895Y10127*
X11899Y10101*
X11900Y10075*
X11899Y10047*
X11894Y10020*
X11887Y9994*
X11876Y9968*
X11864Y9944*
X11848Y9921*
X11830Y9900*
X11810Y9881*
X11788Y9864*
X11764Y9850*
X11739Y9838*
X11713Y9829*
X11686Y9823*
X11659Y9820*
X11631*
X11604Y9823*
X11577Y9829*
X11551Y9838*
X11526Y9850*
X11502Y9864*
X11480Y9881*
X11460Y9900*
X11442Y9921*
X11427Y9943*
X11414Y9968*
X11403Y9993*
X11396Y10020*
X11392Y10047*
X11390Y10075*
X11391Y10101*
X11395Y10127*
X11402Y10152*
X11411Y10176*
X11423Y10200*
X11436Y10222*
X11453Y10242*
X11471Y10261*
X11491Y10278*
X11512Y10293*
X11535Y10305*
X12300Y6715D02*
X12301Y6743D01*
X12306Y6770*
X12313Y6796*
X12324Y6822*
X12336Y6846*
X12352Y6869*
X12370Y6890*
X12390Y6909*
X12412Y6926*
X12436Y6940*
X12461Y6952*
X12487Y6961*
X12514Y6967*
X12541Y6970*
X12569*
X12596Y6967*
X12623Y6961*
X12649Y6952*
X12674Y6940*
X12698Y6926*
X12720Y6909*
X12740Y6890*
X12758Y6869*
X12773Y6847*
X12786Y6822*
X12797Y6797*
X12804Y6770*
X12808Y6743*
X12810Y6715*
X12809Y6687*
X12804Y6660*
X12797Y6634*
X12786Y6608*
X12774Y6584*
X12758Y6561*
X12740Y6540*
X12720Y6521*
X12698Y6504*
X12674Y6490*
X12649Y6478*
X12623Y6469*
X12596Y6463*
X12569Y6460*
X12541*
X12514Y6463*
X12487Y6469*
X12461Y6478*
X12436Y6490*
X12412Y6504*
X12390Y6521*
X12370Y6540*
X12352Y6561*
X12337Y6583*
X12324Y6608*
X12313Y6633*
X12306Y6660*
X12302Y6687*
X12300Y6715*
X13100Y10025D02*
X13099Y9997D01*
X13094Y9970*
X13087Y9944*
X13076Y9918*
X13064Y9894*
X13048Y9871*
X13030Y9850*
X13010Y9831*
X12988Y9814*
X12964Y9800*
X12939Y9788*
X12913Y9779*
X12886Y9773*
X12859Y9770*
X12831*
X12804Y9773*
X12777Y9779*
X12751Y9788*
X12726Y9800*
X12702Y9814*
X12680Y9831*
X12660Y9850*
X12642Y9871*
X12627Y9893*
X12614Y9918*
X12603Y9943*
X12596Y9970*
X12592Y9997*
X12590Y10025*
X12591Y10053*
X12596Y10080*
X12603Y10106*
X12614Y10132*
X12626Y10156*
X12642Y10179*
X12660Y10200*
X12680Y10219*
X12702Y10236*
X12726Y10250*
X12751Y10262*
X12777Y10271*
X12804Y10277*
X12831Y10280*
X12859*
X12886Y10277*
X12913Y10271*
X12939Y10262*
X12964Y10250*
X12988Y10236*
X13010Y10219*
X13030Y10200*
X13048Y10179*
X13063Y10157*
X13076Y10132*
X13087Y10107*
X13094Y10080*
X13098Y10053*
X13100Y10025*
X13530Y6745D02*
X13531Y6773D01*
X13536Y6800*
X13543Y6826*
X13554Y6852*
X13566Y6876*
X13582Y6899*
X13600Y6920*
X13620Y6939*
X13642Y6956*
X13666Y6970*
X13691Y6982*
X13717Y6991*
X13744Y6997*
X13771Y7000*
X13799*
X13826Y6997*
X13853Y6991*
X13879Y6982*
X13904Y6970*
X13928Y6956*
X13950Y6939*
X13970Y6920*
X13988Y6899*
X14003Y6877*
X14016Y6852*
X14027Y6827*
X14034Y6800*
X14038Y6773*
X14040Y6745*
X14039Y6717*
X14034Y6690*
X14027Y6664*
X14016Y6638*
X14004Y6614*
X13988Y6591*
X13970Y6570*
X13950Y6551*
X13928Y6534*
X13904Y6520*
X13879Y6508*
X13853Y6499*
X13826Y6493*
X13799Y6490*
X13771*
X13744Y6493*
X13717Y6499*
X13691Y6508*
X13666Y6520*
X13642Y6534*
X13620Y6551*
X13600Y6570*
X13582Y6591*
X13567Y6613*
X13554Y6638*
X13543Y6663*
X13536Y6690*
X13532Y6717*
X13530Y6745*
X13730Y5965D02*
X13729Y5937D01*
X13724Y5910*
X13717Y5884*
X13706Y5858*
X13694Y5834*
X13678Y5811*
X13660Y5790*
X13640Y5771*
X13618Y5754*
X13594Y5740*
X13569Y5728*
X13543Y5719*
X13516Y5713*
X13489Y5710*
X13461*
X13434Y5713*
X13407Y5719*
X13381Y5728*
X13356Y5740*
X13332Y5754*
X13310Y5771*
X13290Y5790*
X13272Y5811*
X13257Y5833*
X13244Y5858*
X13233Y5883*
X13226Y5910*
X13222Y5937*
X13220Y5965*
X13221Y5993*
X13226Y6020*
X13233Y6046*
X13244Y6072*
X13256Y6096*
X13272Y6119*
X13290Y6140*
X13310Y6159*
X13332Y6176*
X13356Y6190*
X13381Y6202*
X13407Y6211*
X13434Y6217*
X13461Y6220*
X13489*
X13516Y6217*
X13543Y6211*
X13569Y6202*
X13594Y6190*
X13618Y6176*
X13640Y6159*
X13660Y6140*
X13678Y6119*
X13693Y6097*
X13706Y6072*
X13717Y6047*
X13724Y6020*
X13728Y5993*
X13730Y5965*
X14300Y5725D02*
X14301Y5753D01*
X14306Y5780*
X14313Y5806*
X14324Y5832*
X14336Y5856*
X14352Y5879*
X14370Y5900*
X14390Y5919*
X14412Y5936*
X14436Y5950*
X14461Y5962*
X14487Y5971*
X14514Y5977*
X14541Y5980*
X14569*
X14596Y5977*
X14623Y5971*
X14649Y5962*
X14674Y5950*
X14698Y5936*
X14720Y5919*
X14740Y5900*
X14758Y5879*
X14773Y5857*
X14786Y5832*
X14797Y5807*
X14804Y5780*
X14808Y5753*
X14810Y5725*
X14809Y5697*
X14804Y5670*
X14797Y5644*
X14786Y5618*
X14774Y5594*
X14758Y5571*
X14740Y5550*
X14720Y5531*
X14698Y5514*
X14674Y5500*
X14649Y5488*
X14623Y5479*
X14596Y5473*
X14569Y5470*
X14541*
X14514Y5473*
X14487Y5479*
X14461Y5488*
X14436Y5500*
X14412Y5514*
X14390Y5531*
X14370Y5550*
X14352Y5571*
X14337Y5593*
X14324Y5618*
X14313Y5643*
X14306Y5670*
X14302Y5697*
X14300Y5725*
X15220Y6327D02*
X15196Y6341D01*
X15173Y6358*
X15152Y6377*
X15134Y6398*
X15118Y6421*
X15104Y6446*
X15094Y6472*
X15086Y6499*
X15081Y6527*
X15080Y6555*
X15081Y6583*
X15086Y6610*
X15093Y6636*
X15104Y6662*
X15116Y6686*
X15132Y6709*
X15150Y6730*
X15170Y6749*
X15192Y6766*
X15216Y6780*
X15241Y6792*
X15267Y6801*
X15294Y6807*
X15321Y6810*
X15349*
X15376Y6807*
X15403Y6801*
X15429Y6792*
X15454Y6780*
X15478Y6766*
X15500Y6749*
X15520Y6730*
X15538Y6709*
X15553Y6687*
X15566Y6662*
X15577Y6637*
X15584Y6610*
X15588Y6583*
X15590Y6555*
X15589Y6528*
X15584Y6501*
X15577Y6475*
X15568Y6450*
X15555Y6426*
X15540Y6404*
X15523Y6383*
X15504Y6364*
X15483Y6347*
X15460Y6333*
X15484Y6319*
X15507Y6302*
X15528Y6283*
X15546Y6262*
X15562Y6239*
X15576Y6214*
X15586Y6188*
X15594Y6161*
X15599Y6133*
X15600Y6105*
X15599Y6077*
X15594Y6050*
X15587Y6024*
X15576Y5998*
X15564Y5974*
X15548Y5951*
X15530Y5930*
X15510Y5911*
X15488Y5894*
X15464Y5880*
X15439Y5868*
X15413Y5859*
X15386Y5853*
X15359Y5850*
X15331*
X15304Y5853*
X15277Y5859*
X15251Y5868*
X15226Y5880*
X15202Y5894*
X15180Y5911*
X15160Y5930*
X15142Y5951*
X15127Y5973*
X15114Y5998*
X15103Y6023*
X15096Y6050*
X15092Y6077*
X15090Y6105*
X15091Y6132*
X15096Y6159*
X15103Y6185*
X15112Y6210*
X15125Y6234*
X15140Y6256*
X15157Y6277*
X15176Y6296*
X15197Y6313*
X15220Y6327*
X16490Y6345D02*
X16489Y6317D01*
X16484Y6290*
X16477Y6264*
X16466Y6238*
X16454Y6214*
X16438Y6191*
X16420Y6170*
X16400Y6151*
X16378Y6134*
X16354Y6120*
X16329Y6108*
X16303Y6099*
X16276Y6093*
X16249Y6090*
X16221*
X16194Y6093*
X16167Y6099*
X16141Y6108*
X16116Y6120*
X16092Y6134*
X16070Y6151*
X16050Y6170*
X16032Y6191*
X16017Y6213*
X16004Y6238*
X15993Y6263*
X15986Y6290*
X15982Y6317*
X15980Y6345*
X15981Y6373*
X15986Y6400*
X15993Y6426*
X16004Y6452*
X16016Y6476*
X16032Y6499*
X16050Y6520*
X16070Y6539*
X16092Y6556*
X16116Y6570*
X16141Y6582*
X16167Y6591*
X16194Y6597*
X16221Y6600*
X16249*
X16276Y6597*
X16303Y6591*
X16329Y6582*
X16354Y6570*
X16378Y6556*
X16400Y6539*
X16420Y6520*
X16438Y6499*
X16453Y6477*
X16466Y6452*
X16477Y6427*
X16484Y6400*
X16488Y6373*
X16490Y6345*
X7188Y326D02*
X10610D01*
X7140Y374D02*
X8314D01*
X7092Y422D02*
X8232D01*
X7044Y470D02*
X8184D01*
X6996Y518D02*
X8136D01*
X6948Y566D02*
X8088D01*
X6900Y614D02*
X8040D01*
X6852Y662D02*
X7992D01*
X6804Y710D02*
X7944D01*
X6755Y758D02*
X7895D01*
X6707Y806D02*
X7847D01*
X6659Y854D02*
X7778D01*
X8492D02*
X9942D01*
X10028D02*
X10110D01*
X6611Y902D02*
X7729D01*
X8444D02*
X10110D01*
X6563Y950D02*
X7420D01*
X7482D02*
X7680D01*
X8396D02*
X10110D01*
X6515Y998D02*
X7372D01*
X7530D02*
X7631D01*
X8348D02*
X10110D01*
X6467Y1046D02*
X7324D01*
X7579D02*
X7582D01*
X8300D02*
X10110D01*
X6419Y1094D02*
X7276D01*
X8252D02*
X10110D01*
X6371Y1142D02*
X7228D01*
X8204D02*
X10110D01*
X6323Y1190D02*
X7180D01*
X8169D02*
X10110D01*
X6275Y1238D02*
X7132D01*
X8130D02*
X10110D01*
X6227Y1286D02*
X7084D01*
X8082D02*
X10110D01*
X6179Y1334D02*
X7036D01*
X8033D02*
X10110D01*
X6131Y1382D02*
X6988D01*
X7984D02*
X10110D01*
X6083Y1431D02*
X6940D01*
X7963D02*
X10110D01*
X6035Y1479D02*
X6892D01*
X8011D02*
X10110D01*
X5987Y1527D02*
X6844D01*
X8059D02*
X10110D01*
X5939Y1575D02*
X6862D01*
X8040D02*
X10110D01*
X5891Y1623D02*
X6910D01*
X7992D02*
X10110D01*
X5843Y1671D02*
X6958D01*
X7944D02*
X10110D01*
X5795Y1719D02*
X6927D01*
X7896D02*
X10110D01*
X5747Y1767D02*
X6879D01*
X7848D02*
X10110D01*
X5699Y1815D02*
X6831D01*
X7800D02*
X10112D01*
X5651Y1863D02*
X6783D01*
X7752D02*
X10126D01*
X5603Y1911D02*
X6739D01*
X7704D02*
X8354D01*
X8443D02*
X10156D01*
X12180D02*
X15330D01*
X5555Y1959D02*
X6711D01*
X7656D02*
X8306D01*
X8491D02*
X10203D01*
X12180D02*
X15286D01*
X5507Y2007D02*
X6695D01*
X7608D02*
X8258D01*
X8539D02*
X10251D01*
X12180D02*
X15260D01*
X5459Y2055D02*
X6690D01*
X7284D02*
X7343D01*
X7560D02*
X8210D01*
X8587D02*
X10299D01*
X12180D02*
X15245D01*
X5411Y2103D02*
X6651D01*
X7236D02*
X7391D01*
X7512D02*
X8162D01*
X8635D02*
X10347D01*
X12180D02*
X15240D01*
X5363Y2151D02*
X6603D01*
X7188D02*
X7439D01*
X7464D02*
X8114D01*
X8683D02*
X10395D01*
X12180D02*
X15244D01*
X5315Y2199D02*
X6555D01*
X7180D02*
X8066D01*
X8731D02*
X10443D01*
X12180D02*
X15258D01*
X5266Y2247D02*
X6507D01*
X7180D02*
X8018D01*
X8779D02*
X10491D01*
X12180D02*
X15283D01*
X5218Y2295D02*
X6459D01*
X7180D02*
X7970D01*
X8827D02*
X10582D01*
X12180D02*
X15325D01*
X5170Y2343D02*
X6411D01*
X7180D02*
X7922D01*
X8875D02*
X10610D01*
X12180D02*
X15404D01*
X5122Y2391D02*
X6363D01*
X7224D02*
X7874D01*
X8923D02*
X10610D01*
X12180D02*
X15890D01*
X5074Y2439D02*
X6315D01*
X7272D02*
X7826D01*
X8971D02*
X10610D01*
X12180D02*
X15890D01*
X5026Y2487D02*
X6301D01*
X7320D02*
X7778D01*
X9019D02*
X10610D01*
X12180D02*
X15890D01*
X4978Y2535D02*
X6349D01*
X7368D02*
X7823D01*
X8975D02*
X10610D01*
X12180D02*
X15890D01*
X4930Y2583D02*
X6397D01*
X7416D02*
X7871D01*
X8927D02*
X10610D01*
X12180D02*
X15890D01*
X4882Y2631D02*
X6446D01*
X7464D02*
X7919D01*
X8879D02*
X10610D01*
X12180D02*
X15890D01*
X4834Y2679D02*
X6494D01*
X7512D02*
X7967D01*
X8830D02*
X10610D01*
X12180D02*
X15890D01*
X4786Y2727D02*
X6542D01*
X7560D02*
X8015D01*
X8782D02*
X10610D01*
X12180D02*
X15890D01*
X4738Y2775D02*
X6590D01*
X7563D02*
X8063D01*
X8734D02*
X10610D01*
X12180D02*
X15890D01*
X4690Y2823D02*
X6638D01*
X7515D02*
X8111D01*
X8686D02*
X10610D01*
X12180D02*
X15138D01*
X15352D02*
X15890D01*
X4642Y2871D02*
X6686D01*
X7467D02*
X8159D01*
X8638D02*
X10610D01*
X12180D02*
X15068D01*
X15422D02*
X15890D01*
X4594Y2919D02*
X6734D01*
X7419D02*
X8207D01*
X8590D02*
X10610D01*
X12180D02*
X15029D01*
X4546Y2968D02*
X6782D01*
X7371D02*
X8255D01*
X8542D02*
X10610D01*
X12180D02*
X15005D01*
X4498Y3016D02*
X5885D01*
X6202D02*
X6830D01*
X7323D02*
X8303D01*
X8494D02*
X10610D01*
X12180D02*
X14993D01*
X4450Y3064D02*
X5825D01*
X6263D02*
X6878D01*
X7275D02*
X7289D01*
X12180D02*
X14990D01*
X4402Y3112D02*
X5787D01*
X6301D02*
X6926D01*
X7227D02*
X7231D01*
X12180D02*
X14996D01*
X4354Y3160D02*
X5762D01*
X6326D02*
X6974D01*
X7179D02*
X7183D01*
X12180D02*
X15012D01*
X4306Y3208D02*
X5747D01*
X6341D02*
X7022D01*
X7131D02*
X7135D01*
X12180D02*
X15041D01*
X4258Y3256D02*
X5740D01*
X6348D02*
X7070D01*
X7083D02*
X7087D01*
X12180D02*
X15088D01*
X4210Y3304D02*
X5740D01*
X6348D02*
X7039D01*
X12180D02*
X15100D01*
X4162Y3352D02*
X5748D01*
X6339D02*
X6991D01*
X12180D02*
X15100D01*
X4114Y3400D02*
X5765D01*
X6323D02*
X6943D01*
X12180D02*
X15100D01*
X4066Y3448D02*
X5792D01*
X6296D02*
X6895D01*
X12180D02*
X15100D01*
X4018Y3496D02*
X5832D01*
X6255D02*
X6847D01*
X12180D02*
X15100D01*
X3970Y3544D02*
X5898D01*
X6190D02*
X6799D01*
X12180D02*
X15100D01*
X3922Y3592D02*
X6751D01*
X12180D02*
X15100D01*
X3874Y3640D02*
X6703D01*
X12180D02*
X15100D01*
X3826Y3688D02*
X6655D01*
X12180D02*
X15100D01*
X3778Y3736D02*
X6607D01*
X12180D02*
X15100D01*
X3729Y3784D02*
X6559D01*
X12180D02*
X15100D01*
X3681Y3832D02*
X6511D01*
X12180D02*
X15100D01*
X3633Y3880D02*
X6463D01*
X12180D02*
X15100D01*
X3585Y3928D02*
X6415D01*
X12180D02*
X15100D01*
X3537Y3976D02*
X6367D01*
X12180D02*
X15100D01*
X3489Y4024D02*
X6319D01*
X12180D02*
X15100D01*
X3441Y4072D02*
X6270D01*
X12180D02*
X15100D01*
X3393Y4120D02*
X6222D01*
X12180D02*
X15100D01*
X3345Y4168D02*
X6174D01*
X12180D02*
X15100D01*
X3297Y4216D02*
X6126D01*
X12180D02*
X15100D01*
X3249Y4264D02*
X6078D01*
X12180D02*
X15100D01*
X3201Y4312D02*
X6030D01*
X9015D02*
X9110D01*
X12180D02*
X15100D01*
X3153Y4360D02*
X5982D01*
X8967D02*
X9062D01*
X12180D02*
X15100D01*
X3105Y4408D02*
X5934D01*
X8919D02*
X9014D01*
X12180D02*
X15100D01*
X3057Y4456D02*
X5886D01*
X8871D02*
X8966D01*
X12180D02*
X15100D01*
X3009Y4505D02*
X5838D01*
X8823D02*
X8918D01*
X12180D02*
X15100D01*
X2961Y4553D02*
X5790D01*
X8775D02*
X8870D01*
X12180D02*
X15100D01*
X2913Y4601D02*
X5742D01*
X8727D02*
X8822D01*
X9277D02*
X9670D01*
X12180D02*
X15100D01*
X2865Y4649D02*
X5694D01*
X8679D02*
X8774D01*
X9229D02*
X9638D01*
X12180D02*
X15100D01*
X2817Y4697D02*
X5646D01*
X8631D02*
X8726D01*
X9181D02*
X9517D01*
X9529D02*
X9619D01*
X12180D02*
X15100D01*
X2769Y4745D02*
X5598D01*
X8583D02*
X8678D01*
X9133D02*
X9469D01*
X9577D02*
X9611D01*
X12180D02*
X15100D01*
X2721Y4793D02*
X5550D01*
X8535D02*
X8630D01*
X9085D02*
X9420D01*
X12180D02*
X15100D01*
X2673Y4841D02*
X5502D01*
X8487D02*
X8582D01*
X9037D02*
X9372D01*
X12180D02*
X12336D01*
X12374D02*
X15100D01*
X2625Y4889D02*
X5454D01*
X8439D02*
X8534D01*
X8989D02*
X9324D01*
X10608D02*
X10610D01*
X12505D02*
X15100D01*
X2577Y4937D02*
X5406D01*
X8391D02*
X8486D01*
X8941D02*
X9276D01*
X10573D02*
X10610D01*
X12555D02*
X15100D01*
X2529Y4985D02*
X5358D01*
X8343D02*
X8438D01*
X8892D02*
X9228D01*
X10530D02*
X10610D01*
X12585D02*
X15100D01*
X2481Y5033D02*
X5310D01*
X8295D02*
X8390D01*
X8844D02*
X9180D01*
X10530D02*
X10610D01*
X12602D02*
X15100D01*
X2433Y5081D02*
X5262D01*
X8246D02*
X8342D01*
X8796D02*
X8908D01*
X10530D02*
X10610D01*
X12610D02*
X15100D01*
X2385Y5129D02*
X5214D01*
X8198D02*
X8294D01*
X8748D02*
X8845D01*
X10530D02*
X10610D01*
X12608D02*
X15100D01*
X2337Y5177D02*
X5166D01*
X8150D02*
X8246D01*
X8700D02*
X8797D01*
X10530D02*
X10610D01*
X12596D02*
X15100D01*
X2289Y5225D02*
X3692D01*
X3941D02*
X5118D01*
X8102D02*
X8198D01*
X8652D02*
X8670D01*
X10530D02*
X10610D01*
X12574D02*
X15100D01*
X2241Y5273D02*
X3617D01*
X4016D02*
X5070D01*
X8054D02*
X8150D01*
X8604D02*
X8618D01*
X10530D02*
X10610D01*
X12538D02*
X13905D01*
X14065D02*
X15100D01*
X2192Y5321D02*
X3572D01*
X4061D02*
X5022D01*
X8006D02*
X8102D01*
X8556D02*
X8587D01*
X10530D02*
X10610D01*
X12473D02*
X13819D01*
X14151D02*
X15100D01*
X2144Y5369D02*
X3543D01*
X4090D02*
X4974D01*
X7958D02*
X8054D01*
X8508D02*
X8569D01*
X10530D02*
X10610D01*
X12180D02*
X13016D01*
X14194D02*
X15100D01*
X2096Y5417D02*
X3524D01*
X4109D02*
X4926D01*
X7910D02*
X8006D01*
X8460D02*
X8561D01*
X10530D02*
X10610D01*
X12180D02*
X12936D01*
X14220D02*
X15100D01*
X2048Y5465D02*
X3514D01*
X4119D02*
X4878D01*
X7862D02*
X7958D01*
X8412D02*
X8562D01*
X10530D02*
X10610D01*
X12180D02*
X12888D01*
X14235D02*
X15109D01*
X2000Y5513D02*
X3512D01*
X4121D02*
X4829D01*
X7814D02*
X7909D01*
X8364D02*
X8572D01*
X10530D02*
X10610D01*
X12180D02*
X12839D01*
X14240D02*
X14413D01*
X14697D02*
X15138D01*
X1952Y5561D02*
X3517D01*
X4116D02*
X4781D01*
X7766D02*
X7861D01*
X8316D02*
X8593D01*
X10530D02*
X10610D01*
X12180D02*
X12791D01*
X14236D02*
X14360D01*
X14750D02*
X15186D01*
X1904Y5609D02*
X3530D01*
X4103D02*
X4733D01*
X7718D02*
X7813D01*
X8268D02*
X8629D01*
X10530D02*
X10610D01*
X12180D02*
X12743D01*
X14222D02*
X14328D01*
X14782D02*
X15234D01*
X1856Y5657D02*
X3553D01*
X4080D02*
X4685D01*
X7670D02*
X7765D01*
X8220D02*
X8690D01*
X10530D02*
X10610D01*
X12180D02*
X12695D01*
X14197D02*
X14309D01*
X14801D02*
X15282D01*
X1808Y5705D02*
X3588D01*
X4045D02*
X4637D01*
X7622D02*
X7717D01*
X8172D02*
X8833D01*
X10530D02*
X10610D01*
X12180D02*
X12647D01*
X13102D02*
X13815D01*
X14155D02*
X14301D01*
X14809D02*
X15330D01*
X1760Y5753D02*
X3641D01*
X3991D02*
X4589D01*
X7574D02*
X7669D01*
X8124D02*
X8785D01*
X10518D02*
X10610D01*
X12180D02*
X12599D01*
X13054D02*
X13333D01*
X13617D02*
X13894D01*
X14076D02*
X14302D01*
X14808D02*
X15378D01*
X1712Y5801D02*
X3751D01*
X3882D02*
X4541D01*
X7526D02*
X7621D01*
X8076D02*
X8737D01*
X10484D02*
X10610D01*
X12180D02*
X12551D01*
X13006D02*
X13279D01*
X13671D02*
X14312D01*
X14798D02*
X15426D01*
X1664Y5849D02*
X4493D01*
X7478D02*
X7573D01*
X8028D02*
X8689D01*
X10436D02*
X10610D01*
X12180D02*
X12503D01*
X12958D02*
X13248D01*
X13702D02*
X14332D01*
X14778D02*
X15474D01*
X1616Y5897D02*
X4445D01*
X7430D02*
X7525D01*
X7980D02*
X8641D01*
X10388D02*
X12455D01*
X12910D02*
X13229D01*
X13721D02*
X14367D01*
X14743D02*
X15197D01*
X15493D02*
X15522D01*
X15912D02*
X17390D01*
X1568Y5945D02*
X4397D01*
X7382D02*
X7477D01*
X7932D02*
X7960D01*
X8564D02*
X8593D01*
X10340D02*
X12407D01*
X12862D02*
X13221D01*
X13729D02*
X14427D01*
X14683D02*
X15146D01*
X15544D02*
X15570D01*
X15920D02*
X17390D01*
X1520Y5994D02*
X4349D01*
X7334D02*
X7429D01*
X7884D02*
X7911D01*
X10292D02*
X12359D01*
X12814D02*
X13222D01*
X13728D02*
X15116D01*
X15574D02*
X15618D01*
X15920D02*
X17390D01*
X1472Y6042D02*
X4301D01*
X7286D02*
X7381D01*
X7836D02*
X7863D01*
X10243D02*
X12311D01*
X12766D02*
X13232D01*
X13718D02*
X15098D01*
X15592D02*
X15630D01*
X15920D02*
X17390D01*
X1424Y6090D02*
X4253D01*
X7238D02*
X7333D01*
X7788D02*
X7815D01*
X10195D02*
X12263D01*
X12718D02*
X13252D01*
X13698D02*
X15090D01*
X15600D02*
X15630D01*
X15920D02*
X17390D01*
X1376Y6138D02*
X4205D01*
X7190D02*
X7285D01*
X7740D02*
X7767D01*
X10147D02*
X10982D01*
X12670D02*
X13287D01*
X13663D02*
X15092D01*
X15598D02*
X15630D01*
X15920D02*
X16087D01*
X16383D02*
X17357D01*
X1328Y6186D02*
X4157D01*
X7142D02*
X7237D01*
X7692D02*
X7719D01*
X10099D02*
X10897D01*
X12622D02*
X13347D01*
X13603D02*
X15103D01*
X15587D02*
X15630D01*
X15920D02*
X16036D01*
X16434D02*
X17309D01*
X1280Y6234D02*
X4109D01*
X7094D02*
X7189D01*
X7644D02*
X7671D01*
X10051D02*
X10849D01*
X12574D02*
X15125D01*
X15565D02*
X15630D01*
X15920D02*
X16006D01*
X16464D02*
X17261D01*
X1232Y6282D02*
X2473D01*
X2487D02*
X2999D01*
X3151D02*
X4061D01*
X7046D02*
X7141D01*
X7596D02*
X7623D01*
X10003D02*
X10801D01*
X12526D02*
X15161D01*
X15529D02*
X15630D01*
X15920D02*
X15988D01*
X16482D02*
X17213D01*
X1184Y6330D02*
X2425D01*
X2536D02*
X2911D01*
X3239D02*
X4013D01*
X6998D02*
X7093D01*
X7548D02*
X7575D01*
X9955D02*
X10753D01*
X12478D02*
X15215D01*
X15466D02*
X15630D01*
X15920D02*
X15980D01*
X16490D02*
X17165D01*
X1136Y6378D02*
X2377D01*
X2584D02*
X2867D01*
X3283D02*
X3965D01*
X6950D02*
X7045D01*
X7500D02*
X7527D01*
X9907D02*
X10705D01*
X12430D02*
X15152D01*
X15518D02*
X15630D01*
X15920D02*
X15982D01*
X16488D02*
X17117D01*
X1088Y6426D02*
X2329D01*
X2632D02*
X2840D01*
X3310D02*
X3917D01*
X6902D02*
X6997D01*
X7452D02*
X7479D01*
X9859D02*
X10657D01*
X12378D02*
X15115D01*
X15555D02*
X15630D01*
X15920D02*
X15993D01*
X16477D02*
X17069D01*
X1040Y6474D02*
X2280D01*
X2680D02*
X2825D01*
X3325D02*
X3869D01*
X6854D02*
X6949D01*
X7404D02*
X7431D01*
X9811D02*
X10609D01*
X11370D02*
X12472D01*
X12638D02*
X15093D01*
X15577D02*
X15630D01*
X15920D02*
X16015D01*
X16455D02*
X17021D01*
X992Y6522D02*
X2232D01*
X2728D02*
X2802D01*
X3330D02*
X3821D01*
X6806D02*
X6901D01*
X7355D02*
X7383D01*
X9763D02*
X10561D01*
X11398D02*
X12389D01*
X12721D02*
X13662D01*
X13908D02*
X15082D01*
X15588D02*
X15630D01*
X15920D02*
X16051D01*
X16419D02*
X16973D01*
X944Y6570D02*
X2184D01*
X3326D02*
X3773D01*
X6757D02*
X6853D01*
X7307D02*
X7335D01*
X9715D02*
X10513D01*
X11414D02*
X12345D01*
X12765D02*
X13600D01*
X13970D02*
X15080D01*
X15590D02*
X15630D01*
X15920D02*
X16115D01*
X16355D02*
X16925D01*
X896Y6618D02*
X2136D01*
X3312D02*
X3725D01*
X6709D02*
X6805D01*
X7259D02*
X7287D01*
X9667D02*
X10465D01*
X11420D02*
X12319D01*
X12791D02*
X13564D01*
X14006D02*
X15088D01*
X15582D02*
X15630D01*
X15920D02*
X16877D01*
X848Y6666D02*
X2088D01*
X3288D02*
X3677D01*
X6661D02*
X6757D01*
X7211D02*
X7239D01*
X9619D02*
X10417D01*
X10871D02*
X10913D01*
X11417D02*
X12305D01*
X12805D02*
X13543D01*
X14027D02*
X15105D01*
X15565D02*
X15630D01*
X15920D02*
X16829D01*
X800Y6714D02*
X2040D01*
X3246D02*
X3629D01*
X6613D02*
X6709D01*
X7163D02*
X7191D01*
X9571D02*
X10369D01*
X10823D02*
X10926D01*
X11404D02*
X12300D01*
X12810D02*
X13532D01*
X14038D02*
X15136D01*
X15534D02*
X15630D01*
X15920D02*
X16781D01*
X752Y6762D02*
X1992D01*
X3169D02*
X3581D01*
X6565D02*
X6661D01*
X7115D02*
X7143D01*
X9523D02*
X10321D01*
X10775D02*
X10950D01*
X11380D02*
X12304D01*
X12806D02*
X13531D01*
X14039D02*
X15186D01*
X15484D02*
X15630D01*
X15920D02*
X16733D01*
X704Y6810D02*
X1998D01*
X3066D02*
X3533D01*
X6517D02*
X6613D01*
X7067D02*
X7095D01*
X8973D02*
X10273D01*
X10727D02*
X10990D01*
X11340D02*
X12318D01*
X12792D02*
X13538D01*
X14032D02*
X15630D01*
X15920D02*
X16685D01*
X655Y6858D02*
X2046D01*
X3064D02*
X3485D01*
X6469D02*
X6565D01*
X7019D02*
X7047D01*
X8965D02*
X10225D01*
X10679D02*
X11062D01*
X11268D02*
X12344D01*
X12766D02*
X13556D01*
X14014D02*
X15630D01*
X15920D02*
X16637D01*
X607Y6906D02*
X2094D01*
X3112D02*
X3437D01*
X6421D02*
X6517D01*
X6971D02*
X6999D01*
X9044D02*
X10177D01*
X10631D02*
X12386D01*
X12724D02*
X13587D01*
X13983D02*
X15630D01*
X15920D02*
X16589D01*
X559Y6954D02*
X2142D01*
X3160D02*
X3389D01*
X6373D02*
X6469D01*
X6923D02*
X6951D01*
X9124D02*
X10129D01*
X10583D02*
X12466D01*
X12644D02*
X13639D01*
X13931D02*
X15601D01*
X15920D02*
X16541D01*
X511Y7002D02*
X2190D01*
X3208D02*
X3340D01*
X6325D02*
X6421D01*
X6875D02*
X6903D01*
X9166D02*
X10081D01*
X10535D02*
X15518D01*
X15920D02*
X16493D01*
X463Y7050D02*
X2238D01*
X3256D02*
X3292D01*
X6277D02*
X6372D01*
X6827D02*
X6855D01*
X9192D02*
X10023D01*
X10487D02*
X14018D01*
X15232D02*
X15475D01*
X15918D02*
X16445D01*
X415Y7098D02*
X1027D01*
X1623D02*
X2286D01*
X3240D02*
X3244D01*
X6229D02*
X6324D01*
X6779D02*
X6807D01*
X9206D02*
X9974D01*
X10439D02*
X13183D01*
X13866D02*
X14018D01*
X15232D02*
X15449D01*
X15921D02*
X16397D01*
X367Y7146D02*
X897D01*
X1753D02*
X2334D01*
X3192D02*
X3196D01*
X6181D02*
X6276D01*
X6731D02*
X6759D01*
X8637D02*
X8657D01*
X9210D02*
X9937D01*
X10406D02*
X13183D01*
X13866D02*
X14018D01*
X15232D02*
X15435D01*
X15935D02*
X16349D01*
X319Y7194D02*
X802D01*
X1848D02*
X2382D01*
X3144D02*
X3148D01*
X6133D02*
X6228D01*
X6683D02*
X6711D01*
X8589D02*
X8705D01*
X9205D02*
X9906D01*
X10423D02*
X13183D01*
X15232D02*
X15430D01*
X15940D02*
X16301D01*
X285Y7242D02*
X726D01*
X1924D02*
X2430D01*
X3096D02*
X3100D01*
X6085D02*
X6180D01*
X6635D02*
X6663D01*
X8633D02*
X8719D01*
X9191D02*
X9895D01*
X10430D02*
X13183D01*
X15232D02*
X15434D01*
X15936D02*
X16253D01*
X285Y7290D02*
X663D01*
X1987D02*
X2478D01*
X3048D02*
X3052D01*
X6037D02*
X6132D01*
X6587D02*
X6615D01*
X8682D02*
X8745D01*
X9165D02*
X9898D01*
X10428D02*
X13183D01*
X15232D02*
X15449D01*
X15921D02*
X16205D01*
X285Y7338D02*
X608D01*
X2042D02*
X2526D01*
X3000D02*
X3004D01*
X5989D02*
X6084D01*
X6539D02*
X6567D01*
X8731D02*
X8789D01*
X9121D02*
X9918D01*
X10416D02*
X13183D01*
X15232D02*
X15474D01*
X15896D02*
X16157D01*
X285Y7386D02*
X559D01*
X2091D02*
X2574D01*
X2952D02*
X2956D01*
X5941D02*
X6036D01*
X6491D02*
X6519D01*
X8780D02*
X8873D01*
X9037D02*
X9956D01*
X10394D02*
X10734D01*
X10996D02*
X13183D01*
X15232D02*
X15318D01*
X15432D02*
X15517D01*
X15853D02*
X16109D01*
X285Y7434D02*
X517D01*
X2133D02*
X2622D01*
X2904D02*
X2908D01*
X5893D02*
X5988D01*
X6443D02*
X6471D01*
X8830D02*
X9994D01*
X10356D02*
X10675D01*
X11055D02*
X13183D01*
X15532D02*
X15597D01*
X15773D02*
X16060D01*
X285Y7482D02*
X479D01*
X2171D02*
X2670D01*
X2856D02*
X2860D01*
X5845D02*
X5940D01*
X6395D02*
X6422D01*
X11089D02*
X13183D01*
X15579D02*
X16012D01*
X285Y7531D02*
X446D01*
X2204D02*
X2718D01*
X2808D02*
X2812D01*
X5797D02*
X5892D01*
X6347D02*
X6374D01*
X11109D02*
X13183D01*
X285Y7579D02*
X417D01*
X2233D02*
X2764D01*
X5749D02*
X5844D01*
X6299D02*
X6326D01*
X11119D02*
X13183D01*
X285Y7627D02*
X390D01*
X2260D02*
X2716D01*
X5701D02*
X5796D01*
X6251D02*
X6278D01*
X11119D02*
X13183D01*
X285Y7675D02*
X367D01*
X2283D02*
X2668D01*
X5653D02*
X5748D01*
X6203D02*
X6230D01*
X11110D02*
X13183D01*
X285Y7723D02*
X347D01*
X2303D02*
X2627D01*
X5605D02*
X5700D01*
X6155D02*
X6182D01*
X11091D02*
X13759D01*
X285Y7771D02*
X330D01*
X2320D02*
X2608D01*
X5557D02*
X5652D01*
X6107D02*
X6134D01*
X11059D02*
X13183D01*
X285Y7819D02*
X315D01*
X2335D02*
X2604D01*
X5509D02*
X5604D01*
X6059D02*
X6086D01*
X9439D02*
X10726D01*
X11004D02*
X12469D01*
X12601D02*
X13183D01*
X285Y7867D02*
X302D01*
X2348D02*
X2604D01*
X5461D02*
X5556D01*
X6011D02*
X6038D01*
X9475D02*
X12375D01*
X12695D02*
X13183D01*
X285Y7915D02*
X292D01*
X2358D02*
X2604D01*
X5413D02*
X5508D01*
X5963D02*
X5990D01*
X9497D02*
X12329D01*
X12741D02*
X13183D01*
X2365Y7963D02*
X2604D01*
X5365D02*
X5460D01*
X5915D02*
X5942D01*
X9508D02*
X12301D01*
X12769D02*
X13183D01*
X2371Y8011D02*
X2604D01*
X5317D02*
X5412D01*
X5866D02*
X5894D01*
X9509D02*
X12286D01*
X12784D02*
X13183D01*
X2374Y8059D02*
X2604D01*
X5269D02*
X5364D01*
X5818D02*
X5846D01*
X9502D02*
X9639D01*
X9831D02*
X12280D01*
X12790D02*
X13183D01*
X2375Y8107D02*
X2604D01*
X5220D02*
X5316D01*
X5770D02*
X5798D01*
X9484D02*
X9563D01*
X9907D02*
X12283D01*
X12787D02*
X13183D01*
X2374Y8155D02*
X2604D01*
X5172D02*
X5268D01*
X5722D02*
X5750D01*
X9454D02*
X9522D01*
X9948D02*
X12296D01*
X12774D02*
X13183D01*
X2370Y8203D02*
X2604D01*
X5124D02*
X5220D01*
X5674D02*
X5702D01*
X9416D02*
X9497D01*
X9973D02*
X12321D01*
X12749D02*
X13183D01*
X285Y8251D02*
X285D01*
X2365D02*
X2604D01*
X5076D02*
X5172D01*
X5626D02*
X5654D01*
X9416D02*
X9484D01*
X9986D02*
X12361D01*
X12709D02*
X13183D01*
X285Y8299D02*
X293D01*
X2357D02*
X2604D01*
X5028D02*
X5124D01*
X5578D02*
X5606D01*
X9416D02*
X9480D01*
X9990D02*
X12390D01*
X12680D02*
X13183D01*
X285Y8347D02*
X303D01*
X2347D02*
X2604D01*
X4980D02*
X5076D01*
X5530D02*
X5558D01*
X9416D02*
X9485D01*
X9985D02*
X12390D01*
X12680D02*
X13183D01*
X285Y8395D02*
X316D01*
X2334D02*
X2604D01*
X4932D02*
X5028D01*
X5482D02*
X5510D01*
X9416D02*
X9500D01*
X9970D02*
X12350D01*
X12680D02*
X13183D01*
X285Y8443D02*
X331D01*
X2319D02*
X2604D01*
X4884D02*
X4980D01*
X5434D02*
X5462D01*
X9416D02*
X9527D01*
X9943D02*
X11873D01*
X13217D02*
X13564D01*
X285Y8491D02*
X349D01*
X2301D02*
X2604D01*
X4836D02*
X4932D01*
X5386D02*
X5414D01*
X9416D02*
X9572D01*
X9898D02*
X11873D01*
X13217D02*
X13479D01*
X285Y8539D02*
X369D01*
X2281D02*
X2604D01*
X4788D02*
X4884D01*
X5338D02*
X5366D01*
X9416D02*
X9590D01*
X9880D02*
X11873D01*
X13217D02*
X13436D01*
X285Y8587D02*
X392D01*
X2258D02*
X2604D01*
X4740D02*
X4835D01*
X5290D02*
X5318D01*
X9416D02*
X9590D01*
X9880D02*
X11873D01*
X12568D02*
X12573D01*
X285Y8635D02*
X419D01*
X2231D02*
X2604D01*
X4692D02*
X4787D01*
X5242D02*
X5270D01*
X9416D02*
X9590D01*
X9880D02*
X11873D01*
X12520D02*
X12573D01*
X285Y8683D02*
X449D01*
X2201D02*
X2604D01*
X4644D02*
X4739D01*
X5194D02*
X5222D01*
X9416D02*
X9590D01*
X9880D02*
X11873D01*
X12517D02*
X12573D01*
X285Y8731D02*
X482D01*
X2168D02*
X2604D01*
X4596D02*
X4691D01*
X5146D02*
X5174D01*
X9416D02*
X9590D01*
X9880D02*
X11873D01*
X12517D02*
X12573D01*
X285Y8779D02*
X520D01*
X2130D02*
X2604D01*
X4548D02*
X4643D01*
X5098D02*
X5126D01*
X9416D02*
X9590D01*
X9880D02*
X11873D01*
X12517D02*
X12573D01*
X285Y8827D02*
X563D01*
X2087D02*
X2604D01*
X4500D02*
X4595D01*
X5050D02*
X5078D01*
X9416D02*
X9590D01*
X9880D02*
X11873D01*
X12517D02*
X12573D01*
X285Y8875D02*
X612D01*
X2038D02*
X2604D01*
X4452D02*
X4547D01*
X5002D02*
X5030D01*
X9416D02*
X9590D01*
X9880D02*
X11873D01*
X12517D02*
X12573D01*
X285Y8923D02*
X667D01*
X1983D02*
X2604D01*
X4404D02*
X4499D01*
X4954D02*
X4982D01*
X9416D02*
X9590D01*
X9880D02*
X11873D01*
X12517D02*
X12573D01*
X285Y8971D02*
X732D01*
X1918D02*
X2604D01*
X4356D02*
X4451D01*
X4906D02*
X4934D01*
X9416D02*
X9590D01*
X9880D02*
X11873D01*
X12517D02*
X12573D01*
X285Y9019D02*
X809D01*
X1841D02*
X2604D01*
X4308D02*
X4403D01*
X4858D02*
X4885D01*
X9416D02*
X9590D01*
X9880D02*
X11873D01*
X12517D02*
X12573D01*
X285Y9068D02*
X905D01*
X1745D02*
X2604D01*
X4260D02*
X4355D01*
X4810D02*
X4837D01*
X9416D02*
X9590D01*
X9880D02*
X11873D01*
X12517D02*
X12573D01*
X285Y9116D02*
X1040D01*
X1610D02*
X2604D01*
X4212D02*
X4307D01*
X4762D02*
X4789D01*
X9416D02*
X9590D01*
X9880D02*
X13150D01*
X14647D02*
X14693D01*
X285Y9164D02*
X2604D01*
X4164D02*
X4259D01*
X4714D02*
X4741D01*
X9416D02*
X9590D01*
X9880D02*
X13150D01*
X14647D02*
X14703D01*
X285Y9212D02*
X2604D01*
X4116D02*
X4211D01*
X4666D02*
X4693D01*
X9459D02*
X9590D01*
X9880D02*
X13150D01*
X14647D02*
X14703D01*
X285Y9260D02*
X2604D01*
X4068D02*
X4163D01*
X4618D02*
X4645D01*
X9487D02*
X9590D01*
X9880D02*
X13150D01*
X14647D02*
X14703D01*
X285Y9308D02*
X2604D01*
X4020D02*
X4115D01*
X4570D02*
X4597D01*
X9503D02*
X9590D01*
X9880D02*
X10259D01*
X10491D02*
X13150D01*
X14647D02*
X14703D01*
X285Y9356D02*
X2604D01*
X3972D02*
X4067D01*
X4522D02*
X4549D01*
X9510D02*
X9590D01*
X9880D02*
X10194D01*
X10556D02*
X13150D01*
X14647D02*
X14703D01*
X285Y9404D02*
X2604D01*
X3924D02*
X4019D01*
X4474D02*
X4501D01*
X9507D02*
X9590D01*
X9880D02*
X10156D01*
X10594D02*
X13150D01*
X14647D02*
X14703D01*
X285Y9452D02*
X2604D01*
X3876D02*
X3971D01*
X4426D02*
X4453D01*
X9495D02*
X9590D01*
X9880D02*
X10134D01*
X10616D02*
X11082D01*
X11288D02*
X13150D01*
X14647D02*
X14703D01*
X285Y9500D02*
X2604D01*
X3828D02*
X3923D01*
X4378D02*
X4405D01*
X9471D02*
X9584D01*
X9886D02*
X10122D01*
X10628D02*
X11010D01*
X11360D02*
X13150D01*
X14647D02*
X14703D01*
X285Y9548D02*
X2604D01*
X3779D02*
X3875D01*
X4329D02*
X4357D01*
X9433D02*
X9534D01*
X9936D02*
X10120D01*
X10630D02*
X10970D01*
X11400D02*
X13184D01*
X13606D02*
X14003D01*
X14647D02*
X14703D01*
X285Y9596D02*
X2604D01*
X3731D02*
X3827D01*
X4281D02*
X4309D01*
X9965D02*
X10127D01*
X10623D02*
X10946D01*
X11424D02*
X13184D01*
X13606D02*
X14003D01*
X14647D02*
X14703D01*
X285Y9644D02*
X2604D01*
X3683D02*
X3779D01*
X4233D02*
X4261D01*
X9983D02*
X10144D01*
X10606D02*
X10933D01*
X11437D02*
X13184D01*
X13606D02*
X14830D01*
X285Y9692D02*
X2604D01*
X3635D02*
X3731D01*
X4185D02*
X4213D01*
X9990D02*
X10174D01*
X10576D02*
X10930D01*
X11440D02*
X13184D01*
X13606D02*
X14830D01*
X285Y9740D02*
X2604D01*
X3587D02*
X3683D01*
X4137D02*
X4165D01*
X9988D02*
X10223D01*
X10527D02*
X10936D01*
X11434D02*
X13184D01*
X14242D02*
X14548D01*
X285Y9788D02*
X2604D01*
X3539D02*
X3635D01*
X4089D02*
X4117D01*
X9976D02*
X10343D01*
X10407D02*
X10411D01*
X10599D02*
X10952D01*
X11418D02*
X12751D01*
X12939D02*
X13184D01*
X14242D02*
X14548D01*
X285Y9836D02*
X2604D01*
X3491D02*
X3587D01*
X4041D02*
X4069D01*
X9954D02*
X10334D01*
X10676D02*
X10980D01*
X11390D02*
X11556D01*
X11734D02*
X12674D01*
X13016D02*
X13184D01*
X14242D02*
X14548D01*
X285Y9884D02*
X2604D01*
X3443D02*
X3542D01*
X3993D02*
X4021D01*
X10718D02*
X11026D01*
X11344D02*
X11476D01*
X11814D02*
X12632D01*
X13058D02*
X13184D01*
X14242D02*
X14548D01*
X285Y9932D02*
X2604D01*
X3396D02*
X3520D01*
X3945D02*
X3973D01*
X10742D02*
X11122D01*
X11248D02*
X11434D01*
X11856D02*
X12608D01*
X13082D02*
X13184D01*
X14242D02*
X14548D01*
X285Y9980D02*
X2604D01*
X3396D02*
X3514D01*
X3897D02*
X3931D01*
X10756D02*
X11408D01*
X11882D02*
X12594D01*
X13096D02*
X13186D01*
X14242D02*
X14548D01*
X285Y10028D02*
X2604D01*
X3396D02*
X3514D01*
X3849D02*
X3913D01*
X10760D02*
X11394D01*
X11896D02*
X12590D01*
X13100D02*
X13197D01*
X14242D02*
X14548D01*
X285Y10076D02*
X2604D01*
X3396D02*
X3514D01*
X3836D02*
X3910D01*
X10755D02*
X11390D01*
X11900D02*
X12595D01*
X13095D02*
X13223D01*
X14242D02*
X14548D01*
X285Y10124D02*
X2604D01*
X3396D02*
X3514D01*
X3836D02*
X3910D01*
X10740D02*
X11395D01*
X11895D02*
X12610D01*
X13080D02*
X13269D01*
X14242D02*
X14548D01*
X285Y10172D02*
X2604D01*
X3396D02*
X3514D01*
X3836D02*
X3910D01*
X10713D02*
X11409D01*
X11881D02*
X12637D01*
X13053D02*
X13520D01*
X14242D02*
X14548D01*
X285Y10220D02*
X2604D01*
X3396D02*
X3514D01*
X3836D02*
X3910D01*
X8828D02*
X10341D01*
X10669D02*
X11435D01*
X11855D02*
X12681D01*
X13009D02*
X14548D01*
X285Y10268D02*
X2604D01*
X3396D02*
X3514D01*
X3836D02*
X3910D01*
X8780D02*
X10429D01*
X10581D02*
X11479D01*
X11811D02*
X12769D01*
X12921D02*
X14548D01*
X285Y10316D02*
X2604D01*
X3396D02*
X3514D01*
X3836D02*
X3910D01*
X8733D02*
X11514D01*
X11776D02*
X14548D01*
X285Y10364D02*
X2604D01*
X3396D02*
X3514D01*
X3836D02*
X3923D01*
X8685D02*
X11456D01*
X11834D02*
X14548D01*
X285Y10412D02*
X2604D01*
X3396D02*
X3514D01*
X3836D02*
X3957D01*
X8637D02*
X11421D01*
X11869D02*
X13811D01*
X13951D02*
X14548D01*
X285Y10460D02*
X2604D01*
X3396D02*
X3514D01*
X3836D02*
X4005D01*
X8590D02*
X11401D01*
X11889D02*
X13520D01*
X14242D02*
X14548D01*
X285Y10508D02*
X2604D01*
X3396D02*
X3514D01*
X3836D02*
X4053D01*
X8542D02*
X11391D01*
X11899D02*
X13520D01*
X14242D02*
X14548D01*
X285Y10556D02*
X2604D01*
X3396D02*
X3514D01*
X3836D02*
X4101D01*
X8494D02*
X11391D01*
X11899D02*
X13520D01*
X14242D02*
X14548D01*
X285Y10605D02*
X2604D01*
X3396D02*
X3514D01*
X3836D02*
X4149D01*
X8447D02*
X11400D01*
X11890D02*
X13520D01*
X14242D02*
X14548D01*
X285Y10653D02*
X2604D01*
X3396D02*
X3514D01*
X3836D02*
X4198D01*
X8399D02*
X11419D01*
X11871D02*
X13520D01*
X14252D02*
X14548D01*
X285Y10701D02*
X2604D01*
X3396D02*
X3514D01*
X3836D02*
X4246D01*
X8352D02*
X11451D01*
X11839D02*
X13520D01*
X14300D02*
X14548D01*
X285Y10749D02*
X2604D01*
X3396D02*
X3514D01*
X3836D02*
X4294D01*
X8304D02*
X11506D01*
X11784D02*
X13520D01*
X14345D02*
X14548D01*
X285Y10797D02*
X2604D01*
X3396D02*
X3514D01*
X3836D02*
X4178D01*
X4188D02*
X4342D01*
X8256D02*
X12757D01*
X12873D02*
X13520D01*
X14376D02*
X14548D01*
X285Y10845D02*
X2604D01*
X3396D02*
X3514D01*
X3836D02*
X4130D01*
X4236D02*
X4390D01*
X8209D02*
X12657D01*
X12973D02*
X13520D01*
X14396D02*
X14548D01*
X285Y10893D02*
X2604D01*
X3396D02*
X3514D01*
X3840D02*
X4082D01*
X4284D02*
X4438D01*
X8161D02*
X12610D01*
X13020D02*
X13520D01*
X14407D02*
X14548D01*
X285Y10941D02*
X2604D01*
X3396D02*
X3514D01*
X3888D02*
X4034D01*
X4332D02*
X4486D01*
X8114D02*
X12582D01*
X13048D02*
X13520D01*
X14410D02*
X14548D01*
X285Y10989D02*
X2604D01*
X3396D02*
X3518D01*
X3936D02*
X3986D01*
X4380D02*
X4534D01*
X8066D02*
X12566D01*
X13064D02*
X13753D01*
X14410D02*
X14830D01*
X285Y11037D02*
X2604D01*
X3396D02*
X3537D01*
X4428D02*
X4582D01*
X8018D02*
X11896D01*
X12014D02*
X12560D01*
X13070D02*
X13801D01*
X14410D02*
X14830D01*
X285Y11085D02*
X2604D01*
X3396D02*
X3578D01*
X4476D02*
X4630D01*
X7971D02*
X11797D01*
X12113D02*
X12563D01*
X13067D02*
X13820D01*
X14410D02*
X14830D01*
X285Y11133D02*
X2604D01*
X3396D02*
X3626D01*
X4524D02*
X4678D01*
X5972D02*
X6013D01*
X7923D02*
X11750D01*
X12160D02*
X12576D01*
X13054D02*
X13093D01*
X13737D02*
X13793D01*
X285Y11181D02*
X2604D01*
X3396D02*
X3674D01*
X4572D02*
X4726D01*
X5924D02*
X6061D01*
X7875D02*
X11722D01*
X12188D02*
X12599D01*
X13031D02*
X13093D01*
X13737D02*
X13793D01*
X285Y11229D02*
X2604D01*
X3396D02*
X3722D01*
X4620D02*
X4770D01*
X5920D02*
X6109D01*
X7828D02*
X9448D01*
X9582D02*
X11706D01*
X12204D02*
X12638D01*
X12992D02*
X13093D01*
X13737D02*
X13793D01*
X285Y11277D02*
X2604D01*
X3396D02*
X3697D01*
X4668D02*
X4770D01*
X5945D02*
X6157D01*
X7780D02*
X9354D01*
X9676D02*
X11700D01*
X13737D02*
X13793D01*
X285Y11325D02*
X2604D01*
X3396D02*
X3649D01*
X4716D02*
X4770D01*
X5993D02*
X6205D01*
X7713D02*
X9309D01*
X9721D02*
X11703D01*
X13737D02*
X13793D01*
X285Y11373D02*
X2604D01*
X3396D02*
X3633D01*
X4733D02*
X4770D01*
X6041D02*
X6253D01*
X6798D02*
X9281D01*
X9749D02*
X11716D01*
X13737D02*
X13793D01*
X285Y11421D02*
X2604D01*
X3396D02*
X3681D01*
X4685D02*
X4770D01*
X6089D02*
X6301D01*
X6750D02*
X9266D01*
X9764D02*
X11739D01*
X13737D02*
X13793D01*
X285Y11469D02*
X2604D01*
X3396D02*
X3729D01*
X4637D02*
X4770D01*
X6137D02*
X6349D01*
X6702D02*
X9260D01*
X9770D02*
X11779D01*
X13737D02*
X13793D01*
X285Y11517D02*
X2604D01*
X3396D02*
X3457D01*
X3494D02*
X3777D01*
X4589D02*
X4770D01*
X6185D02*
X6397D01*
X6654D02*
X9264D01*
X9766D02*
X11849D01*
X13737D02*
X13793D01*
X285Y11565D02*
X2604D01*
X3396D02*
X3409D01*
X3542D02*
X3825D01*
X4541D02*
X4770D01*
X6233D02*
X6445D01*
X6606D02*
X9276D01*
X9754D02*
X11959D01*
X13737D02*
X13793D01*
X285Y11613D02*
X2604D01*
X3590D02*
X3873D01*
X4492D02*
X4770D01*
X6281D02*
X6494D01*
X6558D02*
X9301D01*
X9729D02*
X12026D01*
X13737D02*
X13793D01*
X285Y11661D02*
X2604D01*
X3638D02*
X3921D01*
X4444D02*
X4770D01*
X6329D02*
X9341D01*
X9689D02*
X13093D01*
X13737D02*
X13793D01*
X285Y11709D02*
X2604D01*
X3686D02*
X3969D01*
X4396D02*
X4770D01*
X6377D02*
X9414D01*
X9616D02*
X13093D01*
X13737D02*
X13793D01*
X285Y11757D02*
X2604D01*
X3734D02*
X4017D01*
X4348D02*
X4770D01*
X6414D02*
X7353D01*
X9925D02*
X13093D01*
X13737D02*
X13756D01*
X285Y11805D02*
X2604D01*
X3782D02*
X4065D01*
X4300D02*
X4770D01*
X6366D02*
X7305D01*
X9925D02*
X13707D01*
X285Y11853D02*
X2604D01*
X3830D02*
X4113D01*
X4252D02*
X4762D01*
X5280D02*
X5319D01*
X6318D02*
X7257D01*
X9925D02*
X13659D01*
X285Y11901D02*
X2604D01*
X3878D02*
X4161D01*
X4204D02*
X4714D01*
X5280D02*
X5367D01*
X6270D02*
X7209D01*
X9925D02*
X13611D01*
X285Y11949D02*
X2604D01*
X3926D02*
X4666D01*
X5280D02*
X5415D01*
X6222D02*
X7161D01*
X9925D02*
X13563D01*
X285Y11997D02*
X2604D01*
X3974D02*
X4617D01*
X5280D02*
X5464D01*
X6174D02*
X7113D01*
X9925D02*
X13515D01*
X285Y12045D02*
X2604D01*
X4022D02*
X4569D01*
X5299D02*
X5512D01*
X6126D02*
X7065D01*
X9925D02*
X13467D01*
X285Y12094D02*
X2604D01*
X2926D02*
X2939D01*
X4012D02*
X4521D01*
X5347D02*
X5560D01*
X6078D02*
X7016D01*
X9925D02*
X13419D01*
X285Y12142D02*
X2604D01*
X2926D02*
X2987D01*
X3964D02*
X4473D01*
X5395D02*
X5608D01*
X6029D02*
X6968D01*
X9925D02*
X13371D01*
X285Y12190D02*
X2604D01*
X2926D02*
X3035D01*
X3916D02*
X4425D01*
X5444D02*
X5656D01*
X5981D02*
X6920D01*
X285Y12238D02*
X2604D01*
X2926D02*
X3083D01*
X3868D02*
X4377D01*
X5492D02*
X5704D01*
X5933D02*
X6872D01*
X285Y12286D02*
X2604D01*
X2926D02*
X3131D01*
X3820D02*
X4329D01*
X5540D02*
X5752D01*
X5885D02*
X6824D01*
X285Y12334D02*
X2604D01*
X2926D02*
X3179D01*
X3772D02*
X4281D01*
X5588D02*
X5800D01*
X5837D02*
X6776D01*
X285Y12382D02*
X2593D01*
X2944D02*
X3227D01*
X3724D02*
X4233D01*
X5636D02*
X6728D01*
X285Y12430D02*
X2545D01*
X2992D02*
X3275D01*
X3676D02*
X4185D01*
X5684D02*
X6680D01*
X285Y12478D02*
X2497D01*
X3041D02*
X3323D01*
X3628D02*
X4137D01*
X5693D02*
X6632D01*
X285Y12526D02*
X2449D01*
X3089D02*
X3371D01*
X3580D02*
X4089D01*
X4499D02*
X4578D01*
X5645D02*
X6584D01*
X285Y12574D02*
X2401D01*
X3137D02*
X3419D01*
X3532D02*
X4041D01*
X4451D02*
X4626D01*
X5597D02*
X6536D01*
X285Y12622D02*
X2352D01*
X3185D02*
X3468D01*
X3484D02*
X3993D01*
X4462D02*
X4674D01*
X5549D02*
X6488D01*
X285Y12670D02*
X2304D01*
X3233D02*
X3946D01*
X4510D02*
X4722D01*
X5501D02*
X6440D01*
X285Y12718D02*
X2256D01*
X3281D02*
X3918D01*
X4558D02*
X4770D01*
X5453D02*
X6392D01*
X285Y12766D02*
X2208D01*
X3329D02*
X3910D01*
X4606D02*
X4818D01*
X5405D02*
X6344D01*
X285Y12814D02*
X2245D01*
X3292D02*
X3919D01*
X4654D02*
X4866D01*
X5357D02*
X6296D01*
X285Y12862D02*
X2293D01*
X3244D02*
X3947D01*
X4702D02*
X4914D01*
X5309D02*
X6248D01*
X285Y12910D02*
X2341D01*
X3196D02*
X3995D01*
X4750D02*
X4962D01*
X5261D02*
X6200D01*
X285Y12958D02*
X2016D01*
X2107D02*
X2389D01*
X3148D02*
X4011D01*
X4798D02*
X5010D01*
X5213D02*
X6152D01*
X285Y13006D02*
X1968D01*
X2155D02*
X2438D01*
X3100D02*
X3963D01*
X4846D02*
X5058D01*
X5165D02*
X6104D01*
X285Y13054D02*
X1920D01*
X2203D02*
X2486D01*
X3052D02*
X3915D01*
X4894D02*
X5106D01*
X5117D02*
X6056D01*
X285Y13102D02*
X1872D01*
X2251D02*
X2534D01*
X3004D02*
X3867D01*
X4942D02*
X6008D01*
X285Y13150D02*
X1824D01*
X2299D02*
X2582D01*
X2955D02*
X3819D01*
X4990D02*
X5960D01*
X285Y13198D02*
X1776D01*
X2347D02*
X2630D01*
X2907D02*
X3836D01*
X4973D02*
X5912D01*
X285Y13246D02*
X1728D01*
X2395D02*
X2678D01*
X2859D02*
X3884D01*
X4925D02*
X5864D01*
X285Y13294D02*
X1680D01*
X2443D02*
X2726D01*
X2811D02*
X3675D01*
X3720D02*
X3932D01*
X4877D02*
X5816D01*
X285Y13342D02*
X1632D01*
X2491D02*
X3627D01*
X3768D02*
X3980D01*
X4829D02*
X5785D01*
X285Y13390D02*
X1584D01*
X2539D02*
X3579D01*
X3816D02*
X4028D01*
X4781D02*
X5785D01*
X285Y13438D02*
X1536D01*
X3388D02*
X3531D01*
X3864D02*
X4076D01*
X4733D02*
X5785D01*
X285Y13486D02*
X1504D01*
X3472D02*
X3483D01*
X3912D02*
X4124D01*
X4685D02*
X5785D01*
X285Y13534D02*
X1552D01*
X3960D02*
X4172D01*
X4637D02*
X5785D01*
X285Y13582D02*
X1600D01*
X4008D02*
X4220D01*
X4589D02*
X5785D01*
X285Y13631D02*
X1648D01*
X4056D02*
X4268D01*
X4541D02*
X5785D01*
X285Y13679D02*
X1696D01*
X4104D02*
X4316D01*
X4492D02*
X5785D01*
X285Y13727D02*
X1744D01*
X4152D02*
X4364D01*
X4444D02*
X5785D01*
X285Y13775D02*
X1792D01*
X4200D02*
X5785D01*
X285Y13823D02*
X1840D01*
X4248D02*
X5785D01*
X285Y13871D02*
X1888D01*
X4296D02*
X5785D01*
X285Y13919D02*
X1936D01*
X4252D02*
X5785D01*
X285Y13967D02*
X1984D01*
X2139D02*
X3190D01*
X4204D02*
X5785D01*
X285Y14015D02*
X2032D01*
X2091D02*
X2954D01*
X3026D02*
X3238D01*
X4156D02*
X5785D01*
X285Y14063D02*
X2906D01*
X3074D02*
X3286D01*
X4108D02*
X5785D01*
X285Y14111D02*
X2858D01*
X3122D02*
X3334D01*
X4060D02*
X5785D01*
X285Y14159D02*
X2810D01*
X3170D02*
X3382D01*
X4012D02*
X5785D01*
X285Y14207D02*
X2762D01*
X3218D02*
X3430D01*
X3964D02*
X5785D01*
X285Y14255D02*
X2714D01*
X3266D02*
X3478D01*
X3916D02*
X5785D01*
X285Y14303D02*
X2666D01*
X3314D02*
X3526D01*
X3868D02*
X5785D01*
X285Y14351D02*
X2618D01*
X3362D02*
X3574D01*
X3820D02*
X5785D01*
X285Y14399D02*
X2570D01*
X3410D02*
X3622D01*
X3772D02*
X5785D01*
X285Y14447D02*
X2522D01*
X3458D02*
X3671D01*
X3724D02*
X5785D01*
X285Y14495D02*
X2474D01*
X3506D02*
X5785D01*
X285Y14543D02*
X2426D01*
X3554D02*
X5785D01*
X285Y14591D02*
X2400D01*
X3580D02*
X5785D01*
X285Y14639D02*
X2448D01*
X3532D02*
X5785D01*
X285Y14687D02*
X2496D01*
X3484D02*
X5785D01*
X285Y14735D02*
X2544D01*
X3436D02*
X5785D01*
X285Y14783D02*
X2592D01*
X3388D02*
X5785D01*
X285Y14831D02*
X2641D01*
X3340D02*
X5785D01*
X285Y14879D02*
X2689D01*
X3292D02*
X5785D01*
X285Y14927D02*
X2737D01*
X3244D02*
X5785D01*
X285Y14975D02*
X2785D01*
X3196D02*
X5785D01*
X285Y15023D02*
X2833D01*
X3148D02*
X5785D01*
X285Y15071D02*
X1140D01*
X1510D02*
X2881D01*
X3100D02*
X5785D01*
X285Y15119D02*
X963D01*
X1687D02*
X2929D01*
X3052D02*
X5785D01*
X285Y15168D02*
X852D01*
X1798D02*
X2977D01*
X3004D02*
X5785D01*
X285Y15216D02*
X767D01*
X1883D02*
X5785D01*
X285Y15264D02*
X697D01*
X1953D02*
X5785D01*
X285Y15312D02*
X637D01*
X2013D02*
X5785D01*
X285Y15360D02*
X585D01*
X2065D02*
X5785D01*
X285Y15408D02*
X540D01*
X2110D02*
X5785D01*
X285Y15456D02*
X500D01*
X2150D02*
X5785D01*
X285Y15504D02*
X464D01*
X2186D02*
X5785D01*
X285Y15552D02*
X433D01*
X2217D02*
X5785D01*
X285Y15600D02*
X405D01*
X2245D02*
X5785D01*
X285Y15648D02*
X380D01*
X2270D02*
X5785D01*
X285Y15696D02*
X358D01*
X2292D02*
X5785D01*
X285Y15744D02*
X339D01*
X2311D02*
X5785D01*
X285Y15792D02*
X323D01*
X2327D02*
X5785D01*
X285Y15840D02*
X309D01*
X2341D02*
X5785D01*
X285Y15888D02*
X298D01*
X2352D02*
X5785D01*
X285Y15936D02*
X289D01*
X2361D02*
X5785D01*
X2368Y15984D02*
X5785D01*
X2372Y16032D02*
X4117D01*
X4273D02*
X5785D01*
X2375Y16080D02*
X4031D01*
X4359D02*
X5785D01*
X2375Y16128D02*
X3987D01*
X4403D02*
X5742D01*
X2373Y16176D02*
X3960D01*
X4430D02*
X5694D01*
X2368Y16224D02*
X3945D01*
X4445D02*
X5646D01*
X285Y16272D02*
X288D01*
X2362D02*
X3940D01*
X4450D02*
X5598D01*
X285Y16320D02*
X297D01*
X2353D02*
X3944D01*
X4446D02*
X5550D01*
X285Y16368D02*
X309D01*
X2341D02*
X3958D01*
X4432D02*
X5502D01*
X285Y16416D02*
X322D01*
X2328D02*
X3983D01*
X4407D02*
X5454D01*
X285Y16464D02*
X338D01*
X2312D02*
X4024D01*
X4366D02*
X5406D01*
X285Y16512D02*
X357D01*
X2293D02*
X4102D01*
X4288D02*
X5358D01*
X285Y16560D02*
X379D01*
X2271D02*
X5310D01*
X285Y16608D02*
X404D01*
X2246D02*
X5262D01*
X285Y16656D02*
X431D01*
X2219D02*
X5214D01*
X285Y16705D02*
X463D01*
X2187D02*
X5165D01*
X285Y16753D02*
X498D01*
X2152D02*
X5117D01*
X285Y16801D02*
X538D01*
X2112D02*
X5069D01*
X285Y16849D02*
X584D01*
X2066D02*
X5021D01*
X285Y16897D02*
X635D01*
X2015D02*
X4973D01*
X285Y16945D02*
X695D01*
X1955D02*
X4925D01*
X285Y16993D02*
X764D01*
X1886D02*
X4877D01*
X314Y17041D02*
X849D01*
X1801D02*
X4829D01*
X362Y17089D02*
X958D01*
X1692D02*
X4781D01*
X410Y17137D02*
X1130D01*
X1520D02*
X4733D01*
X458Y17185D02*
X4685D01*
X506Y17233D02*
X4637D01*
X554Y17281D02*
X4589D01*
X602Y17329D02*
X4541D01*
X651Y17377D02*
X4493D01*
X699Y17425D02*
X4445D01*
X747Y17473D02*
X4397D01*
X795Y17521D02*
X4349D01*
X843Y17569D02*
X4301D01*
X891Y17617D02*
X4253D01*
X939Y17665D02*
X4205D01*
X987Y17713D02*
X4157D01*
X1035Y17761D02*
X4109D01*
X1083Y17809D02*
X4061D01*
X1131Y17857D02*
X4013D01*
X1179Y17905D02*
X3965D01*
X1227Y17953D02*
X3917D01*
X1275Y18001D02*
X3869D01*
X1323Y18049D02*
X3821D01*
X1371Y18097D02*
X3773D01*
X1419Y18145D02*
X3725D01*
X1467Y18194D02*
X3676D01*
X1515Y18242D02*
X3628D01*
X1563Y18290D02*
X3580D01*
X1611Y18338D02*
X3532D01*
X1659Y18386D02*
X3484D01*
X1707Y18434D02*
X3436D01*
X1755Y18482D02*
X3388D01*
X1803Y18530D02*
X3340D01*
X1851Y18578D02*
X3292D01*
X1899Y18626D02*
X3244D01*
X1947Y18674D02*
X3196D01*
X1995Y18722D02*
X3148D01*
X2043Y18770D02*
X3100D01*
X2091Y18818D02*
X3052D01*
X2139Y18866D02*
X3004D01*
X2188Y18914D02*
X2956D01*
X2236Y18962D02*
X2908D01*
X2284Y19010D02*
X2860D01*
X2332Y19058D02*
X2812D01*
X2380Y19106D02*
X2764D01*
X2428Y19154D02*
X2716D01*
X2476Y19202D02*
X2668D01*
X2524Y19250D02*
X2620D01*
X2672Y19398D02*
X5935Y16135D01*
Y13345*
X7405Y11875*
X9805*
Y12145*
X9806Y12162*
X9809Y12178*
X9815Y12194*
Y12335*
X13178*
X12786Y12726*
X12766Y12749*
X12749Y12773*
X12734Y12798*
X12721Y12826*
X12711Y12854*
X12705Y12883*
X12701Y12913*
X12700Y12942*
X12702Y12972*
X12708Y13002*
X12716Y13030*
X12727Y13058*
X12741Y13085*
X12757Y13110*
X12776Y13133*
X12797Y13154*
X12820Y13173*
X12845Y13189*
X12872Y13203*
X12900Y13214*
X12928Y13222*
X12958Y13228*
X12988Y13230*
X13017Y13229*
X13047Y13225*
X13076Y13219*
X13104Y13209*
X13132Y13196*
X13157Y13181*
X13181Y13164*
X13204Y13144*
X14012Y12335*
X16108*
X15986Y12456*
X15966Y12479*
X15949Y12503*
X15934Y12528*
X15921Y12556*
X15911Y12584*
X15905Y12613*
X15901Y12643*
X15900Y12672*
X15902Y12702*
X15908Y12732*
X15916Y12760*
X15927Y12788*
X15941Y12815*
X15957Y12840*
X15976Y12863*
X15997Y12884*
X16020Y12903*
X16045Y12919*
X16072Y12933*
X16100Y12944*
X16128Y12952*
X16158Y12958*
X16188Y12960*
X16217Y12959*
X16247Y12955*
X16276Y12949*
X16304Y12939*
X16332Y12926*
X16357Y12911*
X16381Y12894*
X16404Y12874*
X16704Y12574*
X16855Y12725*
Y16125*
X16855Y16134*
Y16235*
X20793Y20173*
X17021Y23945*
X7219*
X2672Y19398*
X6240Y20320D02*
X5780D01*
Y21170*
X6630*
Y20320*
X6510*
Y19941*
X6911Y19540*
X6917*
X6768Y19688*
X6755Y19703*
X6744Y19720*
X6736Y19737*
X6729Y19756*
X6726Y19775*
X6724Y19795*
Y20185*
X6725Y20204*
X6729Y20223*
X6735Y20242*
X6744Y20259*
X6754Y20275*
X6767Y20290*
X6796Y20320*
X6780*
Y21170*
X7549*
X7399Y21320*
X6780*
Y22170*
X7630*
Y21471*
X7780Y21321*
Y22170*
X8630*
Y21551*
X8750Y21430*
X8762Y21417*
X8772Y21402*
X8780Y21386*
Y22170*
X9630*
Y21491*
X9780Y21341*
Y22170*
X10630*
Y21411*
X10750Y21290*
X10762Y21277*
X10772Y21263*
X10780Y21247*
X10785Y21230*
X10789Y21213*
X10790Y21195*
Y21170*
X11580*
Y21179*
X11439Y21320*
X10780*
Y22170*
X11630*
Y21511*
X11780Y21361*
Y22170*
X12630*
Y21511*
X12780Y21361*
Y22170*
X13630*
Y21511*
X13780Y21361*
Y22170*
X14630*
Y21511*
X14770Y21370*
X14780Y21360*
Y22170*
X15630*
Y21511*
X15780Y21361*
Y22170*
X16630*
Y21320*
X16340*
Y21170*
X16630*
Y20511*
X16780Y20361*
Y21170*
X17630*
Y20320*
X16813*
X16821Y20305*
X16826Y20289*
X16829Y20272*
X16830Y20255*
Y19801*
X16900Y19731*
Y20240*
X17610*
Y19310*
X16900*
Y19391*
X16882Y19394*
X16865Y19400*
X16848Y19408*
X16833Y19418*
X16820Y19430*
X16600Y19650*
X16588Y19663*
X16578Y19677*
X16570Y19693*
X16565Y19710*
X16561Y19727*
X16560Y19745*
Y20199*
X16439Y20320*
X15850*
Y20232*
X16450*
Y19290*
X15740*
Y19689*
X15620Y19810*
X15608Y19823*
X15598Y19838*
X15590Y19854*
Y19290*
X14880*
Y19370*
X14875*
X14857Y19371*
X14840Y19375*
X14823Y19380*
X14807Y19388*
X14793Y19398*
X14780Y19410*
X14580Y19610*
X14568Y19623*
X14558Y19637*
X14550Y19653*
X14545Y19670*
X14541Y19687*
X14540Y19705*
Y20320*
X14230*
Y20212*
X14450*
Y19270*
X13740*
Y19631*
X13732Y19638*
X13724Y19645*
X13620Y19750*
X13608Y19763*
X13598Y19778*
X13590Y19794*
Y19270*
X12880*
Y19350*
X12855*
X12837Y19351*
X12820Y19355*
X12803Y19360*
X12787Y19368*
X12773Y19378*
X12760Y19390*
X12600Y19550*
X12588Y19563*
X12578Y19577*
X12570Y19593*
X12565Y19610*
X12561Y19627*
X12560Y19645*
Y20320*
X12250*
Y20192*
X12470*
Y19250*
X11760*
Y19629*
X11620Y19770*
X11610Y19780*
Y19250*
X10900*
Y19330*
X10835*
X10817Y19331*
X10800Y19335*
X10783Y19340*
X10767Y19348*
X10753Y19358*
X10740Y19370*
X10560Y19550*
X10548Y19563*
X10538Y19577*
X10530Y19593*
X10525Y19610*
X10521Y19627*
X10520Y19645*
Y20320*
X10230*
Y20152*
X10450*
Y19210*
X9740*
Y19589*
X9600Y19730*
X9590Y19740*
Y19210*
X8880*
Y19290*
X8875*
X8857Y19291*
X8840Y19295*
X8823Y19300*
X8807Y19308*
X8793Y19318*
X8780Y19330*
X8560Y19550*
X8548Y19563*
X8538Y19577*
X8530Y19593*
X8525Y19610*
X8521Y19627*
X8520Y19645*
Y20320*
X8290*
Y20132*
X8510*
Y19190*
X7800*
Y19538*
X7785Y19545*
X7772Y19555*
X7760Y19565*
X7650Y19675*
Y19190*
X6940*
Y19270*
X6855*
X6837Y19271*
X6820Y19275*
X6803Y19280*
X6787Y19288*
X6773Y19298*
X6760Y19310*
X6280Y19790*
X6268Y19803*
X6258Y19817*
X6250Y19833*
X6245Y19850*
X6241Y19867*
X6240Y19885*
Y20320*
X6630Y22170D02*
Y21320D01*
X5780*
Y22170*
X6630*
X7305Y17221D02*
X7281Y17232D01*
X7258Y17247*
X7236Y17264*
X7217Y17283*
X7200Y17303*
X7185Y17326*
X7173Y17350*
X7163Y17375*
X7156Y17401*
X7151Y17428*
X7150Y17455*
X7151Y17482*
X7156Y17509*
X7163Y17535*
X7173Y17560*
X7185Y17584*
X7200Y17607*
X7218Y17628*
X7237Y17647*
X7259Y17664*
X7282Y17678*
X7306Y17690*
X7332Y17699*
X7358Y17706*
X7385Y17709*
X7412Y17710*
X7439Y17708*
X7466Y17703*
X7492Y17695*
X7517Y17684*
X7541Y17671*
X7544Y17699*
X7550Y17726*
X7559Y17752*
X7571Y17778*
X7586Y17801*
X7603Y17823*
X7623Y17843*
X7645Y17861*
X7668Y17876*
X7693Y17889*
X7719Y17898*
X7746Y17905*
X7774Y17909*
X7802Y17910*
X7830Y17908*
X7857Y17902*
X7884Y17894*
X7909Y17883*
X7934Y17869*
X7956Y17853*
X7977Y17834*
X7995Y17813*
X8011Y17790*
X8025Y17765*
X8036Y17740*
X8043Y17713*
X8048Y17685*
X8050Y17657*
X8072Y17672*
X8094Y17685*
X8119Y17695*
X8144Y17703*
X8169Y17708*
X8195Y17710*
X8221Y17710*
X8247Y17707*
X8273Y17701*
X8298Y17693*
X8321Y17682*
X8326Y17709*
X8333Y17736*
X8343Y17762*
X8356Y17786*
X8372Y17809*
X8389Y17830*
X8410Y17849*
X8431Y17866*
X8455Y17880*
X8480Y17892*
X8506Y17901*
X8533Y17907*
X8561Y17910*
X8589Y17910*
X8616Y17907*
X8643Y17901*
X8669Y17892*
X8694Y17880*
X8718Y17866*
X8740Y17849*
X8760Y17830*
X8778Y17809*
X8794Y17787*
X8806Y17762*
X8817Y17736*
X8824Y17710*
X8829Y17683*
X8830Y17655*
X8829Y17629*
X8825Y17604*
X8818Y17579*
X8809Y17554*
X8798Y17531*
X8784Y17509*
X8769Y17489*
X8751Y17470*
X8731Y17453*
X8710Y17439*
Y17315*
X8709Y17297*
X8705Y17280*
X8700Y17263*
X8692Y17247*
X8682Y17233*
X8670Y17220*
X8430Y16979*
Y15982*
X7489*
Y16867*
X7349Y17008*
X7336Y17023*
X7325Y17039*
X7316Y17057*
X7310Y17075*
X7306Y17095*
X7305Y17114*
Y17221*
X7330Y13805D02*
X7329Y13777D01*
X7324Y13750*
X7317Y13724*
X7306Y13698*
X7294Y13674*
X7278Y13651*
X7260Y13630*
X7240Y13611*
X7218Y13594*
X7194Y13580*
X7169Y13568*
X7143Y13559*
X7116Y13553*
X7089Y13550*
X7061*
X7034Y13553*
X7007Y13559*
X6981Y13568*
X6956Y13580*
X6932Y13594*
X6910Y13611*
X6890Y13630*
X6872Y13651*
X6857Y13673*
X6844Y13698*
X6833Y13723*
X6826Y13750*
X6822Y13777*
X6820Y13805*
X6821Y13833*
X6826Y13860*
X6833Y13886*
X6844Y13912*
X6856Y13936*
X6872Y13959*
X6890Y13980*
X6910Y13999*
X6932Y14016*
X6956Y14030*
X6981Y14042*
X7007Y14051*
X7034Y14057*
X7061Y14060*
X7089*
X7116Y14057*
X7143Y14051*
X7169Y14042*
X7194Y14030*
X7218Y14016*
X7240Y13999*
X7260Y13980*
X7278Y13959*
X7293Y13937*
X7306Y13912*
X7317Y13887*
X7324Y13860*
X7328Y13833*
X7330Y13805*
X9170Y17227D02*
X9146Y17241D01*
X9123Y17258*
X9102Y17277*
X9084Y17298*
X9068Y17321*
X9054Y17346*
X9044Y17372*
X9036Y17399*
X9032Y17427*
X9030Y17455*
X9032Y17483*
X9036Y17511*
X9044Y17538*
X9055Y17564*
X9068Y17589*
X9084Y17612*
X9103Y17634*
X9124Y17653*
X9147Y17669*
X9171Y17683*
X9197Y17694*
X9224Y17703*
X9252Y17708*
X9280Y17710*
X9309Y17709*
X9337Y17705*
X9364Y17697*
X9390Y17687*
X9415Y17674*
X9439Y17658*
X9460Y17640*
X9460Y17655*
X9461Y17683*
X9466Y17710*
X9473Y17736*
X9484Y17762*
X9496Y17786*
X9512Y17809*
X9530Y17830*
X9550Y17849*
X9572Y17866*
X9596Y17880*
X9621Y17892*
X9647Y17901*
X9674Y17907*
X9701Y17910*
X9729*
X9756Y17907*
X9783Y17901*
X9809Y17892*
X9834Y17880*
X9858Y17866*
X9880Y17849*
X9900Y17830*
X9918Y17809*
X9933Y17787*
X9946Y17762*
X9957Y17737*
X9964Y17710*
X9968Y17683*
X9970Y17655*
X9969Y17629*
X9965Y17603*
X9958Y17577*
X9949Y17553*
X9937Y17529*
X9923Y17507*
X9906Y17486*
X9888Y17468*
X9868Y17451*
X9846Y17436*
Y17327*
X10000Y17170*
X10124Y17297*
Y17457*
X10103Y17476*
X10085Y17497*
X10068Y17521*
X10055Y17545*
X10044Y17572*
X10036Y17599*
X10032Y17627*
X10030Y17655*
X10031Y17683*
X10036Y17710*
X10043Y17736*
X10054Y17762*
X10066Y17786*
X10082Y17809*
X10100Y17830*
X10120Y17849*
X10142Y17866*
X10166Y17880*
X10191Y17892*
X10217Y17901*
X10244Y17907*
X10271Y17910*
X10299*
X10326Y17907*
X10353Y17901*
X10379Y17892*
X10404Y17880*
X10428Y17866*
X10450Y17849*
X10470Y17830*
X10488Y17809*
X10503Y17787*
X10516Y17762*
X10527Y17737*
X10534Y17710*
X10538Y17683*
X10540Y17655*
X10538Y17627*
X10534Y17600*
X10526Y17573*
X10516Y17547*
X10503Y17522*
X10487Y17499*
X10469Y17478*
X10448Y17459*
X10426Y17442*
Y17267*
X10660Y17501*
X10644Y17521*
X10631Y17543*
X10620Y17566*
X10611Y17590*
X10605Y17614*
X10601Y17640*
X10600Y17665*
X10601Y17693*
X10606Y17720*
X10613Y17746*
X10624Y17772*
X10636Y17796*
X10652Y17819*
X10670Y17840*
X10690Y17859*
X10712Y17876*
X10736Y17890*
X10761Y17902*
X10787Y17911*
X10814Y17917*
X10841Y17920*
X10869*
X10896Y17917*
X10923Y17911*
X10949Y17902*
X10974Y17890*
X10998Y17876*
X11020Y17859*
X11040Y17840*
X11058Y17819*
X11073Y17797*
X11086Y17772*
X11097Y17747*
X11104Y17720*
X11108Y17693*
X11110Y17665*
X11109Y17639*
X11105Y17613*
X11123Y17633*
X11143Y17652*
X11165Y17668*
X11189Y17682*
X11214Y17693*
X11240Y17702*
X11267Y17707*
X11295Y17710*
X11322Y17709*
X11350Y17706*
X11376Y17700*
X11403Y17691*
X11408Y17718*
X11416Y17745*
X11428Y17771*
X11442Y17795*
X11458Y17817*
X11477Y17838*
X11499Y17856*
X11522Y17872*
X11546Y17886*
X11572Y17896*
X11599Y17904*
X11627Y17908*
X11655Y17910*
X11683Y17908*
X11711Y17904*
X11738Y17896*
X11764Y17886*
X11788Y17872*
X11811Y17856*
X11833Y17838*
X11852Y17817*
X11868Y17795*
X11882Y17771*
X11894Y17745*
X11902Y17718*
X11907Y17691*
X11931Y17699*
X11955Y17705*
X11980Y17709*
X12005Y17710*
X12030Y17709*
X12055Y17705*
X12079Y17699*
X12103Y17691*
X12108Y17718*
X12116Y17744*
X12127Y17769*
X12141Y17793*
X12157Y17816*
X12176Y17836*
X12196Y17855*
X12219Y17871*
X12243Y17884*
X12268Y17895*
X12295Y17903*
X12322Y17908*
X12350Y17910*
X12377Y17909*
X12405Y17905*
X12431Y17898*
X12457Y17889*
X12482Y17876*
X12505Y17861*
X12527Y17844*
X12546Y17824*
X12563Y17802*
X12578Y17779*
X12590Y17754*
X12602Y17779*
X12617Y17803*
X12635Y17825*
X12654Y17844*
X12676Y17862*
X12700Y17877*
X12725Y17889*
X12751Y17899*
X12778Y17906*
X12806Y17909*
X12834Y17910*
X12862Y17907*
X12889Y17902*
X12916Y17893*
X12941Y17882*
X12965Y17868*
X12988Y17851*
X13008Y17832*
X13027Y17811*
X13043Y17788*
X13056Y17763*
X13066Y17737*
X13074Y17711*
X13078Y17683*
X13080Y17655*
X13079Y17628*
X13074Y17601*
X13067Y17574*
X13057Y17549*
X13044Y17524*
X13029Y17502*
X13011Y17481*
X12991Y17462*
X13291Y17162*
Y17406*
X13265Y17413*
X13240Y17423*
X13217Y17435*
X13194Y17449*
X13174Y17466*
X13155Y17485*
X13138Y17506*
X13124Y17528*
X13112Y17552*
X13102Y17576*
X13096Y17602*
X13091Y17628*
X13090Y17655*
X13091Y17683*
X13096Y17710*
X13103Y17736*
X13114Y17762*
X13126Y17786*
X13142Y17809*
X13160Y17830*
X13180Y17849*
X13202Y17866*
X13226Y17880*
X13251Y17892*
X13277Y17901*
X13304Y17907*
X13331Y17910*
X13359*
X13386Y17907*
X13413Y17901*
X13439Y17892*
X13464Y17880*
X13488Y17866*
X13510Y17849*
X13530Y17830*
X13548Y17809*
X13563Y17787*
X13576Y17762*
X13587Y17737*
X13594Y17710*
X13598Y17683*
X13600Y17655*
X13599Y17634*
X13596Y17613*
X13592Y17592*
X13586Y17571*
X13591Y17550*
X13592Y17529*
Y17293*
X13769Y17471*
X13749Y17490*
X13731Y17511*
X13716Y17534*
X13703Y17559*
X13693Y17584*
X13686Y17610*
X13681Y17638*
X13680Y17665*
X13681Y17693*
X13686Y17720*
X13693Y17746*
X13704Y17772*
X13716Y17796*
X13732Y17819*
X13750Y17840*
X13770Y17859*
X13792Y17876*
X13816Y17890*
X13841Y17902*
X13867Y17911*
X13894Y17917*
X13921Y17920*
X13949*
X13976Y17917*
X14003Y17911*
X14029Y17902*
X14054Y17890*
X14078Y17876*
X14100Y17859*
X14120Y17840*
X14138Y17819*
X14153Y17797*
X14166Y17772*
X14177Y17747*
X14184Y17720*
X14188Y17693*
X14190Y17665*
X14189Y17638*
X14184Y17612*
X14178Y17587*
X14168Y17562*
X14156Y17538*
X14142Y17516*
X14125Y17495*
X14106Y17476*
X14086Y17459*
Y17425*
X14085Y17409*
X14082Y17393*
X14161Y17472*
X14165Y17491*
X14171Y17509*
X14180Y17526*
X14189Y17552*
X14201Y17577*
X14216Y17601*
X14233Y17623*
X14253Y17643*
X14275Y17661*
X14298Y17676*
X14323Y17689*
X14350Y17699*
X14377Y17705*
X14405Y17709*
X14433Y17710*
X14461Y17707*
X14488Y17702*
X14515Y17694*
X14541Y17682*
X14565Y17668*
X14587Y17652*
X14608Y17633*
X14626Y17611*
X14642Y17588*
X14656Y17564*
X14666Y17538*
X14674Y17511*
X14678Y17483*
X14680Y17455*
X14679Y17427*
X14674Y17400*
X14666Y17373*
X14656Y17347*
X14643Y17323*
X14627Y17300*
X14609Y17279*
X14589Y17260*
X14567Y17243*
X14543Y17229*
X14517Y17217*
X14491Y17209*
X14464Y17203*
X14436Y17200*
X14408Y17201*
X14381Y17204*
X14354Y17210*
X14327Y17219*
X14302Y17231*
X14010Y16939*
Y15982*
X13069*
Y16957*
X12728Y17298*
X12715Y17313*
X12704Y17330*
X12696Y17347*
X12689Y17366*
X12686Y17385*
X12684Y17405*
Y17442*
X12664Y17457*
X12646Y17474*
X12629Y17492*
X12614Y17512*
X12601Y17534*
X12590Y17556*
X12579Y17533*
X12565Y17511*
X12550Y17491*
X12532Y17472*
X12513Y17455*
X12492Y17440*
X12470Y17427*
Y17235*
X12469Y17217*
X12465Y17200*
X12460Y17183*
X12452Y17167*
X12442Y17153*
X12430Y17140*
X12250Y16959*
Y15982*
X11309*
Y16997*
X11198Y17109*
X11185Y17123*
X11174Y17140*
X11166Y17157*
X11159Y17176*
X11156Y17195*
X11154Y17215*
Y17249*
X11134Y17266*
X11115Y17285*
X11098Y17306*
X11084Y17328*
X11072Y17352*
X11062Y17376*
X11056Y17402*
X11051Y17428*
X11050Y17455*
X11051Y17481*
X11055Y17507*
X11038Y17487*
X11018Y17469*
X10996Y17453*
X10973Y17439*
X10963Y17423*
X10950Y17410*
X10470Y16929*
Y15982*
X9529*
Y16875*
X9180Y17217*
X9170Y17227*
X10033Y14731D02*
X10007Y14735D01*
X9980Y14741*
X9955Y14750*
X9931Y14762*
X9908Y14777*
X9887Y14794*
X9867Y14812*
X9850Y14833*
X9835Y14856*
X9823Y14880*
X9813Y14905*
X9806Y14931*
X9801Y14958*
X9800Y14985*
X9802Y15013*
X9806Y15040*
X9814Y15067*
X9824Y15093*
X9837Y15117*
X9853Y15140*
X9871Y15161*
X9891Y15180*
X9913Y15197*
X9937Y15211*
X9963Y15223*
X9989Y15231*
X10016Y15237*
X10044Y15240*
X10072Y15239*
X10100Y15236*
X10127Y15230*
X10153Y15221*
X10178Y15208*
X10202Y15194*
X10223Y15177*
X10243Y15157*
X10261Y15136*
X10276Y15112*
X10289Y15087*
X10298Y15061*
X10305Y15034*
X10309Y15007*
X10376Y14940*
X11040*
Y14990*
X12670*
Y14981*
X12694Y14995*
X12720Y15005*
X12747Y15013*
X12774Y15018*
X12802Y15020*
X12829Y15019*
X12857Y15015*
X12884Y15008*
X12910Y14998*
X12934Y14985*
X12957Y14969*
X12979Y14952*
X12998Y14932*
X13015Y14910*
X13029Y14886*
X13041Y14861*
X13050Y14835*
X13056Y14808*
X13060Y14780*
X13060Y14752*
X13057Y14725*
X13051Y14698*
X13042Y14671*
X13030Y14646*
X13016Y14622*
X12999Y14600*
X13460*
Y14186*
X14055*
X14078Y14184*
X14101Y14181*
X14124Y14174*
X14145Y14165*
X14166Y14154*
X14185Y14141*
X14203Y14125*
X14646Y13691*
X14673Y13697*
X14700Y13700*
X14728Y13700*
X14755Y13697*
X14782Y13691*
X14809Y13682*
X14834Y13671*
X14858Y13657*
X14880Y13640*
X14900Y13621*
X14918Y13600*
X14934Y13577*
X14947Y13552*
X14957Y13527*
X14964Y13500*
X14969Y13473*
X14970Y13445*
X14969Y13417*
X14964Y13390*
X14957Y13363*
X14946Y13337*
X14933Y13313*
X14918Y13290*
X14899Y13268*
X14879Y13249*
X14857Y13233*
X14833Y13219*
X14807Y13207*
X14781Y13198*
X14754Y13193*
X14726Y13190*
X14698Y13190*
X14671Y13194*
X14643Y13200*
X14617Y13209*
X14592Y13221*
X14568Y13236*
X14546Y13240*
X14524Y13247*
X14503Y13255*
X14483Y13266*
X14464Y13280*
X14447Y13295*
X13969Y13764*
X13460*
Y13730*
X12580*
Y14110*
X12280*
Y13290*
X11400*
Y13770*
X11352*
X11330Y13759*
X11307Y13749*
X11284Y13743*
X11259Y13739*
X11235Y13738*
X11210Y13739*
X11186Y13743*
X11163Y13750*
X11140Y13759*
X11118Y13770*
X11053*
X11031Y13753*
X11007Y13739*
X10982Y13728*
X10956Y13719*
X10929Y13713*
X10902Y13710*
X10874Y13710*
X10847Y13713*
X10820Y13719*
X10794Y13728*
X10769Y13740*
X10745Y13754*
X10723Y13771*
X10703Y13790*
X10685Y13811*
X10670Y13834*
X10657Y13858*
X10647Y13884*
X10640Y13910*
X10635Y13937*
X10634Y13965*
X10635Y13993*
X10640Y14021*
X10647Y14048*
X10658Y14074*
X10671Y14099*
X10687Y14122*
X10706Y14143*
X10727Y14162*
X10749Y14179*
X10774Y14193*
X10799Y14204*
X10826Y14212*
X10854Y14218*
X10882Y14220*
X10910Y14219*
X10938Y14215*
X10965Y14208*
X10991Y14198*
X11016Y14186*
X11040Y14170*
Y14550*
X10295*
X10273Y14551*
X10252Y14555*
X10231Y14561*
X10210Y14569*
X10191Y14580*
X10173Y14593*
X10157Y14607*
X10033Y14731*
X14949Y15982D02*
Y17020D01*
X14974*
Y17450*
X14953Y17467*
X14935Y17485*
X14918Y17506*
X14904Y17528*
X14892Y17552*
X14882Y17577*
X14876Y17602*
X14871Y17629*
X14870Y17655*
X14872Y17683*
X14876Y17710*
X14884Y17737*
X14894Y17763*
X14907Y17787*
X14923Y17810*
X14941Y17831*
X14961Y17850*
X14983Y17867*
X15007Y17881*
X15033Y17893*
X15059Y17901*
X15086Y17907*
X15114Y17910*
X15142Y17909*
X15169Y17906*
X15196Y17900*
X15223Y17891*
X15248Y17878*
X15271Y17864*
X15293Y17847*
X15313Y17827*
X15331Y17806*
X15346Y17782*
X15359Y17757*
X15368Y17731*
X15375Y17704*
X15379Y17677*
X15401Y17692*
X15425Y17705*
X15450Y17715*
X15476Y17723*
X15503Y17728*
X15530Y17730*
X15557Y17729*
X15583Y17725*
X15610Y17719*
X15635Y17710*
X15659Y17698*
X15682Y17683*
X15703Y17666*
X15723Y17648*
X15740Y17627*
X15755Y17604*
X15767Y17580*
X15777Y17555*
X15784Y17529*
X15789Y17502*
X15790Y17475*
X15789Y17448*
X15784Y17422*
X15778Y17396*
X15768Y17372*
X15756Y17348*
X15742Y17325*
X15725Y17305*
X15706Y17286*
X15685Y17269*
X15663Y17254*
X15655Y17239*
X15645Y17224*
X15633Y17210*
X15472Y17044*
Y17020*
X15787*
X16020Y17253*
X16000Y17269*
X15982Y17288*
X15966Y17309*
X15952Y17331*
X15941Y17354*
X15932Y17378*
X15925Y17403*
X15921Y17429*
X15920Y17455*
X15921Y17483*
X15926Y17510*
X15933Y17536*
X15944Y17562*
X15956Y17586*
X15972Y17609*
X15990Y17630*
X16010Y17649*
X16032Y17666*
X16056Y17680*
X16081Y17692*
X16107Y17701*
X16134Y17707*
X16161Y17710*
X16189*
X16216Y17707*
X16243Y17701*
X16269Y17692*
X16294Y17680*
X16318Y17666*
X16340Y17649*
X16360Y17630*
X16378Y17609*
X16393Y17587*
X16406Y17562*
X16417Y17537*
X16424Y17510*
X16428Y17483*
X16430Y17455*
X16429Y17429*
X16425Y17404*
X16418Y17379*
X16409Y17354*
X16398Y17331*
X16384Y17309*
X16369Y17289*
X16351Y17270*
X16331Y17253*
X16310Y17239*
Y17217*
X16309Y17199*
X16305Y17182*
X16300Y17165*
X16292Y17149*
X16282Y17135*
X16270Y17121*
X15890Y16741*
Y15982*
X14949*
X16570Y13960D02*
X15720D01*
Y14810*
X16570*
Y13960*
Y14960D02*
X15720D01*
Y15810*
X16570*
Y14960*
X17630Y22170D02*
Y21320D01*
X16780*
Y22170*
X17630*
X17760Y19310D02*
Y20252D01*
X18460*
Y20299*
X18439Y20320*
X17780*
Y21170*
X18630*
Y20511*
X18690Y20450*
X18702Y20437*
X18712Y20423*
X18720Y20407*
X18725Y20390*
X18729Y20373*
X18730Y20355*
Y19885*
X18729Y19867*
X18725Y19850*
X18720Y19833*
X18712Y19817*
X18702Y19803*
X18690Y19790*
X18586Y19685*
X18573Y19674*
X18558Y19664*
X18543Y19656*
X18526Y19651*
X18509Y19647*
X18491Y19646*
X18470*
Y19310*
X17760*
X18630Y22170D02*
Y21320D01*
X17780*
Y22170*
X18630*
X7375Y11905D02*
X9805D01*
X7327Y11953D02*
X9805D01*
X7279Y12001D02*
X9805D01*
X7231Y12049D02*
X9805D01*
X7183Y12097D02*
X9805D01*
X7135Y12145D02*
X9805D01*
X7087Y12194D02*
X9815D01*
X7039Y12242D02*
X9815D01*
X6991Y12290D02*
X9815D01*
X6943Y12338D02*
X13175D01*
X14010D02*
X16105D01*
X6895Y12386D02*
X13127D01*
X13962D02*
X16057D01*
X6846Y12434D02*
X13079D01*
X13914D02*
X16009D01*
X6798Y12482D02*
X13031D01*
X13866D02*
X15964D01*
X6750Y12530D02*
X12983D01*
X13817D02*
X15933D01*
X6702Y12578D02*
X12935D01*
X13769D02*
X15913D01*
X16699D02*
X16708D01*
X6654Y12626D02*
X12887D01*
X13721D02*
X15903D01*
X16651D02*
X16756D01*
X6606Y12674D02*
X12839D01*
X13673D02*
X15900D01*
X16603D02*
X16804D01*
X6558Y12722D02*
X12791D01*
X13625D02*
X15906D01*
X16555D02*
X16852D01*
X6510Y12770D02*
X12751D01*
X13577D02*
X15919D01*
X16507D02*
X16855D01*
X6462Y12818D02*
X12724D01*
X13529D02*
X15943D01*
X16459D02*
X16855D01*
X6414Y12866D02*
X12708D01*
X13481D02*
X15979D01*
X16411D02*
X16855D01*
X6366Y12914D02*
X12701D01*
X13433D02*
X16037D01*
X16353D02*
X16855D01*
X6318Y12962D02*
X12701D01*
X13385D02*
X16855D01*
X6270Y13010D02*
X12710D01*
X13337D02*
X16855D01*
X6222Y13058D02*
X12727D01*
X13289D02*
X16855D01*
X6174Y13106D02*
X12755D01*
X13241D02*
X16855D01*
X6126Y13154D02*
X12798D01*
X13192D02*
X16855D01*
X6078Y13202D02*
X12870D01*
X13120D02*
X14636D01*
X14794D02*
X16855D01*
X6030Y13250D02*
X14515D01*
X14880D02*
X16855D01*
X5982Y13298D02*
X11400D01*
X12280D02*
X14444D01*
X14924D02*
X16855D01*
X5935Y13346D02*
X11400D01*
X12280D02*
X14395D01*
X14950D02*
X16855D01*
X5935Y13394D02*
X11400D01*
X12280D02*
X14346D01*
X14965D02*
X16855D01*
X5935Y13442D02*
X11400D01*
X12280D02*
X14297D01*
X14970D02*
X16855D01*
X5935Y13490D02*
X11400D01*
X12280D02*
X14248D01*
X14966D02*
X16855D01*
X5935Y13538D02*
X11400D01*
X12280D02*
X14199D01*
X14953D02*
X16855D01*
X5935Y13586D02*
X6944D01*
X7206D02*
X11400D01*
X12280D02*
X14150D01*
X14928D02*
X16855D01*
X5935Y13634D02*
X6885D01*
X7265D02*
X11400D01*
X12280D02*
X14101D01*
X14886D02*
X16855D01*
X5935Y13682D02*
X6851D01*
X7299D02*
X11400D01*
X12280D02*
X14052D01*
X14809D02*
X16855D01*
X5935Y13731D02*
X6831D01*
X7319D02*
X10788D01*
X10989D02*
X11400D01*
X12280D02*
X12580D01*
X13460D02*
X14003D01*
X14605D02*
X16855D01*
X5935Y13779D02*
X6821D01*
X7329D02*
X10715D01*
X12280D02*
X12580D01*
X14556D02*
X16855D01*
X5935Y13827D02*
X6821D01*
X7329D02*
X10674D01*
X12280D02*
X12580D01*
X14507D02*
X16855D01*
X5935Y13875D02*
X6830D01*
X7320D02*
X10650D01*
X12280D02*
X12580D01*
X14458D02*
X16855D01*
X5935Y13923D02*
X6849D01*
X7301D02*
X10637D01*
X12280D02*
X12580D01*
X14409D02*
X16855D01*
X5935Y13971D02*
X6881D01*
X7269D02*
X10634D01*
X12280D02*
X12580D01*
X14360D02*
X15720D01*
X16570D02*
X16855D01*
X5935Y14019D02*
X6936D01*
X7214D02*
X10639D01*
X12280D02*
X12580D01*
X14311D02*
X15720D01*
X16570D02*
X16855D01*
X5935Y14067D02*
X10655D01*
X12280D02*
X12580D01*
X14262D02*
X15720D01*
X16570D02*
X16855D01*
X5935Y14115D02*
X10682D01*
X14213D02*
X15720D01*
X16570D02*
X16855D01*
X5935Y14163D02*
X10728D01*
X14151D02*
X15720D01*
X16570D02*
X16855D01*
X5935Y14211D02*
X10821D01*
X10956D02*
X11040D01*
X13460D02*
X15720D01*
X16570D02*
X16855D01*
X5935Y14259D02*
X11040D01*
X13460D02*
X15720D01*
X16570D02*
X16855D01*
X5935Y14307D02*
X11040D01*
X13460D02*
X15720D01*
X16570D02*
X16855D01*
X5935Y14355D02*
X11040D01*
X13460D02*
X15720D01*
X16570D02*
X16855D01*
X5935Y14403D02*
X11040D01*
X13460D02*
X15720D01*
X16570D02*
X16855D01*
X5935Y14451D02*
X11040D01*
X13460D02*
X15720D01*
X16570D02*
X16855D01*
X5935Y14499D02*
X11040D01*
X13460D02*
X15720D01*
X16570D02*
X16855D01*
X5935Y14547D02*
X11040D01*
X13460D02*
X15720D01*
X16570D02*
X16855D01*
X5935Y14595D02*
X10170D01*
X13460D02*
X15720D01*
X16570D02*
X16855D01*
X5935Y14643D02*
X10121D01*
X13029D02*
X15720D01*
X16570D02*
X16855D01*
X5935Y14691D02*
X10073D01*
X13049D02*
X15720D01*
X16570D02*
X16855D01*
X5935Y14739D02*
X9987D01*
X13059D02*
X15720D01*
X16570D02*
X16855D01*
X5935Y14787D02*
X9894D01*
X13059D02*
X15720D01*
X16570D02*
X16855D01*
X5935Y14835D02*
X9849D01*
X13050D02*
X16855D01*
X5935Y14883D02*
X9821D01*
X13031D02*
X16855D01*
X5935Y14931D02*
X9806D01*
X12998D02*
X16855D01*
X5935Y14979D02*
X9800D01*
X10336D02*
X11040D01*
X12943D02*
X15720D01*
X16570D02*
X16855D01*
X5935Y15027D02*
X9804D01*
X10306D02*
X15720D01*
X16570D02*
X16855D01*
X5935Y15075D02*
X9817D01*
X10293D02*
X15720D01*
X16570D02*
X16855D01*
X5935Y15123D02*
X9841D01*
X10269D02*
X15720D01*
X16570D02*
X16855D01*
X5935Y15171D02*
X9881D01*
X10229D02*
X15720D01*
X16570D02*
X16855D01*
X5935Y15219D02*
X9955D01*
X10155D02*
X15720D01*
X16570D02*
X16855D01*
X5935Y15268D02*
X15720D01*
X16570D02*
X16855D01*
X5935Y15316D02*
X15720D01*
X16570D02*
X16855D01*
X5935Y15364D02*
X15720D01*
X16570D02*
X16855D01*
X5935Y15412D02*
X15720D01*
X16570D02*
X16855D01*
X5935Y15460D02*
X15720D01*
X16570D02*
X16855D01*
X5935Y15508D02*
X15720D01*
X16570D02*
X16855D01*
X5935Y15556D02*
X15720D01*
X16570D02*
X16855D01*
X5935Y15604D02*
X15720D01*
X16570D02*
X16855D01*
X5935Y15652D02*
X15720D01*
X16570D02*
X16855D01*
X5935Y15700D02*
X15720D01*
X16570D02*
X16855D01*
X5935Y15748D02*
X15720D01*
X16570D02*
X16855D01*
X5935Y15796D02*
X15720D01*
X16570D02*
X16855D01*
X5935Y15844D02*
X16855D01*
X5935Y15892D02*
X16855D01*
X5935Y15940D02*
X16855D01*
X5935Y15988D02*
X7489D01*
X8430D02*
X9529D01*
X10470D02*
X11309D01*
X12250D02*
X13069D01*
X14010D02*
X14949D01*
X15890D02*
X16855D01*
X5935Y16036D02*
X7489D01*
X8430D02*
X9529D01*
X10470D02*
X11309D01*
X12250D02*
X13069D01*
X14010D02*
X14949D01*
X15890D02*
X16855D01*
X5935Y16084D02*
X7489D01*
X8430D02*
X9529D01*
X10470D02*
X11309D01*
X12250D02*
X13069D01*
X14010D02*
X14949D01*
X15890D02*
X16855D01*
X5935Y16132D02*
X7489D01*
X8430D02*
X9529D01*
X10470D02*
X11309D01*
X12250D02*
X13069D01*
X14010D02*
X14949D01*
X15890D02*
X16855D01*
X5890Y16180D02*
X7489D01*
X8430D02*
X9529D01*
X10470D02*
X11309D01*
X12250D02*
X13069D01*
X14010D02*
X14949D01*
X15890D02*
X16855D01*
X5842Y16228D02*
X7489D01*
X8430D02*
X9529D01*
X10470D02*
X11309D01*
X12250D02*
X13069D01*
X14010D02*
X14949D01*
X15890D02*
X16855D01*
X5794Y16276D02*
X7489D01*
X8430D02*
X9529D01*
X10470D02*
X11309D01*
X12250D02*
X13069D01*
X14010D02*
X14949D01*
X15890D02*
X16896D01*
X5746Y16324D02*
X7489D01*
X8430D02*
X9529D01*
X10470D02*
X11309D01*
X12250D02*
X13069D01*
X14010D02*
X14949D01*
X15890D02*
X16944D01*
X5698Y16372D02*
X7489D01*
X8430D02*
X9529D01*
X10470D02*
X11309D01*
X12250D02*
X13069D01*
X14010D02*
X14949D01*
X15890D02*
X16992D01*
X5650Y16420D02*
X7489D01*
X8430D02*
X9529D01*
X10470D02*
X11309D01*
X12250D02*
X13069D01*
X14010D02*
X14949D01*
X15890D02*
X17040D01*
X5602Y16468D02*
X7489D01*
X8430D02*
X9529D01*
X10470D02*
X11309D01*
X12250D02*
X13069D01*
X14010D02*
X14949D01*
X15890D02*
X17088D01*
X5554Y16516D02*
X7489D01*
X8430D02*
X9529D01*
X10470D02*
X11309D01*
X12250D02*
X13069D01*
X14010D02*
X14949D01*
X15890D02*
X17136D01*
X5506Y16564D02*
X7489D01*
X8430D02*
X9529D01*
X10470D02*
X11309D01*
X12250D02*
X13069D01*
X14010D02*
X14949D01*
X15890D02*
X17184D01*
X5458Y16612D02*
X7489D01*
X8430D02*
X9529D01*
X10470D02*
X11309D01*
X12250D02*
X13069D01*
X14010D02*
X14949D01*
X15890D02*
X17232D01*
X5410Y16660D02*
X7489D01*
X8430D02*
X9529D01*
X10470D02*
X11309D01*
X12250D02*
X13069D01*
X14010D02*
X14949D01*
X15890D02*
X17280D01*
X5362Y16708D02*
X7489D01*
X8430D02*
X9529D01*
X10470D02*
X11309D01*
X12250D02*
X13069D01*
X14010D02*
X14949D01*
X15890D02*
X17328D01*
X5314Y16756D02*
X7489D01*
X8430D02*
X9529D01*
X10470D02*
X11309D01*
X12250D02*
X13069D01*
X14010D02*
X14949D01*
X15906D02*
X17376D01*
X5265Y16805D02*
X7489D01*
X8430D02*
X9529D01*
X10470D02*
X11309D01*
X12250D02*
X13069D01*
X14010D02*
X14949D01*
X15954D02*
X17425D01*
X5217Y16853D02*
X7489D01*
X8430D02*
X9529D01*
X10470D02*
X11309D01*
X12250D02*
X13069D01*
X14010D02*
X14949D01*
X16002D02*
X17473D01*
X5169Y16901D02*
X7456D01*
X8430D02*
X9504D01*
X10470D02*
X11309D01*
X12250D02*
X13069D01*
X14010D02*
X14949D01*
X16050D02*
X17521D01*
X5121Y16949D02*
X7408D01*
X8430D02*
X9454D01*
X10490D02*
X11309D01*
X12250D02*
X13069D01*
X14020D02*
X14949D01*
X16098D02*
X17569D01*
X5073Y16997D02*
X7360D01*
X8448D02*
X9405D01*
X10538D02*
X11309D01*
X12288D02*
X13030D01*
X14068D02*
X14949D01*
X16146D02*
X17617D01*
X5025Y17045D02*
X7322D01*
X8496D02*
X9356D01*
X10586D02*
X11262D01*
X12336D02*
X12982D01*
X14116D02*
X14974D01*
X15473D02*
X15812D01*
X16194D02*
X17665D01*
X4977Y17093D02*
X7306D01*
X8544D02*
X9307D01*
X10634D02*
X11214D01*
X12384D02*
X12934D01*
X14164D02*
X14974D01*
X15519D02*
X15860D01*
X16242D02*
X17713D01*
X4929Y17141D02*
X7305D01*
X8592D02*
X9258D01*
X10682D02*
X11174D01*
X12432D02*
X12886D01*
X14212D02*
X14974D01*
X15566D02*
X15908D01*
X16287D02*
X17761D01*
X4881Y17189D02*
X7305D01*
X8640D02*
X9209D01*
X9981D02*
X10018D01*
X10730D02*
X11157D01*
X12462D02*
X12838D01*
X13264D02*
X13291D01*
X14260D02*
X14974D01*
X15613D02*
X15956D01*
X16307D02*
X17809D01*
X4833Y17237D02*
X7273D01*
X8685D02*
X9153D01*
X9934D02*
X10065D01*
X10778D02*
X11154D01*
X12470D02*
X12790D01*
X13216D02*
X13291D01*
X14557D02*
X14974D01*
X15654D02*
X16004D01*
X16310D02*
X17857D01*
X4785Y17285D02*
X7215D01*
X8707D02*
X9095D01*
X9887D02*
X10113D01*
X10426D02*
X10444D01*
X10826D02*
X11115D01*
X12470D02*
X12742D01*
X13168D02*
X13291D01*
X14615D02*
X14974D01*
X15705D02*
X15985D01*
X16365D02*
X17905D01*
X4737Y17333D02*
X7181D01*
X8710D02*
X9061D01*
X9846D02*
X10124D01*
X10426D02*
X10492D01*
X10874D02*
X11081D01*
X12470D02*
X12703D01*
X13120D02*
X13291D01*
X13592D02*
X13632D01*
X14649D02*
X14974D01*
X15747D02*
X15951D01*
X16399D02*
X17953D01*
X4689Y17381D02*
X7161D01*
X8710D02*
X9041D01*
X9846D02*
X10124D01*
X10426D02*
X10540D01*
X10922D02*
X11061D01*
X12470D02*
X12686D01*
X13072D02*
X13291D01*
X13592D02*
X13679D01*
X14669D02*
X14974D01*
X15772D02*
X15931D01*
X16419D02*
X18001D01*
X4641Y17429D02*
X7151D01*
X8710D02*
X9031D01*
X9846D02*
X10124D01*
X10426D02*
X10588D01*
X10967D02*
X11051D01*
X12473D02*
X12684D01*
X13024D02*
X13227D01*
X13592D02*
X13727D01*
X14086D02*
X14118D01*
X14679D02*
X14974D01*
X15786D02*
X15921D01*
X16429D02*
X18049D01*
X4593Y17477D02*
X7151D01*
X8758D02*
X9031D01*
X9898D02*
X10102D01*
X10468D02*
X10636D01*
X11027D02*
X11051D01*
X12538D02*
X12642D01*
X13008D02*
X13162D01*
X13592D02*
X13763D01*
X14107D02*
X14162D01*
X14679D02*
X14942D01*
X15790D02*
X15921D01*
X16429D02*
X18097D01*
X4545Y17525D02*
X7160D01*
X8794D02*
X9040D01*
X9934D02*
X10066D01*
X10504D02*
X10642D01*
X12574D02*
X12606D01*
X13044D02*
X13126D01*
X13592D02*
X13722D01*
X14148D02*
X14180D01*
X14670D02*
X14906D01*
X15785D02*
X15930D01*
X16420D02*
X18145D01*
X4497Y17573D02*
X7179D01*
X8816D02*
X9059D01*
X9956D02*
X10044D01*
X10526D02*
X10617D01*
X13066D02*
X13104D01*
X13586D02*
X13697D01*
X14173D02*
X14199D01*
X14651D02*
X14884D01*
X15770D02*
X15949D01*
X16401D02*
X18193D01*
X4449Y17621D02*
X7211D01*
X8828D02*
X9091D01*
X9968D02*
X10032D01*
X10538D02*
X10604D01*
X11106D02*
X11111D01*
X13078D02*
X13092D01*
X13598D02*
X13684D01*
X14186D02*
X14231D01*
X14619D02*
X14872D01*
X15744D02*
X15981D01*
X16369D02*
X18241D01*
X4401Y17669D02*
X7266D01*
X8050D02*
X8066D01*
X8830D02*
X9146D01*
X9424D02*
X9460D01*
X9970D02*
X10030D01*
X10540D02*
X10600D01*
X11110D02*
X11166D01*
X13080D02*
X13090D01*
X13600D02*
X13680D01*
X14190D02*
X14286D01*
X14564D02*
X14870D01*
X15700D02*
X16036D01*
X16314D02*
X18289D01*
X4353Y17717D02*
X7548D01*
X8042D02*
X8328D01*
X8822D02*
X9468D01*
X9962D02*
X10038D01*
X10532D02*
X10605D01*
X11105D02*
X11408D01*
X11902D02*
X12108D01*
X13072D02*
X13098D01*
X13592D02*
X13685D01*
X14185D02*
X14878D01*
X15372D02*
X15455D01*
X15615D02*
X18337D01*
X4305Y17765D02*
X7565D01*
X8025D02*
X8345D01*
X8805D02*
X9485D01*
X9945D02*
X10055D01*
X10515D02*
X10621D01*
X11089D02*
X11425D01*
X11885D02*
X12125D01*
X12585D02*
X12595D01*
X13055D02*
X13115D01*
X13575D02*
X13701D01*
X14169D02*
X14895D01*
X15355D02*
X18385D01*
X4257Y17813D02*
X7595D01*
X7995D02*
X8375D01*
X8775D02*
X9515D01*
X9915D02*
X10085D01*
X10485D02*
X10647D01*
X11063D02*
X11455D01*
X11855D02*
X12155D01*
X12555D02*
X12625D01*
X13025D02*
X13145D01*
X13545D02*
X13727D01*
X14143D02*
X14925D01*
X15325D02*
X18433D01*
X4209Y17861D02*
X7645D01*
X7945D02*
X8425D01*
X8725D02*
X9565D01*
X9865D02*
X10135D01*
X10435D02*
X10692D01*
X11018D02*
X11505D01*
X11805D02*
X12205D01*
X12505D02*
X12675D01*
X12975D02*
X13195D01*
X13495D02*
X13772D01*
X14098D02*
X14975D01*
X15275D02*
X18481D01*
X4161Y17909D02*
X7775D01*
X7815D02*
X8555D01*
X8595D02*
X9695D01*
X9735D02*
X10265D01*
X10305D02*
X10782D01*
X10928D02*
X11636D01*
X11674D02*
X12336D01*
X12374D02*
X12806D01*
X12844D02*
X13325D01*
X13365D02*
X13862D01*
X14008D02*
X15106D01*
X15144D02*
X18529D01*
X4113Y17957D02*
X18577D01*
X4065Y18005D02*
X18625D01*
X4017Y18053D02*
X18673D01*
X3969Y18101D02*
X18721D01*
X3921Y18149D02*
X18769D01*
X3873Y18197D02*
X18817D01*
X3825Y18245D02*
X18865D01*
X3776Y18294D02*
X18914D01*
X3728Y18342D02*
X18962D01*
X3680Y18390D02*
X19010D01*
X3632Y18438D02*
X19058D01*
X3584Y18486D02*
X19106D01*
X3536Y18534D02*
X19154D01*
X3488Y18582D02*
X19202D01*
X3440Y18630D02*
X19250D01*
X3392Y18678D02*
X19298D01*
X3344Y18726D02*
X19346D01*
X3296Y18774D02*
X19394D01*
X3248Y18822D02*
X19442D01*
X3200Y18870D02*
X19490D01*
X3152Y18918D02*
X19538D01*
X3104Y18966D02*
X19586D01*
X3056Y19014D02*
X19634D01*
X3008Y19062D02*
X19682D01*
X2960Y19110D02*
X19730D01*
X2912Y19158D02*
X19778D01*
X2864Y19206D02*
X6940D01*
X7650D02*
X7800D01*
X8510D02*
X19826D01*
X2816Y19254D02*
X6940D01*
X7650D02*
X7800D01*
X8510D02*
X8880D01*
X9590D02*
X9740D01*
X10450D02*
X10900D01*
X11610D02*
X11760D01*
X12470D02*
X19874D01*
X2768Y19302D02*
X6767D01*
X7650D02*
X7800D01*
X8510D02*
X8819D01*
X9590D02*
X9740D01*
X10450D02*
X10900D01*
X11610D02*
X11760D01*
X12470D02*
X12880D01*
X13590D02*
X13740D01*
X14450D02*
X14880D01*
X15590D02*
X15740D01*
X16450D02*
X19922D01*
X2720Y19350D02*
X6719D01*
X7650D02*
X7800D01*
X8510D02*
X8759D01*
X9590D02*
X9740D01*
X10450D02*
X10764D01*
X11610D02*
X11760D01*
X12470D02*
X12848D01*
X13590D02*
X13740D01*
X14450D02*
X14880D01*
X15590D02*
X15740D01*
X16450D02*
X16900D01*
X17610D02*
X17760D01*
X18470D02*
X19970D01*
X2672Y19398D02*
X6671D01*
X7650D02*
X7800D01*
X8510D02*
X8711D01*
X9590D02*
X9740D01*
X10450D02*
X10711D01*
X11610D02*
X11760D01*
X12470D02*
X12751D01*
X13590D02*
X13740D01*
X14450D02*
X14792D01*
X15590D02*
X15740D01*
X16450D02*
X16869D01*
X17610D02*
X17760D01*
X18470D02*
X20018D01*
X2720Y19446D02*
X6623D01*
X7650D02*
X7800D01*
X8510D02*
X8663D01*
X9590D02*
X9740D01*
X10450D02*
X10663D01*
X11610D02*
X11760D01*
X12470D02*
X12703D01*
X13590D02*
X13740D01*
X14450D02*
X14743D01*
X15590D02*
X15740D01*
X16450D02*
X16803D01*
X17610D02*
X17760D01*
X18470D02*
X20066D01*
X2768Y19494D02*
X6575D01*
X7650D02*
X7800D01*
X8510D02*
X8615D01*
X9590D02*
X9740D01*
X10450D02*
X10615D01*
X11610D02*
X11760D01*
X12470D02*
X12655D01*
X13590D02*
X13740D01*
X14450D02*
X14695D01*
X15590D02*
X15740D01*
X16450D02*
X16755D01*
X17610D02*
X17760D01*
X18470D02*
X20114D01*
X2816Y19542D02*
X6527D01*
X6909D02*
X6914D01*
X7650D02*
X7790D01*
X8510D02*
X8567D01*
X9590D02*
X9740D01*
X10450D02*
X10567D01*
X11610D02*
X11760D01*
X12470D02*
X12607D01*
X13590D02*
X13740D01*
X14450D02*
X14647D01*
X15590D02*
X15740D01*
X16450D02*
X16707D01*
X17610D02*
X17760D01*
X18470D02*
X20162D01*
X2864Y19590D02*
X6479D01*
X6861D02*
X6866D01*
X7650D02*
X7735D01*
X8510D02*
X8532D01*
X9590D02*
X9739D01*
X10450D02*
X10532D01*
X11610D02*
X11760D01*
X12470D02*
X12572D01*
X13590D02*
X13740D01*
X14450D02*
X14599D01*
X15590D02*
X15740D01*
X16450D02*
X16659D01*
X17610D02*
X17760D01*
X18470D02*
X20210D01*
X2912Y19638D02*
X6431D01*
X6813D02*
X6818D01*
X7650D02*
X7687D01*
X8510D02*
X8520D01*
X9590D02*
X9691D01*
X10450D02*
X10520D01*
X11610D02*
X11751D01*
X12470D02*
X12560D01*
X13590D02*
X13731D01*
X14450D02*
X14558D01*
X15590D02*
X15740D01*
X16450D02*
X16611D01*
X17610D02*
X17760D01*
X18470D02*
X20258D01*
X2960Y19686D02*
X6383D01*
X6764D02*
X6770D01*
X8510D02*
X8520D01*
X9590D02*
X9643D01*
X10450D02*
X10520D01*
X11610D02*
X11703D01*
X12470D02*
X12560D01*
X13590D02*
X13683D01*
X14450D02*
X14541D01*
X15590D02*
X15740D01*
X16450D02*
X16573D01*
X17610D02*
X17760D01*
X18587D02*
X20306D01*
X3008Y19734D02*
X6335D01*
X6716D02*
X6737D01*
X8510D02*
X8520D01*
X9590D02*
X9595D01*
X10450D02*
X10520D01*
X11610D02*
X11655D01*
X12470D02*
X12560D01*
X13590D02*
X13635D01*
X14450D02*
X14540D01*
X15590D02*
X15695D01*
X16450D02*
X16560D01*
X16896D02*
X16900D01*
X17610D02*
X17760D01*
X18635D02*
X20354D01*
X3056Y19782D02*
X6287D01*
X6668D02*
X6725D01*
X8510D02*
X8520D01*
X10450D02*
X10520D01*
X12470D02*
X12560D01*
X13590D02*
X13595D01*
X14450D02*
X14540D01*
X15590D02*
X15647D01*
X16450D02*
X16560D01*
X16848D02*
X16900D01*
X17610D02*
X17760D01*
X18683D02*
X20402D01*
X3104Y19831D02*
X6251D01*
X6620D02*
X6724D01*
X8510D02*
X8520D01*
X10450D02*
X10520D01*
X12470D02*
X12560D01*
X14450D02*
X14540D01*
X15590D02*
X15602D01*
X16450D02*
X16560D01*
X16830D02*
X16900D01*
X17610D02*
X17760D01*
X18719D02*
X20451D01*
X3152Y19879D02*
X6240D01*
X6572D02*
X6724D01*
X8510D02*
X8520D01*
X10450D02*
X10520D01*
X12470D02*
X12560D01*
X14450D02*
X14540D01*
X16450D02*
X16560D01*
X16830D02*
X16900D01*
X17610D02*
X17760D01*
X18730D02*
X20499D01*
X3200Y19927D02*
X6240D01*
X6524D02*
X6724D01*
X8510D02*
X8520D01*
X10450D02*
X10520D01*
X12470D02*
X12560D01*
X14450D02*
X14540D01*
X16450D02*
X16560D01*
X16830D02*
X16900D01*
X17610D02*
X17760D01*
X18730D02*
X20547D01*
X3248Y19975D02*
X6240D01*
X6510D02*
X6724D01*
X8510D02*
X8520D01*
X10450D02*
X10520D01*
X12470D02*
X12560D01*
X14450D02*
X14540D01*
X16450D02*
X16560D01*
X16830D02*
X16900D01*
X17610D02*
X17760D01*
X18730D02*
X20595D01*
X3296Y20023D02*
X6240D01*
X6510D02*
X6724D01*
X8510D02*
X8520D01*
X10450D02*
X10520D01*
X12470D02*
X12560D01*
X14450D02*
X14540D01*
X16450D02*
X16560D01*
X16830D02*
X16900D01*
X17610D02*
X17760D01*
X18730D02*
X20643D01*
X3344Y20071D02*
X6240D01*
X6510D02*
X6724D01*
X8510D02*
X8520D01*
X10450D02*
X10520D01*
X12470D02*
X12560D01*
X14450D02*
X14540D01*
X16450D02*
X16560D01*
X16830D02*
X16900D01*
X17610D02*
X17760D01*
X18730D02*
X20691D01*
X3392Y20119D02*
X6240D01*
X6510D02*
X6724D01*
X8510D02*
X8520D01*
X10450D02*
X10520D01*
X12470D02*
X12560D01*
X14450D02*
X14540D01*
X16450D02*
X16560D01*
X16830D02*
X16900D01*
X17610D02*
X17760D01*
X18730D02*
X20739D01*
X3440Y20167D02*
X6240D01*
X6510D02*
X6724D01*
X8290D02*
X8520D01*
X10230D02*
X10520D01*
X12470D02*
X12560D01*
X14450D02*
X14540D01*
X16450D02*
X16560D01*
X16830D02*
X16900D01*
X17610D02*
X17760D01*
X18730D02*
X20787D01*
X3488Y20215D02*
X6240D01*
X6510D02*
X6727D01*
X8290D02*
X8520D01*
X10230D02*
X10520D01*
X12250D02*
X12560D01*
X14230D02*
X14540D01*
X16450D02*
X16544D01*
X16830D02*
X16900D01*
X17610D02*
X17760D01*
X18730D02*
X20752D01*
X3536Y20263D02*
X6240D01*
X6510D02*
X6746D01*
X8290D02*
X8520D01*
X10230D02*
X10520D01*
X12250D02*
X12560D01*
X14230D02*
X14540D01*
X15850D02*
X16496D01*
X16830D02*
X18460D01*
X18730D02*
X20704D01*
X3584Y20311D02*
X6240D01*
X6510D02*
X6787D01*
X8290D02*
X8520D01*
X10230D02*
X10520D01*
X12250D02*
X12560D01*
X14230D02*
X14540D01*
X15850D02*
X16448D01*
X16818D02*
X18448D01*
X18730D02*
X20656D01*
X3632Y20359D02*
X5780D01*
X6630D02*
X6780D01*
X17630D02*
X17780D01*
X18730D02*
X20608D01*
X3680Y20407D02*
X5780D01*
X6630D02*
X6780D01*
X16734D02*
X16780D01*
X17630D02*
X17780D01*
X18720D02*
X20560D01*
X3728Y20455D02*
X5780D01*
X6630D02*
X6780D01*
X16686D02*
X16780D01*
X17630D02*
X17780D01*
X18686D02*
X20512D01*
X3776Y20503D02*
X5780D01*
X6630D02*
X6780D01*
X16638D02*
X16780D01*
X17630D02*
X17780D01*
X18638D02*
X20464D01*
X3825Y20551D02*
X5780D01*
X6630D02*
X6780D01*
X16630D02*
X16780D01*
X17630D02*
X17780D01*
X18630D02*
X20415D01*
X3873Y20599D02*
X5780D01*
X6630D02*
X6780D01*
X16630D02*
X16780D01*
X17630D02*
X17780D01*
X18630D02*
X20367D01*
X3921Y20647D02*
X5780D01*
X6630D02*
X6780D01*
X16630D02*
X16780D01*
X17630D02*
X17780D01*
X18630D02*
X20319D01*
X3969Y20695D02*
X5780D01*
X6630D02*
X6780D01*
X16630D02*
X16780D01*
X17630D02*
X17780D01*
X18630D02*
X20271D01*
X4017Y20743D02*
X5780D01*
X6630D02*
X6780D01*
X16630D02*
X16780D01*
X17630D02*
X17780D01*
X18630D02*
X20223D01*
X4065Y20791D02*
X5780D01*
X6630D02*
X6780D01*
X16630D02*
X16780D01*
X17630D02*
X17780D01*
X18630D02*
X20175D01*
X4113Y20839D02*
X5780D01*
X6630D02*
X6780D01*
X16630D02*
X16780D01*
X17630D02*
X17780D01*
X18630D02*
X20127D01*
X4161Y20887D02*
X5780D01*
X6630D02*
X6780D01*
X16630D02*
X16780D01*
X17630D02*
X17780D01*
X18630D02*
X20079D01*
X4209Y20935D02*
X5780D01*
X6630D02*
X6780D01*
X16630D02*
X16780D01*
X17630D02*
X17780D01*
X18630D02*
X20031D01*
X4257Y20983D02*
X5780D01*
X6630D02*
X6780D01*
X16630D02*
X16780D01*
X17630D02*
X17780D01*
X18630D02*
X19983D01*
X4305Y21031D02*
X5780D01*
X6630D02*
X6780D01*
X16630D02*
X16780D01*
X17630D02*
X17780D01*
X18630D02*
X19935D01*
X4353Y21079D02*
X5780D01*
X6630D02*
X6780D01*
X16630D02*
X16780D01*
X17630D02*
X17780D01*
X18630D02*
X19887D01*
X4401Y21127D02*
X5780D01*
X6630D02*
X6780D01*
X16630D02*
X16780D01*
X17630D02*
X17780D01*
X18630D02*
X19839D01*
X4449Y21175D02*
X7544D01*
X10790D02*
X11580D01*
X16340D02*
X19791D01*
X4497Y21223D02*
X7496D01*
X10787D02*
X11536D01*
X16340D02*
X19743D01*
X4545Y21271D02*
X7448D01*
X10766D02*
X11488D01*
X16340D02*
X19695D01*
X4593Y21319D02*
X7400D01*
X10721D02*
X11440D01*
X16340D02*
X19647D01*
X4641Y21368D02*
X5780D01*
X6630D02*
X6780D01*
X7733D02*
X7780D01*
X9753D02*
X9780D01*
X10673D02*
X10780D01*
X11773D02*
X11780D01*
X12773D02*
X12780D01*
X13773D02*
X13780D01*
X14773D02*
X14780D01*
X15773D02*
X15780D01*
X16630D02*
X16780D01*
X17630D02*
X17780D01*
X18630D02*
X19599D01*
X4689Y21416D02*
X5780D01*
X6630D02*
X6780D01*
X7685D02*
X7780D01*
X8763D02*
X8780D01*
X9705D02*
X9780D01*
X10630D02*
X10780D01*
X11725D02*
X11780D01*
X12725D02*
X12780D01*
X13725D02*
X13780D01*
X14725D02*
X14780D01*
X15725D02*
X15780D01*
X16630D02*
X16780D01*
X17630D02*
X17780D01*
X18630D02*
X19551D01*
X4737Y21464D02*
X5780D01*
X6630D02*
X6780D01*
X7637D02*
X7780D01*
X8717D02*
X8780D01*
X9657D02*
X9780D01*
X10630D02*
X10780D01*
X11677D02*
X11780D01*
X12677D02*
X12780D01*
X13677D02*
X13780D01*
X14677D02*
X14780D01*
X15677D02*
X15780D01*
X16630D02*
X16780D01*
X17630D02*
X17780D01*
X18630D02*
X19503D01*
X4785Y21512D02*
X5780D01*
X6630D02*
X6780D01*
X7630D02*
X7780D01*
X8669D02*
X8780D01*
X9630D02*
X9780D01*
X10630D02*
X10780D01*
X11630D02*
X11780D01*
X12630D02*
X12780D01*
X13630D02*
X13780D01*
X14630D02*
X14780D01*
X15630D02*
X15780D01*
X16630D02*
X16780D01*
X17630D02*
X17780D01*
X18630D02*
X19455D01*
X4833Y21560D02*
X5780D01*
X6630D02*
X6780D01*
X7630D02*
X7780D01*
X8630D02*
X8780D01*
X9630D02*
X9780D01*
X10630D02*
X10780D01*
X11630D02*
X11780D01*
X12630D02*
X12780D01*
X13630D02*
X13780D01*
X14630D02*
X14780D01*
X15630D02*
X15780D01*
X16630D02*
X16780D01*
X17630D02*
X17780D01*
X18630D02*
X19407D01*
X4881Y21608D02*
X5780D01*
X6630D02*
X6780D01*
X7630D02*
X7780D01*
X8630D02*
X8780D01*
X9630D02*
X9780D01*
X10630D02*
X10780D01*
X11630D02*
X11780D01*
X12630D02*
X12780D01*
X13630D02*
X13780D01*
X14630D02*
X14780D01*
X15630D02*
X15780D01*
X16630D02*
X16780D01*
X17630D02*
X17780D01*
X18630D02*
X19359D01*
X4929Y21656D02*
X5780D01*
X6630D02*
X6780D01*
X7630D02*
X7780D01*
X8630D02*
X8780D01*
X9630D02*
X9780D01*
X10630D02*
X10780D01*
X11630D02*
X11780D01*
X12630D02*
X12780D01*
X13630D02*
X13780D01*
X14630D02*
X14780D01*
X15630D02*
X15780D01*
X16630D02*
X16780D01*
X17630D02*
X17780D01*
X18630D02*
X19311D01*
X4977Y21704D02*
X5780D01*
X6630D02*
X6780D01*
X7630D02*
X7780D01*
X8630D02*
X8780D01*
X9630D02*
X9780D01*
X10630D02*
X10780D01*
X11630D02*
X11780D01*
X12630D02*
X12780D01*
X13630D02*
X13780D01*
X14630D02*
X14780D01*
X15630D02*
X15780D01*
X16630D02*
X16780D01*
X17630D02*
X17780D01*
X18630D02*
X19263D01*
X5025Y21752D02*
X5780D01*
X6630D02*
X6780D01*
X7630D02*
X7780D01*
X8630D02*
X8780D01*
X9630D02*
X9780D01*
X10630D02*
X10780D01*
X11630D02*
X11780D01*
X12630D02*
X12780D01*
X13630D02*
X13780D01*
X14630D02*
X14780D01*
X15630D02*
X15780D01*
X16630D02*
X16780D01*
X17630D02*
X17780D01*
X18630D02*
X19215D01*
X5073Y21800D02*
X5780D01*
X6630D02*
X6780D01*
X7630D02*
X7780D01*
X8630D02*
X8780D01*
X9630D02*
X9780D01*
X10630D02*
X10780D01*
X11630D02*
X11780D01*
X12630D02*
X12780D01*
X13630D02*
X13780D01*
X14630D02*
X14780D01*
X15630D02*
X15780D01*
X16630D02*
X16780D01*
X17630D02*
X17780D01*
X18630D02*
X19167D01*
X5121Y21848D02*
X5780D01*
X6630D02*
X6780D01*
X7630D02*
X7780D01*
X8630D02*
X8780D01*
X9630D02*
X9780D01*
X10630D02*
X10780D01*
X11630D02*
X11780D01*
X12630D02*
X12780D01*
X13630D02*
X13780D01*
X14630D02*
X14780D01*
X15630D02*
X15780D01*
X16630D02*
X16780D01*
X17630D02*
X17780D01*
X18630D02*
X19119D01*
X5169Y21896D02*
X5780D01*
X6630D02*
X6780D01*
X7630D02*
X7780D01*
X8630D02*
X8780D01*
X9630D02*
X9780D01*
X10630D02*
X10780D01*
X11630D02*
X11780D01*
X12630D02*
X12780D01*
X13630D02*
X13780D01*
X14630D02*
X14780D01*
X15630D02*
X15780D01*
X16630D02*
X16780D01*
X17630D02*
X17780D01*
X18630D02*
X19071D01*
X5217Y21944D02*
X5780D01*
X6630D02*
X6780D01*
X7630D02*
X7780D01*
X8630D02*
X8780D01*
X9630D02*
X9780D01*
X10630D02*
X10780D01*
X11630D02*
X11780D01*
X12630D02*
X12780D01*
X13630D02*
X13780D01*
X14630D02*
X14780D01*
X15630D02*
X15780D01*
X16630D02*
X16780D01*
X17630D02*
X17780D01*
X18630D02*
X19023D01*
X5265Y21992D02*
X5780D01*
X6630D02*
X6780D01*
X7630D02*
X7780D01*
X8630D02*
X8780D01*
X9630D02*
X9780D01*
X10630D02*
X10780D01*
X11630D02*
X11780D01*
X12630D02*
X12780D01*
X13630D02*
X13780D01*
X14630D02*
X14780D01*
X15630D02*
X15780D01*
X16630D02*
X16780D01*
X17630D02*
X17780D01*
X18630D02*
X18975D01*
X5314Y22040D02*
X5780D01*
X6630D02*
X6780D01*
X7630D02*
X7780D01*
X8630D02*
X8780D01*
X9630D02*
X9780D01*
X10630D02*
X10780D01*
X11630D02*
X11780D01*
X12630D02*
X12780D01*
X13630D02*
X13780D01*
X14630D02*
X14780D01*
X15630D02*
X15780D01*
X16630D02*
X16780D01*
X17630D02*
X17780D01*
X18630D02*
X18926D01*
X5362Y22088D02*
X5780D01*
X6630D02*
X6780D01*
X7630D02*
X7780D01*
X8630D02*
X8780D01*
X9630D02*
X9780D01*
X10630D02*
X10780D01*
X11630D02*
X11780D01*
X12630D02*
X12780D01*
X13630D02*
X13780D01*
X14630D02*
X14780D01*
X15630D02*
X15780D01*
X16630D02*
X16780D01*
X17630D02*
X17780D01*
X18630D02*
X18878D01*
X5410Y22136D02*
X5780D01*
X6630D02*
X6780D01*
X7630D02*
X7780D01*
X8630D02*
X8780D01*
X9630D02*
X9780D01*
X10630D02*
X10780D01*
X11630D02*
X11780D01*
X12630D02*
X12780D01*
X13630D02*
X13780D01*
X14630D02*
X14780D01*
X15630D02*
X15780D01*
X16630D02*
X16780D01*
X17630D02*
X17780D01*
X18630D02*
X18830D01*
X5458Y22184D02*
X18782D01*
X5506Y22232D02*
X18734D01*
X5554Y22280D02*
X18686D01*
X5602Y22328D02*
X18638D01*
X5650Y22376D02*
X18590D01*
X5698Y22424D02*
X18542D01*
X5746Y22472D02*
X18494D01*
X5794Y22520D02*
X18446D01*
X5842Y22568D02*
X18398D01*
X5890Y22616D02*
X18350D01*
X5938Y22664D02*
X18302D01*
X5986Y22712D02*
X18254D01*
X6034Y22760D02*
X18206D01*
X6082Y22808D02*
X18158D01*
X6130Y22856D02*
X18110D01*
X6178Y22905D02*
X18062D01*
X6226Y22953D02*
X18014D01*
X6274Y23001D02*
X17966D01*
X6322Y23049D02*
X17918D01*
X6370Y23097D02*
X17870D01*
X6418Y23145D02*
X17822D01*
X6466Y23193D02*
X17774D01*
X6514Y23241D02*
X17726D01*
X6562Y23289D02*
X17678D01*
X6610Y23337D02*
X17630D01*
X6658Y23385D02*
X17582D01*
X6706Y23433D02*
X17534D01*
X6754Y23481D02*
X17486D01*
X6802Y23529D02*
X17438D01*
X6851Y23577D02*
X17389D01*
X6899Y23625D02*
X17341D01*
X6947Y23673D02*
X17293D01*
X6995Y23721D02*
X17245D01*
X7043Y23769D02*
X17197D01*
X7091Y23817D02*
X17149D01*
X7139Y23865D02*
X17101D01*
X7187Y23913D02*
X17053D01*
X5060Y11245D02*
Y11165D01*
X5059Y11146*
X5055Y11127*
X5049Y11110*
X5041Y11093*
X5030Y11077*
X5018Y11062*
X4200Y10245*
Y10115*
X8115Y6200*
X8338*
X6468Y8070*
X7090Y8693*
X7351Y8432*
X7356Y8459*
X7363Y8486*
X7373Y8512*
X7386Y8536*
X7402Y8559*
X7420Y8581*
X7440Y8600*
X7463Y8616*
X7486Y8631*
X7512Y8642*
X7538Y8651*
X7565Y8657*
X7593Y8660*
X7621Y8659*
X7649Y8656*
X5060Y11245*
X5103Y9551D02*
X5077Y9555D01*
X5050Y9561*
X5025Y9570*
X5001Y9582*
X4978Y9597*
X4957Y9614*
X4937Y9632*
X4920Y9653*
X4905Y9676*
X4893Y9700*
X4883Y9725*
X4876Y9751*
X4871Y9778*
X4870Y9805*
X4872Y9833*
X4876Y9860*
X4884Y9887*
X4894Y9913*
X4907Y9937*
X4923Y9960*
X4941Y9981*
X4961Y10000*
X4983Y10017*
X5007Y10031*
X5033Y10043*
X5059Y10051*
X5086Y10057*
X5114Y10060*
X5142Y10059*
X5170Y10056*
X5197Y10050*
X5223Y10041*
X5248Y10028*
X5272Y10014*
X5293Y9997*
X5313Y9977*
X5331Y9956*
X5346Y9932*
X5359Y9907*
X5368Y9881*
X5375Y9854*
X5379Y9827*
X5388Y9818*
X5514Y9944*
X6136Y9322*
X5570Y8756*
X4948Y9378*
X5112Y9542*
X5103Y9551*
X8113Y6202D02*
X8337D01*
X8065Y6250D02*
X8289D01*
X8017Y6298D02*
X8241D01*
X7969Y6346D02*
X8193D01*
X7921Y6394D02*
X8145D01*
X7873Y6442D02*
X8097D01*
X7825Y6490D02*
X8049D01*
X7777Y6538D02*
X8001D01*
X7729Y6586D02*
X7953D01*
X7681Y6634D02*
X7905D01*
X7633Y6682D02*
X7857D01*
X7585Y6730D02*
X7809D01*
X7537Y6778D02*
X7760D01*
X7489Y6826D02*
X7712D01*
X7441Y6874D02*
X7664D01*
X7393Y6922D02*
X7616D01*
X7345Y6970D02*
X7568D01*
X7297Y7018D02*
X7520D01*
X7249Y7066D02*
X7472D01*
X7201Y7114D02*
X7424D01*
X7153Y7162D02*
X7376D01*
X7105Y7210D02*
X7328D01*
X7057Y7258D02*
X7280D01*
X7009Y7306D02*
X7232D01*
X6961Y7354D02*
X7184D01*
X6913Y7402D02*
X7136D01*
X6865Y7450D02*
X7088D01*
X6817Y7498D02*
X7040D01*
X6769Y7546D02*
X6992D01*
X6721Y7595D02*
X6944D01*
X6673Y7643D02*
X6896D01*
X6624Y7691D02*
X6848D01*
X6576Y7739D02*
X6800D01*
X6528Y7787D02*
X6752D01*
X6480Y7835D02*
X6704D01*
X6432Y7883D02*
X6656D01*
X6384Y7931D02*
X6608D01*
X6336Y7979D02*
X6560D01*
X6288Y8027D02*
X6512D01*
X6240Y8075D02*
X6473D01*
X6192Y8123D02*
X6521D01*
X6144Y8171D02*
X6569D01*
X6096Y8219D02*
X6617D01*
X6048Y8267D02*
X6665D01*
X6000Y8315D02*
X6713D01*
X5952Y8363D02*
X6761D01*
X5904Y8411D02*
X6809D01*
X5856Y8459D02*
X6857D01*
X7324D02*
X7356D01*
X5808Y8507D02*
X6905D01*
X7276D02*
X7371D01*
X5760Y8555D02*
X6953D01*
X7228D02*
X7399D01*
X5712Y8603D02*
X7001D01*
X7180D02*
X7445D01*
X5664Y8651D02*
X7049D01*
X7132D02*
X7539D01*
X5616Y8699D02*
X7606D01*
X5568Y8747D02*
X7558D01*
X5520Y8795D02*
X5531D01*
X5609D02*
X7510D01*
X5472Y8843D02*
X5483D01*
X5657D02*
X7462D01*
X5424Y8891D02*
X5435D01*
X5705D02*
X7414D01*
X5376Y8939D02*
X5387D01*
X5753D02*
X7366D01*
X5328Y8987D02*
X5339D01*
X5801D02*
X7317D01*
X5280Y9035D02*
X5291D01*
X5849D02*
X7269D01*
X5232Y9084D02*
X5243D01*
X5897D02*
X7221D01*
X5184Y9132D02*
X5195D01*
X5945D02*
X7173D01*
X5136Y9180D02*
X5147D01*
X5993D02*
X7125D01*
X5087Y9228D02*
X5099D01*
X6041D02*
X7077D01*
X5039Y9276D02*
X5051D01*
X6089D02*
X7029D01*
X4991Y9324D02*
X5003D01*
X6134D02*
X6981D01*
X4943Y9372D02*
X4955D01*
X6086D02*
X6933D01*
X4895Y9420D02*
X4989D01*
X6038D02*
X6885D01*
X4847Y9468D02*
X5037D01*
X5990D02*
X6837D01*
X4799Y9516D02*
X5085D01*
X5942D02*
X6789D01*
X4751Y9564D02*
X5042D01*
X5894D02*
X6741D01*
X4703Y9612D02*
X4959D01*
X5846D02*
X6693D01*
X4655Y9660D02*
X4915D01*
X5798D02*
X6645D01*
X4607Y9708D02*
X4889D01*
X5750D02*
X6597D01*
X4559Y9756D02*
X4875D01*
X5702D02*
X6549D01*
X4511Y9804D02*
X4870D01*
X5654D02*
X6501D01*
X4463Y9852D02*
X4874D01*
X5376D02*
X5421D01*
X5606D02*
X6453D01*
X4415Y9900D02*
X4888D01*
X5362D02*
X5469D01*
X5558D02*
X6405D01*
X4367Y9948D02*
X4914D01*
X5336D02*
X6357D01*
X4319Y9996D02*
X4956D01*
X5294D02*
X6309D01*
X4271Y10044D02*
X5036D01*
X5214D02*
X6261D01*
X4223Y10092D02*
X6213D01*
X4200Y10140D02*
X6165D01*
X4200Y10188D02*
X6117D01*
X4200Y10236D02*
X6069D01*
X4239Y10284D02*
X6021D01*
X4287Y10332D02*
X5973D01*
X4335Y10380D02*
X5925D01*
X4383Y10428D02*
X5877D01*
X4431Y10476D02*
X5829D01*
X4480Y10524D02*
X5780D01*
X4528Y10572D02*
X5732D01*
X4576Y10621D02*
X5684D01*
X4624Y10669D02*
X5636D01*
X4672Y10717D02*
X5588D01*
X4720Y10765D02*
X5540D01*
X4768Y10813D02*
X5492D01*
X4816Y10861D02*
X5444D01*
X4864Y10909D02*
X5396D01*
X4912Y10957D02*
X5348D01*
X4960Y11005D02*
X5300D01*
X5008Y11053D02*
X5252D01*
X5045Y11101D02*
X5204D01*
X5059Y11149D02*
X5156D01*
X5060Y11197D02*
X5108D01*
X7985Y7798D02*
X8359Y7424D01*
X8623Y7682*
X8190Y8115*
X8190Y8105*
X8189Y8078*
X8184Y8052*
X8178Y8026*
X8168Y8001*
X8156Y7977*
X8141Y7955*
X8124Y7934*
X8106Y7915*
X8085Y7899*
X8062Y7884*
X8051Y7867*
X8038Y7851*
X7985Y7798*
X8321Y7462D02*
X8397D01*
X8273Y7510D02*
X8446D01*
X8225Y7558D02*
X8496D01*
X8177Y7606D02*
X8545D01*
X8129Y7654D02*
X8594D01*
X8081Y7702D02*
X8603D01*
X8033Y7750D02*
X8555D01*
X7985Y7798D02*
X8507D01*
X8033Y7846D02*
X8459D01*
X8078Y7894D02*
X8411D01*
X8131Y7942D02*
X8363D01*
X8163Y7990D02*
X8315D01*
X8181Y8038D02*
X8267D01*
X8189Y8086D02*
X8219D01*
X16801Y12471D02*
X16817Y12449D01*
X16830Y12425*
X16840Y12401*
X16849Y12375*
X16855Y12349*
X16859Y12322*
X16860Y12295*
Y12237*
X16905*
Y11593*
X16860*
Y11392*
X16992*
Y10906*
X16801*
X16775Y10890*
X16748Y10876*
X16720Y10866*
X16691Y10858*
X16661Y10854*
X16631Y10852*
X16601Y10854*
X16571Y10858*
X16542Y10866*
X16513Y10876*
X16486Y10890*
X16461Y10906*
X16270*
Y11130*
X16080*
Y11080*
X15220*
Y10942*
X15270*
Y10910*
X15390*
Y10910*
X15880*
Y10030*
X15823*
X15812Y10011*
X15799Y9993*
X15784Y9976*
X15614Y9806*
X15596Y9790*
X15577Y9777*
X15556Y9765*
X15535Y9756*
X15512Y9750*
X15489Y9746*
X15465Y9744*
X15270*
Y9708*
X15220*
Y9607*
X15347*
Y9503*
X15370Y9517*
X15395Y9529*
X15421Y9539*
X15447Y9545*
X15474Y9549*
X15502Y9550*
X15529Y9548*
X15556Y9542*
X15583Y9534*
X15608Y9524*
X15632Y9510*
X15654Y9494*
X15675Y9476*
X15693Y9456*
X15709Y9433*
X15723Y9410*
X15734Y9384*
X15742Y9358*
X15747Y9331*
X15750Y9304*
X15749Y9277*
X15746Y9249*
X17905Y7090*
X20650*
Y7370*
X21500*
Y6520*
X20650*
Y6800*
X17845*
X17826Y6801*
X17807Y6805*
X17790Y6811*
X17773Y6819*
X17757Y6830*
X17742Y6842*
X15541Y9044*
X15516Y9041*
X15490Y9040*
X15465Y9042*
X15439Y9046*
X15415Y9053*
X15391Y9062*
X15368Y9074*
X15347Y9087*
Y8924*
X15100*
X14940Y8768*
X15232*
Y8046*
X15216*
X15214Y8023*
X15210Y8000*
X15203Y7979*
X15194Y7958*
X15183Y7938*
X15169Y7919*
X15154Y7902*
X14996Y7744*
X15145*
X15158Y7769*
X15174Y7792*
X15193Y7814*
X15214Y7833*
X15237Y7849*
X15261Y7863*
X15287Y7874*
X15314Y7883*
X15342Y7888*
X15370Y7890*
X15398Y7889*
X15426Y7885*
X15454Y7878*
X15480Y7867*
X15505Y7854*
X15528Y7839*
X15550Y7820*
X15569Y7800*
X16045*
X16064Y7799*
X16083Y7795*
X16100Y7789*
X16117Y7781*
X16133Y7770*
X16148Y7758*
X17638Y6268*
X17650Y6253*
X17661Y6237*
X17669Y6220*
X17675Y6203*
X17679Y6184*
X17680Y6165*
Y4215*
X17679Y4196*
X17675Y4177*
X17669Y4160*
X17661Y4143*
X17650Y4127*
X17638Y4112*
X17528Y4002*
X17513Y3990*
X17496Y3979*
X17479Y3970*
X17460Y3964*
Y3750*
X17461*
X17480Y3770*
X17502Y3789*
X17525Y3804*
X17550Y3817*
X17576Y3828*
X17604Y3835*
X17632Y3839*
X17660Y3840*
X17688Y3838*
X17716Y3833*
X17743Y3824*
X17769Y3813*
X17793Y3799*
X17816Y3783*
X17837Y3764*
X17856Y3742*
X17872Y3719*
X17885Y3694*
X17896Y3668*
X17904Y3641*
X17908Y3613*
X17910Y3585*
X17908Y3557*
X17904Y3529*
X17896Y3502*
X17885Y3476*
X17872Y3451*
X17856Y3427*
X17837Y3406*
X17816Y3387*
X17793Y3371*
X17768Y3357*
X17742Y3345*
X17715Y3337*
X17688Y3332*
X17659Y3330*
X17631Y3331*
X17603Y3335*
X17576Y3343*
X17550Y3353*
X17524Y3366*
X17501Y3382*
X17479Y3400*
X17460Y3421*
Y1885*
X18591*
X23945Y7239*
Y7755*
X23925Y7702*
X23902Y7651*
X23876Y7600*
X23847Y7552*
X23816Y7504*
X23783Y7459*
X23747Y7415*
X23708Y7374*
X23668Y7334*
X23625Y7297*
X23581Y7262*
X23535Y7229*
X23487Y7199*
X23437Y7172*
X23386Y7147*
X23334Y7126*
X23281Y7107*
X23226Y7091*
X23171Y7077*
X23116Y7067*
X23059Y7060*
X23003Y7056*
X22946Y7055*
X22890Y7057*
X22834Y7062*
X22778Y7070*
X22722Y7081*
X22667Y7095*
X22613Y7112*
X22560Y7132*
X22509Y7155*
X22458Y7180*
X22409Y7208*
X22361Y7239*
X22316Y7272*
X22272Y7308*
X22230Y7346*
X22190Y7386*
X22152Y7428*
X22117Y7472*
X22084Y7518*
X22054Y7566*
X22026Y7615*
X22001Y7666*
X21979Y7718*
X21959Y7771*
X21943Y7825*
X21929Y7880*
X21919Y7936*
X21911Y7992*
X21907Y8048*
X21905Y8105*
X21907Y8162*
X21911Y8218*
X21919Y8274*
X21929Y8330*
X21943Y8384*
X21959Y8439*
X21979Y8492*
X22001Y8544*
X22026Y8594*
X22054Y8644*
X22084Y8692*
X22117Y8738*
X22152Y8782*
X22190Y8824*
X22230Y8864*
X22272Y8902*
X22316Y8938*
X22361Y8971*
X22409Y9002*
X22458Y9030*
X22508Y9055*
X22560Y9078*
X22613Y9098*
X22667Y9115*
X22722Y9129*
X22777Y9140*
X22833Y9148*
X22890Y9153*
X22946Y9155*
X23003Y9154*
X23059Y9150*
X23115Y9143*
X23171Y9133*
X23226Y9119*
X23280Y9103*
X23334Y9084*
X23386Y9063*
X23437Y9038*
X23486Y9011*
X23534Y8981*
X23581Y8948*
X23625Y8913*
X23668Y8876*
X23708Y8837*
X23746Y8795*
X23783Y8751*
X23816Y8706*
X23847Y8659*
X23876Y8610*
X23902Y8559*
X23925Y8508*
X23945Y8455*
Y9665*
X23744*
X23757Y9641*
X23767Y9615*
X23774Y9589*
X23779Y9562*
X23780Y9535*
X23779Y9507*
X23774Y9480*
X23767Y9454*
X23756Y9428*
X23744Y9404*
X23728Y9381*
X23710Y9360*
X23690Y9341*
X23668Y9324*
X23644Y9310*
X23619Y9298*
X23593Y9289*
X23566Y9283*
X23539Y9280*
X23511*
X23484Y9283*
X23457Y9289*
X23431Y9298*
X23406Y9310*
X23382Y9324*
X23360Y9341*
X23340Y9360*
X23322Y9381*
X23307Y9403*
X23294Y9428*
X23283Y9453*
X23276Y9480*
X23272Y9507*
X23270Y9535*
X23271Y9563*
X23276Y9590*
X23284Y9617*
X23294Y9643*
X23307Y9667*
X23323Y9690*
X23230*
Y9665*
X22660*
Y9902*
X22653Y9929*
X22650Y9957*
X22648Y9985*
X22650Y10013*
X22653Y10041*
X22660Y10068*
Y10305*
X23230*
Y10280*
X23500*
Y10305*
X23945*
Y13725*
X23500*
Y13800*
X23230*
Y13725*
X22820*
Y13460*
X23095*
Y13137*
X23110Y13163*
X23128Y13187*
X23148Y13209*
X23170Y13230*
X23194Y13248*
X23220Y13263*
X23247Y13276*
X23276Y13287*
X23305Y13294*
X23335Y13298*
X23365Y13300*
X23396Y13298*
X23426Y13294*
X23456Y13286*
X23485Y13275*
X23513Y13262*
X23539Y13245*
X23564Y13226*
X23586Y13205*
X23606Y13182*
X23624Y13156*
X23639Y13129*
X23651Y13101*
X23660Y13071*
X23666Y13041*
X23670Y13010*
Y12979*
X23666Y12949*
X23660Y12919*
X23651Y12889*
X23639Y12861*
X23624Y12834*
X23606Y12808*
X23586Y12785*
X23564Y12764*
X23539Y12745*
X23513Y12728*
X23485Y12715*
X23456Y12704*
X23426Y12696*
X23396Y12692*
X23365Y12690*
X23335Y12691*
X23305Y12696*
X23276Y12703*
X23247Y12714*
X23220Y12727*
X23194Y12742*
X23170Y12760*
X23148Y12781*
X23128Y12803*
X23110Y12827*
X23095Y12853*
Y12340*
X22845*
Y11690*
X23095*
Y11177*
X23110Y11203*
X23128Y11227*
X23148Y11249*
X23170Y11270*
X23194Y11288*
X23220Y11303*
X23247Y11316*
X23276Y11327*
X23305Y11334*
X23335Y11338*
X23365Y11340*
X23396Y11338*
X23426Y11334*
X23456Y11326*
X23485Y11315*
X23513Y11302*
X23539Y11285*
X23564Y11266*
X23586Y11245*
X23606Y11222*
X23624Y11196*
X23639Y11169*
X23651Y11141*
X23660Y11111*
X23666Y11081*
X23670Y11050*
Y11019*
X23666Y10989*
X23660Y10959*
X23651Y10929*
X23639Y10901*
X23624Y10874*
X23606Y10848*
X23586Y10825*
X23564Y10804*
X23539Y10785*
X23513Y10768*
X23485Y10755*
X23456Y10744*
X23426Y10736*
X23396Y10732*
X23365Y10730*
X23335Y10731*
X23305Y10736*
X23276Y10743*
X23247Y10754*
X23220Y10767*
X23194Y10782*
X23170Y10800*
X23148Y10821*
X23128Y10843*
X23110Y10867*
X23095Y10893*
Y10570*
X22255*
Y10861*
X22250Y10866*
Y10590*
X22166*
Y10464*
X22185Y10446*
X22201Y10425*
X22216Y10402*
X22228Y10379*
X22238Y10354*
X22244Y10328*
X22249Y10302*
X22250Y10275*
X22249Y10247*
X22244Y10220*
X22237Y10194*
X22226Y10168*
X22214Y10144*
X22198Y10121*
X22180Y10100*
X22160Y10081*
X22138Y10064*
X22114Y10050*
X22089Y10038*
X22063Y10029*
X22036Y10023*
X22009Y10020*
X21981*
X21954Y10023*
X21927Y10029*
X21901Y10038*
X21876Y10050*
X21852Y10064*
X21830Y10081*
X21810Y10100*
X21792Y10121*
X21777Y10143*
X21764Y10168*
X21753Y10193*
X21746Y10220*
X21742Y10247*
X21740Y10275*
X21741Y10302*
X21746Y10328*
X21752Y10353*
X21762Y10378*
X21774Y10402*
X21788Y10424*
X21805Y10445*
X21824Y10464*
X21844Y10481*
Y10590*
X21310*
Y11470*
X21410*
Y11605*
X21390Y11621*
X21371Y11638*
X21355Y11657*
X21340Y11678*
X21324Y11656*
X21306Y11635*
X21286Y11617*
Y10625*
X21284Y10604*
X21280Y10583*
X21273Y10563*
X21264Y10544*
X21252Y10527*
X21238Y10511*
X20002Y9279*
Y8998*
X19596*
Y8972*
X19611Y8950*
X19624Y8926*
X19635Y8901*
X19643Y8876*
X19648Y8849*
X19650Y8822*
X19649Y8795*
X19646Y8768*
X19639Y8742*
X19630Y8716*
X19618Y8692*
X20002*
Y7970*
X19596*
Y7880*
X19630*
Y7390*
X18750*
Y7880*
X19174*
Y7970*
X18768*
Y8692*
X19172*
X19160Y8716*
X19151Y8741*
X19144Y8767*
X19141Y8794*
X19140Y8821*
X19142Y8847*
X19147Y8873*
X19154Y8899*
X19164Y8924*
Y8998*
X18768*
Y9139*
X18744Y9155*
X18722Y9172*
X18702Y9191*
X18683Y9213*
X18667Y9235*
X18653Y9260*
X18641Y9285*
X18632Y9312*
X18625Y9339*
X18621Y9367*
X18620Y9395*
Y10365*
X18621Y10394*
X18626Y10423*
X18633Y10451*
X18642Y10478*
X18655Y10504*
X18670Y10529*
X18687Y10552*
X18706Y10574*
X19126Y10994*
X19148Y11013*
X19171Y11030*
X19196Y11045*
X19222Y11058*
X19249Y11067*
X19277Y11074*
X19306Y11079*
X19335Y11080*
X19633*
Y11155*
X20277*
Y11002*
X20440Y11165*
Y11895*
X20441Y11914*
X20445Y11933*
X20451Y11950*
X20459Y11967*
X20470Y11983*
X20482Y11998*
X21192Y12708*
X21207Y12720*
X21223Y12731*
X21240Y12739*
X21257Y12745*
X21276Y12749*
X21295Y12750*
X22255*
Y12870*
X23087*
X23079Y12890*
X23072Y12909*
X23067Y12930*
X22255*
Y13460*
X22530*
Y13725*
X22521Y13734*
X22493Y13731*
X22465Y13730*
X22437Y13733*
X22410Y13738*
X22384Y13747*
X22358Y13758*
X22334Y13772*
X22312Y13789*
X22291Y13808*
X22273Y13829*
X22257Y13852*
X22244Y13877*
X22234Y13903*
X22226Y13930*
X22221Y13957*
X22220Y13985*
X22221Y14012*
X22226Y14038*
X22232Y14064*
X22242Y14089*
X22254Y14112*
X22269Y14135*
X22285Y14155*
X22304Y14174*
X22325Y14191*
X22347Y14206*
X22371Y14218*
X22396Y14227*
X22421Y14234*
X22448Y14239*
X22474Y14240*
X22074Y14640*
X21349*
X21331Y14621*
X21311Y14604*
X20655Y13948*
Y12890*
X20015*
Y14520*
X20393*
X20894Y15021*
X20914Y15043*
X20936Y15064*
X20960Y15082*
X20986Y15097*
X21013Y15110*
X20845*
Y16700*
X21685*
Y15110*
X21237*
X21262Y15098*
X21286Y15084*
X21308Y15068*
X21329Y15050*
X21349Y15030*
X22155*
X22177Y15029*
X22198Y15025*
X22219Y15019*
X22240Y15011*
X22259Y15000*
X22277Y14987*
X22293Y14973*
X22901Y14365*
X23230*
Y14290*
X23500*
Y14365*
X23945*
Y15755*
X23925Y15702*
X23902Y15651*
X23876Y15600*
X23847Y15552*
X23816Y15504*
X23783Y15459*
X23747Y15415*
X23708Y15374*
X23668Y15334*
X23625Y15297*
X23581Y15262*
X23535Y15229*
X23487Y15199*
X23437Y15172*
X23386Y15147*
X23334Y15126*
X23281Y15107*
X23226Y15091*
X23171Y15077*
X23116Y15067*
X23059Y15060*
X23003Y15056*
X22946Y15055*
X22890Y15057*
X22834Y15062*
X22778Y15070*
X22722Y15081*
X22667Y15095*
X22613Y15112*
X22560Y15132*
X22509Y15155*
X22458Y15180*
X22409Y15208*
X22361Y15239*
X22316Y15272*
X22272Y15308*
X22230Y15346*
X22190Y15386*
X22152Y15428*
X22117Y15472*
X22084Y15518*
X22054Y15566*
X22026Y15615*
X22001Y15666*
X21979Y15718*
X21959Y15771*
X21943Y15825*
X21929Y15880*
X21919Y15936*
X21911Y15992*
X21907Y16048*
X21905Y16105*
X21907Y16162*
X21911Y16218*
X21919Y16274*
X21929Y16330*
X21943Y16384*
X21959Y16439*
X21979Y16492*
X22001Y16544*
X22026Y16594*
X22054Y16644*
X22084Y16692*
X22117Y16738*
X22152Y16782*
X22190Y16824*
X22230Y16864*
X22272Y16902*
X22316Y16938*
X22361Y16971*
X22409Y17002*
X22458Y17030*
X22508Y17055*
X22560Y17078*
X22613Y17098*
X22667Y17115*
X22722Y17129*
X22777Y17140*
X22833Y17148*
X22890Y17153*
X22946Y17155*
X23003Y17154*
X23059Y17150*
X23115Y17143*
X23171Y17133*
X23226Y17119*
X23280Y17103*
X23334Y17084*
X23386Y17063*
X23437Y17038*
X23486Y17011*
X23534Y16981*
X23581Y16948*
X23625Y16913*
X23668Y16876*
X23708Y16837*
X23746Y16795*
X23783Y16751*
X23816Y16706*
X23847Y16659*
X23876Y16610*
X23902Y16559*
X23925Y16508*
X23945Y16455*
Y17021*
X20908Y20058*
X16975Y16125*
Y12645*
X16801Y12471*
X16914Y10009D02*
Y10158D01*
X16270*
Y10644*
X16918*
X16924Y10669*
X16933Y10692*
X16945Y10714*
X16959Y10735*
X16976Y10754*
X17156Y10934*
X17173Y10949*
X17191Y10962*
X17211Y10974*
X17232Y10983*
X17253Y10989*
X17275Y10994*
X17298Y10996*
Y11392*
X18020*
Y10970*
X18090*
Y11410*
X18580*
Y10530*
X18090*
Y10580*
X18020*
Y10158*
X17336*
Y10009*
X17349Y9987*
X17360Y9964*
X17369Y9940*
X17375Y9916*
X17379Y9890*
X17380Y9865*
X17379Y9837*
X17374Y9810*
X17367Y9784*
X17356Y9758*
X17344Y9734*
X17328Y9711*
X17310Y9690*
X17290Y9671*
X17268Y9654*
X17244Y9640*
X17219Y9628*
X17193Y9619*
X17166Y9613*
X17139Y9610*
X17111*
X17084Y9613*
X17057Y9619*
X17031Y9628*
X17006Y9640*
X16982Y9654*
X16960Y9671*
X16940Y9690*
X16922Y9711*
X16907Y9733*
X16894Y9758*
X16883Y9783*
X16876Y9810*
X16872Y9837*
X16870Y9865*
X16871Y9890*
X16875Y9915*
X16881Y9940*
X16890Y9964*
X16901Y9987*
X16914Y10009*
X17570Y8105D02*
X17571Y8133D01*
X17576Y8160*
X17583Y8186*
X17594Y8212*
X17606Y8236*
X17622Y8259*
X17640Y8280*
X17660Y8299*
X17682Y8316*
X17706Y8330*
X17731Y8342*
X17757Y8351*
X17784Y8357*
X17811Y8360*
X17839*
X17866Y8357*
X17893Y8351*
X17919Y8342*
X17944Y8330*
X17968Y8316*
X17990Y8299*
X18010Y8280*
X18028Y8259*
X18043Y8237*
X18056Y8212*
X18067Y8187*
X18074Y8160*
X18078Y8133*
X18080Y8105*
X18079Y8077*
X18074Y8050*
X18067Y8024*
X18056Y7998*
X18044Y7974*
X18028Y7951*
X18010Y7930*
X17990Y7911*
X17968Y7894*
X17944Y7880*
X17919Y7868*
X17893Y7859*
X17866Y7853*
X17839Y7850*
X17811*
X17784Y7853*
X17757Y7859*
X17731Y7868*
X17706Y7880*
X17682Y7894*
X17660Y7911*
X17640Y7930*
X17622Y7951*
X17607Y7973*
X17594Y7998*
X17583Y8023*
X17576Y8050*
X17572Y8077*
X17570Y8105*
X18094Y3345D02*
X18695Y2744D01*
X18094Y2143*
X17493Y2744*
X18094Y3345*
X18340Y13675D02*
X18339Y13647D01*
X18334Y13620*
X18327Y13594*
X18316Y13568*
X18304Y13544*
X18288Y13521*
X18270Y13500*
X18250Y13481*
X18228Y13464*
X18204Y13450*
X18179Y13438*
X18153Y13429*
X18126Y13423*
X18099Y13420*
X18071*
X18044Y13423*
X18017Y13429*
X17991Y13438*
X17966Y13450*
X17942Y13464*
X17920Y13481*
X17900Y13500*
X17882Y13521*
X17867Y13543*
X17854Y13568*
X17843Y13593*
X17836Y13620*
X17832Y13647*
X17830Y13675*
X17831Y13703*
X17836Y13730*
X17843Y13756*
X17854Y13782*
X17866Y13806*
X17882Y13829*
X17900Y13850*
X17920Y13869*
X17942Y13886*
X17966Y13900*
X17991Y13912*
X18017Y13921*
X18044Y13927*
X18071Y13930*
X18099*
X18126Y13927*
X18153Y13921*
X18179Y13912*
X18204Y13900*
X18228Y13886*
X18250Y13869*
X18270Y13850*
X18288Y13829*
X18303Y13807*
X18316Y13782*
X18327Y13757*
X18334Y13730*
X18338Y13703*
X18340Y13675*
X18801Y4052D02*
X19402Y3451D01*
X18801Y2850*
X18200Y3451*
X18801Y4052*
X19035Y16700D02*
Y15110D01*
X18195*
Y16700*
X19035*
X19180Y15695D02*
X19181Y15723D01*
X19186Y15750*
X19193Y15776*
X19204Y15802*
X19216Y15826*
X19232Y15849*
X19250Y15870*
X19270Y15889*
X19292Y15906*
X19316Y15920*
X19341Y15932*
X19367Y15941*
X19394Y15947*
X19421Y15950*
X19449*
X19476Y15947*
X19503Y15941*
X19529Y15932*
X19554Y15920*
X19578Y15906*
X19600Y15889*
X19620Y15870*
X19638Y15849*
X19653Y15827*
X19666Y15802*
X19677Y15777*
X19684Y15750*
X19688Y15723*
X19690Y15695*
X19689Y15667*
X19684Y15640*
X19677Y15614*
X19666Y15588*
X19654Y15564*
X19638Y15541*
X19620Y15520*
X19600Y15501*
X19578Y15484*
X19554Y15470*
X19529Y15458*
X19503Y15449*
X19476Y15443*
X19449Y15440*
X19421*
X19394Y15443*
X19367Y15449*
X19341Y15458*
X19316Y15470*
X19292Y15484*
X19270Y15501*
X19250Y15520*
X19232Y15541*
X19217Y15563*
X19204Y15588*
X19193Y15613*
X19186Y15640*
X19182Y15667*
X19180Y15695*
X19250Y12890D02*
X19225D01*
Y14520*
X19865*
Y12890*
X19840*
Y12047*
X20033Y11855*
X20277*
Y11176*
X19633*
Y11420*
X19336Y11716*
X19317Y11738*
X19300Y11761*
X19285Y11786*
X19272Y11812*
X19263Y11839*
X19256Y11867*
X19251Y11896*
X19250Y11925*
Y12890*
X19508Y4759D02*
X20109Y4158D01*
X19508Y3557*
X18907Y4158*
X19508Y4759*
X20215Y5466D02*
X20816Y4865D01*
X20215Y4264*
X19614Y4865*
X20215Y5466*
X20650Y6370D02*
X21500D01*
Y5520*
X20650*
Y6370*
Y8370D02*
X21500D01*
Y7520*
X20650*
Y8370*
Y9370D02*
X21500D01*
Y8520*
X20650*
Y9370*
X22160Y6535D02*
X22161Y6563D01*
X22166Y6590*
X22173Y6616*
X22184Y6642*
X22196Y6666*
X22212Y6689*
X22230Y6710*
X22250Y6729*
X22272Y6746*
X22296Y6760*
X22321Y6772*
X22347Y6781*
X22374Y6787*
X22401Y6790*
X22429*
X22456Y6787*
X22483Y6781*
X22509Y6772*
X22534Y6760*
X22558Y6746*
X22580Y6729*
X22600Y6710*
X22618Y6689*
X22633Y6667*
X22646Y6642*
X22657Y6617*
X22664Y6590*
X22668Y6563*
X22670Y6535*
X22669Y6507*
X22664Y6480*
X22657Y6454*
X22646Y6428*
X22634Y6404*
X22618Y6381*
X22600Y6360*
X22580Y6341*
X22558Y6324*
X22534Y6310*
X22509Y6298*
X22483Y6289*
X22456Y6283*
X22429Y6280*
X22401*
X22374Y6283*
X22347Y6289*
X22321Y6298*
X22296Y6310*
X22272Y6324*
X22250Y6341*
X22230Y6360*
X22212Y6381*
X22197Y6403*
X22184Y6428*
X22173Y6453*
X22166Y6480*
X22162Y6507*
X22160Y6535*
X17460Y1904D02*
X18611D01*
X17460Y1953D02*
X18659D01*
X17460Y2001D02*
X18707D01*
X17460Y2049D02*
X18755D01*
X17460Y2097D02*
X18803D01*
X17460Y2145D02*
X18092D01*
X18096D02*
X18851D01*
X17460Y2193D02*
X18044D01*
X18144D02*
X18899D01*
X17460Y2241D02*
X17996D01*
X18192D02*
X18947D01*
X17460Y2289D02*
X17948D01*
X18240D02*
X18995D01*
X17460Y2337D02*
X17900D01*
X18288D02*
X19043D01*
X17460Y2385D02*
X17851D01*
X18336D02*
X19091D01*
X17460Y2433D02*
X17803D01*
X18384D02*
X19139D01*
X17460Y2481D02*
X17755D01*
X18432D02*
X19187D01*
X17460Y2529D02*
X17707D01*
X18480D02*
X19235D01*
X17460Y2577D02*
X17659D01*
X18528D02*
X19283D01*
X17460Y2625D02*
X17611D01*
X18576D02*
X19331D01*
X17460Y2673D02*
X17563D01*
X18624D02*
X19379D01*
X17460Y2721D02*
X17515D01*
X18672D02*
X19427D01*
X17460Y2769D02*
X17518D01*
X18669D02*
X19476D01*
X17460Y2817D02*
X17566D01*
X18621D02*
X19524D01*
X17460Y2865D02*
X17614D01*
X18573D02*
X18785D01*
X18816D02*
X19572D01*
X17460Y2913D02*
X17662D01*
X18525D02*
X18737D01*
X18864D02*
X19620D01*
X17460Y2961D02*
X17710D01*
X18477D02*
X18689D01*
X18912D02*
X19668D01*
X17460Y3009D02*
X17758D01*
X18429D02*
X18641D01*
X18960D02*
X19716D01*
X17460Y3057D02*
X17806D01*
X18381D02*
X18593D01*
X19008D02*
X19764D01*
X17460Y3105D02*
X17854D01*
X18333D02*
X18545D01*
X19056D02*
X19812D01*
X17460Y3153D02*
X17902D01*
X18285D02*
X18497D01*
X19104D02*
X19860D01*
X17460Y3201D02*
X17950D01*
X18237D02*
X18449D01*
X19152D02*
X19908D01*
X17460Y3249D02*
X17998D01*
X18189D02*
X18401D01*
X19200D02*
X19956D01*
X17460Y3297D02*
X18046D01*
X18141D02*
X18353D01*
X19248D02*
X20004D01*
X17460Y3345D02*
X17568D01*
X17742D02*
X18305D01*
X19296D02*
X20052D01*
X17460Y3393D02*
X17487D01*
X17823D02*
X18257D01*
X19344D02*
X20100D01*
X17866Y3441D02*
X18209D01*
X19393D02*
X20148D01*
X17891Y3490D02*
X18239D01*
X19363D02*
X20196D01*
X17906Y3538D02*
X18287D01*
X19315D02*
X20244D01*
X17910Y3586D02*
X18335D01*
X19267D02*
X19479D01*
X19537D02*
X20292D01*
X17905Y3634D02*
X18383D01*
X19219D02*
X19431D01*
X19585D02*
X20340D01*
X17891Y3682D02*
X18431D01*
X19171D02*
X19383D01*
X19633D02*
X20388D01*
X17865Y3730D02*
X18479D01*
X19123D02*
X19335D01*
X19681D02*
X20436D01*
X17460Y3778D02*
X17488D01*
X17822D02*
X18527D01*
X19075D02*
X19287D01*
X19729D02*
X20484D01*
X17460Y3826D02*
X17571D01*
X17739D02*
X18575D01*
X19027D02*
X19239D01*
X19777D02*
X20532D01*
X17460Y3874D02*
X18623D01*
X18979D02*
X19191D01*
X19825D02*
X20580D01*
X17460Y3922D02*
X18671D01*
X18931D02*
X19143D01*
X19873D02*
X20628D01*
X17478Y3970D02*
X18719D01*
X18883D02*
X19095D01*
X19921D02*
X20676D01*
X17543Y4018D02*
X18767D01*
X18835D02*
X19047D01*
X19969D02*
X20724D01*
X17591Y4066D02*
X18999D01*
X20017D02*
X20772D01*
X17639Y4114D02*
X18951D01*
X20065D02*
X20820D01*
X17670Y4162D02*
X18911D01*
X20105D02*
X20868D01*
X17680Y4210D02*
X18959D01*
X20057D02*
X20916D01*
X17680Y4258D02*
X19007D01*
X20009D02*
X20964D01*
X17680Y4306D02*
X19055D01*
X19961D02*
X20173D01*
X20257D02*
X21013D01*
X17680Y4354D02*
X19103D01*
X19913D02*
X20125D01*
X20305D02*
X21061D01*
X17680Y4402D02*
X19151D01*
X19865D02*
X20077D01*
X20353D02*
X21109D01*
X17680Y4450D02*
X19199D01*
X19817D02*
X20029D01*
X20401D02*
X21157D01*
X17680Y4498D02*
X19247D01*
X19769D02*
X19981D01*
X20449D02*
X21205D01*
X17680Y4546D02*
X19295D01*
X19721D02*
X19933D01*
X20497D02*
X21253D01*
X17680Y4594D02*
X19343D01*
X19673D02*
X19885D01*
X20545D02*
X21301D01*
X17680Y4642D02*
X19391D01*
X19624D02*
X19837D01*
X20593D02*
X21349D01*
X17680Y4690D02*
X19439D01*
X19576D02*
X19789D01*
X20641D02*
X21397D01*
X17680Y4738D02*
X19487D01*
X19528D02*
X19741D01*
X20689D02*
X21445D01*
X17680Y4786D02*
X19693D01*
X20737D02*
X21493D01*
X17680Y4834D02*
X19645D01*
X20785D02*
X21541D01*
X17680Y4882D02*
X19631D01*
X20799D02*
X21589D01*
X17680Y4930D02*
X19679D01*
X20751D02*
X21637D01*
X17680Y4979D02*
X19727D01*
X20703D02*
X21685D01*
X17680Y5027D02*
X19776D01*
X20654D02*
X21733D01*
X17680Y5075D02*
X19824D01*
X20606D02*
X21781D01*
X17680Y5123D02*
X19872D01*
X20558D02*
X21829D01*
X17680Y5171D02*
X19920D01*
X20510D02*
X21877D01*
X17680Y5219D02*
X19968D01*
X20462D02*
X21925D01*
X17680Y5267D02*
X20016D01*
X20414D02*
X21973D01*
X17680Y5315D02*
X20064D01*
X20366D02*
X22021D01*
X17680Y5363D02*
X20112D01*
X20318D02*
X22069D01*
X17680Y5411D02*
X20160D01*
X20270D02*
X22117D01*
X17680Y5459D02*
X20208D01*
X20222D02*
X22165D01*
X17680Y5507D02*
X22213D01*
X17680Y5555D02*
X20650D01*
X21500D02*
X22261D01*
X17680Y5603D02*
X20650D01*
X21500D02*
X22309D01*
X17680Y5651D02*
X20650D01*
X21500D02*
X22357D01*
X17680Y5699D02*
X20650D01*
X21500D02*
X22405D01*
X17680Y5747D02*
X20650D01*
X21500D02*
X22453D01*
X17680Y5795D02*
X20650D01*
X21500D02*
X22501D01*
X17680Y5843D02*
X20650D01*
X21500D02*
X22550D01*
X17680Y5891D02*
X20650D01*
X21500D02*
X22598D01*
X17680Y5939D02*
X20650D01*
X21500D02*
X22646D01*
X17680Y5987D02*
X20650D01*
X21500D02*
X22694D01*
X17680Y6035D02*
X20650D01*
X21500D02*
X22742D01*
X17680Y6083D02*
X20650D01*
X21500D02*
X22790D01*
X17680Y6131D02*
X20650D01*
X21500D02*
X22838D01*
X17679Y6179D02*
X20650D01*
X21500D02*
X22886D01*
X17666Y6227D02*
X20650D01*
X21500D02*
X22934D01*
X17630Y6275D02*
X20650D01*
X21500D02*
X22982D01*
X17582Y6323D02*
X20650D01*
X21500D02*
X22273D01*
X22557D02*
X23030D01*
X17534Y6371D02*
X22219D01*
X22611D02*
X23078D01*
X17486Y6419D02*
X22188D01*
X22642D02*
X23126D01*
X17438Y6467D02*
X22169D01*
X22661D02*
X23174D01*
X17390Y6516D02*
X22161D01*
X22669D02*
X23222D01*
X17341Y6564D02*
X20650D01*
X21500D02*
X22162D01*
X22668D02*
X23270D01*
X17293Y6612D02*
X20650D01*
X21500D02*
X22172D01*
X22658D02*
X23318D01*
X17245Y6660D02*
X20650D01*
X21500D02*
X22193D01*
X22637D02*
X23366D01*
X17197Y6708D02*
X20650D01*
X21500D02*
X22227D01*
X22603D02*
X23414D01*
X17149Y6756D02*
X20650D01*
X21500D02*
X22287D01*
X22543D02*
X23462D01*
X17101Y6804D02*
X17812D01*
X21500D02*
X23510D01*
X17053Y6852D02*
X17733D01*
X21500D02*
X23558D01*
X17005Y6900D02*
X17685D01*
X21500D02*
X23606D01*
X16957Y6948D02*
X17637D01*
X21500D02*
X23654D01*
X16909Y6996D02*
X17589D01*
X21500D02*
X23702D01*
X16861Y7044D02*
X17541D01*
X21500D02*
X23750D01*
X16813Y7092D02*
X17493D01*
X17903D02*
X20650D01*
X21500D02*
X22679D01*
X23231D02*
X23798D01*
X16765Y7140D02*
X17445D01*
X17855D02*
X20650D01*
X21500D02*
X22541D01*
X23369D02*
X23846D01*
X16717Y7188D02*
X17397D01*
X17807D02*
X20650D01*
X21500D02*
X22444D01*
X23466D02*
X23894D01*
X16669Y7236D02*
X17349D01*
X17759D02*
X20650D01*
X21500D02*
X22366D01*
X23544D02*
X23942D01*
X16621Y7284D02*
X17301D01*
X17711D02*
X20650D01*
X21500D02*
X22300D01*
X23610D02*
X23945D01*
X16573Y7332D02*
X17253D01*
X17663D02*
X20650D01*
X21500D02*
X22244D01*
X23666D02*
X23945D01*
X16525Y7380D02*
X17205D01*
X17615D02*
X22195D01*
X23715D02*
X23945D01*
X16477Y7428D02*
X17157D01*
X17567D02*
X18750D01*
X19630D02*
X22152D01*
X23758D02*
X23945D01*
X16429Y7476D02*
X17109D01*
X17519D02*
X18750D01*
X19630D02*
X22114D01*
X23796D02*
X23945D01*
X16381Y7524D02*
X17061D01*
X17471D02*
X18750D01*
X19630D02*
X20650D01*
X21500D02*
X22080D01*
X23830D02*
X23945D01*
X16333Y7572D02*
X17013D01*
X17423D02*
X18750D01*
X19630D02*
X20650D01*
X21500D02*
X22050D01*
X23860D02*
X23945D01*
X16285Y7620D02*
X16965D01*
X17375D02*
X18750D01*
X19630D02*
X20650D01*
X21500D02*
X22024D01*
X23886D02*
X23945D01*
X16237Y7668D02*
X16917D01*
X17327D02*
X18750D01*
X19630D02*
X20650D01*
X21500D02*
X22000D01*
X23910D02*
X23945D01*
X16189Y7716D02*
X16869D01*
X17279D02*
X18750D01*
X19630D02*
X20650D01*
X21500D02*
X21980D01*
X23930D02*
X23945D01*
X15016Y7764D02*
X15155D01*
X16140D02*
X16821D01*
X17231D02*
X18750D01*
X19630D02*
X20650D01*
X21500D02*
X21962D01*
X15064Y7812D02*
X15192D01*
X15558D02*
X16773D01*
X17183D02*
X18750D01*
X19630D02*
X20650D01*
X21500D02*
X21947D01*
X15112Y7860D02*
X15256D01*
X15494D02*
X16725D01*
X17135D02*
X17753D01*
X17897D02*
X18750D01*
X19630D02*
X20650D01*
X21500D02*
X21934D01*
X15160Y7908D02*
X16677D01*
X17087D02*
X17663D01*
X17987D02*
X19174D01*
X19596D02*
X20650D01*
X21500D02*
X21924D01*
X15193Y7956D02*
X16628D01*
X17039D02*
X17618D01*
X18032D02*
X19174D01*
X19596D02*
X20650D01*
X21500D02*
X21916D01*
X15210Y8004D02*
X16580D01*
X16991D02*
X17591D01*
X18059D02*
X18768D01*
X20002D02*
X20650D01*
X21500D02*
X21910D01*
X15232Y8053D02*
X16532D01*
X16943D02*
X17575D01*
X18075D02*
X18768D01*
X20002D02*
X20650D01*
X21500D02*
X21906D01*
X15232Y8101D02*
X16484D01*
X16895D02*
X17570D01*
X18080D02*
X18768D01*
X20002D02*
X20650D01*
X21500D02*
X21905D01*
X15232Y8149D02*
X16436D01*
X16846D02*
X17574D01*
X18076D02*
X18768D01*
X20002D02*
X20650D01*
X21500D02*
X21906D01*
X15232Y8197D02*
X16388D01*
X16798D02*
X17587D01*
X18063D02*
X18768D01*
X20002D02*
X20650D01*
X21500D02*
X21909D01*
X15232Y8245D02*
X16340D01*
X16750D02*
X17612D01*
X18038D02*
X18768D01*
X20002D02*
X20650D01*
X21500D02*
X21914D01*
X15232Y8293D02*
X16292D01*
X16702D02*
X17652D01*
X17998D02*
X18768D01*
X20002D02*
X20650D01*
X21500D02*
X21922D01*
X15232Y8341D02*
X16244D01*
X16654D02*
X17728D01*
X17922D02*
X18768D01*
X20002D02*
X20650D01*
X21500D02*
X21932D01*
X15232Y8389D02*
X16196D01*
X16606D02*
X18768D01*
X20002D02*
X21944D01*
X15232Y8437D02*
X16148D01*
X16558D02*
X18768D01*
X20002D02*
X21959D01*
X15232Y8485D02*
X16100D01*
X16510D02*
X18768D01*
X20002D02*
X21976D01*
X23934D02*
X23945D01*
X15232Y8533D02*
X16052D01*
X16462D02*
X18768D01*
X20002D02*
X20650D01*
X21500D02*
X21996D01*
X23914D02*
X23945D01*
X15232Y8581D02*
X16004D01*
X16414D02*
X18768D01*
X20002D02*
X20650D01*
X21500D02*
X22019D01*
X23891D02*
X23945D01*
X15232Y8629D02*
X15956D01*
X16366D02*
X18768D01*
X20002D02*
X20650D01*
X21500D02*
X22045D01*
X23865D02*
X23945D01*
X15232Y8677D02*
X15908D01*
X16318D02*
X18768D01*
X20002D02*
X20650D01*
X21500D02*
X22074D01*
X23836D02*
X23945D01*
X15232Y8725D02*
X15860D01*
X16270D02*
X19156D01*
X19634D02*
X20650D01*
X21500D02*
X22108D01*
X23802D02*
X23945D01*
X14945Y8773D02*
X15812D01*
X16222D02*
X19144D01*
X19647D02*
X20650D01*
X21500D02*
X22145D01*
X23765D02*
X23945D01*
X14995Y8821D02*
X15764D01*
X16174D02*
X19140D01*
X19650D02*
X20650D01*
X21500D02*
X22187D01*
X23723D02*
X23945D01*
X15044Y8869D02*
X15716D01*
X16126D02*
X19146D01*
X19644D02*
X20650D01*
X21500D02*
X22235D01*
X23675D02*
X23945D01*
X15093Y8917D02*
X15668D01*
X16078D02*
X19161D01*
X19629D02*
X20650D01*
X21500D02*
X22289D01*
X23621D02*
X23945D01*
X15347Y8965D02*
X15620D01*
X16030D02*
X19164D01*
X19601D02*
X20650D01*
X21500D02*
X22353D01*
X23557D02*
X23945D01*
X15347Y9013D02*
X15572D01*
X15982D02*
X18768D01*
X20002D02*
X20650D01*
X21500D02*
X22428D01*
X23482D02*
X23945D01*
X15347Y9061D02*
X15393D01*
X15934D02*
X18768D01*
X20002D02*
X20650D01*
X21500D02*
X22521D01*
X23389D02*
X23945D01*
X15886Y9109D02*
X18768D01*
X20002D02*
X20650D01*
X21500D02*
X22648D01*
X23262D02*
X23945D01*
X15838Y9157D02*
X18740D01*
X20002D02*
X20650D01*
X21500D02*
X23945D01*
X15790Y9205D02*
X18689D01*
X20002D02*
X20650D01*
X21500D02*
X23945D01*
X15747Y9253D02*
X18656D01*
X20002D02*
X20650D01*
X21500D02*
X23945D01*
X15750Y9301D02*
X18635D01*
X20025D02*
X20650D01*
X21500D02*
X23423D01*
X23627D02*
X23945D01*
X15744Y9349D02*
X18624D01*
X20073D02*
X20650D01*
X21500D02*
X23350D01*
X23700D02*
X23945D01*
X15729Y9397D02*
X18620D01*
X20121D02*
X23310D01*
X23740D02*
X23945D01*
X15701Y9445D02*
X18620D01*
X20169D02*
X23286D01*
X23764D02*
X23945D01*
X15655Y9493D02*
X18620D01*
X20217D02*
X23273D01*
X23777D02*
X23945D01*
X15347Y9541D02*
X15430D01*
X15560D02*
X18620D01*
X20266D02*
X23270D01*
X23780D02*
X23945D01*
X15347Y9590D02*
X18620D01*
X20314D02*
X23276D01*
X23774D02*
X23945D01*
X15220Y9638D02*
X17010D01*
X17240D02*
X18620D01*
X20362D02*
X23292D01*
X23758D02*
X23945D01*
X15220Y9686D02*
X16944D01*
X17306D02*
X18620D01*
X20410D02*
X22660D01*
X23230D02*
X23319D01*
X15270Y9734D02*
X16906D01*
X17344D02*
X18620D01*
X20458D02*
X22660D01*
X15585Y9782D02*
X16884D01*
X17366D02*
X18620D01*
X20507D02*
X22660D01*
X15638Y9830D02*
X16872D01*
X17378D02*
X18620D01*
X20555D02*
X22660D01*
X15686Y9878D02*
X16870D01*
X17380D02*
X18620D01*
X20603D02*
X22660D01*
X15734Y9926D02*
X16877D01*
X17373D02*
X18620D01*
X20651D02*
X22654D01*
X15782Y9974D02*
X16894D01*
X17356D02*
X18620D01*
X20699D02*
X22648D01*
X15819Y10022D02*
X16914D01*
X17336D02*
X18620D01*
X20748D02*
X21965D01*
X22025D02*
X22651D01*
X15880Y10070D02*
X16914D01*
X17336D02*
X18620D01*
X20796D02*
X21844D01*
X22146D02*
X22660D01*
X15880Y10118D02*
X16914D01*
X17336D02*
X18620D01*
X20844D02*
X21794D01*
X22196D02*
X22660D01*
X15880Y10166D02*
X16270D01*
X18020D02*
X18620D01*
X20892D02*
X21765D01*
X22225D02*
X22660D01*
X15880Y10214D02*
X16270D01*
X18020D02*
X18620D01*
X20940D02*
X21747D01*
X22243D02*
X22660D01*
X15880Y10262D02*
X16270D01*
X18020D02*
X18620D01*
X20988D02*
X21740D01*
X22250D02*
X22660D01*
X15880Y10310D02*
X16270D01*
X18020D02*
X18620D01*
X21037D02*
X21742D01*
X22248D02*
X23945D01*
X15880Y10358D02*
X16270D01*
X18020D02*
X18620D01*
X21085D02*
X21754D01*
X22236D02*
X23945D01*
X15880Y10406D02*
X16270D01*
X18020D02*
X18623D01*
X21133D02*
X21776D01*
X22214D02*
X23945D01*
X15880Y10454D02*
X16270D01*
X18020D02*
X18634D01*
X21181D02*
X21813D01*
X22177D02*
X23945D01*
X15880Y10502D02*
X16270D01*
X18020D02*
X18654D01*
X21229D02*
X21844D01*
X22166D02*
X23945D01*
X15880Y10550D02*
X16270D01*
X18020D02*
X18090D01*
X18580D02*
X18685D01*
X21267D02*
X21844D01*
X22166D02*
X23945D01*
X15880Y10598D02*
X16270D01*
X18580D02*
X18731D01*
X21284D02*
X21310D01*
X22250D02*
X22255D01*
X23095D02*
X23945D01*
X15880Y10646D02*
X16918D01*
X18580D02*
X18779D01*
X21286D02*
X21310D01*
X22250D02*
X22255D01*
X23095D02*
X23945D01*
X15880Y10694D02*
X16934D01*
X18580D02*
X18827D01*
X21286D02*
X21310D01*
X22250D02*
X22255D01*
X23095D02*
X23945D01*
X15880Y10742D02*
X16965D01*
X18580D02*
X18875D01*
X21286D02*
X21310D01*
X22250D02*
X22255D01*
X23095D02*
X23279D01*
X23451D02*
X23945D01*
X15880Y10790D02*
X17012D01*
X18580D02*
X18923D01*
X21286D02*
X21310D01*
X22250D02*
X22255D01*
X23095D02*
X23183D01*
X23547D02*
X23945D01*
X15880Y10838D02*
X17060D01*
X18580D02*
X18971D01*
X21286D02*
X21310D01*
X22250D02*
X22255D01*
X23095D02*
X23132D01*
X23598D02*
X23945D01*
X15880Y10886D02*
X16493D01*
X16769D02*
X17108D01*
X18580D02*
X19019D01*
X21286D02*
X21310D01*
X23095D02*
X23099D01*
X23631D02*
X23945D01*
X15270Y10934D02*
X16270D01*
X16992D02*
X17156D01*
X18580D02*
X19067D01*
X21286D02*
X21310D01*
X23653D02*
X23945D01*
X15220Y10982D02*
X16270D01*
X16992D02*
X17231D01*
X18020D02*
X18090D01*
X18580D02*
X19115D01*
X21286D02*
X21310D01*
X23665D02*
X23945D01*
X15220Y11030D02*
X16270D01*
X16992D02*
X17298D01*
X18020D02*
X18090D01*
X18580D02*
X19171D01*
X20277D02*
X20305D01*
X21286D02*
X21310D01*
X23670D02*
X23945D01*
X15220Y11079D02*
X16270D01*
X16992D02*
X17298D01*
X18020D02*
X18090D01*
X18580D02*
X19305D01*
X20277D02*
X20353D01*
X21286D02*
X21310D01*
X23667D02*
X23945D01*
X16080Y11127D02*
X16270D01*
X16992D02*
X17298D01*
X18020D02*
X18090D01*
X18580D02*
X19633D01*
X20277D02*
X20401D01*
X21286D02*
X21310D01*
X23656D02*
X23945D01*
X16992Y11175D02*
X17298D01*
X18020D02*
X18090D01*
X18580D02*
X20440D01*
X21286D02*
X21310D01*
X23636D02*
X23945D01*
X16992Y11223D02*
X17298D01*
X18020D02*
X18090D01*
X18580D02*
X19633D01*
X20277D02*
X20440D01*
X21286D02*
X21310D01*
X23095D02*
X23125D01*
X23605D02*
X23945D01*
X16992Y11271D02*
X17298D01*
X18020D02*
X18090D01*
X18580D02*
X19633D01*
X20277D02*
X20440D01*
X21286D02*
X21310D01*
X23095D02*
X23171D01*
X23559D02*
X23945D01*
X16992Y11319D02*
X17298D01*
X18020D02*
X18090D01*
X18580D02*
X19633D01*
X20277D02*
X20440D01*
X21286D02*
X21310D01*
X23095D02*
X23253D01*
X23477D02*
X23945D01*
X16992Y11367D02*
X17298D01*
X18020D02*
X18090D01*
X18580D02*
X19633D01*
X20277D02*
X20440D01*
X21286D02*
X21310D01*
X23095D02*
X23945D01*
X16860Y11415D02*
X19633D01*
X20277D02*
X20440D01*
X21286D02*
X21310D01*
X23095D02*
X23945D01*
X16860Y11463D02*
X19590D01*
X20277D02*
X20440D01*
X21286D02*
X21310D01*
X23095D02*
X23945D01*
X16860Y11511D02*
X19542D01*
X20277D02*
X20440D01*
X21286D02*
X21410D01*
X23095D02*
X23945D01*
X16860Y11559D02*
X19494D01*
X20277D02*
X20440D01*
X21286D02*
X21410D01*
X23095D02*
X23945D01*
X16905Y11607D02*
X19446D01*
X20277D02*
X20440D01*
X21286D02*
X21408D01*
X23095D02*
X23945D01*
X16905Y11655D02*
X19398D01*
X20277D02*
X20440D01*
X21323D02*
X21356D01*
X23095D02*
X23945D01*
X16905Y11703D02*
X19350D01*
X20277D02*
X20440D01*
X22845D02*
X23945D01*
X16905Y11751D02*
X19307D01*
X20277D02*
X20440D01*
X22845D02*
X23945D01*
X16905Y11799D02*
X19278D01*
X20277D02*
X20440D01*
X22845D02*
X23945D01*
X16905Y11847D02*
X19261D01*
X20277D02*
X20440D01*
X22845D02*
X23945D01*
X16905Y11895D02*
X19252D01*
X19992D02*
X20440D01*
X22845D02*
X23945D01*
X16905Y11943D02*
X19250D01*
X19944D02*
X20448D01*
X22845D02*
X23945D01*
X16905Y11991D02*
X19250D01*
X19896D02*
X20476D01*
X22845D02*
X23945D01*
X16905Y12039D02*
X19250D01*
X19848D02*
X20524D01*
X22845D02*
X23945D01*
X16905Y12087D02*
X19250D01*
X19840D02*
X20572D01*
X22845D02*
X23945D01*
X16905Y12135D02*
X19250D01*
X19840D02*
X20620D01*
X22845D02*
X23945D01*
X16905Y12183D02*
X19250D01*
X19840D02*
X20668D01*
X22845D02*
X23945D01*
X16905Y12231D02*
X19250D01*
X19840D02*
X20716D01*
X22845D02*
X23945D01*
X16860Y12279D02*
X19250D01*
X19840D02*
X20764D01*
X22845D02*
X23945D01*
X16858Y12327D02*
X19250D01*
X19840D02*
X20812D01*
X22845D02*
X23945D01*
X16849Y12375D02*
X19250D01*
X19840D02*
X20860D01*
X23095D02*
X23945D01*
X16831Y12423D02*
X19250D01*
X19840D02*
X20908D01*
X23095D02*
X23945D01*
X16801Y12471D02*
X19250D01*
X19840D02*
X20956D01*
X23095D02*
X23945D01*
X16849Y12519D02*
X19250D01*
X19840D02*
X21004D01*
X23095D02*
X23945D01*
X16897Y12567D02*
X19250D01*
X19840D02*
X21052D01*
X23095D02*
X23945D01*
X16946Y12616D02*
X19250D01*
X19840D02*
X21100D01*
X23095D02*
X23945D01*
X16975Y12664D02*
X19250D01*
X19840D02*
X21149D01*
X23095D02*
X23945D01*
X16975Y12712D02*
X19250D01*
X19840D02*
X21197D01*
X23095D02*
X23252D01*
X23478D02*
X23945D01*
X16975Y12760D02*
X19250D01*
X19840D02*
X22255D01*
X23095D02*
X23171D01*
X23559D02*
X23945D01*
X16975Y12808D02*
X19250D01*
X19840D02*
X22255D01*
X23095D02*
X23124D01*
X23606D02*
X23945D01*
X16975Y12856D02*
X19250D01*
X19840D02*
X22255D01*
X23636D02*
X23945D01*
X16975Y12904D02*
X19225D01*
X19865D02*
X20015D01*
X20655D02*
X23074D01*
X23656D02*
X23945D01*
X16975Y12952D02*
X19225D01*
X19865D02*
X20015D01*
X20655D02*
X22255D01*
X23667D02*
X23945D01*
X16975Y13000D02*
X19225D01*
X19865D02*
X20015D01*
X20655D02*
X22255D01*
X23670D02*
X23945D01*
X16975Y13048D02*
X19225D01*
X19865D02*
X20015D01*
X20655D02*
X22255D01*
X23665D02*
X23945D01*
X16975Y13096D02*
X19225D01*
X19865D02*
X20015D01*
X20655D02*
X22255D01*
X23653D02*
X23945D01*
X16975Y13144D02*
X19225D01*
X19865D02*
X20015D01*
X20655D02*
X22255D01*
X23095D02*
X23099D01*
X23631D02*
X23945D01*
X16975Y13192D02*
X19225D01*
X19865D02*
X20015D01*
X20655D02*
X22255D01*
X23095D02*
X23132D01*
X23598D02*
X23945D01*
X16975Y13240D02*
X19225D01*
X19865D02*
X20015D01*
X20655D02*
X22255D01*
X23095D02*
X23183D01*
X23547D02*
X23945D01*
X16975Y13288D02*
X19225D01*
X19865D02*
X20015D01*
X20655D02*
X22255D01*
X23095D02*
X23280D01*
X23450D02*
X23945D01*
X16975Y13336D02*
X19225D01*
X19865D02*
X20015D01*
X20655D02*
X22255D01*
X23095D02*
X23945D01*
X16975Y13384D02*
X19225D01*
X19865D02*
X20015D01*
X20655D02*
X22255D01*
X23095D02*
X23945D01*
X16975Y13432D02*
X18008D01*
X18162D02*
X19225D01*
X19865D02*
X20015D01*
X20655D02*
X22255D01*
X23095D02*
X23945D01*
X16975Y13480D02*
X17921D01*
X18249D02*
X19225D01*
X19865D02*
X20015D01*
X20655D02*
X22530D01*
X22820D02*
X23945D01*
X16975Y13528D02*
X17877D01*
X18293D02*
X19225D01*
X19865D02*
X20015D01*
X20655D02*
X22530D01*
X22820D02*
X23945D01*
X16975Y13576D02*
X17850D01*
X18320D02*
X19225D01*
X19865D02*
X20015D01*
X20655D02*
X22530D01*
X22820D02*
X23945D01*
X16975Y13624D02*
X17835D01*
X18335D02*
X19225D01*
X19865D02*
X20015D01*
X20655D02*
X22530D01*
X22820D02*
X23945D01*
X16975Y13672D02*
X17830D01*
X18340D02*
X19225D01*
X19865D02*
X20015D01*
X20655D02*
X22530D01*
X22820D02*
X23945D01*
X16975Y13720D02*
X17834D01*
X18336D02*
X19225D01*
X19865D02*
X20015D01*
X20655D02*
X22530D01*
X22820D02*
X23945D01*
X16975Y13768D02*
X17848D01*
X18322D02*
X19225D01*
X19865D02*
X20015D01*
X20655D02*
X22341D01*
X23230D02*
X23500D01*
X16975Y13816D02*
X17873D01*
X18297D02*
X19225D01*
X19865D02*
X20015D01*
X20655D02*
X22284D01*
X16975Y13864D02*
X17914D01*
X18256D02*
X19225D01*
X19865D02*
X20015D01*
X20655D02*
X22250D01*
X16975Y13912D02*
X17992D01*
X18178D02*
X19225D01*
X19865D02*
X20015D01*
X20655D02*
X22231D01*
X16975Y13960D02*
X19225D01*
X19865D02*
X20015D01*
X20668D02*
X22221D01*
X16975Y14008D02*
X19225D01*
X19865D02*
X20015D01*
X20716D02*
X22221D01*
X16975Y14056D02*
X19225D01*
X19865D02*
X20015D01*
X20764D02*
X22230D01*
X16975Y14104D02*
X19225D01*
X19865D02*
X20015D01*
X20812D02*
X22250D01*
X16975Y14153D02*
X19225D01*
X19865D02*
X20015D01*
X20860D02*
X22283D01*
X16975Y14201D02*
X19225D01*
X19865D02*
X20015D01*
X20908D02*
X22339D01*
X16975Y14249D02*
X19225D01*
X19865D02*
X20015D01*
X20956D02*
X22466D01*
X16975Y14297D02*
X19225D01*
X19865D02*
X20015D01*
X21004D02*
X22418D01*
X23230D02*
X23500D01*
X16975Y14345D02*
X19225D01*
X19865D02*
X20015D01*
X21052D02*
X22370D01*
X23230D02*
X23500D01*
X16975Y14393D02*
X19225D01*
X19865D02*
X20015D01*
X21100D02*
X22322D01*
X22873D02*
X23945D01*
X16975Y14441D02*
X19225D01*
X19865D02*
X20015D01*
X21148D02*
X22274D01*
X22825D02*
X23945D01*
X16975Y14489D02*
X19225D01*
X19865D02*
X20015D01*
X21196D02*
X22225D01*
X22777D02*
X23945D01*
X16975Y14537D02*
X20410D01*
X21244D02*
X22177D01*
X22729D02*
X23945D01*
X16975Y14585D02*
X20458D01*
X21292D02*
X22129D01*
X22681D02*
X23945D01*
X16975Y14633D02*
X20506D01*
X21342D02*
X22081D01*
X22633D02*
X23945D01*
X16975Y14681D02*
X20554D01*
X22585D02*
X23945D01*
X16975Y14729D02*
X20602D01*
X22537D02*
X23945D01*
X16975Y14777D02*
X20650D01*
X22489D02*
X23945D01*
X16975Y14825D02*
X20698D01*
X22441D02*
X23945D01*
X16975Y14873D02*
X20746D01*
X22393D02*
X23945D01*
X16975Y14921D02*
X20794D01*
X22345D02*
X23945D01*
X16975Y14969D02*
X20842D01*
X22297D02*
X23945D01*
X16975Y15017D02*
X20890D01*
X22225D02*
X23945D01*
X16975Y15065D02*
X20938D01*
X21312D02*
X22810D01*
X23100D02*
X23945D01*
X16975Y15113D02*
X18195D01*
X19035D02*
X20845D01*
X21685D02*
X22610D01*
X23300D02*
X23945D01*
X16975Y15161D02*
X18195D01*
X19035D02*
X20845D01*
X21685D02*
X22495D01*
X23415D02*
X23945D01*
X16975Y15209D02*
X18195D01*
X19035D02*
X20845D01*
X21685D02*
X22407D01*
X23503D02*
X23945D01*
X16975Y15257D02*
X18195D01*
X19035D02*
X20845D01*
X21685D02*
X22335D01*
X23575D02*
X23945D01*
X16975Y15305D02*
X18195D01*
X19035D02*
X20845D01*
X21685D02*
X22275D01*
X23635D02*
X23945D01*
X16975Y15353D02*
X18195D01*
X19035D02*
X20845D01*
X21685D02*
X22222D01*
X23688D02*
X23945D01*
X16975Y15401D02*
X18195D01*
X19035D02*
X20845D01*
X21685D02*
X22176D01*
X23734D02*
X23945D01*
X16975Y15449D02*
X18195D01*
X19035D02*
X19366D01*
X19504D02*
X20845D01*
X21685D02*
X22135D01*
X23775D02*
X23945D01*
X16975Y15497D02*
X18195D01*
X19035D02*
X19274D01*
X19596D02*
X20845D01*
X21685D02*
X22099D01*
X23811D02*
X23945D01*
X16975Y15545D02*
X18195D01*
X19035D02*
X19228D01*
X19642D02*
X20845D01*
X21685D02*
X22067D01*
X23843D02*
X23945D01*
X16975Y15593D02*
X18195D01*
X19035D02*
X19201D01*
X19669D02*
X20845D01*
X21685D02*
X22038D01*
X23872D02*
X23945D01*
X16975Y15641D02*
X18195D01*
X19035D02*
X19186D01*
X19684D02*
X20845D01*
X21685D02*
X22013D01*
X23897D02*
X23945D01*
X16975Y15690D02*
X18195D01*
X19035D02*
X19180D01*
X19690D02*
X20845D01*
X21685D02*
X21991D01*
X23919D02*
X23945D01*
X16975Y15738D02*
X18195D01*
X19035D02*
X19184D01*
X19686D02*
X20845D01*
X21685D02*
X21971D01*
X23939D02*
X23945D01*
X16975Y15786D02*
X18195D01*
X19035D02*
X19197D01*
X19673D02*
X20845D01*
X21685D02*
X21955D01*
X16975Y15834D02*
X18195D01*
X19035D02*
X19221D01*
X19649D02*
X20845D01*
X21685D02*
X21941D01*
X16975Y15882D02*
X18195D01*
X19035D02*
X19261D01*
X19609D02*
X20845D01*
X21685D02*
X21929D01*
X16975Y15930D02*
X18195D01*
X19035D02*
X19335D01*
X19535D02*
X20845D01*
X21685D02*
X21920D01*
X16975Y15978D02*
X18195D01*
X19035D02*
X20845D01*
X21685D02*
X21913D01*
X16975Y16026D02*
X18195D01*
X19035D02*
X20845D01*
X21685D02*
X21908D01*
X16975Y16074D02*
X18195D01*
X19035D02*
X20845D01*
X21685D02*
X21905D01*
X16975Y16122D02*
X18195D01*
X19035D02*
X20845D01*
X21685D02*
X21905D01*
X17020Y16170D02*
X18195D01*
X19035D02*
X20845D01*
X21685D02*
X21907D01*
X17068Y16218D02*
X18195D01*
X19035D02*
X20845D01*
X21685D02*
X21911D01*
X17116Y16266D02*
X18195D01*
X19035D02*
X20845D01*
X21685D02*
X21917D01*
X17164Y16314D02*
X18195D01*
X19035D02*
X20845D01*
X21685D02*
X21926D01*
X17212Y16362D02*
X18195D01*
X19035D02*
X20845D01*
X21685D02*
X21937D01*
X17260Y16410D02*
X18195D01*
X19035D02*
X20845D01*
X21685D02*
X21950D01*
X17308Y16458D02*
X18195D01*
X19035D02*
X20845D01*
X21685D02*
X21966D01*
X23944D02*
X23945D01*
X17356Y16506D02*
X18195D01*
X19035D02*
X20845D01*
X21685D02*
X21985D01*
X23925D02*
X23945D01*
X17404Y16554D02*
X18195D01*
X19035D02*
X20845D01*
X21685D02*
X22006D01*
X23904D02*
X23945D01*
X17452Y16602D02*
X18195D01*
X19035D02*
X20845D01*
X21685D02*
X22030D01*
X23880D02*
X23945D01*
X17500Y16650D02*
X18195D01*
X19035D02*
X20845D01*
X21685D02*
X22058D01*
X23852D02*
X23945D01*
X17548Y16698D02*
X18195D01*
X19035D02*
X20845D01*
X21685D02*
X22089D01*
X23821D02*
X23945D01*
X17596Y16746D02*
X22124D01*
X23786D02*
X23945D01*
X17644Y16794D02*
X22163D01*
X23747D02*
X23945D01*
X17692Y16842D02*
X22207D01*
X23703D02*
X23945D01*
X17740Y16890D02*
X22258D01*
X23652D02*
X23945D01*
X17788Y16938D02*
X22316D01*
X23594D02*
X23945D01*
X17836Y16986D02*
X22384D01*
X23526D02*
X23945D01*
X17884Y17034D02*
X22466D01*
X23444D02*
X23932D01*
X17932Y17082D02*
X22571D01*
X23339D02*
X23884D01*
X17980Y17130D02*
X22729D01*
X23181D02*
X23836D01*
X18029Y17179D02*
X23788D01*
X18077Y17227D02*
X23740D01*
X18125Y17275D02*
X23692D01*
X18173Y17323D02*
X23644D01*
X18221Y17371D02*
X23596D01*
X18269Y17419D02*
X23548D01*
X18317Y17467D02*
X23500D01*
X18365Y17515D02*
X23452D01*
X18413Y17563D02*
X23404D01*
X18461Y17611D02*
X23356D01*
X18509Y17659D02*
X23308D01*
X18557Y17707D02*
X23260D01*
X18605Y17755D02*
X23212D01*
X18653Y17803D02*
X23164D01*
X18701Y17851D02*
X23116D01*
X18749Y17899D02*
X23067D01*
X18797Y17947D02*
X23019D01*
X18845Y17995D02*
X22971D01*
X18893Y18043D02*
X22923D01*
X18941Y18091D02*
X22875D01*
X18989Y18139D02*
X22827D01*
X19037Y18187D02*
X22779D01*
X19085Y18235D02*
X22731D01*
X19133Y18283D02*
X22683D01*
X19181Y18331D02*
X22635D01*
X19229Y18379D02*
X22587D01*
X19277Y18427D02*
X22539D01*
X19325Y18475D02*
X22491D01*
X19373Y18523D02*
X22443D01*
X19421Y18571D02*
X22395D01*
X19469Y18619D02*
X22347D01*
X19517Y18667D02*
X22299D01*
X19566Y18716D02*
X22251D01*
X19614Y18764D02*
X22203D01*
X19662Y18812D02*
X22155D01*
X19710Y18860D02*
X22107D01*
X19758Y18908D02*
X22059D01*
X19806Y18956D02*
X22011D01*
X19854Y19004D02*
X21963D01*
X19902Y19052D02*
X21915D01*
X19950Y19100D02*
X21867D01*
X19998Y19148D02*
X21819D01*
X20046Y19196D02*
X21771D01*
X20094Y19244D02*
X21723D01*
X20142Y19292D02*
X21675D01*
X20190Y19340D02*
X21627D01*
X20238Y19388D02*
X21579D01*
X20286Y19436D02*
X21530D01*
X20334Y19484D02*
X21482D01*
X20382Y19532D02*
X21434D01*
X20430Y19580D02*
X21386D01*
X20478Y19628D02*
X21338D01*
X20526Y19676D02*
X21290D01*
X20574Y19724D02*
X21242D01*
X20622Y19772D02*
X21194D01*
X20670Y19820D02*
X21146D01*
X20718Y19868D02*
X21098D01*
X20766Y19916D02*
X21050D01*
X20814Y19964D02*
X21002D01*
X20862Y20012D02*
X20954D01*
D02*
D85*
X2831Y14421D02*
X2654Y14244D01*
X2831Y14739D02*
X2654Y14916D01*
X3149Y14421D02*
X3326Y14244D01*
X3149Y14739D02*
X3326Y14916D01*
X7706Y7116D02*
X7529Y6939D01*
X8045Y7455D02*
X8222Y7632D01*
X8229Y2319D02*
X8052Y2142D01*
X8229Y2659D02*
X8052Y2835D01*
X8569Y2319D02*
X8745Y2142D01*
X8569Y2659D02*
X8745Y2835D01*
X9870Y2185D02*
X9620D01*
X9955Y2100D02*
Y1850D01*
Y2270D02*
Y2520D01*
X10040Y2185D02*
X10290D01*
X10040Y11135D02*
X9790D01*
X10125Y11050D02*
Y10800D01*
Y11220D02*
Y11470D01*
X10210Y11135D02*
X10460D01*
X10360Y6345D02*
X10110D01*
X10445Y6260D02*
Y6010D01*
X10810Y2605D02*
X10560D01*
X11980D02*
X12230D01*
X12520Y9295D02*
X12270D01*
X12605Y9380D02*
Y9630D01*
X12690Y9295D02*
X12940D01*
X12775Y10485D02*
X12598Y10308D01*
X12775Y10605D02*
X12598Y10782D01*
X12845Y6265D02*
X13022Y6088D01*
X12845Y6385D02*
X13022Y6562D01*
X12895Y10485D02*
X13072Y10308D01*
X12895Y10605D02*
X13072Y10782D01*
X12950Y7285D02*
X12700D01*
X13035Y7200D02*
Y6950D01*
Y7370D02*
Y7620D01*
X13380Y4415D02*
X13130D01*
X13465Y4330D02*
Y4080D01*
Y4500D02*
Y4750D01*
X13550Y4415D02*
X13800D01*
X17498Y11149D02*
X17248D01*
X17650Y9655D02*
X17400D01*
X17659Y10358D02*
Y10108D01*
Y11192D02*
Y11442D01*
X17735Y9570D02*
Y9320D01*
Y9740D02*
Y9990D01*
X17820Y9655D02*
X18070D01*
X17820Y10401D02*
X18070D01*
X18335Y11210D02*
Y11460D01*
X18380Y11165D02*
X18630D01*
X18400Y8425D02*
X18150D01*
X18452Y3451D02*
X18129D01*
X18485Y8340D02*
Y8090D01*
Y8510D02*
Y8760D01*
X18801Y3102D02*
Y2779D01*
Y3800D02*
Y4123D01*
X18890Y13365D02*
X18640D01*
X18950Y7635D02*
X18700D01*
X18968Y8331D02*
X18718D01*
X18975Y13280D02*
Y13030D01*
Y13450D02*
Y13700D01*
X18995Y7590D02*
Y7340D01*
X19011Y8492D02*
Y8742D01*
X19150Y3451D02*
X19473D01*
X22675Y12605D02*
Y11425D01*
D02*
D86*
X2990Y14580D03*
X3697Y13873D03*
X4404Y13166D03*
X5111Y12459D03*
X5819Y11751D03*
X6526Y11044D03*
X7233Y10337D03*
X7940Y9630D03*
X18094Y2744D03*
X18801Y3451D03*
X19508Y4158D03*
X20215Y4865D03*
D02*
D87*
X3816Y5504D03*
X6044Y3276D03*
D02*
D88*
X3075Y6525D03*
X4195Y16275D03*
X5125Y9805D03*
X6935Y18465D03*
X7075Y13805D03*
X7405Y17455D03*
X7605Y8405D03*
X7795Y17655D03*
X7815Y3545D03*
X7935Y8105D03*
X7949Y1051D03*
X8205Y17455D03*
X8335Y7755D03*
X8575Y17655D03*
X8815Y5435D03*
X8825Y9045D03*
X8955Y7145D03*
X9255Y7995D03*
Y9365D03*
X9285Y17455D03*
X9515Y11475D03*
X9715Y17655D03*
X9735Y8295D03*
Y9705D03*
X9865Y4765D03*
X9955Y2185D03*
X10055Y14985D03*
X10095Y12785D03*
X10125Y11135D03*
X10175Y3735D03*
Y7255D03*
X10285Y17655D03*
X10375Y9535D03*
X10385Y4765D03*
X10445Y6345D03*
X10505Y10025D03*
X10855Y17665D03*
X10865Y7605D03*
X10889Y13965D03*
X11165Y6625D03*
X11185Y9685D03*
X11305Y17455D03*
X11645Y10075D03*
Y10535D03*
X11655Y17655D03*
X11955Y11285D03*
X12005Y17455D03*
X12355Y5095D03*
Y17655D03*
X12475Y13775D03*
X12535Y8065D03*
X12555Y6715D03*
X12605Y9295D03*
X12785Y6325D03*
X12805Y14765D03*
X12815Y11045D03*
X12825Y17655D03*
X12835Y10545D03*
X12845Y10025D03*
X12995Y12935D03*
X13035Y7285D03*
X13305Y15545D03*
X13345Y17655D03*
X13465Y4415D03*
X13475Y5965D03*
X13645Y8685D03*
X13785Y6745D03*
X13935Y17665D03*
X13985Y5515D03*
X14425Y17455D03*
X14555Y5725D03*
X14715Y13445D03*
X15035Y11785D03*
X15125Y17655D03*
X15245Y3055D03*
X15335Y6555D03*
X15345Y6105D03*
X15375Y7635D03*
X15495Y2105D03*
Y9295D03*
X15535Y17475D03*
X15645Y4615D03*
X15665Y5125D03*
X15685Y7195D03*
X16175Y17455D03*
X16195Y12665D03*
X16235Y6345D03*
X17125Y9865D03*
X17155Y18575D03*
X17655Y3585D03*
X17735Y9655D03*
X17825Y8105D03*
X18085Y13675D03*
X18485Y8425D03*
X18975Y13365D03*
X19395Y8815D03*
X19435Y15695D03*
X21125Y11815D03*
Y14835D03*
X21555Y11815D03*
X21995Y10275D03*
X22005Y11805D03*
X22415Y6535D03*
X22475Y13985D03*
X23525Y9535D03*
D02*
D89*
X4404Y13166D02*
Y13114D01*
X4055Y12765*
X4915Y11905*
Y11165*
X4055Y10305*
Y10055*
X8055Y6055*
X8469*
X8787Y6373*
X5111Y12459D02*
X5135D01*
Y11375*
X8805Y7705*
Y7635*
X8785Y7615*
X8625Y7457*
X8179Y7011*
Y6981*
X5819Y11751D02*
X5775D01*
Y11125*
X6435Y10465*
X6635*
X7085Y10915*
X7555*
X8765Y9705*
X9735*
X7267Y7894D02*
X7605Y8231D01*
Y8405*
X7571Y7589D02*
X7935Y7953D01*
Y8105*
X7664Y16157D02*
Y15957D01*
Y16245D02*
X7464D01*
X7861Y16157D02*
Y15957D01*
X7975Y19405D02*
X7775D01*
X8058Y16157D02*
Y15957D01*
X8155Y19365D02*
Y19165D01*
X8179Y6981D02*
X8195D01*
Y7025*
X8795Y7625*
X10865*
Y7605*
X8255Y16157D02*
Y15957D01*
Y16245D02*
X8455D01*
X8335Y19405D02*
X8535D01*
X9255Y9365D02*
Y7985D01*
X8875*
X7165Y9695*
Y10309*
X7223Y10367*
Y10337*
X7233*
X9255Y9365D02*
Y7995D01*
X9704Y16157D02*
Y15957D01*
Y16245D02*
X9504D01*
X9735Y9705D02*
Y8295D01*
X9901Y16157D02*
Y15957D01*
X9915Y19425D02*
X9715D01*
X10095Y19385D02*
Y19185D01*
X10098Y16157D02*
Y15957D01*
X10175Y7255D02*
X10055D01*
X11015Y6295*
X12285*
X13055Y5525*
Y5515*
X13985*
X10275Y19425D02*
X10475D01*
X10295Y16157D02*
Y15957D01*
Y16245D02*
X10495D01*
X10385Y4765D02*
Y5695D01*
X9415Y6665*
X9079*
X8787Y6373*
X10505Y10025D02*
Y10035D01*
X8795*
X7655Y11175*
X6675*
X6544Y11044*
X6526*
X11395Y3105D02*
Y3205D01*
X7365*
X2765Y7805*
Y12771*
X2769*
X11395Y4105D02*
X8995D01*
X3235Y9865*
Y11825*
X3486Y12076*
Y12064*
X3476*
X11395Y4605D02*
X10755D01*
X10555Y4405*
X9245*
X3675Y9975*
Y10955*
X4155Y11435*
X4165Y11375*
X4183Y11357*
X11484Y16157D02*
Y15957D01*
Y16245D02*
X11284D01*
X11681Y16157D02*
Y15957D01*
X11878Y16157D02*
Y15957D01*
X11935Y19465D02*
X11735D01*
X12035Y13465D02*
Y13265D01*
X12075Y16157D02*
Y15957D01*
Y16245D02*
X12275D01*
X12105Y13535D02*
X12305D01*
X12105Y13915D02*
X12305D01*
X12115Y19425D02*
Y19225D01*
X12130Y14270D02*
X12315Y14085D01*
X12295Y19465D02*
X12495D01*
X12425Y14285D02*
Y14085D01*
X12535Y8065D02*
Y8415D01*
X12195Y8755*
X12740Y14270D02*
X12555Y14085D01*
X12755Y13975D02*
X12555D01*
X12825Y13905D02*
Y13705D01*
X13244Y16157D02*
Y15957D01*
Y16245D02*
X13044D01*
X13441Y16157D02*
Y15957D01*
X13638Y16157D02*
Y15957D01*
X13835Y16157D02*
Y15957D01*
Y16245D02*
X14035D01*
X13915Y19485D02*
X13715D01*
X14095Y19445D02*
Y19245D01*
X14275Y19485D02*
X14475D01*
X15124Y16157D02*
Y15957D01*
Y16245D02*
X14924D01*
X15245Y3055D02*
X15965D01*
Y3105*
X16675*
X15245Y3055D02*
Y5415D01*
X15775Y5945*
Y7025*
X15685Y7115*
Y7195*
X15321Y16157D02*
Y15957D01*
X15375Y7635D02*
Y7655D01*
X16045*
X17535Y6165*
Y4215*
X17425Y4105*
X16675*
X15518Y16157D02*
Y15957D01*
Y16757D02*
Y16245D01*
X15685Y5105D02*
X15665Y5125D01*
X15715Y16157D02*
Y15957D01*
Y16245D02*
X15915D01*
X15895Y14385D02*
X15695D01*
X15915Y19505D02*
X15715D01*
X16095Y19465D02*
Y19265D01*
X16145Y14135D02*
Y13935D01*
Y14635D02*
Y14835D01*
X16275Y19505D02*
X16475D01*
X16395Y14385D02*
X16595D01*
X16675Y3605D02*
X17635D01*
X17655Y3585*
X16675Y4605D02*
X15655D01*
X15645Y4615*
X16955Y20745D02*
X16755D01*
X16955Y21745D02*
X16755D01*
X17205Y20495D02*
Y20295D01*
Y20995D02*
Y21195D01*
Y21495D02*
Y21295D01*
Y21995D02*
Y22195D01*
X17455Y20745D02*
X17655D01*
X17455Y21745D02*
X17655D01*
X17935Y19525D02*
X17735D01*
X17935Y20037D02*
X17735D01*
X18115Y19485D02*
Y19285D01*
Y20077D02*
Y20277D01*
X18295Y19525D02*
X18495D01*
X19759Y9359D02*
Y9355D01*
X19855*
X21125Y10625*
Y11815*
X19955Y10815D02*
X20295D01*
X20585Y11105*
Y11895*
X21295Y12605*
X22675*
X21075Y6945D02*
X17845D01*
X15495Y9295*
X21555Y11225D02*
Y11815D01*
X22005Y10835D02*
Y10285D01*
X21995Y10275*
X22005Y10835D02*
X21555D01*
X22005Y11225D02*
Y11805D01*
X22675Y10835D02*
X22555D01*
Y10845*
X22505*
X22105Y11245*
X22065Y11255*
Y11225*
X22005*
X22675Y13195D02*
Y13785D01*
X22475Y13985*
X23525Y9535D02*
Y9955D01*
X23515Y9965*
X22945*
Y9985*
D02*
D90*
X11645Y13535D03*
Y13915D03*
X12035Y13535D03*
Y13915D03*
X12825Y13975D03*
Y14355D03*
X13215Y13975D03*
Y14355D03*
X13395Y9285D03*
X13785D03*
X14635Y11335D03*
X15025D03*
X15445Y11325D03*
X15835D03*
X18995Y7635D03*
X19005Y10115D03*
X19385Y7635D03*
X19395Y10115D03*
D02*
D91*
X13881Y9951D03*
Y10699D03*
X14909Y9951D03*
Y10325D03*
Y10699D03*
X16631Y10401D03*
Y11149D03*
X17659Y10401D03*
Y10775D03*
Y11149D03*
D02*
D92*
X11285Y14355D03*
Y14745D03*
X11665Y14355D03*
Y14745D03*
X12045Y14355D03*
Y14745D03*
X12425Y14355D03*
Y14745D03*
X15635Y10275D03*
Y10665D03*
X18335Y10775D03*
Y11165D03*
X21555Y10835D03*
Y11225D03*
X22005Y10835D03*
Y11225D03*
D02*
D93*
X12195Y8755D03*
X12895D03*
X13415Y11435D03*
X14115D03*
X14325Y9265D03*
X15025D03*
D02*
D94*
X14251Y7383D03*
Y8407D03*
X14625Y7383D03*
Y8407D03*
X14999Y7383D03*
Y8407D03*
D02*
D95*
X13525Y7385D03*
Y8085D03*
D02*
D96*
X19011Y8331D03*
Y9359D03*
X19385D03*
X19759Y8331D03*
Y9359D03*
D02*
D97*
X7295Y19405D03*
Y19655D03*
Y19905D03*
X8155Y19405D03*
Y19661D03*
Y19917D03*
X9235Y19425D03*
Y19675D03*
Y19925D03*
X10095Y19425D03*
Y19681D03*
Y19937D03*
X11255Y19465D03*
Y19715D03*
Y19965D03*
X12115Y19465D03*
Y19721D03*
Y19977D03*
X13235Y19485D03*
Y19735D03*
Y19985D03*
X14095Y19485D03*
Y19741D03*
Y19997D03*
X15235Y19505D03*
Y19755D03*
Y20005D03*
X16095Y19505D03*
Y19761D03*
Y20017D03*
X17255Y19525D03*
Y19775D03*
Y20025D03*
X18115Y19525D03*
Y19781D03*
Y20037D03*
D02*
D98*
X15865Y11915D03*
X16565D03*
D02*
D99*
X7451Y1541D03*
X8399Y2489D03*
D02*
D100*
X7664Y16245D03*
Y16757D03*
X7861Y16245D03*
Y16757D03*
X8058Y16245D03*
Y16757D03*
X8255Y16245D03*
Y16757D03*
X9704Y16245D03*
Y16757D03*
X9901Y16245D03*
Y16757D03*
X10098Y16245D03*
Y16757D03*
X10295Y16245D03*
Y16757D03*
X11484Y16245D03*
Y16757D03*
X11681Y16245D03*
Y16757D03*
X11878Y16245D03*
Y16757D03*
X12075Y16245D03*
Y16757D03*
X13244Y16245D03*
Y16757D03*
X13441Y16245D03*
Y16757D03*
X13638Y16245D03*
Y16757D03*
X13835Y16245D03*
Y16757D03*
X15124Y16245D03*
Y16757D03*
X15321Y16245D03*
Y16757D03*
X15518Y16245D03*
Y16757D03*
X15715Y16245D03*
Y16757D03*
D02*
D101*
X11395Y605D03*
Y1105D03*
Y1605D03*
Y2105D03*
Y2605D03*
Y3105D03*
Y3605D03*
Y4105D03*
Y4605D03*
Y5105D03*
Y5605D03*
X16675Y2105D03*
Y2605D03*
Y3105D03*
Y3605D03*
Y4105D03*
Y4605D03*
Y5105D03*
Y5605D03*
D02*
D102*
X6963Y8198D03*
X7267Y7894D03*
X7571Y7589D03*
X7875Y7285D03*
X8179Y6981D03*
X8483Y6677D03*
X8787Y6373D03*
X9091Y6069D03*
X9396Y5765D03*
D02*
D103*
X2621Y6925D03*
X6935Y2611D03*
D02*
D104*
X5542Y9350D03*
D02*
D105*
X9579Y5256D03*
D02*
D106*
X18615Y15905D03*
X21265D03*
D02*
D107*
X19545Y13705D03*
X20335D03*
D02*
D108*
X22675Y10835D03*
Y11425D03*
Y12605D03*
Y13195D03*
D02*
D109*
X22945Y9985D03*
Y14045D03*
X23785Y9985D03*
Y14045D03*
D02*
D110*
X19955Y10815D03*
Y11515D03*
D02*
D111*
X2061Y13479D03*
X2769Y12771D03*
X3476Y12064D03*
X4183Y11357D03*
D02*
D112*
X2621Y6925D02*
X2675D01*
X3075Y6525*
X5542Y9350D02*
Y9388D01*
X5125Y9805*
X7875Y7285D02*
Y7295D01*
X8335Y7755*
X8483Y6677D02*
X8487D01*
X8955Y7145*
X9579Y5256D02*
X8994D01*
X8815Y5435*
X10055Y14985D02*
X10295Y14745D01*
X11285*
X10889Y13965D02*
X11235D01*
X11595*
X11645Y13915*
X11285Y14355D02*
X11275D01*
Y14055*
X11355*
X11525Y14225*
Y14015*
X11665*
X11285Y14355D02*
Y14325D01*
X11355*
Y14035*
X11285Y13965*
X11235*
X11285Y14355D02*
X11665D01*
X11285Y14745D02*
X11655D01*
Y14735*
X11665*
Y14745*
X11395Y605D02*
Y1105D01*
Y2105D02*
X10625D01*
X10305Y1785*
Y635*
X10275Y605*
X9985*
X11645Y13535D02*
Y13915D01*
X11665Y14015D02*
Y13965D01*
X11645*
Y13915*
X11665Y14355D02*
Y14015D01*
Y14745D02*
X12045D01*
X12035Y13915D02*
X12015Y13535D01*
Y13775*
X12475*
X12035Y13915D02*
Y13535D01*
X12045Y14355D02*
X12075D01*
X12255Y14175*
X12045Y14355D02*
X12115D01*
X12045D02*
X12025D01*
Y13925*
X12035Y13915*
X12425Y14355D02*
X12045D01*
X12425Y14745D02*
X12785D01*
X12805Y14765*
X12425Y14745D02*
X12045D01*
X12475Y13775D02*
X12575D01*
X12655Y13865*
Y14345*
X12775*
X12830Y14335*
X12825*
Y14355*
X12475Y13775D02*
X12479Y14195D01*
X12525*
Y14355*
X12425*
X12825Y13975D02*
Y14185D01*
X12735*
Y14365*
X12825*
Y14355*
X12895Y8755D02*
X13575D01*
X13645Y8685*
X13215Y13975D02*
Y13985D01*
X14055*
X14595Y13445*
X14715*
X13215Y14355D02*
Y13975D01*
X13395Y9285D02*
Y9955D01*
X13881*
Y9951*
X13415Y11435D02*
X12105D01*
X11955Y11285*
X13525Y7385D02*
Y7375D01*
X14251*
Y7383*
X13525Y8085D02*
X13715D01*
Y8065*
X13905Y7875*
X14829*
X15005Y8051*
Y8374*
X14999Y8380*
Y8407*
X13785Y9285D02*
Y9085D01*
X13645Y8945*
Y8685*
X14251Y8407D02*
Y8425D01*
X13905*
X13665Y8665*
X13645*
Y8685*
X14625Y7383D02*
Y6925D01*
Y8407D02*
X14635D01*
Y8755*
X15025Y9145*
Y9265*
X14635Y11335D02*
X14115D01*
X14909Y9951D02*
X15025Y9835D01*
Y9265*
X14909Y9951D02*
Y10325D01*
Y10699D02*
Y10695D01*
X15635*
Y10665*
X14999Y7383D02*
Y6945D01*
X15025Y11335D02*
Y10699D01*
X14909*
X15025Y11335D02*
Y11555D01*
X15035*
Y11785*
X15445Y11325D02*
X15025D01*
Y11335*
X15635Y10275D02*
Y10125D01*
X15465Y9955*
X14925*
X14905Y9975*
Y10295*
X14909Y10225*
Y9951*
X15835Y11325D02*
X16455D01*
X16631Y11149*
X17125Y9865D02*
Y10605D01*
X17305Y10785*
X17975*
X17935Y10775*
X17659*
X18335D02*
X17659D01*
X18915Y9395D02*
X18951Y9359D01*
X19011*
X19005Y10115D02*
X19015D01*
Y9395*
X19011Y9391*
Y9359*
Y8331D02*
Y7651D01*
X18995Y7635*
X19385D02*
X19395Y7635D01*
Y9359*
X19385*
X19395Y10115D02*
X19375D01*
Y9775*
X19365Y8885*
X19395*
Y8815*
X22945Y14045D02*
X22155Y14835D01*
X21125*
D02*
D113*
X7205Y20745D02*
X7215Y20705D01*
Y20525*
X6875Y20185*
Y19795*
X7025Y19645*
X7295*
Y19655*
Y19405D02*
X6855D01*
X6375Y19885*
Y20695*
X6325Y20745*
X6205*
X7664Y16757D02*
X7665D01*
Y16905*
X7456Y17114*
Y17455*
X7405*
X7861Y16757D02*
X7865D01*
Y17565*
X7795Y17635*
Y17655*
X8058Y16757D02*
X8065D01*
Y17155*
X8205Y17295*
Y17455*
X8155Y19661D02*
X7855D01*
X7735Y19781*
Y21175*
X7205Y21705*
Y21745*
X8155Y19917D02*
Y20695D01*
X8205Y20745*
X8255Y16757D02*
Y16995D01*
X8575Y17315*
Y17655*
X9235Y19425D02*
X8875D01*
X8655Y19645*
Y21335*
X8245Y21745*
X8205*
X9235Y19675D02*
X8985D01*
X8895Y19765*
Y20395*
X9205Y20705*
Y20745*
X9704Y16757D02*
X9695D01*
Y16915*
X9285Y17325*
Y17455*
X9901Y16757D02*
X9905D01*
Y17055*
X9695Y17265*
Y17645*
X9705Y17655*
X9715*
X10095Y19681D02*
X9839D01*
X9695Y19825*
Y21235*
X9205Y21725*
Y21745*
X10095Y19937D02*
Y20635D01*
X10205Y20745*
X10098Y16757D02*
Y17055D01*
X10095*
X10275Y17235*
Y17655*
X10285Y17665*
Y17655*
X10295Y16757D02*
Y16945D01*
X10855Y17505*
Y17665*
X11255Y19465D02*
X10835D01*
X10655Y19645*
Y21195*
X10205Y21645*
Y21745*
X11255Y19715D02*
X10985D01*
X10895Y19805*
Y20435*
X11205Y20745*
X11484Y16757D02*
X11485D01*
Y17035*
X11305Y17215*
Y17455*
X11681Y16757D02*
Y17629D01*
X11655Y17655*
X11878Y16757D02*
Y17328D01*
X12005Y17455*
X12075Y16757D02*
Y16975D01*
X12335Y17235*
Y17635*
X12355Y17655*
X12115Y19721D02*
X11859D01*
X11715Y19865*
Y21235*
X11205Y21745*
X12115Y19977D02*
Y20655D01*
X12205Y20745*
X13235Y19485D02*
X12855D01*
X12695Y19645*
Y21255*
X12205Y21745*
X13235Y19735D02*
X12985D01*
X12875Y19845*
Y20415*
X13205Y20745*
X13244Y16757D02*
Y16995D01*
X13245*
X12835Y17405*
Y17655*
X12825*
X13345D02*
X13335D01*
Y17635*
X13441Y17529*
Y16757*
X13638D02*
Y17125D01*
X13635*
X13935Y17425*
Y17665*
X13835Y16757D02*
Y16955D01*
X14295Y17415*
Y17455*
X14425*
X14095Y19741D02*
X13819D01*
X13715Y19845*
Y21235*
X13205Y21745*
X14095Y19997D02*
Y20635D01*
X14205Y20745*
X15124Y16757D02*
Y16864D01*
X15125Y16865*
Y17655*
X15235Y19505D02*
X14875D01*
X14675Y19705*
Y21275*
X14205Y21745*
X15235Y19755D02*
X14965D01*
X14855Y19865*
Y20395*
X15205Y20745*
X15321Y16757D02*
X15315D01*
Y17105*
X15525Y17315*
X15535*
Y17475*
X15715Y16757D02*
X16175Y17217D01*
Y17455*
X16095Y19761D02*
X15859D01*
X15715Y19905*
Y21235*
X15205Y21745*
X16205D02*
Y20745D01*
X17205Y21745D02*
Y20745D01*
X17255Y19525D02*
X16915D01*
X16695Y19745*
Y20255*
X16205Y20745*
X18115Y19781D02*
X18491D01*
X18595Y19885*
Y20355*
X18205Y20745*
X18115Y20037D02*
X17913D01*
X17205Y20745*
D02*
D114*
X13881Y10699D02*
X14115Y10933D01*
Y11435*
Y11335D02*
Y11435D01*
Y11815*
X12995Y12935*
X15865Y11915D02*
X15165D01*
X15035Y11785*
X16195Y12665D02*
X16565Y12295D01*
Y11915*
Y11215*
X16631Y11149*
X19545Y13705D02*
Y11925D01*
X19955Y11515*
Y10815D02*
Y10785D01*
X19335*
X18915Y10365*
Y9395*
X20335Y13705D02*
Y14045D01*
X21125Y14835*
X23785Y9985D02*
X22945D01*
D02*
D115*
X2061Y13479D02*
Y13481D01*
X2265Y13685*
X3303*
X3491Y13873*
X3697*
X7451Y1541D02*
X6935Y2058D01*
Y2611*
X7451Y1541D02*
X7455D01*
Y1545*
X7949Y1051*
X9985Y605D02*
X8395D01*
X7949Y1051*
X11395Y605D02*
X9985D01*
X11395Y5105D02*
Y5605D01*
Y5095*
X12355*
X12255Y14175D02*
Y13995D01*
X12475Y13775*
X14325Y9265D02*
X14225D01*
X13645Y8685*
X16675Y2105D02*
X15495D01*
X16675Y5105D02*
X15685D01*
X16675D02*
Y5605D01*
X18485Y8425D02*
X18917D01*
X19011Y8331*
X23785Y14045D02*
X22945D01*
X0Y0D02*
M02*
