G04 EasyPC Gerber Version 20.0.2 Build 4112 *
G04 #@! TF.Part,Single*
G04 #@! TF.FileFunction,Copper,L2,Inr *
%FSLAX24Y24*%
%MOIN*%
G04 #@! TA.AperFunction,SMDPad*
%ADD72R,0.06000X0.06000*%
G04 #@! TD.AperFunction*
%ADD84C,0.00500*%
%ADD89C,0.01000*%
%ADD85C,0.01500*%
G04 #@! TA.AperFunction,ViaPad*
%ADD88C,0.03200*%
G04 #@! TA.AperFunction,ComponentPad*
%ADD87C,0.03600*%
%AMT86*0 Rectangle Pad at angle 45*21,1,0.06000,0.06000,0,0,45*%
%ADD86T86*%
X0Y0D02*
D02*
D72*
X6205Y20745D03*
Y21745D03*
X7205Y20745D03*
Y21745D03*
X8205Y20745D03*
Y21745D03*
X9205Y20745D03*
Y21745D03*
X10205Y20745D03*
Y21745D03*
X11205Y20745D03*
Y21745D03*
X12205Y20745D03*
Y21745D03*
X13205Y20745D03*
Y21745D03*
X14205Y20745D03*
Y21745D03*
X15205Y20745D03*
Y21745D03*
X16145Y14385D03*
Y15385D03*
X16205Y20745D03*
Y21745D03*
X17205Y20745D03*
Y21745D03*
X18205Y20745D03*
Y21745D03*
X21075Y5945D03*
Y6945D03*
Y7945D03*
Y8945D03*
D02*
D84*
X2577Y19303D02*
X285Y17011D01*
Y16250*
X294Y16306*
X307Y16362*
X323Y16417*
X341Y16471*
X363Y16525*
X387Y16576*
X414Y16627*
X444Y16676*
X476Y16723*
X511Y16769*
X549Y16812*
X588Y16853*
X630Y16892*
X674Y16929*
X720Y16963*
X768Y16995*
X817Y17024*
X868Y17051*
X921Y17074*
X974Y17095*
X1029Y17112*
X1084Y17127*
X1140Y17139*
X1197Y17147*
X1254Y17153*
X1311Y17155*
X1369Y17154*
X1426Y17150*
X1483Y17143*
X1539Y17133*
X1595Y17120*
X1650Y17104*
X1704Y17084*
X1757Y17062*
X1808Y17037*
X1858Y17009*
X1907Y16979*
X1954Y16946*
X1999Y16910*
X2042Y16872*
X2082Y16832*
X2121Y16790*
X2157Y16745*
X2191Y16699*
X2222Y16651*
X2250Y16601*
X2276Y16550*
X2299Y16497*
X2319Y16444*
X2336Y16389*
X2350Y16333*
X2361Y16277*
X2369Y16220*
X2373Y16163*
X2375Y16105*
X2373Y16048*
X2369Y15991*
X2361Y15934*
X2350Y15878*
X2336Y15822*
X2319Y15767*
X2299Y15713*
X2276Y15661*
X2251Y15610*
X2222Y15560*
X2191Y15512*
X2158Y15465*
X2121Y15421*
X2083Y15378*
X2042Y15338*
X1999Y15300*
X1954Y15265*
X1908Y15231*
X1859Y15201*
X1809Y15173*
X1757Y15148*
X1704Y15126*
X1650Y15107*
X1596Y15091*
X1540Y15077*
X1483Y15067*
X1426Y15060*
X1369Y15056*
X1312Y15055*
X1255Y15057*
X1198Y15063*
X1141Y15071*
X1085Y15083*
X1029Y15098*
X975Y15115*
X921Y15136*
X869Y15159*
X818Y15186*
X769Y15215*
X721Y15246*
X675Y15281*
X631Y15317*
X589Y15356*
X549Y15398*
X512Y15441*
X477Y15486*
X444Y15533*
X414Y15582*
X387Y15633*
X363Y15685*
X341Y15738*
X323Y15792*
X307Y15847*
X295Y15903*
X285Y15960*
Y8250*
X294Y8306*
X307Y8362*
X323Y8417*
X341Y8471*
X363Y8525*
X387Y8576*
X414Y8627*
X444Y8676*
X476Y8723*
X511Y8769*
X549Y8812*
X588Y8853*
X630Y8892*
X674Y8929*
X720Y8963*
X768Y8995*
X817Y9024*
X868Y9051*
X921Y9074*
X974Y9095*
X1029Y9112*
X1084Y9127*
X1140Y9139*
X1197Y9147*
X1254Y9153*
X1311Y9155*
X1369Y9154*
X1426Y9150*
X1483Y9143*
X1539Y9133*
X1595Y9120*
X1650Y9104*
X1704Y9084*
X1757Y9062*
X1808Y9037*
X1858Y9009*
X1907Y8979*
X1954Y8946*
X1999Y8910*
X2042Y8872*
X2082Y8832*
X2121Y8790*
X2157Y8745*
X2191Y8699*
X2222Y8651*
X2250Y8601*
X2276Y8550*
X2299Y8497*
X2319Y8444*
X2336Y8389*
X2350Y8333*
X2361Y8277*
X2369Y8220*
X2373Y8163*
X2375Y8105*
X2373Y8048*
X2369Y7991*
X2361Y7934*
X2350Y7878*
X2336Y7822*
X2319Y7767*
X2299Y7713*
X2276Y7661*
X2251Y7610*
X2222Y7560*
X2191Y7512*
X2158Y7465*
X2121Y7421*
X2083Y7378*
X2042Y7338*
X1999Y7300*
X1954Y7265*
X1908Y7231*
X1859Y7201*
X1809Y7173*
X1757Y7148*
X1704Y7126*
X1650Y7107*
X1596Y7091*
X1540Y7077*
X1483Y7067*
X1426Y7060*
X1369Y7056*
X1312Y7055*
X1255Y7057*
X1198Y7063*
X1141Y7071*
X1085Y7083*
X1029Y7098*
X975Y7115*
X921Y7136*
X869Y7159*
X818Y7186*
X769Y7215*
X721Y7246*
X675Y7281*
X631Y7317*
X589Y7356*
X549Y7398*
X512Y7441*
X477Y7486*
X444Y7533*
X414Y7582*
X387Y7633*
X363Y7685*
X341Y7738*
X323Y7792*
X307Y7847*
X295Y7903*
X285Y7960*
Y7229*
X7209Y305*
X12105*
Y1875*
X15385*
X15362Y1887*
X15341Y1902*
X15321Y1919*
X15303Y1938*
X15286Y1958*
X15273Y1980*
X15261Y2004*
X15252Y2028*
X15245Y2053*
X15241Y2079*
X15240Y2105*
X15241Y2133*
X15246Y2160*
X15253Y2186*
X15264Y2212*
X15276Y2236*
X15292Y2259*
X15310Y2280*
X15330Y2299*
X15352Y2316*
X15376Y2330*
X15401Y2342*
X15427Y2351*
X15454Y2357*
X15481Y2360*
X15509*
X15536Y2357*
X15563Y2351*
X15589Y2342*
X15614Y2330*
X15638Y2316*
X15660Y2299*
X15680Y2280*
X15698Y2259*
X15713Y2237*
X15726Y2212*
X15737Y2187*
X15744Y2160*
X15748Y2133*
X15750Y2105*
X15749Y2079*
X15745Y2053*
X15738Y2028*
X15729Y2004*
X15717Y1980*
X15704Y1958*
X15687Y1938*
X15669Y1919*
X15649Y1902*
X15628Y1887*
X15605Y1875*
X18581*
X23945Y7239*
Y7755*
X23925Y7702*
X23902Y7651*
X23876Y7600*
X23847Y7552*
X23816Y7504*
X23783Y7459*
X23747Y7415*
X23708Y7374*
X23668Y7334*
X23625Y7297*
X23581Y7262*
X23535Y7229*
X23487Y7199*
X23437Y7172*
X23386Y7147*
X23334Y7126*
X23281Y7107*
X23226Y7091*
X23171Y7077*
X23116Y7067*
X23059Y7060*
X23003Y7056*
X22946Y7055*
X22890Y7057*
X22834Y7062*
X22778Y7070*
X22722Y7081*
X22667Y7095*
X22613Y7112*
X22560Y7132*
X22509Y7155*
X22458Y7180*
X22409Y7208*
X22361Y7239*
X22316Y7272*
X22272Y7308*
X22230Y7346*
X22190Y7386*
X22152Y7428*
X22117Y7472*
X22084Y7518*
X22054Y7566*
X22026Y7615*
X22001Y7666*
X21979Y7718*
X21959Y7771*
X21943Y7825*
X21929Y7880*
X21919Y7936*
X21911Y7992*
X21907Y8048*
X21905Y8105*
X21907Y8162*
X21911Y8218*
X21919Y8274*
X21929Y8330*
X21943Y8384*
X21959Y8439*
X21979Y8492*
X22001Y8544*
X22026Y8594*
X22054Y8644*
X22084Y8692*
X22117Y8738*
X22152Y8782*
X22190Y8824*
X22230Y8864*
X22272Y8902*
X22316Y8938*
X22361Y8971*
X22409Y9002*
X22458Y9030*
X22508Y9055*
X22560Y9078*
X22613Y9098*
X22667Y9115*
X22722Y9129*
X22777Y9140*
X22833Y9148*
X22890Y9153*
X22946Y9155*
X23003Y9154*
X23059Y9150*
X23115Y9143*
X23171Y9133*
X23226Y9119*
X23280Y9103*
X23334Y9084*
X23386Y9063*
X23437Y9038*
X23486Y9011*
X23534Y8981*
X23581Y8948*
X23625Y8913*
X23668Y8876*
X23708Y8837*
X23746Y8795*
X23783Y8751*
X23816Y8706*
X23847Y8659*
X23876Y8610*
X23902Y8559*
X23925Y8508*
X23945Y8455*
Y15755*
X23925Y15702*
X23902Y15651*
X23876Y15600*
X23847Y15552*
X23816Y15504*
X23783Y15459*
X23747Y15415*
X23708Y15374*
X23668Y15334*
X23625Y15297*
X23581Y15262*
X23535Y15229*
X23487Y15199*
X23437Y15172*
X23386Y15147*
X23334Y15126*
X23281Y15107*
X23226Y15091*
X23171Y15077*
X23116Y15067*
X23059Y15060*
X23003Y15056*
X22946Y15055*
X22890Y15057*
X22834Y15062*
X22778Y15070*
X22722Y15081*
X22667Y15095*
X22613Y15112*
X22560Y15132*
X22509Y15155*
X22458Y15180*
X22409Y15208*
X22361Y15239*
X22316Y15272*
X22272Y15308*
X22230Y15346*
X22190Y15386*
X22152Y15428*
X22117Y15472*
X22084Y15518*
X22054Y15566*
X22026Y15615*
X22001Y15666*
X21979Y15718*
X21959Y15771*
X21943Y15825*
X21929Y15880*
X21919Y15936*
X21911Y15992*
X21907Y16048*
X21905Y16105*
X21907Y16162*
X21911Y16218*
X21919Y16274*
X21929Y16330*
X21943Y16384*
X21959Y16439*
X21979Y16492*
X22001Y16544*
X22026Y16594*
X22054Y16644*
X22084Y16692*
X22117Y16738*
X22152Y16782*
X22190Y16824*
X22230Y16864*
X22272Y16902*
X22316Y16938*
X22361Y16971*
X22409Y17002*
X22458Y17030*
X22508Y17055*
X22560Y17078*
X22613Y17098*
X22667Y17115*
X22722Y17129*
X22777Y17140*
X22833Y17148*
X22890Y17153*
X22946Y17155*
X23003Y17154*
X23059Y17150*
X23115Y17143*
X23171Y17133*
X23226Y17119*
X23280Y17103*
X23334Y17084*
X23386Y17063*
X23437Y17038*
X23486Y17011*
X23534Y16981*
X23581Y16948*
X23625Y16913*
X23668Y16876*
X23708Y16837*
X23746Y16795*
X23783Y16751*
X23816Y16706*
X23847Y16659*
X23876Y16610*
X23902Y16559*
X23925Y16508*
X23945Y16455*
Y17021*
X20918Y20048*
X17035Y16165*
Y12675*
X16495Y12135*
X9945*
Y11745*
X7345*
X5785Y13305*
Y16095*
X2577Y19303*
X2389Y14580D02*
X2990Y15181D01*
X3591Y14580*
X2990Y13979*
X2389Y14580*
X3096Y13873D02*
X3697Y14474D01*
X4298Y13873*
X3697Y13272*
X3096Y13873*
X3330Y6525D02*
X3329Y6497D01*
X3324Y6470*
X3317Y6444*
X3306Y6418*
X3294Y6394*
X3278Y6371*
X3260Y6350*
X3240Y6331*
X3218Y6314*
X3194Y6300*
X3169Y6288*
X3143Y6279*
X3116Y6273*
X3089Y6270*
X3061*
X3034Y6273*
X3007Y6279*
X2981Y6288*
X2956Y6300*
X2932Y6314*
X2910Y6331*
X2890Y6350*
X2872Y6371*
X2857Y6393*
X2844Y6418*
X2833Y6443*
X2826Y6470*
X2822Y6497*
X2820Y6525*
X2821Y6553*
X2826Y6580*
X2833Y6606*
X2844Y6632*
X2856Y6656*
X2872Y6679*
X2890Y6700*
X2910Y6719*
X2932Y6736*
X2956Y6750*
X2981Y6762*
X3007Y6771*
X3034Y6777*
X3061Y6780*
X3089*
X3116Y6777*
X3143Y6771*
X3169Y6762*
X3194Y6750*
X3218Y6736*
X3240Y6719*
X3260Y6700*
X3278Y6679*
X3293Y6657*
X3306Y6632*
X3317Y6607*
X3324Y6580*
X3328Y6553*
X3330Y6525*
X3601Y5719D02*
X3624Y5740D01*
X3649Y5758*
X3675Y5774*
X3703Y5787*
X3732Y5797*
X3763Y5804*
X3793Y5808*
X3824Y5808*
X3855Y5806*
X3885Y5801*
X3915Y5792*
X3944Y5781*
X3971Y5766*
X3997Y5749*
X4021Y5730*
X4043Y5708*
X4062Y5684*
X4079Y5658*
X4094Y5631*
X4105Y5602*
X4114Y5573*
X4119Y5542*
X4121Y5511*
X4121Y5481*
X4117Y5450*
X4110Y5420*
X4100Y5391*
X4087Y5363*
X4071Y5336*
X4053Y5311*
X4032Y5288*
X4009Y5267*
X3984Y5249*
X3958Y5233*
X3930Y5220*
X3900Y5210*
X3870Y5203*
X3840Y5199*
X3809Y5199*
X3778Y5201*
X3748Y5206*
X3718Y5215*
X3689Y5226*
X3662Y5241*
X3636Y5258*
X3612Y5277*
X3590Y5299*
X3571Y5323*
X3554Y5349*
X3539Y5376*
X3528Y5405*
X3519Y5434*
X3514Y5465*
X3512Y5496*
X3512Y5527*
X3516Y5557*
X3523Y5587*
X3533Y5616*
X3546Y5645*
X3562Y5671*
X3580Y5696*
X3601Y5719*
X3803Y13166D02*
X4404Y13767D01*
X5005Y13166*
X4404Y12565*
X3803Y13166*
X4450Y16275D02*
X4449Y16247D01*
X4444Y16220*
X4437Y16194*
X4426Y16168*
X4414Y16144*
X4398Y16121*
X4380Y16100*
X4360Y16081*
X4338Y16064*
X4314Y16050*
X4289Y16038*
X4263Y16029*
X4236Y16023*
X4209Y16020*
X4181*
X4154Y16023*
X4127Y16029*
X4101Y16038*
X4076Y16050*
X4052Y16064*
X4030Y16081*
X4010Y16100*
X3992Y16121*
X3977Y16143*
X3964Y16168*
X3953Y16193*
X3946Y16220*
X3942Y16247*
X3940Y16275*
X3941Y16303*
X3946Y16330*
X3953Y16356*
X3964Y16382*
X3976Y16406*
X3992Y16429*
X4010Y16450*
X4030Y16469*
X4052Y16486*
X4076Y16500*
X4101Y16512*
X4127Y16521*
X4154Y16527*
X4181Y16530*
X4209*
X4236Y16527*
X4263Y16521*
X4289Y16512*
X4314Y16500*
X4338Y16486*
X4360Y16469*
X4380Y16450*
X4398Y16429*
X4413Y16407*
X4426Y16382*
X4437Y16357*
X4444Y16330*
X4448Y16303*
X4450Y16275*
X4510Y12459D02*
X5111Y13060D01*
X5712Y12459*
X5111Y11858*
X4510Y12459*
X4870Y9805D02*
X4871Y9833D01*
X4876Y9860*
X4883Y9886*
X4894Y9912*
X4906Y9936*
X4922Y9959*
X4940Y9980*
X4960Y9999*
X4982Y10016*
X5006Y10030*
X5031Y10042*
X5057Y10051*
X5084Y10057*
X5111Y10060*
X5139*
X5166Y10057*
X5193Y10051*
X5219Y10042*
X5244Y10030*
X5268Y10016*
X5290Y9999*
X5310Y9980*
X5328Y9959*
X5343Y9937*
X5356Y9912*
X5367Y9887*
X5374Y9860*
X5378Y9833*
X5380Y9805*
X5379Y9777*
X5374Y9750*
X5367Y9724*
X5356Y9698*
X5344Y9674*
X5328Y9651*
X5310Y9630*
X5290Y9611*
X5268Y9594*
X5244Y9580*
X5219Y9568*
X5193Y9559*
X5166Y9553*
X5139Y9550*
X5111*
X5084Y9553*
X5057Y9559*
X5031Y9568*
X5006Y9580*
X4982Y9594*
X4960Y9611*
X4940Y9630*
X4922Y9651*
X4907Y9673*
X4894Y9698*
X4883Y9723*
X4876Y9750*
X4872Y9777*
X4870Y9805*
X5218Y11751D02*
X5819Y12352D01*
X6420Y11751*
X5819Y11150*
X5218Y11751*
X5828Y3492D02*
X5851Y3513D01*
X5876Y3531*
X5903Y3546*
X5931Y3559*
X5960Y3569*
X5990Y3576*
X6021Y3580*
X6051Y3581*
X6082Y3579*
X6113Y3573*
X6142Y3565*
X6171Y3553*
X6199Y3539*
X6224Y3522*
X6248Y3503*
X6270Y3481*
X6290Y3457*
X6307Y3431*
X6321Y3404*
X6332Y3375*
X6341Y3345*
X6346Y3315*
X6349Y3284*
X6348Y3253*
X6344Y3223*
X6337Y3192*
X6327Y3163*
X6314Y3135*
X6299Y3109*
X6280Y3084*
X6260Y3060*
X6237Y3040*
X6212Y3021*
X6185Y3006*
X6157Y2993*
X6128Y2983*
X6098Y2976*
X6067Y2972*
X6036Y2971*
X6005Y2974*
X5975Y2979*
X5945Y2987*
X5917Y2999*
X5889Y3013*
X5863Y3030*
X5839Y3050*
X5818Y3072*
X5798Y3096*
X5781Y3121*
X5767Y3149*
X5755Y3177*
X5747Y3207*
X5741Y3237*
X5739Y3268*
X5740Y3299*
X5744Y3330*
X5751Y3360*
X5761Y3389*
X5773Y3417*
X5789Y3444*
X5807Y3469*
X5828Y3492*
X5925Y11044D02*
X6526Y11645D01*
X7127Y11044*
X6526Y10443*
X5925Y11044*
X6632Y10337D02*
X7233Y10938D01*
X7834Y10337*
X7233Y9736*
X6632Y10337*
X7339Y9630D02*
X7940Y10231D01*
X8541Y9630*
X7940Y9029*
X7339Y9630*
X7651Y8656D02*
X8142Y9148D01*
X8157Y9160*
X8173Y9171*
X8190Y9179*
X8207Y9185*
X8226Y9189*
X8245Y9190*
X8615*
X8632Y9212*
X8652Y9232*
X8674Y9250*
X8697Y9266*
X8722Y9278*
X8749Y9288*
X8776Y9295*
X8804Y9299*
X8832Y9300*
X8860Y9298*
X8887Y9292*
X8914Y9284*
X8940Y9273*
X8964Y9259*
X8987Y9242*
X9008Y9223*
X9026Y9202*
X9042Y9179*
X9056Y9154*
X9066Y9128*
X9074Y9101*
X9078Y9073*
X9080Y9045*
X9078Y9017*
X9074Y8989*
X9066Y8962*
X9056Y8936*
X9042Y8911*
X9026Y8888*
X9008Y8867*
X8987Y8848*
X8964Y8831*
X8940Y8817*
X8914Y8806*
X8887Y8798*
X8860Y8792*
X8832Y8790*
X8804Y8791*
X8776Y8795*
X8749Y8802*
X8722Y8811*
X8697Y8824*
X8674Y8840*
X8652Y8858*
X8632Y8878*
X8615Y8900*
X8305*
X7856Y8451*
X7859Y8425*
X7860Y8399*
X7858Y8372*
X7853Y8347*
X7879Y8354*
X7906Y8358*
X7932Y8360*
X7959Y8359*
X7986Y8355*
X8012Y8348*
X8037Y8339*
X8061Y8327*
X8084Y8312*
X8105Y8295*
X8124Y8277*
X8141Y8256*
X8155Y8233*
X8168Y8209*
X8177Y8184*
X8184Y8158*
X8189Y8132*
X8190Y8105*
X8189Y8077*
X8184Y8050*
X8177Y8024*
X8166Y7998*
X8154Y7974*
X8138Y7951*
X8120Y7930*
X8100Y7911*
X8078Y7894*
X8054Y7880*
X8029Y7868*
X8003Y7859*
X7976Y7853*
X7949Y7850*
X7921*
X7894Y7853*
X7867Y7859*
X7841Y7868*
X7816Y7880*
X7792Y7894*
X7770Y7911*
X7750Y7930*
X7732Y7951*
X7717Y7973*
X7704Y7998*
X7693Y8023*
X7686Y8050*
X7682Y8077*
X7680Y8105*
X7681Y8125*
X7683Y8144*
X7687Y8163*
X7661Y8156*
X7634Y8152*
X7608Y8150*
X7581Y8151*
X7554Y8155*
X7528Y8162*
X7503Y8171*
X7479Y8183*
X7456Y8198*
X7435Y8215*
X7416Y8233*
X7399Y8254*
X7385Y8277*
X7372Y8301*
X7363Y8326*
X7356Y8352*
X7351Y8378*
X7350Y8405*
X7352Y8433*
X7356Y8460*
X7364Y8487*
X7374Y8513*
X7387Y8538*
X7403Y8561*
X7421Y8582*
X7442Y8601*
X7464Y8617*
X7488Y8632*
X7514Y8643*
X7540Y8652*
X7567Y8657*
X7595Y8660*
X7623Y8659*
X7651Y8656*
X7694Y1051D02*
X7695Y1079D01*
X7700Y1106*
X7707Y1133*
X7717Y1158*
X7730Y1183*
X7746Y1205*
X7764Y1227*
X7784Y1246*
X7806Y1262*
X7829Y1276*
X7854Y1288*
X7880Y1297*
X7907Y1303*
X7935Y1306*
X7962*
X7990Y1303*
X8017Y1297*
X8043Y1288*
X8068Y1277*
X8092Y1262*
X8114Y1246*
X8134Y1227*
X8152Y1206*
X8167Y1183*
X8180Y1158*
X8190Y1133*
X8198Y1106*
X8202Y1079*
X8204Y1051*
X8202Y1024*
X8198Y996*
X8190Y970*
X8180Y944*
X8167Y920*
X8152Y897*
X8134Y876*
X8114Y857*
X8092Y840*
X8068Y826*
X8043Y814*
X8017Y806*
X7990Y800*
X7963Y797*
X7935*
X7908Y800*
X7881Y806*
X7854Y814*
X7829Y826*
X7806Y840*
X7784Y857*
X7764Y876*
X7746Y897*
X7730Y920*
X7717Y944*
X7707Y970*
X7700Y996*
X7695Y1023*
X7694Y1051*
X7842Y3799D02*
X9434Y5382D01*
Y7565*
X9436Y7586*
X9440Y7607*
X9446Y7627*
X9456Y7645*
X9467Y7663*
X9481Y7679*
X9884Y8082*
Y8088*
X9861Y8073*
X9836Y8061*
X9809Y8051*
X9782Y8044*
X9754Y8041*
X9726Y8040*
X9699Y8043*
X9671Y8048*
X9644Y8057*
X9619Y8068*
X9595Y8082*
X9572Y8099*
X9552Y8118*
X9533Y8139*
X9517Y8162*
X9504Y8187*
X9494Y8212*
X9486Y8239*
X9481Y8267*
X9480Y8295*
X9482Y8323*
X9486Y8351*
X9494Y8377*
X9504Y8403*
X9517Y8428*
X9533Y8451*
X9552Y8472*
X9572Y8491*
X9595Y8508*
X9619Y8522*
X9644Y8533*
X9671Y8542*
X9699Y8547*
X9726Y8550*
X9754Y8549*
X9782Y8546*
X9809Y8539*
X9836Y8529*
X9861Y8517*
X9884Y8502*
Y9498*
X9861Y9483*
X9836Y9471*
X9809Y9461*
X9782Y9454*
X9754Y9451*
X9726Y9450*
X9699Y9453*
X9671Y9458*
X9644Y9467*
X9619Y9478*
X9595Y9492*
X9572Y9509*
X9552Y9528*
X9533Y9549*
X9517Y9572*
X9504Y9597*
X9494Y9622*
X9486Y9649*
X9481Y9677*
X9480Y9705*
X9482Y9733*
X9486Y9761*
X9494Y9787*
X9504Y9813*
X9517Y9838*
X9533Y9861*
X9552Y9882*
X9572Y9901*
X9595Y9918*
X9619Y9932*
X9644Y9943*
X9671Y9952*
X9699Y9957*
X9726Y9960*
X9754Y9959*
X9782Y9956*
X9809Y9949*
X9836Y9939*
X9861Y9927*
X9884Y9912*
Y10115*
X9886Y10136*
X9890Y10157*
X9896Y10177*
X9906Y10195*
X9917Y10213*
X9931Y10229*
X10741Y11039*
X10757Y11053*
X10775Y11064*
X10794Y11074*
X10813Y11080*
X10834Y11084*
X10855Y11086*
X11796*
X11777Y11103*
X11760Y11121*
X11744Y11141*
X11731Y11163*
X11720Y11186*
X11711Y11210*
X11705Y11234*
X11701Y11260*
X11700Y11285*
X11701Y11313*
X11706Y11340*
X11713Y11366*
X11724Y11392*
X11736Y11416*
X11752Y11439*
X11770Y11460*
X11790Y11479*
X11812Y11496*
X11836Y11510*
X11861Y11522*
X11887Y11531*
X11914Y11537*
X11941Y11540*
X11969*
X11996Y11537*
X12023Y11531*
X12049Y11522*
X12074Y11510*
X12098Y11496*
X12120Y11479*
X12140Y11460*
X12158Y11439*
X12173Y11417*
X12186Y11392*
X12197Y11367*
X12204Y11340*
X12208Y11313*
X12210Y11285*
X12209Y11258*
X12204Y11232*
X12198Y11206*
X12188Y11182*
X12176Y11158*
X12161Y11135*
X12145Y11115*
X12126Y11096*
X12105Y11079*
X12083Y11064*
X12059Y11052*
X12034Y11043*
X12039Y11039*
X12801Y10276*
X12829Y10279*
X12856Y10280*
X12884Y10277*
X12911Y10271*
X12938Y10263*
X12963Y10251*
X12987Y10237*
X13009Y10220*
X13029Y10201*
X13047Y10180*
X13063Y10157*
X13076Y10133*
X13086Y10107*
X13094Y10080*
X13099Y10053*
X13100Y10025*
X13099Y9997*
X13094Y9970*
X13087Y9944*
X13076Y9918*
X13064Y9894*
X13048Y9871*
X13030Y9850*
X13010Y9831*
X12988Y9814*
X12964Y9800*
X12939Y9788*
X12913Y9779*
X12886Y9773*
X12859Y9770*
X12831*
X12804Y9773*
X12777Y9779*
X12751Y9788*
X12726Y9800*
X12702Y9814*
X12680Y9831*
X12660Y9850*
X12642Y9871*
X12627Y9893*
X12614Y9918*
X12603Y9943*
X12596Y9970*
X12592Y9997*
X12590Y10025*
X12590Y10033*
X11858Y10764*
X11757*
X11780Y10751*
X11803Y10735*
X11823Y10717*
X11842Y10697*
X11858Y10676*
X11872Y10652*
X11883Y10627*
X11891Y10601*
X11897Y10575*
X11900Y10548*
X11900Y10521*
X11897Y10494*
X11891Y10467*
X11882Y10441*
X11871Y10416*
X11857Y10393*
X11840Y10371*
X11822Y10351*
X11801Y10334*
X11779Y10318*
X11755Y10305*
X11779Y10292*
X11802Y10276*
X11822Y10258*
X11841Y10238*
X11857Y10216*
X11871Y10192*
X11883Y10167*
X11891Y10141*
X11897Y10114*
X11900Y10087*
X11900Y10060*
X11896Y10032*
X11890Y10006*
X11881Y9980*
X11870Y9955*
X11856Y9931*
X11839Y9909*
X11820Y9890*
Y5920*
X13224*
X13221Y5942*
X13220Y5965*
X13221Y5993*
X13226Y6020*
X13233Y6046*
X13244Y6072*
X13256Y6096*
X13272Y6119*
X13290Y6140*
X13310Y6159*
X13332Y6176*
X13356Y6190*
X13381Y6202*
X13407Y6211*
X13434Y6217*
X13461Y6220*
X13489*
X13516Y6217*
X13543Y6211*
X13569Y6202*
X13594Y6190*
X13618Y6176*
X13640Y6159*
X13660Y6140*
X13678Y6119*
X13693Y6097*
X13706Y6072*
X13717Y6047*
X13724Y6020*
X13728Y5993*
X13730Y5965*
X13728Y5937*
X13724Y5910*
X13716Y5883*
X13706Y5857*
X13693Y5832*
X13677Y5809*
X13659Y5788*
X13638Y5769*
X13616Y5753*
X13592Y5738*
X13566Y5727*
X13540Y5718*
X13513Y5713*
X13485Y5710*
X13457Y5711*
X13429Y5714*
X13388Y5672*
X13373Y5660*
X13357Y5649*
X13340Y5641*
X13323Y5635*
X13304Y5631*
X13285Y5630*
X11757*
X10789Y4661*
X10773Y4647*
X10755Y4636*
X10736Y4626*
X10717Y4620*
X10696Y4616*
X10675Y4614*
X10591*
X10573Y4593*
X10553Y4573*
X10531Y4556*
X10508Y4541*
X10483Y4529*
X10456Y4520*
X10429Y4514*
X10402Y4511*
X10374Y4510*
X10346Y4513*
X10319Y4519*
X10293Y4527*
X10267Y4539*
X10243Y4553*
X10221Y4570*
X10201Y4589*
X10183Y4610*
X10167Y4633*
X10154Y4657*
X10144Y4683*
X10136Y4710*
X10132Y4737*
X10130Y4765*
X10132Y4793*
X10136Y4820*
X10144Y4847*
X10154Y4873*
X10167Y4898*
X10183Y4921*
X10201Y4942*
X10222Y4961*
X10244Y4977*
X10268Y4992*
X10294Y5003*
X10320Y5012*
X10347Y5017*
X10375Y5020*
X10403Y5019*
X10431Y5016*
X10458Y5009*
X10484Y5000*
X10509Y4988*
X10533Y4973*
X10555Y4955*
X10574Y4936*
X10608*
X11530Y5857*
Y9847*
X11507Y9861*
X11485Y9877*
X11465Y9895*
X11447Y9915*
X11431Y9937*
X11417Y9960*
X11406Y9985*
X11398Y10011*
X11393Y10037*
X11390Y10064*
X11391Y10091*
X11394Y10118*
X11400Y10144*
X11408Y10170*
X11420Y10194*
X11434Y10218*
X11450Y10239*
X11468Y10259*
X11489Y10277*
X11511Y10292*
X11535Y10305*
X11512Y10318*
X11490Y10333*
X11470Y10350*
X11451Y10369*
X11435Y10390*
X11335*
X11010Y10065*
Y9870*
X11032Y9889*
X11055Y9904*
X11080Y9917*
X11106Y9928*
X11134Y9935*
X11162Y9939*
X11190Y9940*
X11218Y9938*
X11246Y9933*
X11273Y9924*
X11299Y9913*
X11323Y9899*
X11346Y9883*
X11367Y9864*
X11386Y9842*
X11402Y9819*
X11415Y9794*
X11426Y9768*
X11434Y9741*
X11438Y9713*
X11440Y9685*
X11439Y9658*
X11434Y9631*
X11427Y9604*
X11417Y9579*
X11404Y9555*
X11389Y9532*
X11371Y9511*
X11352Y9492*
X11330Y9475*
Y6819*
X11350Y6800*
X11368Y6779*
X11383Y6757*
X11396Y6732*
X11407Y6706*
X11414Y6680*
X11419Y6653*
X11420Y6625*
X11419Y6597*
X11414Y6570*
X11407Y6544*
X11396Y6518*
X11384Y6494*
X11368Y6471*
X11350Y6450*
X11330Y6431*
X11308Y6414*
X11284Y6400*
X11259Y6388*
X11233Y6379*
X11206Y6373*
X11179Y6370*
X11151*
X11124Y6373*
X11097Y6379*
X11071Y6388*
X11046Y6400*
X11022Y6414*
X11000Y6431*
X10980Y6450*
X10962Y6471*
X10947Y6493*
X10934Y6518*
X10923Y6543*
X10916Y6570*
X10912Y6597*
X10910Y6625*
X10911Y6652*
X10916Y6679*
X10923Y6705*
X10932Y6730*
X10945Y6754*
X10960Y6776*
X10977Y6797*
X10996Y6816*
X11017Y6833*
X11040Y6847*
Y7420*
X11018Y7401*
X10995Y7386*
X10970Y7373*
X10944Y7362*
X10916Y7355*
X10888Y7351*
X10860Y7350*
X10832Y7352*
X10804Y7357*
X10777Y7366*
X10751Y7377*
X10727Y7391*
X10704Y7407*
X10683Y7426*
X10664Y7448*
X10648Y7471*
X10635Y7496*
X10624Y7522*
X10616Y7549*
X10612Y7577*
X10610Y7605*
X10611Y7632*
X10616Y7659*
X10623Y7686*
X10633Y7711*
X10646Y7735*
X10661Y7758*
X10679Y7779*
X10698Y7798*
X10720Y7815*
Y9888*
X10704Y9866*
X10687Y9846*
X10667Y9828*
X10646Y9812*
X10623Y9799*
X10598Y9788*
X10573Y9779*
X10547Y9773*
X10520Y9770*
X10493Y9770*
X10467Y9773*
X10492Y9761*
X10516Y9747*
X10539Y9730*
X10559Y9711*
X10578Y9690*
X10593Y9667*
X10606Y9642*
X10617Y9616*
X10624Y9589*
X10629Y9562*
X10630Y9534*
X10628Y9506*
X10624Y9478*
X10616Y9451*
X10605Y9425*
X10592Y9401*
X10576Y9378*
X10557Y9357*
X10537Y9338*
X10514Y9321*
X10490Y9307*
Y7955*
X10489Y7936*
X10485Y7917*
X10479Y7900*
X10471Y7883*
X10460Y7867*
X10448Y7852*
X10091Y7496*
X10117Y7503*
X10143Y7508*
X10170Y7510*
X10197Y7509*
X10224Y7505*
X10250Y7499*
X10275Y7489*
X10300Y7477*
X10322Y7463*
X10344Y7446*
X10363Y7427*
X10380Y7406*
X10395Y7384*
X10407Y7360*
X10417Y7335*
X10424Y7309*
X10429Y7282*
X10430Y7255*
X10429Y7227*
X10424Y7200*
X10416Y7173*
X10406Y7147*
X10393Y7123*
X10377Y7100*
X10359Y7079*
X10339Y7060*
X10317Y7043*
X10293Y7029*
X10268Y7018*
X10242Y7009*
X10214Y7003*
X10187Y7000*
X10159Y7000*
X10131Y7004*
X10104Y7010*
X10078Y7019*
X10053Y7031*
X10029Y7046*
X10008Y7063*
X9988Y7082*
X9970Y7103*
Y4997*
X9994Y4985*
X10016Y4971*
X10036Y4954*
X10055Y4935*
X10072Y4914*
X10086Y4892*
X10098Y4868*
X10108Y4843*
X10114Y4818*
X10119Y4792*
X10120Y4765*
X10119Y4737*
X10114Y4710*
X10107Y4684*
X10096Y4658*
X10084Y4634*
X10068Y4611*
X10050Y4590*
X10030Y4571*
X10008Y4554*
X9984Y4540*
X9959Y4528*
X9933Y4519*
X9906Y4513*
X9879Y4510*
X9851*
X9824Y4513*
X9797Y4519*
X9771Y4528*
X9746Y4540*
X9722Y4554*
X9700Y4571*
X9680Y4590*
X9662Y4611*
X9647Y4633*
X9634Y4658*
X9623Y4683*
X9616Y4710*
X9612Y4737*
X9610Y4765*
X9611Y4793*
X9616Y4820*
X9623Y4846*
X9634Y4872*
X9647Y4897*
X9662Y4919*
X9680Y4941*
Y5173*
X8069Y3571*
X8070Y3545*
X8069Y3517*
X8064Y3490*
X8057Y3464*
X8046Y3438*
X8034Y3414*
X8018Y3391*
X8000Y3370*
X7980Y3351*
X7958Y3334*
X7934Y3320*
X7909Y3308*
X7883Y3299*
X7856Y3293*
X7829Y3290*
X7801*
X7774Y3293*
X7747Y3299*
X7721Y3308*
X7696Y3320*
X7672Y3334*
X7650Y3351*
X7630Y3370*
X7612Y3391*
X7597Y3413*
X7584Y3438*
X7573Y3463*
X7566Y3490*
X7562Y3517*
X7560Y3545*
X7561Y3572*
X7566Y3598*
X7573Y3624*
X7582Y3649*
X7594Y3673*
X7609Y3695*
X7626Y3716*
X7644Y3735*
X7665Y3751*
X7688Y3766*
X7711Y3778*
X7736Y3788*
X7762Y3795*
X7789Y3799*
X7815Y3800*
X7842Y3799*
X8560Y5435D02*
X8561Y5463D01*
X8566Y5490*
X8573Y5516*
X8584Y5542*
X8596Y5566*
X8612Y5589*
X8630Y5610*
X8650Y5629*
X8672Y5646*
X8696Y5660*
X8721Y5672*
X8747Y5681*
X8774Y5687*
X8801Y5690*
X8829*
X8856Y5687*
X8883Y5681*
X8909Y5672*
X8934Y5660*
X8958Y5646*
X8980Y5629*
X9000Y5610*
X9018Y5589*
X9033Y5567*
X9046Y5542*
X9057Y5517*
X9064Y5490*
X9068Y5463*
X9070Y5435*
X9069Y5407*
X9064Y5380*
X9057Y5354*
X9046Y5328*
X9034Y5304*
X9018Y5281*
X9000Y5260*
X8980Y5241*
X8958Y5224*
X8934Y5210*
X8909Y5198*
X8883Y5189*
X8856Y5183*
X8829Y5180*
X8801*
X8774Y5183*
X8747Y5189*
X8721Y5198*
X8696Y5210*
X8672Y5224*
X8650Y5241*
X8630Y5260*
X8612Y5281*
X8597Y5303*
X8584Y5328*
X8573Y5353*
X8566Y5380*
X8562Y5407*
X8560Y5435*
X9210Y7145D02*
X9209Y7117D01*
X9204Y7090*
X9197Y7064*
X9186Y7038*
X9174Y7014*
X9158Y6991*
X9140Y6970*
X9120Y6951*
X9098Y6934*
X9074Y6920*
X9049Y6908*
X9023Y6899*
X8996Y6893*
X8969Y6890*
X8941*
X8914Y6893*
X8887Y6899*
X8861Y6908*
X8836Y6920*
X8812Y6934*
X8790Y6951*
X8770Y6970*
X8752Y6991*
X8737Y7013*
X8724Y7038*
X8713Y7063*
X8706Y7090*
X8702Y7117*
X8700Y7145*
X8701Y7173*
X8706Y7200*
X8713Y7226*
X8724Y7252*
X8736Y7276*
X8752Y7299*
X8770Y7320*
X8790Y7339*
X8812Y7356*
X8836Y7370*
X8861Y7382*
X8887Y7391*
X8914Y7397*
X8941Y7400*
X8969*
X8996Y7397*
X9023Y7391*
X9049Y7382*
X9074Y7370*
X9098Y7356*
X9120Y7339*
X9140Y7320*
X9158Y7299*
X9173Y7277*
X9186Y7252*
X9197Y7227*
X9204Y7200*
X9208Y7173*
X9210Y7145*
X9510Y7995D02*
X9509Y7967D01*
X9504Y7940*
X9497Y7914*
X9486Y7888*
X9474Y7864*
X9458Y7841*
X9440Y7820*
X9420Y7801*
X9398Y7784*
X9374Y7770*
X9349Y7758*
X9323Y7749*
X9296Y7743*
X9269Y7740*
X9241*
X9214Y7743*
X9187Y7749*
X9161Y7758*
X9136Y7770*
X9112Y7784*
X9090Y7801*
X9070Y7820*
X9052Y7841*
X9037Y7863*
X9024Y7888*
X9013Y7913*
X9006Y7940*
X9002Y7967*
X9000Y7995*
X9001Y8023*
X9006Y8050*
X9013Y8076*
X9024Y8102*
X9036Y8126*
X9052Y8149*
X9070Y8170*
X9090Y8189*
X9112Y8206*
X9136Y8220*
X9161Y8232*
X9187Y8241*
X9214Y8247*
X9241Y8250*
X9269*
X9296Y8247*
X9323Y8241*
X9349Y8232*
X9374Y8220*
X9398Y8206*
X9420Y8189*
X9440Y8170*
X9458Y8149*
X9473Y8127*
X9486Y8102*
X9497Y8077*
X9504Y8050*
X9508Y8023*
X9510Y7995*
Y9365D02*
X9509Y9337D01*
X9504Y9310*
X9497Y9284*
X9486Y9258*
X9474Y9234*
X9458Y9211*
X9440Y9190*
X9420Y9171*
X9398Y9154*
X9374Y9140*
X9349Y9128*
X9323Y9119*
X9296Y9113*
X9269Y9110*
X9241*
X9214Y9113*
X9187Y9119*
X9161Y9128*
X9136Y9140*
X9112Y9154*
X9090Y9171*
X9070Y9190*
X9052Y9211*
X9037Y9233*
X9024Y9258*
X9013Y9283*
X9006Y9310*
X9002Y9337*
X9000Y9365*
X9001Y9393*
X9006Y9420*
X9013Y9446*
X9024Y9472*
X9036Y9496*
X9052Y9519*
X9070Y9540*
X9090Y9559*
X9112Y9576*
X9136Y9590*
X9161Y9602*
X9187Y9611*
X9214Y9617*
X9241Y9620*
X9269*
X9296Y9617*
X9323Y9611*
X9349Y9602*
X9374Y9590*
X9398Y9576*
X9420Y9559*
X9440Y9540*
X9458Y9519*
X9473Y9497*
X9486Y9472*
X9497Y9447*
X9504Y9420*
X9508Y9393*
X9510Y9365*
X9770Y11475D02*
X9769Y11447D01*
X9764Y11420*
X9757Y11394*
X9746Y11368*
X9734Y11344*
X9718Y11321*
X9700Y11300*
X9680Y11281*
X9658Y11264*
X9634Y11250*
X9609Y11238*
X9583Y11229*
X9556Y11223*
X9529Y11220*
X9501*
X9474Y11223*
X9447Y11229*
X9421Y11238*
X9396Y11250*
X9372Y11264*
X9350Y11281*
X9330Y11300*
X9312Y11321*
X9297Y11343*
X9284Y11368*
X9273Y11393*
X9266Y11420*
X9262Y11447*
X9260Y11475*
X9261Y11503*
X9266Y11530*
X9273Y11556*
X9284Y11582*
X9296Y11606*
X9312Y11629*
X9330Y11650*
X9350Y11669*
X9372Y11686*
X9396Y11700*
X9421Y11712*
X9447Y11721*
X9474Y11727*
X9501Y11730*
X9529*
X9556Y11727*
X9583Y11721*
X9609Y11712*
X9634Y11700*
X9658Y11686*
X9680Y11669*
X9700Y11650*
X9718Y11629*
X9733Y11607*
X9746Y11582*
X9757Y11557*
X9764Y11530*
X9768Y11503*
X9770Y11475*
X9920Y3735D02*
X9921Y3763D01*
X9926Y3790*
X9933Y3816*
X9944Y3842*
X9956Y3866*
X9972Y3889*
X9990Y3910*
X10010Y3929*
X10032Y3946*
X10056Y3960*
X10081Y3972*
X10107Y3981*
X10134Y3987*
X10161Y3990*
X10189*
X10216Y3987*
X10243Y3981*
X10269Y3972*
X10294Y3960*
X10318Y3946*
X10340Y3929*
X10360Y3910*
X10378Y3889*
X10393Y3867*
X10406Y3842*
X10417Y3817*
X10424Y3790*
X10428Y3763*
X10430Y3735*
X10429Y3707*
X10424Y3680*
X10417Y3654*
X10406Y3628*
X10394Y3604*
X10378Y3581*
X10360Y3560*
X10340Y3541*
X10318Y3524*
X10294Y3510*
X10269Y3498*
X10243Y3489*
X10216Y3483*
X10189Y3480*
X10161*
X10134Y3483*
X10107Y3489*
X10081Y3498*
X10056Y3510*
X10032Y3524*
X10010Y3541*
X9990Y3560*
X9972Y3581*
X9957Y3603*
X9944Y3628*
X9933Y3653*
X9926Y3680*
X9922Y3707*
X9920Y3735*
X12280Y8065D02*
X12281Y8093D01*
X12286Y8120*
X12293Y8146*
X12304Y8172*
X12316Y8196*
X12332Y8219*
X12350Y8240*
X12370Y8259*
X12392Y8276*
X12416Y8290*
X12441Y8302*
X12467Y8311*
X12494Y8317*
X12521Y8320*
X12549*
X12576Y8317*
X12603Y8311*
X12629Y8302*
X12654Y8290*
X12678Y8276*
X12700Y8259*
X12720Y8240*
X12738Y8219*
X12753Y8197*
X12766Y8172*
X12777Y8147*
X12784Y8120*
X12788Y8093*
X12790Y8065*
X12789Y8037*
X12784Y8010*
X12777Y7984*
X12766Y7958*
X12754Y7934*
X12738Y7911*
X12720Y7890*
X12700Y7871*
X12678Y7854*
X12654Y7840*
X12629Y7828*
X12603Y7819*
X12576Y7813*
X12549Y7810*
X12521*
X12494Y7813*
X12467Y7819*
X12441Y7828*
X12416Y7840*
X12392Y7854*
X12370Y7871*
X12350Y7890*
X12332Y7911*
X12317Y7933*
X12304Y7958*
X12293Y7983*
X12286Y8010*
X12282Y8037*
X12280Y8065*
X12300Y6715D02*
X12301Y6743D01*
X12306Y6770*
X12313Y6796*
X12324Y6822*
X12336Y6846*
X12352Y6869*
X12370Y6890*
X12390Y6909*
X12412Y6926*
X12436Y6940*
X12461Y6952*
X12487Y6961*
X12514Y6967*
X12541Y6970*
X12569*
X12596Y6967*
X12623Y6961*
X12649Y6952*
X12674Y6940*
X12698Y6926*
X12720Y6909*
X12740Y6890*
X12758Y6869*
X12773Y6847*
X12786Y6822*
X12797Y6797*
X12804Y6770*
X12808Y6743*
X12810Y6715*
X12809Y6687*
X12804Y6660*
X12797Y6634*
X12786Y6608*
X12774Y6584*
X12758Y6561*
X12740Y6540*
X12720Y6521*
X12698Y6504*
X12674Y6490*
X12649Y6478*
X12623Y6469*
X12596Y6463*
X12569Y6460*
X12541*
X12514Y6463*
X12487Y6469*
X12461Y6478*
X12436Y6490*
X12412Y6504*
X12390Y6521*
X12370Y6540*
X12352Y6561*
X12337Y6583*
X12324Y6608*
X12313Y6633*
X12306Y6660*
X12302Y6687*
X12300Y6715*
X12610Y5095D02*
X12609Y5067D01*
X12604Y5040*
X12597Y5014*
X12586Y4988*
X12574Y4964*
X12558Y4941*
X12540Y4920*
X12520Y4901*
X12498Y4884*
X12474Y4870*
X12449Y4858*
X12423Y4849*
X12396Y4843*
X12369Y4840*
X12341*
X12314Y4843*
X12287Y4849*
X12261Y4858*
X12236Y4870*
X12212Y4884*
X12190Y4901*
X12170Y4920*
X12152Y4941*
X12137Y4963*
X12124Y4988*
X12113Y5013*
X12106Y5040*
X12102Y5067*
X12100Y5095*
X12101Y5123*
X12106Y5150*
X12113Y5176*
X12124Y5202*
X12136Y5226*
X12152Y5249*
X12170Y5270*
X12190Y5289*
X12212Y5306*
X12236Y5320*
X12261Y5332*
X12287Y5341*
X12314Y5347*
X12341Y5350*
X12369*
X12396Y5347*
X12423Y5341*
X12449Y5332*
X12474Y5320*
X12498Y5306*
X12520Y5289*
X12540Y5270*
X12558Y5249*
X12573Y5227*
X12586Y5202*
X12597Y5177*
X12604Y5150*
X12608Y5123*
X12610Y5095*
X12967Y11250D02*
X13065D01*
X13084Y11249*
X13103Y11245*
X13120Y11239*
X13137Y11231*
X13153Y11220*
X13168Y11208*
X13418Y10958*
X13430Y10943*
X13441Y10927*
X13449Y10910*
X13455Y10893*
X13459Y10874*
X13460Y10855*
Y8861*
X13480Y8879*
X13502Y8896*
X13526Y8910*
X13551Y8922*
X13577Y8931*
X13604Y8937*
X13631Y8940*
X13659*
X13686Y8937*
X13713Y8931*
X13739Y8922*
X13764Y8910*
X13788Y8896*
X13810Y8879*
X13830Y8860*
X13848Y8839*
X13864Y8817*
X13876Y8792*
X13887Y8767*
X13894Y8740*
X13899Y8713*
X13900Y8685*
X13899Y8657*
X13894Y8630*
X13887Y8604*
X13876Y8578*
X13864Y8554*
X13848Y8531*
X13830Y8510*
X13810Y8491*
X13788Y8474*
X13765Y8460*
X13740Y8448*
X13713Y8439*
X13686Y8433*
X13659Y8430*
X13631*
X13604Y8433*
X13577Y8439*
X13551Y8448*
X13526Y8460*
X13502Y8474*
X13480Y8490*
X13460Y8509*
Y8425*
X15152Y6733*
X15173Y6752*
X15196Y6769*
X15220Y6783*
X15246Y6794*
X15273Y6802*
X15301Y6808*
X15329Y6810*
X15357Y6809*
X15385Y6805*
X15412Y6798*
X15438Y6788*
X15464Y6775*
X15487Y6760*
X15509Y6742*
X15528Y6721*
X15545Y6699*
X15560Y6675*
X15572Y6649*
X15581Y6623*
X15587Y6595*
X15590Y6567*
X17241Y8219*
X17257Y8233*
X17275Y8244*
X17294Y8254*
X17313Y8260*
X17334Y8264*
X17355Y8266*
X17627*
X17645Y8286*
X17666Y8304*
X17688Y8320*
X17712Y8333*
X17737Y8344*
X17763Y8352*
X17789Y8357*
X17817Y8360*
X17844Y8359*
X17871Y8356*
X17897Y8349*
X17923Y8340*
X17948Y8329*
X17971Y8314*
X17992Y8297*
X18012Y8279*
X18029Y8258*
X18044Y8235*
X18057Y8211*
X18067Y8185*
X18074Y8159*
X18078Y8132*
X18080Y8105*
X18079Y8078*
X18074Y8051*
X18067Y8025*
X18057Y7999*
X18044Y7975*
X18029Y7952*
X18012Y7931*
X17992Y7913*
X17971Y7896*
X17948Y7881*
X17923Y7870*
X17897Y7860*
X17871Y7854*
X17844Y7851*
X17817Y7850*
X17789Y7852*
X17763Y7858*
X17737Y7866*
X17712Y7877*
X17688Y7890*
X17666Y7906*
X17645Y7924*
X17627Y7944*
X17422*
X15599Y6122*
X15600Y6105*
X15599Y6077*
X15594Y6050*
X15587Y6024*
X15576Y5998*
X15564Y5974*
X15548Y5951*
X15530Y5930*
X15510Y5911*
X15488Y5894*
X15464Y5880*
X15439Y5868*
X15413Y5859*
X15386Y5853*
X15359Y5850*
X15331*
X15304Y5853*
X15277Y5859*
X15251Y5868*
X15226Y5880*
X15202Y5894*
X15180Y5911*
X15160Y5930*
X15142Y5951*
X15127Y5973*
X15114Y5998*
X15103Y6023*
X15096Y6050*
X15092Y6077*
X15090Y6105*
X15091Y6132*
X15096Y6159*
X15103Y6185*
X15112Y6210*
X15125Y6234*
X15140Y6256*
X15157Y6277*
X15176Y6296*
X15197Y6313*
X15220Y6327*
X15198Y6340*
X15177Y6355*
X15158Y6371*
X15141Y6390*
X15125Y6410*
X15125*
X15106Y6411*
X15087Y6415*
X15070Y6421*
X15053Y6429*
X15037Y6440*
X15022Y6452*
X13212Y8262*
X13200Y8277*
X13189Y8293*
X13181Y8310*
X13175Y8327*
X13171Y8346*
X13170Y8365*
Y10795*
X13040Y10925*
X13025Y10901*
X13008Y10879*
X12989Y10858*
X12967Y10840*
X12944Y10825*
X12918Y10812*
X12892Y10802*
X12865Y10795*
X12837Y10791*
X12809Y10790*
X12781Y10792*
X12753Y10798*
X12726Y10806*
X12700Y10817*
X12676Y10831*
X12653Y10848*
X12633Y10867*
X12614Y10888*
X12598Y10911*
X12585Y10936*
X12574Y10962*
X12566Y10989*
X12562Y11017*
X12560Y11045*
X12562Y11073*
X12566Y11101*
X12574Y11128*
X12584Y11154*
X12598Y11179*
X12614Y11202*
X12632Y11223*
X12653Y11242*
X12676Y11259*
X12700Y11273*
X12726Y11284*
X12753Y11292*
X12780Y11298*
X12808Y11300*
X12837Y11299*
X12864Y11295*
X12892Y11288*
X12918Y11278*
X12943Y11265*
X12967Y11250*
X13730Y5515D02*
X13731Y5543D01*
X13736Y5570*
X13743Y5596*
X13754Y5622*
X13766Y5646*
X13782Y5669*
X13800Y5690*
X13820Y5709*
X13842Y5726*
X13866Y5740*
X13891Y5752*
X13917Y5761*
X13944Y5767*
X13971Y5770*
X13999*
X14026Y5767*
X14053Y5761*
X14079Y5752*
X14104Y5740*
X14128Y5726*
X14150Y5709*
X14170Y5690*
X14188Y5669*
X14203Y5647*
X14216Y5622*
X14227Y5597*
X14234Y5570*
X14238Y5543*
X14240Y5515*
X14239Y5487*
X14234Y5460*
X14227Y5434*
X14216Y5408*
X14204Y5384*
X14188Y5361*
X14170Y5340*
X14150Y5321*
X14128Y5304*
X14104Y5290*
X14079Y5278*
X14053Y5269*
X14026Y5263*
X13999Y5260*
X13971*
X13944Y5263*
X13917Y5269*
X13891Y5278*
X13866Y5290*
X13842Y5304*
X13820Y5321*
X13800Y5340*
X13782Y5361*
X13767Y5383*
X13754Y5408*
X13743Y5433*
X13736Y5460*
X13732Y5487*
X13730Y5515*
X13831Y6494D02*
X13803Y6491D01*
X13775Y6490*
X13747Y6493*
X13720Y6498*
X13694Y6507*
X13668Y6518*
X13644Y6532*
X13622Y6549*
X13601Y6568*
X13583Y6589*
X13567Y6612*
X13554Y6637*
X13544Y6663*
X13536Y6690*
X13531Y6717*
X13530Y6745*
X13531Y6773*
X13536Y6800*
X13543Y6826*
X13554Y6852*
X13566Y6876*
X13582Y6899*
X13600Y6920*
X13620Y6939*
X13642Y6956*
X13666Y6970*
X13691Y6982*
X13717Y6991*
X13744Y6997*
X13771Y7000*
X13799*
X13826Y6997*
X13853Y6991*
X13879Y6982*
X13904Y6970*
X13928Y6956*
X13950Y6939*
X13970Y6920*
X13988Y6899*
X14003Y6877*
X14016Y6852*
X14027Y6827*
X14034Y6800*
X14038Y6773*
X14040Y6745*
X14039Y6722*
X14036Y6699*
X14658Y6078*
X14670Y6063*
X14681Y6047*
X14689Y6030*
X14695Y6013*
X14699Y5994*
X14700Y5975*
Y5935*
X14722Y5918*
X14741Y5899*
X14759Y5878*
X14774Y5855*
X14787Y5831*
X14797Y5806*
X14804Y5779*
X14809Y5752*
X14810Y5725*
X14809Y5697*
X14804Y5670*
X14797Y5644*
X14786Y5618*
X14774Y5594*
X14758Y5571*
X14740Y5550*
X14720Y5531*
X14698Y5514*
X14674Y5500*
X14649Y5488*
X14623Y5479*
X14596Y5473*
X14569Y5470*
X14541*
X14514Y5473*
X14487Y5479*
X14461Y5488*
X14436Y5500*
X14412Y5514*
X14390Y5531*
X14370Y5550*
X14352Y5571*
X14337Y5593*
X14324Y5618*
X14313Y5643*
X14306Y5670*
X14302Y5697*
X14300Y5725*
X14301Y5751*
X14305Y5776*
X14312Y5801*
X14321Y5825*
X14332Y5849*
X14346Y5870*
X14361Y5891*
X14379Y5909*
X14399Y5926*
X13831Y6494*
X14990Y3055D02*
X14991Y3083D01*
X14996Y3110*
X15003Y3136*
X15014Y3162*
X15026Y3186*
X15042Y3209*
X15060Y3230*
X15080Y3249*
X15102Y3266*
X15126Y3280*
X15151Y3292*
X15177Y3301*
X15204Y3307*
X15231Y3310*
X15259*
X15286Y3307*
X15313Y3301*
X15339Y3292*
X15364Y3280*
X15388Y3266*
X15410Y3249*
X15430Y3230*
X15448Y3209*
X15463Y3187*
X15476Y3162*
X15487Y3137*
X15494Y3110*
X15498Y3083*
X15500Y3055*
X15499Y3027*
X15494Y3000*
X15487Y2974*
X15476Y2948*
X15464Y2924*
X15448Y2901*
X15430Y2880*
X15410Y2861*
X15388Y2844*
X15364Y2830*
X15339Y2818*
X15313Y2809*
X15286Y2803*
X15259Y2800*
X15231*
X15204Y2803*
X15177Y2809*
X15151Y2818*
X15126Y2830*
X15102Y2844*
X15080Y2861*
X15060Y2880*
X15042Y2901*
X15027Y2923*
X15014Y2948*
X15003Y2973*
X14996Y3000*
X14992Y3027*
X14990Y3055*
X15120Y7635D02*
X15121Y7663D01*
X15126Y7690*
X15133Y7716*
X15144Y7742*
X15156Y7766*
X15172Y7789*
X15190Y7810*
X15210Y7829*
X15232Y7846*
X15256Y7860*
X15281Y7872*
X15307Y7881*
X15334Y7887*
X15361Y7890*
X15389*
X15416Y7887*
X15443Y7881*
X15469Y7872*
X15494Y7860*
X15518Y7846*
X15540Y7829*
X15560Y7810*
X15578Y7789*
X15593Y7767*
X15606Y7742*
X15617Y7717*
X15624Y7690*
X15628Y7663*
X15630Y7635*
X15629Y7607*
X15624Y7580*
X15617Y7554*
X15606Y7528*
X15594Y7504*
X15578Y7481*
X15560Y7460*
X15540Y7441*
X15518Y7424*
X15494Y7410*
X15469Y7398*
X15443Y7389*
X15416Y7383*
X15389Y7380*
X15361*
X15334Y7383*
X15307Y7389*
X15281Y7398*
X15256Y7410*
X15232Y7424*
X15210Y7441*
X15190Y7460*
X15172Y7481*
X15157Y7503*
X15144Y7528*
X15133Y7553*
X15126Y7580*
X15122Y7607*
X15120Y7635*
X15240Y9295D02*
X15241Y9323D01*
X15246Y9350*
X15253Y9376*
X15264Y9402*
X15276Y9426*
X15292Y9449*
X15310Y9470*
X15330Y9489*
X15352Y9506*
X15376Y9520*
X15401Y9532*
X15427Y9541*
X15454Y9547*
X15481Y9550*
X15509*
X15536Y9547*
X15563Y9541*
X15589Y9532*
X15614Y9520*
X15638Y9506*
X15660Y9489*
X15680Y9470*
X15698Y9449*
X15713Y9427*
X15726Y9402*
X15737Y9377*
X15744Y9350*
X15748Y9323*
X15750Y9295*
X15749Y9267*
X15744Y9240*
X15737Y9214*
X15726Y9188*
X15714Y9164*
X15698Y9141*
X15680Y9120*
X15660Y9101*
X15638Y9084*
X15614Y9070*
X15589Y9058*
X15563Y9049*
X15536Y9043*
X15509Y9040*
X15481*
X15454Y9043*
X15427Y9049*
X15401Y9058*
X15376Y9070*
X15352Y9084*
X15330Y9101*
X15310Y9120*
X15292Y9141*
X15277Y9163*
X15264Y9188*
X15253Y9213*
X15246Y9240*
X15242Y9267*
X15240Y9295*
X15290Y11785D02*
X15289Y11757D01*
X15284Y11730*
X15277Y11704*
X15266Y11678*
X15254Y11654*
X15238Y11631*
X15220Y11610*
X15200Y11591*
X15178Y11574*
X15154Y11560*
X15129Y11548*
X15103Y11539*
X15076Y11533*
X15049Y11530*
X15021*
X14994Y11533*
X14967Y11539*
X14941Y11548*
X14916Y11560*
X14892Y11574*
X14870Y11591*
X14850Y11610*
X14832Y11631*
X14817Y11653*
X14804Y11678*
X14793Y11703*
X14786Y11730*
X14782Y11757*
X14780Y11785*
X14781Y11813*
X14786Y11840*
X14793Y11866*
X14804Y11892*
X14816Y11916*
X14832Y11939*
X14850Y11960*
X14870Y11979*
X14892Y11996*
X14916Y12010*
X14941Y12022*
X14967Y12031*
X14994Y12037*
X15021Y12040*
X15049*
X15076Y12037*
X15103Y12031*
X15129Y12022*
X15154Y12010*
X15178Y11996*
X15200Y11979*
X15220Y11960*
X15238Y11939*
X15253Y11917*
X15266Y11892*
X15277Y11867*
X15284Y11840*
X15288Y11813*
X15290Y11785*
X15390Y4615D02*
X15391Y4643D01*
X15396Y4670*
X15403Y4696*
X15414Y4722*
X15426Y4746*
X15442Y4769*
X15460Y4790*
X15480Y4809*
X15502Y4826*
X15526Y4840*
X15551Y4852*
X15577Y4861*
X15604Y4867*
X15631Y4870*
X15659*
X15686Y4867*
X15713Y4861*
X15739Y4852*
X15764Y4840*
X15788Y4826*
X15810Y4809*
X15830Y4790*
X15848Y4769*
X15863Y4747*
X15876Y4722*
X15887Y4697*
X15894Y4670*
X15898Y4643*
X15900Y4615*
X15899Y4587*
X15894Y4560*
X15887Y4534*
X15876Y4508*
X15864Y4484*
X15848Y4461*
X15830Y4440*
X15810Y4421*
X15788Y4404*
X15764Y4390*
X15739Y4378*
X15713Y4369*
X15686Y4363*
X15659Y4360*
X15631*
X15604Y4363*
X15577Y4369*
X15551Y4378*
X15526Y4390*
X15502Y4404*
X15480Y4421*
X15460Y4440*
X15442Y4461*
X15427Y4483*
X15414Y4508*
X15403Y4533*
X15396Y4560*
X15392Y4587*
X15390Y4615*
X15430Y7195D02*
X15431Y7223D01*
X15436Y7250*
X15443Y7276*
X15454Y7302*
X15466Y7326*
X15482Y7349*
X15500Y7370*
X15520Y7389*
X15542Y7406*
X15566Y7420*
X15591Y7432*
X15617Y7441*
X15644Y7447*
X15671Y7450*
X15699*
X15726Y7447*
X15753Y7441*
X15779Y7432*
X15804Y7420*
X15828Y7406*
X15850Y7389*
X15870Y7370*
X15888Y7349*
X15903Y7327*
X15916Y7302*
X15927Y7277*
X15934Y7250*
X15938Y7223*
X15940Y7195*
X15939Y7167*
X15934Y7140*
X15927Y7114*
X15916Y7088*
X15904Y7064*
X15888Y7041*
X15870Y7020*
X15850Y7001*
X15828Y6984*
X15804Y6970*
X15779Y6958*
X15753Y6949*
X15726Y6943*
X15699Y6940*
X15671*
X15644Y6943*
X15617Y6949*
X15591Y6958*
X15566Y6970*
X15542Y6984*
X15520Y7001*
X15500Y7020*
X15482Y7041*
X15467Y7063*
X15454Y7088*
X15443Y7113*
X15436Y7140*
X15432Y7167*
X15430Y7195*
X15920Y5125D02*
X15919Y5097D01*
X15914Y5070*
X15907Y5044*
X15896Y5018*
X15884Y4994*
X15868Y4971*
X15850Y4950*
X15830Y4931*
X15808Y4914*
X15784Y4900*
X15759Y4888*
X15733Y4879*
X15706Y4873*
X15679Y4870*
X15651*
X15624Y4873*
X15597Y4879*
X15571Y4888*
X15546Y4900*
X15522Y4914*
X15500Y4931*
X15480Y4950*
X15462Y4971*
X15447Y4993*
X15434Y5018*
X15423Y5043*
X15416Y5070*
X15412Y5097*
X15410Y5125*
X15411Y5153*
X15416Y5180*
X15423Y5206*
X15434Y5232*
X15446Y5256*
X15462Y5279*
X15480Y5300*
X15500Y5319*
X15522Y5336*
X15546Y5350*
X15571Y5362*
X15597Y5371*
X15624Y5377*
X15651Y5380*
X15679*
X15706Y5377*
X15733Y5371*
X15759Y5362*
X15784Y5350*
X15808Y5336*
X15830Y5319*
X15850Y5300*
X15868Y5279*
X15883Y5257*
X15896Y5232*
X15907Y5207*
X15914Y5180*
X15918Y5153*
X15920Y5125*
X16490Y6345D02*
X16489Y6317D01*
X16484Y6290*
X16477Y6264*
X16466Y6238*
X16454Y6214*
X16438Y6191*
X16420Y6170*
X16400Y6151*
X16378Y6134*
X16354Y6120*
X16329Y6108*
X16303Y6099*
X16276Y6093*
X16249Y6090*
X16221*
X16194Y6093*
X16167Y6099*
X16141Y6108*
X16116Y6120*
X16092Y6134*
X16070Y6151*
X16050Y6170*
X16032Y6191*
X16017Y6213*
X16004Y6238*
X15993Y6263*
X15986Y6290*
X15982Y6317*
X15980Y6345*
X15981Y6373*
X15986Y6400*
X15993Y6426*
X16004Y6452*
X16016Y6476*
X16032Y6499*
X16050Y6520*
X16070Y6539*
X16092Y6556*
X16116Y6570*
X16141Y6582*
X16167Y6591*
X16194Y6597*
X16221Y6600*
X16249*
X16276Y6597*
X16303Y6591*
X16329Y6582*
X16354Y6570*
X16378Y6556*
X16400Y6539*
X16420Y6520*
X16438Y6499*
X16453Y6477*
X16466Y6452*
X16477Y6427*
X16484Y6400*
X16488Y6373*
X16490Y6345*
X17380Y9865D02*
X17379Y9837D01*
X17374Y9810*
X17367Y9784*
X17356Y9758*
X17344Y9734*
X17328Y9711*
X17310Y9690*
X17290Y9671*
X17268Y9654*
X17244Y9640*
X17219Y9628*
X17193Y9619*
X17166Y9613*
X17139Y9610*
X17111*
X17084Y9613*
X17057Y9619*
X17031Y9628*
X17006Y9640*
X16982Y9654*
X16960Y9671*
X16940Y9690*
X16922Y9711*
X16907Y9733*
X16894Y9758*
X16883Y9783*
X16876Y9810*
X16872Y9837*
X16870Y9865*
X16871Y9893*
X16876Y9920*
X16883Y9946*
X16894Y9972*
X16906Y9996*
X16922Y10019*
X16940Y10040*
X16960Y10059*
X16982Y10076*
X17006Y10090*
X17031Y10102*
X17057Y10111*
X17084Y10117*
X17111Y10120*
X17139*
X17166Y10117*
X17193Y10111*
X17219Y10102*
X17244Y10090*
X17268Y10076*
X17290Y10059*
X17310Y10040*
X17328Y10019*
X17343Y9997*
X17356Y9972*
X17367Y9947*
X17374Y9920*
X17378Y9893*
X17380Y9865*
X17835Y3404D02*
X17815Y3386D01*
X17792Y3370*
X17769Y3357*
X17744Y3346*
X17718Y3338*
X17691Y3333*
X17664Y3330*
X17636Y3331*
X17609Y3334*
X17583Y3340*
X17557Y3349*
X17532Y3361*
X17509Y3376*
X17488Y3392*
X17468Y3411*
X17451Y3432*
X17436Y3455*
X17423Y3479*
X17413Y3505*
X17406Y3531*
X17401Y3558*
X17400Y3585*
X17401Y3612*
X17406Y3639*
X17413Y3665*
X17423Y3690*
X17435Y3714*
X17450Y3737*
X17468Y3758*
X17487Y3777*
X17509Y3794*
X17532Y3808*
X17556Y3820*
X17581Y3829*
X17608Y3836*
X17635Y3839*
X17662Y3840*
X17689Y3838*
X17716Y3833*
X17742Y3825*
X17767Y3814*
X17790Y3801*
X17813Y3785*
X17833Y3767*
X17851Y3748*
X17868Y3726*
X17945*
X17966Y3724*
X17987Y3720*
X18007Y3714*
X18025Y3704*
X18043Y3693*
X18059Y3679*
X18243Y3494*
X18801Y4052*
X19358Y3495*
X19464Y3601*
X18907Y4158*
X19508Y4759*
X20065Y4202*
X20171Y4308*
X19614Y4865*
X20215Y5466*
X20772Y4909*
X21383Y5520*
X20650*
Y6370*
X21414*
Y6520*
X20650*
Y7370*
X21414*
Y7520*
X20650*
Y8370*
X21414*
Y8520*
X20650*
Y9370*
X21414*
Y9745*
X21416Y9767*
X21420Y9788*
X21428Y9809*
X21438Y9829*
X21450Y9847*
X21748Y10212*
X21744Y10233*
X21741Y10254*
X21740Y10275*
X21741Y10303*
X21746Y10330*
X21753Y10356*
X21764Y10382*
X21776Y10406*
X21792Y10429*
X21810Y10450*
X21830Y10469*
X21852Y10486*
X21876Y10500*
X21901Y10512*
X21927Y10521*
X21954Y10527*
X21981Y10530*
X22009*
X22036Y10527*
X22063Y10521*
X22089Y10512*
X22114Y10500*
X22138Y10486*
X22160Y10469*
X22180Y10450*
X22198Y10429*
X22213Y10407*
X22226Y10382*
X22237Y10357*
X22244Y10330*
X22248Y10303*
X22250Y10275*
X22249Y10247*
X22244Y10220*
X22236Y10193*
X22226Y10167*
X22213Y10143*
X22197Y10120*
X22179Y10099*
X22159Y10080*
X22137Y10063*
X22113Y10049*
X22088Y10037*
X22061Y10029*
X22034Y10023*
X22007Y10020*
X21736Y9688*
Y5485*
X21734Y5464*
X21730Y5443*
X21724Y5423*
X21714Y5405*
X21703Y5387*
X21689Y5371*
X19059Y2741*
X19043Y2727*
X19025Y2716*
X19006Y2706*
X18987Y2700*
X18966Y2696*
X18945Y2694*
X18655*
X18646Y2695*
X18094Y2143*
X17493Y2744*
X18016Y3267*
X17878Y3404*
X17835*
X18340Y13675D02*
X18339Y13647D01*
X18334Y13620*
X18327Y13594*
X18316Y13568*
X18304Y13544*
X18288Y13521*
X18270Y13500*
X18250Y13481*
X18228Y13464*
X18204Y13450*
X18179Y13438*
X18153Y13429*
X18126Y13423*
X18099Y13420*
X18071*
X18044Y13423*
X18017Y13429*
X17991Y13438*
X17966Y13450*
X17942Y13464*
X17920Y13481*
X17900Y13500*
X17882Y13521*
X17867Y13543*
X17854Y13568*
X17843Y13593*
X17836Y13620*
X17832Y13647*
X17830Y13675*
X17831Y13703*
X17836Y13730*
X17843Y13756*
X17854Y13782*
X17866Y13806*
X17882Y13829*
X17900Y13850*
X17920Y13869*
X17942Y13886*
X17966Y13900*
X17991Y13912*
X18017Y13921*
X18044Y13927*
X18071Y13930*
X18099*
X18126Y13927*
X18153Y13921*
X18179Y13912*
X18204Y13900*
X18228Y13886*
X18250Y13869*
X18270Y13850*
X18288Y13829*
X18303Y13807*
X18316Y13782*
X18327Y13757*
X18334Y13730*
X18338Y13703*
X18340Y13675*
X19180Y15695D02*
X19181Y15723D01*
X19186Y15750*
X19193Y15776*
X19204Y15802*
X19216Y15826*
X19232Y15849*
X19250Y15870*
X19270Y15889*
X19292Y15906*
X19316Y15920*
X19341Y15932*
X19367Y15941*
X19394Y15947*
X19421Y15950*
X19449*
X19476Y15947*
X19503Y15941*
X19529Y15932*
X19554Y15920*
X19578Y15906*
X19600Y15889*
X19620Y15870*
X19638Y15849*
X19653Y15827*
X19666Y15802*
X19677Y15777*
X19684Y15750*
X19688Y15723*
X19690Y15695*
X19689Y15667*
X19684Y15640*
X19677Y15614*
X19666Y15588*
X19654Y15564*
X19638Y15541*
X19620Y15520*
X19600Y15501*
X19578Y15484*
X19554Y15470*
X19529Y15458*
X19503Y15449*
X19476Y15443*
X19449Y15440*
X19421*
X19394Y15443*
X19367Y15449*
X19341Y15458*
X19316Y15470*
X19292Y15484*
X19270Y15501*
X19250Y15520*
X19232Y15541*
X19217Y15563*
X19204Y15588*
X19193Y15613*
X19186Y15640*
X19182Y15667*
X19180Y15695*
X19395Y8560D02*
X19367Y8561D01*
X19340Y8566*
X19314Y8573*
X19288Y8584*
X19264Y8596*
X19241Y8612*
X19220Y8630*
X19201Y8650*
X19184Y8672*
X19170Y8696*
X19158Y8721*
X19149Y8747*
X19143Y8774*
X19140Y8801*
Y8829*
X19143Y8856*
X19149Y8883*
X19158Y8909*
X19170Y8934*
X19184Y8958*
X19201Y8980*
X19220Y9000*
X19241Y9018*
X19263Y9033*
X19288Y9046*
X19313Y9057*
X19340Y9064*
X19367Y9068*
X19395Y9070*
X19423Y9069*
X19450Y9064*
X19476Y9057*
X19502Y9046*
X19526Y9034*
X19549Y9018*
X19570Y9000*
X19589Y8980*
X19606Y8958*
X19620Y8934*
X19632Y8909*
X19641Y8883*
X19647Y8856*
X19650Y8829*
Y8801*
X19647Y8774*
X19641Y8747*
X19632Y8721*
X19620Y8696*
X19606Y8672*
X19589Y8650*
X19570Y8630*
X19549Y8612*
X19527Y8597*
X19502Y8584*
X19477Y8573*
X19450Y8566*
X19423Y8562*
X19395Y8560*
X21340Y11678D02*
X21324Y11656D01*
X21306Y11635*
X21286Y11617*
X21264Y11601*
X21240Y11587*
X21215Y11576*
X21189Y11568*
X21162Y11563*
X21135Y11560*
X21107Y11561*
X21080Y11564*
X21054Y11570*
X21028Y11579*
X21003Y11591*
X20980Y11605*
X20958Y11622*
X20939Y11641*
X20921Y11662*
X20906Y11685*
X20893Y11709*
X20883Y11734*
X20876Y11761*
X20871Y11788*
X20870Y11815*
X20871Y11842*
X20876Y11869*
X20883Y11896*
X20893Y11921*
X20906Y11945*
X20921Y11968*
X20939Y11989*
X20958Y12008*
X20980Y12025*
X21003Y12039*
X21028Y12051*
X21054Y12060*
X21080Y12066*
X21107Y12069*
X21135Y12070*
X21162Y12067*
X21189Y12062*
X21215Y12054*
X21240Y12043*
X21263Y12029*
X21286Y12013*
X21306Y11995*
X21324Y11974*
X21340Y11952*
X21356Y11975*
X21375Y11996*
X21397Y12015*
X21420Y12031*
X21444Y12045*
X21470Y12056*
X21498Y12063*
X21525Y12068*
X21554Y12070*
X21582Y12069*
X21610Y12064*
X21637Y12056*
X21663Y12046*
X21688Y12033*
X21711Y12016*
X21733Y11998*
X21752Y11977*
X21769Y11954*
X21783Y11930*
X21798Y11953*
X21815Y11975*
X21835Y11995*
X21857Y12012*
X21880Y12027*
X21905Y12040*
X21932Y12049*
X21959Y12056*
X21986Y12059*
X22014Y12060*
X22042Y12057*
X22069Y12052*
X22096Y12043*
X22122Y12032*
X22146Y12018*
X22168Y12001*
X22188Y11982*
X22207Y11961*
X22223Y11938*
X22236Y11913*
X22246Y11887*
X22254Y11861*
X22258Y11833*
X22260Y11805*
X22259Y11778*
X22254Y11751*
X22247Y11725*
X22237Y11699*
X22224Y11675*
X22209Y11652*
X22192Y11631*
X22172Y11612*
X22151Y11596*
X22127Y11581*
X22103Y11570*
X22077Y11560*
X22051Y11554*
X22024Y11551*
X21996Y11550*
X21969Y11553*
X21942Y11558*
X21916Y11566*
X21891Y11577*
X21868Y11590*
X21846Y11606*
X21825Y11624*
X21807Y11645*
X21791Y11667*
X21777Y11690*
X21762Y11667*
X21745Y11645*
X21726Y11626*
X21704Y11608*
X21681Y11593*
X21656Y11581*
X21630Y11571*
X21603Y11565*
X21576Y11561*
X21548Y11560*
X21521Y11562*
X21494Y11568*
X21467Y11576*
X21442Y11587*
X21418Y11600*
X21395Y11616*
X21375Y11635*
X21356Y11655*
X21340Y11678*
X21380Y14835D02*
X21379Y14807D01*
X21374Y14780*
X21367Y14754*
X21356Y14728*
X21344Y14704*
X21328Y14681*
X21310Y14660*
X21290Y14641*
X21268Y14624*
X21244Y14610*
X21219Y14598*
X21193Y14589*
X21166Y14583*
X21139Y14580*
X21111*
X21084Y14583*
X21057Y14589*
X21031Y14598*
X21006Y14610*
X20982Y14624*
X20960Y14641*
X20940Y14660*
X20922Y14681*
X20907Y14703*
X20894Y14728*
X20883Y14753*
X20876Y14780*
X20872Y14807*
X20870Y14835*
X20871Y14863*
X20876Y14890*
X20883Y14916*
X20894Y14942*
X20906Y14966*
X20922Y14989*
X20940Y15010*
X20960Y15029*
X20982Y15046*
X21006Y15060*
X21031Y15072*
X21057Y15081*
X21084Y15087*
X21111Y15090*
X21139*
X21166Y15087*
X21193Y15081*
X21219Y15072*
X21244Y15060*
X21268Y15046*
X21290Y15029*
X21310Y15010*
X21328Y14989*
X21343Y14967*
X21356Y14942*
X21367Y14917*
X21374Y14890*
X21378Y14863*
X21380Y14835*
X22160Y6535D02*
X22161Y6563D01*
X22166Y6590*
X22173Y6616*
X22184Y6642*
X22196Y6666*
X22212Y6689*
X22230Y6710*
X22250Y6729*
X22272Y6746*
X22296Y6760*
X22321Y6772*
X22347Y6781*
X22374Y6787*
X22401Y6790*
X22429*
X22456Y6787*
X22483Y6781*
X22509Y6772*
X22534Y6760*
X22558Y6746*
X22580Y6729*
X22600Y6710*
X22618Y6689*
X22633Y6667*
X22646Y6642*
X22657Y6617*
X22664Y6590*
X22668Y6563*
X22670Y6535*
X22669Y6507*
X22664Y6480*
X22657Y6454*
X22646Y6428*
X22634Y6404*
X22618Y6381*
X22600Y6360*
X22580Y6341*
X22558Y6324*
X22534Y6310*
X22509Y6298*
X22483Y6289*
X22456Y6283*
X22429Y6280*
X22401*
X22374Y6283*
X22347Y6289*
X22321Y6298*
X22296Y6310*
X22272Y6324*
X22250Y6341*
X22230Y6360*
X22212Y6381*
X22197Y6403*
X22184Y6428*
X22173Y6453*
X22166Y6480*
X22162Y6507*
X22160Y6535*
X22220Y13985D02*
X22221Y14013D01*
X22226Y14040*
X22233Y14066*
X22244Y14092*
X22256Y14116*
X22272Y14139*
X22290Y14160*
X22310Y14179*
X22332Y14196*
X22356Y14210*
X22381Y14222*
X22407Y14231*
X22434Y14237*
X22461Y14240*
X22489*
X22516Y14237*
X22543Y14231*
X22569Y14222*
X22594Y14210*
X22618Y14196*
X22640Y14179*
X22660Y14160*
X22678Y14139*
X22693Y14117*
X22706Y14092*
X22717Y14067*
X22724Y14040*
X22728Y14013*
X22730Y13985*
X22729Y13957*
X22724Y13930*
X22717Y13904*
X22706Y13878*
X22694Y13854*
X22678Y13831*
X22660Y13810*
X22640Y13791*
X22618Y13774*
X22594Y13760*
X22569Y13748*
X22543Y13739*
X22516Y13733*
X22489Y13730*
X22461*
X22434Y13733*
X22407Y13739*
X22381Y13748*
X22356Y13760*
X22332Y13774*
X22310Y13791*
X22290Y13810*
X22272Y13831*
X22257Y13853*
X22244Y13878*
X22233Y13903*
X22226Y13930*
X22222Y13957*
X22220Y13985*
X23270Y9535D02*
X23271Y9563D01*
X23276Y9590*
X23283Y9616*
X23294Y9642*
X23306Y9666*
X23322Y9689*
X23340Y9710*
X23360Y9729*
X23382Y9746*
X23406Y9760*
X23431Y9772*
X23457Y9781*
X23484Y9787*
X23511Y9790*
X23539*
X23566Y9787*
X23593Y9781*
X23619Y9772*
X23644Y9760*
X23668Y9746*
X23690Y9729*
X23710Y9710*
X23728Y9689*
X23743Y9667*
X23756Y9642*
X23767Y9617*
X23774Y9590*
X23778Y9563*
X23780Y9535*
X23779Y9507*
X23774Y9480*
X23767Y9454*
X23756Y9428*
X23744Y9404*
X23728Y9381*
X23710Y9360*
X23690Y9341*
X23668Y9324*
X23644Y9310*
X23619Y9298*
X23593Y9289*
X23566Y9283*
X23539Y9280*
X23511*
X23484Y9283*
X23457Y9289*
X23431Y9298*
X23406Y9310*
X23382Y9324*
X23360Y9341*
X23340Y9360*
X23322Y9381*
X23307Y9403*
X23294Y9428*
X23283Y9453*
X23276Y9480*
X23272Y9507*
X23270Y9535*
X23365Y10730D02*
X23334Y10732D01*
X23304Y10736*
X23274Y10744*
X23245Y10755*
X23217Y10768*
X23191Y10785*
X23166Y10804*
X23144Y10825*
X23124Y10848*
X23106Y10874*
X23091Y10901*
X23079Y10929*
X23070Y10959*
X23064Y10989*
X23060Y11020*
Y11051*
X23064Y11081*
X23070Y11111*
X23079Y11141*
X23091Y11169*
X23106Y11196*
X23124Y11222*
X23144Y11245*
X23166Y11266*
X23191Y11285*
X23217Y11302*
X23245Y11315*
X23274Y11326*
X23304Y11334*
X23334Y11338*
X23365Y11340*
X23396Y11338*
X23426Y11334*
X23456Y11326*
X23485Y11315*
X23513Y11302*
X23539Y11285*
X23564Y11266*
X23586Y11245*
X23606Y11222*
X23624Y11196*
X23639Y11169*
X23651Y11141*
X23660Y11111*
X23666Y11081*
X23670Y11050*
Y11019*
X23666Y10989*
X23660Y10959*
X23651Y10929*
X23639Y10901*
X23624Y10874*
X23606Y10848*
X23586Y10825*
X23564Y10804*
X23539Y10785*
X23513Y10768*
X23485Y10755*
X23456Y10744*
X23426Y10736*
X23396Y10732*
X23365Y10730*
Y12690D02*
X23334Y12692D01*
X23304Y12696*
X23274Y12704*
X23245Y12715*
X23217Y12728*
X23191Y12745*
X23166Y12764*
X23144Y12785*
X23124Y12808*
X23106Y12834*
X23091Y12861*
X23079Y12889*
X23070Y12919*
X23064Y12949*
X23060Y12980*
Y13011*
X23064Y13041*
X23070Y13071*
X23079Y13101*
X23091Y13129*
X23106Y13156*
X23124Y13182*
X23144Y13205*
X23166Y13226*
X23191Y13245*
X23217Y13262*
X23245Y13275*
X23274Y13286*
X23304Y13294*
X23334Y13298*
X23365Y13300*
X23396Y13298*
X23426Y13294*
X23456Y13286*
X23485Y13275*
X23513Y13262*
X23539Y13245*
X23564Y13226*
X23586Y13205*
X23606Y13182*
X23624Y13156*
X23639Y13129*
X23651Y13101*
X23660Y13071*
X23666Y13041*
X23670Y13010*
Y12979*
X23666Y12949*
X23660Y12919*
X23651Y12889*
X23639Y12861*
X23624Y12834*
X23606Y12808*
X23586Y12785*
X23564Y12764*
X23539Y12745*
X23513Y12728*
X23485Y12715*
X23456Y12704*
X23426Y12696*
X23396Y12692*
X23365Y12690*
X7183Y331D02*
X12105D01*
X7135Y379D02*
X12105D01*
X7087Y427D02*
X12105D01*
X7039Y475D02*
X12105D01*
X6991Y523D02*
X12105D01*
X6943Y571D02*
X12105D01*
X6895Y619D02*
X12105D01*
X6847Y667D02*
X12105D01*
X6799Y715D02*
X12105D01*
X6750Y763D02*
X12105D01*
X6702Y811D02*
X7863D01*
X8035D02*
X12105D01*
X6654Y859D02*
X7781D01*
X8116D02*
X12105D01*
X6606Y907D02*
X7738D01*
X8159D02*
X12105D01*
X6558Y955D02*
X7713D01*
X8185D02*
X12105D01*
X6510Y1003D02*
X7698D01*
X8199D02*
X12105D01*
X6462Y1051D02*
X7694D01*
X8204D02*
X12105D01*
X6414Y1099D02*
X7698D01*
X8199D02*
X12105D01*
X6366Y1147D02*
X7713D01*
X8185D02*
X12105D01*
X6318Y1195D02*
X7738D01*
X8159D02*
X12105D01*
X6270Y1243D02*
X7781D01*
X8116D02*
X12105D01*
X6222Y1291D02*
X7863D01*
X8034D02*
X12105D01*
X6174Y1339D02*
X12105D01*
X6126Y1387D02*
X12105D01*
X6078Y1436D02*
X12105D01*
X6030Y1484D02*
X12105D01*
X5982Y1532D02*
X12105D01*
X5934Y1580D02*
X12105D01*
X5886Y1628D02*
X12105D01*
X5838Y1676D02*
X12105D01*
X5790Y1724D02*
X12105D01*
X5742Y1772D02*
X12105D01*
X5694Y1820D02*
X12105D01*
X5646Y1868D02*
X12105D01*
X5598Y1916D02*
X15324D01*
X15666D02*
X18622D01*
X5550Y1964D02*
X15283D01*
X15707D02*
X18670D01*
X5502Y2012D02*
X15258D01*
X15732D02*
X18718D01*
X5454Y2060D02*
X15244D01*
X15746D02*
X18766D01*
X5406Y2108D02*
X15240D01*
X15750D02*
X18814D01*
X5358Y2156D02*
X15245D01*
X15745D02*
X18080D01*
X18107D02*
X18862D01*
X5310Y2204D02*
X15260D01*
X15730D02*
X18032D01*
X18155D02*
X18910D01*
X5261Y2252D02*
X15287D01*
X15703D02*
X17984D01*
X18203D02*
X18959D01*
X5213Y2300D02*
X15331D01*
X15659D02*
X17936D01*
X18251D02*
X19007D01*
X5165Y2348D02*
X15418D01*
X15572D02*
X17888D01*
X18299D02*
X19055D01*
X5117Y2396D02*
X17840D01*
X18347D02*
X19103D01*
X5069Y2444D02*
X17792D01*
X18395D02*
X19151D01*
X5021Y2492D02*
X17744D01*
X18443D02*
X19199D01*
X4973Y2540D02*
X17696D01*
X18491D02*
X19247D01*
X4925Y2588D02*
X17648D01*
X18539D02*
X19295D01*
X4877Y2636D02*
X17600D01*
X18587D02*
X19343D01*
X4829Y2684D02*
X17552D01*
X18635D02*
X19391D01*
X4781Y2732D02*
X17504D01*
X19049D02*
X19439D01*
X4733Y2780D02*
X17529D01*
X19098D02*
X19487D01*
X4685Y2828D02*
X15128D01*
X15362D02*
X17577D01*
X19146D02*
X19535D01*
X4637Y2876D02*
X15063D01*
X15427D02*
X17625D01*
X19194D02*
X19583D01*
X4589Y2924D02*
X15026D01*
X15464D02*
X17673D01*
X19242D02*
X19631D01*
X4541Y2973D02*
X6015D01*
X6073D02*
X15004D01*
X15486D02*
X17721D01*
X19290D02*
X19679D01*
X4493Y3021D02*
X5877D01*
X6210D02*
X14992D01*
X15498D02*
X17770D01*
X19338D02*
X19727D01*
X4445Y3069D02*
X5820D01*
X6267D02*
X14990D01*
X15500D02*
X17818D01*
X19386D02*
X19775D01*
X4397Y3117D02*
X5784D01*
X6304D02*
X14998D01*
X15492D02*
X17866D01*
X19434D02*
X19823D01*
X4349Y3165D02*
X5760D01*
X6328D02*
X15015D01*
X15475D02*
X17914D01*
X19482D02*
X19871D01*
X4301Y3213D02*
X5746D01*
X6342D02*
X15045D01*
X15445D02*
X17962D01*
X19530D02*
X19919D01*
X4253Y3261D02*
X5739D01*
X6348D02*
X15094D01*
X15396D02*
X18010D01*
X19578D02*
X19967D01*
X4205Y3309D02*
X5741D01*
X6347D02*
X7719D01*
X7911D02*
X15220D01*
X15270D02*
X17974D01*
X19626D02*
X20015D01*
X4157Y3357D02*
X5750D01*
X6338D02*
X7643D01*
X7987D02*
X17541D01*
X17769D02*
X17926D01*
X19674D02*
X20063D01*
X4109Y3405D02*
X5767D01*
X6320D02*
X7602D01*
X8028D02*
X17475D01*
X19722D02*
X20111D01*
X4061Y3453D02*
X5795D01*
X6292D02*
X7577D01*
X8053D02*
X17437D01*
X19770D02*
X20159D01*
X4013Y3501D02*
X5838D01*
X6250D02*
X7564D01*
X8066D02*
X10074D01*
X10276D02*
X17414D01*
X18236D02*
X18250D01*
X19352D02*
X19364D01*
X19818D02*
X20207D01*
X3965Y3549D02*
X5907D01*
X6180D02*
X7560D01*
X8070D02*
X10001D01*
X10349D02*
X17403D01*
X18188D02*
X18298D01*
X19304D02*
X19412D01*
X19866D02*
X20255D01*
X3917Y3597D02*
X7565D01*
X8095D02*
X9961D01*
X10389D02*
X17400D01*
X18140D02*
X18346D01*
X19256D02*
X19460D01*
X19914D02*
X20303D01*
X3869Y3645D02*
X7580D01*
X8144D02*
X9936D01*
X10414D02*
X17407D01*
X18092D02*
X18394D01*
X19208D02*
X19420D01*
X19962D02*
X20351D01*
X3821Y3693D02*
X7607D01*
X8192D02*
X9923D01*
X10427D02*
X17424D01*
X18042D02*
X18442D01*
X19160D02*
X19372D01*
X20010D02*
X20399D01*
X3773Y3741D02*
X7652D01*
X8240D02*
X9920D01*
X10430D02*
X17453D01*
X17857D02*
X18490D01*
X19112D02*
X19324D01*
X20058D02*
X20447D01*
X3724Y3789D02*
X7741D01*
X8288D02*
X9926D01*
X10424D02*
X17502D01*
X17808D02*
X18538D01*
X19064D02*
X19276D01*
X20106D02*
X20496D01*
X3676Y3837D02*
X7881D01*
X8337D02*
X9941D01*
X10409D02*
X17617D01*
X17693D02*
X18586D01*
X19016D02*
X19228D01*
X20154D02*
X20544D01*
X3628Y3885D02*
X7929D01*
X8385D02*
X9969D01*
X10381D02*
X18634D01*
X18967D02*
X19180D01*
X20202D02*
X20592D01*
X3580Y3933D02*
X7977D01*
X8433D02*
X10014D01*
X10336D02*
X18682D01*
X18919D02*
X19132D01*
X20250D02*
X20640D01*
X3532Y3981D02*
X8026D01*
X8482D02*
X10109D01*
X10241D02*
X18730D01*
X18871D02*
X19084D01*
X20299D02*
X20688D01*
X3484Y4029D02*
X8074D01*
X8530D02*
X18778D01*
X18823D02*
X19036D01*
X20347D02*
X20736D01*
X3436Y4077D02*
X8122D01*
X8578D02*
X18987D01*
X20395D02*
X20784D01*
X3388Y4125D02*
X8171D01*
X8627D02*
X18939D01*
X20443D02*
X20832D01*
X3340Y4173D02*
X8219D01*
X8675D02*
X18922D01*
X20491D02*
X20880D01*
X3292Y4221D02*
X8267D01*
X8723D02*
X18970D01*
X20045D02*
X20084D01*
X20539D02*
X20928D01*
X3244Y4269D02*
X8315D01*
X8771D02*
X19018D01*
X19997D02*
X20132D01*
X20587D02*
X20976D01*
X3196Y4317D02*
X8364D01*
X8820D02*
X19066D01*
X19949D02*
X20162D01*
X20635D02*
X21024D01*
X3148Y4365D02*
X8412D01*
X8868D02*
X15593D01*
X15697D02*
X19114D01*
X19901D02*
X20114D01*
X20683D02*
X21072D01*
X3100Y4413D02*
X8460D01*
X8916D02*
X15489D01*
X15801D02*
X19162D01*
X19853D02*
X20066D01*
X20731D02*
X21120D01*
X3052Y4461D02*
X8509D01*
X8965D02*
X15441D01*
X15849D02*
X19210D01*
X19805D02*
X20017D01*
X20779D02*
X21168D01*
X3004Y4510D02*
X8557D01*
X9013D02*
X15413D01*
X15877D02*
X19259D01*
X19757D02*
X19969D01*
X20827D02*
X21216D01*
X2956Y4558D02*
X8605D01*
X9061D02*
X9717D01*
X10013D02*
X10237D01*
X10533D02*
X15397D01*
X15893D02*
X19307D01*
X19709D02*
X19921D01*
X20875D02*
X21264D01*
X2908Y4606D02*
X8654D01*
X9110D02*
X9666D01*
X10064D02*
X10186D01*
X10584D02*
X15390D01*
X15900D02*
X19355D01*
X19661D02*
X19873D01*
X20923D02*
X21312D01*
X2860Y4654D02*
X8702D01*
X9158D02*
X9636D01*
X10094D02*
X10156D01*
X10780D02*
X15393D01*
X15897D02*
X19403D01*
X19613D02*
X19825D01*
X20971D02*
X21360D01*
X2812Y4702D02*
X8750D01*
X9206D02*
X9618D01*
X10112D02*
X10138D01*
X10829D02*
X15405D01*
X15885D02*
X19451D01*
X19565D02*
X19777D01*
X21019D02*
X21408D01*
X2764Y4750D02*
X8799D01*
X9254D02*
X9610D01*
X10120D02*
X10130D01*
X10877D02*
X15428D01*
X15862D02*
X19499D01*
X19517D02*
X19729D01*
X21067D02*
X21456D01*
X2716Y4798D02*
X8847D01*
X9303D02*
X9612D01*
X10118D02*
X10132D01*
X10925D02*
X15467D01*
X15823D02*
X19681D01*
X21115D02*
X21504D01*
X2668Y4846D02*
X8895D01*
X9351D02*
X9623D01*
X10107D02*
X10143D01*
X10973D02*
X12301D01*
X12409D02*
X15536D01*
X15754D02*
X19633D01*
X21163D02*
X21552D01*
X2620Y4894D02*
X8943D01*
X9399D02*
X9645D01*
X10085D02*
X10165D01*
X11021D02*
X12198D01*
X12512D02*
X15557D01*
X15773D02*
X19643D01*
X21211D02*
X21600D01*
X2572Y4942D02*
X8992D01*
X9448D02*
X9680D01*
X10049D02*
X10201D01*
X10569D02*
X10614D01*
X11069D02*
X12151D01*
X12559D02*
X15488D01*
X15842D02*
X19691D01*
X20739D02*
X20804D01*
X21259D02*
X21648D01*
X2524Y4990D02*
X9040D01*
X9496D02*
X9680D01*
X9985D02*
X10265D01*
X10505D02*
X10663D01*
X11117D02*
X12123D01*
X12587D02*
X15449D01*
X15881D02*
X19739D01*
X20691D02*
X20853D01*
X21307D02*
X21696D01*
X2476Y5038D02*
X9088D01*
X9544D02*
X9680D01*
X9970D02*
X10711D01*
X11165D02*
X12106D01*
X12604D02*
X15425D01*
X15905D02*
X19787D01*
X20643D02*
X20901D01*
X21355D02*
X21744D01*
X2428Y5086D02*
X9137D01*
X9593D02*
X9680D01*
X9970D02*
X10759D01*
X11213D02*
X12100D01*
X12610D02*
X15413D01*
X15917D02*
X19835D01*
X20595D02*
X20949D01*
X21403D02*
X21792D01*
X2380Y5134D02*
X9185D01*
X9641D02*
X9680D01*
X9970D02*
X10807D01*
X11261D02*
X12103D01*
X12607D02*
X15410D01*
X15920D02*
X19883D01*
X20547D02*
X20997D01*
X21451D02*
X21840D01*
X2332Y5182D02*
X8783D01*
X8847D02*
X9233D01*
X9970D02*
X10855D01*
X11309D02*
X12115D01*
X12595D02*
X15416D01*
X15914D02*
X19931D01*
X20499D02*
X21045D01*
X21499D02*
X21888D01*
X2284Y5230D02*
X3682D01*
X3951D02*
X8663D01*
X8967D02*
X9282D01*
X9970D02*
X10903D01*
X11357D02*
X12139D01*
X12571D02*
X15433D01*
X15897D02*
X19979D01*
X20451D02*
X21093D01*
X21547D02*
X21936D01*
X2236Y5278D02*
X3611D01*
X4022D02*
X8614D01*
X9016D02*
X9330D01*
X9970D02*
X10951D01*
X11405D02*
X12177D01*
X12533D02*
X13891D01*
X14079D02*
X15461D01*
X15869D02*
X20027D01*
X20403D02*
X21141D01*
X21595D02*
X21984D01*
X2187Y5326D02*
X3568D01*
X4064D02*
X8584D01*
X9046D02*
X9378D01*
X9970D02*
X10999D01*
X11453D02*
X12247D01*
X12463D02*
X13814D01*
X14156D02*
X15508D01*
X15822D02*
X20075D01*
X20355D02*
X21189D01*
X21643D02*
X22033D01*
X2139Y5374D02*
X3540D01*
X4093D02*
X8567D01*
X9063D02*
X9426D01*
X9970D02*
X11047D01*
X11501D02*
X13772D01*
X14198D02*
X15610D01*
X15720D02*
X20123D01*
X20307D02*
X21237D01*
X21691D02*
X22081D01*
X2091Y5422D02*
X3523D01*
X4110D02*
X8560D01*
X9070D02*
X9434D01*
X9970D02*
X11095D01*
X11549D02*
X13748D01*
X14222D02*
X20171D01*
X20259D02*
X21285D01*
X21723D02*
X22129D01*
X2043Y5470D02*
X3513D01*
X4120D02*
X8562D01*
X9068D02*
X9434D01*
X9970D02*
X11143D01*
X11597D02*
X13734D01*
X14236D02*
X21333D01*
X21735D02*
X22177D01*
X1995Y5518D02*
X3512D01*
X4121D02*
X8574D01*
X9056D02*
X9434D01*
X9970D02*
X11191D01*
X11646D02*
X13730D01*
X14240D02*
X14406D01*
X14704D02*
X21381D01*
X21736D02*
X22225D01*
X1947Y5566D02*
X3518D01*
X4115D02*
X8596D01*
X9034D02*
X9434D01*
X9970D02*
X11239D01*
X11694D02*
X13735D01*
X14235D02*
X14355D01*
X14755D02*
X20650D01*
X21736D02*
X22273D01*
X1899Y5614D02*
X3532D01*
X4101D02*
X8634D01*
X8996D02*
X9434D01*
X9970D02*
X11287D01*
X11742D02*
X13750D01*
X14220D02*
X14325D01*
X14785D02*
X20650D01*
X21736D02*
X22321D01*
X1851Y5662D02*
X3556D01*
X4077D02*
X8699D01*
X8931D02*
X9434D01*
X9970D02*
X11335D01*
X13376D02*
X13777D01*
X14193D02*
X14308D01*
X14802D02*
X20650D01*
X21736D02*
X22369D01*
X1803Y5710D02*
X3592D01*
X4041D02*
X9434D01*
X9970D02*
X11383D01*
X13425D02*
X13462D01*
X13488D02*
X13821D01*
X14149D02*
X14300D01*
X14810D02*
X20650D01*
X21736D02*
X22417D01*
X1755Y5758D02*
X3649D01*
X3984D02*
X9434D01*
X9970D02*
X11431D01*
X13624D02*
X13909D01*
X14061D02*
X14302D01*
X14808D02*
X20650D01*
X21736D02*
X22465D01*
X1707Y5806D02*
X3780D01*
X3853D02*
X9434D01*
X9970D02*
X11479D01*
X13675D02*
X14313D01*
X14797D02*
X20650D01*
X21736D02*
X22513D01*
X1659Y5854D02*
X9434D01*
X9970D02*
X11527D01*
X13705D02*
X14335D01*
X14775D02*
X15298D01*
X15392D02*
X20650D01*
X21736D02*
X22561D01*
X1611Y5902D02*
X9434D01*
X9970D02*
X11530D01*
X13722D02*
X14372D01*
X14738D02*
X15190D01*
X15500D02*
X20650D01*
X21736D02*
X22609D01*
X1563Y5950D02*
X9434D01*
X9970D02*
X11530D01*
X11820D02*
X13220D01*
X13730D02*
X14374D01*
X14700D02*
X15142D01*
X15548D02*
X20650D01*
X21736D02*
X22657D01*
X1515Y5999D02*
X9434D01*
X9970D02*
X11530D01*
X11820D02*
X13222D01*
X13728D02*
X14326D01*
X14698D02*
X15113D01*
X15577D02*
X20650D01*
X21736D02*
X22705D01*
X1467Y6047D02*
X9434D01*
X9970D02*
X11530D01*
X11820D02*
X13233D01*
X13717D02*
X14278D01*
X14681D02*
X15097D01*
X15593D02*
X20650D01*
X21736D02*
X22753D01*
X1419Y6095D02*
X9434D01*
X9970D02*
X11530D01*
X11820D02*
X13255D01*
X13695D02*
X14230D01*
X14640D02*
X15090D01*
X15600D02*
X16187D01*
X16283D02*
X20650D01*
X21736D02*
X22801D01*
X1371Y6143D02*
X9434D01*
X9970D02*
X11530D01*
X11820D02*
X13292D01*
X13658D02*
X14182D01*
X14592D02*
X15093D01*
X15620D02*
X16080D01*
X16390D02*
X20650D01*
X21736D02*
X22849D01*
X1323Y6191D02*
X9434D01*
X9970D02*
X11530D01*
X11820D02*
X13356D01*
X13594D02*
X14134D01*
X14544D02*
X15105D01*
X15668D02*
X16032D01*
X16438D02*
X20650D01*
X21736D02*
X22897D01*
X1275Y6239D02*
X9434D01*
X9970D02*
X11530D01*
X11820D02*
X14086D01*
X14496D02*
X15128D01*
X15716D02*
X16003D01*
X16467D02*
X20650D01*
X21736D02*
X22945D01*
X1227Y6287D02*
X2984D01*
X3166D02*
X9434D01*
X9970D02*
X11530D01*
X11820D02*
X14038D01*
X14448D02*
X15166D01*
X15764D02*
X15987D01*
X16483D02*
X20650D01*
X21736D02*
X22357D01*
X22473D02*
X22993D01*
X1179Y6335D02*
X2905D01*
X3245D02*
X9434D01*
X9970D02*
X11530D01*
X11820D02*
X13990D01*
X14400D02*
X15206D01*
X15812D02*
X15980D01*
X16490D02*
X20650D01*
X21736D02*
X22257D01*
X22573D02*
X23041D01*
X1131Y6383D02*
X2863D01*
X3287D02*
X9434D01*
X9970D02*
X11085D01*
X11245D02*
X11530D01*
X11820D02*
X13942D01*
X14352D02*
X15147D01*
X15860D02*
X15983D01*
X16487D02*
X21414D01*
X21736D02*
X22210D01*
X22620D02*
X23089D01*
X1083Y6431D02*
X2838D01*
X3312D02*
X9434D01*
X9970D02*
X11000D01*
X11330D02*
X11530D01*
X11820D02*
X13894D01*
X14304D02*
X15050D01*
X15908D02*
X15995D01*
X16475D02*
X21414D01*
X21736D02*
X22182D01*
X22648D02*
X23137D01*
X1035Y6479D02*
X2824D01*
X3326D02*
X9434D01*
X9970D02*
X10956D01*
X11374D02*
X11530D01*
X11820D02*
X12459D01*
X12651D02*
X13846D01*
X14256D02*
X14996D01*
X15956D02*
X16018D01*
X16452D02*
X21414D01*
X21736D02*
X22166D01*
X22664D02*
X23185D01*
X987Y6527D02*
X2820D01*
X3330D02*
X9434D01*
X9970D02*
X10930D01*
X11400D02*
X11530D01*
X11820D02*
X12383D01*
X12727D02*
X13653D01*
X14208D02*
X14948D01*
X16004D02*
X16056D01*
X16414D02*
X20650D01*
X21736D02*
X22160D01*
X22670D02*
X23233D01*
X939Y6575D02*
X2825D01*
X3325D02*
X9434D01*
X9970D02*
X10915D01*
X11415D02*
X11530D01*
X11820D02*
X12342D01*
X12768D02*
X13595D01*
X14160D02*
X14900D01*
X15589D02*
X15598D01*
X16052D02*
X16125D01*
X16345D02*
X20650D01*
X21736D02*
X22163D01*
X22667D02*
X23281D01*
X891Y6623D02*
X2840D01*
X3310D02*
X9434D01*
X9970D02*
X10910D01*
X11420D02*
X11530D01*
X11820D02*
X12317D01*
X12793D02*
X13561D01*
X14112D02*
X14852D01*
X15581D02*
X15646D01*
X16100D02*
X20650D01*
X21736D02*
X22176D01*
X22654D02*
X23329D01*
X843Y6671D02*
X2866D01*
X3284D02*
X9434D01*
X9970D02*
X10914D01*
X11416D02*
X11530D01*
X11820D02*
X12304D01*
X12806D02*
X13541D01*
X14064D02*
X14804D01*
X15562D02*
X15694D01*
X16148D02*
X20650D01*
X21736D02*
X22199D01*
X22631D02*
X23377D01*
X795Y6719D02*
X2909D01*
X3241D02*
X9434D01*
X9970D02*
X10928D01*
X11402D02*
X11530D01*
X11820D02*
X12300D01*
X12810D02*
X13531D01*
X14039D02*
X14756D01*
X15530D02*
X15742D01*
X16196D02*
X20650D01*
X21736D02*
X22238D01*
X22592D02*
X23425D01*
X747Y6767D02*
X2995D01*
X3155D02*
X9434D01*
X9970D02*
X10953D01*
X11377D02*
X11530D01*
X11820D02*
X12305D01*
X12805D02*
X13531D01*
X14039D02*
X14708D01*
X15118D02*
X15193D01*
X15477D02*
X15790D01*
X16244D02*
X20650D01*
X21736D02*
X22309D01*
X22521D02*
X23473D01*
X699Y6815D02*
X9434D01*
X9970D02*
X10995D01*
X11335D02*
X11530D01*
X11820D02*
X12320D01*
X12790D02*
X13540D01*
X14030D02*
X14660D01*
X15070D02*
X15838D01*
X16292D02*
X20650D01*
X21736D02*
X23521D01*
X650Y6863D02*
X9434D01*
X9970D02*
X11040D01*
X11330D02*
X11530D01*
X11820D02*
X12347D01*
X12763D02*
X13559D01*
X14011D02*
X14612D01*
X15022D02*
X15886D01*
X16340D02*
X20650D01*
X21736D02*
X23570D01*
X602Y6911D02*
X8853D01*
X9057D02*
X9434D01*
X9970D02*
X11040D01*
X11330D02*
X11530D01*
X11820D02*
X12392D01*
X12718D02*
X13592D01*
X13978D02*
X14564D01*
X14974D02*
X15934D01*
X16388D02*
X20650D01*
X21736D02*
X23618D01*
X554Y6959D02*
X8780D01*
X9130D02*
X9434D01*
X9970D02*
X11040D01*
X11330D02*
X11530D01*
X11820D02*
X12481D01*
X12629D02*
X13647D01*
X13923D02*
X14516D01*
X14926D02*
X15588D01*
X15782D02*
X15982D01*
X16436D02*
X20650D01*
X21736D02*
X23666D01*
X506Y7007D02*
X8740D01*
X9170D02*
X9434D01*
X9970D02*
X10115D01*
X10235D02*
X11040D01*
X11330D02*
X11530D01*
X11820D02*
X14468D01*
X14878D02*
X15513D01*
X15857D02*
X16030D01*
X16484D02*
X20650D01*
X21736D02*
X23714D01*
X458Y7055D02*
X1305D01*
X1345D02*
X8716D01*
X9194D02*
X9434D01*
X9970D02*
X10017D01*
X10333D02*
X11040D01*
X11330D02*
X11530D01*
X11820D02*
X14420D01*
X14830D02*
X15472D01*
X15898D02*
X16078D01*
X16533D02*
X20650D01*
X21736D02*
X22935D01*
X22975D02*
X23762D01*
X410Y7103D02*
X1010D01*
X1640D02*
X8703D01*
X9207D02*
X9434D01*
X10380D02*
X11040D01*
X11330D02*
X11530D01*
X11820D02*
X14372D01*
X14782D02*
X15447D01*
X15923D02*
X16126D01*
X16581D02*
X20650D01*
X21736D02*
X22640D01*
X23270D02*
X23810D01*
X362Y7151D02*
X886D01*
X1764D02*
X8700D01*
X9210D02*
X9434D01*
X10408D02*
X11040D01*
X11330D02*
X11530D01*
X11820D02*
X14324D01*
X14734D02*
X15434D01*
X15936D02*
X16174D01*
X16629D02*
X20650D01*
X21736D02*
X22516D01*
X23394D02*
X23858D01*
X314Y7199D02*
X794D01*
X1856D02*
X8706D01*
X9204D02*
X9434D01*
X10424D02*
X11040D01*
X11330D02*
X11530D01*
X11820D02*
X14276D01*
X14686D02*
X15430D01*
X15940D02*
X16222D01*
X16677D02*
X20650D01*
X21736D02*
X22424D01*
X23486D02*
X23906D01*
X285Y7247D02*
X719D01*
X1931D02*
X8721D01*
X9189D02*
X9434D01*
X10430D02*
X11040D01*
X11330D02*
X11530D01*
X11820D02*
X14228D01*
X14638D02*
X15435D01*
X15935D02*
X16270D01*
X16725D02*
X20650D01*
X21736D02*
X22349D01*
X23561D02*
X23945D01*
X285Y7295D02*
X656D01*
X1994D02*
X8749D01*
X9161D02*
X9434D01*
X10427D02*
X11040D01*
X11330D02*
X11530D01*
X11820D02*
X14180D01*
X14590D02*
X15451D01*
X15919D02*
X16318D01*
X16773D02*
X20650D01*
X21736D02*
X22286D01*
X23624D02*
X23945D01*
X285Y7343D02*
X602D01*
X2048D02*
X8795D01*
X9115D02*
X9434D01*
X10414D02*
X11040D01*
X11330D02*
X11530D01*
X11820D02*
X14132D01*
X14542D02*
X15478D01*
X15892D02*
X16366D01*
X16821D02*
X20650D01*
X21736D02*
X22232D01*
X23678D02*
X23945D01*
X285Y7391D02*
X555D01*
X2095D02*
X8889D01*
X9021D02*
X9434D01*
X10390D02*
X10726D01*
X11004D02*
X11040D01*
X11330D02*
X11530D01*
X11820D02*
X14084D01*
X14494D02*
X15300D01*
X15450D02*
X15522D01*
X15848D02*
X16414D01*
X16869D02*
X21414D01*
X21736D02*
X22185D01*
X23725D02*
X23945D01*
X285Y7439D02*
X513D01*
X2137D02*
X9434D01*
X10351D02*
X10671D01*
X11330D02*
X11530D01*
X11820D02*
X14036D01*
X14446D02*
X15211D01*
X15539D02*
X15612D01*
X15758D02*
X16462D01*
X16917D02*
X21414D01*
X21736D02*
X22143D01*
X23767D02*
X23945D01*
X285Y7487D02*
X476D01*
X2174D02*
X9434D01*
X10280D02*
X10639D01*
X11330D02*
X11530D01*
X11820D02*
X13987D01*
X14398D02*
X15167D01*
X15583D02*
X16510D01*
X16965D02*
X21414D01*
X21736D02*
X22106D01*
X23804D02*
X23945D01*
X285Y7536D02*
X443D01*
X2207D02*
X9434D01*
X10131D02*
X10620D01*
X11330D02*
X11530D01*
X11820D02*
X13939D01*
X14350D02*
X15140D01*
X15610D02*
X16558D01*
X17013D02*
X20650D01*
X21736D02*
X22073D01*
X23837D02*
X23945D01*
X285Y7584D02*
X414D01*
X2236D02*
X9435D01*
X10179D02*
X10611D01*
X11330D02*
X11530D01*
X11820D02*
X13891D01*
X14302D02*
X15125D01*
X15625D02*
X16606D01*
X17061D02*
X20650D01*
X21736D02*
X22044D01*
X23866D02*
X23945D01*
X285Y7632D02*
X388D01*
X2262D02*
X9449D01*
X10227D02*
X10611D01*
X11330D02*
X11530D01*
X11820D02*
X13843D01*
X14254D02*
X15120D01*
X15630D02*
X16654D01*
X17109D02*
X20650D01*
X21736D02*
X22018D01*
X23892D02*
X23945D01*
X285Y7680D02*
X365D01*
X2285D02*
X9482D01*
X10275D02*
X10621D01*
X11330D02*
X11530D01*
X11820D02*
X13795D01*
X14205D02*
X15124D01*
X15626D02*
X16702D01*
X17157D02*
X20650D01*
X21736D02*
X21995D01*
X23915D02*
X23945D01*
X285Y7728D02*
X345D01*
X2305D02*
X9530D01*
X10323D02*
X10641D01*
X11330D02*
X11530D01*
X11820D02*
X13747D01*
X14157D02*
X15137D01*
X15613D02*
X16750D01*
X17205D02*
X20650D01*
X21736D02*
X21975D01*
X23935D02*
X23945D01*
X285Y7776D02*
X328D01*
X2322D02*
X9125D01*
X9385D02*
X9578D01*
X10371D02*
X10676D01*
X11330D02*
X11530D01*
X11820D02*
X13699D01*
X14109D02*
X15162D01*
X15588D02*
X16798D01*
X17253D02*
X20650D01*
X21736D02*
X21958D01*
X285Y7824D02*
X313D01*
X2337D02*
X9066D01*
X9444D02*
X9626D01*
X10419D02*
X10720D01*
X11330D02*
X11530D01*
X11820D02*
X12453D01*
X12617D02*
X13651D01*
X14061D02*
X15204D01*
X15546D02*
X16846D01*
X17301D02*
X20650D01*
X21736D02*
X21943D01*
X285Y7872D02*
X301D01*
X2349D02*
X7832D01*
X8038D02*
X9032D01*
X9478D02*
X9674D01*
X10464D02*
X10720D01*
X11330D02*
X11530D01*
X11820D02*
X12369D01*
X12701D02*
X13603D01*
X14013D02*
X15280D01*
X15470D02*
X16894D01*
X17349D02*
X17722D01*
X17928D02*
X20650D01*
X21736D02*
X21931D01*
X285Y7920D02*
X291D01*
X2359D02*
X7760D01*
X8110D02*
X9011D01*
X9499D02*
X9722D01*
X10486D02*
X10720D01*
X11330D02*
X11530D01*
X11820D02*
X12325D01*
X12745D02*
X13555D01*
X13965D02*
X16942D01*
X17397D02*
X17650D01*
X18000D02*
X20650D01*
X21736D02*
X21921D01*
X2366Y7968D02*
X7720D01*
X8150D02*
X9001D01*
X9509D02*
X9770D01*
X10490D02*
X10720D01*
X11330D02*
X11530D01*
X11820D02*
X12299D01*
X12771D02*
X13507D01*
X13917D02*
X16990D01*
X18040D02*
X20650D01*
X21736D02*
X21914D01*
X2371Y8016D02*
X7696D01*
X8174D02*
X9001D01*
X9509D02*
X9819D01*
X10490D02*
X10720D01*
X11330D02*
X11530D01*
X11820D02*
X12285D01*
X12785D02*
X13459D01*
X13869D02*
X17039D01*
X18064D02*
X20650D01*
X21736D02*
X21909D01*
X2374Y8064D02*
X7683D01*
X8187D02*
X9009D01*
X9501D02*
X9627D01*
X9843D02*
X9867D01*
X10490D02*
X10720D01*
X11330D02*
X11530D01*
X11820D02*
X12280D01*
X12790D02*
X13411D01*
X13821D02*
X17087D01*
X18077D02*
X20650D01*
X21736D02*
X21906D01*
X2375Y8112D02*
X7680D01*
X8190D02*
X9028D01*
X9482D02*
X9558D01*
X10490D02*
X10720D01*
X11330D02*
X11530D01*
X11820D02*
X12284D01*
X12786D02*
X13363D01*
X13773D02*
X17135D01*
X18080D02*
X20650D01*
X21736D02*
X21905D01*
X2374Y8160D02*
X7535D01*
X7675D02*
X7686D01*
X8184D02*
X9061D01*
X9449D02*
X9519D01*
X10490D02*
X10720D01*
X11330D02*
X11530D01*
X11820D02*
X12298D01*
X12772D02*
X13315D01*
X13725D02*
X17183D01*
X18074D02*
X20650D01*
X21736D02*
X21906D01*
X2370Y8208D02*
X7443D01*
X8168D02*
X9115D01*
X9395D02*
X9495D01*
X10490D02*
X10720D01*
X11330D02*
X11530D01*
X11820D02*
X12324D01*
X12746D02*
X13267D01*
X13677D02*
X17231D01*
X18058D02*
X20650D01*
X21736D02*
X21910D01*
X285Y8256D02*
X286D01*
X2364D02*
X7398D01*
X8141D02*
X9483D01*
X10490D02*
X10720D01*
X11330D02*
X11530D01*
X11820D02*
X12366D01*
X12704D02*
X13219D01*
X13629D02*
X17300D01*
X18031D02*
X20650D01*
X21736D02*
X21916D01*
X285Y8304D02*
X294D01*
X2356D02*
X7371D01*
X8094D02*
X9480D01*
X10490D02*
X10720D01*
X11330D02*
X11530D01*
X11820D02*
X12446D01*
X12624D02*
X13183D01*
X13581D02*
X17666D01*
X17984D02*
X20650D01*
X21736D02*
X21924D01*
X285Y8352D02*
X304D01*
X2346D02*
X7356D01*
X7854D02*
X7872D01*
X7998D02*
X9486D01*
X10490D02*
X10720D01*
X11330D02*
X11530D01*
X11820D02*
X13171D01*
X13533D02*
X17762D01*
X17888D02*
X20650D01*
X21736D02*
X21934D01*
X285Y8400D02*
X317D01*
X2333D02*
X7350D01*
X7860D02*
X9503D01*
X10490D02*
X10720D01*
X11330D02*
X11530D01*
X11820D02*
X13170D01*
X13485D02*
X21414D01*
X21736D02*
X21947D01*
X285Y8448D02*
X333D01*
X2317D02*
X7354D01*
X7856D02*
X9531D01*
X10490D02*
X10720D01*
X11330D02*
X11530D01*
X11820D02*
X13170D01*
X13460D02*
X13551D01*
X13739D02*
X21414D01*
X21736D02*
X21963D01*
X285Y8496D02*
X351D01*
X2299D02*
X7367D01*
X7901D02*
X9578D01*
X10490D02*
X10720D01*
X11330D02*
X11530D01*
X11820D02*
X13170D01*
X13460D02*
X13474D01*
X13816D02*
X21414D01*
X21736D02*
X21981D01*
X23929D02*
X23945D01*
X285Y8544D02*
X371D01*
X2279D02*
X7391D01*
X7949D02*
X9681D01*
X9789D02*
X9884D01*
X10490D02*
X10720D01*
X11330D02*
X11530D01*
X11820D02*
X13170D01*
X13858D02*
X20650D01*
X21736D02*
X22001D01*
X23909D02*
X23945D01*
X285Y8592D02*
X395D01*
X2255D02*
X7432D01*
X7997D02*
X9884D01*
X10490D02*
X10720D01*
X11330D02*
X11530D01*
X11820D02*
X13170D01*
X13883D02*
X19271D01*
X19519D02*
X20650D01*
X21736D02*
X22025D01*
X23885D02*
X23945D01*
X285Y8640D02*
X422D01*
X2228D02*
X7507D01*
X8045D02*
X9884D01*
X10490D02*
X10720D01*
X11330D02*
X11530D01*
X11820D02*
X13170D01*
X13896D02*
X19209D01*
X19581D02*
X20650D01*
X21736D02*
X22052D01*
X23858D02*
X23945D01*
X285Y8688D02*
X452D01*
X2198D02*
X7683D01*
X8093D02*
X9884D01*
X10490D02*
X10720D01*
X11330D02*
X11530D01*
X11820D02*
X13170D01*
X13900D02*
X19174D01*
X19616D02*
X20650D01*
X21736D02*
X22082D01*
X23828D02*
X23945D01*
X285Y8736D02*
X486D01*
X2164D02*
X7731D01*
X8141D02*
X9884D01*
X10490D02*
X10720D01*
X11330D02*
X11530D01*
X11820D02*
X13170D01*
X13895D02*
X19152D01*
X19638D02*
X20650D01*
X21736D02*
X22116D01*
X23794D02*
X23945D01*
X285Y8784D02*
X524D01*
X2126D02*
X7779D01*
X8189D02*
X9884D01*
X10490D02*
X10720D01*
X11330D02*
X11530D01*
X11820D02*
X13170D01*
X13880D02*
X19142D01*
X19648D02*
X20650D01*
X21736D02*
X22154D01*
X23756D02*
X23945D01*
X285Y8832D02*
X568D01*
X2082D02*
X7827D01*
X8237D02*
X8684D01*
X8966D02*
X9884D01*
X10490D02*
X10720D01*
X11330D02*
X11530D01*
X11820D02*
X13170D01*
X13853D02*
X19141D01*
X19649D02*
X20650D01*
X21736D02*
X22198D01*
X23712D02*
X23945D01*
X285Y8880D02*
X617D01*
X2033D02*
X7875D01*
X8285D02*
X8630D01*
X9020D02*
X9884D01*
X10490D02*
X10720D01*
X11330D02*
X11530D01*
X11820D02*
X13170D01*
X13460D02*
X13481D01*
X13809D02*
X19149D01*
X19641D02*
X20650D01*
X21736D02*
X22247D01*
X23663D02*
X23945D01*
X285Y8928D02*
X674D01*
X1976D02*
X7923D01*
X9052D02*
X9884D01*
X10490D02*
X10720D01*
X11330D02*
X11530D01*
X11820D02*
X13170D01*
X13460D02*
X13569D01*
X13721D02*
X19167D01*
X19623D02*
X20650D01*
X21736D02*
X22304D01*
X23606D02*
X23945D01*
X285Y8976D02*
X739D01*
X1911D02*
X7971D01*
X9071D02*
X9884D01*
X10490D02*
X10720D01*
X11330D02*
X11530D01*
X11820D02*
X13170D01*
X13460D02*
X19198D01*
X19592D02*
X20650D01*
X21736D02*
X22369D01*
X23541D02*
X23945D01*
X285Y9024D02*
X818D01*
X1832D02*
X8019D01*
X9079D02*
X9884D01*
X10490D02*
X10720D01*
X11330D02*
X11530D01*
X11820D02*
X13170D01*
X13460D02*
X19250D01*
X19540D02*
X20650D01*
X21736D02*
X22448D01*
X23462D02*
X23945D01*
X285Y9073D02*
X917D01*
X1733D02*
X7896D01*
X7983D02*
X8067D01*
X9079D02*
X9884D01*
X10490D02*
X10720D01*
X11330D02*
X11530D01*
X11820D02*
X13170D01*
X13460D02*
X15370D01*
X15620D02*
X20650D01*
X21736D02*
X22547D01*
X23363D02*
X23945D01*
X285Y9121D02*
X1058D01*
X1592D02*
X7848D01*
X8031D02*
X8116D01*
X9069D02*
X9182D01*
X9328D02*
X9884D01*
X10490D02*
X10720D01*
X11330D02*
X11530D01*
X11820D02*
X13170D01*
X13460D02*
X15309D01*
X15681D02*
X20650D01*
X21736D02*
X22688D01*
X23222D02*
X23945D01*
X285Y9169D02*
X7800D01*
X8079D02*
X8169D01*
X9048D02*
X9092D01*
X9418D02*
X9884D01*
X10490D02*
X10720D01*
X11330D02*
X11530D01*
X11820D02*
X13170D01*
X13460D02*
X15274D01*
X15716D02*
X20650D01*
X21736D02*
X23945D01*
X285Y9217D02*
X7752D01*
X8127D02*
X8636D01*
X9014D02*
X9048D01*
X9462D02*
X9884D01*
X10490D02*
X10720D01*
X11330D02*
X11530D01*
X11820D02*
X13170D01*
X13460D02*
X15252D01*
X15738D02*
X20650D01*
X21736D02*
X23945D01*
X285Y9265D02*
X7704D01*
X8175D02*
X8695D01*
X8955D02*
X9021D01*
X9489D02*
X9884D01*
X10490D02*
X10720D01*
X11330D02*
X11530D01*
X11820D02*
X13170D01*
X13460D02*
X15242D01*
X15748D02*
X20650D01*
X21736D02*
X23945D01*
X285Y9313D02*
X7656D01*
X8223D02*
X9005D01*
X9505D02*
X9884D01*
X10500D02*
X10720D01*
X11330D02*
X11530D01*
X11820D02*
X13170D01*
X13460D02*
X15241D01*
X15749D02*
X20650D01*
X21736D02*
X23400D01*
X23650D02*
X23945D01*
X285Y9361D02*
X7608D01*
X8271D02*
X9000D01*
X9510D02*
X9884D01*
X10561D02*
X10720D01*
X11330D02*
X11530D01*
X11820D02*
X13170D01*
X13460D02*
X15249D01*
X15741D02*
X20650D01*
X21736D02*
X23339D01*
X23711D02*
X23945D01*
X285Y9409D02*
X7560D01*
X8320D02*
X9004D01*
X9506D02*
X9884D01*
X10597D02*
X10720D01*
X11330D02*
X11530D01*
X11820D02*
X13170D01*
X13460D02*
X15267D01*
X15723D02*
X21414D01*
X21736D02*
X23303D01*
X23747D02*
X23945D01*
X285Y9457D02*
X7512D01*
X8368D02*
X9017D01*
X9493D02*
X9677D01*
X9793D02*
X9884D01*
X10618D02*
X10720D01*
X11330D02*
X11530D01*
X11820D02*
X13170D01*
X13460D02*
X15298D01*
X15692D02*
X21414D01*
X21736D02*
X23282D01*
X23768D02*
X23945D01*
X285Y9505D02*
X7464D01*
X8416D02*
X9042D01*
X9468D02*
X9577D01*
X10628D02*
X10720D01*
X11365D02*
X11530D01*
X11820D02*
X13170D01*
X13460D02*
X15350D01*
X15640D02*
X21414D01*
X21736D02*
X23272D01*
X23778D02*
X23945D01*
X285Y9553D02*
X5087D01*
X5163D02*
X7416D01*
X8464D02*
X9083D01*
X9427D02*
X9530D01*
X10629D02*
X10720D01*
X11403D02*
X11530D01*
X11820D02*
X13170D01*
X13460D02*
X21414D01*
X21736D02*
X23271D01*
X23779D02*
X23945D01*
X285Y9601D02*
X4972D01*
X5278D02*
X7368D01*
X8512D02*
X9158D01*
X9352D02*
X9502D01*
X10621D02*
X10720D01*
X11426D02*
X11530D01*
X11820D02*
X13170D01*
X13460D02*
X21414D01*
X21736D02*
X23279D01*
X23771D02*
X23945D01*
X285Y9649D02*
X4923D01*
X5327D02*
X7358D01*
X8522D02*
X9486D01*
X10603D02*
X10720D01*
X11437D02*
X11530D01*
X11820D02*
X13170D01*
X13460D02*
X16990D01*
X17260D02*
X21414D01*
X21736D02*
X23297D01*
X23753D02*
X23945D01*
X285Y9697D02*
X4894D01*
X5356D02*
X7406D01*
X8474D02*
X9480D01*
X10572D02*
X10720D01*
X11440D02*
X11530D01*
X11820D02*
X13170D01*
X13460D02*
X16933D01*
X17317D02*
X21414D01*
X21743D02*
X23328D01*
X23722D02*
X23945D01*
X285Y9745D02*
X4877D01*
X5373D02*
X7224D01*
X7241D02*
X7454D01*
X8426D02*
X9483D01*
X10520D02*
X10720D01*
X11433D02*
X11530D01*
X11820D02*
X13170D01*
X13460D02*
X16900D01*
X17350D02*
X21414D01*
X21782D02*
X23380D01*
X23670D02*
X23945D01*
X285Y9793D02*
X4870D01*
X5380D02*
X7176D01*
X7290D02*
X7502D01*
X8378D02*
X9496D01*
X10611D02*
X10720D01*
X11416D02*
X11530D01*
X11820D02*
X12739D01*
X12951D02*
X13170D01*
X13460D02*
X16880D01*
X17370D02*
X21422D01*
X21821D02*
X23945D01*
X285Y9841D02*
X4873D01*
X5377D02*
X7128D01*
X7338D02*
X7550D01*
X8330D02*
X9519D01*
X10682D02*
X10720D01*
X11387D02*
X11530D01*
X11820D02*
X12668D01*
X13022D02*
X13170D01*
X13460D02*
X16871D01*
X17379D02*
X21446D01*
X21861D02*
X23945D01*
X285Y9889D02*
X4884D01*
X5366D02*
X7080D01*
X7386D02*
X7598D01*
X8282D02*
X9559D01*
X11010D02*
X11032D01*
X11338D02*
X11471D01*
X11820D02*
X12629D01*
X13061D02*
X13170D01*
X13460D02*
X16871D01*
X17379D02*
X21485D01*
X21900D02*
X23945D01*
X285Y9937D02*
X4907D01*
X5343D02*
X7032D01*
X7434D02*
X7646D01*
X8234D02*
X9629D01*
X9841D02*
X9884D01*
X11010D02*
X11147D01*
X11223D02*
X11431D01*
X11859D02*
X12606D01*
X13084D02*
X13170D01*
X13460D02*
X16880D01*
X17370D02*
X21524D01*
X21939D02*
X23945D01*
X285Y9985D02*
X4944D01*
X5306D02*
X6984D01*
X7482D02*
X7694D01*
X8186D02*
X9884D01*
X11010D02*
X11406D01*
X11884D02*
X12593D01*
X13097D02*
X13170D01*
X13460D02*
X16900D01*
X17350D02*
X21563D01*
X21978D02*
X23945D01*
X285Y10033D02*
X5011D01*
X5239D02*
X6936D01*
X7530D02*
X7742D01*
X8138D02*
X9884D01*
X11010D02*
X11393D01*
X11897D02*
X12590D01*
X13100D02*
X13170D01*
X13460D02*
X16933D01*
X17317D02*
X21602D01*
X22076D02*
X23945D01*
X285Y10081D02*
X6888D01*
X7578D02*
X7790D01*
X8090D02*
X9884D01*
X11026D02*
X11390D01*
X11900D02*
X12541D01*
X13094D02*
X13170D01*
X13460D02*
X16990D01*
X17260D02*
X21642D01*
X22161D02*
X23945D01*
X285Y10129D02*
X6840D01*
X7626D02*
X7838D01*
X8042D02*
X9885D01*
X11074D02*
X11396D01*
X11894D02*
X12493D01*
X13078D02*
X13170D01*
X13460D02*
X21681D01*
X22204D02*
X23945D01*
X285Y10177D02*
X6792D01*
X7674D02*
X7886D01*
X7994D02*
X9897D01*
X11122D02*
X11411D01*
X11879D02*
X12445D01*
X13050D02*
X13170D01*
X13460D02*
X21720D01*
X22231D02*
X23945D01*
X285Y10225D02*
X6744D01*
X7722D02*
X7934D01*
X7946D02*
X9928D01*
X11170D02*
X11439D01*
X11851D02*
X12397D01*
X13003D02*
X13170D01*
X13460D02*
X21745D01*
X22245D02*
X23945D01*
X285Y10273D02*
X6696D01*
X7770D02*
X9976D01*
X11218D02*
X11485D01*
X11805D02*
X12349D01*
X12903D02*
X13170D01*
X13460D02*
X21740D01*
X22250D02*
X23945D01*
X285Y10321D02*
X6648D01*
X7818D02*
X10024D01*
X11266D02*
X11506D01*
X11784D02*
X12301D01*
X12756D02*
X13170D01*
X13460D02*
X21744D01*
X22246D02*
X23945D01*
X285Y10369D02*
X6664D01*
X7802D02*
X10072D01*
X11314D02*
X11451D01*
X11839D02*
X12253D01*
X12708D02*
X13170D01*
X13460D02*
X21758D01*
X22232D02*
X23945D01*
X285Y10417D02*
X6712D01*
X7754D02*
X10120D01*
X11871D02*
X12205D01*
X12660D02*
X13170D01*
X13460D02*
X21783D01*
X22207D02*
X23945D01*
X285Y10465D02*
X6504D01*
X6548D02*
X6760D01*
X7706D02*
X10168D01*
X11890D02*
X12157D01*
X12612D02*
X13170D01*
X13460D02*
X21825D01*
X22165D02*
X23945D01*
X285Y10513D02*
X6456D01*
X6596D02*
X6808D01*
X7658D02*
X10216D01*
X11899D02*
X12109D01*
X12564D02*
X13170D01*
X13460D02*
X21905D01*
X22085D02*
X23945D01*
X285Y10561D02*
X6407D01*
X6644D02*
X6856D01*
X7610D02*
X10264D01*
X11899D02*
X12061D01*
X12516D02*
X13170D01*
X13460D02*
X23945D01*
X285Y10610D02*
X6359D01*
X6692D02*
X6904D01*
X7561D02*
X10312D01*
X11889D02*
X12013D01*
X12468D02*
X13170D01*
X13460D02*
X23945D01*
X285Y10658D02*
X6311D01*
X6740D02*
X6952D01*
X7513D02*
X10360D01*
X11869D02*
X11965D01*
X12420D02*
X13170D01*
X13460D02*
X23945D01*
X285Y10706D02*
X6263D01*
X6788D02*
X7000D01*
X7465D02*
X10408D01*
X11835D02*
X11917D01*
X12372D02*
X13170D01*
X13460D02*
X23945D01*
X285Y10754D02*
X6215D01*
X6836D02*
X7048D01*
X7417D02*
X10456D01*
X11776D02*
X11869D01*
X12324D02*
X13170D01*
X13460D02*
X23247D01*
X23483D02*
X23945D01*
X285Y10802D02*
X6167D01*
X6884D02*
X7096D01*
X7369D02*
X10504D01*
X12276D02*
X12739D01*
X12891D02*
X13163D01*
X13460D02*
X23169D01*
X23561D02*
X23945D01*
X285Y10850D02*
X6119D01*
X6932D02*
X7144D01*
X7321D02*
X10552D01*
X12228D02*
X12651D01*
X12979D02*
X13115D01*
X13460D02*
X23123D01*
X23607D02*
X23945D01*
X285Y10898D02*
X6071D01*
X6980D02*
X7192D01*
X7273D02*
X10600D01*
X12180D02*
X12607D01*
X13023D02*
X13067D01*
X13454D02*
X23093D01*
X23637D02*
X23945D01*
X285Y10946D02*
X6023D01*
X7028D02*
X10648D01*
X12132D02*
X12580D01*
X13428D02*
X23073D01*
X23657D02*
X23945D01*
X285Y10994D02*
X5975D01*
X7076D02*
X10696D01*
X12084D02*
X12565D01*
X13381D02*
X23063D01*
X23667D02*
X23945D01*
X285Y11042D02*
X5927D01*
X7124D02*
X10745D01*
X12035D02*
X12560D01*
X13333D02*
X23060D01*
X23670D02*
X23945D01*
X285Y11090D02*
X5970D01*
X7081D02*
X11791D01*
X12119D02*
X12564D01*
X13285D02*
X23065D01*
X23665D02*
X23945D01*
X285Y11138D02*
X6018D01*
X7033D02*
X11747D01*
X12163D02*
X12578D01*
X13237D02*
X23078D01*
X23652D02*
X23945D01*
X285Y11186D02*
X5783D01*
X5854D02*
X6066D01*
X6985D02*
X11720D01*
X12190D02*
X12602D01*
X13189D02*
X23100D01*
X23630D02*
X23945D01*
X285Y11234D02*
X5735D01*
X5902D02*
X6114D01*
X6937D02*
X9432D01*
X9598D02*
X11705D01*
X12205D02*
X12644D01*
X13131D02*
X23134D01*
X23596D02*
X23945D01*
X285Y11282D02*
X5687D01*
X5950D02*
X6162D01*
X6889D02*
X9348D01*
X9682D02*
X11700D01*
X12210D02*
X12721D01*
X12909D02*
X23186D01*
X23544D02*
X23945D01*
X285Y11330D02*
X5639D01*
X5998D02*
X6210D01*
X6841D02*
X9305D01*
X9725D02*
X11704D01*
X12206D02*
X23288D01*
X23442D02*
X23945D01*
X285Y11378D02*
X5591D01*
X6046D02*
X6258D01*
X6793D02*
X9279D01*
X9751D02*
X11718D01*
X12192D02*
X23945D01*
X285Y11426D02*
X5543D01*
X6094D02*
X6306D01*
X6745D02*
X9265D01*
X9765D02*
X11743D01*
X12167D02*
X23945D01*
X285Y11474D02*
X5495D01*
X6142D02*
X6354D01*
X6697D02*
X9260D01*
X9770D02*
X11784D01*
X12126D02*
X23945D01*
X285Y11522D02*
X5447D01*
X6190D02*
X6402D01*
X6649D02*
X9264D01*
X9766D02*
X11861D01*
X12049D02*
X23945D01*
X285Y11570D02*
X5399D01*
X6238D02*
X6450D01*
X6601D02*
X9278D01*
X9752D02*
X14898D01*
X15172D02*
X21054D01*
X21196D02*
X21484D01*
X21626D02*
X21906D01*
X22104D02*
X23945D01*
X285Y11618D02*
X5351D01*
X6286D02*
X6499D01*
X6553D02*
X9304D01*
X9726D02*
X14842D01*
X15228D02*
X20963D01*
X21287D02*
X21393D01*
X21717D02*
X21831D01*
X22179D02*
X23945D01*
X285Y11666D02*
X5303D01*
X6334D02*
X9346D01*
X9684D02*
X14809D01*
X15261D02*
X20918D01*
X21332D02*
X21348D01*
X21762D02*
X21791D01*
X22219D02*
X23945D01*
X285Y11714D02*
X5255D01*
X6382D02*
X9427D01*
X9603D02*
X14790D01*
X15280D02*
X20891D01*
X22243D02*
X23945D01*
X285Y11762D02*
X5228D01*
X6409D02*
X7328D01*
X9945D02*
X14781D01*
X15289D02*
X20876D01*
X22256D02*
X23945D01*
X285Y11810D02*
X5276D01*
X6361D02*
X7280D01*
X9945D02*
X14781D01*
X15289D02*
X20870D01*
X22260D02*
X23945D01*
X285Y11858D02*
X5111D01*
X5112D02*
X5324D01*
X6313D02*
X7232D01*
X9945D02*
X14791D01*
X15279D02*
X20874D01*
X22254D02*
X23945D01*
X285Y11906D02*
X5063D01*
X5160D02*
X5372D01*
X6265D02*
X7184D01*
X9945D02*
X14811D01*
X15259D02*
X20887D01*
X22239D02*
X23945D01*
X285Y11954D02*
X5015D01*
X5208D02*
X5420D01*
X6217D02*
X7136D01*
X9945D02*
X14844D01*
X15226D02*
X20911D01*
X21339D02*
X21341D01*
X21769D02*
X21798D01*
X22212D02*
X23945D01*
X285Y12002D02*
X4967D01*
X5256D02*
X5469D01*
X6169D02*
X7088D01*
X9945D02*
X14902D01*
X15168D02*
X20952D01*
X21298D02*
X21382D01*
X21728D02*
X21844D01*
X22166D02*
X23945D01*
X285Y12050D02*
X4919D01*
X5304D02*
X5517D01*
X6121D02*
X7040D01*
X9945D02*
X21027D01*
X21223D02*
X21457D01*
X21653D02*
X21936D01*
X22074D02*
X23945D01*
X285Y12099D02*
X4870D01*
X5352D02*
X5565D01*
X6073D02*
X6991D01*
X9945D02*
X23945D01*
X285Y12147D02*
X4822D01*
X5400D02*
X5613D01*
X6024D02*
X6943D01*
X16507D02*
X23945D01*
X285Y12195D02*
X4774D01*
X5449D02*
X5661D01*
X5976D02*
X6895D01*
X16555D02*
X23945D01*
X285Y12243D02*
X4726D01*
X5497D02*
X5709D01*
X5928D02*
X6847D01*
X16603D02*
X23945D01*
X285Y12291D02*
X4678D01*
X5545D02*
X5757D01*
X5880D02*
X6799D01*
X16651D02*
X23945D01*
X285Y12339D02*
X4630D01*
X5593D02*
X5805D01*
X5832D02*
X6751D01*
X16699D02*
X23945D01*
X285Y12387D02*
X4582D01*
X5641D02*
X6703D01*
X16747D02*
X23945D01*
X285Y12435D02*
X4534D01*
X5689D02*
X6655D01*
X16795D02*
X23945D01*
X285Y12483D02*
X4535D01*
X5688D02*
X6607D01*
X16843D02*
X23945D01*
X285Y12531D02*
X4583D01*
X5640D02*
X6559D01*
X16891D02*
X23945D01*
X285Y12579D02*
X4390D01*
X4419D02*
X4631D01*
X5592D02*
X6511D01*
X16939D02*
X23945D01*
X285Y12627D02*
X4342D01*
X4467D02*
X4679D01*
X5544D02*
X6463D01*
X16987D02*
X23945D01*
X285Y12675D02*
X4294D01*
X4515D02*
X4727D01*
X5496D02*
X6415D01*
X17035D02*
X23945D01*
X285Y12723D02*
X4246D01*
X4563D02*
X4775D01*
X5448D02*
X6367D01*
X17035D02*
X23227D01*
X23503D02*
X23945D01*
X285Y12771D02*
X4198D01*
X4611D02*
X4823D01*
X5400D02*
X6319D01*
X17035D02*
X23158D01*
X23572D02*
X23945D01*
X285Y12819D02*
X4150D01*
X4659D02*
X4871D01*
X5352D02*
X6271D01*
X17035D02*
X23116D01*
X23614D02*
X23945D01*
X285Y12867D02*
X4102D01*
X4707D02*
X4919D01*
X5304D02*
X6223D01*
X17035D02*
X23088D01*
X23642D02*
X23945D01*
X285Y12915D02*
X4054D01*
X4755D02*
X4967D01*
X5256D02*
X6175D01*
X17035D02*
X23071D01*
X23659D02*
X23945D01*
X285Y12963D02*
X4006D01*
X4803D02*
X5015D01*
X5208D02*
X6127D01*
X17035D02*
X23062D01*
X23668D02*
X23945D01*
X285Y13011D02*
X3958D01*
X4851D02*
X5063D01*
X5160D02*
X6079D01*
X17035D02*
X23060D01*
X23670D02*
X23945D01*
X285Y13059D02*
X3910D01*
X4899D02*
X5111D01*
X5112D02*
X6031D01*
X17035D02*
X23067D01*
X23663D02*
X23945D01*
X285Y13107D02*
X3862D01*
X4947D02*
X5983D01*
X17035D02*
X23081D01*
X23649D02*
X23945D01*
X285Y13155D02*
X3814D01*
X4995D02*
X5935D01*
X17035D02*
X23105D01*
X23625D02*
X23945D01*
X285Y13203D02*
X3841D01*
X4968D02*
X5887D01*
X17035D02*
X23142D01*
X23588D02*
X23945D01*
X285Y13251D02*
X3889D01*
X4920D02*
X5839D01*
X17035D02*
X23200D01*
X23530D02*
X23945D01*
X285Y13299D02*
X3670D01*
X3725D02*
X3937D01*
X4872D02*
X5791D01*
X17035D02*
X23344D01*
X23386D02*
X23945D01*
X285Y13347D02*
X3622D01*
X3773D02*
X3985D01*
X4824D02*
X5785D01*
X17035D02*
X23945D01*
X285Y13395D02*
X3574D01*
X3821D02*
X4033D01*
X4776D02*
X5785D01*
X17035D02*
X23945D01*
X285Y13443D02*
X3526D01*
X3869D02*
X4081D01*
X4728D02*
X5785D01*
X17035D02*
X17978D01*
X18192D02*
X23945D01*
X285Y13491D02*
X3478D01*
X3917D02*
X4129D01*
X4680D02*
X5785D01*
X17035D02*
X17908D01*
X18262D02*
X23945D01*
X285Y13539D02*
X3430D01*
X3965D02*
X4177D01*
X4632D02*
X5785D01*
X17035D02*
X17869D01*
X18301D02*
X23945D01*
X285Y13587D02*
X3381D01*
X4013D02*
X4225D01*
X4584D02*
X5785D01*
X17035D02*
X17845D01*
X18325D02*
X23945D01*
X285Y13636D02*
X3333D01*
X4061D02*
X4273D01*
X4536D02*
X5785D01*
X17035D02*
X17833D01*
X18337D02*
X23945D01*
X285Y13684D02*
X3285D01*
X4109D02*
X4321D01*
X4487D02*
X5785D01*
X17035D02*
X17830D01*
X18340D02*
X23945D01*
X285Y13732D02*
X3237D01*
X4157D02*
X4369D01*
X4439D02*
X5785D01*
X17035D02*
X17836D01*
X18334D02*
X22447D01*
X22503D02*
X23945D01*
X285Y13780D02*
X3189D01*
X4205D02*
X5785D01*
X17035D02*
X17852D01*
X18318D02*
X22324D01*
X22626D02*
X23945D01*
X285Y13828D02*
X3141D01*
X4253D02*
X5785D01*
X17035D02*
X17881D01*
X18289D02*
X22274D01*
X22676D02*
X23945D01*
X285Y13876D02*
X3099D01*
X4295D02*
X5785D01*
X17035D02*
X17928D01*
X18242D02*
X22245D01*
X22705D02*
X23945D01*
X285Y13924D02*
X3147D01*
X4247D02*
X5785D01*
X17035D02*
X18029D01*
X18141D02*
X22227D01*
X22723D02*
X23945D01*
X285Y13972D02*
X3195D01*
X4199D02*
X5785D01*
X17035D02*
X22220D01*
X22730D02*
X23945D01*
X285Y14020D02*
X2949D01*
X3031D02*
X3243D01*
X4151D02*
X5785D01*
X17035D02*
X22222D01*
X22728D02*
X23945D01*
X285Y14068D02*
X2901D01*
X3079D02*
X3291D01*
X4103D02*
X5785D01*
X17035D02*
X22234D01*
X22716D02*
X23945D01*
X285Y14116D02*
X2853D01*
X3127D02*
X3339D01*
X4055D02*
X5785D01*
X17035D02*
X22256D01*
X22694D02*
X23945D01*
X285Y14164D02*
X2805D01*
X3175D02*
X3387D01*
X4007D02*
X5785D01*
X17035D02*
X22293D01*
X22657D02*
X23945D01*
X285Y14212D02*
X2757D01*
X3223D02*
X3435D01*
X3959D02*
X5785D01*
X17035D02*
X22359D01*
X22591D02*
X23945D01*
X285Y14260D02*
X2709D01*
X3271D02*
X3483D01*
X3911D02*
X5785D01*
X17035D02*
X23945D01*
X285Y14308D02*
X2661D01*
X3319D02*
X3531D01*
X3863D02*
X5785D01*
X17035D02*
X23945D01*
X285Y14356D02*
X2613D01*
X3367D02*
X3579D01*
X3815D02*
X5785D01*
X17035D02*
X23945D01*
X285Y14404D02*
X2565D01*
X3415D02*
X3627D01*
X3767D02*
X5785D01*
X17035D02*
X23945D01*
X285Y14452D02*
X2517D01*
X3463D02*
X3676D01*
X3719D02*
X5785D01*
X17035D02*
X23945D01*
X285Y14500D02*
X2469D01*
X3511D02*
X5785D01*
X17035D02*
X23945D01*
X285Y14548D02*
X2421D01*
X3559D02*
X5785D01*
X17035D02*
X23945D01*
X285Y14596D02*
X2405D01*
X3575D02*
X5785D01*
X17035D02*
X21036D01*
X21214D02*
X23945D01*
X285Y14644D02*
X2453D01*
X3527D02*
X5785D01*
X17035D02*
X20956D01*
X21294D02*
X23945D01*
X285Y14692D02*
X2501D01*
X3479D02*
X5785D01*
X17035D02*
X20914D01*
X21336D02*
X23945D01*
X285Y14740D02*
X2549D01*
X3431D02*
X5785D01*
X17035D02*
X20888D01*
X21362D02*
X23945D01*
X285Y14788D02*
X2597D01*
X3383D02*
X5785D01*
X17035D02*
X20874D01*
X21376D02*
X23945D01*
X285Y14836D02*
X2646D01*
X3335D02*
X5785D01*
X17035D02*
X20870D01*
X21380D02*
X23945D01*
X285Y14884D02*
X2694D01*
X3287D02*
X5785D01*
X17035D02*
X20875D01*
X21375D02*
X23945D01*
X285Y14932D02*
X2742D01*
X3239D02*
X5785D01*
X17035D02*
X20889D01*
X21361D02*
X23945D01*
X285Y14980D02*
X2790D01*
X3191D02*
X5785D01*
X17035D02*
X20916D01*
X21334D02*
X23945D01*
X285Y15028D02*
X2838D01*
X3143D02*
X5785D01*
X17035D02*
X20959D01*
X21291D02*
X23945D01*
X285Y15076D02*
X1114D01*
X1536D02*
X2886D01*
X3095D02*
X5785D01*
X17035D02*
X21043D01*
X21207D02*
X22744D01*
X23166D02*
X23945D01*
X285Y15124D02*
X949D01*
X1701D02*
X2934D01*
X3047D02*
X5785D01*
X17035D02*
X22579D01*
X23331D02*
X23945D01*
X285Y15173D02*
X842D01*
X1808D02*
X2982D01*
X2999D02*
X5785D01*
X17035D02*
X22472D01*
X23438D02*
X23945D01*
X285Y15221D02*
X759D01*
X1891D02*
X5785D01*
X17035D02*
X22389D01*
X23521D02*
X23945D01*
X285Y15269D02*
X690D01*
X1960D02*
X5785D01*
X17035D02*
X22320D01*
X23590D02*
X23945D01*
X285Y15317D02*
X631D01*
X2019D02*
X5785D01*
X17035D02*
X22261D01*
X23649D02*
X23945D01*
X285Y15365D02*
X580D01*
X2070D02*
X5785D01*
X17035D02*
X22210D01*
X23700D02*
X23945D01*
X285Y15413D02*
X536D01*
X2114D02*
X5785D01*
X17035D02*
X22166D01*
X23744D02*
X23945D01*
X285Y15461D02*
X496D01*
X2154D02*
X5785D01*
X17035D02*
X19334D01*
X19536D02*
X22126D01*
X23784D02*
X23945D01*
X285Y15509D02*
X461D01*
X2189D02*
X5785D01*
X17035D02*
X19261D01*
X19609D02*
X22091D01*
X23819D02*
X23945D01*
X285Y15557D02*
X429D01*
X2221D02*
X5785D01*
X17035D02*
X19221D01*
X19649D02*
X22059D01*
X23851D02*
X23945D01*
X285Y15605D02*
X402D01*
X2248D02*
X5785D01*
X17035D02*
X19196D01*
X19674D02*
X22032D01*
X23878D02*
X23945D01*
X285Y15653D02*
X377D01*
X2273D02*
X5785D01*
X17035D02*
X19184D01*
X19686D02*
X22007D01*
X23903D02*
X23945D01*
X285Y15701D02*
X356D01*
X2294D02*
X5785D01*
X17035D02*
X19180D01*
X19690D02*
X21986D01*
X23924D02*
X23945D01*
X285Y15749D02*
X337D01*
X2313D02*
X5785D01*
X17035D02*
X19186D01*
X19684D02*
X21967D01*
X23943D02*
X23945D01*
X285Y15797D02*
X321D01*
X2329D02*
X5785D01*
X17035D02*
X19201D01*
X19669D02*
X21951D01*
X285Y15845D02*
X308D01*
X2342D02*
X5785D01*
X17035D02*
X19229D01*
X19641D02*
X21938D01*
X285Y15893D02*
X297D01*
X2353D02*
X5785D01*
X17035D02*
X19274D01*
X19596D02*
X21927D01*
X285Y15941D02*
X288D01*
X2362D02*
X5785D01*
X17035D02*
X19368D01*
X19502D02*
X21918D01*
X2369Y15989D02*
X5785D01*
X17035D02*
X21911D01*
X2373Y16037D02*
X4103D01*
X4287D02*
X5785D01*
X17035D02*
X21907D01*
X2375Y16085D02*
X4025D01*
X4365D02*
X5785D01*
X17035D02*
X21905D01*
X2375Y16133D02*
X3983D01*
X4407D02*
X5747D01*
X17035D02*
X21905D01*
X2372Y16181D02*
X3958D01*
X4432D02*
X5699D01*
X17051D02*
X21908D01*
X2368Y16229D02*
X3944D01*
X4446D02*
X5651D01*
X17099D02*
X21912D01*
X285Y16277D02*
X289D01*
X2361D02*
X3940D01*
X4450D02*
X5603D01*
X17147D02*
X21919D01*
X285Y16325D02*
X298D01*
X2352D02*
X3945D01*
X4445D02*
X5555D01*
X17195D02*
X21928D01*
X285Y16373D02*
X310D01*
X2340D02*
X3960D01*
X4430D02*
X5507D01*
X17243D02*
X21940D01*
X285Y16421D02*
X324D01*
X2326D02*
X3986D01*
X4404D02*
X5459D01*
X17291D02*
X21954D01*
X285Y16469D02*
X340D01*
X2310D02*
X4030D01*
X4360D02*
X5411D01*
X17339D02*
X21970D01*
X23940D02*
X23945D01*
X285Y16517D02*
X359D01*
X2291D02*
X4116D01*
X4274D02*
X5363D01*
X17387D02*
X21989D01*
X23921D02*
X23945D01*
X285Y16565D02*
X381D01*
X2269D02*
X5315D01*
X17435D02*
X22011D01*
X23899D02*
X23945D01*
X285Y16613D02*
X406D01*
X2244D02*
X5267D01*
X17483D02*
X22036D01*
X23874D02*
X23945D01*
X285Y16661D02*
X435D01*
X2215D02*
X5219D01*
X17531D02*
X22065D01*
X23845D02*
X23945D01*
X285Y16710D02*
X466D01*
X2184D02*
X5170D01*
X17580D02*
X22096D01*
X23814D02*
X23945D01*
X285Y16758D02*
X502D01*
X2148D02*
X5122D01*
X17628D02*
X22132D01*
X23778D02*
X23945D01*
X285Y16806D02*
X543D01*
X2107D02*
X5074D01*
X17676D02*
X22173D01*
X23737D02*
X23945D01*
X285Y16854D02*
X589D01*
X2061D02*
X5026D01*
X17724D02*
X22219D01*
X23691D02*
X23945D01*
X285Y16902D02*
X641D01*
X2009D02*
X4978D01*
X17772D02*
X22271D01*
X23639D02*
X23945D01*
X285Y16950D02*
X701D01*
X1949D02*
X4930D01*
X17820D02*
X22331D01*
X23579D02*
X23945D01*
X285Y16998D02*
X772D01*
X1878D02*
X4882D01*
X17868D02*
X22402D01*
X23508D02*
X23945D01*
X319Y17046D02*
X859D01*
X1791D02*
X4834D01*
X17916D02*
X22489D01*
X23421D02*
X23921D01*
X367Y17094D02*
X972D01*
X1678D02*
X4786D01*
X17964D02*
X22602D01*
X23308D02*
X23873D01*
X415Y17142D02*
X1159D01*
X1491D02*
X4738D01*
X18012D02*
X22789D01*
X23121D02*
X23825D01*
X463Y17190D02*
X4690D01*
X18060D02*
X23777D01*
X511Y17238D02*
X4642D01*
X18108D02*
X23729D01*
X559Y17286D02*
X4594D01*
X18156D02*
X23681D01*
X607Y17334D02*
X4546D01*
X18204D02*
X23633D01*
X656Y17382D02*
X4498D01*
X18252D02*
X23584D01*
X704Y17430D02*
X4450D01*
X18300D02*
X23536D01*
X752Y17478D02*
X4402D01*
X18348D02*
X23488D01*
X800Y17526D02*
X4354D01*
X18396D02*
X23440D01*
X848Y17574D02*
X4306D01*
X18444D02*
X23392D01*
X896Y17622D02*
X4258D01*
X18492D02*
X23344D01*
X944Y17670D02*
X4210D01*
X18540D02*
X23296D01*
X992Y17718D02*
X4162D01*
X18588D02*
X23248D01*
X1040Y17766D02*
X4114D01*
X18636D02*
X23200D01*
X1088Y17814D02*
X4066D01*
X18684D02*
X23152D01*
X1136Y17862D02*
X4018D01*
X18732D02*
X23104D01*
X1184Y17910D02*
X3970D01*
X18780D02*
X23056D01*
X1232Y17958D02*
X3922D01*
X18828D02*
X23008D01*
X1280Y18006D02*
X3874D01*
X18876D02*
X22960D01*
X1328Y18054D02*
X3826D01*
X18924D02*
X22912D01*
X1376Y18102D02*
X3778D01*
X18972D02*
X22864D01*
X1424Y18150D02*
X3730D01*
X19020D02*
X22816D01*
X1472Y18199D02*
X3681D01*
X19069D02*
X22768D01*
X1520Y18247D02*
X3633D01*
X19117D02*
X22720D01*
X1568Y18295D02*
X3585D01*
X19165D02*
X22672D01*
X1616Y18343D02*
X3537D01*
X19213D02*
X22624D01*
X1664Y18391D02*
X3489D01*
X19261D02*
X22576D01*
X1712Y18439D02*
X3441D01*
X19309D02*
X22528D01*
X1760Y18487D02*
X3393D01*
X19357D02*
X22480D01*
X1808Y18535D02*
X3345D01*
X19405D02*
X22432D01*
X1856Y18583D02*
X3297D01*
X19453D02*
X22384D01*
X1904Y18631D02*
X3249D01*
X19501D02*
X22336D01*
X1952Y18679D02*
X3201D01*
X19549D02*
X22288D01*
X2000Y18727D02*
X3153D01*
X19597D02*
X22240D01*
X2048Y18775D02*
X3105D01*
X19645D02*
X22192D01*
X2096Y18823D02*
X3057D01*
X19693D02*
X22144D01*
X2144Y18871D02*
X3009D01*
X19741D02*
X22096D01*
X2193Y18919D02*
X2961D01*
X19789D02*
X22047D01*
X2241Y18967D02*
X2913D01*
X19837D02*
X21999D01*
X2289Y19015D02*
X2865D01*
X19885D02*
X21951D01*
X2337Y19063D02*
X2817D01*
X19933D02*
X21903D01*
X2385Y19111D02*
X2769D01*
X19981D02*
X21855D01*
X2433Y19159D02*
X2721D01*
X20029D02*
X21807D01*
X2481Y19207D02*
X2673D01*
X20077D02*
X21759D01*
X2529Y19255D02*
X2625D01*
X20125D02*
X21711D01*
X20173Y19303D02*
X21663D01*
X20221Y19351D02*
X21615D01*
X20269Y19399D02*
X21567D01*
X20317Y19447D02*
X21519D01*
X20365Y19495D02*
X21471D01*
X20413Y19543D02*
X21423D01*
X20461Y19591D02*
X21375D01*
X20509Y19639D02*
X21327D01*
X20557Y19687D02*
X21279D01*
X20606Y19736D02*
X21231D01*
X20654Y19784D02*
X21183D01*
X20702Y19832D02*
X21135D01*
X20750Y19880D02*
X21087D01*
X20798Y19928D02*
X21039D01*
X20846Y19976D02*
X20991D01*
X20894Y20024D02*
X20943D01*
X2677Y19403D02*
X5925Y16155D01*
Y13355*
X7385Y11895*
X9815*
Y12335*
X13915*
Y13915*
X13913Y13953*
X13909Y13991*
X13901Y14028*
X13890Y14064*
X13876Y14100*
X13860Y14134*
X13840Y14167*
X13818Y14198*
X13794Y14227*
X13767Y14253*
X13738Y14278*
X13707Y14300*
X13674Y14320*
X13640Y14336*
X13604Y14350*
X13568Y14361*
X13531Y14369*
X13493Y14373*
X13455Y14375*
X10135*
X10089Y14376*
X10044Y14381*
X9998Y14388*
X9954Y14399*
X9910Y14412*
X9867Y14428*
X9825Y14447*
X9785Y14469*
X9746Y14493*
X9709Y14520*
X9673Y14549*
X9640Y14580*
X9609Y14613*
X9580Y14649*
X9553Y14686*
X9529Y14725*
X9507Y14765*
X9488Y14807*
X9472Y14850*
X9459Y14894*
X9448Y14938*
X9441Y14984*
X9436Y15029*
X9435Y15075*
Y16345*
X7615*
X6495Y17465*
Y20320*
X5780*
Y21170*
X6495*
Y21320*
X5780*
Y22125*
X5399*
X2677Y19403*
X10350Y12785D02*
X10349Y12757D01*
X10344Y12730*
X10337Y12704*
X10326Y12678*
X10314Y12654*
X10298Y12631*
X10280Y12610*
X10260Y12591*
X10238Y12574*
X10214Y12560*
X10189Y12548*
X10163Y12539*
X10136Y12533*
X10109Y12530*
X10081*
X10054Y12533*
X10027Y12539*
X10001Y12548*
X9976Y12560*
X9952Y12574*
X9930Y12591*
X9910Y12610*
X9892Y12631*
X9877Y12653*
X9864Y12678*
X9853Y12703*
X9846Y12730*
X9842Y12757*
X9840Y12785*
X9841Y12813*
X9846Y12840*
X9853Y12866*
X9864Y12892*
X9876Y12916*
X9892Y12939*
X9910Y12960*
X9930Y12979*
X9952Y12996*
X9976Y13010*
X10001Y13022*
X10027Y13031*
X10054Y13037*
X10081Y13040*
X10109*
X10136Y13037*
X10163Y13031*
X10189Y13022*
X10214Y13010*
X10238Y12996*
X10260Y12979*
X10280Y12960*
X10298Y12939*
X10313Y12917*
X10326Y12892*
X10337Y12867*
X10344Y12840*
X10348Y12813*
X10350Y12785*
X12730Y13775D02*
X12729Y13747D01*
X12724Y13720*
X12717Y13694*
X12706Y13668*
X12694Y13644*
X12678Y13621*
X12660Y13600*
X12640Y13581*
X12618Y13564*
X12594Y13550*
X12569Y13538*
X12543Y13529*
X12516Y13523*
X12489Y13520*
X12461*
X12434Y13523*
X12407Y13529*
X12381Y13538*
X12356Y13550*
X12332Y13564*
X12310Y13581*
X12290Y13600*
X12272Y13621*
X12257Y13643*
X12244Y13668*
X12233Y13693*
X12226Y13720*
X12222Y13747*
X12220Y13775*
X12221Y13803*
X12226Y13830*
X12233Y13856*
X12244Y13882*
X12256Y13906*
X12272Y13929*
X12290Y13950*
X12310Y13969*
X12332Y13986*
X12356Y14000*
X12381Y14012*
X12407Y14021*
X12434Y14027*
X12461Y14030*
X12489*
X12516Y14027*
X12543Y14021*
X12569Y14012*
X12594Y14000*
X12618Y13986*
X12640Y13969*
X12660Y13950*
X12678Y13929*
X12693Y13907*
X12706Y13882*
X12717Y13857*
X12724Y13830*
X12728Y13803*
X12730Y13775*
X7370Y11910D02*
X9815D01*
X7322Y11958D02*
X9815D01*
X7274Y12006D02*
X9815D01*
X7226Y12054D02*
X9815D01*
X7178Y12102D02*
X9815D01*
X7130Y12150D02*
X9815D01*
X7081Y12199D02*
X9815D01*
X7033Y12247D02*
X9815D01*
X6985Y12295D02*
X9815D01*
X6937Y12343D02*
X13915D01*
X6889Y12391D02*
X13915D01*
X6841Y12439D02*
X13915D01*
X6793Y12487D02*
X13915D01*
X6745Y12535D02*
X10046D01*
X10144D02*
X13915D01*
X6697Y12583D02*
X9940D01*
X10250D02*
X13915D01*
X6649Y12631D02*
X9892D01*
X10298D02*
X13915D01*
X6601Y12679D02*
X9863D01*
X10327D02*
X13915D01*
X6553Y12727D02*
X9847D01*
X10343D02*
X13915D01*
X6505Y12775D02*
X9840D01*
X10350D02*
X13915D01*
X6457Y12823D02*
X9843D01*
X10347D02*
X13915D01*
X6409Y12871D02*
X9855D01*
X10335D02*
X13915D01*
X6361Y12919D02*
X9878D01*
X10312D02*
X13915D01*
X6313Y12967D02*
X9916D01*
X10274D02*
X13915D01*
X6265Y13015D02*
X9985D01*
X10205D02*
X13915D01*
X6217Y13063D02*
X13915D01*
X6169Y13111D02*
X13915D01*
X6121Y13159D02*
X13915D01*
X6073Y13207D02*
X13915D01*
X6025Y13255D02*
X13915D01*
X5977Y13303D02*
X13915D01*
X5929Y13351D02*
X13915D01*
X5925Y13399D02*
X13915D01*
X5925Y13447D02*
X13915D01*
X5925Y13495D02*
X13915D01*
X5925Y13543D02*
X12368D01*
X12582D02*
X13915D01*
X5925Y13591D02*
X12298D01*
X12652D02*
X13915D01*
X5925Y13639D02*
X12259D01*
X12691D02*
X13915D01*
X5925Y13687D02*
X12235D01*
X12715D02*
X13915D01*
X5925Y13736D02*
X12223D01*
X12727D02*
X13915D01*
X5925Y13784D02*
X12220D01*
X12730D02*
X13915D01*
X5925Y13832D02*
X12226D01*
X12724D02*
X13915D01*
X5925Y13880D02*
X12242D01*
X12708D02*
X13915D01*
X5925Y13928D02*
X12271D01*
X12679D02*
X13915D01*
X5925Y13976D02*
X12318D01*
X12632D02*
X13911D01*
X5925Y14024D02*
X12419D01*
X12531D02*
X13902D01*
X5925Y14072D02*
X13887D01*
X5925Y14120D02*
X13867D01*
X5925Y14168D02*
X13839D01*
X5925Y14216D02*
X13803D01*
X5925Y14264D02*
X13755D01*
X5925Y14312D02*
X13688D01*
X5925Y14360D02*
X13572D01*
X5925Y14408D02*
X9923D01*
X5925Y14456D02*
X9808D01*
X5925Y14504D02*
X9730D01*
X5925Y14552D02*
X9670D01*
X5925Y14600D02*
X9621D01*
X5925Y14648D02*
X9580D01*
X5925Y14696D02*
X9546D01*
X5925Y14744D02*
X9518D01*
X5925Y14792D02*
X9495D01*
X5925Y14840D02*
X9476D01*
X5925Y14888D02*
X9460D01*
X5925Y14936D02*
X9449D01*
X5925Y14984D02*
X9441D01*
X5925Y15032D02*
X9436D01*
X5925Y15080D02*
X9435D01*
X5925Y15128D02*
X9435D01*
X5925Y15176D02*
X9435D01*
X5925Y15224D02*
X9435D01*
X5925Y15273D02*
X9435D01*
X5925Y15321D02*
X9435D01*
X5925Y15369D02*
X9435D01*
X5925Y15417D02*
X9435D01*
X5925Y15465D02*
X9435D01*
X5925Y15513D02*
X9435D01*
X5925Y15561D02*
X9435D01*
X5925Y15609D02*
X9435D01*
X5925Y15657D02*
X9435D01*
X5925Y15705D02*
X9435D01*
X5925Y15753D02*
X9435D01*
X5925Y15801D02*
X9435D01*
X5925Y15849D02*
X9435D01*
X5925Y15897D02*
X9435D01*
X5925Y15945D02*
X9435D01*
X5925Y15993D02*
X9435D01*
X5925Y16041D02*
X9435D01*
X5925Y16089D02*
X9435D01*
X5925Y16137D02*
X9435D01*
X5895Y16185D02*
X9435D01*
X5847Y16233D02*
X9435D01*
X5799Y16281D02*
X9435D01*
X5751Y16329D02*
X9435D01*
X5703Y16377D02*
X7583D01*
X5655Y16425D02*
X7535D01*
X5607Y16473D02*
X7487D01*
X5559Y16521D02*
X7439D01*
X5511Y16569D02*
X7391D01*
X5463Y16617D02*
X7343D01*
X5415Y16665D02*
X7295D01*
X5367Y16713D02*
X7247D01*
X5319Y16761D02*
X7199D01*
X5270Y16810D02*
X7150D01*
X5222Y16858D02*
X7102D01*
X5174Y16906D02*
X7054D01*
X5126Y16954D02*
X7006D01*
X5078Y17002D02*
X6958D01*
X5030Y17050D02*
X6910D01*
X4982Y17098D02*
X6862D01*
X4934Y17146D02*
X6814D01*
X4886Y17194D02*
X6766D01*
X4838Y17242D02*
X6718D01*
X4790Y17290D02*
X6670D01*
X4742Y17338D02*
X6622D01*
X4694Y17386D02*
X6574D01*
X4646Y17434D02*
X6526D01*
X4598Y17482D02*
X6495D01*
X4550Y17530D02*
X6495D01*
X4502Y17578D02*
X6495D01*
X4454Y17626D02*
X6495D01*
X4406Y17674D02*
X6495D01*
X4358Y17722D02*
X6495D01*
X4310Y17770D02*
X6495D01*
X4262Y17818D02*
X6495D01*
X4214Y17866D02*
X6495D01*
X4166Y17914D02*
X6495D01*
X4118Y17962D02*
X6495D01*
X4070Y18010D02*
X6495D01*
X4022Y18058D02*
X6495D01*
X3974Y18106D02*
X6495D01*
X3926Y18154D02*
X6495D01*
X3878Y18202D02*
X6495D01*
X3830Y18250D02*
X6495D01*
X3781Y18299D02*
X6495D01*
X3733Y18347D02*
X6495D01*
X3685Y18395D02*
X6495D01*
X3637Y18443D02*
X6495D01*
X3589Y18491D02*
X6495D01*
X3541Y18539D02*
X6495D01*
X3493Y18587D02*
X6495D01*
X3445Y18635D02*
X6495D01*
X3397Y18683D02*
X6495D01*
X3349Y18731D02*
X6495D01*
X3301Y18779D02*
X6495D01*
X3253Y18827D02*
X6495D01*
X3205Y18875D02*
X6495D01*
X3157Y18923D02*
X6495D01*
X3109Y18971D02*
X6495D01*
X3061Y19019D02*
X6495D01*
X3013Y19067D02*
X6495D01*
X2965Y19115D02*
X6495D01*
X2917Y19163D02*
X6495D01*
X2869Y19211D02*
X6495D01*
X2821Y19259D02*
X6495D01*
X2773Y19307D02*
X6495D01*
X2725Y19355D02*
X6495D01*
X2677Y19403D02*
X6495D01*
X2725Y19451D02*
X6495D01*
X2773Y19499D02*
X6495D01*
X2821Y19547D02*
X6495D01*
X2869Y19595D02*
X6495D01*
X2917Y19643D02*
X6495D01*
X2965Y19691D02*
X6495D01*
X3013Y19739D02*
X6495D01*
X3061Y19787D02*
X6495D01*
X3109Y19836D02*
X6495D01*
X3157Y19884D02*
X6495D01*
X3205Y19932D02*
X6495D01*
X3253Y19980D02*
X6495D01*
X3301Y20028D02*
X6495D01*
X3349Y20076D02*
X6495D01*
X3397Y20124D02*
X6495D01*
X3445Y20172D02*
X6495D01*
X3493Y20220D02*
X6495D01*
X3541Y20268D02*
X6495D01*
X3589Y20316D02*
X6495D01*
X3637Y20364D02*
X5780D01*
X3685Y20412D02*
X5780D01*
X3733Y20460D02*
X5780D01*
X3781Y20508D02*
X5780D01*
X3830Y20556D02*
X5780D01*
X3878Y20604D02*
X5780D01*
X3926Y20652D02*
X5780D01*
X3974Y20700D02*
X5780D01*
X4022Y20748D02*
X5780D01*
X4070Y20796D02*
X5780D01*
X4118Y20844D02*
X5780D01*
X4166Y20892D02*
X5780D01*
X4214Y20940D02*
X5780D01*
X4262Y20988D02*
X5780D01*
X4310Y21036D02*
X5780D01*
X4358Y21084D02*
X5780D01*
X4406Y21132D02*
X5780D01*
X4454Y21180D02*
X6495D01*
X4502Y21228D02*
X6495D01*
X4550Y21276D02*
X6495D01*
X4598Y21324D02*
X5780D01*
X4646Y21373D02*
X5780D01*
X4694Y21421D02*
X5780D01*
X4742Y21469D02*
X5780D01*
X4790Y21517D02*
X5780D01*
X4838Y21565D02*
X5780D01*
X4886Y21613D02*
X5780D01*
X4934Y21661D02*
X5780D01*
X4982Y21709D02*
X5780D01*
X5030Y21757D02*
X5780D01*
X5078Y21805D02*
X5780D01*
X5126Y21853D02*
X5780D01*
X5174Y21901D02*
X5780D01*
X5222Y21949D02*
X5780D01*
X5270Y21997D02*
X5780D01*
X5319Y22045D02*
X5780D01*
X5367Y22093D02*
X5780D01*
X5529Y22255D02*
X6755D01*
Y17475*
X7725Y16505*
X15875*
X17745Y18375*
Y18525*
X17735Y22205*
X18761*
X17021Y23945*
X7219*
X5529Y22255*
X7541Y17671D02*
X7544Y17699D01*
X7550Y17726*
X7559Y17752*
X7571Y17778*
X7586Y17801*
X7603Y17823*
X7623Y17843*
X7645Y17861*
X7668Y17876*
X7693Y17889*
X7719Y17898*
X7746Y17905*
X7774Y17909*
X7802Y17910*
X7830Y17908*
X7857Y17902*
X7884Y17894*
X7909Y17883*
X7934Y17869*
X7956Y17853*
X7977Y17834*
X7995Y17813*
X8011Y17790*
X8025Y17765*
X8036Y17740*
X8043Y17713*
X8048Y17685*
X8050Y17657*
X8072Y17672*
X8094Y17685*
X8119Y17695*
X8144Y17703*
X8169Y17708*
X8195Y17710*
X8221Y17710*
X8247Y17707*
X8273Y17701*
X8298Y17693*
X8321Y17682*
X8326Y17709*
X8333Y17736*
X8343Y17762*
X8356Y17786*
X8372Y17809*
X8389Y17830*
X8410Y17849*
X8431Y17866*
X8455Y17880*
X8480Y17892*
X8506Y17901*
X8533Y17907*
X8561Y17910*
X8589Y17910*
X8616Y17907*
X8643Y17901*
X8669Y17892*
X8694Y17880*
X8718Y17866*
X8740Y17849*
X8760Y17830*
X8778Y17809*
X8794Y17787*
X8806Y17762*
X8817Y17736*
X8824Y17710*
X8829Y17683*
X8830Y17655*
X8829Y17628*
X8824Y17601*
X8817Y17574*
X8807Y17549*
X8794Y17524*
X8779Y17501*
X8761Y17481*
X8741Y17462*
X8719Y17445*
X8696Y17431*
X8671Y17419*
X8645Y17410*
X8619Y17404*
X8591Y17400*
X8564Y17400*
X8537Y17403*
X8510Y17408*
X8484Y17417*
X8459Y17428*
X8454Y17401*
X8447Y17374*
X8437Y17349*
X8424Y17324*
X8409Y17301*
X8391Y17280*
X8371Y17261*
X8349Y17245*
X8326Y17230*
X8301Y17219*
X8275Y17210*
X8248Y17204*
X8220Y17200*
X8193Y17200*
X8165Y17203*
X8138Y17209*
X8112Y17217*
X8087Y17229*
X8063Y17243*
X8041Y17259*
X8021Y17278*
X8003Y17299*
X7988Y17322*
X7974Y17346*
X7964Y17371*
X7956Y17398*
X7952Y17425*
X7950Y17453*
X7927Y17437*
X7902Y17424*
X7876Y17413*
X7849Y17406*
X7821Y17401*
X7793Y17400*
X7765Y17402*
X7737Y17407*
X7710Y17415*
X7684Y17425*
X7659Y17439*
X7656Y17411*
X7650Y17384*
X7641Y17357*
X7628Y17332*
X7614Y17308*
X7596Y17286*
X7577Y17266*
X7555Y17249*
X7531Y17234*
X7506Y17221*
X7480Y17211*
X7453Y17205*
X7425Y17201*
X7397Y17200*
X7369Y17203*
X7342Y17208*
X7315Y17216*
X7289Y17228*
X7265Y17242*
X7243Y17258*
X7222Y17277*
X7204Y17299*
X7188Y17322*
X7174Y17346*
X7164Y17372*
X7156Y17399*
X7152Y17427*
X7150Y17455*
X7151Y17482*
X7156Y17509*
X7163Y17535*
X7173Y17560*
X7185Y17584*
X7200Y17607*
X7218Y17628*
X7237Y17647*
X7259Y17664*
X7282Y17678*
X7306Y17690*
X7332Y17699*
X7358Y17706*
X7385Y17709*
X7412Y17710*
X7439Y17708*
X7466Y17703*
X7492Y17695*
X7517Y17684*
X7541Y17671*
X7630Y21170D02*
Y20320D01*
X6780*
Y21170*
X7630*
Y22170D02*
Y21320D01*
X6780*
Y22170*
X7630*
X8630Y21170D02*
Y20320D01*
X7780*
Y21170*
X8630*
Y22170D02*
Y21320D01*
X7780*
Y22170*
X8630*
X9460Y17640D02*
X9460Y17655D01*
X9461Y17683*
X9466Y17710*
X9473Y17736*
X9484Y17762*
X9496Y17786*
X9512Y17809*
X9530Y17830*
X9550Y17849*
X9572Y17866*
X9596Y17880*
X9621Y17892*
X9647Y17901*
X9674Y17907*
X9701Y17910*
X9729*
X9756Y17907*
X9783Y17901*
X9809Y17892*
X9834Y17880*
X9858Y17866*
X9880Y17849*
X9900Y17830*
X9918Y17809*
X9933Y17787*
X9946Y17762*
X9957Y17737*
X9964Y17710*
X9968Y17683*
X9970Y17655*
X9968Y17627*
X9964Y17599*
X9956Y17572*
X9945Y17546*
X9932Y17521*
X9916Y17498*
X9897Y17476*
X9876Y17457*
X9853Y17441*
X9829Y17427*
X9803Y17416*
X9776Y17407*
X9748Y17402*
X9720Y17400*
X9691Y17401*
X9663Y17405*
X9636Y17413*
X9610Y17423*
X9585Y17436*
X9561Y17452*
X9540Y17470*
X9540Y17455*
X9539Y17427*
X9534Y17400*
X9527Y17374*
X9516Y17348*
X9504Y17324*
X9488Y17301*
X9470Y17280*
X9450Y17261*
X9428Y17244*
X9404Y17230*
X9379Y17218*
X9353Y17209*
X9326Y17203*
X9299Y17200*
X9271*
X9244Y17203*
X9217Y17209*
X9191Y17218*
X9166Y17230*
X9142Y17244*
X9120Y17261*
X9100Y17280*
X9082Y17301*
X9067Y17323*
X9054Y17348*
X9043Y17373*
X9036Y17400*
X9032Y17427*
X9030Y17455*
X9032Y17483*
X9036Y17511*
X9044Y17538*
X9055Y17564*
X9068Y17589*
X9084Y17612*
X9103Y17634*
X9124Y17653*
X9147Y17669*
X9171Y17683*
X9197Y17694*
X9224Y17703*
X9252Y17708*
X9280Y17710*
X9309Y17709*
X9337Y17705*
X9364Y17697*
X9390Y17687*
X9415Y17674*
X9439Y17658*
X9460Y17640*
X9630Y21170D02*
Y20320D01*
X8780*
Y21170*
X9630*
Y22170D02*
Y21320D01*
X8780*
Y22170*
X9630*
X10540Y17655D02*
X10539Y17627D01*
X10534Y17600*
X10527Y17574*
X10516Y17548*
X10504Y17524*
X10488Y17501*
X10470Y17480*
X10450Y17461*
X10428Y17444*
X10404Y17430*
X10379Y17418*
X10353Y17409*
X10326Y17403*
X10299Y17400*
X10271*
X10244Y17403*
X10217Y17409*
X10191Y17418*
X10166Y17430*
X10142Y17444*
X10120Y17461*
X10100Y17480*
X10082Y17501*
X10067Y17523*
X10054Y17548*
X10043Y17573*
X10036Y17600*
X10032Y17627*
X10030Y17655*
X10031Y17683*
X10036Y17710*
X10043Y17736*
X10054Y17762*
X10066Y17786*
X10082Y17809*
X10100Y17830*
X10120Y17849*
X10142Y17866*
X10166Y17880*
X10191Y17892*
X10217Y17901*
X10244Y17907*
X10271Y17910*
X10299*
X10326Y17907*
X10353Y17901*
X10379Y17892*
X10404Y17880*
X10428Y17866*
X10450Y17849*
X10470Y17830*
X10488Y17809*
X10503Y17787*
X10516Y17762*
X10527Y17737*
X10534Y17710*
X10538Y17683*
X10540Y17655*
X10630Y21170D02*
Y20320D01*
X9780*
Y21170*
X10630*
Y22170D02*
Y21320D01*
X9780*
Y22170*
X10630*
X11055Y17507D02*
X11037Y17487D01*
X11017Y17468*
X10995Y17452*
X10971Y17438*
X10946Y17427*
X10920Y17419*
X10893Y17413*
X10866Y17410*
X10839Y17411*
X10811Y17414*
X10785Y17420*
X10759Y17429*
X10734Y17441*
X10711Y17455*
X10689Y17472*
X10669Y17491*
X10651Y17512*
X10636Y17534*
X10623Y17559*
X10613Y17584*
X10606Y17610*
X10602Y17638*
X10600Y17665*
X10601Y17693*
X10606Y17720*
X10613Y17746*
X10624Y17772*
X10636Y17796*
X10652Y17819*
X10670Y17840*
X10690Y17859*
X10712Y17876*
X10736Y17890*
X10761Y17902*
X10787Y17911*
X10814Y17917*
X10841Y17920*
X10869*
X10896Y17917*
X10923Y17911*
X10949Y17902*
X10974Y17890*
X10998Y17876*
X11020Y17859*
X11040Y17840*
X11058Y17819*
X11073Y17797*
X11086Y17772*
X11097Y17747*
X11104Y17720*
X11108Y17693*
X11110Y17665*
X11109Y17639*
X11105Y17613*
X11123Y17633*
X11143Y17652*
X11165Y17668*
X11189Y17682*
X11214Y17693*
X11240Y17702*
X11267Y17707*
X11295Y17710*
X11322Y17709*
X11350Y17706*
X11376Y17700*
X11403Y17691*
X11408Y17718*
X11416Y17745*
X11428Y17771*
X11442Y17795*
X11458Y17817*
X11477Y17838*
X11499Y17856*
X11522Y17872*
X11546Y17886*
X11572Y17896*
X11599Y17904*
X11627Y17908*
X11655Y17910*
X11683Y17908*
X11711Y17904*
X11738Y17896*
X11764Y17886*
X11788Y17872*
X11811Y17856*
X11833Y17838*
X11852Y17817*
X11868Y17795*
X11882Y17771*
X11894Y17745*
X11902Y17718*
X11907Y17691*
X11931Y17699*
X11955Y17705*
X11980Y17709*
X12005Y17710*
X12030Y17709*
X12055Y17705*
X12079Y17699*
X12103Y17691*
X12108Y17718*
X12116Y17744*
X12127Y17769*
X12141Y17793*
X12157Y17816*
X12176Y17836*
X12196Y17855*
X12219Y17871*
X12243Y17884*
X12268Y17895*
X12295Y17903*
X12322Y17908*
X12350Y17910*
X12377Y17909*
X12405Y17905*
X12431Y17898*
X12457Y17889*
X12482Y17876*
X12505Y17861*
X12527Y17844*
X12546Y17824*
X12563Y17802*
X12578Y17779*
X12590Y17754*
X12602Y17779*
X12617Y17803*
X12635Y17825*
X12654Y17844*
X12676Y17862*
X12700Y17877*
X12725Y17889*
X12751Y17899*
X12778Y17906*
X12806Y17909*
X12834Y17910*
X12862Y17907*
X12889Y17902*
X12916Y17893*
X12941Y17882*
X12965Y17868*
X12988Y17851*
X13008Y17832*
X13027Y17811*
X13043Y17788*
X13056Y17763*
X13066Y17737*
X13074Y17711*
X13078Y17683*
X13080Y17655*
X13078Y17627*
X13074Y17599*
X13066Y17573*
X13056Y17547*
X13043Y17522*
X13027Y17499*
X13008Y17478*
X12988Y17459*
X12965Y17442*
X12941Y17428*
X12916Y17417*
X12889Y17408*
X12862Y17403*
X12834Y17400*
X12806Y17401*
X12778Y17404*
X12751Y17411*
X12725Y17420*
X12700Y17433*
X12676Y17448*
X12654Y17466*
X12634Y17485*
X12617Y17507*
X12602Y17531*
X12590Y17556*
X12578Y17532*
X12564Y17509*
X12548Y17488*
X12530Y17469*
X12509Y17452*
X12487Y17437*
X12464Y17425*
X12440Y17414*
X12414Y17407*
X12388Y17402*
X12361Y17400*
X12335Y17401*
X12308Y17404*
X12283Y17410*
X12257Y17419*
X12252Y17392*
X12244Y17365*
X12232Y17339*
X12218Y17315*
X12202Y17293*
X12183Y17272*
X12161Y17254*
X12138Y17238*
X12114Y17224*
X12088Y17214*
X12061Y17206*
X12033Y17202*
X12005Y17200*
X11977Y17202*
X11949Y17206*
X11922Y17214*
X11896Y17224*
X11872Y17238*
X11849Y17254*
X11827Y17272*
X11808Y17293*
X11792Y17315*
X11778Y17339*
X11766Y17365*
X11758Y17392*
X11753Y17419*
X11729Y17411*
X11705Y17405*
X11680Y17401*
X11655Y17400*
X11630Y17401*
X11605Y17405*
X11581Y17411*
X11557Y17419*
X11552Y17393*
X11544Y17366*
X11533Y17341*
X11520Y17318*
X11504Y17295*
X11486Y17275*
X11465Y17257*
X11443Y17241*
X11420Y17227*
X11394Y17216*
X11368Y17208*
X11342Y17203*
X11314Y17200*
X11287Y17201*
X11260Y17204*
X11233Y17210*
X11208Y17219*
X11183Y17231*
X11160Y17245*
X11138Y17262*
X11118Y17281*
X11101Y17302*
X11086Y17325*
X11073Y17349*
X11063Y17374*
X11056Y17401*
X11051Y17428*
X11050Y17455*
X11051Y17481*
X11055Y17507*
X11630Y21170D02*
Y20320D01*
X10780*
Y21170*
X11630*
Y22170D02*
Y21320D01*
X10780*
Y22170*
X11630*
X12630Y21170D02*
Y20320D01*
X11780*
Y21170*
X12630*
Y22170D02*
Y21320D01*
X11780*
Y22170*
X12630*
X13600Y17655D02*
X13599Y17627D01*
X13594Y17600*
X13587Y17574*
X13576Y17548*
X13564Y17524*
X13548Y17501*
X13530Y17480*
X13510Y17461*
X13488Y17444*
X13464Y17430*
X13439Y17418*
X13413Y17409*
X13386Y17403*
X13359Y17400*
X13331*
X13304Y17403*
X13277Y17409*
X13251Y17418*
X13226Y17430*
X13202Y17444*
X13180Y17461*
X13160Y17480*
X13142Y17501*
X13127Y17523*
X13114Y17548*
X13103Y17573*
X13096Y17600*
X13092Y17627*
X13090Y17655*
X13091Y17683*
X13096Y17710*
X13103Y17736*
X13114Y17762*
X13126Y17786*
X13142Y17809*
X13160Y17830*
X13180Y17849*
X13202Y17866*
X13226Y17880*
X13251Y17892*
X13277Y17901*
X13304Y17907*
X13331Y17910*
X13359*
X13386Y17907*
X13413Y17901*
X13439Y17892*
X13464Y17880*
X13488Y17866*
X13510Y17849*
X13530Y17830*
X13548Y17809*
X13563Y17787*
X13576Y17762*
X13587Y17737*
X13594Y17710*
X13598Y17683*
X13600Y17655*
X13630Y21170D02*
Y20320D01*
X12780*
Y21170*
X13630*
Y22170D02*
Y21320D01*
X12780*
Y22170*
X13630*
X14190Y17665D02*
X14189Y17637D01*
X14184Y17610*
X14177Y17584*
X14166Y17558*
X14154Y17534*
X14138Y17511*
X14120Y17490*
X14100Y17471*
X14078Y17454*
X14054Y17440*
X14029Y17428*
X14003Y17419*
X13976Y17413*
X13949Y17410*
X13921*
X13894Y17413*
X13867Y17419*
X13841Y17428*
X13816Y17440*
X13792Y17454*
X13770Y17471*
X13750Y17490*
X13732Y17511*
X13717Y17533*
X13704Y17558*
X13693Y17583*
X13686Y17610*
X13682Y17637*
X13680Y17665*
X13681Y17693*
X13686Y17720*
X13693Y17746*
X13704Y17772*
X13716Y17796*
X13732Y17819*
X13750Y17840*
X13770Y17859*
X13792Y17876*
X13816Y17890*
X13841Y17902*
X13867Y17911*
X13894Y17917*
X13921Y17920*
X13949*
X13976Y17917*
X14003Y17911*
X14029Y17902*
X14054Y17890*
X14078Y17876*
X14100Y17859*
X14120Y17840*
X14138Y17819*
X14153Y17797*
X14166Y17772*
X14177Y17747*
X14184Y17720*
X14188Y17693*
X14190Y17665*
X14630Y21170D02*
Y20320D01*
X13780*
Y21170*
X14630*
Y22170D02*
Y21320D01*
X13780*
Y22170*
X14630*
X14680Y17455D02*
X14679Y17427D01*
X14674Y17400*
X14667Y17374*
X14656Y17348*
X14644Y17324*
X14628Y17301*
X14610Y17280*
X14590Y17261*
X14568Y17244*
X14544Y17230*
X14519Y17218*
X14493Y17209*
X14466Y17203*
X14439Y17200*
X14411*
X14384Y17203*
X14357Y17209*
X14331Y17218*
X14306Y17230*
X14282Y17244*
X14260Y17261*
X14240Y17280*
X14222Y17301*
X14207Y17323*
X14194Y17348*
X14183Y17373*
X14176Y17400*
X14172Y17427*
X14170Y17455*
X14171Y17483*
X14176Y17510*
X14183Y17536*
X14194Y17562*
X14206Y17586*
X14222Y17609*
X14240Y17630*
X14260Y17649*
X14282Y17666*
X14306Y17680*
X14331Y17692*
X14357Y17701*
X14384Y17707*
X14411Y17710*
X14439*
X14466Y17707*
X14493Y17701*
X14519Y17692*
X14544Y17680*
X14568Y17666*
X14590Y17649*
X14610Y17630*
X14628Y17609*
X14643Y17587*
X14656Y17562*
X14667Y17537*
X14674Y17510*
X14678Y17483*
X14680Y17455*
X15281Y17453D02*
X15259Y17438D01*
X15235Y17425*
X15210Y17415*
X15184Y17407*
X15157Y17402*
X15130Y17400*
X15103Y17401*
X15077Y17405*
X15050Y17411*
X15025Y17420*
X15001Y17432*
X14978Y17447*
X14957Y17464*
X14937Y17482*
X14920Y17503*
X14905Y17526*
X14893Y17550*
X14883Y17575*
X14876Y17601*
X14871Y17628*
X14870Y17655*
X14872Y17683*
X14876Y17710*
X14884Y17737*
X14894Y17763*
X14907Y17787*
X14923Y17810*
X14941Y17831*
X14961Y17850*
X14983Y17867*
X15007Y17881*
X15033Y17893*
X15059Y17901*
X15086Y17907*
X15114Y17910*
X15142Y17909*
X15169Y17906*
X15196Y17900*
X15223Y17891*
X15248Y17878*
X15271Y17864*
X15293Y17847*
X15313Y17827*
X15331Y17806*
X15346Y17782*
X15359Y17757*
X15368Y17731*
X15375Y17704*
X15379Y17677*
X15401Y17692*
X15425Y17705*
X15450Y17715*
X15476Y17723*
X15503Y17728*
X15530Y17730*
X15557Y17729*
X15583Y17725*
X15610Y17719*
X15635Y17710*
X15659Y17698*
X15682Y17683*
X15703Y17666*
X15723Y17648*
X15740Y17627*
X15755Y17604*
X15767Y17580*
X15777Y17555*
X15784Y17529*
X15789Y17502*
X15790Y17475*
X15788Y17447*
X15784Y17420*
X15776Y17393*
X15766Y17367*
X15753Y17343*
X15737Y17320*
X15719Y17299*
X15699Y17280*
X15677Y17263*
X15653Y17249*
X15627Y17237*
X15601Y17229*
X15574Y17223*
X15546Y17220*
X15518Y17221*
X15491Y17224*
X15464Y17230*
X15437Y17239*
X15412Y17252*
X15389Y17266*
X15367Y17283*
X15347Y17303*
X15329Y17324*
X15314Y17348*
X15301Y17373*
X15292Y17399*
X15285Y17426*
X15281Y17453*
X15630Y21170D02*
Y20320D01*
X14780*
Y21170*
X15630*
Y22170D02*
Y21320D01*
X14780*
Y22170*
X15630*
X16430Y17455D02*
X16429Y17427D01*
X16424Y17400*
X16417Y17374*
X16406Y17348*
X16394Y17324*
X16378Y17301*
X16360Y17280*
X16340Y17261*
X16318Y17244*
X16294Y17230*
X16269Y17218*
X16243Y17209*
X16216Y17203*
X16189Y17200*
X16161*
X16134Y17203*
X16107Y17209*
X16081Y17218*
X16056Y17230*
X16032Y17244*
X16010Y17261*
X15990Y17280*
X15972Y17301*
X15957Y17323*
X15944Y17348*
X15933Y17373*
X15926Y17400*
X15922Y17427*
X15920Y17455*
X15921Y17483*
X15926Y17510*
X15933Y17536*
X15944Y17562*
X15956Y17586*
X15972Y17609*
X15990Y17630*
X16010Y17649*
X16032Y17666*
X16056Y17680*
X16081Y17692*
X16107Y17701*
X16134Y17707*
X16161Y17710*
X16189*
X16216Y17707*
X16243Y17701*
X16269Y17692*
X16294Y17680*
X16318Y17666*
X16340Y17649*
X16360Y17630*
X16378Y17609*
X16393Y17587*
X16406Y17562*
X16417Y17537*
X16424Y17510*
X16428Y17483*
X16430Y17455*
X16630Y21170D02*
Y20320D01*
X15780*
Y21170*
X16630*
Y22170D02*
Y21320D01*
X15780*
Y22170*
X16630*
X17630Y21170D02*
Y20320D01*
X16780*
Y21170*
X17630*
Y22170D02*
Y21320D01*
X16780*
Y22170*
X17630*
X7691Y16539D02*
X15909D01*
X7643Y16587D02*
X15957D01*
X7595Y16635D02*
X16005D01*
X7547Y16683D02*
X16053D01*
X7499Y16731D02*
X16101D01*
X7451Y16779D02*
X16149D01*
X7403Y16827D02*
X16197D01*
X7355Y16875D02*
X16245D01*
X7306Y16924D02*
X16294D01*
X7258Y16972D02*
X16342D01*
X7210Y17020D02*
X16390D01*
X7162Y17068D02*
X16438D01*
X7114Y17116D02*
X16486D01*
X7066Y17164D02*
X16534D01*
X7018Y17212D02*
X7329D01*
X7481D02*
X8129D01*
X8281D02*
X9209D01*
X9361D02*
X11229D01*
X11381D02*
X11929D01*
X12081D02*
X14349D01*
X14501D02*
X16099D01*
X16251D02*
X16582D01*
X6970Y17260D02*
X7241D01*
X7569D02*
X8041D01*
X8369D02*
X9121D01*
X9449D02*
X11141D01*
X11469D02*
X11841D01*
X12169D02*
X14261D01*
X14589D02*
X15398D01*
X15672D02*
X16011D01*
X16339D02*
X16630D01*
X6922Y17308D02*
X7197D01*
X7613D02*
X7997D01*
X8413D02*
X9077D01*
X9493D02*
X11097D01*
X11513D02*
X11797D01*
X12213D02*
X14217D01*
X14633D02*
X15343D01*
X15727D02*
X15967D01*
X16383D02*
X16678D01*
X6874Y17356D02*
X7170D01*
X7640D02*
X7970D01*
X8440D02*
X9050D01*
X9520D02*
X11070D01*
X11540D02*
X11770D01*
X12240D02*
X14190D01*
X14660D02*
X15310D01*
X15760D02*
X15940D01*
X16410D02*
X16726D01*
X6826Y17404D02*
X7155D01*
X7655D02*
X7751D01*
X7839D02*
X7955D01*
X8455D02*
X8531D01*
X8619D02*
X9035D01*
X9535D02*
X9671D01*
X9759D02*
X10241D01*
X10329D02*
X11055D01*
X11555D02*
X11611D01*
X11699D02*
X11755D01*
X12255D02*
X12311D01*
X12399D02*
X12781D01*
X12869D02*
X13301D01*
X13389D02*
X14175D01*
X14675D02*
X15081D01*
X15169D02*
X15290D01*
X15780D02*
X15925D01*
X16425D02*
X16774D01*
X6778Y17452D02*
X7150D01*
X7949D02*
X7950D01*
X8729D02*
X9030D01*
X9540D02*
X9561D01*
X9869D02*
X10131D01*
X10439D02*
X10715D01*
X10995D02*
X11050D01*
X12509D02*
X12671D01*
X12979D02*
X13191D01*
X13499D02*
X13795D01*
X14075D02*
X14170D01*
X14680D02*
X14971D01*
X15279D02*
X15281D01*
X15789D02*
X15920D01*
X16430D02*
X16822D01*
X6755Y17500D02*
X7154D01*
X8777D02*
X9034D01*
X9917D02*
X10083D01*
X10487D02*
X10661D01*
X11049D02*
X11054D01*
X12557D02*
X12623D01*
X13027D02*
X13143D01*
X13547D02*
X13741D01*
X14129D02*
X14174D01*
X14676D02*
X14923D01*
X15789D02*
X15924D01*
X16426D02*
X16870D01*
X6755Y17548D02*
X7168D01*
X8806D02*
X9048D01*
X9946D02*
X10054D01*
X10516D02*
X10628D01*
X12586D02*
X12594D01*
X13056D02*
X13114D01*
X13576D02*
X13708D01*
X14162D02*
X14188D01*
X14662D02*
X14894D01*
X15779D02*
X15938D01*
X16412D02*
X16918D01*
X6755Y17596D02*
X7192D01*
X8823D02*
X9073D01*
X9963D02*
X10037D01*
X10533D02*
X10610D01*
X13073D02*
X13097D01*
X13593D02*
X13690D01*
X14180D02*
X14212D01*
X14638D02*
X14877D01*
X15759D02*
X15962D01*
X16388D02*
X16966D01*
X6755Y17644D02*
X7234D01*
X8830D02*
X9114D01*
X9456D02*
X9460D01*
X9970D02*
X10030D01*
X10540D02*
X10601D01*
X11109D02*
X11134D01*
X13080D02*
X13090D01*
X13600D02*
X13681D01*
X14189D02*
X14254D01*
X14596D02*
X14870D01*
X15726D02*
X16004D01*
X16346D02*
X17014D01*
X6755Y17692D02*
X7311D01*
X7499D02*
X7543D01*
X8047D02*
X8111D01*
X8299D02*
X8323D01*
X8827D02*
X9191D01*
X9379D02*
X9463D01*
X9967D02*
X10033D01*
X10537D02*
X10601D01*
X11109D02*
X11211D01*
X11399D02*
X11403D01*
X11907D02*
X11911D01*
X12099D02*
X12103D01*
X13077D02*
X13093D01*
X13597D02*
X13681D01*
X14189D02*
X14331D01*
X14519D02*
X14873D01*
X15377D02*
X15401D01*
X15669D02*
X16081D01*
X16269D02*
X17062D01*
X6755Y17740D02*
X7555D01*
X8035D02*
X8335D01*
X8815D02*
X9475D01*
X9955D02*
X10045D01*
X10525D02*
X10611D01*
X11099D02*
X11415D01*
X11895D02*
X12115D01*
X13065D02*
X13105D01*
X13585D02*
X13691D01*
X14179D02*
X14885D01*
X15365D02*
X17110D01*
X6755Y17788D02*
X7577D01*
X8013D02*
X8357D01*
X8793D02*
X9497D01*
X9933D02*
X10067D01*
X10503D02*
X10632D01*
X11078D02*
X11437D01*
X11873D02*
X12137D01*
X12573D02*
X12607D01*
X13043D02*
X13127D01*
X13563D02*
X13712D01*
X14158D02*
X14907D01*
X15343D02*
X17158D01*
X6755Y17836D02*
X7615D01*
X7975D02*
X8395D01*
X8755D02*
X9535D01*
X9895D02*
X10105D01*
X10465D02*
X10666D01*
X11044D02*
X11476D01*
X11834D02*
X12176D01*
X12534D02*
X12646D01*
X13004D02*
X13165D01*
X13525D02*
X13746D01*
X14124D02*
X14945D01*
X15305D02*
X17206D01*
X6755Y17884D02*
X7683D01*
X7907D02*
X8463D01*
X8687D02*
X9603D01*
X9827D02*
X10173D01*
X10397D02*
X10725D01*
X10985D02*
X11543D01*
X11767D02*
X12243D01*
X12467D02*
X12713D01*
X12937D02*
X13233D01*
X13457D02*
X13805D01*
X14065D02*
X15013D01*
X15237D02*
X17254D01*
X6755Y17932D02*
X17302D01*
X6755Y17980D02*
X17350D01*
X6755Y18028D02*
X17398D01*
X6755Y18076D02*
X17446D01*
X6755Y18124D02*
X17494D01*
X6755Y18172D02*
X17542D01*
X6755Y18220D02*
X17590D01*
X6755Y18268D02*
X17638D01*
X6755Y18316D02*
X17686D01*
X6755Y18364D02*
X17734D01*
X6755Y18412D02*
X17745D01*
X6755Y18461D02*
X17745D01*
X6755Y18509D02*
X17745D01*
X6755Y18557D02*
X17745D01*
X6755Y18605D02*
X17745D01*
X6755Y18653D02*
X17745D01*
X6755Y18701D02*
X17745D01*
X6755Y18749D02*
X17744D01*
X6755Y18797D02*
X17744D01*
X6755Y18845D02*
X17744D01*
X6755Y18893D02*
X17744D01*
X6755Y18941D02*
X17744D01*
X6755Y18989D02*
X17744D01*
X6755Y19037D02*
X17744D01*
X6755Y19085D02*
X17743D01*
X6755Y19133D02*
X17743D01*
X6755Y19181D02*
X17743D01*
X6755Y19229D02*
X17743D01*
X6755Y19277D02*
X17743D01*
X6755Y19325D02*
X17743D01*
X6755Y19373D02*
X17743D01*
X6755Y19421D02*
X17743D01*
X6755Y19469D02*
X17742D01*
X6755Y19517D02*
X17742D01*
X6755Y19565D02*
X17742D01*
X6755Y19613D02*
X17742D01*
X6755Y19661D02*
X17742D01*
X6755Y19709D02*
X17742D01*
X6755Y19757D02*
X17742D01*
X6755Y19805D02*
X17742D01*
X6755Y19853D02*
X17741D01*
X6755Y19901D02*
X17741D01*
X6755Y19949D02*
X17741D01*
X6755Y19998D02*
X17741D01*
X6755Y20046D02*
X17741D01*
X6755Y20094D02*
X17741D01*
X6755Y20142D02*
X17741D01*
X6755Y20190D02*
X17740D01*
X6755Y20238D02*
X17740D01*
X6755Y20286D02*
X17740D01*
X6755Y20334D02*
X6780D01*
X7630D02*
X7780D01*
X8630D02*
X8780D01*
X9630D02*
X9780D01*
X10630D02*
X10780D01*
X11630D02*
X11780D01*
X12630D02*
X12780D01*
X13630D02*
X13780D01*
X14630D02*
X14780D01*
X15630D02*
X15780D01*
X16630D02*
X16780D01*
X17630D02*
X17740D01*
X6755Y20382D02*
X6780D01*
X7630D02*
X7780D01*
X8630D02*
X8780D01*
X9630D02*
X9780D01*
X10630D02*
X10780D01*
X11630D02*
X11780D01*
X12630D02*
X12780D01*
X13630D02*
X13780D01*
X14630D02*
X14780D01*
X15630D02*
X15780D01*
X16630D02*
X16780D01*
X17630D02*
X17740D01*
X6755Y20430D02*
X6780D01*
X7630D02*
X7780D01*
X8630D02*
X8780D01*
X9630D02*
X9780D01*
X10630D02*
X10780D01*
X11630D02*
X11780D01*
X12630D02*
X12780D01*
X13630D02*
X13780D01*
X14630D02*
X14780D01*
X15630D02*
X15780D01*
X16630D02*
X16780D01*
X17630D02*
X17740D01*
X6755Y20478D02*
X6780D01*
X7630D02*
X7780D01*
X8630D02*
X8780D01*
X9630D02*
X9780D01*
X10630D02*
X10780D01*
X11630D02*
X11780D01*
X12630D02*
X12780D01*
X13630D02*
X13780D01*
X14630D02*
X14780D01*
X15630D02*
X15780D01*
X16630D02*
X16780D01*
X17630D02*
X17740D01*
X6755Y20526D02*
X6780D01*
X7630D02*
X7780D01*
X8630D02*
X8780D01*
X9630D02*
X9780D01*
X10630D02*
X10780D01*
X11630D02*
X11780D01*
X12630D02*
X12780D01*
X13630D02*
X13780D01*
X14630D02*
X14780D01*
X15630D02*
X15780D01*
X16630D02*
X16780D01*
X17630D02*
X17740D01*
X6755Y20574D02*
X6780D01*
X7630D02*
X7780D01*
X8630D02*
X8780D01*
X9630D02*
X9780D01*
X10630D02*
X10780D01*
X11630D02*
X11780D01*
X12630D02*
X12780D01*
X13630D02*
X13780D01*
X14630D02*
X14780D01*
X15630D02*
X15780D01*
X16630D02*
X16780D01*
X17630D02*
X17739D01*
X6755Y20622D02*
X6780D01*
X7630D02*
X7780D01*
X8630D02*
X8780D01*
X9630D02*
X9780D01*
X10630D02*
X10780D01*
X11630D02*
X11780D01*
X12630D02*
X12780D01*
X13630D02*
X13780D01*
X14630D02*
X14780D01*
X15630D02*
X15780D01*
X16630D02*
X16780D01*
X17630D02*
X17739D01*
X6755Y20670D02*
X6780D01*
X7630D02*
X7780D01*
X8630D02*
X8780D01*
X9630D02*
X9780D01*
X10630D02*
X10780D01*
X11630D02*
X11780D01*
X12630D02*
X12780D01*
X13630D02*
X13780D01*
X14630D02*
X14780D01*
X15630D02*
X15780D01*
X16630D02*
X16780D01*
X17630D02*
X17739D01*
X6755Y20718D02*
X6780D01*
X7630D02*
X7780D01*
X8630D02*
X8780D01*
X9630D02*
X9780D01*
X10630D02*
X10780D01*
X11630D02*
X11780D01*
X12630D02*
X12780D01*
X13630D02*
X13780D01*
X14630D02*
X14780D01*
X15630D02*
X15780D01*
X16630D02*
X16780D01*
X17630D02*
X17739D01*
X6755Y20766D02*
X6780D01*
X7630D02*
X7780D01*
X8630D02*
X8780D01*
X9630D02*
X9780D01*
X10630D02*
X10780D01*
X11630D02*
X11780D01*
X12630D02*
X12780D01*
X13630D02*
X13780D01*
X14630D02*
X14780D01*
X15630D02*
X15780D01*
X16630D02*
X16780D01*
X17630D02*
X17739D01*
X6755Y20814D02*
X6780D01*
X7630D02*
X7780D01*
X8630D02*
X8780D01*
X9630D02*
X9780D01*
X10630D02*
X10780D01*
X11630D02*
X11780D01*
X12630D02*
X12780D01*
X13630D02*
X13780D01*
X14630D02*
X14780D01*
X15630D02*
X15780D01*
X16630D02*
X16780D01*
X17630D02*
X17739D01*
X6755Y20862D02*
X6780D01*
X7630D02*
X7780D01*
X8630D02*
X8780D01*
X9630D02*
X9780D01*
X10630D02*
X10780D01*
X11630D02*
X11780D01*
X12630D02*
X12780D01*
X13630D02*
X13780D01*
X14630D02*
X14780D01*
X15630D02*
X15780D01*
X16630D02*
X16780D01*
X17630D02*
X17739D01*
X6755Y20910D02*
X6780D01*
X7630D02*
X7780D01*
X8630D02*
X8780D01*
X9630D02*
X9780D01*
X10630D02*
X10780D01*
X11630D02*
X11780D01*
X12630D02*
X12780D01*
X13630D02*
X13780D01*
X14630D02*
X14780D01*
X15630D02*
X15780D01*
X16630D02*
X16780D01*
X17630D02*
X17739D01*
X6755Y20958D02*
X6780D01*
X7630D02*
X7780D01*
X8630D02*
X8780D01*
X9630D02*
X9780D01*
X10630D02*
X10780D01*
X11630D02*
X11780D01*
X12630D02*
X12780D01*
X13630D02*
X13780D01*
X14630D02*
X14780D01*
X15630D02*
X15780D01*
X16630D02*
X16780D01*
X17630D02*
X17738D01*
X6755Y21006D02*
X6780D01*
X7630D02*
X7780D01*
X8630D02*
X8780D01*
X9630D02*
X9780D01*
X10630D02*
X10780D01*
X11630D02*
X11780D01*
X12630D02*
X12780D01*
X13630D02*
X13780D01*
X14630D02*
X14780D01*
X15630D02*
X15780D01*
X16630D02*
X16780D01*
X17630D02*
X17738D01*
X6755Y21054D02*
X6780D01*
X7630D02*
X7780D01*
X8630D02*
X8780D01*
X9630D02*
X9780D01*
X10630D02*
X10780D01*
X11630D02*
X11780D01*
X12630D02*
X12780D01*
X13630D02*
X13780D01*
X14630D02*
X14780D01*
X15630D02*
X15780D01*
X16630D02*
X16780D01*
X17630D02*
X17738D01*
X6755Y21102D02*
X6780D01*
X7630D02*
X7780D01*
X8630D02*
X8780D01*
X9630D02*
X9780D01*
X10630D02*
X10780D01*
X11630D02*
X11780D01*
X12630D02*
X12780D01*
X13630D02*
X13780D01*
X14630D02*
X14780D01*
X15630D02*
X15780D01*
X16630D02*
X16780D01*
X17630D02*
X17738D01*
X6755Y21150D02*
X6780D01*
X7630D02*
X7780D01*
X8630D02*
X8780D01*
X9630D02*
X9780D01*
X10630D02*
X10780D01*
X11630D02*
X11780D01*
X12630D02*
X12780D01*
X13630D02*
X13780D01*
X14630D02*
X14780D01*
X15630D02*
X15780D01*
X16630D02*
X16780D01*
X17630D02*
X17738D01*
X6755Y21198D02*
X17738D01*
X6755Y21246D02*
X17738D01*
X6755Y21294D02*
X17737D01*
X6755Y21342D02*
X6780D01*
X7630D02*
X7780D01*
X8630D02*
X8780D01*
X9630D02*
X9780D01*
X10630D02*
X10780D01*
X11630D02*
X11780D01*
X12630D02*
X12780D01*
X13630D02*
X13780D01*
X14630D02*
X14780D01*
X15630D02*
X15780D01*
X16630D02*
X16780D01*
X17630D02*
X17737D01*
X6755Y21390D02*
X6780D01*
X7630D02*
X7780D01*
X8630D02*
X8780D01*
X9630D02*
X9780D01*
X10630D02*
X10780D01*
X11630D02*
X11780D01*
X12630D02*
X12780D01*
X13630D02*
X13780D01*
X14630D02*
X14780D01*
X15630D02*
X15780D01*
X16630D02*
X16780D01*
X17630D02*
X17737D01*
X6755Y21438D02*
X6780D01*
X7630D02*
X7780D01*
X8630D02*
X8780D01*
X9630D02*
X9780D01*
X10630D02*
X10780D01*
X11630D02*
X11780D01*
X12630D02*
X12780D01*
X13630D02*
X13780D01*
X14630D02*
X14780D01*
X15630D02*
X15780D01*
X16630D02*
X16780D01*
X17630D02*
X17737D01*
X6755Y21486D02*
X6780D01*
X7630D02*
X7780D01*
X8630D02*
X8780D01*
X9630D02*
X9780D01*
X10630D02*
X10780D01*
X11630D02*
X11780D01*
X12630D02*
X12780D01*
X13630D02*
X13780D01*
X14630D02*
X14780D01*
X15630D02*
X15780D01*
X16630D02*
X16780D01*
X17630D02*
X17737D01*
X6755Y21535D02*
X6780D01*
X7630D02*
X7780D01*
X8630D02*
X8780D01*
X9630D02*
X9780D01*
X10630D02*
X10780D01*
X11630D02*
X11780D01*
X12630D02*
X12780D01*
X13630D02*
X13780D01*
X14630D02*
X14780D01*
X15630D02*
X15780D01*
X16630D02*
X16780D01*
X17630D02*
X17737D01*
X6755Y21583D02*
X6780D01*
X7630D02*
X7780D01*
X8630D02*
X8780D01*
X9630D02*
X9780D01*
X10630D02*
X10780D01*
X11630D02*
X11780D01*
X12630D02*
X12780D01*
X13630D02*
X13780D01*
X14630D02*
X14780D01*
X15630D02*
X15780D01*
X16630D02*
X16780D01*
X17630D02*
X17737D01*
X6755Y21631D02*
X6780D01*
X7630D02*
X7780D01*
X8630D02*
X8780D01*
X9630D02*
X9780D01*
X10630D02*
X10780D01*
X11630D02*
X11780D01*
X12630D02*
X12780D01*
X13630D02*
X13780D01*
X14630D02*
X14780D01*
X15630D02*
X15780D01*
X16630D02*
X16780D01*
X17630D02*
X17737D01*
X6755Y21679D02*
X6780D01*
X7630D02*
X7780D01*
X8630D02*
X8780D01*
X9630D02*
X9780D01*
X10630D02*
X10780D01*
X11630D02*
X11780D01*
X12630D02*
X12780D01*
X13630D02*
X13780D01*
X14630D02*
X14780D01*
X15630D02*
X15780D01*
X16630D02*
X16780D01*
X17630D02*
X17736D01*
X6755Y21727D02*
X6780D01*
X7630D02*
X7780D01*
X8630D02*
X8780D01*
X9630D02*
X9780D01*
X10630D02*
X10780D01*
X11630D02*
X11780D01*
X12630D02*
X12780D01*
X13630D02*
X13780D01*
X14630D02*
X14780D01*
X15630D02*
X15780D01*
X16630D02*
X16780D01*
X17630D02*
X17736D01*
X6755Y21775D02*
X6780D01*
X7630D02*
X7780D01*
X8630D02*
X8780D01*
X9630D02*
X9780D01*
X10630D02*
X10780D01*
X11630D02*
X11780D01*
X12630D02*
X12780D01*
X13630D02*
X13780D01*
X14630D02*
X14780D01*
X15630D02*
X15780D01*
X16630D02*
X16780D01*
X17630D02*
X17736D01*
X6755Y21823D02*
X6780D01*
X7630D02*
X7780D01*
X8630D02*
X8780D01*
X9630D02*
X9780D01*
X10630D02*
X10780D01*
X11630D02*
X11780D01*
X12630D02*
X12780D01*
X13630D02*
X13780D01*
X14630D02*
X14780D01*
X15630D02*
X15780D01*
X16630D02*
X16780D01*
X17630D02*
X17736D01*
X6755Y21871D02*
X6780D01*
X7630D02*
X7780D01*
X8630D02*
X8780D01*
X9630D02*
X9780D01*
X10630D02*
X10780D01*
X11630D02*
X11780D01*
X12630D02*
X12780D01*
X13630D02*
X13780D01*
X14630D02*
X14780D01*
X15630D02*
X15780D01*
X16630D02*
X16780D01*
X17630D02*
X17736D01*
X6755Y21919D02*
X6780D01*
X7630D02*
X7780D01*
X8630D02*
X8780D01*
X9630D02*
X9780D01*
X10630D02*
X10780D01*
X11630D02*
X11780D01*
X12630D02*
X12780D01*
X13630D02*
X13780D01*
X14630D02*
X14780D01*
X15630D02*
X15780D01*
X16630D02*
X16780D01*
X17630D02*
X17736D01*
X6755Y21967D02*
X6780D01*
X7630D02*
X7780D01*
X8630D02*
X8780D01*
X9630D02*
X9780D01*
X10630D02*
X10780D01*
X11630D02*
X11780D01*
X12630D02*
X12780D01*
X13630D02*
X13780D01*
X14630D02*
X14780D01*
X15630D02*
X15780D01*
X16630D02*
X16780D01*
X17630D02*
X17736D01*
X6755Y22015D02*
X6780D01*
X7630D02*
X7780D01*
X8630D02*
X8780D01*
X9630D02*
X9780D01*
X10630D02*
X10780D01*
X11630D02*
X11780D01*
X12630D02*
X12780D01*
X13630D02*
X13780D01*
X14630D02*
X14780D01*
X15630D02*
X15780D01*
X16630D02*
X16780D01*
X17630D02*
X17736D01*
X6755Y22063D02*
X6780D01*
X7630D02*
X7780D01*
X8630D02*
X8780D01*
X9630D02*
X9780D01*
X10630D02*
X10780D01*
X11630D02*
X11780D01*
X12630D02*
X12780D01*
X13630D02*
X13780D01*
X14630D02*
X14780D01*
X15630D02*
X15780D01*
X16630D02*
X16780D01*
X17630D02*
X17735D01*
X6755Y22111D02*
X6780D01*
X7630D02*
X7780D01*
X8630D02*
X8780D01*
X9630D02*
X9780D01*
X10630D02*
X10780D01*
X11630D02*
X11780D01*
X12630D02*
X12780D01*
X13630D02*
X13780D01*
X14630D02*
X14780D01*
X15630D02*
X15780D01*
X16630D02*
X16780D01*
X17630D02*
X17735D01*
X6755Y22159D02*
X6780D01*
X7630D02*
X7780D01*
X8630D02*
X8780D01*
X9630D02*
X9780D01*
X10630D02*
X10780D01*
X11630D02*
X11780D01*
X12630D02*
X12780D01*
X13630D02*
X13780D01*
X14630D02*
X14780D01*
X15630D02*
X15780D01*
X16630D02*
X16780D01*
X17630D02*
X17735D01*
X6755Y22207D02*
X18759D01*
X5529Y22255D02*
X18711D01*
X5577Y22303D02*
X18663D01*
X5625Y22351D02*
X18615D01*
X5673Y22399D02*
X18567D01*
X5721Y22447D02*
X18519D01*
X5769Y22495D02*
X18471D01*
X5817Y22543D02*
X18423D01*
X5865Y22591D02*
X18375D01*
X5913Y22639D02*
X18327D01*
X5961Y22687D02*
X18279D01*
X6009Y22735D02*
X18231D01*
X6057Y22783D02*
X18183D01*
X6105Y22831D02*
X18135D01*
X6153Y22879D02*
X18087D01*
X6201Y22927D02*
X18039D01*
X6249Y22975D02*
X17991D01*
X6297Y23024D02*
X17943D01*
X6345Y23072D02*
X17895D01*
X6393Y23120D02*
X17847D01*
X6441Y23168D02*
X17799D01*
X6489Y23216D02*
X17751D01*
X6537Y23264D02*
X17703D01*
X6585Y23312D02*
X17655D01*
X6633Y23360D02*
X17607D01*
X6681Y23408D02*
X17559D01*
X6729Y23456D02*
X17511D01*
X6777Y23504D02*
X17463D01*
X6825Y23552D02*
X17415D01*
X6873Y23600D02*
X17367D01*
X6921Y23648D02*
X17319D01*
X6969Y23696D02*
X17271D01*
X7018Y23744D02*
X17222D01*
X7066Y23792D02*
X17174D01*
X7114Y23840D02*
X17126D01*
X7162Y23888D02*
X17078D01*
X7210Y23936D02*
X17030D01*
X17915Y20320D02*
Y18295D01*
X15945Y16325*
X9605*
Y15145*
X9606Y15105*
X9611Y15065*
X9619Y15025*
X9629Y14986*
X9642Y14948*
X9658Y14911*
X9677Y14875*
X9699Y14841*
X9723Y14808*
X9749Y14778*
X9778Y14749*
X9808Y14723*
X9841Y14699*
X9875Y14677*
X9911Y14659*
X9948Y14642*
X9986Y14629*
X10025Y14619*
X10064Y14611*
X10105Y14607*
X10145Y14605*
X13465*
X13509Y14604*
X13554Y14599*
X13598Y14592*
X13641Y14582*
X13684Y14569*
X13725Y14553*
X13766Y14535*
X13805Y14514*
X13843Y14490*
X13879Y14464*
X13913Y14436*
X13946Y14406*
X13976Y14373*
X14005Y14339*
X14030Y14303*
X14054Y14265*
X14075Y14226*
X14093Y14185*
X14109Y14143*
X14122Y14101*
X14132Y14058*
X14139Y14014*
X14144Y13969*
X14145Y13925*
Y12355*
X16415*
X16855Y12795*
Y16205*
X20808Y20158*
X18931Y22035*
X18630*
Y21320*
X17915*
Y21170*
X18630*
Y20320*
X17915*
X13560Y15545D02*
X13559Y15517D01*
X13554Y15490*
X13547Y15464*
X13536Y15438*
X13524Y15414*
X13508Y15391*
X13490Y15370*
X13470Y15351*
X13448Y15334*
X13424Y15320*
X13399Y15308*
X13373Y15299*
X13346Y15293*
X13319Y15290*
X13291*
X13264Y15293*
X13237Y15299*
X13211Y15308*
X13186Y15320*
X13162Y15334*
X13140Y15351*
X13120Y15370*
X13102Y15391*
X13087Y15413*
X13074Y15438*
X13063Y15463*
X13056Y15490*
X13052Y15517*
X13050Y15545*
X13051Y15573*
X13056Y15600*
X13063Y15626*
X13074Y15652*
X13086Y15676*
X13102Y15699*
X13120Y15720*
X13140Y15739*
X13162Y15756*
X13186Y15770*
X13211Y15782*
X13237Y15791*
X13264Y15797*
X13291Y15800*
X13319*
X13346Y15797*
X13373Y15791*
X13399Y15782*
X13424Y15770*
X13448Y15756*
X13470Y15739*
X13490Y15720*
X13508Y15699*
X13523Y15677*
X13536Y15652*
X13547Y15627*
X13554Y15600*
X13558Y15573*
X13560Y15545*
X16570Y13960D02*
X15720D01*
Y14810*
X16570*
Y13960*
Y14960D02*
X15720D01*
Y15810*
X16570*
Y14960*
X14145Y12395D02*
X16455D01*
X14145Y12443D02*
X16503D01*
X14145Y12491D02*
X16551D01*
X14145Y12539D02*
X16599D01*
X14145Y12587D02*
X16647D01*
X14145Y12635D02*
X16695D01*
X14145Y12683D02*
X16743D01*
X14145Y12731D02*
X16791D01*
X14145Y12779D02*
X16839D01*
X14145Y12827D02*
X16855D01*
X14145Y12875D02*
X16855D01*
X14145Y12923D02*
X16855D01*
X14145Y12971D02*
X16855D01*
X14145Y13019D02*
X16855D01*
X14145Y13067D02*
X16855D01*
X14145Y13115D02*
X16855D01*
X14145Y13163D02*
X16855D01*
X14145Y13211D02*
X16855D01*
X14145Y13259D02*
X16855D01*
X14145Y13307D02*
X16855D01*
X14145Y13355D02*
X16855D01*
X14145Y13403D02*
X16855D01*
X14145Y13451D02*
X16855D01*
X14145Y13500D02*
X16855D01*
X14145Y13548D02*
X16855D01*
X14145Y13596D02*
X16855D01*
X14145Y13644D02*
X16855D01*
X14145Y13692D02*
X16855D01*
X14145Y13740D02*
X16855D01*
X14145Y13788D02*
X16855D01*
X14145Y13836D02*
X16855D01*
X14145Y13884D02*
X16855D01*
X14145Y13932D02*
X16855D01*
X14143Y13980D02*
X15720D01*
X16570D02*
X16855D01*
X14137Y14028D02*
X15720D01*
X16570D02*
X16855D01*
X14128Y14076D02*
X15720D01*
X16570D02*
X16855D01*
X14115Y14124D02*
X15720D01*
X16570D02*
X16855D01*
X14099Y14172D02*
X15720D01*
X16570D02*
X16855D01*
X14078Y14220D02*
X15720D01*
X16570D02*
X16855D01*
X14052Y14268D02*
X15720D01*
X16570D02*
X16855D01*
X14021Y14316D02*
X15720D01*
X16570D02*
X16855D01*
X13984Y14364D02*
X15720D01*
X16570D02*
X16855D01*
X13939Y14412D02*
X15720D01*
X16570D02*
X16855D01*
X13885Y14460D02*
X15720D01*
X16570D02*
X16855D01*
X13815Y14508D02*
X15720D01*
X16570D02*
X16855D01*
X13718Y14556D02*
X15720D01*
X16570D02*
X16855D01*
X13497Y14604D02*
X15720D01*
X16570D02*
X16855D01*
X9924Y14652D02*
X15720D01*
X16570D02*
X16855D01*
X9839Y14700D02*
X15720D01*
X16570D02*
X16855D01*
X9779Y14748D02*
X15720D01*
X16570D02*
X16855D01*
X9733Y14796D02*
X15720D01*
X16570D02*
X16855D01*
X9696Y14844D02*
X16855D01*
X9668Y14892D02*
X16855D01*
X9645Y14940D02*
X16855D01*
X9628Y14989D02*
X15720D01*
X16570D02*
X16855D01*
X9616Y15037D02*
X15720D01*
X16570D02*
X16855D01*
X9608Y15085D02*
X15720D01*
X16570D02*
X16855D01*
X9605Y15133D02*
X15720D01*
X16570D02*
X16855D01*
X9605Y15181D02*
X15720D01*
X16570D02*
X16855D01*
X9605Y15229D02*
X15720D01*
X16570D02*
X16855D01*
X9605Y15277D02*
X15720D01*
X16570D02*
X16855D01*
X9605Y15325D02*
X13177D01*
X13433D02*
X15720D01*
X16570D02*
X16855D01*
X9605Y15373D02*
X13117D01*
X13493D02*
X15720D01*
X16570D02*
X16855D01*
X9605Y15421D02*
X13082D01*
X13528D02*
X15720D01*
X16570D02*
X16855D01*
X9605Y15469D02*
X13062D01*
X13548D02*
X15720D01*
X16570D02*
X16855D01*
X9605Y15517D02*
X13052D01*
X13558D02*
X15720D01*
X16570D02*
X16855D01*
X9605Y15565D02*
X13051D01*
X13559D02*
X15720D01*
X16570D02*
X16855D01*
X9605Y15613D02*
X13059D01*
X13551D02*
X15720D01*
X16570D02*
X16855D01*
X9605Y15661D02*
X13078D01*
X13532D02*
X15720D01*
X16570D02*
X16855D01*
X9605Y15709D02*
X13110D01*
X13500D02*
X15720D01*
X16570D02*
X16855D01*
X9605Y15757D02*
X13163D01*
X13447D02*
X15720D01*
X16570D02*
X16855D01*
X9605Y15805D02*
X15720D01*
X16570D02*
X16855D01*
X9605Y15853D02*
X16855D01*
X9605Y15901D02*
X16855D01*
X9605Y15949D02*
X16855D01*
X9605Y15997D02*
X16855D01*
X9605Y16045D02*
X16855D01*
X9605Y16093D02*
X16855D01*
X9605Y16141D02*
X16855D01*
X9605Y16189D02*
X16855D01*
X9605Y16237D02*
X16887D01*
X9605Y16285D02*
X16935D01*
X15953Y16333D02*
X16983D01*
X16001Y16381D02*
X17031D01*
X16049Y16429D02*
X17079D01*
X16097Y16477D02*
X17127D01*
X16146Y16526D02*
X17176D01*
X16194Y16574D02*
X17224D01*
X16242Y16622D02*
X17272D01*
X16290Y16670D02*
X17320D01*
X16338Y16718D02*
X17368D01*
X16386Y16766D02*
X17416D01*
X16434Y16814D02*
X17464D01*
X16482Y16862D02*
X17512D01*
X16530Y16910D02*
X17560D01*
X16578Y16958D02*
X17608D01*
X16626Y17006D02*
X17656D01*
X16674Y17054D02*
X17704D01*
X16722Y17102D02*
X17752D01*
X16770Y17150D02*
X17800D01*
X16818Y17198D02*
X17848D01*
X16866Y17246D02*
X17896D01*
X16914Y17294D02*
X17944D01*
X16962Y17342D02*
X17992D01*
X17010Y17390D02*
X18040D01*
X17058Y17438D02*
X18088D01*
X17106Y17486D02*
X18136D01*
X17154Y17534D02*
X18184D01*
X17202Y17582D02*
X18232D01*
X17250Y17630D02*
X18280D01*
X17298Y17678D02*
X18328D01*
X17346Y17726D02*
X18376D01*
X17394Y17774D02*
X18424D01*
X17442Y17822D02*
X18472D01*
X17490Y17870D02*
X18520D01*
X17538Y17918D02*
X18568D01*
X17586Y17966D02*
X18616D01*
X17634Y18014D02*
X18664D01*
X17683Y18063D02*
X18713D01*
X17731Y18111D02*
X18761D01*
X17779Y18159D02*
X18809D01*
X17827Y18207D02*
X18857D01*
X17875Y18255D02*
X18905D01*
X17915Y18303D02*
X18953D01*
X17915Y18351D02*
X19001D01*
X17915Y18399D02*
X19049D01*
X17915Y18447D02*
X19097D01*
X17915Y18495D02*
X19145D01*
X17915Y18543D02*
X19193D01*
X17915Y18591D02*
X19241D01*
X17915Y18639D02*
X19289D01*
X17915Y18687D02*
X19337D01*
X17915Y18735D02*
X19385D01*
X17915Y18783D02*
X19433D01*
X17915Y18831D02*
X19481D01*
X17915Y18879D02*
X19529D01*
X17915Y18927D02*
X19577D01*
X17915Y18975D02*
X19625D01*
X17915Y19023D02*
X19673D01*
X17915Y19071D02*
X19721D01*
X17915Y19119D02*
X19769D01*
X17915Y19167D02*
X19817D01*
X17915Y19215D02*
X19865D01*
X17915Y19263D02*
X19913D01*
X17915Y19311D02*
X19961D01*
X17915Y19359D02*
X20009D01*
X17915Y19407D02*
X20057D01*
X17915Y19455D02*
X20105D01*
X17915Y19503D02*
X20153D01*
X17915Y19551D02*
X20201D01*
X17915Y19600D02*
X20250D01*
X17915Y19648D02*
X20298D01*
X17915Y19696D02*
X20346D01*
X17915Y19744D02*
X20394D01*
X17915Y19792D02*
X20442D01*
X17915Y19840D02*
X20490D01*
X17915Y19888D02*
X20538D01*
X17915Y19936D02*
X20586D01*
X17915Y19984D02*
X20634D01*
X17915Y20032D02*
X20682D01*
X17915Y20080D02*
X20730D01*
X17915Y20128D02*
X20778D01*
X17915Y20176D02*
X20791D01*
X17915Y20224D02*
X20743D01*
X17915Y20272D02*
X20694D01*
X18630Y20320D02*
X20646D01*
X18630Y20368D02*
X20598D01*
X18630Y20416D02*
X20550D01*
X18630Y20464D02*
X20502D01*
X18630Y20512D02*
X20454D01*
X18630Y20560D02*
X20406D01*
X18630Y20608D02*
X20358D01*
X18630Y20656D02*
X20310D01*
X18630Y20704D02*
X20262D01*
X18630Y20752D02*
X20214D01*
X18630Y20800D02*
X20166D01*
X18630Y20848D02*
X20118D01*
X18630Y20896D02*
X20070D01*
X18630Y20944D02*
X20022D01*
X18630Y20992D02*
X19974D01*
X18630Y21040D02*
X19926D01*
X18630Y21089D02*
X19878D01*
X18630Y21137D02*
X19830D01*
X17915Y21185D02*
X19782D01*
X17915Y21233D02*
X19734D01*
X17915Y21281D02*
X19686D01*
X18630Y21329D02*
X19638D01*
X18630Y21377D02*
X19590D01*
X18630Y21425D02*
X19542D01*
X18630Y21473D02*
X19494D01*
X18630Y21521D02*
X19446D01*
X18630Y21569D02*
X19398D01*
X18630Y21617D02*
X19350D01*
X18630Y21665D02*
X19302D01*
X18630Y21713D02*
X19254D01*
X18630Y21761D02*
X19206D01*
X18630Y21809D02*
X19157D01*
X18630Y21857D02*
X19109D01*
X18630Y21905D02*
X19061D01*
X18630Y21953D02*
X19013D01*
X18630Y22001D02*
X18965D01*
D02*
D85*
X2641Y14580D02*
X2318D01*
X2990Y14231D02*
Y13908D01*
Y14929D02*
Y15252D01*
X3339Y14580D02*
X3662D01*
X5980Y20745D02*
X5730D01*
X5980Y21745D02*
X5730D01*
X6205Y20520D02*
Y20270D01*
Y20970D02*
Y21220D01*
Y21520D02*
Y21270D01*
X8250Y7755D02*
X8000D01*
X8335Y7670D02*
Y7420D01*
Y7840D02*
Y8090D01*
X8420Y7755D02*
X8670D01*
X9870Y2185D02*
X9620D01*
X9955Y2100D02*
Y1850D01*
Y2270D02*
Y2520D01*
X9970Y14985D02*
X9720D01*
X10040Y2185D02*
X10290D01*
X10040Y11135D02*
X9790D01*
X10055Y15070D02*
Y15320D01*
X10125Y11050D02*
Y10800D01*
Y11220D02*
Y11470D01*
X10140Y14985D02*
X10390D01*
X10210Y11135D02*
X10460D01*
X10360Y6345D02*
X10110D01*
X10445Y6260D02*
Y6010D01*
Y6430D02*
Y6680D01*
X10530Y6345D02*
X10780D01*
X12520Y9295D02*
X12270D01*
X12605Y9210D02*
Y8960D01*
Y9380D02*
Y9630D01*
X12690Y9295D02*
X12940D01*
X12700Y6325D02*
X12450D01*
X12720Y14765D02*
X12470D01*
X12775Y10605D02*
X12598Y10782D01*
X12785Y6240D02*
Y5990D01*
X12805Y14850D02*
Y15100D01*
X12870Y6325D02*
X13120D01*
X12890Y14765D02*
X13140D01*
X12895Y10485D02*
X13072Y10308D01*
X12895Y10605D02*
X13072Y10782D01*
X12950Y7285D02*
X12700D01*
X13035Y7200D02*
Y6950D01*
Y7370D02*
Y7620D01*
X13120Y7285D02*
X13370D01*
X13380Y4415D02*
X13130D01*
X13465Y4330D02*
Y4080D01*
Y4500D02*
Y4750D01*
X13550Y4415D02*
X13800D01*
X14630Y13445D02*
X14380D01*
X14715Y13360D02*
Y13110D01*
Y13530D02*
Y13780D01*
X14800Y13445D02*
X15050D01*
X16110Y12665D02*
X15860D01*
X16195Y12750D02*
Y13000D01*
X16280Y12665D02*
X16530D01*
X16980Y20745D02*
X16730D01*
X16980Y21745D02*
X16730D01*
X17205Y20520D02*
Y20270D01*
Y20970D02*
Y21220D01*
Y21520D02*
Y21270D01*
Y21970D02*
Y22220D01*
X17430Y20745D02*
X17680D01*
X17430Y21745D02*
X17680D01*
X17650Y9655D02*
X17400D01*
X17735Y9570D02*
Y9320D01*
Y9740D02*
Y9990D01*
X17820Y9655D02*
X18070D01*
X18205Y20520D02*
Y20270D01*
Y20970D02*
Y21220D01*
Y21520D02*
Y21270D01*
X18400Y8425D02*
X18150D01*
X18430Y20745D02*
X18680D01*
X18430Y21745D02*
X18680D01*
X18485Y8340D02*
Y8090D01*
Y8510D02*
Y8760D01*
X18570Y8425D02*
X18820D01*
X18642Y3610D02*
X18465Y3787D01*
X18890Y13365D02*
X18640D01*
X18960Y3610D02*
X19137Y3787D01*
X18975Y13280D02*
Y13030D01*
Y13450D02*
Y13700D01*
X19060Y13365D02*
X19310D01*
D02*
D86*
X2990Y14580D03*
X3697Y13873D03*
X4404Y13166D03*
X5111Y12459D03*
X5819Y11751D03*
X6526Y11044D03*
X7233Y10337D03*
X7940Y9630D03*
X18094Y2744D03*
X18801Y3451D03*
X19508Y4158D03*
X20215Y4865D03*
D02*
D87*
X3816Y5504D03*
X6044Y3276D03*
D02*
D88*
X3075Y6525D03*
X4195Y16275D03*
X5125Y9805D03*
X6935Y18465D03*
X7075Y13805D03*
X7405Y17455D03*
X7605Y8405D03*
X7795Y17655D03*
X7815Y3545D03*
X7935Y8105D03*
X7949Y1051D03*
X8205Y17455D03*
X8335Y7755D03*
X8575Y17655D03*
X8815Y5435D03*
X8825Y9045D03*
X8955Y7145D03*
X9255Y7995D03*
Y9365D03*
X9285Y17455D03*
X9515Y11475D03*
X9715Y17655D03*
X9735Y8295D03*
Y9705D03*
X9865Y4765D03*
X9955Y2185D03*
X10055Y14985D03*
X10095Y12785D03*
X10125Y11135D03*
X10175Y3735D03*
Y7255D03*
X10285Y17655D03*
X10375Y9535D03*
X10385Y4765D03*
X10445Y6345D03*
X10505Y10025D03*
X10855Y17665D03*
X10865Y7605D03*
X10889Y13965D03*
X11165Y6625D03*
X11185Y9685D03*
X11305Y17455D03*
X11645Y10075D03*
Y10535D03*
X11655Y17655D03*
X11955Y11285D03*
X12005Y17455D03*
X12355Y5095D03*
Y17655D03*
X12475Y13775D03*
X12535Y8065D03*
X12555Y6715D03*
X12605Y9295D03*
X12785Y6325D03*
X12805Y14765D03*
X12815Y11045D03*
X12825Y17655D03*
X12835Y10545D03*
X12845Y10025D03*
X12995Y12935D03*
X13035Y7285D03*
X13305Y15545D03*
X13345Y17655D03*
X13465Y4415D03*
X13475Y5965D03*
X13645Y8685D03*
X13785Y6745D03*
X13935Y17665D03*
X13985Y5515D03*
X14425Y17455D03*
X14555Y5725D03*
X14715Y13445D03*
X15035Y11785D03*
X15125Y17655D03*
X15245Y3055D03*
X15335Y6555D03*
X15345Y6105D03*
X15375Y7635D03*
X15495Y2105D03*
Y9295D03*
X15535Y17475D03*
X15645Y4615D03*
X15665Y5125D03*
X15685Y7195D03*
X16175Y17455D03*
X16195Y12665D03*
X16235Y6345D03*
X17125Y9865D03*
X17155Y18575D03*
X17655Y3585D03*
X17735Y9655D03*
X17825Y8105D03*
X18085Y13675D03*
X18485Y8425D03*
X18975Y13365D03*
X19395Y8815D03*
X19435Y15695D03*
X21125Y11815D03*
Y14835D03*
X21555Y11815D03*
X21995Y10275D03*
X22005Y11805D03*
X22415Y6535D03*
X22475Y13985D03*
X23525Y9535D03*
D02*
D89*
X7815Y3545D02*
X7825D01*
X9595Y5315*
Y7565*
X10045Y8015*
Y10115*
X10855Y10925*
X11925*
X12825Y10025*
X12845*
X8825Y9045D02*
X8245D01*
X7605Y8405*
X10375Y9535D02*
X10345D01*
Y7955*
X9825Y7435*
Y4765*
X9865*
X10865Y7605D02*
Y10125D01*
X11275Y10535*
X11645*
X11165Y6625D02*
X11185D01*
Y9685*
X11645Y10075D02*
X11675D01*
Y5775*
X13285*
X13475Y5965*
X11675Y5775D02*
X10675Y4775D01*
X10385*
Y4765*
X13785Y6745D02*
X14555Y5975D01*
Y5725*
X15335Y6555D02*
X15125D01*
X13315Y8365*
Y10855*
X13065Y11105*
X12845*
Y11045*
X12815*
X17655Y3585D02*
Y3565D01*
X17945*
X18655Y2855*
X18945*
X21575Y5485*
Y9745*
X22015Y10285*
Y10275*
X21995*
X17825Y8105D02*
X17355D01*
X15355Y6105*
X15345*
X0Y0D02*
M02*
