G04 EasyPC Gerber Version 20.0.2 Build 4112 *
G04 #@! TF.Part,Single*
G04 #@! TF.FileFunction,Copper,L1,Top *
%FSLAX24Y24*%
%MOIN*%
G04 #@! TA.AperFunction,SMDPad*
%ADD107R,0.01181X0.04724*%
%ADD140R,0.01200X0.02000*%
%ADD111R,0.01600X0.03500*%
%ADD108R,0.04724X0.01181*%
%ADD139R,0.02000X0.01200*%
%ADD135R,0.07200X0.01700*%
%ADD128R,0.04600X0.01800*%
%ADD17R,0.02400X0.02400*%
%ADD16R,0.02400X0.02400*%
%ADD138R,0.02600X0.04200*%
%ADD142R,0.03937X0.04291*%
%ADD110R,0.03940X0.04330*%
%ADD136R,0.04330X0.03940*%
%ADD137R,0.05500X0.07100*%
G04 #@! TA.AperFunction,ComponentPad*
%ADD28R,0.06000X0.06000*%
G04 #@! TA.AperFunction,SMDPad*
%ADD109R,0.06300X0.06300*%
G04 #@! TD.AperFunction*
%ADD10C,0.00500*%
%ADD14C,0.01000*%
%ADD74C,0.01500*%
%ADD113C,0.02000*%
%ADD130C,0.03000*%
G04 #@! TA.AperFunction,ViaPad*
%ADD29C,0.03200*%
G04 #@! TA.AperFunction,ComponentPad*
%ADD141C,0.03600*%
G04 #@! TD.AperFunction*
%ADD114C,0.04000*%
G04 #@! TA.AperFunction,ComponentPad*
%AMT112*0 Rectangle Pad at angle 45*21,1,0.06000,0.06000,0,0,45*%
%ADD112T112*%
X0Y0D02*
D02*
D10*
X2582Y19308D02*
X285Y17011D01*
Y16250*
X294Y16306*
X307Y16362*
X323Y16417*
X341Y16471*
X363Y16525*
X387Y16576*
X414Y16627*
X444Y16676*
X476Y16723*
X511Y16769*
X549Y16812*
X588Y16853*
X630Y16892*
X674Y16929*
X720Y16963*
X768Y16995*
X817Y17024*
X868Y17051*
X921Y17074*
X974Y17095*
X1029Y17112*
X1084Y17127*
X1140Y17139*
X1197Y17147*
X1254Y17153*
X1311Y17155*
X1369Y17154*
X1426Y17150*
X1483Y17143*
X1539Y17133*
X1595Y17120*
X1650Y17104*
X1704Y17084*
X1757Y17062*
X1808Y17037*
X1858Y17009*
X1907Y16979*
X1954Y16946*
X1999Y16910*
X2042Y16872*
X2082Y16832*
X2121Y16790*
X2157Y16745*
X2191Y16699*
X2222Y16651*
X2250Y16601*
X2276Y16550*
X2299Y16497*
X2319Y16444*
X2336Y16389*
X2350Y16333*
X2361Y16277*
X2369Y16220*
X2373Y16163*
X2375Y16105*
X2373Y16048*
X2369Y15991*
X2361Y15934*
X2350Y15878*
X2336Y15822*
X2319Y15767*
X2299Y15713*
X2276Y15661*
X2251Y15610*
X2222Y15560*
X2191Y15512*
X2158Y15465*
X2121Y15421*
X2083Y15378*
X2042Y15338*
X1999Y15300*
X1954Y15265*
X1908Y15231*
X1859Y15201*
X1809Y15173*
X1757Y15148*
X1704Y15126*
X1650Y15107*
X1596Y15091*
X1540Y15077*
X1483Y15067*
X1426Y15060*
X1369Y15056*
X1312Y15055*
X1255Y15057*
X1198Y15063*
X1141Y15071*
X1085Y15083*
X1029Y15098*
X975Y15115*
X921Y15136*
X869Y15159*
X818Y15186*
X769Y15215*
X721Y15246*
X675Y15281*
X631Y15317*
X589Y15356*
X549Y15398*
X512Y15441*
X477Y15486*
X444Y15533*
X414Y15582*
X387Y15633*
X363Y15685*
X341Y15738*
X323Y15792*
X307Y15847*
X295Y15903*
X285Y15960*
Y8250*
X294Y8306*
X307Y8362*
X323Y8417*
X341Y8471*
X363Y8525*
X387Y8576*
X414Y8627*
X444Y8676*
X476Y8723*
X511Y8769*
X549Y8812*
X588Y8853*
X630Y8892*
X674Y8929*
X720Y8963*
X768Y8995*
X817Y9024*
X868Y9051*
X921Y9074*
X974Y9095*
X1029Y9112*
X1084Y9127*
X1140Y9139*
X1197Y9147*
X1254Y9153*
X1311Y9155*
X1369Y9154*
X1426Y9150*
X1483Y9143*
X1539Y9133*
X1595Y9120*
X1650Y9104*
X1704Y9084*
X1757Y9062*
X1808Y9037*
X1858Y9009*
X1907Y8979*
X1954Y8946*
X1999Y8910*
X2042Y8872*
X2082Y8832*
X2121Y8790*
X2157Y8745*
X2191Y8699*
X2222Y8651*
X2250Y8601*
X2276Y8550*
X2299Y8497*
X2319Y8444*
X2336Y8389*
X2350Y8333*
X2361Y8277*
X2369Y8220*
X2373Y8163*
X2375Y8105*
X2373Y8048*
X2369Y7991*
X2361Y7934*
X2350Y7878*
X2336Y7822*
X2319Y7767*
X2299Y7713*
X2276Y7661*
X2251Y7610*
X2222Y7560*
X2191Y7512*
X2158Y7465*
X2121Y7421*
X2083Y7378*
X2042Y7338*
X1999Y7300*
X1954Y7265*
X1908Y7231*
X1859Y7201*
X1809Y7173*
X1757Y7148*
X1704Y7126*
X1650Y7107*
X1596Y7091*
X1540Y7077*
X1483Y7067*
X1426Y7060*
X1369Y7056*
X1312Y7055*
X1255Y7057*
X1198Y7063*
X1141Y7071*
X1085Y7083*
X1029Y7098*
X975Y7115*
X921Y7136*
X869Y7159*
X818Y7186*
X769Y7215*
X721Y7246*
X675Y7281*
X631Y7317*
X589Y7356*
X549Y7398*
X512Y7441*
X477Y7486*
X444Y7533*
X414Y7582*
X387Y7633*
X363Y7685*
X341Y7738*
X323Y7792*
X307Y7847*
X295Y7903*
X285Y7960*
Y7229*
X7209Y305*
X12115*
Y1815*
X18521*
X23945Y7239*
Y7755*
X23925Y7702*
X23902Y7651*
X23876Y7600*
X23847Y7552*
X23816Y7504*
X23783Y7459*
X23747Y7415*
X23708Y7374*
X23668Y7334*
X23625Y7297*
X23581Y7262*
X23535Y7229*
X23487Y7199*
X23437Y7172*
X23386Y7147*
X23334Y7126*
X23281Y7107*
X23226Y7091*
X23171Y7077*
X23116Y7067*
X23059Y7060*
X23003Y7056*
X22946Y7055*
X22890Y7057*
X22834Y7062*
X22778Y7070*
X22722Y7081*
X22667Y7095*
X22613Y7112*
X22560Y7132*
X22509Y7155*
X22458Y7180*
X22409Y7208*
X22361Y7239*
X22316Y7272*
X22272Y7308*
X22230Y7346*
X22190Y7386*
X22152Y7428*
X22117Y7472*
X22084Y7518*
X22054Y7566*
X22026Y7615*
X22001Y7666*
X21979Y7718*
X21959Y7771*
X21943Y7825*
X21929Y7880*
X21919Y7936*
X21911Y7992*
X21907Y8048*
X21905Y8105*
X21907Y8162*
X21911Y8218*
X21919Y8274*
X21929Y8330*
X21943Y8384*
X21959Y8439*
X21979Y8492*
X22001Y8544*
X22026Y8594*
X22054Y8644*
X22084Y8692*
X22117Y8738*
X22152Y8782*
X22190Y8824*
X22230Y8864*
X22272Y8902*
X22316Y8938*
X22361Y8971*
X22409Y9002*
X22458Y9030*
X22508Y9055*
X22560Y9078*
X22613Y9098*
X22667Y9115*
X22722Y9129*
X22777Y9140*
X22833Y9148*
X22890Y9153*
X22946Y9155*
X23003Y9154*
X23059Y9150*
X23115Y9143*
X23171Y9133*
X23226Y9119*
X23280Y9103*
X23334Y9084*
X23386Y9063*
X23437Y9038*
X23486Y9011*
X23534Y8981*
X23581Y8948*
X23625Y8913*
X23668Y8876*
X23708Y8837*
X23746Y8795*
X23783Y8751*
X23816Y8706*
X23847Y8659*
X23876Y8610*
X23902Y8559*
X23925Y8508*
X23945Y8455*
Y15755*
X23925Y15702*
X23902Y15651*
X23876Y15600*
X23847Y15552*
X23816Y15504*
X23783Y15459*
X23747Y15415*
X23708Y15374*
X23668Y15334*
X23625Y15297*
X23581Y15262*
X23535Y15229*
X23487Y15199*
X23437Y15172*
X23386Y15147*
X23334Y15126*
X23281Y15107*
X23226Y15091*
X23171Y15077*
X23116Y15067*
X23059Y15060*
X23003Y15056*
X22946Y15055*
X22890Y15057*
X22834Y15062*
X22778Y15070*
X22722Y15081*
X22667Y15095*
X22613Y15112*
X22560Y15132*
X22509Y15155*
X22458Y15180*
X22409Y15208*
X22361Y15239*
X22316Y15272*
X22272Y15308*
X22230Y15346*
X22190Y15386*
X22152Y15428*
X22117Y15472*
X22084Y15518*
X22054Y15566*
X22026Y15615*
X22001Y15666*
X21979Y15718*
X21959Y15771*
X21943Y15825*
X21929Y15880*
X21919Y15936*
X21911Y15992*
X21907Y16048*
X21905Y16105*
X21907Y16162*
X21911Y16218*
X21919Y16274*
X21929Y16330*
X21943Y16384*
X21959Y16439*
X21979Y16492*
X22001Y16544*
X22026Y16594*
X22054Y16644*
X22084Y16692*
X22117Y16738*
X22152Y16782*
X22190Y16824*
X22230Y16864*
X22272Y16902*
X22316Y16938*
X22361Y16971*
X22409Y17002*
X22458Y17030*
X22508Y17055*
X22560Y17078*
X22613Y17098*
X22667Y17115*
X22722Y17129*
X22777Y17140*
X22833Y17148*
X22890Y17153*
X22946Y17155*
X23003Y17154*
X23059Y17150*
X23115Y17143*
X23171Y17133*
X23226Y17119*
X23280Y17103*
X23334Y17084*
X23386Y17063*
X23437Y17038*
X23486Y17011*
X23534Y16981*
X23581Y16948*
X23625Y16913*
X23668Y16876*
X23708Y16837*
X23746Y16795*
X23783Y16751*
X23816Y16706*
X23847Y16659*
X23876Y16610*
X23902Y16559*
X23925Y16508*
X23945Y16455*
Y17021*
X20883Y20083*
X16975Y16175*
Y12655*
X16465Y12145*
X13480*
Y11828*
X13491Y11808*
X13499Y11788*
X13505Y11767*
X13509Y11746*
X13510Y11724*
Y11380*
X13980*
Y10490*
X13286*
X13203Y10407*
X13187Y10393*
X13169Y10380*
X13150Y10369*
X13129Y10361*
X13108Y10355*
X13087Y10351*
X13065Y10350*
X12999*
X12977Y10333*
X12954Y10319*
X12929Y10308*
X12902Y10299*
X12876Y10293*
X12848Y10290*
X12821Y10290*
X12793Y10293*
X12766Y10299*
X12740Y10308*
X12715Y10320*
X12692Y10334*
X12670Y10351*
X12650Y10370*
X12632Y10391*
X12616Y10414*
X12603Y10438*
X12593Y10464*
X12586Y10490*
X12581Y10517*
X12580Y10545*
X12581Y10571*
X12585Y10597*
X12592Y10622*
X12601Y10647*
X12613Y10670*
X12627Y10693*
X12643Y10713*
X12661Y10732*
X12682Y10749*
X12703Y10763*
X12726Y10776*
X12751Y10786*
X12776Y10793*
X12749Y10799*
X12722Y10807*
X12697Y10819*
X12673Y10833*
X12651Y10850*
X12631Y10869*
X12613Y10890*
X12597Y10913*
X12584Y10937*
X12573Y10963*
X12566Y10990*
X12561Y11017*
X12560Y11045*
X12562Y11073*
X12566Y11100*
X12574Y11127*
X12584Y11153*
X12597Y11178*
X12613Y11201*
X12631Y11222*
X12652Y11241*
X12674Y11257*
X12698Y11272*
X12724Y11283*
X12750Y11292*
X12777Y11297*
X12805Y11300*
X12833Y11299*
X12861Y11296*
X12886Y11321*
Y11480*
X12388*
Y10673*
X12387Y10655*
X12384Y10636*
X12377Y10618*
X12369Y10601*
X12358Y10585*
X12346Y10571*
X11896Y10121*
X11899Y10093*
X11900Y10064*
X11897Y10036*
X11891Y10009*
X11882Y9982*
X11870Y9956*
X11856Y9932*
X11839Y9909*
X11819Y9889*
X11797Y9871*
X11774Y9855*
X11749Y9842*
X11722Y9832*
X11695Y9825*
X11667Y9821*
X11639Y9820*
X11610Y9822*
X11583Y9828*
X11556Y9836*
X11530Y9848*
X11505Y9862*
X11482Y9879*
X11462Y9898*
X11443Y9919*
X11427Y9943*
X11414Y9967*
X11403Y9994*
X11396Y10021*
Y9829*
X11410Y9805*
X11421Y9781*
X11430Y9755*
X11436Y9728*
X12291*
Y9663*
X12382*
X12401Y9662*
X12419Y9658*
X12437Y9652*
X12454Y9644*
X12470Y9633*
X12484Y9621*
X12559Y9546*
X12586Y9549*
X12614Y9550*
X12641Y9547*
X12668Y9542*
X12695Y9534*
X12720Y9523*
X12744Y9509*
X12766Y9493*
X12786Y9474*
X12804Y9454*
X12820Y9431*
X12834Y9407*
X14166*
X14148Y9419*
X14132Y9432*
X13685Y9880*
X13055*
X13038Y9858*
X13018Y9838*
X12996Y9820*
X12973Y9804*
X12948Y9792*
X12922Y9782*
X12894Y9775*
X12866Y9771*
X12838Y9770*
X12810Y9772*
X12783Y9778*
X12756Y9786*
X12730Y9797*
X12706Y9811*
X12683Y9828*
X12662Y9847*
X12644Y9868*
X12628Y9891*
X12614Y9916*
X12604Y9942*
X12596Y9969*
X12591Y9997*
X12590Y10025*
X12592Y10053*
X12596Y10081*
X12604Y10108*
X12614Y10134*
X12628Y10159*
X12644Y10182*
X12662Y10203*
X12683Y10222*
X12706Y10239*
X12730Y10253*
X12756Y10264*
X12782Y10272*
X12810Y10278*
X12838Y10280*
X12866Y10279*
X12894Y10275*
X12921Y10268*
X12948Y10259*
X12973Y10246*
X12996Y10230*
X13018Y10213*
X13037Y10192*
X13055Y10170*
X13745*
X13764Y10169*
X13783Y10165*
X13800Y10159*
X13817Y10151*
X13833Y10140*
X13848Y10128*
X14247Y9728*
X15169*
Y9174*
X15244Y9249*
X15241Y9276*
X15240Y9304*
X15243Y9331*
X15248Y9358*
X15256Y9384*
X15267Y9409*
X15281Y9433*
X15297Y9456*
X15315Y9476*
X15336Y9494*
X15358Y9510*
X15382Y9524*
X15407Y9534*
X15433Y9542*
X15460Y9548*
X15488Y9550*
X15515Y9549*
X15542Y9546*
X15569Y9539*
X15595Y9530*
X15619Y9518*
X15643Y9503*
X15664Y9486*
Y10335*
X15666Y10356*
X15670Y10377*
X15676Y10397*
X15686Y10415*
X15697Y10433*
X15711Y10449*
X17131Y11869*
X17147Y11883*
X17165Y11894*
X17184Y11904*
X17203Y11910*
X17224Y11914*
X17245Y11916*
X18888*
X19260Y12295*
Y12880*
X19345*
Y13385*
X19336Y13404*
X19330Y13424*
X19326Y13444*
X19325Y13465*
Y13850*
X19260*
Y14480*
X18920*
Y13850*
X18835*
Y13578*
X18859Y13592*
X18884Y13603*
X18910Y13612*
X18937Y13617*
X18964Y13620*
X18991Y13619*
X19019Y13616*
X19045Y13610*
X19071Y13601*
X19096Y13589*
X19119Y13575*
X19141Y13558*
X19161Y13539*
X19179Y13518*
X19194Y13496*
X19207Y13471*
X19217Y13446*
X19224Y13420*
X19228Y13392*
X19230Y13365*
X19229Y13338*
X19224Y13311*
X19217Y13284*
X19207Y13259*
X19194Y13234*
X19179Y13212*
X19161Y13191*
X19141Y13172*
X19120Y13155*
X19096Y13141*
X19071Y13129*
X19045Y13120*
X19019Y13114*
X18992Y13111*
X18964Y13110*
X18937Y13113*
X18910Y13118*
X18884Y13127*
X18859Y13138*
X18835Y13152*
Y12880*
X18920*
Y12210*
X18410*
Y12880*
X18495*
Y13850*
X18410*
Y14520*
X18860*
Y14970*
X19740*
Y14520*
X19770*
Y13850*
X19685*
Y12880*
X19770*
Y12255*
X21178Y10848*
X21190Y10833*
X21201Y10817*
X21209Y10800*
X21215Y10783*
X21219Y10764*
X21220Y10745*
Y9370*
X21500*
Y8520*
X20650*
Y9370*
X20930*
Y10685*
X19517Y12098*
X19070Y11642*
X19054Y11628*
X19036Y11616*
X19017Y11607*
X18997Y11600*
X18976Y11596*
X18955Y11594*
X17312*
X15986Y10268*
Y9345*
X16050*
Y9790*
X16930*
Y9345*
X17625*
Y8385*
X16825*
Y9300*
X16685*
Y8385*
X15885*
Y8440*
X15838Y8392*
X15829Y8384*
X16321*
X16340Y8383*
X16359Y8379*
X16377Y8373*
X16394Y8364*
X16409Y8354*
X16424Y8341*
X17150Y7615*
X17625*
Y6655*
X17470*
Y6240*
X16590*
Y6655*
X15893*
X15895Y6640*
X15896Y6625*
Y6262*
X16072Y6086*
X17538*
X17838Y6385*
X17813*
Y7065*
X18420*
Y7085*
X17813*
Y7765*
X18457*
Y7570*
X18910*
Y6756*
X19805*
X19826Y6754*
X19846Y6750*
X19866Y6744*
X19885Y6735*
X19902Y6723*
X19918Y6709*
X20650Y5987*
Y6370*
X21500*
Y5520*
X20650*
Y5664*
X20585*
X20564Y5666*
X20544Y5670*
X20524Y5676*
X20505Y5685*
X20488Y5697*
X20472Y5711*
X19739Y6434*
X18457*
Y6385*
X18280*
X18271Y6370*
X18261Y6355*
X18249Y6341*
X17777Y5870*
X19355*
X19374Y5869*
X19393Y5865*
X19410Y5859*
X19427Y5851*
X19443Y5840*
X19458Y5828*
X20017Y5268*
X20215Y5466*
X20816Y4865*
X20215Y4264*
X19614Y4865*
X19812Y5063*
X19295Y5580*
X14765*
X14748Y5558*
X14728Y5538*
X14706Y5520*
X14683Y5504*
X14658Y5492*
X14631Y5482*
X14604Y5475*
X14576Y5471*
X14548Y5470*
X14520Y5472*
X14493Y5478*
X14466Y5486*
X14440Y5497*
X14416Y5511*
X14393Y5528*
X14372Y5547*
X14354Y5568*
X14338Y5591*
X14324Y5616*
X14314Y5642*
X14306Y5669*
X14302Y5697*
X14300Y5725*
X14302Y5753*
X14306Y5781*
X14314Y5808*
X14324Y5834*
X14338Y5859*
X14354Y5882*
X14372Y5903*
X14393Y5922*
X14416Y5939*
X14440Y5953*
X14466Y5964*
X14493Y5972*
X14520Y5978*
X14548Y5980*
X14576Y5979*
X14604Y5975*
X14631Y5968*
X14658Y5959*
X14683Y5946*
X14706Y5930*
X14728Y5912*
X14748Y5892*
X14765Y5870*
X15246*
X15221Y5882*
X15197Y5898*
X15175Y5915*
X15155Y5935*
X15137Y5957*
X15122Y5981*
X14199*
Y6464*
X14130Y6395*
Y5725*
X14152Y5708*
X14171Y5689*
X14189Y5668*
X14204Y5645*
X14217Y5621*
X14227Y5596*
X14234Y5569*
X14239Y5542*
X14240Y5515*
X14239Y5487*
X14234Y5460*
X14227Y5434*
X14216Y5408*
X14204Y5384*
X14188Y5361*
X14170Y5340*
X14150Y5321*
X14128Y5304*
X14104Y5290*
X14079Y5278*
X14053Y5269*
X14026Y5263*
X13999Y5260*
X13971*
X13944Y5263*
X13917Y5269*
X13891Y5278*
X13866Y5290*
X13842Y5304*
X13820Y5321*
X13800Y5340*
X13782Y5361*
X13767Y5383*
X13754Y5408*
X13743Y5433*
X13736Y5460*
X13732Y5487*
X13730Y5515*
X13731Y5542*
X13736Y5569*
X13743Y5596*
X13753Y5621*
X13766Y5645*
X13781Y5668*
X13799Y5689*
X13818Y5708*
X13840Y5725*
Y6455*
X13841Y6469*
X13843Y6484*
X13846Y6497*
X13819Y6492*
X13792Y6490*
X13764Y6491*
X13737Y6495*
X13710Y6501*
X13684Y6511*
X13659Y6523*
X13636Y6538*
Y6163*
X13657Y6144*
X13675Y6123*
X13692Y6099*
X13705Y6075*
X13716Y6048*
X13724Y6021*
X13728Y5993*
X13730Y5965*
X13729Y5937*
X13724Y5910*
X13717Y5883*
X13706Y5858*
X13693Y5833*
X13678Y5811*
X13660Y5789*
X13640Y5770*
X13618Y5754*
X13594Y5740*
X13569Y5728*
X13543Y5719*
X13516Y5713*
X13488Y5710*
X13461Y5710*
X13433Y5713*
X13406Y5719*
X13380Y5728*
X13355Y5740*
X13331Y5754*
X13309Y5771*
X13289Y5790*
X13271Y5811*
X13256Y5834*
X13243Y5859*
X13233Y5885*
X13226Y5911*
Y5752*
X14172Y4806*
X15476*
X15498Y4823*
X15521Y4838*
X15546Y4850*
X15572Y4859*
X15600Y4866*
X15627Y4869*
X15655Y4870*
X15683Y4867*
X15710Y4862*
X15737Y4853*
X15762Y4842*
X15786Y4827*
X15808Y4811*
X15829Y4792*
X15847Y4771*
X15863Y4748*
X15876Y4723*
X15886Y4697*
X15894Y4670*
X15899Y4643*
X15900Y4615*
X15899Y4587*
X15894Y4560*
X15887Y4534*
X15876Y4508*
X15863Y4483*
X15848Y4461*
X15830Y4439*
X15810Y4421*
X15788Y4404*
X15764Y4390*
X15739Y4378*
X15713Y4369*
X15686Y4363*
X15658Y4360*
X15631Y4360*
X15603Y4363*
X15576Y4369*
X15550Y4378*
X15525Y4390*
X15501Y4404*
X15479Y4421*
X15459Y4440*
X15442Y4461*
X15426Y4484*
X14105*
X14084Y4486*
X14063Y4490*
X14043Y4496*
X14025Y4506*
X14007Y4517*
X13991Y4531*
X12951Y5571*
X12937Y5587*
X12926Y5605*
X12916Y5624*
X12910Y5643*
X12906Y5664*
X12904Y5685*
Y6100*
X12882Y6089*
X12859Y6081*
X12835Y6075*
X12811Y6071*
X12786Y6070*
X12762Y6071*
X12737Y6075*
X12722Y6065*
X12705Y6057*
X12688Y6051*
X12670Y6048*
X12652Y6047*
X12291*
Y5981*
X11406*
X11419Y5969*
X11433Y5953*
X11444Y5935*
X11454Y5916*
X11460Y5897*
X11464Y5876*
X11466Y5855*
Y4175*
X11464Y4154*
X11460Y4133*
X11454Y4113*
X11444Y4095*
X11433Y4077*
X11419Y4061*
X10619Y3261*
X10603Y3247*
X10585Y3236*
X10566Y3226*
X10547Y3220*
X10526Y3216*
X10505Y3214*
X9925*
X9904Y3216*
X9883Y3220*
X9863Y3226*
X9845Y3236*
X9827Y3247*
X9811Y3261*
X9763Y3310*
Y2803*
X9699*
Y2460*
X9955*
X9980Y2459*
X10005Y2455*
X10029Y2449*
X10052Y2440*
X10074Y2429*
X10095Y2416*
X10115Y2400*
X10133Y2383*
X10151Y2364*
X10167Y2343*
X10181Y2321*
X10192Y2297*
X10200Y2273*
X10206Y2247*
X10209Y2221*
X10210Y2195*
X10210Y2185*
X10209Y2157*
X10204Y2130*
X10197Y2104*
X10186Y2078*
X10173Y2053*
X10158Y2031*
X10140Y2009*
X10120Y1991*
X10098Y1974*
X10074Y1960*
X10049Y1948*
X10023Y1939*
X9996Y1933*
X9968Y1930*
X9941Y1930*
X9913Y1933*
X9886Y1939*
X9860Y1948*
X9835Y1960*
X9690*
Y1470*
X9200*
Y1970*
X9187*
Y1823*
X8504*
Y2467*
X8677*
Y2663*
X8653*
Y2803*
X8323*
Y3243*
X7972*
X7953Y3244*
X7934Y3248*
X7916Y3254*
X7899Y3263*
X7884Y3273*
X7869Y3286*
X7861Y3294*
X7833Y3291*
X7805Y3290*
X7777Y3293*
X7750Y3298*
X7724Y3307*
X7698Y3318*
X7674Y3332*
X7652Y3349*
X7631Y3368*
X7613Y3389*
X7597Y3412*
X7584Y3437*
X7574Y3463*
X7566Y3490*
X7561Y3517*
X7560Y3545*
X7561Y3573*
X7566Y3600*
X7573Y3626*
X7584Y3652*
X7596Y3676*
X7612Y3699*
X7630Y3720*
X7650Y3739*
X7672Y3756*
X7696Y3770*
X7721Y3782*
X7747Y3791*
X7774Y3797*
X7801Y3800*
X7829*
X7856Y3797*
X7883Y3791*
X7909Y3782*
X7934Y3770*
X7958Y3756*
X7980Y3739*
X8000Y3720*
X8018Y3699*
X8033Y3677*
X8046Y3652*
X8057Y3627*
X8064Y3600*
X8068Y3573*
X8070Y3545*
X8070Y3533*
X8323*
Y3973*
X8653*
Y4113*
X8684*
Y4385*
X8686Y4406*
X8690Y4427*
X8696Y4447*
X8706Y4465*
X8717Y4483*
X8731Y4499*
X9111Y4879*
X9127Y4893*
X9145Y4904*
X9164Y4914*
X9183Y4920*
X9204Y4924*
X9225Y4926*
X9667*
X9686Y4947*
X9707Y4965*
X9730Y4982*
X9755Y4995*
X9781Y5006*
X9808Y5014*
X9836Y5018*
X9864Y5020*
Y5234*
X9268*
Y6176*
X9514*
Y6755*
X9516Y6776*
X9520Y6797*
X9526Y6817*
X9536Y6835*
X9547Y6853*
X9561Y6869*
X9921Y7229*
X9920Y7253*
X9921Y7277*
X9924Y7301*
X9422Y7803*
X9401Y7786*
X9377Y7771*
X9353Y7759*
X9327Y7750*
X9300Y7744*
X9273Y7741*
X9246Y7740*
X9218Y7743*
X9192Y7748*
X9165Y7756*
X9140Y7767*
X9117Y7781*
X9094Y7797*
X9074Y7815*
X9056Y7836*
X9040Y7858*
X9026Y7882*
X9016Y7907*
X9008Y7933*
X9002Y7960*
X8487*
X8507Y7943*
X8526Y7924*
X8542Y7904*
X8556Y7881*
X8568Y7858*
X8578Y7833*
X8585Y7808*
X8589Y7781*
X8590Y7755*
X8589Y7727*
X8584Y7700*
X8577Y7674*
X8566Y7648*
X8554Y7624*
X8538Y7601*
X8520Y7580*
X8500Y7561*
X8478Y7544*
X8454Y7530*
X8429Y7518*
X8403Y7509*
X8376Y7503*
X8349Y7500*
X8321*
X8294Y7503*
X8267Y7509*
X8241Y7518*
X8216Y7530*
X8192Y7544*
X8170Y7561*
X8150Y7580*
X8132Y7601*
X8117Y7623*
X8104Y7648*
X8093Y7673*
X8086Y7700*
X8082Y7727*
X8080Y7755*
X8081Y7781*
X8085Y7808*
X8092Y7833*
X8102Y7858*
X8114Y7881*
X8128Y7904*
X8144Y7924*
X8163Y7943*
X8183Y7960*
X8145*
X8127Y7938*
X8108Y7917*
X8086Y7900*
X8062Y7884*
X8037Y7871*
X8011Y7861*
X7983Y7855*
X7956Y7851*
X7927Y7850*
X7899Y7852*
X7871Y7858*
X7845Y7867*
X7819Y7878*
X7794Y7892*
X7772Y7909*
X7751Y7928*
X7733Y7950*
X7717Y7973*
X7704Y7998*
X7693Y8024*
X7686Y8051*
X7681Y8079*
X7680Y8107*
X7682Y8136*
X7687Y8163*
X7661Y8156*
X7634Y8152*
X7608Y8150*
X7581Y8151*
X7554Y8155*
X7528Y8162*
X7503Y8171*
X7479Y8183*
X7456Y8198*
X7435Y8215*
X7416Y8233*
X7399Y8254*
X7385Y8277*
X7372Y8301*
X7363Y8326*
X7356Y8352*
X7351Y8378*
X7350Y8405*
X7351Y8433*
X7356Y8460*
X7363Y8486*
X7374Y8512*
X7386Y8536*
X7402Y8559*
X7420Y8580*
X7440Y8599*
X7462Y8616*
X7486Y8630*
X7511Y8642*
X7537Y8651*
X7564Y8657*
X7591Y8660*
X7619*
X7646Y8657*
X7673Y8651*
X7699Y8642*
X7724Y8630*
X7748Y8616*
X7770Y8599*
X7790Y8580*
X7808Y8559*
X7823Y8537*
X7836Y8512*
X7847Y8487*
X7854Y8460*
X7858Y8433*
X7860Y8405*
X7859Y8385*
X7857Y8366*
X7853Y8347*
X7880Y8354*
X7907Y8358*
X7934Y8360*
X7962Y8359*
X7989Y8354*
X8015Y8347*
X8041Y8337*
X8065Y8324*
X8088Y8309*
X8109Y8292*
X8128Y8272*
X8145Y8250*
X9125*
X9144Y8249*
X9163Y8245*
X9181Y8239*
X9207Y8245*
X9234Y8249*
X9261Y8250*
X9288Y8248*
X9315Y8243*
X9341Y8235*
X9366Y8225*
X9390Y8211*
X9412Y8196*
X9432Y8178*
X9451Y8158*
X9467Y8136*
X9487Y8130*
X9505Y8122*
X9522Y8111*
X9538Y8098*
X10129Y7506*
X10157Y7509*
X10185Y7510*
X10213Y7507*
X10240Y7502*
X10266Y7493*
X10292Y7482*
X10316Y7468*
X10338Y7451*
X10359Y7432*
X10377Y7411*
X10393Y7388*
X10406Y7363*
X10416Y7337*
X10424Y7310*
X10429Y7283*
X10430Y7255*
X10429Y7228*
X10424Y7202*
X10418Y7176*
X10408Y7151*
X10396Y7128*
X10381Y7105*
X10365Y7084*
X10346Y7066*
X10325Y7049*
X10303Y7034*
X10279Y7022*
X10254Y7013*
X10228Y7006*
X10202Y7001*
X10175Y7000*
X10149Y7001*
X9836Y6688*
Y6176*
X9978*
Y5860*
X9997Y5853*
X10016Y5844*
X10033Y5832*
X10049Y5819*
X10092Y5775*
Y6176*
X10254*
X10238Y6197*
X10223Y6219*
X10212Y6242*
X10202Y6267*
X10195Y6293*
X10191Y6319*
X10190Y6345*
X10191Y6373*
X10196Y6400*
X10203Y6426*
X10214Y6452*
X10226Y6476*
X10242Y6499*
X10260Y6520*
X10280Y6539*
X10302Y6556*
X10326Y6570*
X10351Y6582*
X10377Y6591*
X10404Y6597*
X10431Y6600*
X10459*
X10486Y6597*
X10513Y6591*
X10539Y6582*
X10564Y6570*
X10588Y6556*
X10610Y6539*
X10630Y6520*
X10648Y6499*
X10663Y6477*
X10676Y6452*
X10687Y6427*
X10694Y6400*
X10698Y6373*
X10700Y6345*
X10699Y6319*
X10695Y6293*
X10688Y6267*
X10678Y6242*
X10667Y6219*
X10652Y6197*
X10636Y6176*
X10757*
X10751Y6181*
X10737Y6197*
X10726Y6215*
X10716Y6234*
X10710Y6253*
X10706Y6274*
X10704Y6295*
Y6955*
X10705Y6973*
X10708Y6991*
X10713Y7008*
X10720Y7024*
Y7395*
X10698Y7412*
X10678Y7432*
X10660Y7454*
X10644Y7477*
X10632Y7502*
X10622Y7529*
X10615Y7556*
X10611Y7584*
X10610Y7612*
X10612Y7640*
X10618Y7668*
X10626Y7694*
X10637Y7720*
X10652Y7744*
X10668Y7767*
X10687Y7788*
X10708Y7806*
X10732Y7822*
X9985*
X9964Y7824*
X9943Y7828*
X9923Y7835*
X9904Y7844*
X9887Y7856*
X9871Y7870*
X9736Y8006*
X9735*
X9715Y8007*
X9696Y8011*
X9677Y8017*
X9659Y8025*
X9642Y8036*
X9627Y8048*
X9613Y8062*
X9601Y8078*
X9580Y8093*
X9560Y8110*
X9542Y8128*
X9526Y8149*
X9512Y8171*
X9501Y8194*
X9492Y8218*
X9485Y8243*
X9481Y8269*
X9480Y8295*
X9481Y8323*
X9486Y8350*
X9493Y8376*
X9504Y8402*
X9516Y8426*
X9532Y8449*
X9550Y8470*
X9570Y8489*
X9592Y8506*
X9616Y8520*
X9641Y8532*
X9667Y8541*
X9694Y8547*
X9721Y8550*
X9749*
X9776Y8547*
X9803Y8541*
X9829Y8532*
X9854Y8520*
X9878Y8506*
X9900Y8489*
X9920Y8470*
X9938Y8449*
X9953Y8427*
X9966Y8402*
X9977Y8377*
X9984Y8350*
X9988Y8323*
X9990Y8295*
X9989Y8269*
X9985Y8243*
X9978Y8218*
X10052Y8144*
X11321*
Y8564*
X8605*
X8584Y8566*
X8563Y8570*
X8543Y8577*
X8525Y8586*
X8507Y8598*
X8491Y8611*
X8007Y9096*
X7940Y9029*
X7339Y9630*
X7940Y10231*
X8541Y9630*
X8234Y9323*
X8579Y8979*
X8573Y9006*
X8570Y9034*
X8571Y9062*
X8574Y9090*
X8580Y9117*
X8590Y9144*
X8602Y9169*
X8617Y9193*
X8635Y9215*
X8655Y9235*
X8676Y9252*
X8700Y9267*
X8725Y9280*
X8752Y9289*
X8779Y9296*
X8807Y9299*
X8835Y9300*
X8863Y9297*
X8890Y9291*
X8917Y9283*
X8943Y9271*
X8967Y9257*
X8989Y9240*
X9010Y9221*
X9028Y9200*
X9044Y9176*
X9057Y9152*
X9116*
X9093Y9168*
X9073Y9187*
X9054Y9208*
X9039Y9230*
X9025Y9255*
X9015Y9280*
X9007Y9307*
X9002Y9334*
X9000Y9362*
X9001Y9389*
X9005Y9417*
X9012Y9444*
X9022Y9469*
X9035Y9494*
X9050Y9517*
X9068Y9538*
X9088Y9558*
X9110Y9575*
Y10795*
X9111Y10814*
X9115Y10833*
X9121Y10850*
X9129Y10867*
X9140Y10883*
X9152Y10898*
X9812Y11558*
X9827Y11570*
X9843Y11581*
X9860Y11589*
X9877Y11595*
X9896Y11599*
X9915Y11600*
X10091*
Y12145*
X9925*
Y11755*
X7365*
X5785Y13335*
Y16105*
X2582Y19308*
X2389Y14580D02*
X2990Y15181D01*
X3591Y14580*
X2990Y13979*
X2389Y14580*
X3096Y13873D02*
X3697Y14474D01*
X4298Y13873*
X3697Y13272*
X3096Y13873*
X3601Y5719D02*
X3624Y5740D01*
X3649Y5758*
X3675Y5774*
X3703Y5787*
X3732Y5797*
X3763Y5804*
X3793Y5808*
X3824Y5808*
X3855Y5806*
X3885Y5801*
X3915Y5792*
X3944Y5781*
X3971Y5766*
X3997Y5749*
X4021Y5730*
X4043Y5708*
X4062Y5684*
X4079Y5658*
X4094Y5631*
X4105Y5602*
X4114Y5573*
X4119Y5542*
X4121Y5511*
X4121Y5481*
X4117Y5450*
X4110Y5420*
X4100Y5391*
X4087Y5363*
X4071Y5336*
X4053Y5311*
X4032Y5288*
X4009Y5267*
X3984Y5249*
X3958Y5233*
X3930Y5220*
X3900Y5210*
X3870Y5203*
X3840Y5199*
X3809Y5199*
X3778Y5201*
X3748Y5206*
X3718Y5215*
X3689Y5226*
X3662Y5241*
X3636Y5258*
X3612Y5277*
X3590Y5299*
X3571Y5323*
X3554Y5349*
X3539Y5376*
X3528Y5405*
X3519Y5434*
X3514Y5465*
X3512Y5496*
X3512Y5527*
X3516Y5557*
X3523Y5587*
X3533Y5616*
X3546Y5645*
X3562Y5671*
X3580Y5696*
X3601Y5719*
X3803Y13166D02*
X4404Y13767D01*
X5005Y13166*
X4404Y12565*
X3803Y13166*
X4510Y12459D02*
X5111Y13060D01*
X5712Y12459*
X5111Y11858*
X4510Y12459*
X5218Y11751D02*
X5819Y12352D01*
X6420Y11751*
X5819Y11150*
X5218Y11751*
X5828Y3492D02*
X5851Y3513D01*
X5876Y3531*
X5903Y3546*
X5931Y3559*
X5960Y3569*
X5990Y3576*
X6021Y3580*
X6051Y3581*
X6082Y3579*
X6113Y3573*
X6142Y3565*
X6171Y3553*
X6199Y3539*
X6224Y3522*
X6248Y3503*
X6270Y3481*
X6290Y3457*
X6307Y3431*
X6321Y3404*
X6332Y3375*
X6341Y3345*
X6346Y3315*
X6349Y3284*
X6348Y3253*
X6344Y3223*
X6337Y3192*
X6327Y3163*
X6314Y3135*
X6299Y3109*
X6280Y3084*
X6260Y3060*
X6237Y3040*
X6212Y3021*
X6185Y3006*
X6157Y2993*
X6128Y2983*
X6098Y2976*
X6067Y2972*
X6036Y2971*
X6005Y2974*
X5975Y2979*
X5945Y2987*
X5917Y2999*
X5889Y3013*
X5863Y3030*
X5839Y3050*
X5818Y3072*
X5798Y3096*
X5781Y3121*
X5767Y3149*
X5755Y3177*
X5747Y3207*
X5741Y3237*
X5739Y3268*
X5740Y3299*
X5744Y3330*
X5751Y3360*
X5761Y3389*
X5773Y3417*
X5789Y3444*
X5807Y3469*
X5828Y3492*
X5925Y11044D02*
X6526Y11645D01*
X7127Y11044*
X6526Y10443*
X5925Y11044*
X6632Y10337D02*
X7233Y10938D01*
X7834Y10337*
X7233Y9736*
X6632Y10337*
X9187Y1123D02*
X8504D01*
Y1767*
X9187*
Y1123*
X13210Y4415D02*
X13211Y4443D01*
X13216Y4470*
X13223Y4496*
X13234Y4522*
X13246Y4546*
X13262Y4569*
X13280Y4590*
X13300Y4609*
X13322Y4626*
X13346Y4640*
X13371Y4652*
X13397Y4661*
X13424Y4667*
X13451Y4670*
X13479*
X13506Y4667*
X13533Y4661*
X13559Y4652*
X13584Y4640*
X13608Y4626*
X13630Y4609*
X13650Y4590*
X13668Y4569*
X13683Y4547*
X13696Y4522*
X13707Y4497*
X13714Y4470*
X13718Y4443*
X13720Y4415*
X13719Y4387*
X13714Y4360*
X13707Y4334*
X13696Y4308*
X13684Y4284*
X13668Y4261*
X13650Y4240*
X13630Y4221*
X13608Y4204*
X13584Y4190*
X13559Y4178*
X13533Y4169*
X13506Y4163*
X13479Y4160*
X13451*
X13424Y4163*
X13397Y4169*
X13371Y4178*
X13346Y4190*
X13322Y4204*
X13300Y4221*
X13280Y4240*
X13262Y4261*
X13247Y4283*
X13234Y4308*
X13223Y4333*
X13216Y4360*
X13212Y4387*
X13210Y4415*
X15291Y3306D02*
X16245Y4260D01*
X16260Y4273*
X16275Y4283*
X16292Y4292*
X16310Y4298*
X16329Y4302*
X16348Y4303*
X19052*
X19508Y4759*
X20109Y4158*
X19508Y3557*
X19052Y4013*
X18840*
X19402Y3451*
X18801Y2850*
X18200Y3451*
X18762Y4013*
X16408*
X15496Y3101*
X15499Y3078*
X15500Y3055*
X15499Y3027*
X15494Y3000*
X15487Y2974*
X15476Y2948*
X15464Y2924*
X15448Y2901*
X15430Y2880*
X15410Y2861*
X15388Y2844*
X15364Y2830*
X15339Y2818*
X15313Y2809*
X15286Y2803*
X15259Y2800*
X15231*
X15204Y2803*
X15177Y2809*
X15151Y2818*
X15126Y2830*
X15102Y2844*
X15080Y2861*
X15060Y2880*
X15042Y2901*
X15027Y2923*
X15014Y2948*
X15003Y2973*
X14996Y3000*
X14992Y3027*
X14990Y3055*
X14992Y3083*
X14996Y3110*
X15004Y3137*
X15014Y3163*
X15027Y3188*
X15043Y3211*
X15061Y3232*
X15082Y3251*
X15104Y3267*
X15128Y3282*
X15154Y3293*
X15180Y3302*
X15207Y3307*
X15235Y3310*
X15263Y3309*
X15291Y3306*
X17400Y3585D02*
X17401Y3613D01*
X17406Y3640*
X17413Y3666*
X17424Y3692*
X17436Y3716*
X17452Y3739*
X17470Y3760*
X17490Y3779*
X17512Y3796*
X17536Y3810*
X17561Y3822*
X17587Y3831*
X17614Y3837*
X17641Y3840*
X17669*
X17696Y3837*
X17723Y3831*
X17749Y3822*
X17774Y3810*
X17798Y3796*
X17820Y3779*
X17840Y3760*
X17858Y3739*
X17873Y3717*
X17886Y3692*
X17897Y3667*
X17904Y3640*
X17908Y3613*
X17910Y3585*
X17909Y3557*
X17904Y3530*
X17897Y3504*
X17886Y3478*
X17874Y3454*
X17858Y3431*
X17840Y3410*
X17820Y3391*
X17798Y3374*
X17774Y3360*
X17749Y3348*
X17723Y3339*
X17696Y3333*
X17669Y3330*
X17641*
X17614Y3333*
X17587Y3339*
X17561Y3348*
X17536Y3360*
X17512Y3374*
X17490Y3391*
X17470Y3410*
X17452Y3431*
X17437Y3453*
X17424Y3478*
X17413Y3503*
X17406Y3530*
X17402Y3557*
X17400Y3585*
X17665Y9410D02*
X17639Y9419D01*
X17614Y9430*
X17591Y9445*
X17569Y9461*
X17549Y9480*
X17531Y9501*
X17516Y9524*
X17503Y9548*
X17493Y9574*
X17486Y9600*
X17481Y9628*
X17480Y9655*
X17481Y9683*
X17486Y9710*
X17493Y9736*
X17504Y9762*
X17516Y9786*
X17532Y9809*
X17550Y9830*
X17570Y9849*
X17592Y9866*
X17616Y9880*
X17641Y9892*
X17667Y9901*
X17694Y9907*
X17721Y9910*
X17749*
X17776Y9907*
X17803Y9901*
X17829Y9892*
X17854Y9880*
X17878Y9866*
X17900Y9849*
X17920Y9830*
X17938Y9809*
X17954Y9787*
X17966Y9762*
X17977Y9737*
X17984Y9710*
X17989Y9683*
X17990Y9655*
X17989Y9630*
X18360*
Y9135*
X18430Y9205*
Y9590*
X18540*
Y10560*
X18430*
Y11230*
X18940*
Y10560*
X18830*
Y9590*
X18940*
Y8920*
X18555*
X18498Y8862*
X18483Y8850*
X18467Y8839*
X18450Y8831*
X18433Y8825*
X18414Y8821*
X18395Y8820*
X18360*
Y8750*
X18210*
Y8415*
X18209Y8396*
X18205Y8378*
X18199Y8360*
X18191Y8343*
X18180Y8327*
X18168Y8313*
X18060Y8205*
X18069Y8181*
X18075Y8156*
X18079Y8131*
X18080Y8105*
X18080Y8090*
X20650*
Y8370*
X21500*
Y7520*
X20650*
Y7800*
X17985*
X17966Y7801*
X17947Y7805*
X17930Y7811*
X17913Y7819*
X17897Y7830*
X17882Y7842*
X17871Y7854*
X17843Y7851*
X17815Y7850*
X17787Y7853*
X17760Y7858*
X17734Y7867*
X17708Y7878*
X17684Y7892*
X17662Y7909*
X17641Y7928*
X17623Y7949*
X17607Y7972*
X17594Y7997*
X17584Y8023*
X17576Y8050*
X17571Y8077*
X17570Y8105*
X17571Y8132*
X17576Y8159*
X17583Y8185*
X17593Y8210*
X17605Y8234*
X17620Y8257*
X17637Y8278*
X17657Y8297*
X17678Y8313*
X17701Y8328*
X17725Y8340*
X17751Y8349*
X17777Y8355*
X17804Y8359*
X17920Y8475*
Y8750*
X17870*
Y9234*
X17850Y9243*
X17831Y9254*
X17814Y9268*
X17665Y9410*
X18094Y3345D02*
X18695Y2744D01*
X18094Y2143*
X17493Y2744*
X18094Y3345*
X18485Y8170D02*
X18457Y8171D01*
X18430Y8176*
X18404Y8183*
X18378Y8194*
X18354Y8206*
X18331Y8222*
X18310Y8240*
X18291Y8260*
X18274Y8282*
X18260Y8306*
X18248Y8331*
X18239Y8357*
X18233Y8384*
X18230Y8411*
Y8439*
X18233Y8466*
X18239Y8493*
X18248Y8519*
X18260Y8544*
X18274Y8568*
X18291Y8590*
X18310Y8610*
X18331Y8628*
X18353Y8643*
X18378Y8656*
X18403Y8667*
X18430Y8674*
X18457Y8678*
X18485Y8680*
X18513Y8679*
X18540Y8674*
X18566Y8667*
X18592Y8656*
X18616Y8644*
X18639Y8628*
X18660Y8610*
X18679Y8590*
X18696Y8568*
X18710Y8544*
X18722Y8519*
X18731Y8493*
X18737Y8466*
X18740Y8439*
Y8411*
X18737Y8384*
X18731Y8357*
X18722Y8331*
X18710Y8306*
X18696Y8282*
X18679Y8260*
X18660Y8240*
X18639Y8222*
X18617Y8207*
X18592Y8194*
X18567Y8183*
X18540Y8176*
X18513Y8172*
X18485Y8170*
X19790Y9590D02*
Y8920D01*
X19280*
Y9590*
X19790*
Y11230D02*
Y10560D01*
X19280*
Y11230*
X19790*
X20650Y7370D02*
X21500D01*
Y6520*
X20650*
Y7370*
X20980Y12025D02*
Y12035D01*
X20981Y12054*
X20985Y12073*
X20991Y12090*
X21000Y12107*
X21010Y12123*
X21023Y12138*
X21972Y13088*
X21987Y13100*
X22002Y13111*
X22019Y13119*
X22037Y13125*
X22056Y13129*
X22075Y13130*
X22183*
Y13355*
X22314*
Y13787*
X22296Y13804*
X22279Y13822*
X22264Y13842*
X22251Y13864*
X22240Y13887*
X22231Y13911*
X22225Y13935*
X22221Y13960*
X22220Y13985*
X22221Y14013*
X22226Y14040*
X22233Y14066*
X22244Y14092*
X22256Y14116*
X22272Y14139*
X22290Y14160*
X22310Y14179*
X22332Y14196*
X22356Y14210*
X22381Y14222*
X22407Y14231*
X22434Y14237*
X22461Y14240*
X22489*
X22516Y14237*
X22543Y14231*
X22569Y14222*
X22594Y14210*
X22618Y14196*
X22640Y14179*
X22660Y14160*
X22678Y14139*
X22693Y14117*
X22706Y14092*
X22717Y14067*
X22724Y14040*
X22728Y14013*
X22730Y13985*
X22728Y13957*
X22724Y13929*
X22716Y13902*
X22705Y13875*
X22692Y13851*
X22676Y13827*
X22657Y13806*
X22636Y13787*
Y13355*
X22827*
Y12676*
X22711*
X22702Y12665*
X22691Y12655*
X22827*
Y11976*
X22401*
X22258Y11833*
X22260Y11819*
X22260Y11805*
X22259Y11777*
X22254Y11750*
X22247Y11724*
X22236Y11698*
X22224Y11674*
X22208Y11651*
X22190Y11630*
X22170Y11611*
X22148Y11594*
X22124Y11580*
X22099Y11568*
X22073Y11559*
X22046Y11553*
X22019Y11550*
X21991*
X21964Y11553*
X21937Y11559*
X21911Y11568*
X21886Y11580*
X21862Y11594*
X21840Y11611*
X21820Y11630*
X21802Y11651*
X21787Y11673*
X21774Y11698*
X21763Y11723*
X21756Y11750*
X21752Y11777*
X21750Y11805*
X21751Y11832*
X21756Y11859*
X21763Y11885*
X21773Y11911*
X21786Y11935*
X21801Y11958*
X21818Y11978*
X21838Y11997*
X21859Y12014*
X21882Y12029*
X21907Y12040*
X21933Y12049*
X21959Y12056*
X21986Y12059*
X22013Y12060*
X22040Y12058*
X22067Y12052*
X22183Y12168*
Y12655*
X22399*
X22388Y12665*
X22379Y12676*
X22183*
Y12840*
X22135*
X21298Y12003*
X21316Y11984*
X21333Y11963*
X21347Y11941*
X21359Y11917*
X21368Y11893*
X21375Y11867*
X21379Y11841*
X21380Y11815*
X21379Y11787*
X21374Y11760*
X21367Y11734*
X21356Y11708*
X21344Y11684*
X21328Y11661*
X21310Y11640*
X21290Y11621*
X21268Y11604*
X21244Y11590*
X21219Y11578*
X21193Y11569*
X21166Y11563*
X21139Y11560*
X21111*
X21084Y11563*
X21057Y11569*
X21031Y11578*
X21006Y11590*
X20982Y11604*
X20960Y11621*
X20940Y11640*
X20922Y11661*
X20907Y11683*
X20894Y11708*
X20883Y11733*
X20876Y11760*
X20872Y11787*
X20870Y11815*
X20871Y11842*
X20876Y11869*
X20883Y11896*
X20893Y11921*
X20906Y11945*
X20921Y11968*
X20939Y11989*
X20958Y12008*
X20980Y12025*
X21740Y10620D02*
Y11500D01*
X22230*
Y10620*
X22146*
Y10481*
X22166Y10464*
X22185Y10445*
X22202Y10424*
X22216Y10402*
X22228Y10378*
X22238Y10353*
X22244Y10328*
X22249Y10302*
X22250Y10275*
X22249Y10247*
X22244Y10220*
X22237Y10194*
X22226Y10168*
X22214Y10144*
X22198Y10121*
X22180Y10100*
X22160Y10081*
X22138Y10064*
X22114Y10050*
X22089Y10038*
X22063Y10029*
X22036Y10023*
X22009Y10020*
X21981*
X21954Y10023*
X21927Y10029*
X21901Y10038*
X21876Y10050*
X21852Y10064*
X21830Y10081*
X21810Y10100*
X21792Y10121*
X21777Y10143*
X21764Y10168*
X21753Y10193*
X21746Y10220*
X21742Y10247*
X21740Y10275*
X21741Y10302*
X21746Y10328*
X21752Y10354*
X21762Y10379*
X21774Y10402*
X21789Y10425*
X21805Y10446*
X21824Y10464*
Y10620*
X21740*
X23365Y10730D02*
X23334Y10732D01*
X23304Y10736*
X23274Y10744*
X23245Y10755*
X23217Y10768*
X23191Y10785*
X23166Y10804*
X23144Y10825*
X23124Y10848*
X23106Y10874*
X23091Y10901*
X23079Y10929*
X23070Y10959*
X23064Y10989*
X23060Y11020*
Y11051*
X23064Y11081*
X23070Y11111*
X23079Y11141*
X23091Y11169*
X23106Y11196*
X23124Y11222*
X23144Y11245*
X23166Y11266*
X23191Y11285*
X23217Y11302*
X23245Y11315*
X23274Y11326*
X23304Y11334*
X23334Y11338*
X23365Y11340*
X23396Y11338*
X23426Y11334*
X23456Y11326*
X23485Y11315*
X23513Y11302*
X23539Y11285*
X23564Y11266*
X23586Y11245*
X23606Y11222*
X23624Y11196*
X23639Y11169*
X23651Y11141*
X23660Y11111*
X23666Y11081*
X23670Y11050*
Y11019*
X23666Y10989*
X23660Y10959*
X23651Y10929*
X23639Y10901*
X23624Y10874*
X23606Y10848*
X23586Y10825*
X23564Y10804*
X23539Y10785*
X23513Y10768*
X23485Y10755*
X23456Y10744*
X23426Y10736*
X23396Y10732*
X23365Y10730*
Y12690D02*
X23334Y12692D01*
X23304Y12696*
X23274Y12704*
X23245Y12715*
X23217Y12728*
X23191Y12745*
X23166Y12764*
X23144Y12785*
X23124Y12808*
X23106Y12834*
X23091Y12861*
X23079Y12889*
X23070Y12919*
X23064Y12949*
X23060Y12980*
Y13011*
X23064Y13041*
X23070Y13071*
X23079Y13101*
X23091Y13129*
X23106Y13156*
X23124Y13182*
X23144Y13205*
X23166Y13226*
X23191Y13245*
X23217Y13262*
X23245Y13275*
X23274Y13286*
X23304Y13294*
X23334Y13298*
X23365Y13300*
X23396Y13298*
X23426Y13294*
X23456Y13286*
X23485Y13275*
X23513Y13262*
X23539Y13245*
X23564Y13226*
X23586Y13205*
X23606Y13182*
X23624Y13156*
X23639Y13129*
X23651Y13101*
X23660Y13071*
X23666Y13041*
X23670Y13010*
Y12979*
X23666Y12949*
X23660Y12919*
X23651Y12889*
X23639Y12861*
X23624Y12834*
X23606Y12808*
X23586Y12785*
X23564Y12764*
X23539Y12745*
X23513Y12728*
X23485Y12715*
X23456Y12704*
X23426Y12696*
X23396Y12692*
X23365Y12690*
X7178Y336D02*
X12115D01*
X7130Y384D02*
X12115D01*
X7082Y432D02*
X12115D01*
X7034Y480D02*
X12115D01*
X6986Y528D02*
X12115D01*
X6938Y576D02*
X12115D01*
X6890Y624D02*
X12115D01*
X6842Y672D02*
X12115D01*
X6794Y720D02*
X12115D01*
X6745Y768D02*
X12115D01*
X6697Y816D02*
X12115D01*
X6649Y864D02*
X12115D01*
X6601Y912D02*
X12115D01*
X6553Y960D02*
X12115D01*
X6505Y1008D02*
X12115D01*
X6457Y1056D02*
X12115D01*
X6409Y1104D02*
X12115D01*
X6361Y1152D02*
X8504D01*
X9187D02*
X12115D01*
X6313Y1200D02*
X8504D01*
X9187D02*
X12115D01*
X6265Y1248D02*
X8504D01*
X9187D02*
X12115D01*
X6217Y1296D02*
X8504D01*
X9187D02*
X12115D01*
X6169Y1344D02*
X8504D01*
X9187D02*
X12115D01*
X6121Y1392D02*
X8504D01*
X9187D02*
X12115D01*
X6073Y1441D02*
X8504D01*
X9187D02*
X12115D01*
X6025Y1489D02*
X8504D01*
X9187D02*
X9200D01*
X9690D02*
X12115D01*
X5977Y1537D02*
X8504D01*
X9187D02*
X9200D01*
X9690D02*
X12115D01*
X5929Y1585D02*
X8504D01*
X9187D02*
X9200D01*
X9690D02*
X12115D01*
X5881Y1633D02*
X8504D01*
X9187D02*
X9200D01*
X9690D02*
X12115D01*
X5833Y1681D02*
X8504D01*
X9187D02*
X9200D01*
X9690D02*
X12115D01*
X5785Y1729D02*
X8504D01*
X9187D02*
X9200D01*
X9690D02*
X12115D01*
X5737Y1777D02*
X9200D01*
X9690D02*
X12115D01*
X5689Y1825D02*
X8504D01*
X9187D02*
X9200D01*
X9690D02*
X18531D01*
X5641Y1873D02*
X8504D01*
X9187D02*
X9200D01*
X9690D02*
X18579D01*
X5593Y1921D02*
X8504D01*
X9187D02*
X9200D01*
X9690D02*
X18627D01*
X5545Y1969D02*
X8504D01*
X9187D02*
X9200D01*
X10090D02*
X18675D01*
X5497Y2017D02*
X8504D01*
X10147D02*
X18723D01*
X5449Y2065D02*
X8504D01*
X10180D02*
X18771D01*
X5401Y2113D02*
X8504D01*
X10200D02*
X18819D01*
X5353Y2161D02*
X8504D01*
X10209D02*
X18075D01*
X18112D02*
X18867D01*
X5305Y2209D02*
X8504D01*
X10210D02*
X18027D01*
X18160D02*
X18915D01*
X5256Y2257D02*
X8504D01*
X10204D02*
X17979D01*
X18208D02*
X18964D01*
X5208Y2305D02*
X8504D01*
X10189D02*
X17931D01*
X18256D02*
X19012D01*
X5160Y2353D02*
X8504D01*
X10160D02*
X17883D01*
X18304D02*
X19060D01*
X5112Y2401D02*
X8504D01*
X10114D02*
X17835D01*
X18352D02*
X19108D01*
X5064Y2449D02*
X8504D01*
X10027D02*
X17787D01*
X18400D02*
X19156D01*
X5016Y2497D02*
X8677D01*
X9699D02*
X17739D01*
X18448D02*
X19204D01*
X4968Y2545D02*
X8677D01*
X9699D02*
X17691D01*
X18496D02*
X19252D01*
X4920Y2593D02*
X8677D01*
X9699D02*
X17643D01*
X18544D02*
X19300D01*
X4872Y2641D02*
X8677D01*
X9699D02*
X17595D01*
X18592D02*
X19348D01*
X4824Y2689D02*
X8653D01*
X9699D02*
X17547D01*
X18640D02*
X19396D01*
X4776Y2737D02*
X8653D01*
X9699D02*
X17499D01*
X18688D02*
X19444D01*
X4728Y2785D02*
X8653D01*
X9699D02*
X17534D01*
X18653D02*
X19492D01*
X4680Y2833D02*
X8323D01*
X9763D02*
X15119D01*
X15371D02*
X17582D01*
X18605D02*
X19540D01*
X4632Y2881D02*
X8323D01*
X9763D02*
X15058D01*
X15432D02*
X17630D01*
X18557D02*
X18769D01*
X18832D02*
X19588D01*
X4584Y2929D02*
X8323D01*
X9763D02*
X15023D01*
X15467D02*
X17678D01*
X18509D02*
X18721D01*
X18881D02*
X19636D01*
X4536Y2978D02*
X5982D01*
X6106D02*
X8323D01*
X9763D02*
X15002D01*
X15488D02*
X17726D01*
X18461D02*
X18673D01*
X18929D02*
X19684D01*
X4488Y3026D02*
X5870D01*
X6218D02*
X8323D01*
X9763D02*
X14992D01*
X15498D02*
X17775D01*
X18413D02*
X18625D01*
X18977D02*
X19732D01*
X4440Y3074D02*
X5816D01*
X6272D02*
X8323D01*
X9763D02*
X14991D01*
X15499D02*
X17823D01*
X18365D02*
X18577D01*
X19025D02*
X19780D01*
X4392Y3122D02*
X5781D01*
X6307D02*
X8323D01*
X9763D02*
X14999D01*
X15517D02*
X17871D01*
X18317D02*
X18529D01*
X19073D02*
X19828D01*
X4344Y3170D02*
X5758D01*
X6330D02*
X8323D01*
X9763D02*
X15017D01*
X15565D02*
X17919D01*
X18269D02*
X18481D01*
X19121D02*
X19876D01*
X4296Y3218D02*
X5745D01*
X6343D02*
X8323D01*
X9763D02*
X9892D01*
X10538D02*
X15049D01*
X15613D02*
X17967D01*
X18221D02*
X18433D01*
X19169D02*
X19924D01*
X4248Y3266D02*
X5739D01*
X6349D02*
X7894D01*
X9763D02*
X9807D01*
X10623D02*
X15101D01*
X15661D02*
X18015D01*
X18173D02*
X18385D01*
X19217D02*
X19972D01*
X4200Y3314D02*
X5741D01*
X6347D02*
X7708D01*
X10671D02*
X15299D01*
X15709D02*
X18063D01*
X18125D02*
X18337D01*
X19265D02*
X20020D01*
X4152Y3362D02*
X5751D01*
X6337D02*
X7638D01*
X10719D02*
X15347D01*
X15757D02*
X17532D01*
X17778D02*
X18289D01*
X19313D02*
X20068D01*
X4104Y3410D02*
X5770D01*
X6318D02*
X7599D01*
X10767D02*
X15395D01*
X15805D02*
X17470D01*
X17840D02*
X18241D01*
X19361D02*
X20116D01*
X4056Y3458D02*
X5799D01*
X6289D02*
X7575D01*
X10815D02*
X15443D01*
X15853D02*
X17434D01*
X17876D02*
X18207D01*
X19395D02*
X20164D01*
X4008Y3506D02*
X5843D01*
X6244D02*
X7563D01*
X10863D02*
X15491D01*
X15901D02*
X17413D01*
X17897D02*
X18255D01*
X19347D02*
X20212D01*
X3960Y3554D02*
X5918D01*
X6170D02*
X7560D01*
X8070D02*
X8323D01*
X10911D02*
X15539D01*
X15949D02*
X17402D01*
X17908D02*
X18303D01*
X19299D02*
X20260D01*
X3912Y3602D02*
X7566D01*
X8064D02*
X8323D01*
X10959D02*
X15587D01*
X15997D02*
X17401D01*
X17909D02*
X18351D01*
X19251D02*
X19463D01*
X19553D02*
X20308D01*
X3864Y3650D02*
X7583D01*
X8047D02*
X8323D01*
X11007D02*
X15635D01*
X16045D02*
X17408D01*
X17902D02*
X18399D01*
X19203D02*
X19415D01*
X19601D02*
X20356D01*
X3816Y3698D02*
X7611D01*
X8019D02*
X8323D01*
X11055D02*
X15683D01*
X16093D02*
X17426D01*
X17884D02*
X18447D01*
X19155D02*
X19367D01*
X19649D02*
X20404D01*
X3768Y3746D02*
X7658D01*
X7972D02*
X8323D01*
X11103D02*
X15731D01*
X16141D02*
X17457D01*
X17853D02*
X18495D01*
X19107D02*
X19319D01*
X19697D02*
X20452D01*
X3719Y3794D02*
X7760D01*
X7870D02*
X8323D01*
X11151D02*
X15779D01*
X16189D02*
X17509D01*
X17801D02*
X18543D01*
X19059D02*
X19271D01*
X19745D02*
X20501D01*
X3671Y3842D02*
X8323D01*
X11199D02*
X15827D01*
X16237D02*
X18591D01*
X19011D02*
X19223D01*
X19793D02*
X20549D01*
X3623Y3890D02*
X8323D01*
X11247D02*
X15875D01*
X16285D02*
X18639D01*
X18962D02*
X19175D01*
X19841D02*
X20597D01*
X3575Y3938D02*
X8323D01*
X11295D02*
X15923D01*
X16333D02*
X18687D01*
X18914D02*
X19127D01*
X19889D02*
X20645D01*
X3527Y3986D02*
X8653D01*
X11344D02*
X15971D01*
X16381D02*
X18735D01*
X18866D02*
X19079D01*
X19937D02*
X20693D01*
X3479Y4034D02*
X8653D01*
X11392D02*
X16019D01*
X19985D02*
X20741D01*
X3431Y4082D02*
X8653D01*
X11436D02*
X16067D01*
X20033D02*
X20789D01*
X3383Y4130D02*
X8684D01*
X11459D02*
X16115D01*
X20081D02*
X20837D01*
X3335Y4178D02*
X8684D01*
X11466D02*
X13370D01*
X13560D02*
X16163D01*
X20088D02*
X20885D01*
X3287Y4226D02*
X8684D01*
X11466D02*
X13293D01*
X13637D02*
X16211D01*
X20040D02*
X20933D01*
X3239Y4274D02*
X8684D01*
X11466D02*
X13252D01*
X13678D02*
X16262D01*
X19992D02*
X20205D01*
X20225D02*
X20981D01*
X3191Y4322D02*
X8684D01*
X11466D02*
X13227D01*
X13703D02*
X19071D01*
X19944D02*
X20157D01*
X20273D02*
X21029D01*
X3143Y4370D02*
X8684D01*
X11466D02*
X13214D01*
X13716D02*
X15573D01*
X15717D02*
X19119D01*
X19896D02*
X20109D01*
X20321D02*
X21077D01*
X3095Y4418D02*
X8688D01*
X11466D02*
X13210D01*
X13720D02*
X15483D01*
X15807D02*
X19167D01*
X19848D02*
X20061D01*
X20369D02*
X21125D01*
X3047Y4466D02*
X8706D01*
X11466D02*
X13215D01*
X13715D02*
X15438D01*
X15852D02*
X19215D01*
X19800D02*
X20012D01*
X20418D02*
X21173D01*
X2999Y4515D02*
X8747D01*
X11466D02*
X13230D01*
X13700D02*
X14011D01*
X15879D02*
X19264D01*
X19752D02*
X19964D01*
X20466D02*
X21221D01*
X2951Y4563D02*
X8795D01*
X11466D02*
X13257D01*
X13673D02*
X13960D01*
X15895D02*
X19312D01*
X19704D02*
X19916D01*
X20514D02*
X21269D01*
X2903Y4611D02*
X8843D01*
X11466D02*
X13301D01*
X13629D02*
X13912D01*
X15900D02*
X19360D01*
X19656D02*
X19868D01*
X20562D02*
X21317D01*
X2855Y4659D02*
X8891D01*
X11466D02*
X13390D01*
X13540D02*
X13864D01*
X15896D02*
X19408D01*
X19608D02*
X19820D01*
X20610D02*
X21365D01*
X2807Y4707D02*
X8939D01*
X11466D02*
X13816D01*
X15883D02*
X19456D01*
X19560D02*
X19772D01*
X20658D02*
X21413D01*
X2759Y4755D02*
X8987D01*
X11466D02*
X13768D01*
X15858D02*
X19504D01*
X19512D02*
X19724D01*
X20706D02*
X21461D01*
X2711Y4803D02*
X9035D01*
X11466D02*
X13720D01*
X15818D02*
X19676D01*
X20754D02*
X21509D01*
X2663Y4851D02*
X9083D01*
X11466D02*
X13672D01*
X14127D02*
X15548D01*
X15742D02*
X19628D01*
X20802D02*
X21557D01*
X2615Y4899D02*
X9136D01*
X11466D02*
X13624D01*
X14079D02*
X19648D01*
X20782D02*
X21605D01*
X2567Y4947D02*
X9686D01*
X11466D02*
X13576D01*
X14031D02*
X19696D01*
X20734D02*
X21653D01*
X2519Y4995D02*
X9755D01*
X11466D02*
X13528D01*
X13982D02*
X19744D01*
X20686D02*
X21701D01*
X2471Y5043D02*
X9864D01*
X11466D02*
X13480D01*
X13934D02*
X19792D01*
X20638D02*
X21749D01*
X2423Y5091D02*
X9864D01*
X11466D02*
X13432D01*
X13886D02*
X19784D01*
X20590D02*
X21797D01*
X2375Y5139D02*
X9864D01*
X11466D02*
X13384D01*
X13838D02*
X19736D01*
X20542D02*
X21845D01*
X2327Y5187D02*
X9864D01*
X11466D02*
X13336D01*
X13790D02*
X19688D01*
X20494D02*
X21893D01*
X2279Y5235D02*
X3672D01*
X3961D02*
X9268D01*
X11466D02*
X13288D01*
X13742D02*
X19640D01*
X20446D02*
X21941D01*
X2231Y5283D02*
X3606D01*
X4027D02*
X9268D01*
X11466D02*
X13240D01*
X13694D02*
X13879D01*
X14091D02*
X19592D01*
X20002D02*
X20032D01*
X20398D02*
X21989D01*
X2182Y5331D02*
X3565D01*
X4068D02*
X9268D01*
X11466D02*
X13192D01*
X13646D02*
X13808D01*
X14162D02*
X19544D01*
X19954D02*
X20080D01*
X20350D02*
X22038D01*
X2134Y5379D02*
X3538D01*
X4095D02*
X9268D01*
X11466D02*
X13144D01*
X13598D02*
X13769D01*
X14201D02*
X19496D01*
X19906D02*
X20128D01*
X20302D02*
X22086D01*
X2086Y5427D02*
X3521D01*
X4112D02*
X9268D01*
X11466D02*
X13096D01*
X13550D02*
X13746D01*
X14224D02*
X19448D01*
X19858D02*
X20176D01*
X20254D02*
X22134D01*
X2038Y5475D02*
X3513D01*
X4120D02*
X9268D01*
X11466D02*
X13048D01*
X13502D02*
X13733D01*
X14237D02*
X14504D01*
X14606D02*
X19400D01*
X19810D02*
X22182D01*
X1990Y5523D02*
X3512D01*
X4121D02*
X9268D01*
X11466D02*
X12999D01*
X13454D02*
X13730D01*
X14240D02*
X14399D01*
X14711D02*
X19352D01*
X19762D02*
X20650D01*
X21500D02*
X22230D01*
X1942Y5571D02*
X3519D01*
X4114D02*
X9268D01*
X11466D02*
X12951D01*
X13406D02*
X13736D01*
X14234D02*
X14352D01*
X14758D02*
X19304D01*
X19714D02*
X20650D01*
X21500D02*
X22278D01*
X1894Y5619D02*
X3534D01*
X4099D02*
X9268D01*
X11466D02*
X12918D01*
X13358D02*
X13752D01*
X14218D02*
X14323D01*
X19666D02*
X20650D01*
X21500D02*
X22326D01*
X1846Y5667D02*
X3559D01*
X4074D02*
X9268D01*
X11466D02*
X12905D01*
X13310D02*
X13780D01*
X14190D02*
X14307D01*
X19618D02*
X20554D01*
X21500D02*
X22374D01*
X1798Y5715D02*
X3597D01*
X4036D02*
X9268D01*
X11466D02*
X12904D01*
X13262D02*
X13423D01*
X13527D02*
X13827D01*
X14143D02*
X14300D01*
X19570D02*
X20467D01*
X21500D02*
X22422D01*
X1750Y5763D02*
X3657D01*
X3976D02*
X9268D01*
X11466D02*
X12904D01*
X13226D02*
X13319D01*
X13631D02*
X13840D01*
X14130D02*
X14303D01*
X19522D02*
X20419D01*
X21500D02*
X22470D01*
X1702Y5811D02*
X9268D01*
X10056D02*
X10092D01*
X11466D02*
X12904D01*
X13226D02*
X13271D01*
X13679D02*
X13840D01*
X14130D02*
X14315D01*
X19474D02*
X20370D01*
X21500D02*
X22518D01*
X1654Y5859D02*
X9268D01*
X9980D02*
X10092D01*
X11466D02*
X12904D01*
X13226D02*
X13243D01*
X13707D02*
X13840D01*
X14130D02*
X14338D01*
X19409D02*
X20321D01*
X21500D02*
X22566D01*
X1606Y5907D02*
X9268D01*
X9978D02*
X10092D01*
X11457D02*
X12904D01*
X13226D02*
X13227D01*
X13723D02*
X13840D01*
X14130D02*
X14377D01*
X14733D02*
X15184D01*
X17815D02*
X20273D01*
X21500D02*
X22614D01*
X1558Y5955D02*
X9268D01*
X9978D02*
X10092D01*
X11430D02*
X12904D01*
X13730D02*
X13840D01*
X14130D02*
X14446D01*
X14664D02*
X15138D01*
X17863D02*
X20224D01*
X21500D02*
X22662D01*
X1510Y6004D02*
X9268D01*
X9978D02*
X10092D01*
X12291D02*
X12904D01*
X13727D02*
X13840D01*
X14130D02*
X14199D01*
X17911D02*
X20175D01*
X20633D02*
X20650D01*
X21500D02*
X22710D01*
X1462Y6052D02*
X9268D01*
X9978D02*
X10092D01*
X12689D02*
X12904D01*
X13715D02*
X13840D01*
X14130D02*
X14199D01*
X17959D02*
X20127D01*
X20584D02*
X20650D01*
X21500D02*
X22758D01*
X1414Y6100D02*
X9268D01*
X9978D02*
X10092D01*
X13692D02*
X13840D01*
X14130D02*
X14199D01*
X16058D02*
X17552D01*
X18007D02*
X20078D01*
X20536D02*
X20650D01*
X21500D02*
X22806D01*
X1366Y6148D02*
X9268D01*
X9978D02*
X10092D01*
X13653D02*
X13840D01*
X14130D02*
X14199D01*
X16010D02*
X17600D01*
X18055D02*
X20029D01*
X20487D02*
X20650D01*
X21500D02*
X22854D01*
X1318Y6196D02*
X9514D01*
X9836D02*
X10238D01*
X10652D02*
X10739D01*
X13636D02*
X13840D01*
X14130D02*
X14199D01*
X15962D02*
X17648D01*
X18103D02*
X19981D01*
X20438D02*
X20650D01*
X21500D02*
X22902D01*
X1270Y6244D02*
X9514D01*
X9836D02*
X10211D01*
X10679D02*
X10713D01*
X13636D02*
X13840D01*
X14130D02*
X14199D01*
X15914D02*
X16590D01*
X17470D02*
X17696D01*
X18151D02*
X19932D01*
X20390D02*
X20650D01*
X21500D02*
X22950D01*
X1222Y6292D02*
X9514D01*
X9836D02*
X10196D01*
X10694D02*
X10704D01*
X13636D02*
X13840D01*
X14130D02*
X14199D01*
X15896D02*
X16590D01*
X17470D02*
X17744D01*
X18199D02*
X19883D01*
X20341D02*
X20650D01*
X21500D02*
X22998D01*
X1174Y6340D02*
X9514D01*
X9836D02*
X10190D01*
X10700D02*
X10704D01*
X13636D02*
X13840D01*
X14130D02*
X14199D01*
X15896D02*
X16590D01*
X17470D02*
X17792D01*
X18247D02*
X19835D01*
X20292D02*
X20650D01*
X21500D02*
X23046D01*
X1126Y6388D02*
X9514D01*
X9836D02*
X10194D01*
X10696D02*
X10704D01*
X13636D02*
X13840D01*
X14130D02*
X14199D01*
X15896D02*
X16590D01*
X17470D02*
X17813D01*
X18457D02*
X19786D01*
X20244D02*
X23094D01*
X1078Y6436D02*
X9514D01*
X9836D02*
X10207D01*
X10683D02*
X10704D01*
X13636D02*
X13840D01*
X14171D02*
X14199D01*
X15896D02*
X16590D01*
X17470D02*
X17813D01*
X20195D02*
X23142D01*
X1030Y6484D02*
X9514D01*
X9836D02*
X10231D01*
X10659D02*
X10704D01*
X13636D02*
X13843D01*
X15896D02*
X16590D01*
X17470D02*
X17813D01*
X20146D02*
X23190D01*
X982Y6532D02*
X9514D01*
X9836D02*
X10271D01*
X10619D02*
X10704D01*
X13636D02*
X13645D01*
X15896D02*
X16590D01*
X17470D02*
X17813D01*
X20098D02*
X20650D01*
X21500D02*
X23238D01*
X934Y6580D02*
X9514D01*
X9836D02*
X10346D01*
X10544D02*
X10704D01*
X15896D02*
X16590D01*
X17470D02*
X17813D01*
X20049D02*
X20650D01*
X21500D02*
X23286D01*
X886Y6628D02*
X9514D01*
X9836D02*
X10704D01*
X15896D02*
X16590D01*
X17470D02*
X17813D01*
X20000D02*
X20650D01*
X21500D02*
X23334D01*
X838Y6676D02*
X9514D01*
X9836D02*
X10704D01*
X17625D02*
X17813D01*
X19952D02*
X20650D01*
X21500D02*
X23382D01*
X790Y6724D02*
X9514D01*
X9871D02*
X10704D01*
X17625D02*
X17813D01*
X19901D02*
X20650D01*
X21500D02*
X23430D01*
X742Y6772D02*
X9515D01*
X9919D02*
X10704D01*
X17625D02*
X17813D01*
X18910D02*
X20650D01*
X21500D02*
X23478D01*
X694Y6820D02*
X9528D01*
X9967D02*
X10704D01*
X17625D02*
X17813D01*
X18910D02*
X20650D01*
X21500D02*
X23526D01*
X645Y6868D02*
X9561D01*
X10015D02*
X10704D01*
X17625D02*
X17813D01*
X18910D02*
X20650D01*
X21500D02*
X23575D01*
X597Y6916D02*
X9609D01*
X10063D02*
X10704D01*
X17625D02*
X17813D01*
X18910D02*
X20650D01*
X21500D02*
X23623D01*
X549Y6964D02*
X9657D01*
X10111D02*
X10705D01*
X17625D02*
X17813D01*
X18910D02*
X20650D01*
X21500D02*
X23671D01*
X501Y7012D02*
X9705D01*
X10253D02*
X10715D01*
X17625D02*
X17813D01*
X18910D02*
X20650D01*
X21500D02*
X23719D01*
X453Y7060D02*
X1221D01*
X1429D02*
X9753D01*
X10340D02*
X10720D01*
X17625D02*
X17813D01*
X18910D02*
X20650D01*
X21500D02*
X22851D01*
X23059D02*
X23767D01*
X405Y7108D02*
X995D01*
X1655D02*
X9801D01*
X10384D02*
X10720D01*
X17625D02*
X17813D01*
X18910D02*
X20650D01*
X21500D02*
X22625D01*
X23285D02*
X23815D01*
X357Y7156D02*
X875D01*
X1775D02*
X9849D01*
X10410D02*
X10720D01*
X17625D02*
X17813D01*
X18910D02*
X20650D01*
X21500D02*
X22505D01*
X23405D02*
X23863D01*
X309Y7204D02*
X785D01*
X1865D02*
X9897D01*
X10425D02*
X10720D01*
X17625D02*
X17813D01*
X18910D02*
X20650D01*
X21500D02*
X22415D01*
X23495D02*
X23911D01*
X285Y7252D02*
X712D01*
X1938D02*
X9920D01*
X10430D02*
X10720D01*
X17625D02*
X17813D01*
X18910D02*
X20650D01*
X21500D02*
X22342D01*
X23568D02*
X23945D01*
X285Y7300D02*
X650D01*
X2000D02*
X9924D01*
X10426D02*
X10720D01*
X17625D02*
X17813D01*
X18910D02*
X20650D01*
X21500D02*
X22280D01*
X23630D02*
X23945D01*
X285Y7348D02*
X597D01*
X2053D02*
X9877D01*
X10412D02*
X10720D01*
X17625D02*
X17813D01*
X18910D02*
X20650D01*
X21500D02*
X22227D01*
X23683D02*
X23945D01*
X285Y7396D02*
X550D01*
X2100D02*
X9829D01*
X10387D02*
X10718D01*
X17625D02*
X17813D01*
X18910D02*
X22180D01*
X23730D02*
X23945D01*
X285Y7444D02*
X509D01*
X2141D02*
X9780D01*
X10346D02*
X10667D01*
X17625D02*
X17813D01*
X18910D02*
X22139D01*
X23771D02*
X23945D01*
X285Y7492D02*
X472D01*
X2178D02*
X9732D01*
X10268D02*
X10636D01*
X17625D02*
X17813D01*
X18910D02*
X22102D01*
X23808D02*
X23945D01*
X285Y7541D02*
X440D01*
X2210D02*
X8197D01*
X8473D02*
X9684D01*
X10095D02*
X10618D01*
X17625D02*
X17813D01*
X18910D02*
X20650D01*
X21500D02*
X22070D01*
X23840D02*
X23945D01*
X285Y7589D02*
X411D01*
X2239D02*
X8142D01*
X8528D02*
X9636D01*
X10047D02*
X10611D01*
X17625D02*
X17813D01*
X18457D02*
X20650D01*
X21500D02*
X22041D01*
X23869D02*
X23945D01*
X285Y7637D02*
X385D01*
X2265D02*
X8109D01*
X8561D02*
X9588D01*
X9999D02*
X10612D01*
X17129D02*
X17813D01*
X18457D02*
X20650D01*
X21500D02*
X22015D01*
X23895D02*
X23945D01*
X285Y7685D02*
X363D01*
X2287D02*
X8090D01*
X8580D02*
X9540D01*
X9950D02*
X10623D01*
X17081D02*
X17813D01*
X18457D02*
X20650D01*
X21500D02*
X21993D01*
X23917D02*
X23945D01*
X285Y7733D02*
X343D01*
X2307D02*
X8081D01*
X8589D02*
X9492D01*
X9902D02*
X10644D01*
X17033D02*
X17813D01*
X18457D02*
X20650D01*
X21500D02*
X21973D01*
X23937D02*
X23945D01*
X285Y7781D02*
X326D01*
X2324D02*
X8081D01*
X8589D02*
X9117D01*
X9393D02*
X9444D01*
X9854D02*
X10680D01*
X16984D02*
X20650D01*
X21500D02*
X21956D01*
X285Y7829D02*
X312D01*
X2338D02*
X8091D01*
X8579D02*
X9062D01*
X9806D02*
X9940D01*
X16936D02*
X17898D01*
X21500D02*
X21942D01*
X285Y7877D02*
X300D01*
X2350D02*
X7821D01*
X8049D02*
X8111D01*
X8559D02*
X9029D01*
X9758D02*
X9864D01*
X16888D02*
X17711D01*
X21500D02*
X21930D01*
X285Y7925D02*
X291D01*
X2359D02*
X7755D01*
X8115D02*
X8145D01*
X8525D02*
X9010D01*
X9710D02*
X9816D01*
X16840D02*
X17645D01*
X21500D02*
X21921D01*
X2367Y7973D02*
X7717D01*
X9662D02*
X9769D01*
X16792D02*
X17607D01*
X21500D02*
X21913D01*
X2372Y8021D02*
X7694D01*
X9614D02*
X9668D01*
X16744D02*
X17584D01*
X21500D02*
X21908D01*
X2374Y8069D02*
X7683D01*
X9566D02*
X9608D01*
X16696D02*
X17573D01*
X21500D02*
X21906D01*
X2375Y8117D02*
X7680D01*
X9514D02*
X9552D01*
X16648D02*
X17570D01*
X18080D02*
X20650D01*
X21500D02*
X21905D01*
X2373Y8165D02*
X7519D01*
X9445D02*
X9516D01*
X10031D02*
X11321D01*
X16600D02*
X17577D01*
X18073D02*
X20650D01*
X21500D02*
X21907D01*
X2369Y8213D02*
X7437D01*
X9387D02*
X9494D01*
X9984D02*
X11321D01*
X16552D02*
X17594D01*
X18068D02*
X18343D01*
X18627D02*
X20650D01*
X21500D02*
X21911D01*
X285Y8261D02*
X287D01*
X2363D02*
X7395D01*
X8137D02*
X9482D01*
X9988D02*
X11321D01*
X16504D02*
X17623D01*
X18116D02*
X18290D01*
X18680D02*
X20650D01*
X21500D02*
X21917D01*
X285Y8309D02*
X295D01*
X2355D02*
X7369D01*
X8088D02*
X9480D01*
X9990D02*
X11321D01*
X16456D02*
X17672D01*
X18164D02*
X18258D01*
X18712D02*
X20650D01*
X21500D02*
X21925D01*
X285Y8357D02*
X306D01*
X2344D02*
X7355D01*
X7855D02*
X7896D01*
X7974D02*
X9488D01*
X9982D02*
X11321D01*
X16405D02*
X17786D01*
X18198D02*
X18239D01*
X18731D02*
X20650D01*
X21500D02*
X21936D01*
X285Y8405D02*
X319D01*
X2331D02*
X7350D01*
X7860D02*
X9505D01*
X9965D02*
X11321D01*
X15850D02*
X15885D01*
X16685D02*
X16825D01*
X17625D02*
X17850D01*
X18210D02*
X18231D01*
X18739D02*
X21949D01*
X285Y8453D02*
X334D01*
X2316D02*
X7355D01*
X7855D02*
X9535D01*
X9935D02*
X11321D01*
X16685D02*
X16825D01*
X17625D02*
X17898D01*
X18210D02*
X18232D01*
X18738D02*
X21964D01*
X285Y8501D02*
X353D01*
X2297D02*
X7369D01*
X7841D02*
X9585D01*
X9885D02*
X11321D01*
X16685D02*
X16825D01*
X17625D02*
X17920D01*
X18210D02*
X18242D01*
X18728D02*
X21983D01*
X23927D02*
X23945D01*
X285Y8549D02*
X374D01*
X2276D02*
X7395D01*
X7815D02*
X9714D01*
X9756D02*
X11321D01*
X16685D02*
X16825D01*
X17625D02*
X17920D01*
X18210D02*
X18262D01*
X18708D02*
X20650D01*
X21500D02*
X22004D01*
X23906D02*
X23945D01*
X285Y8597D02*
X398D01*
X2252D02*
X7437D01*
X7773D02*
X8508D01*
X16685D02*
X16825D01*
X17625D02*
X17920D01*
X18210D02*
X18297D01*
X18673D02*
X20650D01*
X21500D02*
X22028D01*
X23882D02*
X23945D01*
X285Y8645D02*
X425D01*
X2225D02*
X7519D01*
X7691D02*
X8458D01*
X16685D02*
X16825D01*
X17625D02*
X17920D01*
X18210D02*
X18356D01*
X18614D02*
X20650D01*
X21500D02*
X22055D01*
X23855D02*
X23945D01*
X285Y8693D02*
X455D01*
X2195D02*
X8410D01*
X16685D02*
X16825D01*
X17625D02*
X17920D01*
X18210D02*
X20650D01*
X21500D02*
X22085D01*
X23825D02*
X23945D01*
X285Y8741D02*
X490D01*
X2160D02*
X8361D01*
X16685D02*
X16825D01*
X17625D02*
X17920D01*
X18210D02*
X20650D01*
X21500D02*
X22120D01*
X23790D02*
X23945D01*
X285Y8789D02*
X529D01*
X2121D02*
X8313D01*
X16685D02*
X16825D01*
X17625D02*
X17870D01*
X18360D02*
X20650D01*
X21500D02*
X22159D01*
X23751D02*
X23945D01*
X285Y8837D02*
X573D01*
X2077D02*
X8265D01*
X16685D02*
X16825D01*
X17625D02*
X17870D01*
X18464D02*
X20650D01*
X21500D02*
X22203D01*
X23707D02*
X23945D01*
X285Y8885D02*
X623D01*
X2027D02*
X8217D01*
X16685D02*
X16825D01*
X17625D02*
X17870D01*
X18520D02*
X20650D01*
X21500D02*
X22253D01*
X23657D02*
X23945D01*
X285Y8933D02*
X680D01*
X1970D02*
X8169D01*
X16685D02*
X16825D01*
X17625D02*
X17870D01*
X18940D02*
X19280D01*
X19790D02*
X20650D01*
X21500D02*
X22310D01*
X23600D02*
X23945D01*
X285Y8981D02*
X747D01*
X1903D02*
X8121D01*
X8576D02*
X8578D01*
X16685D02*
X16825D01*
X17625D02*
X17870D01*
X18940D02*
X19280D01*
X19790D02*
X20650D01*
X21500D02*
X22377D01*
X23533D02*
X23945D01*
X285Y9029D02*
X827D01*
X1823D02*
X7939D01*
X7940D02*
X8073D01*
X8528D02*
X8570D01*
X16685D02*
X16825D01*
X17625D02*
X17870D01*
X18940D02*
X19280D01*
X19790D02*
X20650D01*
X21500D02*
X22457D01*
X23453D02*
X23945D01*
X285Y9078D02*
X929D01*
X1721D02*
X7891D01*
X7988D02*
X8025D01*
X8480D02*
X8572D01*
X16685D02*
X16825D01*
X17625D02*
X17870D01*
X18940D02*
X19280D01*
X19790D02*
X20650D01*
X21500D02*
X22559D01*
X23351D02*
X23945D01*
X285Y9126D02*
X1078D01*
X1572D02*
X7843D01*
X8432D02*
X8583D01*
X16685D02*
X16825D01*
X17625D02*
X17870D01*
X18940D02*
X19280D01*
X19790D02*
X20650D01*
X21500D02*
X22708D01*
X23202D02*
X23945D01*
X285Y9174D02*
X7795D01*
X8384D02*
X8605D01*
X9045D02*
X9087D01*
X16685D02*
X16825D01*
X17625D02*
X17870D01*
X18360D02*
X18399D01*
X18940D02*
X19280D01*
X19790D02*
X20650D01*
X21500D02*
X23945D01*
X285Y9222D02*
X7747D01*
X8336D02*
X8641D01*
X9009D02*
X9044D01*
X15169D02*
X15217D01*
X16685D02*
X16825D01*
X17625D02*
X17870D01*
X18360D02*
X18430D01*
X18940D02*
X19280D01*
X19790D02*
X20650D01*
X21500D02*
X23945D01*
X285Y9270D02*
X7699D01*
X8288D02*
X8704D01*
X8946D02*
X9019D01*
X15169D02*
X15241D01*
X16685D02*
X16825D01*
X17625D02*
X17813D01*
X18360D02*
X18430D01*
X18940D02*
X19280D01*
X19790D02*
X20650D01*
X21500D02*
X23945D01*
X285Y9318D02*
X7651D01*
X8240D02*
X9004D01*
X15169D02*
X15241D01*
X17625D02*
X17762D01*
X18360D02*
X18430D01*
X18940D02*
X19280D01*
X19790D02*
X20650D01*
X21500D02*
X23945D01*
X285Y9366D02*
X7603D01*
X8276D02*
X9000D01*
X15169D02*
X15250D01*
X15986D02*
X16050D01*
X16930D02*
X17712D01*
X18360D02*
X18430D01*
X18940D02*
X19280D01*
X19790D02*
X20650D01*
X21500D02*
X23945D01*
X285Y9414D02*
X7555D01*
X8325D02*
X9005D01*
X12831D02*
X14156D01*
X15169D02*
X15269D01*
X15986D02*
X16050D01*
X16930D02*
X17652D01*
X18360D02*
X18430D01*
X18940D02*
X19280D01*
X19790D02*
X20930D01*
X21220D02*
X23945D01*
X285Y9462D02*
X7507D01*
X8373D02*
X9019D01*
X12798D02*
X14103D01*
X15169D02*
X15302D01*
X15986D02*
X16050D01*
X16930D02*
X17569D01*
X18360D02*
X18430D01*
X18940D02*
X19280D01*
X19790D02*
X20930D01*
X21220D02*
X23945D01*
X285Y9510D02*
X7459D01*
X8421D02*
X9045D01*
X12742D02*
X14055D01*
X15169D02*
X15358D01*
X15632D02*
X15664D01*
X15986D02*
X16050D01*
X16930D02*
X17525D01*
X18360D02*
X18430D01*
X18940D02*
X19280D01*
X19790D02*
X20930D01*
X21220D02*
X23945D01*
X285Y9558D02*
X7411D01*
X8469D02*
X9088D01*
X12547D02*
X14007D01*
X15169D02*
X15664D01*
X15986D02*
X16050D01*
X16930D02*
X17499D01*
X18360D02*
X18430D01*
X18940D02*
X19280D01*
X19790D02*
X20930D01*
X21220D02*
X23945D01*
X285Y9606D02*
X7363D01*
X8517D02*
X9110D01*
X12499D02*
X13959D01*
X15169D02*
X15664D01*
X15986D02*
X16050D01*
X16930D02*
X17485D01*
X18360D02*
X18540D01*
X18830D02*
X20930D01*
X21220D02*
X23945D01*
X285Y9654D02*
X7363D01*
X8517D02*
X9110D01*
X12433D02*
X13911D01*
X15169D02*
X15664D01*
X15986D02*
X16050D01*
X16930D02*
X17480D01*
X17990D02*
X18540D01*
X18830D02*
X20930D01*
X21220D02*
X23945D01*
X285Y9702D02*
X7411D01*
X8469D02*
X9110D01*
X12291D02*
X13863D01*
X15169D02*
X15664D01*
X15986D02*
X16050D01*
X16930D02*
X17484D01*
X17986D02*
X18540D01*
X18830D02*
X20930D01*
X21220D02*
X23945D01*
X285Y9750D02*
X7219D01*
X7246D02*
X7459D01*
X8421D02*
X9110D01*
X11432D02*
X13815D01*
X14225D02*
X15664D01*
X15986D02*
X16050D01*
X16930D02*
X17498D01*
X17972D02*
X18540D01*
X18830D02*
X20930D01*
X21220D02*
X23945D01*
X285Y9798D02*
X7171D01*
X7295D02*
X7507D01*
X8373D02*
X9110D01*
X11414D02*
X12729D01*
X12961D02*
X13767D01*
X14177D02*
X15664D01*
X15986D02*
X17524D01*
X17946D02*
X18540D01*
X18830D02*
X20930D01*
X21220D02*
X23945D01*
X285Y9846D02*
X7123D01*
X7343D02*
X7555D01*
X8325D02*
X9110D01*
X11396D02*
X11533D01*
X11757D02*
X12663D01*
X13027D02*
X13719D01*
X14129D02*
X15664D01*
X15986D02*
X17566D01*
X17904D02*
X18540D01*
X18830D02*
X20930D01*
X21220D02*
X23945D01*
X285Y9894D02*
X7075D01*
X7391D02*
X7603D01*
X8277D02*
X9110D01*
X11396D02*
X11465D01*
X11825D02*
X12626D01*
X14081D02*
X15664D01*
X15986D02*
X17646D01*
X17824D02*
X18540D01*
X18830D02*
X20930D01*
X21220D02*
X23945D01*
X285Y9942D02*
X7027D01*
X7439D02*
X7651D01*
X8229D02*
X9110D01*
X11396D02*
X11427D01*
X11863D02*
X12604D01*
X14033D02*
X15664D01*
X15986D02*
X18540D01*
X18830D02*
X20930D01*
X21220D02*
X23945D01*
X285Y9990D02*
X6979D01*
X7487D02*
X7699D01*
X8181D02*
X9110D01*
X11396D02*
X11405D01*
X11885D02*
X12592D01*
X13985D02*
X15664D01*
X15986D02*
X18540D01*
X18830D02*
X20930D01*
X21220D02*
X23945D01*
X285Y10038D02*
X6931D01*
X7535D02*
X7747D01*
X8133D02*
X9110D01*
X11897D02*
X12590D01*
X13937D02*
X15664D01*
X15986D02*
X18540D01*
X18830D02*
X20930D01*
X21220D02*
X21901D01*
X22089D02*
X23945D01*
X285Y10086D02*
X6883D01*
X7583D02*
X7795D01*
X8085D02*
X9110D01*
X11900D02*
X12597D01*
X13889D02*
X15664D01*
X15986D02*
X18540D01*
X18830D02*
X20930D01*
X21220D02*
X21824D01*
X22166D02*
X23945D01*
X285Y10134D02*
X6835D01*
X7631D02*
X7843D01*
X8037D02*
X9110D01*
X11909D02*
X12615D01*
X13841D02*
X15664D01*
X15986D02*
X18540D01*
X18830D02*
X20930D01*
X21220D02*
X21782D01*
X22208D02*
X23945D01*
X285Y10182D02*
X6787D01*
X7679D02*
X7891D01*
X7989D02*
X9110D01*
X11957D02*
X12644D01*
X13046D02*
X15664D01*
X15986D02*
X18540D01*
X18830D02*
X20930D01*
X21220D02*
X21757D01*
X22233D02*
X23945D01*
X285Y10230D02*
X6739D01*
X7727D02*
X7939D01*
X7941D02*
X9110D01*
X12005D02*
X12694D01*
X12996D02*
X15664D01*
X15986D02*
X18540D01*
X18830D02*
X20930D01*
X21220D02*
X21744D01*
X22246D02*
X23945D01*
X285Y10278D02*
X6691D01*
X7775D02*
X9110D01*
X12053D02*
X12816D01*
X12874D02*
X15664D01*
X15996D02*
X18540D01*
X18830D02*
X20930D01*
X21220D02*
X21740D01*
X22250D02*
X23945D01*
X285Y10326D02*
X6643D01*
X7823D02*
X9110D01*
X12101D02*
X12704D01*
X12966D02*
X15664D01*
X16044D02*
X18540D01*
X18830D02*
X20930D01*
X21220D02*
X21745D01*
X22245D02*
X23945D01*
X285Y10374D02*
X6669D01*
X7797D02*
X9110D01*
X12149D02*
X12646D01*
X13159D02*
X15669D01*
X16092D02*
X18540D01*
X18830D02*
X20930D01*
X21220D02*
X21760D01*
X22230D02*
X23945D01*
X285Y10422D02*
X6717D01*
X7749D02*
X9110D01*
X12197D02*
X12611D01*
X13218D02*
X15690D01*
X16140D02*
X18540D01*
X18830D02*
X20930D01*
X21220D02*
X21787D01*
X22203D02*
X23945D01*
X285Y10470D02*
X6499D01*
X6553D02*
X6765D01*
X7701D02*
X9110D01*
X12245D02*
X12591D01*
X13266D02*
X15733D01*
X16188D02*
X18540D01*
X18830D02*
X20930D01*
X21220D02*
X21824D01*
X22159D02*
X23945D01*
X285Y10518D02*
X6451D01*
X6601D02*
X6813D01*
X7653D02*
X9110D01*
X12294D02*
X12581D01*
X13980D02*
X15781D01*
X16236D02*
X18540D01*
X18830D02*
X20930D01*
X21220D02*
X21824D01*
X22146D02*
X23945D01*
X285Y10566D02*
X6402D01*
X6649D02*
X6861D01*
X7605D02*
X9110D01*
X12342D02*
X12581D01*
X13980D02*
X15829D01*
X16284D02*
X18430D01*
X18940D02*
X19280D01*
X19790D02*
X20930D01*
X21220D02*
X21824D01*
X22146D02*
X23945D01*
X285Y10615D02*
X6354D01*
X6697D02*
X6909D01*
X7556D02*
X9110D01*
X12376D02*
X12590D01*
X13980D02*
X15877D01*
X16332D02*
X18430D01*
X18940D02*
X19280D01*
X19790D02*
X20930D01*
X21220D02*
X21824D01*
X22146D02*
X23945D01*
X285Y10663D02*
X6306D01*
X6745D02*
X6957D01*
X7508D02*
X9110D01*
X12388D02*
X12609D01*
X13980D02*
X15925D01*
X16380D02*
X18430D01*
X18940D02*
X19280D01*
X19790D02*
X20930D01*
X21220D02*
X21740D01*
X22230D02*
X23945D01*
X285Y10711D02*
X6258D01*
X6793D02*
X7005D01*
X7460D02*
X9110D01*
X12388D02*
X12641D01*
X13980D02*
X15973D01*
X16428D02*
X18430D01*
X18940D02*
X19280D01*
X19790D02*
X20904D01*
X21220D02*
X21740D01*
X22230D02*
X23945D01*
X285Y10759D02*
X6210D01*
X6841D02*
X7053D01*
X7412D02*
X9110D01*
X12388D02*
X12696D01*
X13980D02*
X16021D01*
X16476D02*
X18430D01*
X18940D02*
X19280D01*
X19790D02*
X20856D01*
X21219D02*
X21740D01*
X22230D02*
X23236D01*
X23494D02*
X23945D01*
X285Y10807D02*
X6162D01*
X6889D02*
X7101D01*
X7364D02*
X9110D01*
X12388D02*
X12724D01*
X13980D02*
X16069D01*
X16524D02*
X18430D01*
X18940D02*
X19280D01*
X19790D02*
X20808D01*
X21206D02*
X21740D01*
X22230D02*
X23163D01*
X23567D02*
X23945D01*
X285Y10855D02*
X6114D01*
X6937D02*
X7149D01*
X7316D02*
X9123D01*
X12388D02*
X12645D01*
X13980D02*
X16117D01*
X16572D02*
X18430D01*
X18940D02*
X19280D01*
X19790D02*
X20760D01*
X21170D02*
X21740D01*
X22230D02*
X23119D01*
X23611D02*
X23945D01*
X285Y10903D02*
X6066D01*
X6985D02*
X7197D01*
X7268D02*
X9158D01*
X12388D02*
X12603D01*
X13980D02*
X16165D01*
X16620D02*
X18430D01*
X18940D02*
X19280D01*
X19790D02*
X20712D01*
X21122D02*
X21740D01*
X22230D02*
X23090D01*
X23640D02*
X23945D01*
X285Y10951D02*
X6018D01*
X7033D02*
X9206D01*
X12388D02*
X12578D01*
X13980D02*
X16213D01*
X16668D02*
X18430D01*
X18940D02*
X19280D01*
X19790D02*
X20664D01*
X21074D02*
X21740D01*
X22230D02*
X23072D01*
X23658D02*
X23945D01*
X285Y10999D02*
X5970D01*
X7081D02*
X9254D01*
X12388D02*
X12564D01*
X13980D02*
X16261D01*
X16716D02*
X18430D01*
X18940D02*
X19280D01*
X19790D02*
X20616D01*
X21026D02*
X21740D01*
X22230D02*
X23062D01*
X23668D02*
X23945D01*
X285Y11047D02*
X5927D01*
X7124D02*
X9302D01*
X12388D02*
X12560D01*
X13980D02*
X16309D01*
X16764D02*
X18430D01*
X18940D02*
X19280D01*
X19790D02*
X20568D01*
X20978D02*
X21740D01*
X22230D02*
X23060D01*
X23670D02*
X23945D01*
X285Y11095D02*
X5975D01*
X7076D02*
X9350D01*
X12388D02*
X12565D01*
X13980D02*
X16358D01*
X16812D02*
X18430D01*
X18940D02*
X19280D01*
X19790D02*
X20520D01*
X20930D02*
X21740D01*
X22230D02*
X23066D01*
X23664D02*
X23945D01*
X285Y11143D02*
X6023D01*
X7028D02*
X9398D01*
X12388D02*
X12580D01*
X13980D02*
X16406D01*
X16860D02*
X18430D01*
X18940D02*
X19280D01*
X19790D02*
X20472D01*
X20882D02*
X21740D01*
X22230D02*
X23080D01*
X23650D02*
X23945D01*
X285Y11191D02*
X5778D01*
X5859D02*
X6071D01*
X6980D02*
X9446D01*
X12388D02*
X12606D01*
X13980D02*
X16454D01*
X16908D02*
X18430D01*
X18940D02*
X19280D01*
X19790D02*
X20424D01*
X20834D02*
X21740D01*
X22230D02*
X23103D01*
X23627D02*
X23945D01*
X285Y11239D02*
X5730D01*
X5907D02*
X6119D01*
X6932D02*
X9494D01*
X12388D02*
X12649D01*
X13980D02*
X16502D01*
X16956D02*
X20376D01*
X20786D02*
X21740D01*
X22230D02*
X23138D01*
X23592D02*
X23945D01*
X285Y11287D02*
X5682D01*
X5955D02*
X6167D01*
X6884D02*
X9542D01*
X12388D02*
X12734D01*
X13980D02*
X16550D01*
X17004D02*
X20328D01*
X20738D02*
X21740D01*
X22230D02*
X23193D01*
X23537D02*
X23945D01*
X285Y11335D02*
X5634D01*
X6003D02*
X6215D01*
X6836D02*
X9590D01*
X12388D02*
X12886D01*
X13980D02*
X16598D01*
X17052D02*
X20280D01*
X20690D02*
X21740D01*
X22230D02*
X23310D01*
X23420D02*
X23945D01*
X285Y11383D02*
X5586D01*
X6051D02*
X6263D01*
X6788D02*
X9638D01*
X12388D02*
X12886D01*
X13510D02*
X16646D01*
X17100D02*
X20232D01*
X20642D02*
X21740D01*
X22230D02*
X23945D01*
X285Y11431D02*
X5538D01*
X6099D02*
X6311D01*
X6740D02*
X9686D01*
X12388D02*
X12886D01*
X13510D02*
X16694D01*
X17148D02*
X20184D01*
X20594D02*
X21740D01*
X22230D02*
X23945D01*
X285Y11479D02*
X5490D01*
X6147D02*
X6359D01*
X6692D02*
X9734D01*
X12388D02*
X12886D01*
X13510D02*
X16742D01*
X17196D02*
X20136D01*
X20546D02*
X21740D01*
X22230D02*
X23945D01*
X285Y11527D02*
X5442D01*
X6195D02*
X6407D01*
X6644D02*
X9782D01*
X13510D02*
X16790D01*
X17244D02*
X20088D01*
X20498D02*
X23945D01*
X285Y11575D02*
X5394D01*
X6243D02*
X6455D01*
X6596D02*
X9834D01*
X13510D02*
X16838D01*
X17292D02*
X20040D01*
X20450D02*
X21038D01*
X21212D02*
X21895D01*
X22115D02*
X23945D01*
X285Y11623D02*
X5346D01*
X6291D02*
X6504D01*
X6548D02*
X10091D01*
X13510D02*
X16886D01*
X19047D02*
X19992D01*
X20402D02*
X20957D01*
X21293D02*
X21826D01*
X22184D02*
X23945D01*
X285Y11671D02*
X5298D01*
X6339D02*
X10091D01*
X13510D02*
X16934D01*
X19098D02*
X19944D01*
X20354D02*
X20914D01*
X21336D02*
X21788D01*
X22222D02*
X23945D01*
X285Y11719D02*
X5250D01*
X6387D02*
X10091D01*
X13510D02*
X16982D01*
X19145D02*
X19896D01*
X20306D02*
X20889D01*
X21361D02*
X21765D01*
X22245D02*
X23945D01*
X285Y11767D02*
X5233D01*
X6404D02*
X7353D01*
X9925D02*
X10091D01*
X13505D02*
X17030D01*
X19192D02*
X19848D01*
X20258D02*
X20874D01*
X21376D02*
X21753D01*
X22257D02*
X23945D01*
X285Y11815D02*
X5281D01*
X6356D02*
X7305D01*
X9925D02*
X10091D01*
X13487D02*
X17078D01*
X19240D02*
X19800D01*
X20210D02*
X20870D01*
X21380D02*
X21750D01*
X22260D02*
X23945D01*
X285Y11863D02*
X5106D01*
X5117D02*
X5329D01*
X6308D02*
X7257D01*
X9925D02*
X10091D01*
X13480D02*
X17126D01*
X19287D02*
X19752D01*
X20162D02*
X20875D01*
X21375D02*
X21757D01*
X22288D02*
X23945D01*
X285Y11911D02*
X5058D01*
X5165D02*
X5377D01*
X6260D02*
X7209D01*
X9925D02*
X10091D01*
X13480D02*
X17208D01*
X19334D02*
X19704D01*
X20114D02*
X20889D01*
X21361D02*
X21773D01*
X22336D02*
X23945D01*
X285Y11959D02*
X5010D01*
X5213D02*
X5425D01*
X6212D02*
X7161D01*
X9925D02*
X10091D01*
X13480D02*
X18930D01*
X19381D02*
X19656D01*
X20066D02*
X20915D01*
X21335D02*
X21802D01*
X22384D02*
X23945D01*
X285Y12007D02*
X4962D01*
X5261D02*
X5474D01*
X6164D02*
X7113D01*
X9925D02*
X10091D01*
X13480D02*
X18978D01*
X19428D02*
X19607D01*
X20018D02*
X20958D01*
X21303D02*
X21850D01*
X22827D02*
X23945D01*
X285Y12055D02*
X4914D01*
X5309D02*
X5522D01*
X6116D02*
X7065D01*
X9925D02*
X10091D01*
X13480D02*
X19025D01*
X19475D02*
X19559D01*
X19970D02*
X20982D01*
X21351D02*
X21957D01*
X22053D02*
X22070D01*
X22827D02*
X23945D01*
X285Y12104D02*
X4865D01*
X5357D02*
X5570D01*
X6068D02*
X7016D01*
X9925D02*
X10091D01*
X13480D02*
X19072D01*
X19922D02*
X20997D01*
X21399D02*
X22118D01*
X22827D02*
X23945D01*
X285Y12152D02*
X4817D01*
X5405D02*
X5618D01*
X6019D02*
X6968D01*
X16472D02*
X19119D01*
X19874D02*
X21037D01*
X21447D02*
X22166D01*
X22827D02*
X23945D01*
X285Y12200D02*
X4769D01*
X5454D02*
X5666D01*
X5971D02*
X6920D01*
X16520D02*
X19166D01*
X19826D02*
X21085D01*
X21495D02*
X22183D01*
X22827D02*
X23945D01*
X285Y12248D02*
X4721D01*
X5502D02*
X5714D01*
X5923D02*
X6872D01*
X16568D02*
X18410D01*
X18920D02*
X19213D01*
X19777D02*
X21133D01*
X21543D02*
X22183D01*
X22827D02*
X23945D01*
X285Y12296D02*
X4673D01*
X5550D02*
X5762D01*
X5875D02*
X6824D01*
X16616D02*
X18410D01*
X18920D02*
X19260D01*
X19770D02*
X21181D01*
X21591D02*
X22183D01*
X22827D02*
X23945D01*
X285Y12344D02*
X4625D01*
X5598D02*
X5810D01*
X5827D02*
X6776D01*
X16664D02*
X18410D01*
X18920D02*
X19260D01*
X19770D02*
X21229D01*
X21639D02*
X22183D01*
X22827D02*
X23945D01*
X285Y12392D02*
X4577D01*
X5646D02*
X6728D01*
X16712D02*
X18410D01*
X18920D02*
X19260D01*
X19770D02*
X21277D01*
X21687D02*
X22183D01*
X22827D02*
X23945D01*
X285Y12440D02*
X4529D01*
X5694D02*
X6680D01*
X16760D02*
X18410D01*
X18920D02*
X19260D01*
X19770D02*
X21325D01*
X21735D02*
X22183D01*
X22827D02*
X23945D01*
X285Y12488D02*
X4540D01*
X5683D02*
X6632D01*
X16808D02*
X18410D01*
X18920D02*
X19260D01*
X19770D02*
X21373D01*
X21783D02*
X22183D01*
X22827D02*
X23945D01*
X285Y12536D02*
X4588D01*
X5635D02*
X6584D01*
X16856D02*
X18410D01*
X18920D02*
X19260D01*
X19770D02*
X21421D01*
X21831D02*
X22183D01*
X22827D02*
X23945D01*
X285Y12584D02*
X4385D01*
X4424D02*
X4636D01*
X5587D02*
X6536D01*
X16904D02*
X18410D01*
X18920D02*
X19260D01*
X19770D02*
X21469D01*
X21879D02*
X22183D01*
X22827D02*
X23945D01*
X285Y12632D02*
X4337D01*
X4472D02*
X4684D01*
X5539D02*
X6488D01*
X16952D02*
X18410D01*
X18920D02*
X19260D01*
X19770D02*
X21517D01*
X21927D02*
X22183D01*
X22827D02*
X23945D01*
X285Y12680D02*
X4289D01*
X4520D02*
X4732D01*
X5491D02*
X6440D01*
X16975D02*
X18410D01*
X18920D02*
X19260D01*
X19770D02*
X21565D01*
X21975D02*
X22183D01*
X22827D02*
X23945D01*
X285Y12728D02*
X4241D01*
X4568D02*
X4780D01*
X5443D02*
X6392D01*
X16975D02*
X18410D01*
X18920D02*
X19260D01*
X19770D02*
X21613D01*
X22023D02*
X22183D01*
X22827D02*
X23218D01*
X23512D02*
X23945D01*
X285Y12776D02*
X4193D01*
X4616D02*
X4828D01*
X5395D02*
X6344D01*
X16975D02*
X18410D01*
X18920D02*
X19260D01*
X19770D02*
X21661D01*
X22071D02*
X22183D01*
X22827D02*
X23153D01*
X23577D02*
X23945D01*
X285Y12824D02*
X4145D01*
X4664D02*
X4876D01*
X5347D02*
X6296D01*
X16975D02*
X18410D01*
X18920D02*
X19260D01*
X19770D02*
X21709D01*
X22119D02*
X22183D01*
X22827D02*
X23112D01*
X23618D02*
X23945D01*
X285Y12872D02*
X4097D01*
X4712D02*
X4924D01*
X5299D02*
X6248D01*
X16975D02*
X18410D01*
X18920D02*
X19260D01*
X19770D02*
X21757D01*
X22827D02*
X23086D01*
X23644D02*
X23945D01*
X285Y12920D02*
X4049D01*
X4760D02*
X4972D01*
X5251D02*
X6200D01*
X16975D02*
X18495D01*
X18835D02*
X19345D01*
X19685D02*
X21805D01*
X22827D02*
X23069D01*
X23661D02*
X23945D01*
X285Y12968D02*
X4001D01*
X4808D02*
X5020D01*
X5203D02*
X6152D01*
X16975D02*
X18495D01*
X18835D02*
X19345D01*
X19685D02*
X21853D01*
X22827D02*
X23061D01*
X23669D02*
X23945D01*
X285Y13016D02*
X3953D01*
X4856D02*
X5068D01*
X5155D02*
X6104D01*
X16975D02*
X18495D01*
X18835D02*
X19345D01*
X19685D02*
X21901D01*
X22827D02*
X23061D01*
X23669D02*
X23945D01*
X285Y13064D02*
X3905D01*
X4904D02*
X6056D01*
X16975D02*
X18495D01*
X18835D02*
X19345D01*
X19685D02*
X21949D01*
X22827D02*
X23068D01*
X23662D02*
X23945D01*
X285Y13112D02*
X3857D01*
X4952D02*
X6008D01*
X16975D02*
X18495D01*
X18835D02*
X18942D01*
X19008D02*
X19345D01*
X19685D02*
X22005D01*
X22827D02*
X23083D01*
X23647D02*
X23945D01*
X285Y13160D02*
X3809D01*
X5000D02*
X5960D01*
X16975D02*
X18495D01*
X19127D02*
X19345D01*
X19685D02*
X22183D01*
X22827D02*
X23109D01*
X23621D02*
X23945D01*
X285Y13208D02*
X3846D01*
X4963D02*
X5912D01*
X16975D02*
X18495D01*
X19176D02*
X19345D01*
X19685D02*
X22183D01*
X22827D02*
X23147D01*
X23583D02*
X23945D01*
X285Y13256D02*
X3894D01*
X4915D02*
X5864D01*
X16975D02*
X18495D01*
X19206D02*
X19345D01*
X19685D02*
X22183D01*
X22827D02*
X23208D01*
X23522D02*
X23945D01*
X285Y13304D02*
X3665D01*
X3730D02*
X3942D01*
X4867D02*
X5816D01*
X16975D02*
X18495D01*
X19223D02*
X19345D01*
X19685D02*
X22183D01*
X22827D02*
X23945D01*
X285Y13352D02*
X3617D01*
X3778D02*
X3990D01*
X4819D02*
X5785D01*
X16975D02*
X18495D01*
X19230D02*
X19345D01*
X19685D02*
X22183D01*
X22827D02*
X23945D01*
X285Y13400D02*
X3569D01*
X3826D02*
X4038D01*
X4771D02*
X5785D01*
X16975D02*
X18495D01*
X19228D02*
X19338D01*
X19685D02*
X22314D01*
X22636D02*
X23945D01*
X285Y13448D02*
X3521D01*
X3874D02*
X4086D01*
X4723D02*
X5785D01*
X16975D02*
X18495D01*
X19216D02*
X19326D01*
X19685D02*
X22314D01*
X22636D02*
X23945D01*
X285Y13496D02*
X3473D01*
X3922D02*
X4134D01*
X4675D02*
X5785D01*
X16975D02*
X18495D01*
X19194D02*
X19325D01*
X19685D02*
X22314D01*
X22636D02*
X23945D01*
X285Y13544D02*
X3425D01*
X3970D02*
X4182D01*
X4627D02*
X5785D01*
X16975D02*
X18495D01*
X19156D02*
X19325D01*
X19685D02*
X22314D01*
X22636D02*
X23945D01*
X285Y13592D02*
X3376D01*
X4018D02*
X4230D01*
X4579D02*
X5785D01*
X16975D02*
X18495D01*
X18835D02*
X18860D01*
X19090D02*
X19325D01*
X19685D02*
X22314D01*
X22636D02*
X23945D01*
X285Y13641D02*
X3328D01*
X4066D02*
X4278D01*
X4531D02*
X5785D01*
X16975D02*
X18495D01*
X18835D02*
X19325D01*
X19685D02*
X22314D01*
X22636D02*
X23945D01*
X285Y13689D02*
X3280D01*
X4114D02*
X4326D01*
X4482D02*
X5785D01*
X16975D02*
X18495D01*
X18835D02*
X19325D01*
X19685D02*
X22314D01*
X22636D02*
X23945D01*
X285Y13737D02*
X3232D01*
X4162D02*
X4374D01*
X4434D02*
X5785D01*
X16975D02*
X18495D01*
X18835D02*
X19325D01*
X19685D02*
X22314D01*
X22636D02*
X23945D01*
X285Y13785D02*
X3184D01*
X4210D02*
X5785D01*
X16975D02*
X18495D01*
X18835D02*
X19325D01*
X19685D02*
X22314D01*
X22636D02*
X23945D01*
X285Y13833D02*
X3136D01*
X4258D02*
X5785D01*
X16975D02*
X18495D01*
X18835D02*
X19325D01*
X19685D02*
X22271D01*
X22679D02*
X23945D01*
X285Y13881D02*
X3104D01*
X4290D02*
X5785D01*
X16975D02*
X18410D01*
X18920D02*
X19260D01*
X19770D02*
X22242D01*
X22708D02*
X23945D01*
X285Y13929D02*
X3152D01*
X4242D02*
X5785D01*
X16975D02*
X18410D01*
X18920D02*
X19260D01*
X19770D02*
X22226D01*
X22724D02*
X23945D01*
X285Y13977D02*
X3200D01*
X4194D02*
X5785D01*
X16975D02*
X18410D01*
X18920D02*
X19260D01*
X19770D02*
X22220D01*
X22730D02*
X23945D01*
X285Y14025D02*
X2944D01*
X3036D02*
X3248D01*
X4146D02*
X5785D01*
X16975D02*
X18410D01*
X18920D02*
X19260D01*
X19770D02*
X22223D01*
X22727D02*
X23945D01*
X285Y14073D02*
X2896D01*
X3084D02*
X3296D01*
X4098D02*
X5785D01*
X16975D02*
X18410D01*
X18920D02*
X19260D01*
X19770D02*
X22236D01*
X22714D02*
X23945D01*
X285Y14121D02*
X2848D01*
X3132D02*
X3344D01*
X4050D02*
X5785D01*
X16975D02*
X18410D01*
X18920D02*
X19260D01*
X19770D02*
X22259D01*
X22691D02*
X23945D01*
X285Y14169D02*
X2800D01*
X3180D02*
X3392D01*
X4002D02*
X5785D01*
X16975D02*
X18410D01*
X18920D02*
X19260D01*
X19770D02*
X22298D01*
X22652D02*
X23945D01*
X285Y14217D02*
X2752D01*
X3228D02*
X3440D01*
X3954D02*
X5785D01*
X16975D02*
X18410D01*
X18920D02*
X19260D01*
X19770D02*
X22369D01*
X22581D02*
X23945D01*
X285Y14265D02*
X2704D01*
X3276D02*
X3488D01*
X3906D02*
X5785D01*
X16975D02*
X18410D01*
X18920D02*
X19260D01*
X19770D02*
X23945D01*
X285Y14313D02*
X2656D01*
X3324D02*
X3536D01*
X3858D02*
X5785D01*
X16975D02*
X18410D01*
X18920D02*
X19260D01*
X19770D02*
X23945D01*
X285Y14361D02*
X2608D01*
X3372D02*
X3584D01*
X3810D02*
X5785D01*
X16975D02*
X18410D01*
X18920D02*
X19260D01*
X19770D02*
X23945D01*
X285Y14409D02*
X2560D01*
X3420D02*
X3632D01*
X3762D02*
X5785D01*
X16975D02*
X18410D01*
X18920D02*
X19260D01*
X19770D02*
X23945D01*
X285Y14457D02*
X2512D01*
X3468D02*
X3681D01*
X3714D02*
X5785D01*
X16975D02*
X18410D01*
X18920D02*
X19260D01*
X19770D02*
X23945D01*
X285Y14505D02*
X2464D01*
X3516D02*
X5785D01*
X16975D02*
X18410D01*
X19770D02*
X23945D01*
X285Y14553D02*
X2416D01*
X3564D02*
X5785D01*
X16975D02*
X18860D01*
X19740D02*
X23945D01*
X285Y14601D02*
X2410D01*
X3570D02*
X5785D01*
X16975D02*
X18860D01*
X19740D02*
X23945D01*
X285Y14649D02*
X2458D01*
X3522D02*
X5785D01*
X16975D02*
X18860D01*
X19740D02*
X23945D01*
X285Y14697D02*
X2506D01*
X3474D02*
X5785D01*
X16975D02*
X18860D01*
X19740D02*
X23945D01*
X285Y14745D02*
X2554D01*
X3426D02*
X5785D01*
X16975D02*
X18860D01*
X19740D02*
X23945D01*
X285Y14793D02*
X2602D01*
X3378D02*
X5785D01*
X16975D02*
X18860D01*
X19740D02*
X23945D01*
X285Y14841D02*
X2651D01*
X3330D02*
X5785D01*
X16975D02*
X18860D01*
X19740D02*
X23945D01*
X285Y14889D02*
X2699D01*
X3282D02*
X5785D01*
X16975D02*
X18860D01*
X19740D02*
X23945D01*
X285Y14937D02*
X2747D01*
X3234D02*
X5785D01*
X16975D02*
X18860D01*
X19740D02*
X23945D01*
X285Y14985D02*
X2795D01*
X3186D02*
X5785D01*
X16975D02*
X23945D01*
X285Y15033D02*
X2843D01*
X3138D02*
X5785D01*
X16975D02*
X23945D01*
X285Y15081D02*
X1091D01*
X1559D02*
X2891D01*
X3090D02*
X5785D01*
X16975D02*
X22721D01*
X23189D02*
X23945D01*
X285Y15129D02*
X937D01*
X1713D02*
X2939D01*
X3042D02*
X5785D01*
X16975D02*
X22567D01*
X23343D02*
X23945D01*
X285Y15178D02*
X833D01*
X1817D02*
X2987D01*
X2994D02*
X5785D01*
X16975D02*
X22463D01*
X23447D02*
X23945D01*
X285Y15226D02*
X751D01*
X1899D02*
X5785D01*
X16975D02*
X22381D01*
X23529D02*
X23945D01*
X285Y15274D02*
X684D01*
X1966D02*
X5785D01*
X16975D02*
X22314D01*
X23596D02*
X23945D01*
X285Y15322D02*
X626D01*
X2024D02*
X5785D01*
X16975D02*
X22256D01*
X23654D02*
X23945D01*
X285Y15370D02*
X576D01*
X2074D02*
X5785D01*
X16975D02*
X22206D01*
X23704D02*
X23945D01*
X285Y15418D02*
X531D01*
X2119D02*
X5785D01*
X16975D02*
X22161D01*
X23749D02*
X23945D01*
X285Y15466D02*
X492D01*
X2158D02*
X5785D01*
X16975D02*
X22122D01*
X23788D02*
X23945D01*
X285Y15514D02*
X457D01*
X2193D02*
X5785D01*
X16975D02*
X22087D01*
X23823D02*
X23945D01*
X285Y15562D02*
X426D01*
X2224D02*
X5785D01*
X16975D02*
X22056D01*
X23854D02*
X23945D01*
X285Y15610D02*
X399D01*
X2251D02*
X5785D01*
X16975D02*
X22029D01*
X23881D02*
X23945D01*
X285Y15658D02*
X375D01*
X2275D02*
X5785D01*
X16975D02*
X22005D01*
X23905D02*
X23945D01*
X285Y15706D02*
X354D01*
X2296D02*
X5785D01*
X16975D02*
X21984D01*
X23926D02*
X23945D01*
X285Y15754D02*
X335D01*
X2315D02*
X5785D01*
X16975D02*
X21965D01*
X23945D02*
X23945D01*
X285Y15802D02*
X320D01*
X2330D02*
X5785D01*
X16975D02*
X21950D01*
X285Y15850D02*
X306D01*
X2344D02*
X5785D01*
X16975D02*
X21936D01*
X285Y15898D02*
X296D01*
X2354D02*
X5785D01*
X16975D02*
X21926D01*
X285Y15946D02*
X287D01*
X2363D02*
X5785D01*
X16975D02*
X21917D01*
X2369Y15994D02*
X5785D01*
X16975D02*
X21911D01*
X2373Y16042D02*
X5785D01*
X16975D02*
X21907D01*
X2375Y16090D02*
X5785D01*
X16975D02*
X21905D01*
X2374Y16138D02*
X5752D01*
X16975D02*
X21906D01*
X2372Y16186D02*
X5704D01*
X16986D02*
X21908D01*
X2367Y16234D02*
X5656D01*
X17034D02*
X21913D01*
X285Y16282D02*
X290D01*
X2360D02*
X5608D01*
X17082D02*
X21920D01*
X285Y16330D02*
X299D01*
X2351D02*
X5560D01*
X17130D02*
X21929D01*
X285Y16378D02*
X311D01*
X2339D02*
X5512D01*
X17178D02*
X21941D01*
X285Y16426D02*
X325D01*
X2325D02*
X5464D01*
X17226D02*
X21955D01*
X285Y16474D02*
X342D01*
X2308D02*
X5416D01*
X17274D02*
X21972D01*
X23938D02*
X23945D01*
X285Y16522D02*
X362D01*
X2288D02*
X5368D01*
X17322D02*
X21992D01*
X23918D02*
X23945D01*
X285Y16570D02*
X384D01*
X2266D02*
X5320D01*
X17370D02*
X22014D01*
X23896D02*
X23945D01*
X285Y16618D02*
X409D01*
X2241D02*
X5272D01*
X17418D02*
X22039D01*
X23871D02*
X23945D01*
X285Y16666D02*
X438D01*
X2212D02*
X5224D01*
X17466D02*
X22068D01*
X23842D02*
X23945D01*
X285Y16715D02*
X470D01*
X2180D02*
X5175D01*
X17515D02*
X22100D01*
X23810D02*
X23945D01*
X285Y16763D02*
X506D01*
X2144D02*
X5127D01*
X17563D02*
X22136D01*
X23774D02*
X23945D01*
X285Y16811D02*
X547D01*
X2103D02*
X5079D01*
X17611D02*
X22177D01*
X23733D02*
X23945D01*
X285Y16859D02*
X594D01*
X2056D02*
X5031D01*
X17659D02*
X22224D01*
X23686D02*
X23945D01*
X285Y16907D02*
X647D01*
X2003D02*
X4983D01*
X17707D02*
X22277D01*
X23633D02*
X23945D01*
X285Y16955D02*
X708D01*
X1942D02*
X4935D01*
X17755D02*
X22338D01*
X23572D02*
X23945D01*
X285Y17003D02*
X780D01*
X1870D02*
X4887D01*
X17803D02*
X22410D01*
X23500D02*
X23945D01*
X324Y17051D02*
X869D01*
X1781D02*
X4839D01*
X17851D02*
X22499D01*
X23411D02*
X23916D01*
X372Y17099D02*
X986D01*
X1664D02*
X4791D01*
X17899D02*
X22616D01*
X23294D02*
X23868D01*
X420Y17147D02*
X1194D01*
X1456D02*
X4743D01*
X17947D02*
X22824D01*
X23086D02*
X23820D01*
X468Y17195D02*
X4695D01*
X17995D02*
X23772D01*
X516Y17243D02*
X4647D01*
X18043D02*
X23724D01*
X564Y17291D02*
X4599D01*
X18091D02*
X23676D01*
X612Y17339D02*
X4551D01*
X18139D02*
X23628D01*
X661Y17387D02*
X4503D01*
X18187D02*
X23579D01*
X709Y17435D02*
X4455D01*
X18235D02*
X23531D01*
X757Y17483D02*
X4407D01*
X18283D02*
X23483D01*
X805Y17531D02*
X4359D01*
X18331D02*
X23435D01*
X853Y17579D02*
X4311D01*
X18379D02*
X23387D01*
X901Y17627D02*
X4263D01*
X18427D02*
X23339D01*
X949Y17675D02*
X4215D01*
X18475D02*
X23291D01*
X997Y17723D02*
X4167D01*
X18523D02*
X23243D01*
X1045Y17771D02*
X4119D01*
X18571D02*
X23195D01*
X1093Y17819D02*
X4071D01*
X18619D02*
X23147D01*
X1141Y17867D02*
X4023D01*
X18667D02*
X23099D01*
X1189Y17915D02*
X3975D01*
X18715D02*
X23051D01*
X1237Y17963D02*
X3927D01*
X18763D02*
X23003D01*
X1285Y18011D02*
X3879D01*
X18811D02*
X22955D01*
X1333Y18059D02*
X3831D01*
X18859D02*
X22907D01*
X1381Y18107D02*
X3783D01*
X18907D02*
X22859D01*
X1429Y18155D02*
X3735D01*
X18955D02*
X22811D01*
X1477Y18204D02*
X3686D01*
X19004D02*
X22763D01*
X1525Y18252D02*
X3638D01*
X19052D02*
X22715D01*
X1573Y18300D02*
X3590D01*
X19100D02*
X22667D01*
X1621Y18348D02*
X3542D01*
X19148D02*
X22619D01*
X1669Y18396D02*
X3494D01*
X19196D02*
X22571D01*
X1717Y18444D02*
X3446D01*
X19244D02*
X22523D01*
X1765Y18492D02*
X3398D01*
X19292D02*
X22475D01*
X1813Y18540D02*
X3350D01*
X19340D02*
X22427D01*
X1861Y18588D02*
X3302D01*
X19388D02*
X22379D01*
X1909Y18636D02*
X3254D01*
X19436D02*
X22331D01*
X1957Y18684D02*
X3206D01*
X19484D02*
X22283D01*
X2005Y18732D02*
X3158D01*
X19532D02*
X22235D01*
X2053Y18780D02*
X3110D01*
X19580D02*
X22187D01*
X2101Y18828D02*
X3062D01*
X19628D02*
X22139D01*
X2149Y18876D02*
X3014D01*
X19676D02*
X22091D01*
X2198Y18924D02*
X2966D01*
X19724D02*
X22042D01*
X2246Y18972D02*
X2918D01*
X19772D02*
X21994D01*
X2294Y19020D02*
X2870D01*
X19820D02*
X21946D01*
X2342Y19068D02*
X2822D01*
X19868D02*
X21898D01*
X2390Y19116D02*
X2774D01*
X19916D02*
X21850D01*
X2438Y19164D02*
X2726D01*
X19964D02*
X21802D01*
X2486Y19212D02*
X2678D01*
X20012D02*
X21754D01*
X2534Y19260D02*
X2630D01*
X20060D02*
X21706D01*
X20108Y19308D02*
X21658D01*
X20156Y19356D02*
X21610D01*
X20204Y19404D02*
X21562D01*
X20252Y19452D02*
X21514D01*
X20300Y19500D02*
X21466D01*
X20348Y19548D02*
X21418D01*
X20396Y19596D02*
X21370D01*
X20444Y19644D02*
X21322D01*
X20492Y19692D02*
X21274D01*
X20541Y19741D02*
X21226D01*
X20589Y19789D02*
X21178D01*
X20637Y19837D02*
X21130D01*
X20685Y19885D02*
X21082D01*
X20733Y19933D02*
X21034D01*
X20781Y19981D02*
X20986D01*
X20829Y20029D02*
X20938D01*
X20877Y20077D02*
X20890D01*
X2677Y19403D02*
X5925Y16155D01*
Y13355*
X7405Y11875*
X9815*
Y12335*
X13100*
Y12655*
X13101Y12673*
X13104Y12690*
X13110Y12707*
X13084Y12696*
X13058Y12688*
X13030Y12682*
X13002Y12680*
X12974Y12681*
X12947Y12685*
X12920Y12691*
X12894Y12701*
X12869Y12714*
X12845Y12729*
X12823Y12746*
X12804Y12766*
X12787Y12788*
X12772Y12812*
X12760Y12837*
X12750Y12863*
X12744Y12890*
X12741Y12918*
X12740Y12946*
X12743Y12974*
X12749Y13001*
X12757Y13028*
X12769Y13053*
X12783Y13077*
X12800Y13099*
Y13165*
X12801Y13187*
X12805Y13208*
X12811Y13229*
X12819Y13250*
X12830Y13269*
X12843Y13287*
X12857Y13303*
X13005Y13450*
X13011Y13472*
X13020Y13492*
X13030Y13512*
Y14005*
X13031Y14027*
X13035Y14048*
X13041Y14069*
X13049Y14090*
X13060Y14109*
X13073Y14127*
X13087Y14143*
X13357Y14413*
X13361Y14416*
X13005*
X12985Y14418*
X12965Y14421*
X12946Y14428*
X12927Y14436*
X12910Y14447*
X12895Y14460*
X12839Y14512*
X12812Y14510*
X12785Y14511*
X12758Y14514*
X12732Y14521*
X12706Y14530*
X12682Y14542*
X12659Y14556*
X12637Y14573*
X12618Y14592*
X12600Y14613*
X12585Y14635*
X12573Y14659*
X12563Y14685*
X12556Y14711*
X12551Y14738*
X12550Y14765*
X12551Y14793*
X12556Y14820*
X12563Y14846*
X12574Y14872*
X12586Y14896*
X12602Y14919*
X12620Y14940*
X12640Y14959*
X12662Y14976*
X12686Y14990*
X12711Y15002*
X12737Y15011*
X12764Y15017*
X12791Y15020*
X12819*
X12846Y15017*
X12873Y15011*
X12899Y15002*
X12924Y14990*
X12948Y14976*
X12970Y14959*
X12990Y14940*
X13008Y14919*
X13023Y14897*
X13036Y14872*
X13047Y14847*
X13054Y14820*
X13058Y14793*
X13060Y14765*
X13059Y14747*
X13069Y14738*
X13634*
Y15745*
X14357*
Y15510*
X14500*
Y15980*
X14600*
Y16025*
X14601Y16044*
X14605Y16063*
X14611Y16080*
X14619Y16097*
X14630Y16113*
X14642Y16128*
X15924Y17409*
X15921Y17436*
X15920Y17462*
X15922Y17489*
X15927Y17515*
X15935Y17540*
X15945Y17565*
X15957Y17588*
X15972Y17610*
X15990Y17630*
X16009Y17649*
X16030Y17665*
Y17850*
X15680*
Y17685*
X15702Y17668*
X15722Y17649*
X15740Y17627*
X15755Y17604*
X15768Y17580*
X15778Y17554*
X15785Y17527*
X15789Y17500*
X15790Y17472*
X15788Y17444*
X15783Y17417*
X15776Y17390*
X15765Y17365*
X15752Y17341*
X15736Y17318*
X15718Y17297*
X15697Y17278*
X15675Y17262*
X15651Y17248*
X15626Y17237*
X15599Y17228*
X15572Y17223*
X15544Y17220*
X15517Y17221*
X15489Y17224*
X14492Y16227*
X14477Y16214*
X14462Y16203*
X14445Y16195*
X14427Y16189*
X14408Y16185*
X14389Y16184*
X13412*
Y15968*
X10091*
Y16168*
X8959*
X8938Y16170*
X8917Y16174*
X8897Y16181*
X8878Y16190*
X8861Y16202*
X8845Y16216*
X8065Y17002*
X8051Y17018*
X8040Y17035*
X8030Y17054*
X8024Y17074*
X8020Y17094*
X8018Y17115*
Y17281*
X8001Y17302*
X7986Y17325*
X7973Y17349*
X7963Y17375*
X7956Y17401*
Y17022*
X8902Y16076*
X9794*
X9815Y16075*
X9836Y16071*
X9856Y16064*
X9874Y16055*
X9892Y16043*
X9908Y16029*
X10069Y15868*
X10083Y15852*
X10094Y15835*
X10104Y15816*
X10110Y15796*
X10114Y15775*
X10116Y15755*
Y15515*
X10114Y15494*
X10110Y15474*
X10104Y15454*
X10094Y15435*
X10083Y15418*
X10069Y15402*
X9968Y15301*
X9981Y15292*
X9992Y15281*
X10034Y15239*
X10063Y15240*
X10091Y15237*
X10119Y15232*
X10145Y15223*
X10171Y15212*
X10196Y15198*
X10218Y15181*
X10239Y15162*
X10257Y15140*
X10273Y15117*
X10286Y15092*
X10297Y15066*
X10304Y15039*
X10309Y15011*
X10310Y14982*
X10308Y14954*
X10303Y14926*
X10295Y14899*
X10284Y14873*
X10270Y14849*
X10254Y14826*
X10235Y14805*
X10214Y14786*
X10191Y14770*
X10167Y14756*
X10141Y14745*
X10113Y14737*
X10086Y14732*
X10025Y14671*
X10009Y14657*
X9992Y14646*
X9973Y14636*
X9953Y14630*
X9932Y14626*
X9911Y14624*
X9869*
Y14546*
X10515*
X10534Y14545*
X10553Y14541*
X10572Y14535*
X10590Y14527*
X10606Y14517*
X10621Y14506*
X10635Y14492*
X10877Y14220*
X10905Y14219*
X10932Y14216*
X10959Y14210*
X10985Y14201*
X11009Y14190*
X11033Y14175*
X11055Y14159*
X11074Y14140*
X11092Y14119*
X11107Y14096*
X11120Y14072*
X11130Y14046*
X11138Y14020*
X11142Y13992*
X11144Y13965*
X11142Y13938*
X11138Y13911*
X11131Y13885*
X11121Y13859*
X11108Y13835*
X11093Y13812*
X11076Y13792*
X11056Y13773*
X11035Y13756*
X11011Y13742*
X10987Y13730*
X10961Y13721*
X10935Y13714*
X10908Y13711*
X10881Y13710*
X10854Y13712*
X10827Y13718*
X10801Y13726*
X10776Y13736*
X10752Y13750*
X10730Y13766*
X10709Y13784*
X10691Y13804*
X10675Y13826*
X9869*
Y12425*
X9652*
Y12277*
X9651Y12258*
X9647Y12240*
X9641Y12222*
X9633Y12205*
X9622Y12189*
X9610Y12175*
X9448Y12012*
X9433Y12000*
X9417Y11989*
X9400Y11981*
X9383Y11975*
X9364Y11971*
X9345Y11970*
X8445*
X8426Y11971*
X8407Y11975*
X8390Y11981*
X8373Y11989*
X8357Y12000*
X8342Y12012*
X8192Y12162*
X8185Y12170*
X8050*
Y12220*
X7935*
X7913Y12221*
X7892Y12225*
X7871Y12231*
X7850Y12239*
X7831Y12250*
X7813Y12263*
X7797Y12277*
X7389Y12685*
X6635*
Y13565*
X6780*
Y13633*
X6768Y13662*
X6759Y13691*
X6752Y13721*
X6749Y13752*
X6748Y13783*
X6750Y13814*
X6755Y13844*
X6763Y13874*
X6774Y13903*
X6787Y13931*
X6803Y13958*
X6820Y13984*
X6839Y14008*
X6860Y14031*
X6884Y14051*
X7203Y14370*
Y14616*
X7448*
X7716Y14884*
X7734Y14900*
X7753Y14913*
X7774Y14925*
X7795Y14934*
X7818Y14940*
X7841Y14944*
X7865Y14946*
X8615*
X8640Y14944*
X8664Y14940*
X8687Y14933*
X8710Y14923*
X8731Y14911*
X8751Y14896*
X8769Y14879*
X8808Y14837*
X9050Y15083*
X9067Y15098*
X9085Y15110*
X9104Y15120*
X9125Y15126*
X9146Y15130*
Y15416*
X8589*
X8570Y15418*
X8551Y15421*
X8533Y15427*
X8516Y15436*
X8500Y15446*
X8486Y15459*
X7302Y16642*
X7290Y16657*
X7279Y16673*
X7271Y16690*
X7265Y16707*
X7261Y16726*
X7260Y16745*
Y17245*
X7238Y17262*
X7218Y17282*
X7200Y17303*
X7185Y17326*
X7172Y17351*
X7162Y17377*
X7155Y17404*
X7151Y17431*
X7150Y17459*
X7152Y17487*
X7157Y17514*
X7165Y17541*
X7176Y17566*
X7189Y17591*
X7205Y17613*
X7224Y17634*
X7244Y17653*
Y17815*
X7246Y17837*
X7250Y17859*
X7258Y17880*
X7268Y17899*
X7281Y17917*
X7296Y17934*
X7310Y17946*
Y18460*
X8680*
Y17887*
X8704Y17875*
X8726Y17860*
X8747Y17843*
X8766Y17824*
X8783Y17803*
X8797Y17780*
X8809Y17756*
X8818Y17731*
X8825Y17705*
X8829Y17678*
X8830Y17651*
X8828Y17624*
X8823Y17598*
X8816Y17572*
X8806Y17547*
X8793Y17523*
X8778Y17501*
X8761Y17480*
X8741Y17462*
X8720Y17445*
Y17265*
X9125Y16860*
X9363*
X9171Y17051*
X9157Y17067*
X9146Y17085*
X9136Y17104*
X9130Y17123*
X9126Y17144*
X9124Y17165*
Y17257*
X9104Y17276*
X9086Y17296*
X9070Y17318*
X9056Y17342*
X9045Y17368*
X9037Y17394*
X9032Y17421*
X9030Y17448*
X9031Y17476*
X9035Y17503*
X9041Y17530*
X9051Y17556*
X9063Y17580*
X9078Y17603*
X9095Y17625*
X9114Y17644*
Y17865*
X9116Y17887*
X9120Y17908*
X9128Y17929*
X9138Y17948*
X9150Y17966*
X9165Y17982*
X9230Y18043*
Y18450*
X10600*
Y18197*
X10878Y17919*
X10905Y17915*
X10931Y17908*
X10956Y17899*
X10980Y17887*
X11003Y17873*
X11024Y17856*
X11043Y17837*
X11060Y17816*
X11075Y17794*
X11087Y17770*
X11097Y17745*
X11104Y17719*
X11108Y17693*
X11110Y17666*
X11109Y17639*
X11105Y17613*
X11122Y17633*
X11142Y17651*
X11163Y17667*
X11186Y17680*
X11210Y17692*
Y17860*
X11150*
Y18460*
X12520*
Y17860*
X12507*
X12528Y17843*
X12547Y17823*
X12564Y17802*
X12578Y17779*
X12590Y17754*
X12602Y17778*
X12616Y17800*
X12632Y17821*
X12650Y17841*
X12670Y17858*
X12692Y17873*
X12715Y17885*
X12740Y17895*
X12765Y17903*
X12791Y17908*
X12818Y17910*
X12844Y17909*
X12871Y17906*
X13070Y18105*
Y18450*
X14440*
Y18150*
X14528Y18063*
X14540Y18048*
X14551Y18032*
X14559Y18015*
X14565Y17998*
X14569Y17979*
X14570Y17960*
Y17665*
X14591Y17649*
X14610Y17631*
X14627Y17610*
X14642Y17589*
X14655Y17566*
X14665Y17541*
X14673Y17516*
X14678Y17490*
X14680Y17464*
X14679Y17438*
X14676Y17411*
X14874Y17609*
X14871Y17636*
X14870Y17664*
X14872Y17691*
X14878Y17717*
X14886Y17743*
X14897Y17768*
X14910Y17792*
X14926Y17814*
X14944Y17835*
X14964Y17853*
Y18045*
X14965Y18064*
X14969Y18083*
X14974Y18101*
X14982Y18118*
X14991Y18134*
X15003Y18150*
X15010Y18158*
Y18450*
X16380*
Y17850*
X16320*
Y17665*
X16342Y17648*
X16362Y17629*
X16380Y17607*
X16395Y17584*
X16408Y17560*
X16418Y17534*
X16425Y17507*
X16429Y17480*
X16430Y17452*
X16428Y17424*
X16423Y17397*
X16416Y17370*
X16405Y17345*
X16392Y17321*
X16376Y17298*
X16358Y17277*
X16337Y17258*
X16315Y17242*
X16291Y17228*
X16266Y17217*
X16239Y17208*
X16212Y17203*
X16184Y17200*
X16157Y17201*
X16129Y17204*
X14915Y15990*
X15360*
Y15116*
X15671*
X15720Y15165*
Y15810*
X16570*
Y14960*
X15925*
X15833Y14868*
X15819Y14856*
X15803Y14845*
X15786Y14837*
X15768Y14831*
X15750Y14827*
X15731Y14826*
X14357*
Y14480*
X14520*
Y14530*
X15370*
Y13650*
X14867*
X14887Y13633*
X14906Y13614*
X14922Y13594*
X14936Y13571*
X14948Y13548*
X14958Y13523*
X14965Y13498*
X14969Y13471*
X14970Y13445*
X14969Y13417*
X14964Y13390*
X14957Y13364*
X14946Y13338*
X14934Y13314*
X14918Y13291*
X14900Y13270*
X14880Y13251*
X14858Y13234*
X14835Y13220*
X14810Y13208*
X14784Y13199*
X14757Y13193*
X14729Y13190*
X14702Y13190*
X14674Y13193*
X14647Y13199*
X14621Y13208*
X14596Y13219*
X14573Y13234*
X14551Y13250*
X14531Y13269*
X14513Y13290*
X14492Y13297*
X14472Y13307*
X14454Y13320*
X14438Y13334*
X14357Y13421*
Y12425*
X13634*
Y12660*
X13480*
Y12335*
X16455*
X16855Y12735*
Y16225*
X20798Y20168*
X17021Y23945*
X7219*
X2677Y19403*
X6630Y21170D02*
Y20320D01*
X5780*
Y21170*
X6630*
Y22170D02*
Y21320D01*
X5780*
Y22170*
X6630*
X7180Y20320D02*
X6780D01*
Y21170*
X7544*
Y21238*
X7463Y21320*
X6780*
Y22170*
X7630*
Y21607*
X7780Y21457*
Y22170*
X8630*
Y21535*
X8780Y21385*
Y22170*
X9630*
Y21565*
X9780Y21415*
Y22170*
X10630*
Y21525*
X10780Y21375*
Y22170*
X11630*
Y21525*
X11778Y21378*
X11780Y21375*
Y22170*
X12630*
Y21525*
X12780Y21375*
Y22170*
X13630*
Y21617*
X13780Y21467*
Y22170*
X14630*
Y21535*
X14776Y21389*
X14780Y21385*
Y22170*
X15630*
Y21525*
X15778Y21378*
X15780Y21375*
Y22170*
X16630*
Y21320*
X16350*
Y21170*
X16630*
Y20320*
X16336*
Y19100*
X16380*
Y18500*
X15010*
Y19100*
X15054*
Y20320*
X14820*
Y19285*
X14819Y19266*
X14815Y19247*
X14809Y19229*
X14800Y19211*
X14789Y19195*
X14776Y19181*
X14440Y18845*
Y18500*
X13070*
Y19034*
X13057Y19052*
X13047Y19071*
X13040Y19092*
X13036Y19113*
X13034Y19135*
Y20320*
X12850*
Y19245*
X12849Y19226*
X12845Y19207*
X12839Y19190*
X12831Y19173*
X12820Y19157*
X12808Y19142*
X12520Y18855*
Y18510*
X11150*
Y18865*
X11082Y18932*
X11070Y18947*
X11059Y18963*
X11051Y18980*
X11045Y18997*
X11041Y19016*
X11040Y19035*
Y20320*
X10830*
Y19115*
X10829Y19096*
X10825Y19077*
X10819Y19060*
X10811Y19043*
X10800Y19027*
X10788Y19012*
X10600Y18825*
Y18500*
X9230*
Y18813*
X9101Y18941*
X9087Y18957*
X9076Y18975*
X9066Y18994*
X9060Y19013*
X9056Y19034*
X9054Y19055*
Y20320*
X8830*
Y19170*
X8829Y19151*
X8825Y19132*
X8819Y19114*
X8810Y19096*
X8799Y19080*
X8786Y19066*
X8680Y18960*
Y18510*
X7310*
Y18790*
X7222Y18877*
X7210Y18892*
X7199Y18908*
X7191Y18925*
X7185Y18942*
X7181Y18961*
X7180Y18980*
Y20320*
X16450Y12665D02*
X16449Y12637D01*
X16444Y12610*
X16437Y12584*
X16426Y12558*
X16414Y12534*
X16398Y12511*
X16380Y12490*
X16360Y12471*
X16338Y12454*
X16314Y12440*
X16289Y12428*
X16263Y12419*
X16236Y12413*
X16209Y12410*
X16181*
X16154Y12413*
X16127Y12419*
X16101Y12428*
X16076Y12440*
X16052Y12454*
X16030Y12471*
X16010Y12490*
X15992Y12511*
X15977Y12533*
X15964Y12558*
X15953Y12583*
X15946Y12610*
X15942Y12637*
X15940Y12665*
X15941Y12693*
X15946Y12720*
X15953Y12746*
X15964Y12772*
X15976Y12796*
X15992Y12819*
X16010Y12840*
X16030Y12859*
X16052Y12876*
X16076Y12890*
X16101Y12902*
X16127Y12911*
X16154Y12917*
X16181Y12920*
X16209*
X16236Y12917*
X16263Y12911*
X16289Y12902*
X16314Y12890*
X16338Y12876*
X16360Y12859*
X16380Y12840*
X16398Y12819*
X16413Y12797*
X16426Y12772*
X16437Y12747*
X16444Y12720*
X16448Y12693*
X16450Y12665*
X16570Y13960D02*
X15720D01*
Y14810*
X16570*
Y13960*
X17630Y21170D02*
Y20320D01*
X16780*
Y21170*
X17630*
Y22170D02*
Y21320D01*
X16780*
Y22170*
X17630*
X18630Y21170D02*
Y20320D01*
X17780*
Y21170*
X18630*
Y22170D02*
Y21320D01*
X17780*
Y22170*
X18630*
X7370Y11910D02*
X9815D01*
X7322Y11958D02*
X9815D01*
X7274Y12006D02*
X8349D01*
X9441D02*
X9815D01*
X7226Y12054D02*
X8301D01*
X9489D02*
X9815D01*
X7178Y12102D02*
X8253D01*
X9537D02*
X9815D01*
X7130Y12150D02*
X8204D01*
X9586D02*
X9815D01*
X7081Y12199D02*
X8050D01*
X9629D02*
X9815D01*
X7033Y12247D02*
X7837D01*
X9649D02*
X9815D01*
X6985Y12295D02*
X7780D01*
X9652D02*
X9815D01*
X6937Y12343D02*
X7732D01*
X9652D02*
X13100D01*
X13480D02*
X16463D01*
X6889Y12391D02*
X7684D01*
X9652D02*
X13100D01*
X13480D02*
X16511D01*
X6841Y12439D02*
X7636D01*
X9869D02*
X13100D01*
X13480D02*
X13634D01*
X14357D02*
X16078D01*
X16312D02*
X16559D01*
X6793Y12487D02*
X7588D01*
X9869D02*
X13100D01*
X13480D02*
X13634D01*
X14357D02*
X16013D01*
X16377D02*
X16607D01*
X6745Y12535D02*
X7539D01*
X9869D02*
X13100D01*
X13480D02*
X13634D01*
X14357D02*
X15976D01*
X16414D02*
X16655D01*
X6697Y12583D02*
X7491D01*
X9869D02*
X13100D01*
X13480D02*
X13634D01*
X14357D02*
X15954D01*
X16436D02*
X16703D01*
X6649Y12631D02*
X7443D01*
X9869D02*
X13100D01*
X13480D02*
X13634D01*
X14357D02*
X15942D01*
X16448D02*
X16751D01*
X6601Y12679D02*
X7395D01*
X9869D02*
X13102D01*
X14357D02*
X15940D01*
X16450D02*
X16799D01*
X6553Y12727D02*
X6635D01*
X9869D02*
X12848D01*
X14357D02*
X15948D01*
X16442D02*
X16847D01*
X6505Y12775D02*
X6635D01*
X9869D02*
X12797D01*
X14357D02*
X15965D01*
X16425D02*
X16855D01*
X6457Y12823D02*
X6635D01*
X9869D02*
X12766D01*
X14357D02*
X15995D01*
X16395D02*
X16855D01*
X6409Y12871D02*
X6635D01*
X9869D02*
X12748D01*
X14357D02*
X16045D01*
X16345D02*
X16855D01*
X6361Y12919D02*
X6635D01*
X9869D02*
X12741D01*
X14357D02*
X16172D01*
X16218D02*
X16855D01*
X6313Y12967D02*
X6635D01*
X9869D02*
X12742D01*
X14357D02*
X16855D01*
X6265Y13015D02*
X6635D01*
X9869D02*
X12753D01*
X14357D02*
X16855D01*
X6217Y13063D02*
X6635D01*
X9869D02*
X12774D01*
X14357D02*
X16855D01*
X6169Y13111D02*
X6635D01*
X9869D02*
X12800D01*
X14357D02*
X16855D01*
X6121Y13159D02*
X6635D01*
X9869D02*
X12800D01*
X14357D02*
X16855D01*
X6073Y13207D02*
X6635D01*
X9869D02*
X12805D01*
X14357D02*
X14623D01*
X14807D02*
X16855D01*
X6025Y13255D02*
X6635D01*
X9869D02*
X12822D01*
X14357D02*
X14545D01*
X14885D02*
X16855D01*
X5977Y13303D02*
X6635D01*
X9869D02*
X12857D01*
X14357D02*
X14479D01*
X14927D02*
X16855D01*
X5929Y13351D02*
X6635D01*
X9869D02*
X12906D01*
X14357D02*
X14422D01*
X14952D02*
X16855D01*
X5925Y13399D02*
X6635D01*
X9869D02*
X12954D01*
X14357D02*
X14377D01*
X14966D02*
X16855D01*
X5925Y13447D02*
X6635D01*
X9869D02*
X13002D01*
X14970D02*
X16855D01*
X5925Y13495D02*
X6635D01*
X9869D02*
X13021D01*
X14965D02*
X16855D01*
X5925Y13543D02*
X6635D01*
X9869D02*
X13030D01*
X14950D02*
X16855D01*
X5925Y13591D02*
X6780D01*
X9869D02*
X13030D01*
X14924D02*
X16855D01*
X5925Y13639D02*
X6777D01*
X9869D02*
X13030D01*
X14880D02*
X16855D01*
X5925Y13687D02*
X6760D01*
X9869D02*
X13030D01*
X15370D02*
X16855D01*
X5925Y13736D02*
X6750D01*
X9869D02*
X10777D01*
X11000D02*
X13030D01*
X15370D02*
X16855D01*
X5925Y13784D02*
X6748D01*
X9869D02*
X10709D01*
X11068D02*
X13030D01*
X15370D02*
X16855D01*
X5925Y13832D02*
X6753D01*
X11106D02*
X13030D01*
X15370D02*
X16855D01*
X5925Y13880D02*
X6765D01*
X11129D02*
X13030D01*
X15370D02*
X16855D01*
X5925Y13928D02*
X6785D01*
X11141D02*
X13030D01*
X15370D02*
X16855D01*
X5925Y13976D02*
X6814D01*
X11143D02*
X13030D01*
X15370D02*
X15720D01*
X16570D02*
X16855D01*
X5925Y14024D02*
X6853D01*
X11137D02*
X13031D01*
X15370D02*
X15720D01*
X16570D02*
X16855D01*
X5925Y14072D02*
X6905D01*
X11120D02*
X13042D01*
X15370D02*
X15720D01*
X16570D02*
X16855D01*
X5925Y14120D02*
X6953D01*
X11091D02*
X13067D01*
X15370D02*
X15720D01*
X16570D02*
X16855D01*
X5925Y14168D02*
X7001D01*
X11043D02*
X13112D01*
X15370D02*
X15720D01*
X16570D02*
X16855D01*
X5925Y14216D02*
X7049D01*
X10935D02*
X13160D01*
X15370D02*
X15720D01*
X16570D02*
X16855D01*
X5925Y14264D02*
X7097D01*
X10838D02*
X13208D01*
X15370D02*
X15720D01*
X16570D02*
X16855D01*
X5925Y14312D02*
X7145D01*
X10795D02*
X13256D01*
X15370D02*
X15720D01*
X16570D02*
X16855D01*
X5925Y14360D02*
X7193D01*
X10752D02*
X13304D01*
X15370D02*
X15720D01*
X16570D02*
X16855D01*
X5925Y14408D02*
X7203D01*
X10710D02*
X13352D01*
X15370D02*
X15720D01*
X16570D02*
X16855D01*
X5925Y14456D02*
X7203D01*
X10667D02*
X12899D01*
X15370D02*
X15720D01*
X16570D02*
X16855D01*
X5925Y14504D02*
X7203D01*
X10623D02*
X12848D01*
X14357D02*
X14520D01*
X15370D02*
X15720D01*
X16570D02*
X16855D01*
X5925Y14552D02*
X7203D01*
X9869D02*
X12665D01*
X14357D02*
X15720D01*
X16570D02*
X16855D01*
X5925Y14600D02*
X7203D01*
X9869D02*
X12611D01*
X14357D02*
X15720D01*
X16570D02*
X16855D01*
X5925Y14648D02*
X7480D01*
X9996D02*
X12578D01*
X14357D02*
X15720D01*
X16570D02*
X16855D01*
X5925Y14696D02*
X7528D01*
X10050D02*
X12559D01*
X14357D02*
X15720D01*
X16570D02*
X16855D01*
X5925Y14744D02*
X7576D01*
X10139D02*
X12551D01*
X13062D02*
X13634D01*
X14357D02*
X15720D01*
X16570D02*
X16855D01*
X5925Y14792D02*
X7624D01*
X10222D02*
X12551D01*
X13059D02*
X13634D01*
X14357D02*
X15720D01*
X16570D02*
X16855D01*
X5925Y14840D02*
X7672D01*
X8805D02*
X8811D01*
X10265D02*
X12561D01*
X13049D02*
X13634D01*
X15794D02*
X16855D01*
X5925Y14888D02*
X7720D01*
X8760D02*
X8859D01*
X10291D02*
X12582D01*
X13028D02*
X13634D01*
X15853D02*
X16855D01*
X5925Y14936D02*
X7803D01*
X8677D02*
X8906D01*
X10305D02*
X12616D01*
X12994D02*
X13634D01*
X15901D02*
X16855D01*
X5925Y14984D02*
X8953D01*
X10310D02*
X12675D01*
X12935D02*
X13634D01*
X16570D02*
X16855D01*
X5925Y15032D02*
X9000D01*
X10306D02*
X13634D01*
X16570D02*
X16855D01*
X5925Y15080D02*
X9047D01*
X10291D02*
X13634D01*
X16570D02*
X16855D01*
X5925Y15128D02*
X9133D01*
X10266D02*
X13634D01*
X15360D02*
X15683D01*
X16570D02*
X16855D01*
X5925Y15176D02*
X9146D01*
X10223D02*
X13634D01*
X15360D02*
X15720D01*
X16570D02*
X16855D01*
X5925Y15224D02*
X9146D01*
X10143D02*
X13634D01*
X15360D02*
X15720D01*
X16570D02*
X16855D01*
X5925Y15273D02*
X9146D01*
X10001D02*
X13634D01*
X15360D02*
X15720D01*
X16570D02*
X16855D01*
X5925Y15321D02*
X9146D01*
X9987D02*
X13634D01*
X15360D02*
X15720D01*
X16570D02*
X16855D01*
X5925Y15369D02*
X9146D01*
X10035D02*
X13634D01*
X15360D02*
X15720D01*
X16570D02*
X16855D01*
X5925Y15417D02*
X8580D01*
X10082D02*
X13634D01*
X15360D02*
X15720D01*
X16570D02*
X16855D01*
X5925Y15465D02*
X8480D01*
X10107D02*
X13634D01*
X15360D02*
X15720D01*
X16570D02*
X16855D01*
X5925Y15513D02*
X8432D01*
X10116D02*
X13634D01*
X14357D02*
X14500D01*
X15360D02*
X15720D01*
X16570D02*
X16855D01*
X5925Y15561D02*
X8384D01*
X10116D02*
X13634D01*
X14357D02*
X14500D01*
X15360D02*
X15720D01*
X16570D02*
X16855D01*
X5925Y15609D02*
X8336D01*
X10116D02*
X13634D01*
X14357D02*
X14500D01*
X15360D02*
X15720D01*
X16570D02*
X16855D01*
X5925Y15657D02*
X8288D01*
X10116D02*
X13634D01*
X14357D02*
X14500D01*
X15360D02*
X15720D01*
X16570D02*
X16855D01*
X5925Y15705D02*
X8240D01*
X10116D02*
X13634D01*
X14357D02*
X14500D01*
X15360D02*
X15720D01*
X16570D02*
X16855D01*
X5925Y15753D02*
X8192D01*
X10116D02*
X14500D01*
X15360D02*
X15720D01*
X16570D02*
X16855D01*
X5925Y15801D02*
X8144D01*
X10109D02*
X14500D01*
X15360D02*
X15720D01*
X16570D02*
X16855D01*
X5925Y15849D02*
X8096D01*
X10085D02*
X14500D01*
X15360D02*
X16855D01*
X5925Y15897D02*
X8048D01*
X10040D02*
X14500D01*
X15360D02*
X16855D01*
X5925Y15945D02*
X8000D01*
X9992D02*
X14500D01*
X15360D02*
X16855D01*
X5925Y15993D02*
X7952D01*
X9944D02*
X10091D01*
X13412D02*
X14600D01*
X14918D02*
X16855D01*
X5925Y16041D02*
X7904D01*
X9894D02*
X10091D01*
X13412D02*
X14601D01*
X14966D02*
X16855D01*
X5925Y16089D02*
X7856D01*
X8889D02*
X10091D01*
X13412D02*
X14615D01*
X15014D02*
X16855D01*
X5925Y16137D02*
X7808D01*
X8841D02*
X10091D01*
X13412D02*
X14652D01*
X15062D02*
X16855D01*
X5895Y16185D02*
X7760D01*
X8793D02*
X8887D01*
X14407D02*
X14700D01*
X15110D02*
X16855D01*
X5847Y16233D02*
X7712D01*
X8745D02*
X8828D01*
X14498D02*
X14748D01*
X15158D02*
X16863D01*
X5799Y16281D02*
X7664D01*
X8697D02*
X8780D01*
X14546D02*
X14796D01*
X15206D02*
X16911D01*
X5751Y16329D02*
X7616D01*
X8649D02*
X8732D01*
X14594D02*
X14844D01*
X15254D02*
X16959D01*
X5703Y16377D02*
X7568D01*
X8601D02*
X8685D01*
X14642D02*
X14892D01*
X15302D02*
X17007D01*
X5655Y16425D02*
X7520D01*
X8553D02*
X8637D01*
X14690D02*
X14940D01*
X15350D02*
X17055D01*
X5607Y16473D02*
X7472D01*
X8504D02*
X8589D01*
X14738D02*
X14988D01*
X15398D02*
X17103D01*
X5559Y16521D02*
X7424D01*
X8456D02*
X8542D01*
X14786D02*
X15036D01*
X15446D02*
X17151D01*
X5511Y16569D02*
X7376D01*
X8408D02*
X8494D01*
X14834D02*
X15084D01*
X15494D02*
X17199D01*
X5463Y16617D02*
X7328D01*
X8360D02*
X8446D01*
X14882D02*
X15132D01*
X15542D02*
X17247D01*
X5415Y16665D02*
X7284D01*
X8312D02*
X8399D01*
X14930D02*
X15180D01*
X15591D02*
X17295D01*
X5367Y16713D02*
X7263D01*
X8264D02*
X8351D01*
X14979D02*
X15228D01*
X15639D02*
X17343D01*
X5319Y16761D02*
X7260D01*
X8216D02*
X8303D01*
X15027D02*
X15276D01*
X15687D02*
X17391D01*
X5270Y16810D02*
X7260D01*
X8168D02*
X8256D01*
X15075D02*
X15324D01*
X15735D02*
X17440D01*
X5222Y16858D02*
X7260D01*
X8120D02*
X8208D01*
X15123D02*
X15372D01*
X15783D02*
X17488D01*
X5174Y16906D02*
X7260D01*
X8072D02*
X8160D01*
X9079D02*
X9317D01*
X15171D02*
X15421D01*
X15831D02*
X17536D01*
X5126Y16954D02*
X7260D01*
X8024D02*
X8113D01*
X9031D02*
X9269D01*
X15219D02*
X15469D01*
X15879D02*
X17584D01*
X5078Y17002D02*
X7260D01*
X7976D02*
X8065D01*
X8983D02*
X9221D01*
X15267D02*
X15517D01*
X15927D02*
X17632D01*
X5030Y17050D02*
X7260D01*
X7956D02*
X8032D01*
X8935D02*
X9173D01*
X15315D02*
X15565D01*
X15975D02*
X17680D01*
X4982Y17098D02*
X7260D01*
X7956D02*
X8019D01*
X8887D02*
X9139D01*
X15363D02*
X15613D01*
X16023D02*
X17728D01*
X4934Y17146D02*
X7260D01*
X7956D02*
X8018D01*
X8839D02*
X9125D01*
X15411D02*
X15661D01*
X16071D02*
X17776D01*
X4886Y17194D02*
X7260D01*
X7956D02*
X8018D01*
X8791D02*
X9124D01*
X15459D02*
X15709D01*
X16119D02*
X17824D01*
X4838Y17242D02*
X7260D01*
X7956D02*
X8018D01*
X8743D02*
X9124D01*
X15638D02*
X15757D01*
X16315D02*
X17872D01*
X4790Y17290D02*
X7211D01*
X7956D02*
X8011D01*
X8720D02*
X9091D01*
X15710D02*
X15805D01*
X16369D02*
X17920D01*
X4742Y17338D02*
X7179D01*
X7956D02*
X7979D01*
X8720D02*
X9059D01*
X15750D02*
X15853D01*
X16402D02*
X17968D01*
X4694Y17386D02*
X7160D01*
X7956D02*
X7960D01*
X8720D02*
X9040D01*
X15774D02*
X15901D01*
X16420D02*
X18016D01*
X4646Y17434D02*
X7151D01*
X8720D02*
X9031D01*
X14679D02*
X14699D01*
X15787D02*
X15921D01*
X16429D02*
X18064D01*
X4598Y17482D02*
X7151D01*
X8762D02*
X9031D01*
X14679D02*
X14747D01*
X15790D02*
X15921D01*
X16429D02*
X18112D01*
X4550Y17530D02*
X7161D01*
X8797D02*
X9041D01*
X14669D02*
X14795D01*
X15784D02*
X15931D01*
X16419D02*
X18160D01*
X4502Y17578D02*
X7182D01*
X8818D02*
X9062D01*
X14648D02*
X14843D01*
X15768D02*
X15952D01*
X16398D02*
X18208D01*
X4454Y17626D02*
X7216D01*
X8828D02*
X9096D01*
X11107D02*
X11116D01*
X14614D02*
X14872D01*
X15740D02*
X15986D01*
X16364D02*
X18256D01*
X4406Y17674D02*
X7244D01*
X8829D02*
X9114D01*
X11110D02*
X11175D01*
X14570D02*
X14871D01*
X15694D02*
X16030D01*
X16320D02*
X18304D01*
X4358Y17722D02*
X7244D01*
X8821D02*
X9114D01*
X11104D02*
X11210D01*
X14570D02*
X14879D01*
X15680D02*
X16030D01*
X16320D02*
X18352D01*
X4310Y17770D02*
X7244D01*
X8803D02*
X9114D01*
X11087D02*
X11210D01*
X12583D02*
X12597D01*
X14570D02*
X14897D01*
X15680D02*
X16030D01*
X16320D02*
X18400D01*
X4262Y17818D02*
X7244D01*
X8771D02*
X9114D01*
X11059D02*
X11210D01*
X12551D02*
X12629D01*
X14570D02*
X14929D01*
X15680D02*
X16030D01*
X16320D02*
X18448D01*
X4214Y17866D02*
X7253D01*
X8718D02*
X9114D01*
X11012D02*
X11150D01*
X12520D02*
X12682D01*
X14570D02*
X14964D01*
X16380D02*
X18496D01*
X4166Y17914D02*
X7279D01*
X8680D02*
X9122D01*
X10909D02*
X11150D01*
X12520D02*
X12879D01*
X14570D02*
X14964D01*
X16380D02*
X18544D01*
X4118Y17962D02*
X7310D01*
X8680D02*
X9147D01*
X10835D02*
X11150D01*
X12520D02*
X12927D01*
X14570D02*
X14964D01*
X16380D02*
X18592D01*
X4070Y18010D02*
X7310D01*
X8680D02*
X9195D01*
X10787D02*
X11150D01*
X12520D02*
X12975D01*
X14561D02*
X14964D01*
X16380D02*
X18640D01*
X4022Y18058D02*
X7310D01*
X8680D02*
X9230D01*
X10739D02*
X11150D01*
X12520D02*
X13023D01*
X14532D02*
X14965D01*
X16380D02*
X18688D01*
X3974Y18106D02*
X7310D01*
X8680D02*
X9230D01*
X10691D02*
X11150D01*
X12520D02*
X13070D01*
X14484D02*
X14976D01*
X16380D02*
X18736D01*
X3926Y18154D02*
X7310D01*
X8680D02*
X9230D01*
X10643D02*
X11150D01*
X12520D02*
X13070D01*
X14440D02*
X15007D01*
X16380D02*
X18784D01*
X3878Y18202D02*
X7310D01*
X8680D02*
X9230D01*
X10600D02*
X11150D01*
X12520D02*
X13070D01*
X14440D02*
X15010D01*
X16380D02*
X18832D01*
X3830Y18250D02*
X7310D01*
X8680D02*
X9230D01*
X10600D02*
X11150D01*
X12520D02*
X13070D01*
X14440D02*
X15010D01*
X16380D02*
X18880D01*
X3781Y18299D02*
X7310D01*
X8680D02*
X9230D01*
X10600D02*
X11150D01*
X12520D02*
X13070D01*
X14440D02*
X15010D01*
X16380D02*
X18929D01*
X3733Y18347D02*
X7310D01*
X8680D02*
X9230D01*
X10600D02*
X11150D01*
X12520D02*
X13070D01*
X14440D02*
X15010D01*
X16380D02*
X18977D01*
X3685Y18395D02*
X7310D01*
X8680D02*
X9230D01*
X10600D02*
X11150D01*
X12520D02*
X13070D01*
X14440D02*
X15010D01*
X16380D02*
X19025D01*
X3637Y18443D02*
X7310D01*
X8680D02*
X9230D01*
X10600D02*
X11150D01*
X12520D02*
X13070D01*
X14440D02*
X15010D01*
X16380D02*
X19073D01*
X3589Y18491D02*
X19121D01*
X3541Y18539D02*
X7310D01*
X8680D02*
X9230D01*
X10600D02*
X11150D01*
X12520D02*
X13070D01*
X14440D02*
X15010D01*
X16380D02*
X19169D01*
X3493Y18587D02*
X7310D01*
X8680D02*
X9230D01*
X10600D02*
X11150D01*
X12520D02*
X13070D01*
X14440D02*
X15010D01*
X16380D02*
X19217D01*
X3445Y18635D02*
X7310D01*
X8680D02*
X9230D01*
X10600D02*
X11150D01*
X12520D02*
X13070D01*
X14440D02*
X15010D01*
X16380D02*
X19265D01*
X3397Y18683D02*
X7310D01*
X8680D02*
X9230D01*
X10600D02*
X11150D01*
X12520D02*
X13070D01*
X14440D02*
X15010D01*
X16380D02*
X19313D01*
X3349Y18731D02*
X7310D01*
X8680D02*
X9230D01*
X10600D02*
X11150D01*
X12520D02*
X13070D01*
X14440D02*
X15010D01*
X16380D02*
X19361D01*
X3301Y18779D02*
X7310D01*
X8680D02*
X9230D01*
X10600D02*
X11150D01*
X12520D02*
X13070D01*
X14440D02*
X15010D01*
X16380D02*
X19409D01*
X3253Y18827D02*
X7273D01*
X8680D02*
X9216D01*
X10602D02*
X11150D01*
X12520D02*
X13070D01*
X14440D02*
X15010D01*
X16380D02*
X19457D01*
X3205Y18875D02*
X7225D01*
X8680D02*
X9168D01*
X10650D02*
X11140D01*
X12540D02*
X13070D01*
X14470D02*
X15010D01*
X16380D02*
X19505D01*
X3157Y18923D02*
X7192D01*
X8680D02*
X9120D01*
X10698D02*
X11092D01*
X12588D02*
X13070D01*
X14518D02*
X15010D01*
X16380D02*
X19553D01*
X3109Y18971D02*
X7180D01*
X8691D02*
X9078D01*
X10746D02*
X11055D01*
X12636D02*
X13070D01*
X14566D02*
X15010D01*
X16380D02*
X19601D01*
X3061Y19019D02*
X7180D01*
X8739D02*
X9058D01*
X10794D02*
X11041D01*
X12684D02*
X13070D01*
X14614D02*
X15010D01*
X16380D02*
X19649D01*
X3013Y19067D02*
X7180D01*
X8787D02*
X9054D01*
X10822D02*
X11040D01*
X12732D02*
X13049D01*
X14662D02*
X15010D01*
X16380D02*
X19697D01*
X2965Y19115D02*
X7180D01*
X8819D02*
X9054D01*
X10830D02*
X11040D01*
X12780D02*
X13036D01*
X14710D02*
X15054D01*
X16336D02*
X19745D01*
X2917Y19163D02*
X7180D01*
X8830D02*
X9054D01*
X10830D02*
X11040D01*
X12825D02*
X13034D01*
X14758D02*
X15054D01*
X16336D02*
X19793D01*
X2869Y19211D02*
X7180D01*
X8830D02*
X9054D01*
X10830D02*
X11040D01*
X12846D02*
X13034D01*
X14800D02*
X15054D01*
X16336D02*
X19841D01*
X2821Y19259D02*
X7180D01*
X8830D02*
X9054D01*
X10830D02*
X11040D01*
X12850D02*
X13034D01*
X14818D02*
X15054D01*
X16336D02*
X19889D01*
X2773Y19307D02*
X7180D01*
X8830D02*
X9054D01*
X10830D02*
X11040D01*
X12850D02*
X13034D01*
X14820D02*
X15054D01*
X16336D02*
X19937D01*
X2725Y19355D02*
X7180D01*
X8830D02*
X9054D01*
X10830D02*
X11040D01*
X12850D02*
X13034D01*
X14820D02*
X15054D01*
X16336D02*
X19985D01*
X2677Y19403D02*
X7180D01*
X8830D02*
X9054D01*
X10830D02*
X11040D01*
X12850D02*
X13034D01*
X14820D02*
X15054D01*
X16336D02*
X20033D01*
X2725Y19451D02*
X7180D01*
X8830D02*
X9054D01*
X10830D02*
X11040D01*
X12850D02*
X13034D01*
X14820D02*
X15054D01*
X16336D02*
X20081D01*
X2773Y19499D02*
X7180D01*
X8830D02*
X9054D01*
X10830D02*
X11040D01*
X12850D02*
X13034D01*
X14820D02*
X15054D01*
X16336D02*
X20129D01*
X2821Y19547D02*
X7180D01*
X8830D02*
X9054D01*
X10830D02*
X11040D01*
X12850D02*
X13034D01*
X14820D02*
X15054D01*
X16336D02*
X20177D01*
X2869Y19595D02*
X7180D01*
X8830D02*
X9054D01*
X10830D02*
X11040D01*
X12850D02*
X13034D01*
X14820D02*
X15054D01*
X16336D02*
X20225D01*
X2917Y19643D02*
X7180D01*
X8830D02*
X9054D01*
X10830D02*
X11040D01*
X12850D02*
X13034D01*
X14820D02*
X15054D01*
X16336D02*
X20273D01*
X2965Y19691D02*
X7180D01*
X8830D02*
X9054D01*
X10830D02*
X11040D01*
X12850D02*
X13034D01*
X14820D02*
X15054D01*
X16336D02*
X20321D01*
X3013Y19739D02*
X7180D01*
X8830D02*
X9054D01*
X10830D02*
X11040D01*
X12850D02*
X13034D01*
X14820D02*
X15054D01*
X16336D02*
X20369D01*
X3061Y19787D02*
X7180D01*
X8830D02*
X9054D01*
X10830D02*
X11040D01*
X12850D02*
X13034D01*
X14820D02*
X15054D01*
X16336D02*
X20417D01*
X3109Y19836D02*
X7180D01*
X8830D02*
X9054D01*
X10830D02*
X11040D01*
X12850D02*
X13034D01*
X14820D02*
X15054D01*
X16336D02*
X20466D01*
X3157Y19884D02*
X7180D01*
X8830D02*
X9054D01*
X10830D02*
X11040D01*
X12850D02*
X13034D01*
X14820D02*
X15054D01*
X16336D02*
X20514D01*
X3205Y19932D02*
X7180D01*
X8830D02*
X9054D01*
X10830D02*
X11040D01*
X12850D02*
X13034D01*
X14820D02*
X15054D01*
X16336D02*
X20562D01*
X3253Y19980D02*
X7180D01*
X8830D02*
X9054D01*
X10830D02*
X11040D01*
X12850D02*
X13034D01*
X14820D02*
X15054D01*
X16336D02*
X20610D01*
X3301Y20028D02*
X7180D01*
X8830D02*
X9054D01*
X10830D02*
X11040D01*
X12850D02*
X13034D01*
X14820D02*
X15054D01*
X16336D02*
X20658D01*
X3349Y20076D02*
X7180D01*
X8830D02*
X9054D01*
X10830D02*
X11040D01*
X12850D02*
X13034D01*
X14820D02*
X15054D01*
X16336D02*
X20706D01*
X3397Y20124D02*
X7180D01*
X8830D02*
X9054D01*
X10830D02*
X11040D01*
X12850D02*
X13034D01*
X14820D02*
X15054D01*
X16336D02*
X20754D01*
X3445Y20172D02*
X7180D01*
X8830D02*
X9054D01*
X10830D02*
X11040D01*
X12850D02*
X13034D01*
X14820D02*
X15054D01*
X16336D02*
X20795D01*
X3493Y20220D02*
X7180D01*
X8830D02*
X9054D01*
X10830D02*
X11040D01*
X12850D02*
X13034D01*
X14820D02*
X15054D01*
X16336D02*
X20747D01*
X3541Y20268D02*
X7180D01*
X8830D02*
X9054D01*
X10830D02*
X11040D01*
X12850D02*
X13034D01*
X14820D02*
X15054D01*
X16336D02*
X20699D01*
X3589Y20316D02*
X7180D01*
X8830D02*
X9054D01*
X10830D02*
X11040D01*
X12850D02*
X13034D01*
X14820D02*
X15054D01*
X16336D02*
X20651D01*
X3637Y20364D02*
X5780D01*
X6630D02*
X6780D01*
X16630D02*
X16780D01*
X17630D02*
X17780D01*
X18630D02*
X20603D01*
X3685Y20412D02*
X5780D01*
X6630D02*
X6780D01*
X16630D02*
X16780D01*
X17630D02*
X17780D01*
X18630D02*
X20555D01*
X3733Y20460D02*
X5780D01*
X6630D02*
X6780D01*
X16630D02*
X16780D01*
X17630D02*
X17780D01*
X18630D02*
X20507D01*
X3781Y20508D02*
X5780D01*
X6630D02*
X6780D01*
X16630D02*
X16780D01*
X17630D02*
X17780D01*
X18630D02*
X20459D01*
X3830Y20556D02*
X5780D01*
X6630D02*
X6780D01*
X16630D02*
X16780D01*
X17630D02*
X17780D01*
X18630D02*
X20410D01*
X3878Y20604D02*
X5780D01*
X6630D02*
X6780D01*
X16630D02*
X16780D01*
X17630D02*
X17780D01*
X18630D02*
X20362D01*
X3926Y20652D02*
X5780D01*
X6630D02*
X6780D01*
X16630D02*
X16780D01*
X17630D02*
X17780D01*
X18630D02*
X20314D01*
X3974Y20700D02*
X5780D01*
X6630D02*
X6780D01*
X16630D02*
X16780D01*
X17630D02*
X17780D01*
X18630D02*
X20266D01*
X4022Y20748D02*
X5780D01*
X6630D02*
X6780D01*
X16630D02*
X16780D01*
X17630D02*
X17780D01*
X18630D02*
X20218D01*
X4070Y20796D02*
X5780D01*
X6630D02*
X6780D01*
X16630D02*
X16780D01*
X17630D02*
X17780D01*
X18630D02*
X20170D01*
X4118Y20844D02*
X5780D01*
X6630D02*
X6780D01*
X16630D02*
X16780D01*
X17630D02*
X17780D01*
X18630D02*
X20122D01*
X4166Y20892D02*
X5780D01*
X6630D02*
X6780D01*
X16630D02*
X16780D01*
X17630D02*
X17780D01*
X18630D02*
X20074D01*
X4214Y20940D02*
X5780D01*
X6630D02*
X6780D01*
X16630D02*
X16780D01*
X17630D02*
X17780D01*
X18630D02*
X20026D01*
X4262Y20988D02*
X5780D01*
X6630D02*
X6780D01*
X16630D02*
X16780D01*
X17630D02*
X17780D01*
X18630D02*
X19978D01*
X4310Y21036D02*
X5780D01*
X6630D02*
X6780D01*
X16630D02*
X16780D01*
X17630D02*
X17780D01*
X18630D02*
X19930D01*
X4358Y21084D02*
X5780D01*
X6630D02*
X6780D01*
X16630D02*
X16780D01*
X17630D02*
X17780D01*
X18630D02*
X19882D01*
X4406Y21132D02*
X5780D01*
X6630D02*
X6780D01*
X16630D02*
X16780D01*
X17630D02*
X17780D01*
X18630D02*
X19834D01*
X4454Y21180D02*
X7544D01*
X16350D02*
X19786D01*
X4502Y21228D02*
X7544D01*
X16350D02*
X19738D01*
X4550Y21276D02*
X7506D01*
X16350D02*
X19690D01*
X4598Y21324D02*
X5780D01*
X6630D02*
X6780D01*
X16630D02*
X16780D01*
X17630D02*
X17780D01*
X18630D02*
X19642D01*
X4646Y21373D02*
X5780D01*
X6630D02*
X6780D01*
X16630D02*
X16780D01*
X17630D02*
X17780D01*
X18630D02*
X19594D01*
X4694Y21421D02*
X5780D01*
X6630D02*
X6780D01*
X8744D02*
X8780D01*
X9775D02*
X9780D01*
X10735D02*
X10780D01*
X11734D02*
X11780D01*
X12735D02*
X12780D01*
X14744D02*
X14780D01*
X15734D02*
X15780D01*
X16630D02*
X16780D01*
X17630D02*
X17780D01*
X18630D02*
X19546D01*
X4742Y21469D02*
X5780D01*
X6630D02*
X6780D01*
X7769D02*
X7780D01*
X8696D02*
X8780D01*
X9726D02*
X9780D01*
X10686D02*
X10780D01*
X11686D02*
X11780D01*
X12686D02*
X12780D01*
X13779D02*
X13780D01*
X14696D02*
X14780D01*
X15686D02*
X15780D01*
X16630D02*
X16780D01*
X17630D02*
X17780D01*
X18630D02*
X19498D01*
X4790Y21517D02*
X5780D01*
X6630D02*
X6780D01*
X7721D02*
X7780D01*
X8648D02*
X8780D01*
X9678D02*
X9780D01*
X10638D02*
X10780D01*
X11638D02*
X11780D01*
X12638D02*
X12780D01*
X13731D02*
X13780D01*
X14648D02*
X14780D01*
X15638D02*
X15780D01*
X16630D02*
X16780D01*
X17630D02*
X17780D01*
X18630D02*
X19450D01*
X4838Y21565D02*
X5780D01*
X6630D02*
X6780D01*
X7673D02*
X7780D01*
X8630D02*
X8780D01*
X9630D02*
X9780D01*
X10630D02*
X10780D01*
X11630D02*
X11780D01*
X12630D02*
X12780D01*
X13683D02*
X13780D01*
X14630D02*
X14780D01*
X15630D02*
X15780D01*
X16630D02*
X16780D01*
X17630D02*
X17780D01*
X18630D02*
X19402D01*
X4886Y21613D02*
X5780D01*
X6630D02*
X6780D01*
X7630D02*
X7780D01*
X8630D02*
X8780D01*
X9630D02*
X9780D01*
X10630D02*
X10780D01*
X11630D02*
X11780D01*
X12630D02*
X12780D01*
X13635D02*
X13780D01*
X14630D02*
X14780D01*
X15630D02*
X15780D01*
X16630D02*
X16780D01*
X17630D02*
X17780D01*
X18630D02*
X19354D01*
X4934Y21661D02*
X5780D01*
X6630D02*
X6780D01*
X7630D02*
X7780D01*
X8630D02*
X8780D01*
X9630D02*
X9780D01*
X10630D02*
X10780D01*
X11630D02*
X11780D01*
X12630D02*
X12780D01*
X13630D02*
X13780D01*
X14630D02*
X14780D01*
X15630D02*
X15780D01*
X16630D02*
X16780D01*
X17630D02*
X17780D01*
X18630D02*
X19306D01*
X4982Y21709D02*
X5780D01*
X6630D02*
X6780D01*
X7630D02*
X7780D01*
X8630D02*
X8780D01*
X9630D02*
X9780D01*
X10630D02*
X10780D01*
X11630D02*
X11780D01*
X12630D02*
X12780D01*
X13630D02*
X13780D01*
X14630D02*
X14780D01*
X15630D02*
X15780D01*
X16630D02*
X16780D01*
X17630D02*
X17780D01*
X18630D02*
X19258D01*
X5030Y21757D02*
X5780D01*
X6630D02*
X6780D01*
X7630D02*
X7780D01*
X8630D02*
X8780D01*
X9630D02*
X9780D01*
X10630D02*
X10780D01*
X11630D02*
X11780D01*
X12630D02*
X12780D01*
X13630D02*
X13780D01*
X14630D02*
X14780D01*
X15630D02*
X15780D01*
X16630D02*
X16780D01*
X17630D02*
X17780D01*
X18630D02*
X19210D01*
X5078Y21805D02*
X5780D01*
X6630D02*
X6780D01*
X7630D02*
X7780D01*
X8630D02*
X8780D01*
X9630D02*
X9780D01*
X10630D02*
X10780D01*
X11630D02*
X11780D01*
X12630D02*
X12780D01*
X13630D02*
X13780D01*
X14630D02*
X14780D01*
X15630D02*
X15780D01*
X16630D02*
X16780D01*
X17630D02*
X17780D01*
X18630D02*
X19162D01*
X5126Y21853D02*
X5780D01*
X6630D02*
X6780D01*
X7630D02*
X7780D01*
X8630D02*
X8780D01*
X9630D02*
X9780D01*
X10630D02*
X10780D01*
X11630D02*
X11780D01*
X12630D02*
X12780D01*
X13630D02*
X13780D01*
X14630D02*
X14780D01*
X15630D02*
X15780D01*
X16630D02*
X16780D01*
X17630D02*
X17780D01*
X18630D02*
X19114D01*
X5174Y21901D02*
X5780D01*
X6630D02*
X6780D01*
X7630D02*
X7780D01*
X8630D02*
X8780D01*
X9630D02*
X9780D01*
X10630D02*
X10780D01*
X11630D02*
X11780D01*
X12630D02*
X12780D01*
X13630D02*
X13780D01*
X14630D02*
X14780D01*
X15630D02*
X15780D01*
X16630D02*
X16780D01*
X17630D02*
X17780D01*
X18630D02*
X19066D01*
X5222Y21949D02*
X5780D01*
X6630D02*
X6780D01*
X7630D02*
X7780D01*
X8630D02*
X8780D01*
X9630D02*
X9780D01*
X10630D02*
X10780D01*
X11630D02*
X11780D01*
X12630D02*
X12780D01*
X13630D02*
X13780D01*
X14630D02*
X14780D01*
X15630D02*
X15780D01*
X16630D02*
X16780D01*
X17630D02*
X17780D01*
X18630D02*
X19018D01*
X5270Y21997D02*
X5780D01*
X6630D02*
X6780D01*
X7630D02*
X7780D01*
X8630D02*
X8780D01*
X9630D02*
X9780D01*
X10630D02*
X10780D01*
X11630D02*
X11780D01*
X12630D02*
X12780D01*
X13630D02*
X13780D01*
X14630D02*
X14780D01*
X15630D02*
X15780D01*
X16630D02*
X16780D01*
X17630D02*
X17780D01*
X18630D02*
X18970D01*
X5319Y22045D02*
X5780D01*
X6630D02*
X6780D01*
X7630D02*
X7780D01*
X8630D02*
X8780D01*
X9630D02*
X9780D01*
X10630D02*
X10780D01*
X11630D02*
X11780D01*
X12630D02*
X12780D01*
X13630D02*
X13780D01*
X14630D02*
X14780D01*
X15630D02*
X15780D01*
X16630D02*
X16780D01*
X17630D02*
X17780D01*
X18630D02*
X18921D01*
X5367Y22093D02*
X5780D01*
X6630D02*
X6780D01*
X7630D02*
X7780D01*
X8630D02*
X8780D01*
X9630D02*
X9780D01*
X10630D02*
X10780D01*
X11630D02*
X11780D01*
X12630D02*
X12780D01*
X13630D02*
X13780D01*
X14630D02*
X14780D01*
X15630D02*
X15780D01*
X16630D02*
X16780D01*
X17630D02*
X17780D01*
X18630D02*
X18873D01*
X5415Y22141D02*
X5780D01*
X6630D02*
X6780D01*
X7630D02*
X7780D01*
X8630D02*
X8780D01*
X9630D02*
X9780D01*
X10630D02*
X10780D01*
X11630D02*
X11780D01*
X12630D02*
X12780D01*
X13630D02*
X13780D01*
X14630D02*
X14780D01*
X15630D02*
X15780D01*
X16630D02*
X16780D01*
X17630D02*
X17780D01*
X18630D02*
X18825D01*
X5463Y22189D02*
X18777D01*
X5511Y22237D02*
X18729D01*
X5559Y22285D02*
X18681D01*
X5607Y22333D02*
X18633D01*
X5655Y22381D02*
X18585D01*
X5703Y22429D02*
X18537D01*
X5751Y22477D02*
X18489D01*
X5799Y22525D02*
X18441D01*
X5847Y22573D02*
X18393D01*
X5895Y22621D02*
X18345D01*
X5943Y22669D02*
X18297D01*
X5991Y22717D02*
X18249D01*
X6039Y22765D02*
X18201D01*
X6087Y22813D02*
X18153D01*
X6135Y22861D02*
X18105D01*
X6183Y22910D02*
X18057D01*
X6231Y22958D02*
X18009D01*
X6279Y23006D02*
X17961D01*
X6327Y23054D02*
X17913D01*
X6375Y23102D02*
X17865D01*
X6423Y23150D02*
X17817D01*
X6471Y23198D02*
X17769D01*
X6519Y23246D02*
X17721D01*
X6567Y23294D02*
X17673D01*
X6615Y23342D02*
X17625D01*
X6663Y23390D02*
X17577D01*
X6711Y23438D02*
X17529D01*
X6759Y23486D02*
X17481D01*
X6807Y23534D02*
X17433D01*
X6856Y23582D02*
X17384D01*
X6904Y23630D02*
X17336D01*
X6952Y23678D02*
X17288D01*
X7000Y23726D02*
X17240D01*
X7048Y23774D02*
X17192D01*
X7096Y23822D02*
X17144D01*
X7144Y23870D02*
X17096D01*
X7192Y23918D02*
X17048D01*
X12291Y8384D02*
X12361D01*
X12380Y8383*
X12399Y8379*
X12417Y8373*
X12434Y8364*
X12449Y8354*
X12464Y8341*
X12489Y8316*
X12516Y8319*
X12544Y8320*
X12571Y8317*
X12598Y8312*
X12624Y8304*
X12649Y8293*
X12673Y8279*
X12696Y8263*
X12716Y8245*
X12734Y8224*
X12750Y8202*
X12764Y8178*
X12774Y8153*
X12782Y8127*
X12788Y8100*
X12790Y8072*
X12789Y8045*
X12786Y8018*
X12779Y7991*
X12770Y7965*
X12758Y7941*
X12743Y7917*
X12726Y7896*
X13215*
X13236Y7894*
X13257Y7890*
X13277Y7884*
X13295Y7874*
X13313Y7863*
X13329Y7849*
X13589Y7589*
X13603Y7573*
X13614Y7555*
X13624Y7536*
X13630Y7517*
X13634Y7496*
X13636Y7475*
Y6952*
X13640Y6955*
Y7205*
X13641Y7224*
X13645Y7243*
X13651Y7260*
X13659Y7277*
X13670Y7293*
X13682Y7308*
X13949Y7574*
X13963Y7586*
X13979Y7597*
X13996Y7605*
X14014Y7611*
X14032Y7615*
X14051Y7616*
X14199*
Y9117*
X12788*
X12767Y9098*
X12744Y9082*
X12720Y9067*
X12694Y9056*
X12667Y9048*
X12639Y9042*
X12611Y9040*
X12583Y9041*
X12555Y9045*
X12528Y9052*
X12501Y9062*
X12476Y9075*
X12452Y9091*
X12431Y9109*
X12411Y9129*
X12394Y9152*
X12379Y9176*
X12368Y9202*
X12359Y9229*
X12353Y9256*
X12350Y9284*
X12351Y9313*
X12354Y9341*
X12322Y9373*
X12291*
Y8384*
X13636Y6991D02*
X13640D01*
X13636Y7039D02*
X13640D01*
X13636Y7087D02*
X13640D01*
X13636Y7135D02*
X13640D01*
X13636Y7183D02*
X13640D01*
X13636Y7231D02*
X13642D01*
X13636Y7279D02*
X13660D01*
X13636Y7327D02*
X13702D01*
X13636Y7375D02*
X13750D01*
X13636Y7423D02*
X13798D01*
X13636Y7471D02*
X13846D01*
X13630Y7519D02*
X13894D01*
X13607Y7567D02*
X13942D01*
X13562Y7615D02*
X14036D01*
X13514Y7663D02*
X14199D01*
X13466Y7711D02*
X14199D01*
X13418Y7759D02*
X14199D01*
X13370Y7807D02*
X14199D01*
X13321Y7856D02*
X14199D01*
X12732Y7904D02*
X14199D01*
X12763Y7952D02*
X14199D01*
X12781Y8000D02*
X14199D01*
X12789Y8048D02*
X14199D01*
X12788Y8096D02*
X14199D01*
X12778Y8144D02*
X14199D01*
X12756Y8192D02*
X14199D01*
X12721Y8240D02*
X14199D01*
X12659Y8288D02*
X14199D01*
X12469Y8336D02*
X14199D01*
X12291Y8384D02*
X14199D01*
X12291Y8432D02*
X14199D01*
X12291Y8480D02*
X14199D01*
X12291Y8528D02*
X14199D01*
X12291Y8576D02*
X14199D01*
X12291Y8624D02*
X14199D01*
X12291Y8672D02*
X14199D01*
X12291Y8720D02*
X14199D01*
X12291Y8768D02*
X14199D01*
X12291Y8816D02*
X14199D01*
X12291Y8864D02*
X14199D01*
X12291Y8912D02*
X14199D01*
X12291Y8960D02*
X14199D01*
X12291Y9008D02*
X14199D01*
X12291Y9056D02*
X12515D01*
X12695D02*
X14199D01*
X12291Y9104D02*
X12436D01*
X12774D02*
X14199D01*
X12291Y9152D02*
X12394D01*
X12291Y9200D02*
X12368D01*
X12291Y9248D02*
X12354D01*
X12291Y9296D02*
X12350D01*
X12291Y9344D02*
X12350D01*
X15169Y7360D02*
X15491D01*
X15510Y7381*
X15532Y7399*
X15555Y7414*
X15580Y7427*
X15606Y7438*
X15634Y7445*
X15661Y7449*
X15690Y7450*
X15718Y7448*
X15745Y7443*
X15772Y7435*
X15798Y7424*
X15823Y7410*
X15846Y7393*
X15866Y7374*
X15885Y7353*
Y7615*
X16685*
Y6730*
X16825*
Y7530*
X16261Y8094*
X15169*
Y7888*
X15293*
X15308Y7887*
X15324Y7885*
X15352Y7889*
X15380Y7890*
X15408Y7888*
X15436Y7883*
X15463Y7874*
X15489Y7863*
X15513Y7849*
X15536Y7833*
X15557Y7814*
X15576Y7792*
X15592Y7769*
X15605Y7744*
X15616Y7718*
X15624Y7691*
X15628Y7663*
X15630Y7635*
X15628Y7607*
X15624Y7580*
X15616Y7553*
X15606Y7527*
X15593Y7503*
X15577Y7480*
X15559Y7459*
X15539Y7440*
X15517Y7423*
X15493Y7409*
X15467Y7397*
X15441Y7389*
X15414Y7383*
X15386Y7380*
X15358Y7381*
X15331Y7384*
X15304Y7390*
X15277Y7399*
X15252Y7411*
X15229Y7426*
X15207Y7443*
X15187Y7463*
X15169Y7484*
Y7360*
X16685Y6736D02*
X16825D01*
X16685Y6784D02*
X16825D01*
X16685Y6832D02*
X16825D01*
X16685Y6880D02*
X16825D01*
X16685Y6928D02*
X16825D01*
X16685Y6976D02*
X16825D01*
X16685Y7024D02*
X16825D01*
X16685Y7072D02*
X16825D01*
X16685Y7120D02*
X16825D01*
X16685Y7168D02*
X16825D01*
X16685Y7216D02*
X16825D01*
X16685Y7264D02*
X16825D01*
X16685Y7312D02*
X16825D01*
X15169Y7360D02*
X15491D01*
X15879D02*
X15885D01*
X16685D02*
X16825D01*
X15169Y7408D02*
X15258D01*
X15492D02*
X15545D01*
X15825D02*
X15885D01*
X16685D02*
X16825D01*
X15169Y7456D02*
X15193D01*
X15557D02*
X15885D01*
X16685D02*
X16825D01*
X15594Y7504D02*
X15885D01*
X16685D02*
X16825D01*
X15616Y7552D02*
X15885D01*
X16685D02*
X16803D01*
X15628Y7600D02*
X15885D01*
X16685D02*
X16755D01*
X15630Y7648D02*
X16707D01*
X15622Y7696D02*
X16659D01*
X15605Y7744D02*
X16611D01*
X15576Y7793D02*
X16562D01*
X15526Y7841D02*
X16514D01*
X15169Y7889D02*
X15348D01*
X15402D02*
X16466D01*
X15169Y7937D02*
X16418D01*
X15169Y7985D02*
X16370D01*
X15169Y8033D02*
X16322D01*
X15169Y8081D02*
X16274D01*
X15680Y19100D02*
X16014D01*
Y20320*
X15820*
Y19475*
X15819Y19456*
X15815Y19437*
X15809Y19420*
X15801Y19403*
X15790Y19387*
X15778Y19372*
X15680Y19275*
Y19100*
X16014*
X15680Y19148D02*
X16014D01*
X15680Y19196D02*
X16014D01*
X15680Y19244D02*
X16014D01*
X15697Y19292D02*
X16014D01*
X15745Y19340D02*
X16014D01*
X15791Y19388D02*
X16014D01*
X15815Y19436D02*
X16014D01*
X15820Y19484D02*
X16014D01*
X15820Y19532D02*
X16014D01*
X15820Y19580D02*
X16014D01*
X15820Y19628D02*
X16014D01*
X15820Y19676D02*
X16014D01*
X15820Y19724D02*
X16014D01*
X15820Y19772D02*
X16014D01*
X15820Y19820D02*
X16014D01*
X15820Y19869D02*
X16014D01*
X15820Y19917D02*
X16014D01*
X15820Y19965D02*
X16014D01*
X15820Y20013D02*
X16014D01*
X15820Y20061D02*
X16014D01*
X15820Y20109D02*
X16014D01*
X15820Y20157D02*
X16014D01*
X15820Y20205D02*
X16014D01*
X15820Y20253D02*
X16014D01*
X15820Y20301D02*
X16014D01*
D02*
D14*
X7405Y17455D02*
X7415D01*
Y17815*
X7525Y17925*
Y18160*
X7515*
Y18810D02*
X7495D01*
X7325Y18980*
Y20770*
X7205*
Y20745*
X7795Y17655D02*
Y16955D01*
X8835Y15915*
X9794*
X9955Y15755*
Y15515*
X9815Y15375*
X9507*
Y15365*
X7835Y18160D02*
Y17695D01*
X7795Y17655*
X7835Y18810D02*
X7845D01*
Y19155*
X7705Y19295*
Y21305*
X7350Y21660*
X7205*
Y21745*
X8155Y18160D02*
Y17505D01*
X8205Y17455*
X8155Y18810D02*
X8165D01*
Y19110*
X8225Y19170*
Y20745*
X8205*
X8225Y14275D02*
Y14185D01*
X8765*
X8475Y18160D02*
Y17755D01*
X8575Y17655*
X8475Y18810D02*
Y18960D01*
X8685Y19170*
Y21275*
X8185Y21775*
Y21745*
X8205*
X8548Y3188D02*
X8338D01*
X8245Y3095*
X8548Y3388D02*
X7972D01*
X7815Y3545*
X8548Y3588D02*
X8362D01*
X8245Y3705*
X8685Y12415D02*
X8925D01*
X9055Y12545*
Y12895*
X9162Y13002*
X9507*
X8685Y13755D02*
Y13785D01*
X9473*
X9477Y13790*
X9507*
X8838Y2888D02*
Y2162D01*
X8855Y2145*
X8845Y2375*
Y2145*
X9238Y3888D02*
Y4068D01*
X9315Y4145*
X10595*
X10725Y4275*
Y5312*
X10587Y5449*
X10447*
X9255Y7995D02*
X9435D01*
X10175Y7255*
X9255Y7995D02*
X9235D01*
X9125Y8105*
X7935*
X9255Y9365D02*
Y10795D01*
X9915Y11455*
X10375*
X10472Y11552*
Y11841*
X9285Y17455D02*
Y17165D01*
X9545Y16905*
X10449*
X10659Y16695*
Y16329*
X10669*
X9435Y18150D02*
X9425D01*
Y18015*
X9275Y17865*
Y17455*
X9285*
X9435Y18800D02*
X9395D01*
Y18875*
X9215Y19055*
Y20745*
X9205*
X9507Y12609D02*
Y12277D01*
X9345Y12115*
X8445*
X8295Y12265*
Y12415*
X9507Y13396D02*
Y13385D01*
X8415*
Y13125*
X9507Y13987D02*
Y13985D01*
X10895*
X10889Y13979*
Y13965*
X9507Y14183D02*
X8767D01*
X8765Y14185*
X9507Y14380D02*
Y14385D01*
X9075*
X8880Y14580*
X8765*
Y14575*
X9507Y14774D02*
Y14577D01*
Y14971D02*
X9505D01*
Y14975*
X9165*
Y14965*
X8845Y14645*
Y14575*
X8765*
X9507Y15168D02*
X9879D01*
X9981Y15065*
Y14855*
X9911Y14785*
X9518*
X9507Y14774*
Y15561D02*
X8589D01*
X7405Y16745*
Y17455*
X9538Y2988D02*
X9535Y2445D01*
Y2195*
X9445Y2105*
X9538Y3788D02*
X10122D01*
X10175Y3735*
X9623Y5705D02*
X9935D01*
X10025Y5615*
Y4895*
X9885Y4755*
X9865*
Y4765*
X9735Y9705D02*
Y10055D01*
X10865Y11185*
X10866Y11536*
Y11841*
X9755Y18150D02*
Y17695D01*
X9715Y17655*
X9755Y18800D02*
X9735D01*
Y21255*
X9245Y21745*
X9205*
X9865Y4765D02*
X9225D01*
X8845Y4385*
Y3945*
X8838Y3888*
X10075Y18800D02*
X10045D01*
Y19075*
X10185Y19215*
Y20745*
X10205*
X10095Y12785D02*
X10035D01*
X10015Y12805*
X9955*
X9955Y12805*
X9507*
X10175Y7255D02*
X9675Y6755D01*
Y5935*
X9745Y5953*
Y5961*
X9623*
X10205Y21745D02*
X10165D01*
Y21775*
X10175*
X10685Y21265*
Y19115*
X10445Y18875*
X10395Y18775*
Y18800*
X10275Y11841D02*
Y11655D01*
X9735*
X9555Y11475*
X9515*
X10275Y16329D02*
Y16335D01*
X8959*
X8179Y17115*
Y17455*
X8205*
X10285Y17655D02*
Y17605D01*
X10085Y17815*
Y18150*
X10075*
X10385Y4765D02*
X9945Y4325D01*
X9125*
X9038Y4238*
Y3888*
X10472Y16329D02*
Y16628D01*
X10385Y16715*
X9065*
X8575Y17205*
Y17655*
X10505Y10025D02*
X10595D01*
Y10415*
X11065Y10885*
Y11841*
X11062*
X10669D02*
Y11409D01*
X10335Y11075*
X10175*
Y11065*
X10125Y11135*
X10855Y17665D02*
Y17715D01*
X10475Y18095*
X10410Y18150*
X10395*
X10865Y6295D02*
Y7605D01*
Y6295D02*
Y6955D01*
X11775*
X11741Y6959*
X11806*
X10865Y6295D02*
X11305Y5855D01*
Y4175*
X10505Y3375*
X9925*
X9715Y3585*
X9538*
Y3588*
X10866Y16329D02*
Y16315D01*
X10855*
Y16785*
X10485Y17155*
X9925*
X9715Y17365*
Y17655*
X10889Y13965D02*
X10895D01*
X10515Y14385*
X9515*
Y14380*
X9507*
X11062Y16329D02*
X11065D01*
Y16885*
X10295Y17655*
X10285*
X11259Y16329D02*
X11265D01*
Y17005*
X10855Y17415*
Y17665*
X11355Y18160D02*
Y17505D01*
X11305Y17455*
X11355Y18810D02*
X11335D01*
Y18885*
X11185Y19035*
Y20745*
X11205*
X11456Y11841D02*
X11455D01*
Y10954*
X11235Y10734*
Y9764*
X11185Y9714*
Y9685*
X11456Y16329D02*
X11455D01*
Y17295*
X11354Y17396*
Y17455*
X11305*
X11645Y10535D02*
Y11831D01*
X11653*
Y11841*
Y16329D02*
X11655D01*
Y17655*
X11675Y18160D02*
Y17675D01*
X11655Y17655*
X11675Y18810D02*
Y21275D01*
X11205Y21745*
X11806Y6192D02*
X12652D01*
X12785Y6325*
X11806Y6448D02*
X12288D01*
X12555Y6715*
X11806Y6703D02*
Y6715D01*
X11285*
X11195Y6625*
X11165*
X11806Y7471D02*
X12849D01*
X13035Y7285*
X11806Y7983D02*
Y7985D01*
X9985*
X9803Y8167*
X9735*
Y8295*
X11806Y8239D02*
X12361D01*
X12535Y8065*
X11806Y8751D02*
Y8725D01*
X8605*
X7926Y9404*
X7940*
Y9630*
X11806Y9007D02*
X8863D01*
X8825Y9045*
X11806Y9262D02*
X10648D01*
X10375Y9535*
X11806Y9518D02*
X12382D01*
X12605Y9295*
X11850Y11841D02*
Y11390D01*
X11955Y11285*
X11850Y16329D02*
Y17300D01*
X12005Y17455*
X11995Y18160D02*
Y17465D01*
X12005Y17455*
X11995Y18810D02*
Y19055D01*
X12205Y19265*
Y20745*
X12047Y16329D02*
X12045D01*
Y17075*
X12353Y17383*
Y17655*
X12355*
X12243Y11841D02*
Y10673D01*
X11645Y10075*
X12243Y16329D02*
Y16975D01*
X12235*
X12767Y17507*
X12825Y17655*
X12315Y18160D02*
Y17695D01*
X12355Y17655*
X12315Y18810D02*
X12365D01*
Y18905*
X12705Y19245*
Y21245*
X12205Y21745*
X12834Y16329D02*
Y16705D01*
X13054Y16925*
X13995*
X14425Y17355*
Y17455*
X12845Y10025D02*
X13745D01*
X14235Y9535*
X14668*
X14684Y9518*
X13031Y11841D02*
Y11261D01*
X12815Y11045*
X13031Y16329D02*
Y16611D01*
X13145Y16725*
X14195*
X15125Y17655*
X13228Y16329D02*
X14389D01*
X15535Y17475*
X13275Y18150D02*
Y18105D01*
X12825Y17655*
X13275Y18800D02*
Y19095D01*
X13195Y19175*
Y20555*
X13205Y20565*
Y20745*
X13315Y11724D02*
X13228Y11811D01*
Y11841*
X13345Y17655D02*
X13285D01*
Y17695*
X12435Y16845*
Y16329*
X12440*
X13475Y5965D02*
Y7475D01*
X13215Y7735*
X11806*
Y7727*
X13595Y18150D02*
Y17905D01*
X13345Y17655*
X13595Y18800D02*
X13605D01*
Y19265*
X13735Y19395*
Y21285*
X13275Y21745*
X13205*
X13915Y18150D02*
Y17685D01*
X13935Y17665*
X13915Y18800D02*
Y19055D01*
X14205Y19345*
Y20745*
X13935Y17665D02*
Y17495D01*
X13945Y17485*
Y17395*
X13725Y17175*
X13045*
X12637Y16767*
Y16329*
X13972Y12585D02*
X13786Y12400D01*
X13972Y15585D02*
X13786Y15770D01*
X13995Y12805D02*
X13395D01*
X13245Y12655*
Y11858*
X13228Y11841*
X13995Y13002D02*
X14388D01*
X14475Y12915*
Y12685*
X14405Y12615*
X14002*
X13995Y12609*
Y13199D02*
X13569D01*
X13335Y12965*
Y11825*
X13319Y11841*
X13228*
X13995Y13396D02*
X13226D01*
X13225Y13395*
X13995Y13593D02*
Y13585D01*
X14415*
X14555Y13445*
X14715*
X13995Y13593D02*
X13623D01*
X13551Y13665*
Y13905*
X13631Y13985*
X13984*
X13985Y13987*
X13995*
Y14183D02*
Y14380D01*
X13995*
Y14275*
X13995Y14380D02*
Y14285D01*
Y14577D02*
X13869D01*
X13295Y14565*
X13005*
X12795Y14775*
X12815*
X12825Y14765*
X12775Y14755*
X12795*
Y14765*
X12805*
X13995Y14774D02*
X15756D01*
X16145Y14385*
X13995Y14971D02*
X15731D01*
X16145Y15385*
X13995Y15168D02*
X14568D01*
X14745Y15345*
X13995Y15365D02*
X14725D01*
X14745Y15345*
X13995Y15561D02*
X13321D01*
X13305Y15545*
X14019Y12585D02*
X14204Y12400D01*
X14019Y15585D02*
X14204Y15770D01*
X14205Y21745D02*
X14155D01*
Y21805*
X14675Y21285*
Y19285*
X14245Y18855*
Y18865*
X14225Y18885*
X14235Y18815*
Y18800*
Y18150D02*
X14425Y17960D01*
Y17455*
X14684Y6192D02*
X15258D01*
X15345Y6105*
X14684Y6448D02*
X15228D01*
X15335Y6555*
X14684Y6703D02*
X14233D01*
X13985Y6455*
Y5515*
X14684Y7215D02*
X15665D01*
X15685Y7195*
X14684Y7471D02*
X14051D01*
X13785Y7205*
Y6745*
X14684Y7727D02*
X15293D01*
X15375Y7645*
Y7635*
X14684Y8239D02*
X16321D01*
X17155Y7405*
Y7205*
X17225Y7135*
X14684Y8495D02*
X15735D01*
X16105Y8865*
X16285*
X14684Y9007D02*
X15207D01*
X15495Y9295*
X14684Y9262D02*
X12638D01*
X12605Y9295*
X14745Y15735D02*
Y16025D01*
X16175Y17455*
X14765Y13895D02*
X14755Y13905D01*
X14635*
X14515Y13785*
X13995*
Y13790*
X15115Y15355D02*
X14755D01*
X14745Y15345*
X15115Y15745D02*
X14755D01*
X14745Y15735*
X15215Y18150D02*
Y18135D01*
X15125Y18045*
Y17655*
X15215Y18800D02*
X15205D01*
Y20745*
X15535Y18150D02*
Y17475D01*
Y18800D02*
Y19335D01*
X15675Y19475*
Y21275*
X15205Y21745*
X15645Y4615D02*
Y4645D01*
X14105*
X13065Y5685*
Y6695*
X12535Y7225*
X11806*
Y7215*
X15855Y18025D02*
Y17825D01*
Y18675D02*
Y18475D01*
Y18925D02*
Y19125D01*
X15895Y14385D02*
X15695D01*
X16145Y14135D02*
Y13935D01*
Y14635D02*
Y14835D01*
X16175Y18150D02*
Y17455D01*
Y18800D02*
X16185D01*
Y20745*
X16205*
Y21745D02*
Y20745D01*
X16295Y9545D02*
Y8875D01*
X16285Y8865*
X16395Y14385D02*
X16595D01*
X16955Y20745D02*
X16755D01*
X16955Y21745D02*
X16755D01*
X17205Y20495D02*
Y20295D01*
Y20995D02*
Y21195D01*
Y21495D02*
Y21295D01*
Y21995D02*
Y22195D01*
X17225Y7135D02*
Y6485D01*
X17455Y20745D02*
X17655D01*
X17455Y21745D02*
X17655D01*
X18115Y8995D02*
X18065D01*
Y8415*
X17825Y8175*
Y8105*
X18115Y8995D02*
Y8965D01*
X18395*
X18655Y9225*
X18685*
Y9255*
X18115Y9385D02*
X17925D01*
Y9375*
X17735Y9565*
Y9655*
X18135Y6725D02*
Y6455D01*
X17605Y5925*
X16005*
X15735Y6195*
Y6625*
X15405Y6955*
X14684*
Y6959*
X18135Y7425D02*
X18565D01*
X18665Y7325*
Y14185D02*
X18655D01*
Y13365*
X18975*
X18685Y10895D02*
Y9255D01*
X19505Y12315D02*
Y12305D01*
X18955Y11755*
X17245*
X15825Y10335*
Y9075*
X15501Y8751*
X14684*
X19508Y4158D02*
X16348D01*
X15245Y3055*
X19515Y14185D02*
X19505D01*
Y12315*
X20215Y4865D02*
X19355Y5725D01*
X14555*
X21075Y5945D02*
Y5825D01*
X20585*
Y5815*
X19805Y6595*
X18135*
Y6725*
X21075Y7945D02*
X17985D01*
X17825Y8105*
X21075Y8945D02*
Y10745D01*
X19505Y12315*
X21985Y10865D02*
Y10285D01*
X21995Y10275*
X22475Y13985D02*
X22485D01*
Y13155*
X22585Y12775*
X22505*
Y13015*
Y12315D02*
Y12265D01*
X22485*
X22025Y11805*
X22005*
X22505Y13015D02*
Y12985D01*
X22075*
X21125Y12035*
Y11815*
D02*
D16*
X8295Y12415D03*
Y13755D03*
X8685Y12415D03*
Y13755D03*
X13345Y10735D03*
Y11135D03*
X13735Y10735D03*
Y11135D03*
X16295Y9545D03*
X16685D03*
X16835Y6485D03*
X17225D03*
X19105Y14725D03*
X19495D03*
D02*
D17*
X8765Y14185D03*
Y14575D03*
X9445Y1715D03*
Y2105D03*
X14745Y15345D03*
Y15735D03*
X14765Y13895D03*
Y14285D03*
X15115Y15355D03*
Y15745D03*
X15125Y13895D03*
Y14285D03*
X18115Y8995D03*
Y9385D03*
X18665Y6935D03*
Y7325D03*
X21985Y10865D03*
Y11255D03*
D02*
D28*
X6205Y20745D03*
Y21745D03*
X7205Y20745D03*
Y21745D03*
X8205Y20745D03*
Y21745D03*
X9205Y20745D03*
Y21745D03*
X10205Y20745D03*
Y21745D03*
X11205Y20745D03*
Y21745D03*
X12205Y20745D03*
Y21745D03*
X13205Y20745D03*
Y21745D03*
X14205Y20745D03*
Y21745D03*
X15205Y20745D03*
Y21745D03*
X16145Y14385D03*
Y15385D03*
X16205Y20745D03*
Y21745D03*
X17205Y20745D03*
Y21745D03*
X18205Y20745D03*
Y21745D03*
X21075Y5945D03*
Y6945D03*
Y7945D03*
Y8945D03*
D02*
D29*
X3075Y6525D03*
X4195Y16275D03*
X5125Y9805D03*
X6935Y18465D03*
X7075Y13805D03*
X7405Y17455D03*
X7605Y8405D03*
X7795Y17655D03*
X7815Y3545D03*
X7935Y8105D03*
X7949Y1051D03*
X8205Y17455D03*
X8335Y7755D03*
X8575Y17655D03*
X8815Y5435D03*
X8825Y9045D03*
X8955Y7145D03*
X9255Y7995D03*
Y9365D03*
X9285Y17455D03*
X9515Y11475D03*
X9715Y17655D03*
X9735Y8295D03*
Y9705D03*
X9865Y4765D03*
X9955Y2185D03*
X10055Y14985D03*
X10095Y12785D03*
X10125Y11135D03*
X10175Y3735D03*
Y7255D03*
X10285Y17655D03*
X10375Y9535D03*
X10385Y4765D03*
X10445Y6345D03*
X10505Y10025D03*
X10855Y17665D03*
X10865Y7605D03*
X10889Y13965D03*
X11165Y6625D03*
X11185Y9685D03*
X11305Y17455D03*
X11645Y10075D03*
Y10535D03*
X11655Y17655D03*
X11955Y11285D03*
X12005Y17455D03*
X12355Y5095D03*
Y17655D03*
X12475Y13775D03*
X12535Y8065D03*
X12555Y6715D03*
X12605Y9295D03*
X12785Y6325D03*
X12805Y14765D03*
X12815Y11045D03*
X12825Y17655D03*
X12835Y10545D03*
X12845Y10025D03*
X12995Y12935D03*
X13035Y7285D03*
X13305Y15545D03*
X13345Y17655D03*
X13465Y4415D03*
X13475Y5965D03*
X13645Y8685D03*
X13785Y6745D03*
X13935Y17665D03*
X13985Y5515D03*
X14425Y17455D03*
X14555Y5725D03*
X14715Y13445D03*
X15035Y11785D03*
X15125Y17655D03*
X15245Y3055D03*
X15335Y6555D03*
X15345Y6105D03*
X15375Y7635D03*
X15495Y2105D03*
Y9295D03*
X15535Y17475D03*
X15645Y4615D03*
X15665Y5125D03*
X15685Y7195D03*
X16175Y17455D03*
X16195Y12665D03*
X16235Y6345D03*
X17125Y9865D03*
X17155Y18575D03*
X17655Y3585D03*
X17735Y9655D03*
X17825Y8105D03*
X18085Y13675D03*
X18485Y8425D03*
X18975Y13365D03*
X19395Y8815D03*
X19435Y15695D03*
X21125Y11815D03*
Y14835D03*
X21555Y11815D03*
X21995Y10275D03*
X22005Y11805D03*
X22415Y6535D03*
X22475Y13985D03*
X23525Y9535D03*
D02*
D74*
X2990Y6525D02*
X2740D01*
X3075Y6440D02*
Y6190D01*
Y6610D02*
Y6860D01*
X3160Y6525D02*
X3410D01*
X3348Y13873D02*
X3026D01*
X3697Y13524D02*
Y13201D01*
Y14222D02*
Y14544D01*
X4046Y13873D02*
X4369D01*
X4110Y16275D02*
X3860D01*
X4195Y16190D02*
Y15940D01*
Y16360D02*
Y16610D01*
X4280Y16275D02*
X4530D01*
X5040Y9805D02*
X4790D01*
X5125Y9720D02*
Y9470D01*
Y9890D02*
Y10140D01*
X5210Y9805D02*
X5460D01*
X7864Y1051D02*
X7614D01*
X7949Y966D02*
Y716D01*
Y1136D02*
Y1386D01*
X8034Y1051D02*
X8284D01*
X8704Y1445D02*
X8454D01*
X8730Y5435D02*
X8480D01*
X8815Y5350D02*
Y5100D01*
Y5520D02*
Y5770D01*
X8845Y1323D02*
Y1073D01*
X8870Y7145D02*
X8620D01*
X8900Y5435D02*
X9150D01*
X8955Y7060D02*
Y6810D01*
Y7230D02*
Y7480D01*
X9040Y7145D02*
X9290D01*
X9445Y1670D02*
Y1420D01*
X9490Y1715D02*
X9740D01*
X9623Y5449D02*
X8829D01*
X8815Y5435*
X10447Y5961D02*
Y6343D01*
X10445Y6345*
X11806Y8495D02*
X13455D01*
X13645Y8685*
X12270Y5095D02*
X12020D01*
X12355Y5010D02*
Y4760D01*
Y5180D02*
Y5430D01*
X12440Y5095D02*
X12690D01*
X13560Y8685D02*
X13310D01*
X13645Y8600D02*
Y8350D01*
Y8770D02*
Y9020D01*
X13730Y8685D02*
X13980D01*
X13735Y10690D02*
Y10440D01*
Y11180D02*
Y11430D01*
X13780Y10735D02*
X14030D01*
X13780Y11135D02*
X14030D01*
X14684Y7983D02*
X13927D01*
X13645Y8265*
X13655*
X13645Y8685*
X14975Y11725D02*
X14798Y11548D01*
X14975Y11845D02*
X14798Y12022D01*
X15095Y11725D02*
X15272Y11548D01*
X15095Y11845D02*
X15272Y12022D01*
X15435Y2045D02*
X15258Y1868D01*
X15435Y2165D02*
X15258Y2342D01*
X15555Y2045D02*
X15732Y1868D01*
X15555Y2165D02*
X15732Y2342D01*
X15605Y5065D02*
X15428Y4888D01*
X15605Y5185D02*
X15428Y5362D01*
X15725Y5065D02*
X15902Y4888D01*
X15725Y5185D02*
X15902Y5362D01*
X16175Y6405D02*
X15998Y6582D01*
X16285Y6855D02*
Y6605D01*
Y7415D02*
Y7665D01*
X16295Y6405D02*
X16472Y6582D01*
X16485Y7135D02*
X16735D01*
X16685Y9590D02*
Y9840D01*
X16730Y9545D02*
X16980D01*
X16790Y6485D02*
X16540D01*
X16835Y6440D02*
Y6190D01*
X17025Y8865D02*
X16775D01*
X17040Y9865D02*
X16790D01*
X17125Y9780D02*
Y9530D01*
Y9950D02*
Y10200D01*
X17210Y9865D02*
X17460D01*
X17225Y8585D02*
Y8335D01*
Y9145D02*
Y9395D01*
X17425Y8865D02*
X17675D01*
X17744Y2744D02*
X17422D01*
X18000Y13675D02*
X17750D01*
X18085Y13590D02*
Y13340D01*
Y13760D02*
Y14010D01*
X18094Y2394D02*
Y2072D01*
Y3093D02*
Y3415D01*
X18170Y13675D02*
X18420D01*
X18443Y2744D02*
X18765D01*
X18665Y12545D02*
Y14185D01*
X19060Y14725D02*
X18810D01*
X19105Y14680D02*
Y14430D01*
Y14770D02*
Y15020D01*
X19310Y8815D02*
X19060D01*
X19350Y15695D02*
X19100D01*
X19395Y8730D02*
Y8480D01*
X19435Y15610D02*
Y15360D01*
Y15780D02*
Y16030D01*
X19480Y8815D02*
X19730D01*
X19480Y9255D02*
X19230D01*
X19480Y10895D02*
X19230D01*
X19515Y12545D02*
Y13465D01*
X19495*
Y14725*
X19515Y14185D02*
Y12545D01*
X19520Y15695D02*
X19770D01*
X19535Y9120D02*
Y8870D01*
Y9390D02*
Y9640D01*
Y10760D02*
Y10510D01*
Y11030D02*
Y11280D01*
X19590Y9255D02*
X19840D01*
X19590Y10895D02*
X19840D01*
X21040Y14835D02*
X20790D01*
X21125Y14750D02*
Y14500D01*
Y14920D02*
Y15170D01*
X21210Y14835D02*
X21460D01*
X21555Y11730D02*
Y11480D01*
Y11900D02*
Y12150D01*
X21940Y11255D02*
X21690D01*
X22030D02*
X22280D01*
X22330Y6535D02*
X22080D01*
X22415Y6450D02*
Y6200D01*
Y6620D02*
Y6870D01*
X22500Y6535D02*
X22750D01*
X23440Y9535D02*
X23190D01*
X23525Y9450D02*
Y9200D01*
Y9620D02*
Y9870D01*
X23610Y9535D02*
X23860D01*
D02*
D107*
X10275Y11841D03*
Y16329D03*
X10472Y11841D03*
Y16329D03*
X10669Y11841D03*
Y16329D03*
X10866Y11841D03*
Y16329D03*
X11062Y11841D03*
Y16329D03*
X11259Y11841D03*
Y16329D03*
X11456Y11841D03*
Y16329D03*
X11653Y11841D03*
Y16329D03*
X11850Y11841D03*
Y16329D03*
X12047Y11841D03*
Y16329D03*
X12243Y11841D03*
Y16329D03*
X12440Y11841D03*
Y16329D03*
X12637Y11841D03*
Y16329D03*
X12834Y11841D03*
Y16329D03*
X13031Y11841D03*
Y16329D03*
X13228Y11841D03*
Y16329D03*
D02*
D108*
X9507Y12609D03*
Y12805D03*
Y13002D03*
Y13199D03*
Y13396D03*
Y13593D03*
Y13790D03*
Y13987D03*
Y14183D03*
Y14380D03*
Y14577D03*
Y14774D03*
Y14971D03*
Y15168D03*
Y15365D03*
Y15561D03*
X13995Y12609D03*
Y12805D03*
Y13002D03*
Y13199D03*
Y13396D03*
Y13593D03*
Y13790D03*
Y13987D03*
Y14183D03*
Y14380D03*
Y14577D03*
Y14774D03*
Y14971D03*
Y15168D03*
Y15365D03*
Y15561D03*
D02*
D109*
X7075Y13125D03*
X8415D03*
D02*
D110*
X7525Y14275D03*
X8225D03*
D02*
D111*
X7515Y18160D03*
Y18810D03*
X7835Y18160D03*
Y18810D03*
X8155Y18160D03*
Y18810D03*
X8475Y18160D03*
Y18810D03*
X9435Y18150D03*
Y18800D03*
X9755Y18150D03*
Y18800D03*
X10075Y18150D03*
Y18800D03*
X10395Y18150D03*
Y18800D03*
X11355Y18160D03*
Y18810D03*
X11675Y18160D03*
Y18810D03*
X11995Y18160D03*
Y18810D03*
X12315Y18160D03*
Y18810D03*
X13275Y18150D03*
Y18800D03*
X13595Y18150D03*
Y18800D03*
X13915Y18150D03*
Y18800D03*
X14235Y18150D03*
Y18800D03*
X15215Y18150D03*
Y18800D03*
X15535Y18150D03*
Y18800D03*
X15855Y18150D03*
Y18800D03*
X16175Y18150D03*
Y18800D03*
D02*
D112*
X2990Y14580D03*
X3697Y13873D03*
X4404Y13166D03*
X5111Y12459D03*
X5819Y11751D03*
X6526Y11044D03*
X7233Y10337D03*
X7940Y9630D03*
X18094Y2744D03*
X18801Y3451D03*
X19508Y4158D03*
X20215Y4865D03*
D02*
D113*
X7075Y13805D02*
X7045D01*
Y13305*
X7935Y12415*
X8295*
Y13755D02*
X7095D01*
X7075Y13775*
X8765Y14575D02*
Y14585D01*
X8615Y14735*
X7865*
X7425Y14295*
X7525*
Y14275*
X9445Y2105D02*
Y2205D01*
X9965D02*
X8845D01*
Y2145*
X12835Y10545D02*
X13065D01*
X13255Y10735*
X13345*
X13225Y13395D02*
X12995Y13165D01*
Y12935*
X13345Y11135D02*
X13315D01*
Y11724*
X13345Y11135D02*
Y10735D01*
X13735D02*
Y11135D01*
X13995Y14275D02*
X13495D01*
X13225Y14005*
Y13395*
X13995Y14285D02*
X14765D01*
X15125Y13895D02*
X14765D01*
X15125Y14285D02*
X14765D01*
X16835Y6485D02*
X16455D01*
X16285Y6655*
X16275*
X16285Y7035*
Y7135*
X18665Y6935D02*
X19105D01*
D02*
D114*
X7075Y13125D02*
Y13805D01*
Y13125D02*
Y13775D01*
Y13825*
X7525Y14275*
D02*
D128*
X9623Y5449D03*
Y5705D03*
Y5961D03*
X10447Y5449D03*
Y5961D03*
D02*
D130*
X8845Y2145D02*
Y2215D01*
X9955*
Y2185*
X9445Y2205D02*
X9965D01*
D02*
D135*
X11806Y6192D03*
Y6448D03*
Y6703D03*
Y6959D03*
Y7215D03*
Y7471D03*
Y7727D03*
Y7983D03*
Y8239D03*
Y8495D03*
Y8751D03*
Y9007D03*
Y9262D03*
Y9518D03*
X14684Y6192D03*
Y6448D03*
Y6703D03*
Y6959D03*
Y7215D03*
Y7471D03*
Y7727D03*
Y7983D03*
Y8239D03*
Y8495D03*
Y8751D03*
Y9007D03*
Y9262D03*
Y9518D03*
D02*
D136*
X8845Y1445D03*
Y2145D03*
D02*
D137*
X16285Y7135D03*
Y8865D03*
X17225Y7135D03*
Y8865D03*
D02*
D138*
X18665Y12545D03*
Y14185D03*
X18685Y9255D03*
Y10895D03*
X19515Y12545D03*
Y14185D03*
X19535Y9255D03*
Y10895D03*
D02*
D139*
X8548Y2988D03*
Y3188D03*
Y3388D03*
Y3588D03*
Y3788D03*
X9538Y2988D03*
Y3188D03*
Y3388D03*
Y3588D03*
Y3788D03*
D02*
D140*
X8838Y2888D03*
Y3888D03*
X9038Y2888D03*
Y3888D03*
X9238Y2888D03*
Y3888D03*
D02*
D141*
X3816Y5504D03*
X6044Y3276D03*
D02*
D142*
X18135Y6725D03*
Y7425D03*
X22505Y12315D03*
Y13015D03*
X0Y0D02*
M02*
