G04 EasyPC Gerber Version 20.0.2 Build 4112 *
G04 #@! TF.Part,Single*
G04 #@! TF.FileFunction,Soldermask,Top *
%FSLAX24Y24*%
%MOIN*%
G04 #@! TA.AperFunction,SMDPad*
%ADD11R,0.01781X0.05324*%
%ADD21R,0.01800X0.02600*%
%ADD22R,0.02200X0.04100*%
%ADD13R,0.03000X0.03000*%
%ADD70R,0.03200X0.04800*%
%ADD26R,0.04537X0.04891*%
%ADD17R,0.04540X0.04930*%
%ADD19R,0.06100X0.07700*%
G04 #@! TA.AperFunction,ComponentPad*
%ADD71R,0.06600X0.06600*%
G04 #@! TA.AperFunction,SMDPad*
%ADD14R,0.06900X0.06900*%
G04 #@! TA.AperFunction,ComponentPad*
%ADD25C,0.04200*%
G04 #@! TA.AperFunction,WasherPad*
%ADD10C,0.19100*%
G04 #@! TA.AperFunction,SMDPad*
%ADD12R,0.05324X0.01781*%
%ADD20R,0.02600X0.01800*%
%ADD16R,0.07800X0.02300*%
%ADD24R,0.05200X0.02400*%
%ADD15R,0.03000X0.03000*%
%ADD18R,0.04930X0.04540*%
G04 #@! TA.AperFunction,ComponentPad*
%AMT23*0 Rectangle Pad at angle 45*21,1,0.06600,0.06600,0,0,45*%
%ADD23T23*%
X0Y0D02*
D02*
D10*
X1325Y8105D03*
Y16105D03*
X22955Y8105D03*
Y16105D03*
D02*
D11*
X10275Y11841D03*
Y16329D03*
X10472Y11841D03*
Y16329D03*
X10669Y11841D03*
Y16329D03*
X10866Y11841D03*
Y16329D03*
X11062Y11841D03*
Y16329D03*
X11259Y11841D03*
Y16329D03*
X11456Y11841D03*
Y16329D03*
X11653Y11841D03*
Y16329D03*
X11850Y11841D03*
Y16329D03*
X12047Y11841D03*
Y16329D03*
X12243Y11841D03*
Y16329D03*
X12440Y11841D03*
Y16329D03*
X12637Y11841D03*
Y16329D03*
X12834Y11841D03*
Y16329D03*
X13031Y11841D03*
Y16329D03*
X13228Y11841D03*
Y16329D03*
D02*
D12*
X9507Y12609D03*
Y12805D03*
Y13002D03*
Y13199D03*
Y13396D03*
Y13593D03*
Y13790D03*
Y13987D03*
Y14183D03*
Y14380D03*
Y14577D03*
Y14774D03*
Y14971D03*
Y15168D03*
Y15365D03*
Y15561D03*
X13995Y12609D03*
Y12805D03*
Y13002D03*
Y13199D03*
Y13396D03*
Y13593D03*
Y13790D03*
Y13987D03*
Y14183D03*
Y14380D03*
Y14577D03*
Y14774D03*
Y14971D03*
Y15168D03*
Y15365D03*
Y15561D03*
D02*
D13*
X8765Y14185D03*
Y14575D03*
X9445Y1715D03*
Y2105D03*
X14745Y15345D03*
Y15735D03*
X14765Y13895D03*
Y14285D03*
X15115Y15355D03*
Y15745D03*
X15125Y13895D03*
Y14285D03*
X18115Y8995D03*
Y9385D03*
X18665Y6935D03*
Y7325D03*
X21985Y10865D03*
Y11255D03*
D02*
D14*
X7075Y13125D03*
X8415D03*
D02*
D15*
X8295Y12415D03*
Y13755D03*
X8685Y12415D03*
Y13755D03*
X13345Y10735D03*
Y11135D03*
X13735Y10735D03*
Y11135D03*
X16295Y9545D03*
X16685D03*
X16835Y6485D03*
X17225D03*
X19105Y14725D03*
X19495D03*
D02*
D16*
X11806Y6192D03*
Y6448D03*
Y6703D03*
Y6959D03*
Y7215D03*
Y7471D03*
Y7727D03*
Y7983D03*
Y8239D03*
Y8495D03*
Y8751D03*
Y9007D03*
Y9262D03*
Y9518D03*
X14684Y6192D03*
Y6448D03*
Y6703D03*
Y6959D03*
Y7215D03*
Y7471D03*
Y7727D03*
Y7983D03*
Y8239D03*
Y8495D03*
Y8751D03*
Y9007D03*
Y9262D03*
Y9518D03*
D02*
D17*
X7525Y14275D03*
X8225D03*
D02*
D18*
X8845Y1445D03*
Y2145D03*
D02*
D19*
X16285Y7135D03*
Y8865D03*
X17225Y7135D03*
Y8865D03*
D02*
D70*
X18665Y12545D03*
Y14185D03*
X18685Y9255D03*
Y10895D03*
X19515Y12545D03*
Y14185D03*
X19535Y9255D03*
Y10895D03*
D02*
D71*
X6205Y20745D03*
Y21745D03*
X7205Y20745D03*
Y21745D03*
X8205Y20745D03*
Y21745D03*
X9205Y20745D03*
Y21745D03*
X10205Y20745D03*
Y21745D03*
X11205Y20745D03*
Y21745D03*
X12205Y20745D03*
Y21745D03*
X13205Y20745D03*
Y21745D03*
X14205Y20745D03*
Y21745D03*
X15205Y20745D03*
Y21745D03*
X16145Y14385D03*
Y15385D03*
X16205Y20745D03*
Y21745D03*
X17205Y20745D03*
Y21745D03*
X18205Y20745D03*
Y21745D03*
X21075Y5945D03*
Y6945D03*
Y7945D03*
Y8945D03*
D02*
D20*
X8548Y2988D03*
Y3188D03*
Y3388D03*
Y3588D03*
Y3788D03*
X9538Y2988D03*
Y3188D03*
Y3388D03*
Y3588D03*
Y3788D03*
D02*
D21*
X8838Y2888D03*
Y3888D03*
X9038Y2888D03*
Y3888D03*
X9238Y2888D03*
Y3888D03*
D02*
D22*
X7515Y18160D03*
Y18810D03*
X7835Y18160D03*
Y18810D03*
X8155Y18160D03*
Y18810D03*
X8475Y18160D03*
Y18810D03*
X9435Y18150D03*
Y18800D03*
X9755Y18150D03*
Y18800D03*
X10075Y18150D03*
Y18800D03*
X10395Y18150D03*
Y18800D03*
X11355Y18160D03*
Y18810D03*
X11675Y18160D03*
Y18810D03*
X11995Y18160D03*
Y18810D03*
X12315Y18160D03*
Y18810D03*
X13275Y18150D03*
Y18800D03*
X13595Y18150D03*
Y18800D03*
X13915Y18150D03*
Y18800D03*
X14235Y18150D03*
Y18800D03*
X15215Y18150D03*
Y18800D03*
X15535Y18150D03*
Y18800D03*
X15855Y18150D03*
Y18800D03*
X16175Y18150D03*
Y18800D03*
D02*
D23*
X2990Y14580D03*
X3697Y13873D03*
X4404Y13166D03*
X5111Y12459D03*
X5819Y11751D03*
X6526Y11044D03*
X7233Y10337D03*
X7940Y9630D03*
X18094Y2744D03*
X18801Y3451D03*
X19508Y4158D03*
X20215Y4865D03*
D02*
D24*
X9623Y5449D03*
Y5705D03*
Y5961D03*
X10447Y5449D03*
Y5961D03*
D02*
D25*
X3816Y5504D03*
X6044Y3276D03*
X23365Y11035D03*
Y12995D03*
D02*
D26*
X18135Y6725D03*
Y7425D03*
X22505Y12315D03*
Y13015D03*
X0Y0D02*
M02*
