G04 EasyPC Gerber Version 20.0.2 Build 4112 *
G04 #@! TF.Part,Single*
G04 #@! TF.FileFunction,Soldermask,Bot *
%FSLAX24Y24*%
%MOIN*%
G04 #@! TA.AperFunction,SMDPad*
%ADD123R,0.01600X0.03356*%
%ADD119R,0.02765X0.05324*%
%ADD120R,0.02962X0.05324*%
%ADD13R,0.03000X0.03000*%
%ADD132R,0.03800X0.04500*%
%ADD130R,0.04500X0.14400*%
%ADD26R,0.04537X0.04891*%
%ADD17R,0.04540X0.04930*%
%ADD129R,0.06500X0.14000*%
G04 #@! TA.AperFunction,ComponentPad*
%ADD71R,0.06600X0.06600*%
%ADD25C,0.04200*%
G04 #@! TA.AperFunction,WasherPad*
%ADD10C,0.19100*%
G04 #@! TA.AperFunction,SMDPad*
%ADD24R,0.05200X0.02400*%
%ADD118R,0.05324X0.02962*%
%ADD15R,0.03000X0.03000*%
%ADD131R,0.06500X0.03400*%
%ADD124R,0.13800X0.03800*%
%ADD121R,0.04891X0.04537*%
%ADD18R,0.04930X0.04540*%
%AMT127*0 Rectangle Pad at angle 45*21,1,0.06100,0.06900,0,0,45*%
%ADD127T127*%
G04 #@! TA.AperFunction,ComponentPad*
%AMT23*0 Rectangle Pad at angle 45*21,1,0.06600,0.06600,0,0,45*%
%ADD23T23*%
G04 #@! TA.AperFunction,SMDPad*
%AMT125*0 Rectangle Pad at angle 135*21,1,0.03300,0.06900,0,0,135*%
%ADD125T125*%
%AMT128*0 Rectangle Pad at angle 135*21,1,0.05300,0.06900,0,0,135*%
%ADD128T128*%
%AMT126*0 Rectangle Pad at angle 135*21,1,0.05300,0.09300,0,0,135*%
%ADD126T126*%
%AMT122*0 Rectangle Pad at angle 45*21,1,0.06900,0.06900,0,0,45*%
%ADD122T122*%
%AMT133*0 Rectangle Pad at angle 135*21,1,0.06100,0.06100,0,0,135*%
%ADD133T133*%
X0Y0D02*
D02*
D10*
X1325Y8105D03*
Y16105D03*
X22955Y8105D03*
Y16105D03*
D02*
D13*
X11285Y14355D03*
Y14745D03*
X11665Y14355D03*
Y14745D03*
X12045Y14355D03*
Y14745D03*
X12425Y14355D03*
Y14745D03*
X15635Y10275D03*
Y10665D03*
X18335Y10775D03*
Y11165D03*
X21555Y10835D03*
Y11225D03*
X22005Y10835D03*
Y11225D03*
D02*
D15*
X11645Y13535D03*
Y13915D03*
X12035Y13535D03*
Y13915D03*
X12825Y13975D03*
Y14355D03*
X13215Y13975D03*
Y14355D03*
X13395Y9285D03*
X13785D03*
X14635Y11335D03*
X15025D03*
X15445Y11325D03*
X15835D03*
X18995Y7635D03*
X19005Y10115D03*
X19385Y7635D03*
X19395Y10115D03*
D02*
D17*
X12195Y8755D03*
X12895D03*
X13415Y11435D03*
X14115D03*
X14325Y9265D03*
X15025D03*
D02*
D18*
X13525Y7385D03*
Y8085D03*
D02*
D71*
X6205Y20745D03*
Y21745D03*
X7205Y20745D03*
Y21745D03*
X8205Y20745D03*
Y21745D03*
X9205Y20745D03*
Y21745D03*
X10205Y20745D03*
Y21745D03*
X11205Y20745D03*
Y21745D03*
X12205Y20745D03*
Y21745D03*
X13205Y20745D03*
Y21745D03*
X14205Y20745D03*
Y21745D03*
X15205Y20745D03*
Y21745D03*
X16145Y14385D03*
Y15385D03*
X16205Y20745D03*
Y21745D03*
X17205Y20745D03*
Y21745D03*
X18205Y20745D03*
Y21745D03*
X21075Y5945D03*
Y6945D03*
Y7945D03*
Y8945D03*
D02*
D23*
X2990Y14580D03*
X3697Y13873D03*
X4404Y13166D03*
X5111Y12459D03*
X5819Y11751D03*
X6526Y11044D03*
X7233Y10337D03*
X7940Y9630D03*
X18094Y2744D03*
X18801Y3451D03*
X19508Y4158D03*
X20215Y4865D03*
D02*
D24*
X7295Y19405D03*
Y19655D03*
Y19905D03*
X8155Y19405D03*
Y19661D03*
Y19917D03*
X9235Y19425D03*
Y19675D03*
Y19925D03*
X10095Y19425D03*
Y19681D03*
Y19937D03*
X11255Y19465D03*
Y19715D03*
Y19965D03*
X12115Y19465D03*
Y19721D03*
Y19977D03*
X13235Y19485D03*
Y19735D03*
Y19985D03*
X14095Y19485D03*
Y19741D03*
Y19997D03*
X15235Y19505D03*
Y19755D03*
Y20005D03*
X16095Y19505D03*
Y19761D03*
Y20017D03*
X17255Y19525D03*
Y19775D03*
Y20025D03*
X18115Y19525D03*
Y19781D03*
Y20037D03*
D02*
D25*
X3816Y5504D03*
X6044Y3276D03*
X23365Y11035D03*
Y12995D03*
D02*
D26*
X19955Y10815D03*
Y11515D03*
D02*
D118*
X13881Y9951D03*
Y10699D03*
X14909Y9951D03*
Y10325D03*
Y10699D03*
X16631Y10401D03*
Y11149D03*
X17659Y10401D03*
Y10775D03*
Y11149D03*
D02*
D119*
X14251Y7383D03*
Y8407D03*
X14625Y7383D03*
Y8407D03*
X14999Y7383D03*
Y8407D03*
D02*
D120*
X19011Y8331D03*
Y9359D03*
X19385D03*
X19759Y8331D03*
Y9359D03*
D02*
D121*
X15865Y11915D03*
X16565D03*
D02*
D122*
X7451Y1541D03*
X8399Y2489D03*
D02*
D123*
X7664Y16245D03*
Y16757D03*
X7861Y16245D03*
Y16757D03*
X8058Y16245D03*
Y16757D03*
X8255Y16245D03*
Y16757D03*
X9704Y16245D03*
Y16757D03*
X9901Y16245D03*
Y16757D03*
X10098Y16245D03*
Y16757D03*
X10295Y16245D03*
Y16757D03*
X11484Y16245D03*
Y16757D03*
X11681Y16245D03*
Y16757D03*
X11878Y16245D03*
Y16757D03*
X12075Y16245D03*
Y16757D03*
X13244Y16245D03*
Y16757D03*
X13441Y16245D03*
Y16757D03*
X13638Y16245D03*
Y16757D03*
X13835Y16245D03*
Y16757D03*
X15124Y16245D03*
Y16757D03*
X15321Y16245D03*
Y16757D03*
X15518Y16245D03*
Y16757D03*
X15715Y16245D03*
Y16757D03*
D02*
D124*
X11395Y605D03*
Y1105D03*
Y1605D03*
Y2105D03*
Y2605D03*
Y3105D03*
Y3605D03*
Y4105D03*
Y4605D03*
Y5105D03*
Y5605D03*
X16675Y2105D03*
Y2605D03*
Y3105D03*
Y3605D03*
Y4105D03*
Y4605D03*
Y5105D03*
Y5605D03*
D02*
D125*
X6963Y8198D03*
X7267Y7894D03*
X7571Y7589D03*
X7875Y7285D03*
X8179Y6981D03*
X8483Y6677D03*
X8787Y6373D03*
X9091Y6069D03*
X9396Y5765D03*
D02*
D126*
X2621Y6925D03*
X6935Y2611D03*
D02*
D127*
X5542Y9350D03*
D02*
D128*
X9579Y5256D03*
D02*
D129*
X18615Y15905D03*
X21265D03*
D02*
D130*
X19545Y13705D03*
X20335D03*
D02*
D131*
X22675Y10835D03*
Y11425D03*
Y12605D03*
Y13195D03*
D02*
D132*
X22945Y9985D03*
Y14045D03*
X23785Y9985D03*
Y14045D03*
D02*
D133*
X2061Y13479D03*
X2769Y12771D03*
X3476Y12064D03*
X4183Y11357D03*
X0Y0D02*
M02*
