%FSLAX25Y25*%
%MOIN*%
G04 EasyPC Gerber Version 18.0.8 Build 3632 *
%ADD10C,0.00500*%
%ADD72C,0.10000*%
X0Y0D02*
D02*
D10*
X40001Y66395D02*
X41564Y70145D01*
X43126Y66395*
X40626Y67957D02*
X42501D01*
X47072Y59324D02*
X48635Y63074D01*
X50198Y59324*
X47698Y60886D02*
X49572D01*
X54143Y52253D02*
X55706Y56003D01*
X57269Y52253*
X54769Y53815D02*
X56643D01*
X61215Y45181D02*
X62777Y48931D01*
X64340Y45181*
X61840Y46744D02*
X63715D01*
X68285Y38111D02*
X69848Y41861D01*
X71411Y38111*
X68911Y39673D02*
X70785D01*
X72150Y128046D02*
X73713Y131796D01*
X75275Y128046*
X72775Y129609D02*
X74650D01*
X72150Y138046D02*
X73713Y141796D01*
X75275Y138046*
X72775Y139609D02*
X74650D01*
X75357Y31039D02*
X76919Y34789D01*
X78482Y31039*
X75982Y32602D02*
X77857D01*
X81537Y107721D02*
X82163Y107409D01*
X82475Y106784*
X82163Y106159*
X81537Y105846*
X79350*
Y109596*
X81537*
X82163Y109284*
X82475Y108659*
X82163Y108034*
X81537Y107721*
X79350*
X82937Y60321D02*
X83563Y60009D01*
X83875Y59384*
X83563Y58759*
X82937Y58446*
X80750*
Y62196*
X82937*
X83563Y61884*
X83875Y61259*
X83563Y60634*
X82937Y60321*
X80750*
X82150Y128046D02*
X83713Y131796D01*
X85275Y128046*
X82775Y129609D02*
X84650D01*
X82150Y138046D02*
X83713Y141796D01*
X85275Y138046*
X82775Y139609D02*
X84650D01*
X82428Y23969D02*
X83990Y27719D01*
X85553Y23969*
X83053Y25531D02*
X84928D01*
X84937Y96121D02*
X85563Y95809D01*
X85875Y95184*
X85563Y94559*
X84937Y94246*
X82750*
Y97996*
X84937*
X85563Y97684*
X85875Y97059*
X85563Y96434*
X84937Y96121*
X82750*
X88937Y98321D02*
X89563Y98009D01*
X89875Y97384*
X89563Y96759*
X88937Y96446*
X86750*
Y100196*
X88937*
X89563Y99884*
X89875Y99259*
X89563Y98634*
X88937Y98321*
X86750*
X89499Y16897D02*
X91061Y20647D01*
X92624Y16897*
X90124Y18460D02*
X91999D01*
X92737Y95421D02*
X93363Y95109D01*
X93675Y94484*
X93363Y93859*
X92737Y93546*
X90550*
Y97296*
X92737*
X93363Y96984*
X93675Y96359*
X93363Y95734*
X92737Y95421*
X90550*
X92150Y128046D02*
X93713Y131796D01*
X95275Y128046*
X92775Y129609D02*
X94650D01*
X92150Y138046D02*
X93713Y141796D01*
X95275Y138046*
X92775Y139609D02*
X94650D01*
X97337Y98121D02*
X97963Y97809D01*
X98275Y97184*
X97963Y96559*
X97337Y96246*
X95150*
Y99996*
X97337*
X97963Y99684*
X98275Y99059*
X97963Y98434*
X97337Y98121*
X95150*
X102837Y35021D02*
X103463Y34709D01*
X103775Y34084*
X103463Y33459*
X102837Y33146*
X100650*
Y36896*
X102837*
X103463Y36584*
X103775Y35959*
X103463Y35334*
X102837Y35021*
X100650*
X103037Y23221D02*
X103663Y22909D01*
X103975Y22284*
X103663Y21659*
X103037Y21346*
X100850*
Y25096*
X103037*
X103663Y24784*
X103975Y24159*
X103663Y23534*
X103037Y23221*
X100850*
X102150Y128046D02*
X103713Y131796D01*
X105275Y128046*
X102775Y129609D02*
X104650D01*
X102150Y138046D02*
X103713Y141796D01*
X105275Y138046*
X102775Y139609D02*
X104650D01*
X105637Y96221D02*
X106263Y95909D01*
X106575Y95284*
X106263Y94659*
X105637Y94346*
X103450*
Y98096*
X105637*
X106263Y97784*
X106575Y97159*
X106263Y96534*
X105637Y96221*
X103450*
X109737Y98321D02*
X110363Y98009D01*
X110675Y97384*
X110363Y96759*
X109737Y96446*
X107550*
Y100196*
X109737*
X110363Y99884*
X110675Y99259*
X110363Y98634*
X109737Y98321*
X107550*
X112837Y72321D02*
X113463Y72009D01*
X113775Y71384*
X113463Y70759*
X112837Y70446*
X110650*
Y74196*
X112837*
X113463Y73884*
X113775Y73259*
X113463Y72634*
X112837Y72321*
X110650*
X113237Y50321D02*
X113863Y50009D01*
X114175Y49384*
X113863Y48759*
X113237Y48446*
X111050*
Y52196*
X113237*
X113863Y51884*
X114175Y51259*
X113863Y50634*
X113237Y50321*
X111050*
X113837Y33321D02*
X114463Y33009D01*
X114775Y32384*
X114463Y31759*
X113837Y31446*
X111650*
Y35196*
X113837*
X114463Y34884*
X114775Y34259*
X114463Y33634*
X113837Y33321*
X111650*
X112150Y128046D02*
X113713Y131796D01*
X115275Y128046*
X112775Y129609D02*
X114650D01*
X112150Y138046D02*
X113713Y141796D01*
X115275Y138046*
X112775Y139609D02*
X114650D01*
X115537Y98321D02*
X116163Y98009D01*
X116475Y97384*
X116163Y96759*
X115537Y96446*
X113350*
Y100196*
X115537*
X116163Y99884*
X116475Y99259*
X116163Y98634*
X115537Y98321*
X113350*
X120037Y99921D02*
X120663Y99609D01*
X120975Y98984*
X120663Y98359*
X120037Y98046*
X117850*
Y101796*
X120037*
X120663Y101484*
X120975Y100859*
X120663Y100234*
X120037Y99921*
X117850*
X121174Y62121D02*
X121799Y61809D01*
X122112Y61184*
X121799Y60559*
X121174Y60246*
X118987*
Y63996*
X121174*
X121799Y63684*
X122112Y63059*
X121799Y62434*
X121174Y62121*
X118987*
X122150Y128046D02*
X123713Y131796D01*
X125275Y128046*
X122775Y129609D02*
X124650D01*
X122150Y138046D02*
X123713Y141796D01*
X125275Y138046*
X122775Y139609D02*
X124650D01*
X124737Y25921D02*
X125363Y25609D01*
X125675Y24984*
X125363Y24359*
X124737Y24046*
X122550*
Y27796*
X124737*
X125363Y27484*
X125675Y26859*
X125363Y26234*
X124737Y25921*
X122550*
X125737Y96821D02*
X126363Y96509D01*
X126675Y95884*
X126363Y95259*
X125737Y94946*
X123550*
Y98696*
X125737*
X126363Y98384*
X126675Y97759*
X126363Y97134*
X125737Y96821*
X123550*
X128837Y99521D02*
X129463Y99209D01*
X129775Y98584*
X129463Y97959*
X128837Y97646*
X126650*
Y101396*
X128837*
X129463Y101084*
X129775Y100459*
X129463Y99834*
X128837Y99521*
X126650*
X130237Y21921D02*
X130863Y21609D01*
X131175Y20984*
X130863Y20359*
X130237Y20046*
X128050*
Y23796*
X130237*
X130863Y23484*
X131175Y22859*
X130863Y22234*
X130237Y21921*
X128050*
X131837Y33121D02*
X132463Y32809D01*
X132775Y32184*
X132463Y31559*
X131837Y31246*
X129650*
Y34996*
X131837*
X132463Y34684*
X132775Y34059*
X132463Y33434*
X131837Y33121*
X129650*
X132137Y97021D02*
X132763Y96709D01*
X133075Y96084*
X132763Y95459*
X132137Y95146*
X129950*
Y98896*
X132137*
X132763Y98584*
X133075Y97959*
X132763Y97334*
X132137Y97021*
X129950*
X132150Y128046D02*
X133713Y131796D01*
X135275Y128046*
X132775Y129609D02*
X134650D01*
X132150Y138046D02*
X133713Y141796D01*
X135275Y138046*
X132775Y139609D02*
X134650D01*
X135837Y99521D02*
X136463Y99209D01*
X136775Y98584*
X136463Y97959*
X135837Y97646*
X133650*
Y101396*
X135837*
X136463Y101084*
X136775Y100459*
X136463Y99834*
X135837Y99521*
X133650*
X137037Y60221D02*
X137663Y59909D01*
X137975Y59284*
X137663Y58659*
X137037Y58346*
X134850*
Y62096*
X137037*
X137663Y61784*
X137975Y61159*
X137663Y60534*
X137037Y60221*
X134850*
X140337Y70121D02*
X140963Y69809D01*
X141275Y69184*
X140963Y68559*
X140337Y68246*
X138150*
Y71996*
X140337*
X140963Y71684*
X141275Y71059*
X140963Y70434*
X140337Y70121*
X138150*
X142237Y100921D02*
X142863Y100609D01*
X143175Y99984*
X142863Y99359*
X142237Y99046*
X140050*
Y102796*
X142237*
X142863Y102484*
X143175Y101859*
X142863Y101234*
X142237Y100921*
X140050*
X142150Y128046D02*
X143713Y131796D01*
X145275Y128046*
X142775Y129609D02*
X144650D01*
X142150Y138046D02*
X143713Y141796D01*
X145275Y138046*
X142775Y139609D02*
X144650D01*
X144637Y58021D02*
X145263Y57709D01*
X145575Y57084*
X145263Y56459*
X144637Y56146*
X142450*
Y59896*
X144637*
X145263Y59584*
X145575Y58959*
X145263Y58334*
X144637Y58021*
X142450*
X145037Y25821D02*
X145663Y25509D01*
X145975Y24884*
X145663Y24259*
X145037Y23946*
X142850*
Y27696*
X145037*
X145663Y27384*
X145975Y26759*
X145663Y26134*
X145037Y25821*
X142850*
X146737Y79321D02*
X147363Y79009D01*
X147675Y78384*
X147363Y77759*
X146737Y77446*
X144550*
Y81196*
X146737*
X147363Y80884*
X147675Y80259*
X147363Y79634*
X146737Y79321*
X144550*
X147337Y98821D02*
X147963Y98509D01*
X148275Y97884*
X147963Y97259*
X147337Y96946*
X145150*
Y100696*
X147337*
X147963Y100384*
X148275Y99759*
X147963Y99134*
X147337Y98821*
X145150*
X152337Y97321D02*
X152963Y97009D01*
X153275Y96384*
X152963Y95759*
X152337Y95446*
X150150*
Y99196*
X152337*
X152963Y98884*
X153275Y98259*
X152963Y97634*
X152337Y97321*
X150150*
X152150Y128046D02*
X153713Y131796D01*
X155275Y128046*
X152775Y129609D02*
X154650D01*
X152150Y138046D02*
X153713Y141796D01*
X155275Y138046*
X152775Y139609D02*
X154650D01*
X156837Y99821D02*
X157463Y99509D01*
X157775Y98884*
X157463Y98259*
X156837Y97946*
X154650*
Y101696*
X156837*
X157463Y101384*
X157775Y100759*
X157463Y100134*
X156837Y99821*
X154650*
X159437Y56921D02*
X160063Y56609D01*
X160375Y55984*
X160063Y55359*
X159437Y55046*
X157250*
Y58796*
X159437*
X160063Y58484*
X160375Y57859*
X160063Y57234*
X159437Y56921*
X157250*
X162537Y33921D02*
X163163Y33609D01*
X163475Y32984*
X163163Y32359*
X162537Y32046*
X160350*
Y35796*
X162537*
X163163Y35484*
X163475Y34859*
X163163Y34234*
X162537Y33921*
X160350*
X162737Y99221D02*
X163363Y98909D01*
X163675Y98284*
X163363Y97659*
X162737Y97346*
X160550*
Y101096*
X162737*
X163363Y100784*
X163675Y100159*
X163363Y99534*
X162737Y99221*
X160550*
X162150Y128046D02*
X163713Y131796D01*
X165275Y128046*
X162775Y129609D02*
X164650D01*
X162150Y138046D02*
X163713Y141796D01*
X165275Y138046*
X162775Y139609D02*
X164650D01*
X166337Y97321D02*
X166963Y97009D01*
X167275Y96384*
X166963Y95759*
X166337Y95446*
X164150*
Y99196*
X166337*
X166963Y98884*
X167275Y98259*
X166963Y97634*
X166337Y97321*
X164150*
X171550Y64446D02*
X173113Y68196D01*
X174675Y64446*
X172175Y66009D02*
X174050D01*
X171550Y74446D02*
X173113Y78196D01*
X174675Y74446*
X172175Y76009D02*
X174050D01*
X174237Y97421D02*
X174863Y97109D01*
X175175Y96484*
X174863Y95859*
X174237Y95546*
X172050*
Y99296*
X174237*
X174863Y98984*
X175175Y98359*
X174863Y97734*
X174237Y97421*
X172050*
X172150Y128046D02*
X173713Y131796D01*
X175275Y128046*
X172775Y129609D02*
X174650D01*
X172150Y138046D02*
X173713Y141796D01*
X175275Y138046*
X172775Y139609D02*
X174650D01*
X179637Y106721D02*
X180263Y106409D01*
X180575Y105784*
X180263Y105159*
X179637Y104846*
X177450*
Y108596*
X179637*
X180263Y108284*
X180575Y107659*
X180263Y107034*
X179637Y106721*
X177450*
X182150Y128046D02*
X183713Y131796D01*
X185275Y128046*
X182775Y129609D02*
X184650D01*
X182150Y138046D02*
X183713Y141796D01*
X185275Y138046*
X182775Y139609D02*
X184650D01*
X192150Y128046D02*
X193713Y131796D01*
X195275Y128046*
X192775Y129609D02*
X194650D01*
X192150Y138046D02*
X193713Y141796D01*
X195275Y138046*
X192775Y139609D02*
X194650D01*
D02*
D72*
X30001Y60457D03*
X37072Y53386D03*
X44143Y46315D03*
X51215Y39244D03*
X58285Y32173D03*
X62150Y122109D03*
Y132109D03*
X65357Y25102D03*
X69350Y99909D03*
X70750Y52509D03*
X72150Y122109D03*
Y132109D03*
X72428Y18031D03*
X72750Y88309D03*
X76750Y90509D03*
X79499Y10960D03*
X80550Y87609D03*
X82150Y122109D03*
Y132109D03*
X85150Y90309D03*
X90650Y27209D03*
X90850Y15409D03*
X92150Y122109D03*
Y132109D03*
X93450Y88409D03*
X97550Y90509D03*
X100650Y64509D03*
X101050Y42509D03*
X101650Y25509D03*
X102150Y122109D03*
Y132109D03*
X103350Y90509D03*
X107850Y92109D03*
X108987Y54309D03*
X112150Y122109D03*
Y132109D03*
X112550Y18109D03*
X113550Y89009D03*
X116650Y91709D03*
X118050Y14109D03*
X119650Y25309D03*
X119950Y89209D03*
X122150Y122109D03*
Y132109D03*
X123650Y91709D03*
X124850Y52409D03*
X128150Y62309D03*
X130050Y93109D03*
X132150Y122109D03*
Y132109D03*
X132450Y50209D03*
X132850Y18009D03*
X134550Y71509D03*
X135150Y91009D03*
X140150Y89509D03*
X142150Y122109D03*
Y132109D03*
X144650Y92009D03*
X147250Y49109D03*
X150350Y26109D03*
X150550Y91409D03*
X152150Y122109D03*
Y132109D03*
X154150Y89509D03*
X161550Y58509D03*
Y68509D03*
X162050Y89609D03*
X162150Y122109D03*
Y132109D03*
X167450Y98909D03*
X172150Y122109D03*
Y132109D03*
X182150Y122109D03*
Y132109D03*
X0Y0D02*
M02*
