%FSLAX25Y25*%
%MOIN*%
G04 EasyPC Gerber Version 18.0.8 Build 3632 *
%ADD139R,0.01181X0.04724*%
%ADD144R,0.01600X0.03500*%
%ADD106R,0.02400X0.02400*%
%ADD142R,0.03940X0.04330*%
%ADD143R,0.06000X0.06000*%
%ADD141R,0.06300X0.06300*%
%ADD99C,0.00500*%
%ADD103C,0.01000*%
%ADD123C,0.01500*%
%ADD145C,0.02000*%
%ADD120C,0.03200*%
%ADD146C,0.04000*%
%ADD140R,0.04724X0.01181*%
%ADD105R,0.02400X0.02400*%
%AMT85*0 Rectangle Pad at angle 45*21,1,0.06000,0.06000,0,0,45*%
%ADD85T85*%
X0Y0D02*
D02*
D85*
X30001Y60457D03*
X37072Y53386D03*
X44143Y46315D03*
X51215Y39244D03*
X58285Y32173D03*
X65357Y25102D03*
X72428Y18031D03*
X79499Y10960D03*
D02*
D99*
X11418Y93241D02*
X2950Y84773D01*
Y72044*
X72185Y2809*
X170215*
X239550Y72144*
Y84873*
X227032Y97391*
X161750Y32109*
X135188*
G75*
G02X135200Y31895I-1938J-214*
G01*
Y28459*
X139898*
Y19559*
X135500*
Y18709*
G75*
G02X135400Y18091I-1950J0*
G01*
G75*
G02X135401Y18009I-2548J-78*
G01*
G75*
G02X130299I-2551*
G01*
G75*
G02X131099Y19864I2551*
G01*
Y28459*
X131300*
Y29457*
X124157*
Y18309*
G75*
G02X123687Y17172I-1607*
G01*
X120600Y14085*
G75*
G02X115500Y14109I-2550J24*
G01*
G75*
G02X118572Y16605I2550*
G01*
X120943Y18974*
Y29457*
X118257*
Y22488*
G75*
G02X117797Y21361I-1608*
G01*
X115057Y18572*
G75*
G02X115100Y18109I-2507J-464*
G01*
G75*
G02X110000I-2550*
G01*
G75*
G02X110038Y18545I2550J-1*
G01*
X99575Y8085*
G75*
G02X98550Y7660I-1026J1025*
G01*
X82209*
X79499Y4950*
X73757Y10691*
G75*
G02X73450Y10659I-306J1418*
G01*
X70850*
G75*
G02X69825Y11083J1450*
G01*
X64125Y16783*
G75*
G02X63700Y17809I1025J1025*
G01*
Y20748*
X59346Y25102*
X65357Y31112*
X71367Y25102*
X66600Y20335*
Y18409*
X66698Y18311*
X72428Y24041*
X74735Y21734*
G75*
G02X75650Y22059I915J-1125*
G01*
X89049*
X96425Y29434*
G75*
G02X97450Y29859I1025J-1025*
G01*
X101009*
Y32109*
X72550*
X11418Y93241*
X23991Y60457D02*
X30001Y66468D01*
X36011Y60457*
X30001Y54447*
X23991Y60457*
X31062Y53386D02*
X37072Y59396D01*
X43083Y53386*
X37072Y47376*
X31062Y53386*
X38133Y46315D02*
X44143Y52326D01*
X50154Y46315*
X44143Y40305*
X38133Y46315*
X45204Y39244D02*
X51215Y45254D01*
X57225Y39244*
X51215Y33234*
X45204Y39244*
X52275Y32173D02*
X58285Y38183D01*
X64296Y32173*
X58285Y26163*
X52275Y32173*
X14537Y60457D02*
G36*
X21608Y53386D01*
X31062*
X37072Y59396*
X43083Y53386*
X51272*
X44201Y60457*
X36011*
X30001Y54447*
X23991Y60457*
X14537*
G37*
X23991D02*
G36*
X30001Y66468D01*
X36011Y60457*
X44201*
X11418Y93241*
X2950Y84773*
Y72044*
X14537Y60457*
X23991*
G37*
X21608Y53386D02*
G36*
X28679Y46315D01*
X38133*
X44143Y52326*
X50154Y46315*
X58343*
X51272Y53386*
X43083*
X37072Y47376*
X31062Y53386*
X21608*
G37*
X28679Y46315D02*
G36*
X35750Y39244D01*
X45204*
X51215Y45254*
X57225Y39244*
X65415*
X58343Y46315*
X50154*
X44143Y40305*
X38133Y46315*
X28679*
G37*
X35750Y39244D02*
G36*
X42821Y32173D01*
X52275*
X58285Y38183*
X64296Y32173*
X72485*
X65415Y39244*
X57225*
X51215Y33234*
X45204Y39244*
X35750*
G37*
X42821Y32173D02*
G36*
X72185Y2809D01*
X170215*
X239550Y72144*
Y84873*
X227032Y97391*
X161750Y32109*
X135188*
G75*
G02X135200Y31895I-1938J-214*
G01*
Y28459*
X139898*
Y19559*
X135500*
Y18709*
G75*
G02X135400Y18091I-1950J0*
G01*
G75*
G02X135401Y18009I-2548J-78*
G01*
G75*
G02X130299I-2551*
G01*
G75*
G02X131099Y19864I2551*
G01*
Y28459*
X131300*
Y29457*
X124157*
Y18309*
G75*
G02X123687Y17172I-1607*
G01*
X120600Y14085*
G75*
G02X115500Y14109I-2550J24*
G01*
G75*
G02X118572Y16605I2550*
G01*
X120943Y18974*
Y29457*
X118257*
Y22488*
G75*
G02X117797Y21361I-1608*
G01*
X115057Y18572*
G75*
G02X115100Y18109I-2507J-464*
G01*
G75*
G02X110000I-2550*
G01*
G75*
G02X110038Y18545I2550J-1*
G01*
X99575Y8085*
G75*
G02X98550Y7660I-1026J1025*
G01*
X82209*
X79499Y4950*
X73757Y10691*
G75*
G02X73450Y10659I-306J1418*
G01*
X70850*
G75*
G02X69825Y11083J1450*
G01*
X64125Y16783*
G75*
G02X63700Y17809I1025J1025*
G01*
Y20748*
X59346Y25102*
X65357Y31112*
X71367Y25102*
X66600Y20335*
Y18409*
X66698Y18311*
X72428Y24041*
X74735Y21734*
G75*
G02X75650Y22059I915J-1125*
G01*
X89049*
X96425Y29434*
G75*
G02X97450Y29859I1025J-1025*
G01*
X101009*
Y32109*
X72550*
X72485Y32173*
X64296*
X58285Y26163*
X52275Y32173*
X42821*
G37*
X12218Y94041D02*
X72450Y33809D01*
X100650*
Y38009*
X131100*
Y41209*
G75*
G02X131525Y42234I1450*
G01*
X133030Y43738*
G75*
G02X134055Y44163I1025J-1026*
G01*
X136442*
Y47169*
X134140*
G75*
G02X133115Y47594J1450*
G01*
X132991Y47717*
G75*
G02X130300Y51580I-541J2492*
G01*
Y54409*
G75*
G02X130871Y55787I1950J0*
G01*
X133871Y58787*
G75*
G02X133907Y58822I1383J-1378*
G01*
X130150*
G75*
G02X129048Y59260J1607*
G01*
X128494Y59782*
G75*
G02X125600Y62309I-344J2527*
G01*
G75*
G02X130700I2550*
G01*
G75*
G02X130693Y62126I-2552J2*
G01*
X130788Y62037*
X136442*
Y72114*
X143666*
Y69754*
X145099*
Y74459*
X148800*
Y74559*
X149900*
Y79009*
G75*
G02X150325Y80034I1450*
G01*
X159527Y89237*
G75*
G02X160400Y91553I2523J372*
G01*
Y93260*
X157057*
Y91609*
G75*
G02X156540Y90428I-1607J0*
G01*
X156532Y90420*
G75*
G02X153887Y86972I-2382J-911*
G01*
X143787Y76872*
G75*
G02X142650Y76401I-1137J1137*
G01*
X134217*
Y74339*
X101009*
Y76401*
X87691*
G75*
G02X86554Y76872J1607*
G01*
X79413Y84013*
G75*
G02X78943Y85149I1137J1137*
G01*
Y85629*
G75*
G02X78200Y86619I1608J1980*
G01*
Y82809*
X86251Y74759*
X97650*
G75*
G02X98675Y74334J-1450*
G01*
X100375Y72634*
G75*
G02X100800Y71609I-1025J-1025*
G01*
Y69309*
G75*
G02X100375Y68283I-1450*
G01*
X99770Y67678*
G75*
G02X100023Y67472I-884J-1343*
G01*
X100445Y67050*
G75*
G02X100955Y61977I205J-2542*
G01*
X100350Y61372*
G75*
G02X99213Y60901I-1137J1137*
G01*
X98784*
Y60116*
X105250*
G75*
G02X106451Y59577J-1607*
G01*
X108872Y56856*
G75*
G02X111537Y54309I115J-2547*
G01*
G75*
G02X106850Y52917I-2550*
G01*
X98784*
Y38906*
X96623*
Y37431*
G75*
G02X96198Y36406I-1450*
G01*
X94575Y34783*
G75*
G02X93550Y34359I-1025J1025*
G01*
X84550*
G75*
G02X83525Y34783J1450*
G01*
X82025Y36283*
G75*
G02X81955Y36358I1024J1029*
G01*
X80599*
Y36859*
X78350*
G75*
G02X76971Y37430I0J1950*
G01*
X72893Y41508*
X66450*
Y50307*
X67743*
Y52509*
G75*
G02X68072Y53901I3107*
G01*
G75*
G02X68764Y54994I2778J-993*
G01*
X72131Y58361*
Y60823*
X74584*
X77260Y63499*
G75*
G02X78750Y64116I1490J-1490*
G01*
X86250*
G75*
G02X87787Y63450J-2107*
G01*
X88183Y63029*
X90603Y65493*
G75*
G02X91560Y65962I1147J-1127*
G01*
Y68665*
X83650*
G75*
G02X82511Y69138J1607*
G01*
X71611Y80074*
G75*
G02X71143Y81209I1139J1135*
G01*
Y86329*
G75*
G02Y90288I1607J1980*
G01*
Y93809*
G75*
G02X71613Y94945I1607*
G01*
X72202Y95533*
Y99260*
X85898*
Y93260*
X85300*
Y92854*
G75*
G02X86657Y88252I-150J-2546*
G01*
X91351Y83559*
X96252*
G75*
G02X96225Y83585I995J1052*
G01*
X93908Y85900*
G75*
G02X92300Y90685I-458J2509*
G01*
Y93260*
X91702*
Y99260*
X105398*
Y96611*
X107392Y94617*
G75*
G02X109693Y90346I458J-2509*
G01*
X111000Y89049*
G75*
G02X112043Y91065I2550J-41*
G01*
Y93260*
X111599*
Y99260*
X125300*
Y93653*
G75*
G02X125241Y89716I-1650J-1944*
G01*
Y89581*
X127726Y92060*
G75*
G02X130508Y95617I2324J1049*
G01*
X131702Y96811*
Y99260*
X145398*
Y94446*
G75*
G02X146100Y89911I-748J-2438*
G01*
Y89309*
G75*
G02X146088Y89120I-1452J-1*
G01*
X148024Y91057*
G75*
G02X149100Y93506I2526J352*
G01*
Y94209*
G75*
G02X149525Y95234I1450*
G01*
X150202Y95911*
Y99260*
X163898*
Y93260*
X163300*
Y91831*
G75*
G02X161509Y87117I-1250J-2222*
G01*
X152800Y78408*
Y74559*
X153702*
Y65817*
X156807*
X157300Y66309*
Y72760*
X165800*
Y64260*
X159352*
X158433Y63342*
G75*
G02X157408Y62917I-1025J1025*
G01*
X143666*
Y59459*
X145300*
Y59959*
X153800*
Y51157*
X148768*
G75*
G02X149800Y49109I-1518J-2049*
G01*
G75*
G02X145226Y47558I-2550*
G01*
G75*
G02X144483Y48004I424J1551*
G01*
X143666Y48866*
Y38906*
X136442*
Y41263*
X134655*
X134000Y40608*
Y38009*
X135850*
X135950Y37909*
Y33809*
X161250*
X225932Y98491*
X170315Y154109*
X72285*
X12218Y94041*
X66398Y126358D02*
Y117858D01*
X57898*
Y126358*
X66398*
Y136358D02*
Y127858D01*
X57898*
Y136358*
X66398*
X70700Y117858D02*
X67898D01*
Y126358*
X76000*
Y127208*
X75350Y127858*
X67898*
Y136358*
X76398*
Y130912*
X77898Y129411*
Y136358*
X86398*
Y130433*
X87898Y128933*
Y136358*
X96398*
Y129911*
X97898Y128411*
Y136358*
X106398*
Y130411*
X107898Y128911*
Y136358*
X116398*
Y129911*
X117875Y128434*
G75*
G02X117898Y128410I-1023J-1029*
G01*
Y136358*
X126398*
Y130133*
X127687Y128845*
G75*
G02X127898Y128584I-1136J-1137*
G01*
Y136358*
X136398*
Y129911*
X137898Y128411*
Y136358*
X146398*
Y130311*
X147675Y129034*
G75*
G02X147898Y128746I-1025J-1026*
G01*
Y136358*
X156398*
Y129911*
X157898Y128411*
Y136358*
X166398*
Y127858*
X163600*
Y126358*
X166398*
Y117858*
X163457*
Y105760*
X163898*
Y99760*
X150202*
Y105760*
X150643*
Y117858*
X148100*
Y108009*
G75*
G02X147675Y106983I-1450*
G01*
X145398Y104706*
Y99760*
X131702*
Y104684*
X130913Y105472*
G75*
G02X130443Y106609I1137J1137*
G01*
Y117858*
X128157*
Y117509*
G75*
G02X127703Y116389I-1607J0*
G01*
X124856Y113457*
Y105760*
X125300*
Y99760*
X111599*
Y105760*
X112200*
Y111508*
X111125Y112583*
G75*
G02X110700Y113609I1025J1025*
G01*
Y117858*
X108700*
Y107609*
G75*
G02X108275Y106583I-1450*
G01*
X105398Y103706*
Y99760*
X91702*
Y103284*
X90913Y104072*
G75*
G02X90443Y105209I1137J1137*
G01*
Y117858*
X88457*
Y105809*
G75*
G02X87987Y104672I-1607*
G01*
X85898Y102584*
Y99760*
X72202*
Y101706*
X71125Y102783*
G75*
G02X70700Y103809I1025J1025*
G01*
Y117858*
X165800Y54260D02*
X157300D01*
Y62760*
X165800*
Y54260*
X176398Y126358D02*
Y117858D01*
X167898*
Y126358*
X176398*
Y136358D02*
Y127858D01*
X167898*
Y136358*
X176398*
X186398Y126358D02*
Y117858D01*
X177898*
Y126358*
X186398*
Y136358D02*
Y127858D01*
X177898*
Y136358*
X186398*
X40285Y122108D02*
G36*
X12218Y94041D01*
X72450Y33809*
X100650*
Y38009*
X131100*
Y41209*
G75*
G02X131525Y42234I1450*
G01*
X133030Y43738*
G75*
G02X134055Y44163I1025J-1026*
G01*
X136442*
Y47169*
X134140*
G75*
G02X133115Y47594J1450*
G01*
X132991Y47717*
G75*
G02X130300Y51580I-541J2492*
G01*
Y54409*
G75*
G02X130871Y55787I1950J0*
G01*
X133871Y58787*
G75*
G02X133907Y58822I1383J-1378*
G01*
X130150*
G75*
G02X129048Y59260J1607*
G01*
X128494Y59782*
G75*
G02X125600Y62309I-344J2527*
G01*
G75*
G02X130700I2550*
G01*
G75*
G02X130693Y62126I-2552J2*
G01*
X130788Y62037*
X136442*
Y72114*
X143666*
Y69754*
X145099*
Y74459*
X148800*
Y74559*
X149900*
Y79009*
G75*
G02X150325Y80034I1450*
G01*
X159527Y89237*
G75*
G02X160400Y91553I2523J372*
G01*
Y93260*
X157057*
Y91609*
G75*
G02X156540Y90428I-1607J0*
G01*
X156532Y90420*
G75*
G02X153887Y86972I-2382J-911*
G01*
X143787Y76872*
G75*
G02X142650Y76401I-1137J1137*
G01*
X134217*
Y74339*
X101009*
Y76401*
X87691*
G75*
G02X86554Y76872J1607*
G01*
X79413Y84013*
G75*
G02X78943Y85149I1137J1137*
G01*
Y85629*
G75*
G02X78200Y86619I1608J1980*
G01*
Y82809*
X86251Y74759*
X97650*
G75*
G02X98675Y74334J-1450*
G01*
X100375Y72634*
G75*
G02X100800Y71609I-1025J-1025*
G01*
Y69309*
G75*
G02X100375Y68283I-1450*
G01*
X99770Y67678*
G75*
G02X100023Y67472I-884J-1343*
G01*
X100445Y67050*
G75*
G02X100955Y61977I205J-2542*
G01*
X100350Y61372*
G75*
G02X99213Y60901I-1137J1137*
G01*
X98784*
Y60116*
X105250*
G75*
G02X106451Y59577J-1607*
G01*
X108872Y56856*
G75*
G02X111537Y54309I115J-2547*
G01*
G75*
G02X106850Y52917I-2550*
G01*
X98784*
Y38906*
X96623*
Y37431*
G75*
G02X96198Y36406I-1450*
G01*
X94575Y34783*
G75*
G02X93550Y34359I-1025J1025*
G01*
X84550*
G75*
G02X83525Y34783J1450*
G01*
X82025Y36283*
G75*
G02X81955Y36358I1024J1029*
G01*
X80599*
Y36859*
X78350*
G75*
G02X76971Y37430I0J1950*
G01*
X72893Y41508*
X66450*
Y50307*
X67743*
Y52509*
G75*
G02X68072Y53901I3107*
G01*
G75*
G02X68764Y54994I2778J-993*
G01*
X72131Y58361*
Y60823*
X74584*
X77260Y63499*
G75*
G02X78750Y64116I1490J-1490*
G01*
X86250*
G75*
G02X87787Y63450J-2107*
G01*
X88183Y63029*
X90603Y65493*
G75*
G02X91560Y65962I1147J-1127*
G01*
Y68665*
X83650*
G75*
G02X82511Y69138J1607*
G01*
X71611Y80074*
G75*
G02X71143Y81209I1139J1135*
G01*
Y86329*
G75*
G02Y90288I1607J1980*
G01*
Y93809*
G75*
G02X71613Y94945I1607*
G01*
X72202Y95533*
Y99260*
X85898*
Y93260*
X85300*
Y92854*
G75*
G02X86657Y88252I-150J-2546*
G01*
X91351Y83559*
X96252*
G75*
G02X96225Y83585I995J1052*
G01*
X93908Y85900*
G75*
G02X92300Y90685I-458J2509*
G01*
Y93260*
X91702*
Y99260*
X105398*
Y96611*
X107392Y94617*
G75*
G02X109693Y90346I458J-2509*
G01*
X111000Y89049*
G75*
G02X112043Y91065I2550J-41*
G01*
Y93260*
X111599*
Y99260*
X125300*
Y93653*
G75*
G02X125241Y89716I-1650J-1944*
G01*
Y89581*
X127726Y92060*
G75*
G02X130508Y95617I2324J1049*
G01*
X131702Y96811*
Y99260*
X145398*
Y94446*
G75*
G02X146100Y89911I-748J-2438*
G01*
Y89309*
G75*
G02X146088Y89120I-1452J-1*
G01*
X148024Y91057*
G75*
G02X149100Y93506I2526J352*
G01*
Y94209*
G75*
G02X149525Y95234I1450*
G01*
X150202Y95911*
Y99260*
X163898*
Y93260*
X163300*
Y91831*
G75*
G02X161509Y87117I-1250J-2222*
G01*
X152800Y78408*
Y74559*
X153702*
Y65817*
X156807*
X157300Y66309*
Y72760*
X165800*
Y64260*
X159352*
X158433Y63342*
G75*
G02X157408Y62917I-1025J1025*
G01*
X143666*
Y59459*
X145300*
Y59959*
X153800*
Y58510*
X157300*
Y62760*
X165800*
Y58510*
X185951*
X225932Y98491*
X202315Y122108*
X186398*
Y117858*
X177898*
Y122108*
X176398*
Y117858*
X167898*
Y122108*
X166398*
Y117858*
X163457*
Y105760*
X163898*
Y99760*
X150202*
Y105760*
X150643*
Y117858*
X148100*
Y108009*
G75*
G02X147675Y106983I-1450*
G01*
X145398Y104706*
Y99760*
X131702*
Y104684*
X130913Y105472*
G75*
G02X130443Y106609I1137J1137*
G01*
Y117858*
X128157*
Y117509*
G75*
G02X127703Y116389I-1607J0*
G01*
X124856Y113457*
Y105760*
X125300*
Y99760*
X111599*
Y105760*
X112200*
Y111508*
X111125Y112583*
G75*
G02X110700Y113609I1025J1025*
G01*
Y117858*
X108700*
Y107609*
G75*
G02X108275Y106583I-1450*
G01*
X105398Y103706*
Y99760*
X91702*
Y103284*
X90913Y104072*
G75*
G02X90443Y105209I1137J1137*
G01*
Y117858*
X88457*
Y105809*
G75*
G02X87987Y104672I-1607*
G01*
X85898Y102584*
Y99760*
X72202*
Y101706*
X71125Y102783*
G75*
G02X70700Y103809I1025J1025*
G01*
Y117858*
X67898*
Y122108*
X66398*
Y117858*
X57898*
Y122108*
X40285*
G37*
X57898D02*
G36*
Y126358D01*
X66398*
Y122108*
X67898*
Y126358*
X76000*
Y127208*
X75350Y127858*
X67898*
Y132108*
X66398*
Y127858*
X57898*
Y132108*
X50285*
X40285Y122108*
X57898*
G37*
X167898D02*
G36*
Y126358D01*
X176398*
Y122108*
X177898*
Y126358*
X186398*
Y122108*
X202315*
X192315Y132108*
X186398*
Y127858*
X177898*
Y132108*
X176398*
Y127858*
X167898*
Y132108*
X166398*
Y127858*
X163600*
Y126358*
X166398*
Y122108*
X167898*
G37*
X57898Y132108D02*
G36*
Y136358D01*
X66398*
Y132108*
X67898*
Y136358*
X76398*
Y130912*
X77898Y129411*
Y136358*
X86398*
Y130433*
X87898Y128933*
Y136358*
X96398*
Y129911*
X97898Y128411*
Y136358*
X106398*
Y130411*
X107898Y128911*
Y136358*
X116398*
Y129911*
X117875Y128434*
G75*
G02X117898Y128410I-1023J-1029*
G01*
Y136358*
X126398*
Y130133*
X127687Y128845*
G75*
G02X127898Y128584I-1136J-1137*
G01*
Y136358*
X136398*
Y129911*
X137898Y128411*
Y136358*
X146398*
Y130311*
X147675Y129034*
G75*
G02X147898Y128746I-1025J-1026*
G01*
Y136358*
X156398*
Y129911*
X157898Y128411*
Y136358*
X166398*
Y132108*
X167898*
Y136358*
X176398*
Y132108*
X177898*
Y136358*
X186398*
Y132108*
X192315*
X170315Y154109*
X72285*
X50285Y132108*
X57898*
G37*
X153800Y58510D02*
G36*
Y51157D01*
X148768*
G75*
G02X149800Y49109I-1518J-2049*
G01*
G75*
G02X145226Y47558I-2550*
G01*
G75*
G02X144483Y48004I424J1551*
G01*
X143666Y48866*
Y38906*
X136442*
Y41263*
X134655*
X134000Y40608*
Y38009*
X135850*
X135950Y37909*
Y33809*
X161250*
X185951Y58510*
X165800*
Y54260*
X157300*
Y58510*
X153800*
G37*
X157552Y105760D02*
X160243D01*
Y117858*
X158600*
Y107409*
G75*
G02X158176Y106383I-1450*
G01*
X157552Y105760*
G36*
X160243*
Y117858*
X158600*
Y107409*
G75*
G02X158176Y106383I-1450*
G01*
X157552Y105760*
G37*
D02*
D103*
X33330Y53386D02*
X30709D01*
X37072Y49644D02*
Y47022D01*
Y57129D02*
Y59750D01*
X40815Y53386D02*
X43436D01*
X68250Y99909D02*
X66250D01*
X69350Y98809D02*
Y96809D01*
Y101009D02*
Y103009D01*
X72750Y88309D02*
Y93809D01*
X74150Y95209*
Y96259*
X74250*
Y102759D02*
Y101709D01*
X72150Y103809*
Y122109*
X77450Y96259D02*
Y91209D01*
X76750Y90509*
X77450Y102759D02*
Y127809D01*
X74650Y130609*
X72150*
Y132109*
X80550Y87609D02*
Y85149D01*
X87691Y78009*
X102850*
Y77949*
X80650Y96259D02*
Y87709D01*
X80550Y87609*
X80650Y102759D02*
X80750D01*
Y119609*
X81250Y120109*
Y122109*
X82150*
X82350Y57409D02*
Y56509D01*
X87750*
X83850Y96259D02*
Y91609D01*
X85150Y90309*
X83850Y102759D02*
X84150D01*
Y103109*
X86850Y105809*
Y127709*
X82250Y132309*
Y132109*
X82150*
X86950Y38809D02*
X89350D01*
X90650Y40109*
Y43609*
X91723Y44682*
X95173*
X86950Y52209D02*
Y52509D01*
X94826*
X94873Y52556*
X95173*
X89550Y27209D02*
X87550D01*
X90650Y26109D02*
Y24109D01*
Y28309D02*
Y30309D01*
X90850Y15409D02*
X97650D01*
X108750Y26509*
X108755Y30014*
Y33068*
X91750Y27209D02*
X93750D01*
Y96259D02*
Y88709D01*
X93450Y88409*
X93750Y102759D02*
Y103509D01*
X92050Y105209*
Y122109*
X92150*
X95173Y40745D02*
Y37431D01*
X93550Y35809*
X84550*
X83050Y37309*
Y38809*
X95173Y48619D02*
Y48509D01*
X84250*
Y45909*
X95173Y54524D02*
Y54509D01*
X109050*
X108987Y54445*
Y54309*
X95173Y56493D02*
X87766D01*
X87750Y56509*
X95173Y58461D02*
Y58509D01*
X90850*
X88903Y60456*
X87750*
Y60409*
X95173Y62398D02*
Y60430D01*
Y64367D02*
X95150D01*
Y64275*
X91750*
Y64309*
X88550Y61109*
Y60409*
X87750*
X95173Y66335D02*
X98887D01*
X99913Y65309*
Y63209*
X99213Y62509*
X95283*
X95173Y62398*
Y68304D02*
X98345D01*
X99350Y69309*
Y71609*
X97650Y73309*
X85650*
X76750Y82209*
Y90509*
X95173Y70272D02*
Y70309D01*
X83650*
X72750Y81209*
Y88309*
X96950Y96259D02*
Y91109D01*
X97550Y90509*
X96950Y102759D02*
Y127309D01*
X92150Y132109*
X100150Y96259D02*
Y93709D01*
X103350Y90509*
X100150Y102759D02*
Y105909D01*
X102150Y107909*
Y122109*
X101050Y41409D02*
Y39409D01*
Y42509D02*
X100450D01*
X100250Y42709*
X99650*
X99645Y42713*
X95173*
X101050Y43609D02*
Y45609D01*
X102150Y42509D02*
X104150D01*
X102850Y33068D02*
Y31009D01*
X95550*
X91550Y27009*
X90650*
Y27209*
X103350Y96259D02*
X103700D01*
X107850Y92109*
X103350Y102759D02*
Y103709D01*
X107250Y107609*
Y127509*
X102650Y132109*
X102150*
X104818Y33068D02*
Y30209D01*
X103018Y28409*
X97450*
X89650Y20609*
X75650*
X73072Y18031*
X72428*
X104818Y77949D02*
Y80941D01*
X103650Y82109*
X90750*
X85150Y87709*
Y90309*
X106787Y33068D02*
Y28745D01*
X103450Y25409*
X101850*
Y25309*
X101650Y25509*
X106787Y77949D02*
Y81972D01*
X104150Y84609*
X97250*
X93450Y88409*
X108755Y77949D02*
X108750D01*
Y82709*
X104350Y87109*
X99650*
X97555Y89204*
X97550*
Y90509*
X108987Y54309D02*
X109050D01*
X105250Y58509*
X95250*
Y58461*
X95173*
X110724Y33068D02*
Y25282D01*
X97450Y12009*
X85750*
X80950Y16809*
X78150*
X73450Y12109*
X70850*
X65150Y17809*
Y24895*
X65357Y25102*
X110724Y77949D02*
X110750D01*
Y83809*
X104624Y89935*
X103350*
Y90509*
X112550Y18109D02*
X112350D01*
Y18188*
X116650Y22488*
Y33068*
X116629*
X112692Y77949D02*
X112650D01*
Y85109*
X107850Y89909*
Y92109*
X113650Y96259D02*
Y89109D01*
X113550Y89009*
X113650Y102759D02*
Y112109D01*
X112150Y113609*
Y122109*
X114661Y33068D02*
Y25219D01*
X98550Y9109*
X81350*
X79499Y10960*
X114661Y77949D02*
X114650D01*
Y87609*
X113639Y88619*
Y89009*
X113550*
X116629Y77949D02*
X116650D01*
Y91709*
X116850Y96259D02*
Y91909D01*
X116650Y91709*
X116850Y102759D02*
Y127409D01*
X112150Y132109*
X118050Y14109D02*
Y13809D01*
X122550Y18309*
Y33068*
X122535*
X118598D02*
Y26361D01*
X119650Y25309*
X118598Y77949D02*
Y87856D01*
X119950Y89209*
X119650Y24209D02*
Y22209D01*
Y26409D02*
Y28409D01*
X120050Y96259D02*
Y89309D01*
X119950Y89209*
X120050Y102759D02*
X120150D01*
Y116609*
X122250Y118709*
Y122109*
X122150*
X120566Y77949D02*
X120550D01*
Y85409*
X123634Y88493*
Y91709*
X123650*
X122535Y77949D02*
X122550D01*
Y84609*
X130050Y92109*
Y93109*
X123250Y96259D02*
Y92109D01*
X123650Y91709*
X123250Y102759D02*
X123150D01*
Y114109*
X126550Y117509*
Y127709*
X122150Y132109*
X123750Y52409D02*
X121750D01*
X124503Y77949D02*
X124550D01*
Y83609*
X130050Y89109*
X133350*
X135150Y90909*
Y91009*
X124850Y51309D02*
Y49309D01*
Y53509D02*
Y55509D01*
X125950Y52409D02*
X127950D01*
X128440Y77949D02*
Y81599D01*
X130950Y84109*
X139450*
X144650Y89309*
Y92009*
X130409Y77949D02*
Y80809D01*
X131709Y82109*
X141350*
X150550Y91309*
Y91409*
X133250Y31895D02*
X132377Y32768D01*
Y33068*
X133450Y71509D02*
X131450D01*
X133750Y96259D02*
X133200D01*
X130050Y93109*
X133750Y102759D02*
X133550D01*
Y105109*
X132050Y106609*
Y122109*
X132150*
X134550Y70409D02*
Y68409D01*
Y72609D02*
Y74609D01*
X136950Y96259D02*
Y92809D01*
X135150Y91009*
X136950Y102759D02*
Y127309D01*
X132150Y132109*
X137450Y21309D02*
Y19309D01*
Y26709D02*
Y28709D01*
X138150Y22009D02*
X140150D01*
X138150Y26009D02*
X140150D01*
X139817Y40508D02*
X137963Y38654D01*
X139817Y70509D02*
X137963Y72363D01*
X140054Y42713D02*
X134055D01*
X132550Y41209*
Y33241*
X132377Y33068*
X140054Y44682D02*
X144277D01*
X145150Y43809*
Y41409*
X144450Y40709*
X140090*
X140054Y40745*
Y46650D02*
Y44682D01*
Y48619D02*
X134140D01*
X132250Y50509*
X140054Y50587D02*
Y50509D01*
X144250*
X145650Y49109*
X147250*
X140054Y50587D02*
X136335D01*
X135613Y51309*
Y53709*
X136413Y54509*
X139938*
X139954Y54524*
X140054*
Y56493D02*
Y58461D01*
X140050*
Y57409*
X140054Y58461D02*
Y57509D01*
Y60430D02*
X138792D01*
X133050Y60309*
X130150*
X128050Y62409*
X128250*
X128350Y62309*
X127850Y62209*
X128050*
Y62309*
X128150*
X140054Y62398D02*
X157660D01*
X161550Y58509*
X140054Y64367D02*
X157408D01*
X161550Y68509*
X140054Y66335D02*
X145777D01*
X147550Y68109*
X140054Y68304D02*
X147355D01*
X147550Y68109*
X140054Y70272D02*
X135786D01*
X134550Y71509*
X140150Y89509D02*
X136550Y85909D01*
X129650*
X126450Y82709*
Y77949*
X126472*
X140150Y96259D02*
Y89509D01*
Y102759D02*
Y105509D01*
X142150Y107509*
Y122109*
X140291Y40508D02*
X142144Y38654D01*
X140291Y70509D02*
X142144Y72363D01*
X143350Y96259D02*
Y93309D01*
X144650Y92009*
X143350Y102759D02*
Y104709D01*
X146650Y108009*
Y128009*
X142150Y132509*
Y132009*
X141450Y132609*
X142150*
Y132109*
X147550Y72009D02*
X151350D01*
Y79009*
X161250Y88909*
Y89609*
X162050*
X147750Y53609D02*
X147650Y53709D01*
X146450*
X145250Y52509*
X140054*
Y52556*
X149250Y26109D02*
X147250D01*
X150350Y25009D02*
Y23009D01*
Y27209D02*
Y29209D01*
X151250Y68209D02*
X147650D01*
X147550Y68109*
X151250Y72109D02*
X147650D01*
X147550Y72009*
X151450Y26109D02*
X153450D01*
X152250Y96259D02*
X152450D01*
Y95309*
X151650*
X150550Y94209*
Y91409*
X152250Y102759D02*
X152150D01*
Y122109*
X154150Y89509D02*
X142650Y78009D01*
X132377*
Y77949*
X155450Y96259D02*
Y91609D01*
X155350*
X154150Y90409*
Y89509*
X155450Y102759D02*
Y105709D01*
X157150Y107409*
Y127109*
X152150Y132109*
X158650Y96259D02*
Y102759D01*
Y101509D02*
Y99509D01*
Y104009D02*
Y106009D01*
X159050Y58509D02*
X157050D01*
X161550Y56009D02*
Y54009D01*
Y61009D02*
Y63009D01*
X161850Y96259D02*
Y89809D01*
X162050Y89609*
X161850Y102759D02*
X161750D01*
Y122109*
X162150*
Y132109D02*
Y122109D01*
X164050Y58509D02*
X166050D01*
X166350Y98909D02*
X164350D01*
X167450Y97809D02*
Y95809D01*
Y100009D02*
Y102009D01*
X168550Y98909D02*
X170550D01*
X169650Y122109D02*
X167650D01*
X169650Y132109D02*
X167650D01*
X172150Y119609D02*
Y117609D01*
Y124609D02*
Y126609D01*
Y129609D02*
Y127609D01*
Y134609D02*
Y136609D01*
X174650Y122109D02*
X176650D01*
X174650Y132109D02*
X176650D01*
D02*
D105*
X83050Y38809D03*
Y52209D03*
X86950Y38809D03*
Y52209D03*
X133550Y22009D03*
Y26009D03*
X137450Y22009D03*
Y26009D03*
D02*
D106*
X87750Y56509D03*
Y60409D03*
X147550Y68109D03*
Y72009D03*
X147750Y53609D03*
Y57509D03*
X151250Y68209D03*
Y72109D03*
X151350Y53609D03*
Y57509D03*
D02*
D120*
X69350Y99909D03*
X70750Y52509D03*
X72750Y88309D03*
X76750Y90509D03*
X80550Y87609D03*
X85150Y90309D03*
X90650Y27209D03*
X90850Y15409D03*
X93450Y88409D03*
X97550Y90509D03*
X100650Y64509D03*
X101050Y42509D03*
X101650Y25509D03*
X103350Y90509D03*
X107850Y92109D03*
X108987Y54309D03*
X112550Y18109D03*
X113550Y89009D03*
X116650Y91709D03*
X118050Y14109D03*
X119650Y25309D03*
X119950Y89209D03*
X123650Y91709D03*
X124850Y52409D03*
X128150Y62309D03*
X130050Y93109D03*
X132450Y50209D03*
X132850Y18009D03*
X134550Y71509D03*
X135150Y91009D03*
X140150Y89509D03*
X144650Y92009D03*
X147250Y49109D03*
X150350Y26109D03*
X150550Y91409D03*
X154150Y89509D03*
X162050Y89609D03*
X167450Y98909D03*
D02*
D123*
X158650Y96259D02*
Y92509D01*
D02*
D139*
X102850Y33068D03*
Y77949D03*
X104818Y33068D03*
Y77949D03*
X106787Y33068D03*
Y77949D03*
X108755Y33068D03*
Y77949D03*
X110724Y33068D03*
Y77949D03*
X112692Y33068D03*
Y77949D03*
X114661Y33068D03*
Y77949D03*
X116629Y33068D03*
Y77949D03*
X118598Y33068D03*
Y77949D03*
X120566Y33068D03*
Y77949D03*
X122535Y33068D03*
Y77949D03*
X124503Y33068D03*
Y77949D03*
X126472Y33068D03*
Y77949D03*
X128440Y33068D03*
Y77949D03*
X130409Y33068D03*
Y77949D03*
X132377Y33068D03*
Y77949D03*
D02*
D140*
X95173Y40745D03*
Y42713D03*
Y44682D03*
Y46650D03*
Y48619D03*
Y50587D03*
Y52556D03*
Y54524D03*
Y56493D03*
Y58461D03*
Y60430D03*
Y62398D03*
Y64367D03*
Y66335D03*
Y68304D03*
Y70272D03*
X140054Y40745D03*
Y42713D03*
Y44682D03*
Y46650D03*
Y48619D03*
Y50587D03*
Y52556D03*
Y54524D03*
Y56493D03*
Y58461D03*
Y60430D03*
Y62398D03*
Y64367D03*
Y66335D03*
Y68304D03*
Y70272D03*
D02*
D141*
X70850Y45909D03*
X84250D03*
D02*
D142*
X75350Y57409D03*
X82350D03*
D02*
D143*
X62150Y122109D03*
Y132109D03*
X72150Y122109D03*
Y132109D03*
X82150Y122109D03*
Y132109D03*
X92150Y122109D03*
Y132109D03*
X102150Y122109D03*
Y132109D03*
X112150Y122109D03*
Y132109D03*
X122150Y122109D03*
Y132109D03*
X132150Y122109D03*
Y132109D03*
X142150Y122109D03*
Y132109D03*
X152150Y122109D03*
Y132109D03*
X161550Y58509D03*
Y68509D03*
X162150Y122109D03*
Y132109D03*
X172150Y122109D03*
Y132109D03*
X182150Y122109D03*
Y132109D03*
D02*
D144*
X74250Y96259D03*
Y102759D03*
X77450Y96259D03*
Y102759D03*
X80650Y96259D03*
Y102759D03*
X83850Y96259D03*
Y102759D03*
X93750Y96259D03*
Y102759D03*
X96950Y96259D03*
Y102759D03*
X100150Y96259D03*
Y102759D03*
X103350Y96259D03*
Y102759D03*
X113650Y96259D03*
Y102759D03*
X116850Y96259D03*
Y102759D03*
X120050Y96259D03*
Y102759D03*
X123250Y96259D03*
Y102759D03*
X133750Y96259D03*
Y102759D03*
X136950Y96259D03*
Y102759D03*
X140150Y96259D03*
Y102759D03*
X143350Y96259D03*
Y102759D03*
X152250Y96259D03*
Y102759D03*
X155450Y96259D03*
Y102759D03*
X158650Y96259D03*
Y102759D03*
X161850Y96259D03*
Y102759D03*
D02*
D145*
X70750Y52509D02*
Y46409D01*
X78350Y38809*
X83050*
Y52209D02*
X71050D01*
X70850Y52409*
X87750Y60409D02*
Y60509D01*
X86250Y62009*
X78750*
X74350Y57609*
X75350*
Y57409*
X132250Y50509D02*
X132450Y50309D01*
Y50209*
X133550Y22009D02*
Y18709D01*
X132850Y18009*
X133550Y26009D02*
X133250D01*
Y31895*
X133550Y26009D02*
Y22009D01*
X137450D02*
Y26009D01*
X140050Y57409D02*
X135250D01*
X132250Y54409*
Y50509*
X140054Y57509D02*
X147750D01*
X151350Y53609D02*
X147750D01*
X151350Y57509D02*
X147750D01*
D02*
D146*
X70850Y45909D02*
Y49209D01*
X70750*
Y52509*
X70850Y45909D02*
Y52409D01*
Y52909*
X75350Y57409*
X0Y0D02*
M02*
