%FSLAX25Y25*%
%MOIN*%
G04 EasyPC Gerber Version 18.0.8 Build 3632 *
%ADD147R,0.01781X0.05324*%
%ADD150R,0.02200X0.04100*%
%ADD13R,0.03000X0.03000*%
%ADD14R,0.04540X0.04930*%
%ADD20R,0.06600X0.06600*%
%ADD149R,0.06900X0.06900*%
%ADD148R,0.05324X0.01781*%
%ADD11R,0.03000X0.03000*%
%AMT21*0 Rectangle Pad at angle 45*21,1,0.06600,0.06600,0,0,45*%
%ADD21T21*%
X0Y0D02*
D02*
D11*
X83050Y38809D03*
Y52209D03*
X86950Y38809D03*
Y52209D03*
X133550Y22009D03*
Y26009D03*
X137450Y22009D03*
Y26009D03*
D02*
D13*
X87750Y56509D03*
Y60409D03*
X147550Y68109D03*
Y72009D03*
X147750Y53609D03*
Y57509D03*
X151250Y68209D03*
Y72109D03*
X151350Y53609D03*
Y57509D03*
D02*
D14*
X75350Y57409D03*
X82350D03*
D02*
D20*
X62150Y122109D03*
Y132109D03*
X72150Y122109D03*
Y132109D03*
X82150Y122109D03*
Y132109D03*
X92150Y122109D03*
Y132109D03*
X102150Y122109D03*
Y132109D03*
X112150Y122109D03*
Y132109D03*
X122150Y122109D03*
Y132109D03*
X132150Y122109D03*
Y132109D03*
X142150Y122109D03*
Y132109D03*
X152150Y122109D03*
Y132109D03*
X161550Y58509D03*
Y68509D03*
X162150Y122109D03*
Y132109D03*
X172150Y122109D03*
Y132109D03*
X182150Y122109D03*
Y132109D03*
D02*
D21*
X30001Y60457D03*
X37072Y53386D03*
X44143Y46315D03*
X51215Y39244D03*
X58285Y32173D03*
X65357Y25102D03*
X72428Y18031D03*
X79499Y10960D03*
D02*
D147*
X102850Y33068D03*
Y77949D03*
X104818Y33068D03*
Y77949D03*
X106787Y33068D03*
Y77949D03*
X108755Y33068D03*
Y77949D03*
X110724Y33068D03*
Y77949D03*
X112692Y33068D03*
Y77949D03*
X114661Y33068D03*
Y77949D03*
X116629Y33068D03*
Y77949D03*
X118598Y33068D03*
Y77949D03*
X120566Y33068D03*
Y77949D03*
X122535Y33068D03*
Y77949D03*
X124503Y33068D03*
Y77949D03*
X126472Y33068D03*
Y77949D03*
X128440Y33068D03*
Y77949D03*
X130409Y33068D03*
Y77949D03*
X132377Y33068D03*
Y77949D03*
D02*
D148*
X95173Y40745D03*
Y42713D03*
Y44682D03*
Y46650D03*
Y48619D03*
Y50587D03*
Y52556D03*
Y54524D03*
Y56493D03*
Y58461D03*
Y60430D03*
Y62398D03*
Y64367D03*
Y66335D03*
Y68304D03*
Y70272D03*
X140054Y40745D03*
Y42713D03*
Y44682D03*
Y46650D03*
Y48619D03*
Y50587D03*
Y52556D03*
Y54524D03*
Y56493D03*
Y58461D03*
Y60430D03*
Y62398D03*
Y64367D03*
Y66335D03*
Y68304D03*
Y70272D03*
D02*
D149*
X70850Y45909D03*
X84250D03*
D02*
D150*
X74250Y96259D03*
Y102759D03*
X77450Y96259D03*
Y102759D03*
X80650Y96259D03*
Y102759D03*
X83850Y96259D03*
Y102759D03*
X93750Y96259D03*
Y102759D03*
X96950Y96259D03*
Y102759D03*
X100150Y96259D03*
Y102759D03*
X103350Y96259D03*
Y102759D03*
X113650Y96259D03*
Y102759D03*
X116850Y96259D03*
Y102759D03*
X120050Y96259D03*
Y102759D03*
X123250Y96259D03*
Y102759D03*
X133750Y96259D03*
Y102759D03*
X136950Y96259D03*
Y102759D03*
X140150Y96259D03*
Y102759D03*
X143350Y96259D03*
Y102759D03*
X152250Y96259D03*
Y102759D03*
X155450Y96259D03*
Y102759D03*
X158650Y96259D03*
Y102759D03*
X161850Y96259D03*
Y102759D03*
X0Y0D02*
M02*
