%FSLAX25Y25*%
%MOIN*%
G04 EasyPC Gerber Version 18.0.8 Build 3632 *
%ADD12R,0.06000X0.06000*%
%ADD10C,0.00500*%
%ADD11C,0.01000*%
%AMT13*0 Rectangle Pad at angle 45*21,1,0.06000,0.06000,0,0,45*%
%ADD13T13*%
%ADD14C,0.03200*%
X0Y0D02*
D02*
D10*
X11218Y93041D02*
X2950Y84773D01*
Y72044*
X72185Y2809*
X170215*
X239550Y72144*
Y84873*
X226885Y97538*
X161850Y32309*
X71950*
X11218Y93041*
X23991Y60457D02*
X30001Y66468D01*
X36011Y60457*
X30001Y54447*
X23991Y60457*
X31062Y53386D02*
X37072Y59396D01*
X43083Y53386*
X37072Y47376*
X31062Y53386*
X38133Y46315D02*
X44143Y52326D01*
X50154Y46315*
X44143Y40305*
X38133Y46315*
X45204Y39244D02*
X51215Y45254D01*
X57225Y39244*
X51215Y33234*
X45204Y39244*
X52275Y32173D02*
X58285Y38183D01*
X64296Y32173*
X58285Y26163*
X52275Y32173*
X59346Y25102D02*
X65357Y31112D01*
X71367Y25102*
X65357Y19092*
X59346Y25102*
X66417Y18031D02*
X72428Y24041D01*
X78438Y18031*
X72428Y12021*
X66417Y18031*
X73489Y10960D02*
X79499Y16970D01*
X85509Y10960*
X79499Y4950*
X73489Y10960*
X93200Y27209D02*
G75*
G02X88100I-2550D01*
G01*
G75*
G02X93200I2550*
G01*
X93400Y15409D02*
G75*
G02X88300I-2550D01*
G01*
G75*
G02X93400I2550*
G01*
X115100Y18109D02*
G75*
G02X110000I-2550D01*
G01*
G75*
G02X115100I2550*
G01*
X120600Y14109D02*
G75*
G02X115500I-2550D01*
G01*
G75*
G02X120600I2550*
G01*
X122200Y25309D02*
G75*
G02X117100I-2550D01*
G01*
G75*
G02X122200I2550*
G01*
X152900Y26109D02*
G75*
G02X147800I-2550D01*
G01*
G75*
G02X152900I2550*
G01*
X14537Y60457D02*
G36*
X21608Y53386D01*
X31062*
X37072Y59396*
X43083Y53386*
X50872*
X43801Y60457*
X36011*
X30001Y54447*
X23991Y60457*
X14537*
G37*
X23991D02*
G36*
X30001Y66468D01*
X36011Y60457*
X43801*
X11218Y93041*
X2950Y84773*
Y72044*
X14537Y60457*
X23991*
G37*
X21608Y53386D02*
G36*
X28679Y46315D01*
X38133*
X44143Y52326*
X50154Y46315*
X57943*
X50872Y53386*
X43083*
X37072Y47376*
X31062Y53386*
X21608*
G37*
X28679Y46315D02*
G36*
X35750Y39244D01*
X45204*
X51215Y45254*
X57225Y39244*
X65015*
X57943Y46315*
X50154*
X44143Y40305*
X38133Y46315*
X28679*
G37*
X35750Y39244D02*
G36*
X42821Y32173D01*
X52275*
X58285Y38183*
X64296Y32173*
X199579*
X239550Y72144*
Y84873*
X226885Y97538*
X161850Y32309*
X71950*
X65015Y39244*
X57225*
X51215Y33234*
X45204Y39244*
X35750*
G37*
X42821Y32173D02*
G36*
X49892Y25102D01*
X59346*
X65357Y31112*
X71367Y25102*
X89213*
G75*
G02X88100Y27209I1437J2107*
G01*
G75*
G02X93200I2550*
G01*
G75*
G02X92087Y25102I-2550*
G01*
X117108*
G75*
G02X117100Y25309I2541J205*
G01*
G75*
G02X122200I2550*
G01*
G75*
G02X122192Y25102I-2550J-2*
G01*
X148007*
G75*
G02X147800Y26109I2343J1007*
G01*
G75*
G02X152900I2550*
G01*
G75*
G02X152693Y25102I-2550*
G01*
X192508*
X199579Y32173*
X64296*
X58285Y26163*
X52275Y32173*
X42821*
G37*
X49892Y25102D02*
G36*
X56963Y18031D01*
X66417*
X72428Y24041*
X78438Y18031*
X110001*
G75*
G02X110000Y18109I2549J78*
G01*
G75*
G02X115100I2550*
G01*
G75*
G02X115099Y18031I-2551*
G01*
X185437*
X192508Y25102*
X152693*
G75*
G02X148007I-2343J1007*
G01*
X122192*
G75*
G02X117108I-2542J207*
G01*
X92087*
G75*
G02X89213I-1437J2107*
G01*
X71367*
X65357Y19092*
X59346Y25102*
X49892*
G37*
X56963Y18031D02*
G36*
X59585Y15409D01*
X69040*
X66417Y18031*
X56963*
G37*
X78438Y18031D02*
G36*
X75815Y15409D01*
X77937*
X79499Y16970*
X81060Y15409*
X88300*
G75*
G02X93400I2550*
G01*
X115856*
G75*
G02X120244I2194J-1300*
G01*
X182815*
X185437Y18031*
X115099*
G75*
G02X110001I-2549J78*
G01*
X78438*
G37*
X64034Y10960D02*
G36*
X72185Y2809D01*
X170215*
X178366Y10960*
X85509*
X79499Y4950*
X73489Y10960*
X64034*
G37*
X73489D02*
G36*
X77937Y15409D01*
X75815*
X72428Y12021*
X69040Y15409*
X59585*
X64034Y10960*
X73489*
G37*
X178366D02*
G36*
X182815Y15409D01*
X120244*
G75*
G02X120600Y14109I-2194J-1300*
G01*
G75*
G02X115500I-2550*
G01*
G75*
G02X115856Y15409I2550*
G01*
X93400*
G75*
G02X88300I-2550*
G01*
X81060*
X85509Y10960*
X178366*
G37*
X12368Y94191D02*
X72650Y33909D01*
X131150*
X131250Y34009*
Y45309*
X134050Y48109*
X138650*
X139650Y49109*
Y53509*
G75*
G03X134350Y58809I-5300*
G01*
X101050*
G75*
G02X94450Y65409J6600*
G01*
Y78109*
X85650Y78209*
X75750*
X64850Y89109*
Y98609*
X64956Y117858*
X57898*
Y126358*
X65002*
X65010Y127858*
X57898*
Y135109*
X53285*
X12368Y94191*
X103600Y42509D02*
G75*
G02X98500I-2550D01*
G01*
G75*
G02X103600I2550*
G01*
X127400Y52409D02*
G75*
G02X122300I-2550D01*
G01*
G75*
G02X127400I2550*
G01*
X64050Y42509D02*
G36*
X72650Y33909D01*
X131150*
X131250Y34009*
Y42509*
X103600*
G75*
G02X98500I-2550*
G01*
X64050*
G37*
X98500D02*
G36*
G75*
G02X103600I2550D01*
G01*
X131250*
Y45309*
X134050Y48109*
X138650*
X139650Y49109*
Y52409*
X127400*
G75*
G02X122300I-2550*
G01*
X54150*
X64050Y42509*
X98500*
G37*
X122300Y52409D02*
G36*
G75*
G02X127400I2550D01*
G01*
X139650*
Y53509*
G75*
G03X134350Y58809I-5300*
G01*
X101050*
G75*
G02X94450Y65409J6600*
G01*
Y78109*
X85650Y78209*
X75750*
X64850Y89109*
Y98609*
X64956Y117858*
X57898*
Y126358*
X65002*
X65010Y127858*
X57898*
Y135109*
X53285*
X12368Y94191*
X54150Y52409*
X122300*
G37*
X55385Y137209D02*
X67350D01*
Y89009*
X76650Y79709*
X157350*
X177550Y99909*
X177450Y136709*
X187715*
X170315Y154109*
X72285*
X55385Y137209*
X74202Y90405D02*
G75*
G02X74200Y90509I2550J100D01*
G01*
G75*
G02X79300I2550*
G01*
G75*
G02X79189Y89765I-2550J0*
G01*
G75*
G02X83100Y87609I1361J-2157*
G01*
G75*
G02X78000I-2550*
G01*
G75*
G02X78111Y88352I2549J0*
G01*
G75*
G02X75298Y88413I-1361J2156*
G01*
G75*
G02X75300Y88309I-2550J-100*
G01*
G75*
G02X70200I-2550*
G01*
G75*
G02X74202Y90405I2550*
G01*
X76398Y126358D02*
Y117858D01*
X67898*
Y126358*
X76398*
Y136358D02*
Y127858D01*
X67898*
Y136358*
X76398*
X86398Y126358D02*
Y117858D01*
X77898*
Y126358*
X86398*
Y136358D02*
Y127858D01*
X77898*
Y136358*
X86398*
X87700Y90309D02*
G75*
G02X82600I-2550D01*
G01*
G75*
G02X87700I2550*
G01*
X95001Y90433D02*
G75*
G02X95000Y90509I2547J78D01*
G01*
G75*
G02X100100I2550*
G01*
G75*
G02X95999Y88485I-2550*
G01*
G75*
G02X96000Y88409I-2548J-78*
G01*
G75*
G02X90900I-2550*
G01*
G75*
G02X95001Y90433I2550*
G01*
X96398Y126358D02*
Y117858D01*
X87898*
Y126358*
X96398*
Y136358D02*
Y127858D01*
X87898*
Y136358*
X96398*
X105300Y92152D02*
G75*
G02X110400Y92109I2550J-43D01*
G01*
G75*
G02X105900Y90466I-2550*
G01*
G75*
G02X100800Y90509I-2550J43*
G01*
G75*
G02X105300Y92152I2550*
G01*
X106398Y126358D02*
Y117858D01*
X97898*
Y126358*
X106398*
Y136358D02*
Y127858D01*
X97898*
Y136358*
X106398*
X114109Y91497D02*
G75*
G02X114100Y91709I2539J210D01*
G01*
G75*
G02X119200I2550*
G01*
G75*
G02X119199Y91646I-2549J0*
G01*
G75*
G02X121110Y91480I751J-2437*
G01*
G75*
G02X121100Y91709I2538J228*
G01*
G75*
G02X126200I2550*
G01*
G75*
G02X122490Y89438I-2550*
G01*
G75*
G02X122500Y89209I-2538J-228*
G01*
G75*
G02X117400I-2550*
G01*
G75*
G02X117401Y89272I2547J0*
G01*
G75*
G02X116091Y89220I-751J2437*
G01*
G75*
G02X116100Y89009I-2539J-210*
G01*
G75*
G02X111000I-2550*
G01*
G75*
G02X114109Y91497I2550*
G01*
X116398Y126358D02*
Y117858D01*
X107898*
Y126358*
X116398*
Y136358D02*
Y127858D01*
X107898*
Y136358*
X116398*
X126398Y126358D02*
Y117858D01*
X117898*
Y126358*
X126398*
Y136358D02*
Y127858D01*
X117898*
Y136358*
X126398*
X132600Y93109D02*
G75*
G02X127500I-2550D01*
G01*
G75*
G02X132600I2550*
G01*
X136398Y126358D02*
Y117858D01*
X127898*
Y126358*
X136398*
Y136358D02*
Y127858D01*
X127898*
Y136358*
X136398*
X137700Y91009D02*
G75*
G02X132600I-2550D01*
G01*
G75*
G02X137700I2550*
G01*
X142700Y89509D02*
G75*
G02X137600I-2550D01*
G01*
G75*
G02X142700I2550*
G01*
X146398Y126358D02*
Y117858D01*
X137898*
Y126358*
X146398*
Y136358D02*
Y127858D01*
X137898*
Y136358*
X146398*
X147200Y92009D02*
G75*
G02X142100I-2550D01*
G01*
G75*
G02X147200I2550*
G01*
X151633Y89100D02*
G75*
G02X148000Y91409I-1083J2309D01*
G01*
G75*
G02X153067Y91817I2550*
G01*
G75*
G02X156700Y89509I1083J-2309*
G01*
G75*
G02X151633Y89100I-2550*
G01*
X156398Y126358D02*
Y117858D01*
X147898*
Y126358*
X156398*
Y136358D02*
Y127858D01*
X147898*
Y136358*
X156398*
X164600Y89609D02*
G75*
G02X159500I-2550D01*
G01*
G75*
G02X164600I2550*
G01*
X166398Y126358D02*
Y117858D01*
X157898*
Y126358*
X166398*
Y136358D02*
Y127858D01*
X157898*
Y136358*
X166398*
X176398Y126358D02*
Y117858D01*
X167898*
Y126358*
X176398*
Y136358D02*
Y127858D01*
X167898*
Y136358*
X176398*
X67350Y89059D02*
G36*
Y89009D01*
X76650Y79709*
X157350*
X166700Y89059*
X164540*
G75*
G02X159560I-2490J550*
G01*
X156660*
G75*
G02X151633Y89100I-2510J450*
G01*
G75*
G02X149560Y89059I-1083J2309*
G01*
X142660*
G75*
G02X137640I-2510J450*
G01*
X136793*
G75*
G02X133507I-1643J1950*
G01*
X122496*
G75*
G02X117401Y89209I-2545J150*
G01*
G75*
G02Y89272I2547J31*
G01*
G75*
G02X116091Y89220I-751J2437*
G01*
G75*
G02X116100Y89009I-2539J-210*
G01*
G75*
G02X111000I-2550*
G01*
G75*
G02Y89059I2549J25*
G01*
X105448*
G75*
G02X101252I-2098J1450*
G01*
X99648*
G75*
G02X95999Y88485I-2098J1450*
G01*
G75*
G02X96000Y88409I-2548J-78*
G01*
G75*
G02X90900I-2550*
G01*
G75*
G02X90984Y89059I2550*
G01*
X87372*
G75*
G02X82928I-2222J1250*
G01*
X82648*
G75*
G02X83100Y87609I-2098J-1450*
G01*
G75*
G02X78000I-2550*
G01*
G75*
G02X78111Y88352I2549J0*
G01*
G75*
G02X75298Y88413I-1361J2156*
G01*
G75*
G02X75300Y88309I-2550J-100*
G01*
G75*
G02X70200I-2550*
G01*
G75*
G02X70313Y89059I2550J-1*
G01*
X67350*
G37*
X70313D02*
G36*
G75*
G02X74202Y90405I2437J-750D01*
G01*
G75*
G02X74200Y90509I2550J100*
G01*
G75*
G02X79300I2550*
G01*
G75*
G02X79189Y89765I-2550J0*
G01*
G75*
G02X82648Y89059I1361J-2157*
G01*
X82928*
G75*
G02X82600Y90309I2222J1250*
G01*
G75*
G02X87700I2550*
G01*
G75*
G02X87372Y89059I-2550J0*
G01*
X90984*
G75*
G02X95001Y90433I2466J-650*
G01*
G75*
G02X95000Y90509I2547J78*
G01*
G75*
G02X100100I2550*
G01*
G75*
G02X99648Y89059I-2550*
G01*
X101252*
G75*
G02X100800Y90509I2098J1450*
G01*
G75*
G02X105300Y92152I2550*
G01*
G75*
G02X105504Y93109I2550J-43*
G01*
X67350*
Y89059*
X70313*
G37*
X111000D02*
G36*
G75*
G02X114109Y91497I2550J-50D01*
G01*
G75*
G02X114100Y91709I2539J210*
G01*
G75*
G02X114519Y93109I2550J0*
G01*
X110196*
G75*
G02X110400Y92109I-2346J-1000*
G01*
G75*
G02X105900Y90466I-2550*
G01*
G75*
G02X105448Y89059I-2550J43*
G01*
X111000*
G37*
X133507D02*
G36*
G75*
G02X132600Y91009I1643J1950D01*
G01*
G75*
G02X133704Y93109I2550*
G01*
X132600*
G75*
G02X127500I-2550*
G01*
X125781*
G75*
G02X126200Y91709I-2131J-1400*
G01*
G75*
G02X122490Y89438I-2550*
G01*
G75*
G02X122500Y89209I-2538J-228*
G01*
G75*
G02X122496Y89059I-2550J-2*
G01*
X133507*
G37*
X137640D02*
G36*
G75*
G02X137600Y89509I2510J451D01*
G01*
G75*
G02X142700I2550*
G01*
G75*
G02X142660Y89059I-2550J1*
G01*
X149560*
G75*
G02X148000Y91409I990J2350*
G01*
G75*
G02X148649Y93109I2550*
G01*
X146950*
G75*
G02X147200Y92009I-2300J-1100*
G01*
G75*
G02X142100I-2550*
G01*
G75*
G02X142350Y93109I2550J0*
G01*
X136596*
G75*
G02X137700Y91009I-1446J-2100*
G01*
G75*
G02X136793Y89059I-2550*
G01*
X137640*
G37*
X159560D02*
G36*
G75*
G02X159500Y89609I2490J549D01*
G01*
G75*
G02X164600I2550*
G01*
G75*
G02X164540Y89059I-2550J-1*
G01*
X166700*
X170750Y93109*
X152451*
G75*
G02X153067Y91817I-1901J-1700*
G01*
G75*
G02X156700Y89509I1083J-2309*
G01*
G75*
G02X156660Y89059I-2550J1*
G01*
X159560*
G37*
X67350Y122108D02*
G36*
Y93109D01*
X105504*
G75*
G02X110196I2346J-1000*
G01*
X114519*
G75*
G02X119199Y91709I2131J-1400*
G01*
G75*
G02Y91646I-2549J-31*
G01*
G75*
G02X121110Y91480I751J-2437*
G01*
G75*
G02X121100Y91709I2538J228*
G01*
G75*
G02X125781Y93109I2550*
G01*
X127500*
G75*
G02X132600I2550*
G01*
X133704*
G75*
G02X136596I1446J-2100*
G01*
X142350*
G75*
G02X146950I2300J-1100*
G01*
X148649*
G75*
G02X152451I1901J-1700*
G01*
X170750*
X177550Y99909*
X177490Y122108*
X176398*
Y117858*
X167898*
Y122108*
X166398*
Y117858*
X157898*
Y122108*
X156398*
Y117858*
X147898*
Y122108*
X146398*
Y117858*
X137898*
Y122108*
X136398*
Y117858*
X127898*
Y122108*
X126398*
Y117858*
X117898*
Y122108*
X116398*
Y117858*
X107898*
Y122108*
X106398*
Y117858*
X97898*
Y122108*
X96398*
Y117858*
X87898*
Y122108*
X86398*
Y117858*
X77898*
Y122108*
X76398*
Y117858*
X67898*
Y122108*
X67350*
G37*
X67898D02*
G36*
Y126358D01*
X76398*
Y122108*
X77898*
Y126358*
X86398*
Y122108*
X87898*
Y126358*
X96398*
Y122108*
X97898*
Y126358*
X106398*
Y122108*
X107898*
Y126358*
X116398*
Y122108*
X117898*
Y126358*
X126398*
Y122108*
X127898*
Y126358*
X136398*
Y122108*
X137898*
Y126358*
X146398*
Y122108*
X147898*
Y126358*
X156398*
Y122108*
X157898*
Y126358*
X166398*
Y122108*
X167898*
Y126358*
X176398*
Y122108*
X177490*
X177463Y132108*
X176398*
Y127858*
X167898*
Y132108*
X166398*
Y127858*
X157898*
Y132108*
X156398*
Y127858*
X147898*
Y132108*
X146398*
Y127858*
X137898*
Y132108*
X136398*
Y127858*
X127898*
Y132108*
X126398*
Y127858*
X117898*
Y132108*
X116398*
Y127858*
X107898*
Y132108*
X106398*
Y127858*
X97898*
Y132108*
X96398*
Y127858*
X87898*
Y132108*
X86398*
Y127858*
X77898*
Y132108*
X76398*
Y127858*
X67898*
Y132108*
X67350*
Y122108*
X67898*
G37*
Y132108D02*
G36*
Y136358D01*
X76398*
Y132108*
X77898*
Y136358*
X86398*
Y132108*
X87898*
Y136358*
X96398*
Y132108*
X97898*
Y136358*
X106398*
Y132108*
X107898*
Y136358*
X116398*
Y132108*
X117898*
Y136358*
X126398*
Y132108*
X127898*
Y136358*
X136398*
Y132108*
X137898*
Y136358*
X146398*
Y132108*
X147898*
Y136358*
X156398*
Y132108*
X157898*
Y136358*
X166398*
Y132108*
X167898*
Y136358*
X176398*
Y132108*
X177463*
X177450Y136709*
X187715*
X170315Y154109*
X72285*
X55385Y137209*
X67350*
Y132108*
X67898*
G37*
X179250Y117858D02*
Y98709D01*
X158450Y77909*
X96150*
Y66109*
G75*
G03X101550Y60709I5400*
G01*
X134750*
G75*
G02X141550Y53909J-6800*
G01*
Y34009*
X160950*
X225682Y98741*
X189415Y135009*
X186398*
Y127858*
X179250*
Y126358*
X186398*
Y117858*
X179250*
X137100Y71509D02*
G75*
G02X132000I-2550D01*
G01*
G75*
G02X137100I2550*
G01*
X165800Y54260D02*
X157300D01*
Y62760*
X165800*
Y54260*
Y64260D02*
X157300D01*
Y72760*
X165800*
Y64260*
X96150Y71509D02*
G36*
Y66109D01*
G75*
G03X101550Y60709I5400*
G01*
X134750*
G75*
G02X139757Y58510I0J-6800*
G01*
X157300*
Y62760*
X165800*
Y58510*
X185451*
X198450Y71509*
X165800*
Y64260*
X157300*
Y71509*
X137100*
G75*
G02X132000I-2550*
G01*
X96150*
G37*
X132000D02*
G36*
G75*
G02X137100I2550D01*
G01*
X157300*
Y72760*
X165800*
Y71509*
X198450*
X225682Y98741*
X189415Y135009*
X186398*
Y127858*
X179250*
Y126358*
X186398*
Y117858*
X179250*
Y98709*
X158450Y77909*
X96150*
Y71509*
X132000*
G37*
X139757Y58510D02*
G36*
G75*
G02X141550Y53909I-5007J-4601D01*
G01*
Y34009*
X160950*
X185451Y58510*
X165800*
Y54260*
X157300*
Y58510*
X139757*
G37*
D02*
D11*
X26259Y60457D02*
X23637D01*
X30001Y56715D02*
Y54094D01*
Y64200D02*
Y66821D01*
X33744Y60457D02*
X36365D01*
X59650Y122109D02*
X57650D01*
X59650Y132109D02*
X57650D01*
X62150Y119609D02*
Y117609D01*
Y124609D02*
Y126609D01*
Y129609D02*
Y127609D01*
X69350Y98809D02*
Y96809D01*
Y101009D02*
Y103009D01*
X69650Y52509D02*
X67650D01*
X70450Y99909D02*
X72450D01*
X70750Y51409D02*
Y49409D01*
Y53609D02*
Y55609D01*
X71850Y52509D02*
X73850D01*
X99550Y64509D02*
X97550D01*
X100550Y25509D02*
X98550D01*
X100650Y63409D02*
Y61409D01*
Y65609D02*
Y67609D01*
X101650Y24409D02*
Y22409D01*
Y26609D02*
Y28609D01*
X101750Y64509D02*
X103750D01*
X102750Y25509D02*
X104750D01*
X107887Y54309D02*
X105887D01*
X108987Y53209D02*
Y51209D01*
Y55409D02*
Y57409D01*
X110087Y54309D02*
X112087D01*
X127050Y62309D02*
X125050D01*
X128150Y63409D02*
Y65409D01*
X129250Y62309D02*
X131250D01*
X131350Y50209D02*
X129350D01*
X131750Y18009D02*
X129750D01*
X132450Y49109D02*
Y47109D01*
Y51309D02*
Y53309D01*
X132850Y16909D02*
Y14909D01*
Y19109D02*
Y21109D01*
X133550Y50209D02*
X135550D01*
X133950Y18009D02*
X135950D01*
X146150Y49109D02*
X144150D01*
X147250Y48009D02*
Y46009D01*
Y50209D02*
Y52209D01*
X148350Y49109D02*
X150350D01*
X166350Y98909D02*
X164350D01*
X167450Y97809D02*
Y95809D01*
Y100009D02*
Y102009D01*
X168550Y98909D02*
X170550D01*
X169650Y122109D02*
X167650D01*
X169650Y132109D02*
X167650D01*
X172150Y119609D02*
Y117609D01*
Y124609D02*
Y126609D01*
Y129609D02*
Y127609D01*
Y134609D02*
Y136609D01*
X174650Y122109D02*
X176650D01*
X174650Y132109D02*
X176650D01*
X182150Y119609D02*
Y117609D01*
Y124609D02*
Y126609D01*
Y129609D02*
Y127609D01*
X184650Y122109D02*
X186650D01*
X184650Y132109D02*
X186650D01*
D02*
D12*
X62150Y122109D03*
Y132109D03*
X72150Y122109D03*
Y132109D03*
X82150Y122109D03*
Y132109D03*
X92150Y122109D03*
Y132109D03*
X102150Y122109D03*
Y132109D03*
X112150Y122109D03*
Y132109D03*
X122150Y122109D03*
Y132109D03*
X132150Y122109D03*
Y132109D03*
X142150Y122109D03*
Y132109D03*
X152150Y122109D03*
Y132109D03*
X161550Y58509D03*
Y68509D03*
X162150Y122109D03*
Y132109D03*
X172150Y122109D03*
Y132109D03*
X182150Y122109D03*
Y132109D03*
D02*
D13*
X30001Y60457D03*
X37072Y53386D03*
X44143Y46315D03*
X51215Y39244D03*
X58285Y32173D03*
X65357Y25102D03*
X72428Y18031D03*
X79499Y10960D03*
D02*
D14*
X69350Y99909D03*
X70750Y52509D03*
X72750Y88309D03*
X76750Y90509D03*
X80550Y87609D03*
X85150Y90309D03*
X90650Y27209D03*
X90850Y15409D03*
X93450Y88409D03*
X97550Y90509D03*
X100650Y64509D03*
X101050Y42509D03*
X101650Y25509D03*
X103350Y90509D03*
X107850Y92109D03*
X108987Y54309D03*
X112550Y18109D03*
X113550Y89009D03*
X116650Y91709D03*
X118050Y14109D03*
X119650Y25309D03*
X119950Y89209D03*
X123650Y91709D03*
X124850Y52409D03*
X128150Y62309D03*
X130050Y93109D03*
X132450Y50209D03*
X132850Y18009D03*
X134550Y71509D03*
X135150Y91009D03*
X140150Y89509D03*
X144650Y92009D03*
X147250Y49109D03*
X150350Y26109D03*
X150550Y91409D03*
X154150Y89509D03*
X162050Y89609D03*
X167450Y98909D03*
X0Y0D02*
M02*
