G04 EasyPC Gerber Version 20.0.2 Build 4112 *
G04 #@! TF.Part,Single*
G04 #@! TF.FileFunction,Legend,Bot *
%FSLAX24Y24*%
%MOIN*%
%ADD12C,0.00300*%
%ADD10C,0.00500*%
%ADD13C,0.00600*%
X0Y0D02*
D02*
D10*
X8402Y7722D02*
X7536D01*
Y8352*
X8402*
Y7722*
X10770Y2005D02*
X10538Y1773D01*
X10471*
X10405Y1840*
Y1906*
X10504Y2005*
X10405Y1906D02*
X10339Y1906D01*
X10272Y1972*
Y2039*
X10504Y2271*
X10239Y2536D02*
X10007Y2304D01*
X9941*
X9875Y2370*
Y2436*
X9974Y2536*
X9875Y2436D02*
X9808D01*
X9742Y2503*
Y2569*
X9974Y2801*
X9709Y3066D02*
X9477Y2834D01*
X9411*
X9344Y2900*
Y2967*
X9444Y3066*
X9344Y2967D02*
X9278Y2967D01*
X9212Y3033*
Y3099*
X9444Y3331*
X8880Y3364D02*
X8880Y3431D01*
X8947*
X8947Y3364*
X8880*
X8483Y3961D02*
X8383Y3928D01*
X8284Y3961*
X8217Y4027*
X8184Y4127*
X8217Y4226*
X8284Y4293*
X8383Y4326*
X8483Y4293*
X8549Y4226*
X8582Y4127*
X8549Y4027*
X8483Y3961*
X8118Y4657D02*
X7753Y4293D01*
X7952Y4491D02*
X7853Y4458D01*
X7753Y4491*
X7687Y4558*
X7654Y4657*
X7687Y4757*
X7753Y4823*
X7853Y4856*
X7952Y4823*
X8019Y4757*
X8052Y4657*
X8019Y4558*
X7952Y4491*
X7090Y5221D02*
Y5154D01*
X7157Y5088*
X7223Y5022*
X7322Y4989*
X7422Y5022*
X7521Y5121*
X7521Y5187*
X7488Y5287*
X7422Y5353*
X7322Y5386*
X7256Y5386*
X7223Y5353*
Y5287*
X7256Y5187*
X7322Y5121*
X7422Y5088*
X7488*
X6792Y5453D02*
X7057Y5718D01*
X6958Y5618D02*
X6991Y5718D01*
X6958Y5817*
X6892Y5884*
X6792Y5917*
X6693Y5884*
X6527Y5718*
X6361Y6082D02*
X6262Y6049D01*
X6162Y6082*
X6096Y6149*
X6063Y6248*
X6096Y6348*
X6162Y6414*
X6262Y6447*
X6361Y6414*
X6428Y6348*
X6461Y6248*
X6428Y6149*
X6262Y5983D02*
X6660Y6381D01*
X5698Y7010D02*
X5798Y6977D01*
X5897Y6878*
X5930Y6778*
X5897Y6679*
X5831Y6613*
X5731Y6580*
X5632Y6613*
X5533Y6712*
X5499Y6812*
X5069Y7176D02*
X5334Y7441D01*
X5433Y7541D02*
X4638Y7607*
X4638Y7673D01*
X4704*
X4704Y7607*
X4638*
X4107Y8601D02*
X4207Y8568D01*
X4306Y8469*
X4339Y8369*
X4306Y8270*
X4240Y8204*
X4140Y8171*
X4041Y8204*
X3942Y8303*
X3908Y8403*
X3710Y8734D02*
X3610Y8701D01*
X3511Y8734*
X3444Y8800*
X3411Y8900*
X3444Y8999*
X3511Y9065*
X3610Y9099*
X3710Y9065*
X3776Y8999*
X3809Y8900*
X3776Y8800*
X3710Y8734*
X3080Y9165D02*
X3345Y9430D01*
X3312Y9397D02*
Y9463D01*
X3246Y9530*
X3179*
X3080Y9430*
X3179Y9530D02*
X3179Y9596D01*
X3113Y9662*
X3047*
X2815Y9430*
X10492Y7722D02*
X9626D01*
Y8352*
X10492*
Y7722*
X11455Y6371D02*
X11135D01*
Y5661*
X11455*
Y6371*
X11835D02*
X11515D01*
Y5661*
X11835*
Y6371*
X12205Y4841D02*
Y5161D01*
X11495*
Y4841*
X12205*
Y5221D02*
Y5541D01*
X11495*
Y5221*
X12205*
X12215Y6371D02*
X11895D01*
Y5661*
X12215*
Y6371*
X12242Y7722D02*
X11376D01*
Y8352*
X12242*
Y7722*
X12595Y6371D02*
X12275D01*
Y5661*
X12595*
Y6371*
X13385Y5281D02*
Y5601D01*
X12675*
Y5281*
X13385*
Y5661D02*
Y5981D01*
X12675*
Y5661*
X13385*
X13992Y7722D02*
X13126D01*
Y8352*
X13992*
Y7722*
X15742D02*
X14876D01*
Y8352*
X15742*
Y7722*
X17145Y15661D02*
X7125D01*
X45Y8581*
Y7181*
X7115Y111*
X17125*
X24205Y7191*
Y8591*
X23805Y8991*
X17145Y15661*
D02*
D12*
X7965Y10267D02*
Y10492D01*
X7852*
X7815Y10473*
X7796Y10455*
X7777Y10417*
Y10342*
X7796Y10305*
X7815Y10286*
X7852Y10267*
X7965*
X7627D02*
X7552D01*
X7590D02*
Y10492D01*
X7627Y10455*
X8761Y8153D02*
X8780Y8172D01*
X8799Y8210*
Y8266*
X8780Y8303*
X8761Y8322*
X8724Y8341*
X8649*
X8611Y8322*
X8592Y8303*
X8574Y8266*
Y8210*
X8592Y8172*
X8611Y8153*
X8799Y8003D02*
Y7928D01*
Y7966D02*
X8574D01*
X8611Y8003*
X8799Y7703D02*
Y7628D01*
Y7666D02*
X8574D01*
X8611Y7703*
X9875Y10287D02*
Y10512D01*
X9762*
X9725Y10493*
X9706Y10475*
X9687Y10437*
Y10362*
X9706Y10325*
X9725Y10306*
X9762Y10287*
X9875*
X9425D02*
X9575D01*
X9444Y10418*
X9425Y10456*
X9444Y10493*
X9481Y10512*
X9537*
X9575Y10493*
X10841Y8183D02*
X10860Y8202D01*
X10879Y8240*
Y8296*
X10860Y8333*
X10841Y8352*
X10804Y8371*
X10729*
X10691Y8352*
X10672Y8333*
X10654Y8296*
Y8240*
X10672Y8202*
X10691Y8183*
X10879Y8033D02*
Y7958D01*
Y7996D02*
X10654D01*
X10691Y8033*
X10879Y7621D02*
Y7771D01*
X10747Y7640*
X10710Y7621*
X10672Y7640*
X10654Y7677*
Y7733*
X10672Y7771*
X11217Y5305D02*
X11236Y5286D01*
X11274Y5267*
X11330*
X11367Y5286*
X11386Y5305*
X11405Y5342*
Y5417*
X11386Y5455*
X11367Y5473*
X11330Y5492*
X11274*
X11236Y5473*
X11217Y5455*
X11067Y5267D02*
X10992D01*
X11030D02*
Y5492D01*
X11067Y5455*
X10805Y5323D02*
X10786Y5361D01*
X10749Y5380*
X10711*
X10674Y5361*
X10655Y5323*
X10674Y5286*
X10711Y5267*
X10749*
X10786Y5286*
X10805Y5323*
Y5380*
X10786Y5436*
X10749Y5473*
X10711Y5492*
X11321Y7043D02*
X11340Y7062D01*
X11359Y7100*
Y7156*
X11340Y7193*
X11321Y7212*
X11284Y7231*
X11209*
X11171Y7212*
X11152Y7193*
X11134Y7156*
Y7100*
X11152Y7062*
X11171Y7043*
X11359Y6893D02*
Y6818D01*
Y6856D02*
X11134D01*
X11171Y6893*
X11359Y6537D02*
X11134D01*
X11284Y6631*
Y6481*
X11247Y4945D02*
X11266Y4926D01*
X11304Y4907*
X11360*
X11397Y4926*
X11416Y4945*
X11435Y4982*
Y5057*
X11416Y5095*
X11397Y5113*
X11360Y5132*
X11304*
X11266Y5113*
X11247Y5095*
X11097Y4907D02*
X11022D01*
X11060D02*
Y5132D01*
X11097Y5095*
X10835Y4907D02*
X10685Y5132D01*
X10835*
X11731Y7033D02*
X11750Y7052D01*
X11769Y7090*
Y7146*
X11750Y7183*
X11731Y7202*
X11694Y7221*
X11619*
X11581Y7202*
X11562Y7183*
X11544Y7146*
Y7090*
X11562Y7052*
X11581Y7033*
X11769Y6883D02*
Y6808D01*
Y6846D02*
X11544D01*
X11581Y6883*
X11750Y6621D02*
X11769Y6583D01*
Y6527*
X11750Y6490*
X11712Y6471*
X11694*
X11656Y6490*
X11637Y6527*
Y6621*
X11544*
Y6471*
X11905Y10327D02*
Y10552D01*
X11792*
X11755Y10533*
X11736Y10515*
X11717Y10477*
Y10402*
X11736Y10365*
X11755Y10346*
X11792Y10327*
X11905*
X11586Y10346D02*
X11549Y10327D01*
X11511*
X11474Y10346*
X11455Y10383*
X11474Y10421*
X11511Y10440*
X11549*
X11511D02*
X11474Y10458D01*
X11455Y10496*
X11474Y10533*
X11511Y10552*
X11549*
X11586Y10533*
X12161Y7033D02*
X12180Y7052D01*
X12199Y7090*
Y7146*
X12180Y7183*
X12161Y7202*
X12124Y7221*
X12049*
X12011Y7202*
X11992Y7183*
X11974Y7146*
Y7090*
X11992Y7052*
X12011Y7033*
X12199Y6883D02*
Y6808D01*
Y6846D02*
X11974D01*
X12011Y6883*
X12086Y6565D02*
Y6527D01*
X12067Y6490*
X12030Y6471*
X11992Y6490*
X11974Y6527*
Y6565*
X11992Y6602*
X12030Y6621*
X12067Y6602*
X12086Y6565*
X12105Y6602*
X12142Y6621*
X12180Y6602*
X12199Y6565*
Y6527*
X12180Y6490*
X12142Y6471*
X12105Y6490*
X12086Y6527*
X12521Y8213D02*
X12540Y8232D01*
X12559Y8270*
Y8326*
X12540Y8363*
X12521Y8382*
X12484Y8401*
X12409*
X12371Y8382*
X12352Y8363*
X12334Y8326*
Y8270*
X12352Y8232*
X12371Y8213*
X12559Y8063D02*
Y7988D01*
Y8026D02*
X12334D01*
X12371Y8063*
X12540Y7782D02*
X12559Y7745D01*
Y7707*
X12540Y7670*
X12502Y7651*
X12465Y7670*
X12446Y7707*
Y7745*
Y7707D02*
X12427Y7670D01*
X12390Y7651*
X12352Y7670*
X12334Y7707*
Y7745*
X12352Y7782*
X12531Y7033D02*
X12550Y7052D01*
X12569Y7090*
Y7146*
X12550Y7183*
X12531Y7202*
X12494Y7221*
X12419*
X12381Y7202*
X12362Y7183*
X12344Y7146*
Y7090*
X12362Y7052*
X12381Y7033*
X12569Y6883D02*
Y6808D01*
Y6846D02*
X12344D01*
X12381Y6883*
X12569Y6565D02*
X12550Y6527D01*
X12512Y6490*
X12456Y6471*
X12400*
X12362Y6490*
X12344Y6527*
Y6565*
X12362Y6602*
X12400Y6621*
X12437Y6602*
X12456Y6565*
Y6527*
X12437Y6490*
X12400Y6471*
X13915Y10377D02*
Y10602D01*
X13802*
X13765Y10583*
X13746Y10565*
X13727Y10527*
Y10452*
X13746Y10415*
X13765Y10396*
X13802Y10377*
X13915*
X13521D02*
Y10602D01*
X13615Y10452*
X13465*
X14117Y5755D02*
X14136Y5736D01*
X14174Y5717*
X14230*
X14267Y5736*
X14286Y5755*
X14305Y5792*
Y5867*
X14286Y5905*
X14267Y5923*
X14230Y5942*
X14174*
X14136Y5923*
X14117Y5905*
X13855Y5717D02*
X14005D01*
X13874Y5848*
X13855Y5886*
X13874Y5923*
X13911Y5942*
X13967*
X14005Y5923*
X13667Y5717D02*
X13592D01*
X13630D02*
Y5942D01*
X13667Y5905*
X14127Y5365D02*
X14146Y5346D01*
X14184Y5327*
X14240*
X14277Y5346*
X14296Y5365*
X14315Y5402*
Y5477*
X14296Y5515*
X14277Y5533*
X14240Y5552*
X14184*
X14146Y5533*
X14127Y5515*
X13865Y5327D02*
X14015D01*
X13884Y5458*
X13865Y5496*
X13884Y5533*
X13921Y5552*
X13977*
X14015Y5533*
X13565Y5327D02*
X13715D01*
X13584Y5458*
X13565Y5496*
X13584Y5533*
X13621Y5552*
X13677*
X13715Y5533*
X14271Y8203D02*
X14290Y8222D01*
X14309Y8260*
Y8316*
X14290Y8353*
X14271Y8372*
X14234Y8391*
X14159*
X14121Y8372*
X14102Y8353*
X14084Y8316*
Y8260*
X14102Y8222*
X14121Y8203*
X14309Y7941D02*
Y8091D01*
X14177Y7960*
X14140Y7941*
X14102Y7960*
X14084Y7997*
Y8053*
X14102Y8091*
X14290Y7772D02*
X14309Y7735D01*
Y7697*
X14290Y7660*
X14252Y7641*
X14140*
X14102Y7660*
X14084Y7697*
Y7735*
X14102Y7772*
X14140Y7791*
X14252*
X14290Y7772*
X14102Y7660*
X15905Y10387D02*
Y10612D01*
X15792*
X15755Y10593*
X15736Y10575*
X15717Y10537*
Y10462*
X15736Y10425*
X15755Y10406*
X15792Y10387*
X15905*
X15605Y10406D02*
X15567Y10387D01*
X15511*
X15474Y10406*
X15455Y10443*
Y10462*
X15474Y10500*
X15511Y10518*
X15605*
Y10612*
X15455*
X16041Y8213D02*
X16060Y8232D01*
X16079Y8270*
Y8326*
X16060Y8363*
X16041Y8382*
X16004Y8401*
X15929*
X15891Y8382*
X15872Y8363*
X15854Y8326*
Y8270*
X15872Y8232*
X15891Y8213*
X16079Y7951D02*
Y8101D01*
X15947Y7970*
X15910Y7951*
X15872Y7970*
X15854Y8007*
Y8063*
X15872Y8101*
X16060Y7782D02*
X16079Y7745D01*
Y7707*
X16060Y7670*
X16022Y7651*
X15985Y7670*
X15966Y7707*
Y7745*
Y7707D02*
X15947Y7670D01*
X15910Y7651*
X15872Y7670*
X15854Y7707*
Y7745*
X15872Y7782*
X17965Y10417D02*
Y10642D01*
X17852*
X17815Y10623*
X17796Y10605*
X17777Y10567*
Y10492*
X17796Y10455*
X17815Y10436*
X17852Y10417*
X17965*
X17665Y10473D02*
X17646Y10511D01*
X17609Y10530*
X17571*
X17534Y10511*
X17515Y10473*
X17534Y10436*
X17571Y10417*
X17609*
X17646Y10436*
X17665Y10473*
Y10530*
X17646Y10586*
X17609Y10623*
X17571Y10642*
D02*
D13*
X7658Y11570D02*
X7847D01*
X7804Y11461D02*
X7787Y11455D01*
X7770Y11451*
X7753Y11450*
X7735Y11451*
X7718Y11455*
X7701Y11461*
X7847Y10684D02*
X7658D01*
X9598Y11590D02*
X9787D01*
X9744Y11481D02*
X9727Y11475D01*
X9710Y11471*
X9693Y11470*
X9675Y11471*
X9658Y11475*
X9641Y11481*
X9787Y10704D02*
X9598D01*
X11618Y11630D02*
X11807D01*
X11764Y11521D02*
X11747Y11515D01*
X11730Y11511*
X11713Y11510*
X11695Y11511*
X11678Y11515*
X11661Y11521*
X11807Y10744D02*
X11618D01*
X13598Y11650D02*
X13787D01*
X13744Y11541D02*
X13727Y11535D01*
X13710Y11531*
X13693Y11530*
X13675Y11531*
X13658Y11535*
X13641Y11541*
X13787Y10764D02*
X13598D01*
X15598Y11670D02*
X15787D01*
X15744Y11561D02*
X15727Y11555D01*
X15710Y11551*
X15693Y11550*
X15675Y11551*
X15658Y11555*
X15641Y11561*
X15787Y10784D02*
X15598D01*
X17618Y11690D02*
X17807D01*
X17764Y11581D02*
X17747Y11575D01*
X17730Y11571*
X17713Y11570*
X17695Y11571*
X17678Y11575*
X17661Y11581*
X17807Y10804D02*
X17618D01*
X0Y0D02*
M02*
