%FSLAX25Y25*%
%MOIN*%
G04 EasyPC Gerber Version 18.0.8 Build 3632 *
%ADD20C,0.00300*%
%ADD10C,0.00500*%
%ADD21C,0.00600*%
%ADD70C,0.00800*%
X0Y0D02*
D02*
D10*
X12798Y126627D02*
X12268Y126096D01*
X12445Y125920*
X12975Y125743*
X13329*
X13859Y125920*
X14213Y126273*
X14389Y126804*
Y127157*
X14213Y127687*
X13506Y128394*
X12975Y128571*
X12622*
X12091Y128394*
X11738Y128041*
X11561Y127511*
Y127157*
X11738Y126627*
X12091Y124152D02*
X9970Y126273D01*
X10324Y122384*
X8202Y124506*
X9263Y121324D02*
X7141Y123445D01*
X6081Y122384*
X5904Y121854*
Y121500*
X6081Y120970*
X6788Y120263*
X7318Y120086*
X7672*
X8202Y120263*
X9263Y121324*
X20615Y140089D02*
X46954Y113749D01*
X41651Y108446*
X15311Y134785*
X20615Y140089*
X24420Y121580D02*
X22298Y123702D01*
X21061Y122464*
X20884Y121934*
X21061Y121404*
X21591Y121227*
X22122Y121404*
X23359Y122641*
X22122Y121404D02*
X22652Y119813D01*
X21591Y118752D02*
X19470Y120873D01*
X17702Y119106*
X19117Y118398D02*
X20531Y119813D01*
X18763Y115924D02*
X16641Y118045D01*
X15404Y116807*
X15227Y116277*
X15404Y115747*
X15934Y115570*
X16465Y115747*
X17702Y116984*
X16465Y115747D02*
X16995Y114156D01*
X15404Y113625D02*
X15581Y113095D01*
X15404Y112565*
X14697Y111857*
X14167Y111681*
X13636Y111857*
X13459Y112388*
X13636Y112918*
X14343Y113625*
X14520Y114156*
X14343Y114686*
X13813Y114863*
X13283Y114686*
X12576Y113979*
X12399Y113448*
X12576Y112918*
X12222Y109383D02*
X10101Y111504D01*
X10985Y112388D02*
X9217Y110620D01*
X31520Y114480D02*
X29398Y116602D01*
X28161Y115364*
X27984Y114834*
X28161Y114304*
X28691Y114127*
X29222Y114304*
X30459Y115541*
X29222Y114304D02*
X29752Y112713D01*
X28691Y111652D02*
X26570Y113773D01*
X24802Y112006*
X26217Y111298D02*
X27631Y112713D01*
X25863Y108824D02*
X23741Y110945D01*
X22504Y109707*
X22327Y109177*
X22504Y108647*
X23034Y108470*
X23565Y108647*
X24802Y109884*
X23565Y108647D02*
X24095Y107056D01*
X23034Y105995D02*
X19145Y106348D01*
X20913Y108117D02*
X21267Y104227D01*
X38220Y107180D02*
X36098Y109302D01*
X34861Y108064*
X34684Y107534*
X34861Y107004*
X35391Y106827*
X35922Y107004*
X37159Y108241*
X35922Y107004D02*
X36452Y105413D01*
X35391Y104352D02*
X33270Y106473D01*
X31502Y104706*
X32917Y103998D02*
X34331Y105413D01*
X31679Y100640D02*
X29557Y102761D01*
X30441Y103645D02*
X28674Y101877D01*
X29734Y98695D02*
X25845Y99048D01*
X27613Y100817D02*
X27967Y96927D01*
X50893Y67056D02*
X51246Y66702D01*
Y65288*
X52660Y68824D02*
Y63874D01*
X54075Y70238D02*
Y62460D01*
X55489Y71652D02*
Y61046D01*
X56903Y70238D02*
Y59631D01*
X58105Y13174D02*
X13274Y58005D01*
X54287Y99017*
X99117Y54187*
X58105Y13174*
X58317Y68824D02*
Y58217D01*
X59731Y67410D02*
Y56803D01*
X61146Y65995D02*
Y55389D01*
X62560Y64581D02*
Y53975D01*
X63974Y63167D02*
Y52560D01*
X65388Y61753D02*
Y51146D01*
X66802Y60339D02*
Y49732D01*
X68217Y58924D02*
Y48318D01*
X69631Y57510D02*
Y46904D01*
X71045Y56096D02*
Y45489D01*
X72459Y54682D02*
Y44075D01*
X73874Y53267D02*
Y42661D01*
X75005Y40964D02*
X49973Y65995D01*
X55559Y71581*
X80591Y46550*
X75005Y40964*
X79530Y45489D02*
Y47611D01*
X78116Y49025*
Y44075*
X76702Y42661*
Y50439*
X75288Y51853*
Y41247*
X84125Y161859D02*
X75463D01*
Y168159*
X84125*
Y161859*
X89857Y25100D02*
X74300Y9543D01*
X68643Y15200*
X84200Y30757*
X89857Y25100*
X106196Y111096D02*
X103876Y108776D01*
X103213*
X102550Y109439*
Y110102*
X103544Y111096*
X102550Y110102D02*
X101887Y110102D01*
X101224Y110765*
Y111428*
X103544Y113748*
X100893Y116399D02*
X98573Y114079D01*
X97909*
X97247Y114742*
Y115405*
X98241Y116399*
X97247Y115405D02*
X96584D01*
X95921Y116068*
Y116731*
X98241Y119051*
X95589Y121703D02*
X93269Y119383D01*
X92606*
X91943Y120045*
Y120709*
X92937Y121703*
X91943Y120709D02*
X91281Y120708D01*
X90618Y121371*
Y122034*
X92938Y124354*
X86309Y125680D02*
Y126343D01*
X86640Y126674*
X83326Y130652D02*
X82331Y130321D01*
X81337Y130652*
X80674Y131315*
X80343Y132309*
X80674Y133304*
X81337Y133967*
X82331Y134298*
X83326Y133967*
X83989Y133304*
X84320Y132309*
X83989Y131315*
X83326Y130652*
X79680Y137613D02*
X76033Y133967D01*
X78022Y135955D02*
X77028Y135624D01*
X76033Y135955*
X75370Y136618*
X75039Y137613*
X75370Y138607*
X76033Y139270*
X77028Y139601*
X78022Y139270*
X78685Y138607*
X79017Y137613*
X78685Y136618*
X78022Y135955*
X69404Y143247D02*
Y142584D01*
X70067Y141921*
X70730Y141259*
X71724Y140927*
X72719Y141259*
X73713Y142253*
X73713Y142916*
X73382Y143910*
X72719Y144573*
X71724Y144904*
X71062Y144905*
X70730Y144573*
Y143910*
X71062Y142916*
X71724Y142253*
X72719Y141921*
X73382*
X66421Y145567D02*
X69073Y148219D01*
X68079Y147225D02*
X68410Y148219D01*
X68079Y149213*
X67416Y149876*
X66421Y150208*
X65427Y149876*
X63770Y148219*
X62112Y151865D02*
X61118Y151534D01*
X60124Y151865*
X59461Y152528*
X59130Y153522*
X59461Y154517*
X60124Y155180*
X61118Y155511*
X62112Y155180*
X62775Y154517*
X63107Y153522*
X62775Y152528*
X61118Y150871D02*
X65095Y154848D01*
X55483Y161146D02*
X56478Y160815D01*
X57472Y159820*
X57803Y158826*
X57472Y157831*
X56809Y157169*
X55815Y156837*
X54820Y157169*
X53826Y158163*
X53494Y159157*
X49185Y162804D02*
X51837Y165455D01*
X52831Y166450D02*
X44876Y167112*
X44877Y167775D01*
X45539*
X45540Y167112*
X44876*
X39573Y177056D02*
X40568Y176724D01*
X41562Y175730*
X41893Y174736*
X41562Y173741*
X40899Y173078*
X39905Y172747*
X38910Y173078*
X37916Y174073*
X37585Y175067*
X35596Y178382D02*
X34602Y178050D01*
X33607Y178382*
X32944Y179044*
X32613Y180039*
X32944Y181033*
X33607Y181696*
X34602Y182028*
X35596Y181696*
X36259Y181033*
X36590Y180039*
X36259Y179044*
X35596Y178382*
X29298Y182691D02*
X31950Y185342D01*
X31618Y185011D02*
Y185674D01*
X30956Y186337*
X30292*
X29298Y185342*
X30292Y186337D02*
X30293Y187000D01*
X29630Y187662*
X28967*
X26646Y185342*
X104525Y161859D02*
X95863D01*
Y168159*
X104525*
Y161859*
X114450Y149050D02*
X111250D01*
Y141950*
X114450*
Y149050*
X118250D02*
X115050D01*
Y141950*
X118250*
Y149050*
X121950Y133750D02*
Y136950D01*
X114850*
Y133750*
X121950*
Y137550D02*
Y140750D01*
X114850*
Y137550*
X121950*
X122050Y149050D02*
X118850D01*
Y141950*
X122050*
Y149050*
X122325Y161859D02*
X113663D01*
Y168159*
X122325*
Y161859*
X125850Y149050D02*
X122650D01*
Y141950*
X125850*
Y149050*
X132350Y94450D02*
Y91250D01*
X139450*
Y94450*
X132350*
X133750Y138150D02*
Y141350D01*
X126650*
Y138150*
X133750*
Y141950D02*
Y145150D01*
X126650*
Y141950*
X133750*
X136750Y1050D02*
X121750Y16050D01*
Y13050*
X133750Y1050*
X130750*
X121750Y10050*
Y7050*
X127750Y1050*
X124750*
X121750Y4050*
X139750Y1050D02*
X122750Y18050D01*
X139925Y161859D02*
X131263D01*
Y168159*
X139925*
Y161859*
X142750Y1050D02*
X125750Y18050D01*
X144750Y114950D02*
Y111750D01*
X151850*
Y114950*
X144750*
X145750Y1050D02*
X128750Y18050D01*
X148750Y1050D02*
X131750Y18050D01*
X151750Y1050D02*
X134750Y18050D01*
X154750Y1050D02*
X137750Y18050D01*
X154750Y101150D02*
X157950D01*
Y108250*
X154750*
Y101150*
X157750Y1050D02*
X140750Y18050D01*
X158725Y161859D02*
X150063D01*
Y168159*
X158725*
Y161859*
X159950Y111650D02*
Y114850D01*
X152850*
Y111650*
X159950*
X160750Y1050D02*
X143750Y18050D01*
X163750Y1050D02*
X146750Y18050D01*
X166750Y1050D02*
X149750Y18050D01*
X168300Y116500D02*
Y121800D01*
X156000*
Y116500*
X168300*
X169750Y1050D02*
X152750Y18050D01*
X170750Y1050D02*
X121750D01*
Y18050*
X170750*
Y1050*
X109750*
Y61050*
X170750*
Y1050*
Y3050D02*
X155750Y18050D01*
X170750Y6050D02*
X158750Y18050D01*
X170750Y9050D02*
X161750Y18050D01*
X170750Y12050D02*
X164750Y18050D01*
X170750Y15050D02*
X167750Y18050D01*
X171350Y241950D02*
X71150D01*
X350Y171150*
Y71250*
X71050Y550*
X171150*
X241950Y71350*
Y171250*
X237950Y175250*
X171350Y241950*
X183350Y166050D02*
X215850D01*
Y137050*
X183350*
Y166050*
X184950Y113250D02*
X181750D01*
Y106150*
X184950*
Y113250*
X188350Y77951D02*
Y74751D01*
X195450*
Y77951*
X188350*
X188450Y102750D02*
Y99550D01*
X195550*
Y102750*
X188450*
X194350Y124363D02*
X196850D01*
X195600Y125613D02*
Y123113D01*
X196900Y105500D02*
X202200D01*
Y117800*
X196900*
Y105500*
X197050Y114150D02*
X199550Y109150D01*
X202050Y114150*
X202350Y124363D02*
X204850D01*
X209681Y174225D02*
X208744Y173756D01*
X207806*
X206869Y174225*
X206400Y175163*
X206869Y176100*
X207806Y176569*
X208744*
X207806D02*
X206869Y177037D01*
X206400Y177975*
X206869Y178913*
X207806Y179381*
X208744*
X209681Y178913*
X202650Y179381D02*
X200306Y173756D01*
X197963Y179381*
X195150Y175631D02*
X191400D01*
X186713Y173756D02*
X184837D01*
X185775D02*
Y179381D01*
X186713Y178444*
X176400Y173756D02*
X180150D01*
X176869Y177037*
X176400Y177975*
X176869Y178913*
X177806Y179381*
X179213*
X180150Y178913*
X172650Y179381D02*
X170306Y173756D01*
X167963Y179381*
X217150Y113850D02*
X213950D01*
Y106750*
X217150*
Y113850*
X218450Y106750D02*
X221650D01*
Y113850*
X218450*
Y106750*
X238850Y139150D02*
Y101150D01*
X228450*
Y139150*
X238850*
X241950Y171250D02*
X171250Y241950D01*
X71150*
X350Y171150*
Y71250*
X71050Y550*
X171150*
X241950Y71350*
Y171250*
X244850Y122750D02*
Y117550D01*
X238850*
Y122750*
X244850*
D02*
D70*
X119300Y90200D02*
Y84900D01*
X131600*
Y90200*
X119300*
X132600Y71200D02*
X137900D01*
Y83500*
X132600*
Y71200*
X133950Y110750D02*
Y95750D01*
X153950*
Y110750*
X133950*
X138750Y68950D02*
X153750D01*
Y88950*
X138750*
Y68950*
X139858Y87215D02*
G75*
G02Y88109J447D01*
G01*
G75*
G02Y87215J-447*
G01*
X143800Y111700D02*
Y117000D01*
X131500*
Y111700*
X143800*
X152143Y109991D02*
G75*
G02X153036I447D01*
G01*
G75*
G02X152143I-447*
G01*
X152900Y90000D02*
Y95300D01*
X140600*
Y90000*
X152900*
X161450Y115250D02*
Y100250D01*
X181450*
Y115250*
X161450*
X179643Y114491D02*
G75*
G02X180536I447D01*
G01*
G75*
G02X179643I-447*
G01*
X186350Y78450D02*
X201350D01*
Y98450*
X186350*
Y78450*
X187109Y96643D02*
G75*
G02Y97536J447D01*
G01*
G75*
G02Y96643J-447*
G01*
D02*
D20*
X19156Y140487D02*
X17565Y142078D01*
X16637Y141150*
X16504Y140752*
X16637Y140354*
X17035Y140222*
X17433Y140354*
X18361Y141282*
X15444Y139956D02*
X17035Y138365D01*
X15709Y137039*
X13853Y135183D02*
X14913Y136244D01*
X13057*
X12660Y136377*
X12527Y136774*
X12660Y137172*
X13057Y137570*
X13455Y137703*
X79550Y188013D02*
Y190263D01*
X78425*
X78050Y190075*
X77863Y189887*
X77675Y189513*
Y188763*
X77863Y188387*
X78050Y188200*
X78425Y188013*
X79550*
X75050D02*
X76550D01*
X75237Y189325*
X75050Y189700*
X75237Y190075*
X75613Y190263*
X76175*
X76550Y190075*
X81475Y170587D02*
X81663Y170400D01*
X82037Y170213*
X82600*
X82975Y170400*
X83163Y170587*
X83350Y170963*
Y171713*
X83163Y172087*
X82975Y172275*
X82600Y172463*
X82037*
X81663Y172275*
X81475Y172087*
X80163Y170400D02*
X79787Y170213D01*
X79413*
X79037Y170400*
X78850Y170775*
X79037Y171150*
X79413Y171337*
X79787*
X79413D02*
X79037Y171525D01*
X78850Y171900*
X79037Y172275*
X79413Y172463*
X79787*
X80163Y172275*
X84161Y15287D02*
X84426D01*
X84824Y15420*
X85222Y15817*
X85354Y16215*
X85355Y16480*
X85222Y16878*
X84691Y17409*
X84294Y17541*
X84028*
X83631Y17409*
X83233Y17011*
X83100Y16613*
Y16348*
X82968Y13564D02*
X81377Y15155D01*
X83100Y14757*
X82040Y13696*
X97487Y58639D02*
Y58374D01*
X97620Y57976*
X98017Y57578*
X98415Y57446*
X98680Y57445*
X99078Y57578*
X99609Y58109*
X99741Y58506*
Y58772*
X99609Y59169*
X99211Y59567*
X98813Y59700*
X98548*
X96957D02*
X97487Y60230D01*
X97620Y60627*
Y60893*
X97487Y61291*
X97222Y61556*
X96824Y61688*
X96559*
X96161Y61556*
X95631Y61026*
X95498Y60627*
Y60362*
X95631Y59965*
X95896Y59700*
X96294Y59567*
X96559Y59567*
X96957Y59700*
X94305Y61291D02*
X95896Y62881D01*
X92979Y62617*
X94570Y64207*
X92184Y63412D02*
X93775Y65003D01*
X90858Y64738*
X92449Y66329*
X89797Y65798D02*
X89267Y66329D01*
X89532Y66063D02*
X91123Y67654D01*
X91123Y67124*
X98650Y188213D02*
Y190463D01*
X97525*
X97150Y190275*
X96963Y190087*
X96775Y189713*
Y188963*
X96963Y188587*
X97150Y188400*
X97525Y188213*
X98650*
X95463Y188400D02*
X95087Y188213D01*
X94713*
X94337Y188400*
X94150Y188775*
X94337Y189150*
X94713Y189337*
X95087*
X94713D02*
X94337Y189525D01*
X94150Y189900*
X94337Y190275*
X94713Y190463*
X95087*
X95463Y190275*
X101675Y170287D02*
X101863Y170100D01*
X102237Y169913*
X102800*
X103175Y170100*
X103363Y170287*
X103550Y170663*
Y171413*
X103363Y171787*
X103175Y171975*
X102800Y172163*
X102237*
X101863Y171975*
X101675Y171787*
X99987Y169913D02*
X99613Y170100D01*
X99237Y170475*
X99050Y171037*
Y171600*
X99237Y171975*
X99613Y172163*
X99987*
X100363Y171975*
X100550Y171600*
X100363Y171225*
X99987Y171037*
X99613*
X99237Y171225*
X99050Y171600*
X111875Y134787D02*
X112063Y134600D01*
X112437Y134413*
X113000*
X113375Y134600*
X113563Y134787*
X113750Y135163*
Y135913*
X113563Y136287*
X113375Y136475*
X113000Y136663*
X112437*
X112063Y136475*
X111875Y136287*
X109250Y134413D02*
X110750D01*
X109437Y135725*
X109250Y136100*
X109437Y136475*
X109813Y136663*
X110375*
X110750Y136475*
X107375Y134413D02*
X106625D01*
X107000D02*
Y136663D01*
X107375Y136287*
X112075Y138387D02*
X112263Y138200D01*
X112637Y138013*
X113200*
X113575Y138200*
X113763Y138387*
X113950Y138763*
Y139513*
X113763Y139887*
X113575Y140075*
X113200Y140263*
X112637*
X112263Y140075*
X112075Y139887*
X110575Y138013D02*
X109825D01*
X110200D02*
Y140263D01*
X110575Y139887*
X107387Y139137D02*
X107013D01*
X106637Y139325*
X106450Y139700*
X106637Y140075*
X107013Y140263*
X107387*
X107763Y140075*
X107950Y139700*
X107763Y139325*
X107387Y139137*
X107763Y138950*
X107950Y138575*
X107763Y138200*
X107387Y138013*
X107013*
X106637Y138200*
X106450Y138575*
X106637Y138950*
X107013Y139137*
X113313Y155775D02*
X113500Y155963D01*
X113687Y156337*
Y156900*
X113500Y157275*
X113313Y157463*
X112937Y157650*
X112187*
X111813Y157463*
X111625Y157275*
X111437Y156900*
Y156337*
X111625Y155963*
X111813Y155775*
X113687Y154275D02*
Y153525D01*
Y153900D02*
X111437D01*
X111813Y154275*
X113500Y151463D02*
X113687Y151087D01*
Y150713*
X113500Y150337*
X113125Y150150*
X112750Y150337*
X112563Y150713*
Y151087*
Y150713D02*
X112375Y150337D01*
X112000Y150150*
X111625Y150337*
X111437Y150713*
Y151087*
X111625Y151463*
X117213Y155675D02*
X117400Y155863D01*
X117587Y156237*
Y156800*
X117400Y157175*
X117213Y157363*
X116837Y157550*
X116087*
X115713Y157363*
X115525Y157175*
X115337Y156800*
Y156237*
X115525Y155863*
X115713Y155675*
X117587Y154175D02*
Y153425D01*
Y153800D02*
X115337D01*
X115713Y154175*
X117587Y151550D02*
X115337Y150050D01*
Y151550*
X116475Y86987D02*
X116663Y86800D01*
X117037Y86613*
X117600*
X117975Y86800*
X118163Y86987*
X118350Y87363*
Y88113*
X118163Y88487*
X117975Y88675*
X117600Y88863*
X117037*
X116663Y88675*
X116475Y88487*
X113850Y86613D02*
X115350D01*
X114037Y87925*
X113850Y88300*
X114037Y88675*
X114413Y88863*
X114975*
X115350Y88675*
X112350Y86800D02*
X111975Y86613D01*
X111413*
X111037Y86800*
X110850Y87175*
Y87363*
X111037Y87737*
X111413Y87925*
X112350*
Y88863*
X110850*
X118950Y188613D02*
Y190863D01*
X117825*
X117450Y190675*
X117263Y190487*
X117075Y190113*
Y189363*
X117263Y188987*
X117450Y188800*
X117825Y188613*
X118950*
X115013D02*
Y190863D01*
X115950Y189363*
X114450*
X119575Y170587D02*
X119763Y170400D01*
X120137Y170213*
X120700*
X121075Y170400*
X121263Y170587*
X121450Y170963*
Y171713*
X121263Y172087*
X121075Y172275*
X120700Y172463*
X120137*
X119763Y172275*
X119575Y172087*
X118075Y170213D02*
X117325D01*
X117700D02*
Y172463D01*
X118075Y172087*
X115075Y170213D02*
X114325D01*
X114700D02*
Y172463D01*
X115075Y172087*
X121513Y155675D02*
X121700Y155863D01*
X121887Y156237*
Y156800*
X121700Y157175*
X121513Y157363*
X121137Y157550*
X120387*
X120013Y157363*
X119825Y157175*
X119637Y156800*
Y156237*
X119825Y155863*
X120013Y155675*
X121887Y153050D02*
Y154550D01*
X120575Y153237*
X120200Y153050*
X119825Y153237*
X119637Y153613*
Y154175*
X119825Y154550*
X121887Y150050D02*
Y151550D01*
X120575Y150237*
X120200Y150050*
X119825Y150237*
X119637Y150613*
Y151175*
X119825Y151550*
X125213Y155675D02*
X125400Y155863D01*
X125587Y156237*
Y156800*
X125400Y157175*
X125213Y157363*
X124837Y157550*
X124087*
X123713Y157363*
X123525Y157175*
X123337Y156800*
Y156237*
X123525Y155863*
X123713Y155675*
X125587Y153050D02*
Y154550D01*
X124275Y153237*
X123900Y153050*
X123525Y153237*
X123337Y153613*
Y154175*
X123525Y154550*
X125587Y150613D02*
X123337D01*
X124837Y151550*
Y150050*
X127875Y113587D02*
X128063Y113400D01*
X128437Y113213*
X129000*
X129375Y113400*
X129563Y113587*
X129750Y113963*
Y114713*
X129563Y115087*
X129375Y115275*
X129000Y115463*
X128437*
X128063Y115275*
X127875Y115087*
X125250Y113213D02*
X126750D01*
X125437Y114525*
X125250Y114900*
X125437Y115275*
X125813Y115463*
X126375*
X126750Y115275*
X123187Y113213D02*
X122813Y113400D01*
X122437Y113775*
X122250Y114337*
Y114900*
X122437Y115275*
X122813Y115463*
X123187*
X123563Y115275*
X123750Y114900*
X123563Y114525*
X123187Y114337*
X122813*
X122437Y114525*
X122250Y114900*
X129675Y92387D02*
X129863Y92200D01*
X130237Y92013*
X130800*
X131175Y92200*
X131363Y92387*
X131550Y92763*
Y93513*
X131363Y93887*
X131175Y94075*
X130800Y94263*
X130237*
X129863Y94075*
X129675Y93887*
X128363Y92200D02*
X127987Y92013D01*
X127613*
X127237Y92200*
X127050Y92575*
X127237Y92950*
X127613Y93137*
X127987*
X127613D02*
X127237Y93325D01*
X127050Y93700*
X127237Y94075*
X127613Y94263*
X127987*
X128363Y94075*
X125363Y92200D02*
X124987Y92013D01*
X124613*
X124237Y92200*
X124050Y92575*
Y93700*
X124237Y94075*
X124613Y94263*
X124987*
X125363Y94075*
X125550Y93700*
Y92575*
X125363Y92200*
X124237Y94075*
X131013Y79275D02*
X131200Y79463D01*
X131387Y79837*
Y80400*
X131200Y80775*
X131013Y80963*
X130637Y81150*
X129887*
X129513Y80963*
X129325Y80775*
X129137Y80400*
Y79837*
X129325Y79463*
X129513Y79275*
X131200Y77963D02*
X131387Y77587D01*
Y77213*
X131200Y76837*
X130825Y76650*
X130450Y76837*
X130263Y77213*
Y77587*
Y77213D02*
X130075Y76837D01*
X129700Y76650*
X129325Y76837*
X129137Y77213*
Y77587*
X129325Y77963*
X131387Y74775D02*
Y74025D01*
Y74400D02*
X129137D01*
X129513Y74775*
X132737Y89150D02*
X134425D01*
X134800Y88963*
X134987Y88587*
Y87837*
X134800Y87463*
X134425Y87275*
X132737*
X134800Y85963D02*
X134987Y85587D01*
Y85213*
X134800Y84837*
X134425Y84650*
X134050Y84837*
X133863Y85213*
Y85587*
Y85213D02*
X133675Y84837D01*
X133300Y84650*
X132925Y84837*
X132737Y85213*
Y85587*
X132925Y85963*
X139050Y189113D02*
Y191363D01*
X137925*
X137550Y191175*
X137363Y190987*
X137175Y190613*
Y189863*
X137363Y189487*
X137550Y189300*
X137925Y189113*
X139050*
X136050Y189300D02*
X135675Y189113D01*
X135113*
X134737Y189300*
X134550Y189675*
Y189863*
X134737Y190237*
X135113Y190425*
X136050*
Y191363*
X134550*
X137275Y170587D02*
X137463Y170400D01*
X137837Y170213*
X138400*
X138775Y170400*
X138963Y170587*
X139150Y170963*
Y171713*
X138963Y172087*
X138775Y172275*
X138400Y172463*
X137837*
X137463Y172275*
X137275Y172087*
X134650Y170213D02*
X136150D01*
X134837Y171525*
X134650Y171900*
X134837Y172275*
X135213Y172463*
X135775*
X136150Y172275*
X133150Y170775D02*
X132963Y171150D01*
X132587Y171337*
X132213*
X131837Y171150*
X131650Y170775*
X131837Y170400*
X132213Y170213*
X132587*
X132963Y170400*
X133150Y170775*
Y171337*
X132963Y171900*
X132587Y172275*
X132213Y172463*
X141075Y142887D02*
X141263Y142700D01*
X141637Y142513*
X142200*
X142575Y142700*
X142763Y142887*
X142950Y143263*
Y144013*
X142763Y144387*
X142575Y144575*
X142200Y144763*
X141637*
X141263Y144575*
X141075Y144387*
X138450Y142513D02*
X139950D01*
X138637Y143825*
X138450Y144200*
X138637Y144575*
X139013Y144763*
X139575*
X139950Y144575*
X136950Y142513D02*
X135450Y144763D01*
X136950*
X141175Y138987D02*
X141363Y138800D01*
X141737Y138613*
X142300*
X142675Y138800*
X142863Y138987*
X143050Y139363*
Y140113*
X142863Y140487*
X142675Y140675*
X142300Y140863*
X141737*
X141363Y140675*
X141175Y140487*
X138550Y138613D02*
X140050D01*
X138737Y139925*
X138550Y140300*
X138737Y140675*
X139113Y140863*
X139675*
X140050Y140675*
X136487Y139737D02*
X136113D01*
X135737Y139925*
X135550Y140300*
X135737Y140675*
X136113Y140863*
X136487*
X136863Y140675*
X137050Y140300*
X136863Y139925*
X136487Y139737*
X136863Y139550*
X137050Y139175*
X136863Y138800*
X136487Y138613*
X136113*
X135737Y138800*
X135550Y139175*
X135737Y139550*
X136113Y139737*
X143875Y119287D02*
X144063Y119100D01*
X144437Y118913*
X145000*
X145375Y119100*
X145563Y119287*
X145750Y119663*
Y120413*
X145563Y120787*
X145375Y120975*
X145000Y121163*
X144437*
X144063Y120975*
X143875Y120787*
X142563Y119100D02*
X142187Y118913D01*
X141813*
X141437Y119100*
X141250Y119475*
X141437Y119850*
X141813Y120037*
X142187*
X141813D02*
X141437Y120225D01*
X141250Y120600*
X141437Y120975*
X141813Y121163*
X142187*
X142563Y120975*
X138250Y118913D02*
X139750D01*
X138437Y120225*
X138250Y120600*
X138437Y120975*
X138813Y121163*
X139375*
X139750Y120975*
X153275Y119287D02*
X153463Y119100D01*
X153837Y118913*
X154400*
X154775Y119100*
X154963Y119287*
X155150Y119663*
Y120413*
X154963Y120787*
X154775Y120975*
X154400Y121163*
X153837*
X153463Y120975*
X153275Y120787*
X151963Y119100D02*
X151587Y118913D01*
X151213*
X150837Y119100*
X150650Y119475*
X150837Y119850*
X151213Y120037*
X151587*
X151213D02*
X150837Y120225D01*
X150650Y120600*
X150837Y120975*
X151213Y121163*
X151587*
X151963Y120975*
X149150Y119100D02*
X148775Y118913D01*
X148213*
X147837Y119100*
X147650Y119475*
Y119663*
X147837Y120037*
X148213Y120225*
X149150*
Y121163*
X147650*
X156875Y170687D02*
X157063Y170500D01*
X157437Y170313*
X158000*
X158375Y170500*
X158563Y170687*
X158750Y171063*
Y171813*
X158563Y172187*
X158375Y172375*
X158000Y172563*
X157437*
X157063Y172375*
X156875Y172187*
X155563Y170500D02*
X155187Y170313D01*
X154813*
X154437Y170500*
X154250Y170875*
X154437Y171250*
X154813Y171437*
X155187*
X154813D02*
X154437Y171625D01*
X154250Y172000*
X154437Y172375*
X154813Y172563*
X155187*
X155563Y172375*
X151813Y170313D02*
Y172563D01*
X152750Y171063*
X151250*
X158950Y189213D02*
Y191463D01*
X157825*
X157450Y191275*
X157263Y191087*
X157075Y190713*
Y189963*
X157263Y189587*
X157450Y189400*
X157825Y189213*
X158950*
X155950Y189775D02*
X155763Y190150D01*
X155387Y190337*
X155013*
X154637Y190150*
X154450Y189775*
X154637Y189400*
X155013Y189213*
X155387*
X155763Y189400*
X155950Y189775*
Y190337*
X155763Y190900*
X155387Y191275*
X155013Y191463*
X159275Y92287D02*
X159463Y92100D01*
X159837Y91913*
X160400*
X160775Y92100*
X160963Y92287*
X161150Y92663*
Y93413*
X160963Y93787*
X160775Y93975*
X160400Y94163*
X159837*
X159463Y93975*
X159275Y93787*
X157963Y92100D02*
X157587Y91913D01*
X157213*
X156837Y92100*
X156650Y92475*
X156837Y92850*
X157213Y93037*
X157587*
X157213D02*
X156837Y93225D01*
X156650Y93600*
X156837Y93975*
X157213Y94163*
X157587*
X157963Y93975*
X154963Y92100D02*
X154587Y91913D01*
X154213*
X153837Y92100*
X153650Y92475*
X153837Y92850*
X154213Y93037*
X154587*
X154213D02*
X153837Y93225D01*
X153650Y93600*
X153837Y93975*
X154213Y94163*
X154587*
X154963Y93975*
X161350Y110863D02*
X160413Y108613D01*
X159475Y110863*
X158350Y108613D02*
Y110863D01*
X157037*
X156663Y110675*
X156475Y110300*
X156663Y109925*
X157037Y109737*
X158350*
X157037D02*
X156475Y108613D01*
X154975D02*
X154225D01*
X154600D02*
Y110863D01*
X154975Y110487*
X160075Y97387D02*
X160263Y97200D01*
X160637Y97013*
X161200*
X161575Y97200*
X161763Y97387*
X161950Y97763*
Y98513*
X161763Y98887*
X161575Y99075*
X161200Y99263*
X160637*
X160263Y99075*
X160075Y98887*
X158763Y97200D02*
X158387Y97013D01*
X158013*
X157637Y97200*
X157450Y97575*
X157637Y97950*
X158013Y98137*
X158387*
X158013D02*
X157637Y98325D01*
X157450Y98700*
X157637Y99075*
X158013Y99263*
X158387*
X158763Y99075*
X155950Y97575D02*
X155763Y97950D01*
X155387Y98137*
X155013*
X154637Y97950*
X154450Y97575*
X154637Y97200*
X155013Y97013*
X155387*
X155763Y97200*
X155950Y97575*
Y98137*
X155763Y98700*
X155387Y99075*
X155013Y99263*
X167450Y133613D02*
X166513Y135863D01*
X165575Y133613*
X167075Y134550D02*
X165950D01*
X163137D02*
X162575D01*
Y134363*
X162763Y133987*
X162950Y133800*
X163325Y133613*
X163700*
X164075Y133800*
X164263Y133987*
X164450Y134363*
Y135113*
X164263Y135487*
X164075Y135675*
X163700Y135863*
X163325*
X162950Y135675*
X162763Y135487*
X162575Y135113*
X161450Y133613D02*
Y135863D01*
X159575Y133613*
Y135863*
X158450Y133613D02*
Y135863D01*
X157325*
X156950Y135675*
X156763Y135487*
X156575Y135113*
Y134363*
X156763Y133987*
X156950Y133800*
X157325Y133613*
X158450*
X166175Y122987D02*
X166363Y122800D01*
X166737Y122613*
X167300*
X167675Y122800*
X167863Y122987*
X168050Y123363*
Y124113*
X167863Y124487*
X167675Y124675*
X167300Y124863*
X166737*
X166363Y124675*
X166175Y124487*
X164863Y122800D02*
X164487Y122613D01*
X164113*
X163737Y122800*
X163550Y123175*
X163737Y123550*
X164113Y123737*
X164487*
X164113D02*
X163737Y123925D01*
X163550Y124300*
X163737Y124675*
X164113Y124863*
X164487*
X164863Y124675*
X162050Y122613D02*
X160550Y124863D01*
X162050*
X169637Y64137D02*
X169263Y63950D01*
X169075Y63575*
X169263Y63200*
X169637Y63013*
X170950*
Y65263*
X169637*
X169263Y65075*
X169075Y64700*
X169263Y64325*
X169637Y64137*
X170950*
X167950Y65263D02*
Y63013D01*
X166075*
X164950D02*
Y65263D01*
X163075*
X163450Y64137D02*
X164950D01*
Y63013D02*
X163075D01*
X161575D02*
X160825D01*
X161200D02*
Y65263D01*
X161575Y64887*
X179550Y189513D02*
Y191763D01*
X178425*
X178050Y191575*
X177863Y191387*
X177675Y191013*
Y190263*
X177863Y189887*
X178050Y189700*
X178425Y189513*
X179550*
X176550D02*
X175050Y191763D01*
X176550*
X181650Y118163D02*
Y116475D01*
X181463Y116100*
X181087Y115913*
X180337*
X179963Y116100*
X179775Y116475*
Y118163*
X177713Y115913D02*
Y118163D01*
X178650Y116663*
X177150*
X183337Y96450D02*
X185025D01*
X185400Y96263*
X185587Y95887*
Y95137*
X185400Y94763*
X185025Y94575*
X183337*
X185400Y93450D02*
X185587Y93075D01*
Y92513*
X185400Y92137*
X185025Y91950*
X184837*
X184463Y92137*
X184275Y92513*
Y93450*
X183337*
Y91950*
X185837Y161937D02*
X185463Y161750D01*
X185275Y161375*
X185463Y161000*
X185837Y160813*
X187150*
Y163063*
X185837*
X185463Y162875*
X185275Y162500*
X185463Y162125*
X185837Y161937*
X187150*
X183587Y160813D02*
X182837D01*
X183213D02*
Y163063D01*
X183587D02*
X182837D01*
X181150Y160813D02*
X180213Y163063D01*
X179275Y160813*
X180775Y161750D02*
X179650D01*
X178150Y161375D02*
X177963Y161000D01*
X177587Y160813*
X176837*
X176463Y161000*
X176275Y161375*
X176463Y161750*
X176837Y161937*
X177587*
X177963Y162125*
X178150Y162500*
X177963Y162875*
X177587Y163063*
X176837*
X176463Y162875*
X176275Y162500*
X175150Y160813D02*
X173275D01*
X171587D02*
X170837D01*
X171213D02*
Y163063D01*
X171587D02*
X170837D01*
X169150Y160813D02*
Y163063D01*
X167275Y160813*
Y163063*
X166150D02*
X165213Y160813D01*
X164275Y163063*
X187437Y140137D02*
X187063Y139950D01*
X186875Y139575*
X187063Y139200*
X187437Y139013*
X188750*
Y141263*
X187437*
X187063Y141075*
X186875Y140700*
X187063Y140325*
X187437Y140137*
X188750*
X185375Y139013D02*
X184625D01*
X185000D02*
Y141263D01*
X185375Y140887*
X187913Y111475D02*
X188100Y111663D01*
X188287Y112037*
Y112600*
X188100Y112975*
X187913Y113163*
X187537Y113350*
X186787*
X186413Y113163*
X186225Y112975*
X186037Y112600*
Y112037*
X186225Y111663*
X186413Y111475*
X188100Y110163D02*
X188287Y109787D01*
Y109413*
X188100Y109037*
X187725Y108850*
X187350Y109037*
X187163Y109413*
Y109787*
Y109413D02*
X186975Y109037D01*
X186600Y108850*
X186225Y109037*
X186037Y109413*
Y109787*
X186225Y110163*
X187163Y106787D02*
Y106413D01*
X186975Y106037*
X186600Y105850*
X186225Y106037*
X186037Y106413*
Y106787*
X186225Y107163*
X186600Y107350*
X186975Y107163*
X187163Y106787*
X187350Y107163*
X187725Y107350*
X188100Y107163*
X188287Y106787*
Y106413*
X188100Y106037*
X187725Y105850*
X187350Y106037*
X187163Y106413*
X193375Y72087D02*
X193563Y71900D01*
X193937Y71713*
X194500*
X194875Y71900*
X195063Y72087*
X195250Y72463*
Y73213*
X195063Y73587*
X194875Y73775*
X194500Y73963*
X193937*
X193563Y73775*
X193375Y73587*
X191313Y71713D02*
Y73963D01*
X192250Y72463*
X190750*
X189063Y71900D02*
X188687Y71713D01*
X188313*
X187937Y71900*
X187750Y72275*
Y73400*
X187937Y73775*
X188313Y73963*
X188687*
X189063Y73775*
X189250Y73400*
Y72275*
X189063Y71900*
X187937Y73775*
X202075Y100687D02*
X202263Y100500D01*
X202637Y100313*
X203200*
X203575Y100500*
X203763Y100687*
X203950Y101063*
Y101813*
X203763Y102187*
X203575Y102375*
X203200Y102563*
X202637*
X202263Y102375*
X202075Y102187*
X200763Y100500D02*
X200387Y100313D01*
X200013*
X199637Y100500*
X199450Y100875*
X199637Y101250*
X200013Y101437*
X200387*
X200013D02*
X199637Y101625D01*
X199450Y102000*
X199637Y102375*
X200013Y102563*
X200387*
X200763Y102375*
X197387Y100313D02*
X197013Y100500D01*
X196637Y100875*
X196450Y101437*
Y102000*
X196637Y102375*
X197013Y102563*
X197387*
X197763Y102375*
X197950Y102000*
X197763Y101625*
X197387Y101437*
X197013*
X196637Y101625*
X196450Y102000*
X205287Y116550D02*
X203037D01*
Y115425*
X203225Y115050*
X203413Y114863*
X203787Y114675*
X204537*
X204913Y114863*
X205100Y115050*
X205287Y115425*
Y116550*
Y112987D02*
X205100Y112613D01*
X204725Y112237*
X204163Y112050*
X203600*
X203225Y112237*
X203037Y112613*
Y112987*
X203225Y113363*
X203600Y113550*
X203975Y113363*
X204163Y112987*
Y112613*
X203975Y112237*
X203600Y112050*
X211987Y113750D02*
X209737D01*
Y112625*
X209925Y112250*
X210113Y112063*
X210487Y111875*
X211237*
X211613Y112063*
X211800Y112250*
X211987Y112625*
Y113750*
Y110375D02*
Y109625D01*
Y110000D02*
X209737D01*
X210113Y110375*
X211800Y107563D02*
X211987Y107187D01*
Y106813*
X211800Y106437*
X211425Y106250*
X210300*
X209925Y106437*
X209737Y106813*
Y107187*
X209925Y107563*
X210300Y107750*
X211425*
X211800Y107563*
X209925Y106437*
X216487Y105150D02*
X214237D01*
X215363D02*
Y104587D01*
X214237Y103275*
X215363Y104587D02*
X216487Y103275D01*
Y116850D02*
X214237Y115913D01*
X216487Y114975*
X215550Y116475D02*
Y115350D01*
X221087Y105450D02*
X218837D01*
Y104137*
X219025Y103763*
X219400Y103575*
X219775Y103763*
X219963Y104137*
Y105450*
Y104137D02*
X221087Y103575D01*
Y102075D02*
Y101325D01*
Y101700D02*
X218837D01*
X219213Y102075*
X221087Y99075D02*
Y98325D01*
Y98700D02*
X218837D01*
X219213Y99075*
X237250Y144475D02*
X237063Y144100D01*
X236687Y143913*
X235937*
X235563Y144100*
X235375Y144475*
X235563Y144850*
X235937Y145037*
X236687*
X237063Y145225*
X237250Y145600*
X237063Y145975*
X236687Y146163*
X235937*
X235563Y145975*
X235375Y145600*
X234250Y146163D02*
X234063Y143913D01*
X233313Y145037*
X232563Y143913*
X232375Y146163*
X229750Y143913D02*
X231250D01*
X229937Y145225*
X229750Y145600*
X229937Y145975*
X230313Y146163*
X230875*
X231250Y145975*
D02*
D21*
X76481Y201038D02*
X78370D01*
X77940Y199954D02*
G75*
G02X76911I-515J1085D01*
G01*
X78370Y192180D02*
X76481D01*
X95881Y201238D02*
X97770D01*
X97340Y200154D02*
G75*
G02X96311I-515J1085D01*
G01*
X97770Y192380D02*
X95881D01*
X116081Y201638D02*
X117970D01*
X117540Y200554D02*
G75*
G02X116511I-515J1085D01*
G01*
X117970Y192780D02*
X116081D01*
X135881Y201838D02*
X137770D01*
X137340Y200754D02*
G75*
G02X136311I-515J1085D01*
G01*
X137770Y192980D02*
X135881D01*
X155881Y202038D02*
X157770D01*
X157340Y200954D02*
G75*
G02X156311I-515J1085D01*
G01*
X157770Y193180D02*
X155881D01*
X176081Y202238D02*
X177970D01*
X177540Y201154D02*
G75*
G02X176511I-515J1085D01*
G01*
X177970Y193380D02*
X176081D01*
X0Y0D02*
M02*
