%FSLAX25Y25*%
%MOIN*%
G04 EasyPC Gerber Version 18.0.8 Build 3632 *
%ADD18R,0.01000X0.02756*%
%ADD119R,0.02165X0.04724*%
%ADD120R,0.02362X0.04724*%
%ADD17R,0.02400X0.02400*%
%ADD131R,0.03200X0.03900*%
%ADD129R,0.03900X0.13800*%
%ADD88R,0.03937X0.04291*%
%ADD80R,0.03940X0.04330*%
%ADD128R,0.05900X0.13400*%
%ADD16R,0.04600X0.01800*%
%ADD12R,0.06000X0.06000*%
%ADD10C,0.00500*%
%ADD70C,0.00800*%
%ADD11C,0.01000*%
%AMT126*0 Rectangle Pad at angle 45*21,1,0.05500,0.06300,0,0,45*%
%ADD126T126*%
%AMT13*0 Rectangle Pad at angle 45*21,1,0.06000,0.06000,0,0,45*%
%ADD13T13*%
%ADD75C,0.01500*%
%ADD19C,0.02000*%
%ADD71C,0.03000*%
%ADD14C,0.03200*%
%ADD118R,0.04724X0.02362*%
%ADD15R,0.02400X0.02400*%
%ADD130R,0.05900X0.02800*%
%AMT122*0 Rectangle Pad at angle 45*21,1,0.06300,0.06300,0,0,45*%
%ADD122T122*%
%ADD87C,0.03600*%
%ADD89C,0.04000*%
%ADD123R,0.13200X0.03200*%
%ADD121R,0.04291X0.03937*%
%ADD81R,0.04330X0.03940*%
%AMT124*0 Rectangle Pad at angle 135*21,1,0.02700,0.06300,0,0,135*%
%ADD124T124*%
%AMT127*0 Rectangle Pad at angle 135*21,1,0.04700,0.06300,0,0,135*%
%ADD127T127*%
%AMT125*0 Rectangle Pad at angle 135*21,1,0.04700,0.08700,0,0,135*%
%ADD125T125*%
%AMT132*0 Rectangle Pad at angle 135*21,1,0.05500,0.05500,0,0,135*%
%ADD132T132*%
X0Y0D02*
D02*
D10*
X25718Y192982D02*
X2850Y170115D01*
Y162496*
G75*
G02X23750Y161050I10400J-1446*
G01*
G75*
G02X2850Y159604I-10500*
G01*
Y82496*
G75*
G02X23750Y81050I10400J-1446*
G01*
G75*
G02X2850Y79604I-10500*
G01*
Y72285*
X72085Y3050*
X120850*
Y3200*
X106100*
Y3600*
X100471*
G75*
G02X99229I-621J2450*
G01*
X83950*
G75*
G02X82218Y4318I0J2450*
G01*
X78387Y8149*
G75*
G02X77658Y8654I1101J2364*
G01*
X75804Y10481*
X74512Y9190*
X68290Y15412*
X69669Y16791*
X67616Y18844*
G75*
G02X66898Y20576I1732J1733*
G01*
Y20645*
X62843Y24700*
X70762Y32620*
X75854Y27529*
X71798Y23473*
Y21591*
X73133Y20256*
X74512Y21635*
X80735Y15412*
X79491Y14169*
X81317Y12370*
G75*
G02X81851Y11613I-1830J-1858*
G01*
X84965Y8500*
X99229*
G75*
G02X100471I621J-2450*
G01*
X101100*
Y17850*
G75*
G02X101671Y19229I1950J0*
G01*
X104871Y22429*
G75*
G02X106100Y22994I1379J-1379*
G01*
Y30443*
X84655*
X90210Y24888*
X83988Y18665*
X77765Y24888*
X83321Y30443*
X73650*
G75*
G02X72513Y30914J1607*
G01*
X26513Y76913*
G75*
G02X26042Y78050I1137J1137*
G01*
Y123702*
X22029Y127715*
X27685Y133371*
X33342Y127715*
X29257Y123629*
Y120800*
X34757Y126300*
X40413Y120643*
X34757Y114987*
X33957Y115786*
Y99316*
X90616Y42658*
X91646*
G75*
G02X91313Y42913I805J1392*
G01*
X35613Y98613*
G75*
G02X35143Y99750I1137J1137*
G01*
Y109550*
G75*
G02X35613Y110687I1607*
G01*
X37335Y112408*
X36171Y113572*
X41828Y119229*
X47484Y113572*
X41828Y107916*
X39608Y110135*
X38357Y108884*
Y100416*
X93116Y45657*
X97059*
G75*
G02X96100Y47650I1591J1993*
G01*
G75*
G02X96103Y47778I2548J2*
G01*
X95228Y46904*
X91522Y50610*
X89940*
G75*
G02X88561Y51181I0J1950*
G01*
X87933Y51809*
G75*
G02X85600Y54350I217J2541*
G01*
G75*
G02X88510Y56874I2550*
G01*
X85789Y59596*
X85717Y59525*
G75*
G02X84692Y59100I-1025J1025*
G01*
X80550*
G75*
G02X79525Y59525J1450*
G01*
X39525Y99525*
G75*
G02X39100Y100550I1025J1025*
G01*
Y103050*
G75*
G02X39525Y104075I1450*
G01*
X47700Y112251*
Y118449*
X39525Y126625*
G75*
G02Y128675I1025J1025*
G01*
X40270Y129420*
X38033Y131657*
X44043Y137667*
X50054Y131657*
X44324Y125927*
X45385Y124866*
X51115Y130596*
X57125Y124585*
X52800Y120261*
Y118139*
X58185Y123525*
X64196Y117515*
X59200Y112519*
Y111851*
X59927Y111124*
X65257Y116454*
X68353Y113357*
X76550*
G75*
G02X77692Y112881J-1607*
G01*
X88620Y101857*
X103070*
G75*
G02X107600Y100250I1980J-1607*
G01*
G75*
G02X104669Y97729I-2550*
G01*
G75*
G02X106300Y95350I-919J-2379*
G01*
G75*
G02X101200I-2550*
G01*
G75*
G02X104131Y97871I2550*
G01*
G75*
G02X103070Y98643I919J2379*
G01*
X99342*
G75*
G02X98800Y94952I-1992J-1593*
G01*
Y85048*
G75*
G02X99900Y82950I-1450J-2098*
G01*
G75*
G02X94800I-2550*
G01*
G75*
G02X95900Y85048I2550*
G01*
Y94952*
G75*
G02X95252Y95600I1450J2098*
G01*
X94193*
G75*
G02X94157Y91670I-1643J-1950*
G01*
Y81930*
G75*
G02X94009Y77859I-1607J-1980*
G01*
X106853*
G75*
G02X111200Y76050I1797J-1809*
G01*
G75*
G02X106522Y74644I-2550*
G01*
X103205*
G75*
G02X104008Y71365I-1455J-2094*
G01*
X109100Y66273*
G75*
G02X114200Y66250I2550J-23*
G01*
G75*
G02X113557Y64557I-2550J0*
G01*
X122850*
G75*
G02X123987Y64087J-1607*
G01*
X131216Y56857*
X137956*
G75*
G02X142400Y55150I1894J-1707*
G01*
G75*
G02X137793Y53643I-2550*
G01*
X130550*
G75*
G02X129413Y54113J1607*
G01*
X122184Y61343*
X110150*
G75*
G02X109013Y61813J1607*
G01*
X100498Y70328*
G75*
G02X99528Y71298I1252J2222*
G01*
X99413Y71413*
G75*
G02X99517Y73782I1137J1137*
G01*
G75*
G02X100295Y74644I2233J-1232*
G01*
X88604*
X85861Y71969*
X86468Y71362*
X87046Y71935*
G75*
G02X92100Y71450I2504J-485*
G01*
G75*
G02X90015Y68943I-2550*
G01*
X89448Y68381*
X89979Y67850*
G75*
G02X90792Y68099I812J-1202*
G01*
X94150*
G75*
G02X95175Y67674I0J-1450*
G01*
X104875Y57975*
G75*
G02X105300Y56950I-1025J-1025*
G01*
Y49748*
G75*
G02X106100Y48850I-1450J-2098*
G01*
Y58901*
X121799*
Y53400*
X122843*
G75*
G02X126100Y50950I707J-2450*
G01*
G75*
G02X122843Y48500I-2550*
G01*
X121799*
Y18850*
X153661*
G75*
G02X155657Y23500I1289J2200*
G01*
X158901*
Y29100*
X154548*
G75*
G02X149900Y30550I-2098J1450*
G01*
G75*
G02X151000Y32648I2550*
G01*
Y54150*
G75*
G02X151425Y55175I1450*
G01*
X156300Y60051*
Y69460*
G75*
G02X154300Y71950I550J2490*
G01*
G75*
G02X159400I2550*
G01*
G75*
G02X159107Y70762I-2550J0*
G01*
G75*
G02X159200Y70250I-1356J-512*
G01*
Y59450*
G75*
G02X159092Y58901I-1450*
G01*
X173900*
Y61049*
X159849Y75100*
X155972*
G75*
G02X152322Y74237I-2222J1250*
G01*
Y70220*
X140177*
Y71743*
X138665*
Y70630*
X131834*
Y77070*
X137777*
G75*
G02X137560Y77260I1274J1678*
G01*
X137190Y77630*
X131834*
Y84070*
X136472*
X136234Y84308*
G75*
G02X134226Y85600I216J2542*
G01*
X132169*
Y84133*
X126800*
Y82748*
G75*
G02X127900Y80650I-1450J-2098*
G01*
G75*
G02X122800I-2550*
G01*
G75*
G02X123900Y82748I2550*
G01*
Y83549*
X123316Y84133*
X118730*
Y90964*
X125169*
Y86382*
X125730Y85821*
Y90964*
X131500*
Y95299*
X131843*
Y99550*
G75*
G02X133950Y101657I2107*
G01*
X135196*
Y101941*
X142421*
Y97078*
X136057*
Y95299*
X140031*
Y96067*
X146470*
Y90708*
X147031Y91255*
Y96067*
X148300*
Y97078*
X145480*
Y109421*
X148300*
Y110901*
X144100*
Y109332*
G75*
G02X143236Y107246I-2950J0*
G01*
X142421Y106431*
Y104559*
X140479*
G75*
G02X137138I-1670J2431*
G01*
X135196*
Y109421*
X137067*
X138200Y110554*
Y110937*
X137929*
Y117199*
X137370Y117758*
Y110937*
X130929*
Y112400*
X129793*
G75*
G02X130700Y110450I-1643J-1950*
G01*
G75*
G02X125600I-2550*
G01*
G75*
G02X126507Y112400I2550*
G01*
X122060*
G75*
G02X117000Y112850I-2510J450*
G01*
G75*
G02X119333Y115391I2550*
G01*
X119671Y115729*
G75*
G02X121050Y116300I1379J-1379*
G01*
X130929*
Y117763*
X137365*
X133678Y121450*
X99250*
Y117550*
X73550*
X57850Y133250*
Y160850*
X25718Y192982*
X21757Y139300D02*
G75*
G02X22650Y139457I893J-2449D01*
G01*
X31692*
X36972Y144738*
X42983Y138728*
X36972Y132717*
X34776Y134913*
G75*
G02X33030Y134243I-1746J1937*
G01*
X25728*
X20615Y129129*
X14958Y134785*
X20615Y140442*
X21757Y139300*
X23891Y145799D02*
X29901Y151809D01*
X35911Y145799*
X29901Y139789*
X23891Y145799*
X27650Y65592D02*
X24800Y62743D01*
X19709Y67834*
X27629Y75754*
X32720Y70662*
X30408Y68350*
X30967Y67791*
G75*
G02X33300Y65250I-217J-2541*
G01*
G75*
G02X28209Y65033I-2550*
G01*
X27650Y65592*
X36008Y57192D02*
G75*
G02X40321Y52879I2157J-2157D01*
G01*
G75*
G02X36008Y57192I-2157J2157*
G01*
X44500Y162750D02*
G75*
G02X39400I-2550D01*
G01*
G75*
G02X44500I2550*
G01*
X58282Y34918D02*
G75*
G02X62595Y30605I2157J-2157D01*
G01*
G75*
G02X58282Y34918I-2157J2157*
G01*
X97700Y114750D02*
G75*
G02X92600I-2550D01*
G01*
G75*
G02X97700I2550*
G01*
X109300Y96850D02*
G75*
G02X114400I2550D01*
G01*
G75*
G02X109300I-2550*
G01*
X115349Y103050D02*
G75*
G02X113900Y105350I1101J2300D01*
G01*
G75*
G02X119000I2550*
G01*
G75*
G02X117551Y103050I-2550*
G01*
G75*
G02X119000Y100750I-1101J-2300*
G01*
G75*
G02X113900I-2550*
G01*
G75*
G02X115349Y103050I2550*
G01*
X123000Y67150D02*
G75*
G02X128100I2550D01*
G01*
G75*
G02X123000I-2550*
G01*
X131000Y100250D02*
G75*
G02X125900I-2550D01*
G01*
G75*
G02X131000I2550*
G01*
X135300Y67450D02*
G75*
G02X140400I2550D01*
G01*
G75*
G02X135300I-2550*
G01*
X137300Y59650D02*
G75*
G02X132200I-2550D01*
G01*
G75*
G02X137300I2550*
G01*
X143000Y57250D02*
G75*
G02X148100I2550D01*
G01*
G75*
G02X143000I-2550*
G01*
X152201Y63273D02*
G75*
G02X150800Y65550I1149J2276D01*
G01*
G75*
G02X155900I2550*
G01*
G75*
G02X154599Y63327I-2550*
G01*
G75*
G02X156000Y61050I-1149J-2277*
G01*
G75*
G02X150900I-2550*
G01*
G75*
G02X152201Y63273I2550*
G01*
X164900Y63450D02*
G75*
G02X159800I-2550D01*
G01*
G75*
G02X164900I2550*
G01*
X2850Y136933D02*
G36*
Y82496D01*
G75*
G02X23750Y81050I10400J-1446*
G01*
G75*
G02X2850Y79604I-10500*
G01*
Y72285*
X5909Y69227*
X21102*
X27629Y75754*
X32720Y70662*
X31285Y69227*
X34200*
X26513Y76913*
G75*
G02X26042Y78050I1137J1137*
G01*
Y123702*
X22029Y127715*
X27685Y133371*
X33342Y127715*
X29257Y123629*
Y120800*
X34757Y126300*
X40413Y120643*
X34757Y114987*
X33957Y115786*
Y99316*
X90616Y42658*
X91646*
G75*
G02X91313Y42913I805J1392*
G01*
X35613Y98613*
G75*
G02X35143Y99750I1137J1137*
G01*
Y109550*
G75*
G02X35613Y110687I1607*
G01*
X37335Y112408*
X36171Y113572*
X41828Y119229*
X47484Y113572*
X41828Y107916*
X39608Y110135*
X38357Y108884*
Y100416*
X93116Y45657*
X97059*
G75*
G02X96100Y47650I1591J1993*
G01*
G75*
G02X96103Y47778I2548J2*
G01*
X95228Y46904*
X91522Y50610*
X89940*
G75*
G02X88561Y51181I0J1950*
G01*
X87933Y51809*
G75*
G02X85600Y54350I217J2541*
G01*
G75*
G02X88510Y56874I2550*
G01*
X85789Y59596*
X85717Y59525*
G75*
G02X84692Y59100I-1025J1025*
G01*
X80550*
G75*
G02X79525Y59525J1450*
G01*
X39525Y99525*
G75*
G02X39100Y100550I1025J1025*
G01*
Y103050*
G75*
G02X39525Y104075I1450*
G01*
X47700Y112251*
Y118449*
X39525Y126625*
G75*
G02Y128675I1025J1025*
G01*
X40270Y129420*
X38033Y131657*
X43309Y136933*
X41188*
X36972Y132717*
X34776Y134913*
G75*
G02X33030Y134243I-1746J1937*
G01*
X25728*
X20615Y129129*
X14958Y134785*
X17106Y136933*
X2850*
G37*
X17106D02*
G36*
X20615Y140442D01*
X21757Y139300*
G75*
G02X22650Y139457I893J-2449*
G01*
X31692*
X36972Y144738*
X42983Y138728*
X41188Y136933*
X43309*
X44043Y137667*
X50054Y131657*
X44324Y125927*
X45385Y124866*
X51115Y130596*
X57125Y124585*
X52800Y120261*
Y118139*
X58185Y123525*
X64196Y117515*
X59200Y112519*
Y111851*
X59927Y111124*
X65257Y116454*
X66960Y114750*
X92600*
G75*
G02X97700I2550*
G01*
X117849*
G75*
G02X119333Y115391I1701J-1900*
G01*
X119671Y115729*
G75*
G02X121050Y116300I1379J-1379*
G01*
X130929*
Y117763*
X137365*
X133678Y121450*
X99250*
Y117550*
X73550*
X57850Y133250*
Y145799*
X35911*
X29901Y139789*
X23891Y145799*
X2850*
Y136933*
X17106*
G37*
X23891Y145799D02*
G36*
X29901Y151809D01*
X35911Y145799*
X57850*
Y160850*
X55950Y162750*
X44500*
G75*
G02X39400I-2550*
G01*
X23611*
G75*
G02X23750Y161050I-10362J-1700*
G01*
G75*
G02X2850Y159604I-10500*
G01*
Y145799*
X23891*
G37*
X5909Y69227D02*
G36*
X11685Y63450D01*
X24093*
X19709Y67834*
X21102Y69227*
X5909*
G37*
X31285D02*
G36*
X30408Y68350D01*
X30967Y67791*
G75*
G02X33300Y65250I-217J-2541*
G01*
G75*
G02X32556Y63450I-2550*
G01*
X39976*
X34200Y69227*
X31285*
G37*
X106147D02*
G36*
X109100Y66273D01*
G75*
G02X114200Y66250I2550J-23*
G01*
G75*
G02X113557Y64557I-2550J0*
G01*
X122850*
G75*
G02X123987Y64087J-1607*
G01*
X124623Y63450*
X151903*
G75*
G02X150800Y65550I1447J2100*
G01*
G75*
G02X155900I2550*
G01*
G75*
G02X154796Y63450I-2550*
G01*
X156300*
Y69227*
X139679*
G75*
G02X140400Y67450I-1829J-1777*
G01*
G75*
G02X135300I-2550*
G01*
G75*
G02X136021Y69227I2550*
G01*
X127030*
G75*
G02X128100Y67150I-1480J-2077*
G01*
G75*
G02X123000I-2550*
G01*
G75*
G02X124070Y69227I2550*
G01*
X106147*
G37*
X124070D02*
G36*
G75*
G02X127030I1480J-2077D01*
G01*
X136021*
G75*
G02X139679I1829J-1777*
G01*
X156300*
Y69460*
G75*
G02X154300Y71950I550J2490*
G01*
G75*
G02X159400I2550*
G01*
G75*
G02X159107Y70762I-2550J0*
G01*
G75*
G02X159200Y70250I-1356J-512*
G01*
Y63450*
X159800*
G75*
G02X164900I2550*
G01*
X171499*
X159849Y75100*
X155972*
G75*
G02X152322Y74237I-2222J1250*
G01*
Y70220*
X140177*
Y71743*
X138665*
Y70630*
X131834*
Y77070*
X137777*
G75*
G02X137560Y77260I1274J1678*
G01*
X137190Y77630*
X131834*
Y84070*
X136472*
X136234Y84308*
G75*
G02X134226Y85600I216J2542*
G01*
X132169*
Y84133*
X126800*
Y82748*
G75*
G02X127900Y80650I-1450J-2098*
G01*
G75*
G02X122800I-2550*
G01*
G75*
G02X123900Y82748I2550*
G01*
Y83549*
X123316Y84133*
X118730*
Y90964*
X125169*
Y86382*
X125730Y85821*
Y90964*
X131500*
Y95299*
X131843*
Y96850*
X114400*
G75*
G02X109300I-2550*
G01*
X105812*
G75*
G02X106300Y95350I-2062J-1500*
G01*
G75*
G02X101200I-2550*
G01*
G75*
G02X104131Y97871I2550*
G01*
G75*
G02X103070Y98643I919J2379*
G01*
X99342*
G75*
G02X98800Y94952I-1992J-1593*
G01*
Y85048*
G75*
G02X99900Y82950I-1450J-2098*
G01*
G75*
G02X94800I-2550*
G01*
G75*
G02X95900Y85048I2550*
G01*
Y94952*
G75*
G02X95252Y95600I1450J2098*
G01*
X94193*
G75*
G02X94157Y91670I-1643J-1950*
G01*
Y81930*
G75*
G02X94009Y77859I-1607J-1980*
G01*
X106853*
G75*
G02X111200Y76050I1797J-1809*
G01*
G75*
G02X106522Y74644I-2550*
G01*
X103205*
G75*
G02X104008Y71365I-1455J-2094*
G01*
X106147Y69227*
X124070*
G37*
X20100Y55035D02*
G36*
X42374Y32761D01*
X57389*
G75*
G02X58282Y34918I3050*
G01*
G75*
G02X63489Y32761I2157J-2157*
G01*
X70666*
X48391Y55035*
X41215*
G75*
G02X40321Y52879I-3050*
G01*
G75*
G02X35115Y55035I-2157J2157*
G01*
X20100*
G37*
X35115D02*
G36*
G75*
G02X36008Y57192I3050D01*
G01*
G75*
G02X41215Y55035I2157J-2157*
G01*
X48391*
X39976Y63450*
X32556*
G75*
G02X28209Y65033I-1806J1800*
G01*
X27650Y65592*
X24800Y62743*
X24093Y63450*
X11685*
X20100Y55035*
X35115*
G37*
X142397D02*
G36*
G75*
G02X137793Y53643I-2547J115D01*
G01*
X130550*
G75*
G02X129413Y54113J1607*
G01*
X122184Y61343*
X110150*
G75*
G02X109013Y61813J1607*
G01*
X100498Y70328*
G75*
G02X99528Y71298I1252J2222*
G01*
X99413Y71413*
G75*
G02X99517Y73782I1137J1137*
G01*
G75*
G02X100295Y74644I2233J-1232*
G01*
X88604*
X85861Y71969*
X86468Y71362*
X87046Y71935*
G75*
G02X92100Y71450I2504J-485*
G01*
G75*
G02X90015Y68943I-2550*
G01*
X89448Y68381*
X89979Y67850*
G75*
G02X90792Y68099I812J-1202*
G01*
X94150*
G75*
G02X95175Y67674I0J-1450*
G01*
X104875Y57975*
G75*
G02X105300Y56950I-1025J-1025*
G01*
Y49748*
G75*
G02X106100Y48850I-1450J-2098*
G01*
Y58901*
X121799*
Y53400*
X122843*
G75*
G02X126100Y50950I707J-2450*
G01*
G75*
G02X122843Y48500I-2550*
G01*
X121799*
Y18850*
X153661*
G75*
G02X155657Y23500I1289J2200*
G01*
X158901*
Y29100*
X154548*
G75*
G02X149900Y30550I-2098J1450*
G01*
G75*
G02X151000Y32648I2550*
G01*
Y54150*
G75*
G02X151302Y55035I1450J0*
G01*
X146814*
G75*
G02X144286I-1264J2215*
G01*
X142397*
G37*
X144286D02*
G36*
G75*
G02X143000Y57250I1264J2215D01*
G01*
G75*
G02X144688Y59650I2550*
G01*
X137300*
G75*
G02X132200I-2550*
G01*
X128423*
X131216Y56857*
X137956*
G75*
G02X142400Y55150I1894J-1707*
G01*
G75*
G02X142397Y55035I-2550J4*
G01*
X144286*
G37*
X151302D02*
G36*
G75*
G02X151425Y55175I1148J-885D01*
G01*
X155899Y59650*
X155581*
G75*
G02X151319I-2131J1400*
G01*
X146412*
G75*
G02X148100Y57250I-862J-2400*
G01*
G75*
G02X146814Y55035I-2550*
G01*
X151302*
G37*
X39400Y162750D02*
G36*
G75*
G02X44500I2550D01*
G01*
X55950*
X25718Y192982*
X2850Y170115*
Y162496*
G75*
G02X23611Y162750I10400J-1446*
G01*
X39400*
G37*
X42374Y32761D02*
G36*
X72085Y3050D01*
X120850*
Y3200*
X106100*
Y3600*
X100471*
G75*
G02X99229I-621J2450*
G01*
X83950*
G75*
G02X82218Y4318I0J2450*
G01*
X78387Y8149*
G75*
G02X77658Y8654I1101J2364*
G01*
X75804Y10481*
X74512Y9190*
X68290Y15412*
X69669Y16791*
X67616Y18844*
G75*
G02X66898Y20576I1732J1733*
G01*
Y20645*
X62843Y24700*
X70762Y32620*
X75854Y27529*
X71798Y23473*
Y21591*
X73133Y20256*
X74512Y21635*
X80735Y15412*
X79491Y14169*
X81317Y12370*
G75*
G02X81851Y11613I-1830J-1858*
G01*
X84965Y8500*
X99229*
G75*
G02X100471I621J-2450*
G01*
X101100*
Y17850*
G75*
G02X101671Y19229I1950J0*
G01*
X104871Y22429*
G75*
G02X106100Y22994I1379J-1379*
G01*
Y30443*
X84655*
X90210Y24888*
X83988Y18665*
X77765Y24888*
X83321Y30443*
X73650*
G75*
G02X72513Y30914J1607*
G01*
X70666Y32761*
X63489*
G75*
G02X62595Y30605I-3050*
G01*
G75*
G02X57389Y32761I-2157J2157*
G01*
X42374*
G37*
X66960Y114750D02*
G36*
X68353Y113357D01*
X76550*
G75*
G02X77692Y112881J-1607*
G01*
X87438Y103050*
X115349*
G75*
G02X113900Y105350I1101J2300*
G01*
G75*
G02X119000I2550*
G01*
G75*
G02X117551Y103050I-2550*
G01*
X145480*
Y109421*
X148300*
Y110901*
X144100*
Y109332*
G75*
G02X143236Y107246I-2950J0*
G01*
X142421Y106431*
Y104559*
X140479*
G75*
G02X137138I-1670J2431*
G01*
X135196*
Y109421*
X137067*
X138200Y110554*
Y110937*
X137929*
Y117199*
X137370Y117758*
Y110937*
X130929*
Y112400*
X129793*
G75*
G02X130700Y110450I-1643J-1950*
G01*
G75*
G02X125600I-2550*
G01*
G75*
G02X126507Y112400I2550*
G01*
X122060*
G75*
G02X117000Y112850I-2510J450*
G01*
G75*
G02X117849Y114750I2550J0*
G01*
X97700*
G75*
G02X92600I-2550*
G01*
X66960*
G37*
X109300Y96850D02*
G36*
G75*
G02X114400I2550D01*
G01*
X131843*
Y99550*
G75*
G02X131962Y100250I2107*
G01*
X131000*
G75*
G02X125900I-2550*
G01*
X118950*
G75*
G02X113950I-2500J500*
G01*
X107600*
G75*
G02X104669Y97729I-2550*
G01*
G75*
G02X105812Y96850I-920J-2379*
G01*
X109300*
G37*
X87438Y103050D02*
G36*
X88620Y101857D01*
X103070*
G75*
G02X107600Y100250I1980J-1607*
G01*
X113950*
G75*
G02X113900Y100750I2500J500*
G01*
G75*
G02X115349Y103050I2550*
G01*
X87438*
G37*
X117551D02*
G36*
G75*
G02X119000Y100750I-1101J-2300D01*
G01*
G75*
G02X118950Y100250I-2550J0*
G01*
X125900*
G75*
G02X131000I2550*
G01*
X131962*
G75*
G02X133950Y101657I1988J-700*
G01*
X135196*
Y101941*
X142421*
Y97078*
X136057*
Y95299*
X140031*
Y96067*
X146470*
Y90708*
X147031Y91255*
Y96067*
X148300*
Y97078*
X145480*
Y103050*
X117551*
G37*
X132200Y59650D02*
G36*
G75*
G02X137300I2550D01*
G01*
X144688*
G75*
G02X146412I862J-2400*
G01*
X151319*
G75*
G02X150900Y61050I2131J1400*
G01*
G75*
G02X152201Y63273I2550*
G01*
G75*
G02X151903Y63450I1149J2276*
G01*
X124623*
X128423Y59650*
X132200*
G37*
X155899D02*
G36*
X156300Y60051D01*
Y63450*
X154796*
G75*
G02X154599Y63327I-1446J2100*
G01*
G75*
G02X156000Y61050I-1149J-2277*
G01*
G75*
G02X155581Y59650I-2550J0*
G01*
X155899*
G37*
X159200Y63450D02*
G36*
Y59450D01*
G75*
G02X159092Y58901I-1450*
G01*
X173900*
Y61049*
X171499Y63450*
X164900*
G75*
G02X159800I-2550*
G01*
X159200*
G37*
X26718Y193982D02*
X59350Y161350D01*
Y133452*
X74048Y118753*
X98047*
Y121450*
G75*
G02X98150Y121937I1203*
G01*
Y123350*
X131778*
X127864Y127264*
G75*
G02X132036Y131436I2086J2086*
G01*
X140122Y123350*
X161078*
X159864Y124564*
G75*
G02X164036Y128736I2086J2086*
G01*
X167036Y125736*
X168547Y127247*
Y161250*
G75*
G02X168550Y161337I1203*
G01*
Y162350*
X207932Y201732*
X170215Y239450*
X72185*
X26718Y193982*
X62400Y203200D02*
X57800D01*
Y211700*
X66300*
Y203200*
X65100*
Y199409*
X69109Y195400*
X69168*
X67684Y196884*
G75*
G02X67243Y197950I1066J1066*
G01*
Y201850*
G75*
G02X67668Y202900I1507J0*
G01*
X67959Y203200*
X67800*
Y211700*
X75491*
X73991Y213200*
X67800*
Y221700*
X76300*
Y214709*
X77800Y213209*
Y221700*
X86300*
Y215509*
X87505Y214305*
G75*
G02X87800Y213860I-955J-954*
G01*
Y221700*
X96300*
Y214909*
X97800Y213409*
Y221700*
X106300*
Y214109*
X107505Y212905*
G75*
G02X107900Y211950I-955J-954*
G01*
Y211700*
X115800*
Y211791*
X114391Y213200*
X107800*
Y221700*
X116300*
Y215109*
X117800Y213609*
Y221700*
X126300*
Y215109*
X127800Y213609*
Y221700*
X136300*
Y215109*
X137800Y213609*
Y221700*
X146300*
Y215109*
X147705Y213705*
G75*
G02X147800Y213598I-957J-954*
G01*
Y221700*
X156300*
Y215109*
X157800Y213609*
Y221700*
X166300*
Y213200*
X163400*
Y211700*
X166300*
Y205109*
X167800Y203609*
Y211700*
X176300*
Y203200*
X168133*
G75*
G02X168300Y202550I-1183J-650*
G01*
Y198009*
X169000Y197309*
Y202400*
X176100*
Y193100*
X169000*
Y193908*
G75*
G02X168195Y194295I150J1342*
G01*
X165995Y196495*
G75*
G02X165600Y197450I955J954*
G01*
Y201991*
X164391Y203200*
X158500*
Y202318*
X164500*
Y192900*
X157400*
Y196891*
X156195Y198095*
G75*
G02X155900Y198540I955J954*
G01*
Y192900*
X148800*
Y193700*
X148750*
G75*
G02X147795Y194095I0J1350*
G01*
X145795Y196095*
G75*
G02X145400Y197050I955J954*
G01*
Y203200*
X142300*
Y202118*
X144500*
Y192700*
X137400*
Y196315*
G75*
G02X137236Y196454I791J1095*
G01*
X136195Y197495*
G75*
G02X135900Y197940I955J954*
G01*
Y192700*
X128800*
Y193500*
X128550*
G75*
G02X127595Y193895I0J1350*
G01*
X125995Y195495*
G75*
G02X125600Y196450I955J954*
G01*
Y203200*
X122500*
Y201918*
X124700*
Y192500*
X117600*
Y196291*
X116195Y197695*
G75*
G02X116100Y197802I957J954*
G01*
Y192500*
X109000*
Y193300*
X108350*
G75*
G02X107395Y193695I0J1350*
G01*
X105595Y195495*
G75*
G02X105200Y196450I955J954*
G01*
Y203200*
X102300*
Y201518*
X104500*
Y192100*
X97400*
Y195891*
X95995Y197295*
G75*
G02X95900Y197402I957J954*
G01*
Y192100*
X88800*
Y192900*
X88750*
G75*
G02X87795Y193295I0J1350*
G01*
X85595Y195495*
G75*
G02X85200Y196450I955J954*
G01*
Y203200*
X82900*
Y201318*
X85100*
Y191900*
X78000*
Y195376*
G75*
G02X77595Y195654I550J1233*
G01*
X76500Y196750*
Y191900*
X69400*
Y192700*
X68550*
G75*
G02X67595Y193095I0J1350*
G01*
X62795Y197895*
G75*
G02X62400Y198850I955J954*
G01*
Y203200*
X66300Y221700D02*
Y213200D01*
X57800*
Y221700*
X66300*
X73048Y172205D02*
G75*
G02X71500Y174550I1002J2345D01*
G01*
G75*
G02X75405Y176710I2550*
G01*
G75*
G02X80500Y176575I2545J-160*
G01*
G75*
G02X83214Y176819I1550J-2025*
G01*
G75*
G02X88300Y176550I2536J-269*
G01*
G75*
G02X87100Y174387I-2550*
G01*
Y173150*
G75*
G02X86705Y172195I-1350J0*
G01*
X84300Y169791*
Y159822*
X74894*
Y168670*
X73488Y170080*
G75*
G02X73048Y171144I1067J1065*
G01*
Y172205*
X73300Y138050D02*
G75*
G02X68200I-2550D01*
G01*
G75*
G02X73300I2550*
G01*
X91702Y172273D02*
G75*
G02X90300Y174550I1148J2277D01*
G01*
G75*
G02X94604Y176400I2550*
G01*
G75*
G02X94600Y176550I2548J149*
G01*
G75*
G02X99700I2550*
G01*
G75*
G02X98457Y174361I-2550*
G01*
Y173267*
X99997Y171699*
X101243Y172967*
Y174570*
G75*
G02X100300Y176550I1607J1980*
G01*
G75*
G02X105400I2550*
G01*
G75*
G02X104257Y174424I-2550*
G01*
Y172667*
X106599Y175008*
G75*
G02X106000Y176650I1951J1642*
G01*
G75*
G02X111100I2550*
G01*
G75*
G02X111046Y176126I-2550*
G01*
G75*
G02X114025Y176906I2004J-1576*
G01*
G75*
G02X119075I2525J-356*
G01*
G75*
G02X121025I975J-2357*
G01*
G75*
G02X125900Y177540I2525J-356*
G01*
G75*
G02X130800Y176550I2350J-990*
G01*
G75*
G02X129914Y174617I-2550*
G01*
X132906Y171622*
Y174059*
G75*
G02X130900Y176550I544J2491*
G01*
G75*
G02X136000I2550*
G01*
G75*
G02X135859Y175713I-2550J0*
G01*
G75*
G02X135920Y175287I-1446J-426*
G01*
Y172927*
X137689Y174715*
G75*
G02X136800Y176650I1661J1935*
G01*
G75*
G02X141900I2550*
G01*
G75*
G02X140857Y174593I-2550*
G01*
Y174250*
G75*
G02X140824Y173933I-1507J1*
G01*
X141611Y174720*
G75*
G02X141800Y175257I1339J-170*
G01*
G75*
G02X146800Y174550I2450J-707*
G01*
G75*
G02X143024Y172314I-2550*
G01*
X140100Y169391*
Y159822*
X130694*
Y169569*
X127283Y172985*
G75*
G02X126843Y174050I1067J1065*
G01*
Y174424*
G75*
G02X125900Y175560I1408J2126*
G01*
G75*
G02X124700Y174274I-2350J990*
G01*
Y172350*
G75*
G02X124305Y171395I-1350J0*
G01*
X122500Y169591*
Y159822*
X113094*
Y169970*
X111982Y171086*
G75*
G02X111543Y172150I1067J1064*
G01*
Y172493*
G75*
G02X110554Y175074I1508J2057*
G01*
G75*
G02X109726Y174387I-2005J1576*
G01*
G75*
G02X109505Y174095I-1176J663*
G01*
X104700Y169291*
Y159822*
X95294*
Y168752*
X91796Y172172*
G75*
G02X91702Y172273I1055J1075*
G01*
X100333Y147309D02*
G75*
G02X98000Y149850I217J2541D01*
G01*
G75*
G02X103091Y150067I2550*
G01*
X103758Y149400*
X110400*
Y149900*
X126700*
Y149813*
G75*
G02X129994Y146000I1350J-2163*
G01*
X134600*
Y141857*
X140550*
G75*
G02X142026Y141254J-2108*
G01*
X146456Y136907*
G75*
G02X149703Y134450I694J-2457*
G01*
G75*
G02X145685Y132359I-2553*
G01*
G75*
G02X144474Y132946I265J2091*
G01*
X139689Y137643*
X134600*
Y137300*
X125800*
Y141100*
X122800*
Y132900*
X114000*
Y137700*
X113518*
G75*
G02X111182I-1168J1950*
G01*
X110530*
G75*
G02X106337Y139650I-1643J1950*
G01*
G75*
G02X110400Y141702I2550*
G01*
Y145500*
X102950*
G75*
G02X101571Y146071I0J1950*
G01*
X100333Y147309*
X149494Y159822D02*
Y170196D01*
X149737*
Y174497*
G75*
G02X148700Y176550I1513J2053*
G01*
G75*
G02X153791Y176768I2550*
G01*
G75*
G02X157900Y174750I1559J-2018*
G01*
G75*
G02X156631Y172545I-2550*
G01*
G75*
G02X156332Y172100I-1381J606*
G01*
X154720Y170439*
Y170196*
X157869*
X160199Y172526*
G75*
G02X159200Y174550I1551J2024*
G01*
G75*
G02X164300I2550*
G01*
G75*
G02X163100Y172387I-2550*
G01*
Y172168*
G75*
G02X162705Y171213I-1350J0*
G01*
X158900Y167409*
Y159822*
X149494*
X165700Y139600D02*
X157200D01*
Y148100*
X165700*
Y139600*
Y149600D02*
X157200D01*
Y158100*
X165700*
Y149600*
X176300Y221700D02*
Y213200D01*
X167800*
Y221700*
X176300*
X177600Y193100D02*
Y202518D01*
X184600*
Y202991*
X184391Y203200*
X177800*
Y211700*
X186300*
Y205109*
X186905Y204505*
G75*
G02X187300Y203550I-955J-954*
G01*
Y198850*
G75*
G02X186905Y197895I-1350J0*
G01*
X185864Y196854*
G75*
G02X184909Y196459I-954J955*
G01*
X184700*
Y193100*
X177600*
X186300Y221700D02*
Y213200D01*
X177800*
Y221700*
X186300*
X39535Y206800D02*
G36*
X26718Y193982D01*
X51239Y169461*
X74106*
X73488Y170080*
G75*
G02X73048Y171144I1067J1065*
G01*
Y172205*
G75*
G02X71500Y174550I1002J2345*
G01*
G75*
G02X75405Y176710I2550*
G01*
G75*
G02X80500Y176575I2545J-160*
G01*
G75*
G02X83214Y176819I1550J-2025*
G01*
G75*
G02X88300Y176550I2536J-269*
G01*
G75*
G02X87100Y174387I-2550*
G01*
Y173150*
G75*
G02X86705Y172195I-1350J0*
G01*
X84300Y169791*
Y169461*
X94570*
X91796Y172172*
G75*
G02X91702Y172273I1055J1075*
G01*
G75*
G02X90300Y174550I1148J2277*
G01*
G75*
G02X94604Y176400I2550*
G01*
G75*
G02X94600Y176550I2548J149*
G01*
G75*
G02X99700I2550*
G01*
G75*
G02X98457Y174361I-2550*
G01*
Y173267*
X99997Y171699*
X101243Y172967*
Y174570*
G75*
G02X100300Y176550I1607J1980*
G01*
G75*
G02X105400I2550*
G01*
G75*
G02X104257Y174424I-2550*
G01*
Y172667*
X106599Y175008*
G75*
G02X106000Y176650I1951J1642*
G01*
G75*
G02X111100I2550*
G01*
G75*
G02X111046Y176126I-2550*
G01*
G75*
G02X114025Y176906I2004J-1576*
G01*
G75*
G02X119075I2525J-356*
G01*
G75*
G02X121025I975J-2357*
G01*
G75*
G02X125900Y177540I2525J-356*
G01*
G75*
G02X130800Y176550I2350J-990*
G01*
G75*
G02X129914Y174617I-2550*
G01*
X132906Y171622*
Y174059*
G75*
G02X130900Y176550I544J2491*
G01*
G75*
G02X136000I2550*
G01*
G75*
G02X135859Y175713I-2550J0*
G01*
G75*
G02X135920Y175287I-1446J-426*
G01*
Y172927*
X137689Y174715*
G75*
G02X136800Y176650I1661J1935*
G01*
G75*
G02X141900I2550*
G01*
G75*
G02X140857Y174593I-2550*
G01*
Y174250*
G75*
G02X140824Y173933I-1507J1*
G01*
X141611Y174720*
G75*
G02X141800Y175257I1339J-170*
G01*
G75*
G02X146800Y174550I2450J-707*
G01*
G75*
G02X143024Y172314I-2550*
G01*
X140170Y169461*
X149494*
Y170196*
X149737*
Y174497*
G75*
G02X148700Y176550I1513J2053*
G01*
G75*
G02X153791Y176768I2550*
G01*
G75*
G02X157900Y174750I1559J-2018*
G01*
G75*
G02X156631Y172545I-2550*
G01*
G75*
G02X156332Y172100I-1381J606*
G01*
X154720Y170439*
Y170196*
X157869*
X160199Y172526*
G75*
G02X159200Y174550I1551J2024*
G01*
G75*
G02X164300I2550*
G01*
G75*
G02X163100Y172387I-2550*
G01*
Y172168*
G75*
G02X162705Y171213I-1350J0*
G01*
X160952Y169461*
X175661*
X207932Y201732*
X202865Y206800*
X186300*
Y205109*
X186905Y204505*
G75*
G02X187300Y203550I-955J-954*
G01*
Y198850*
G75*
G02X186905Y197895I-1350J0*
G01*
X185864Y196854*
G75*
G02X184909Y196459I-954J955*
G01*
X184700*
Y193100*
X177600*
Y202518*
X184600*
Y202991*
X184391Y203200*
X177800*
Y206800*
X176300*
Y203200*
X168133*
G75*
G02X168300Y202550I-1183J-650*
G01*
Y198009*
X169000Y197309*
Y202400*
X176100*
Y193100*
X169000*
Y193908*
G75*
G02X168195Y194295I150J1342*
G01*
X165995Y196495*
G75*
G02X165600Y197450I955J954*
G01*
Y201991*
X164391Y203200*
X158500*
Y202318*
X164500*
Y192900*
X157400*
Y196891*
X156195Y198095*
G75*
G02X155900Y198540I955J954*
G01*
Y192900*
X148800*
Y193700*
X148750*
G75*
G02X147795Y194095I0J1350*
G01*
X145795Y196095*
G75*
G02X145400Y197050I955J954*
G01*
Y203200*
X142300*
Y202118*
X144500*
Y192700*
X137400*
Y196315*
G75*
G02X137236Y196454I791J1095*
G01*
X136195Y197495*
G75*
G02X135900Y197940I955J954*
G01*
Y192700*
X128800*
Y193500*
X128550*
G75*
G02X127595Y193895I0J1350*
G01*
X125995Y195495*
G75*
G02X125600Y196450I955J954*
G01*
Y203200*
X122500*
Y201918*
X124700*
Y192500*
X117600*
Y196291*
X116195Y197695*
G75*
G02X116100Y197802I957J954*
G01*
Y192500*
X109000*
Y193300*
X108350*
G75*
G02X107395Y193695I0J1350*
G01*
X105595Y195495*
G75*
G02X105200Y196450I955J954*
G01*
Y203200*
X102300*
Y201518*
X104500*
Y192100*
X97400*
Y195891*
X95995Y197295*
G75*
G02X95900Y197402I957J954*
G01*
Y192100*
X88800*
Y192900*
X88750*
G75*
G02X87795Y193295I0J1350*
G01*
X85595Y195495*
G75*
G02X85200Y196450I955J954*
G01*
Y203200*
X82900*
Y201318*
X85100*
Y191900*
X78000*
Y195376*
G75*
G02X77595Y195654I550J1233*
G01*
X76500Y196750*
Y191900*
X69400*
Y192700*
X68550*
G75*
G02X67595Y193095I0J1350*
G01*
X62795Y197895*
G75*
G02X62400Y198850I955J954*
G01*
Y203200*
X57800*
Y206800*
X39535*
G37*
X57800D02*
G36*
Y211700D01*
X66300*
Y203200*
X65100*
Y199409*
X69109Y195400*
X69168*
X67684Y196884*
G75*
G02X67243Y197950I1066J1066*
G01*
Y201850*
G75*
G02X67668Y202900I1507J0*
G01*
X67959Y203200*
X67800*
Y211700*
X75491*
X73991Y213200*
X67800*
Y217450*
X66300*
Y213200*
X57800*
Y217450*
X50185*
X39535Y206800*
X57800*
G37*
X177800D02*
G36*
Y211700D01*
X186300*
Y206800*
X202865*
X192215Y217450*
X186300*
Y213200*
X177800*
Y217450*
X176300*
Y213200*
X167800*
Y217450*
X166300*
Y213200*
X163400*
Y211700*
X166300*
Y205109*
X167800Y203609*
Y211700*
X176300*
Y206800*
X177800*
G37*
X57800Y217450D02*
G36*
Y221700D01*
X66300*
Y217450*
X67800*
Y221700*
X76300*
Y214709*
X77800Y213209*
Y221700*
X86300*
Y215509*
X87505Y214305*
G75*
G02X87800Y213860I-955J-954*
G01*
Y221700*
X96300*
Y214909*
X97800Y213409*
Y221700*
X106300*
Y214109*
X107505Y212905*
G75*
G02X107900Y211950I-955J-954*
G01*
Y211700*
X115800*
Y211791*
X114391Y213200*
X107800*
Y221700*
X116300*
Y215109*
X117800Y213609*
Y221700*
X126300*
Y215109*
X127800Y213609*
Y221700*
X136300*
Y215109*
X137800Y213609*
Y221700*
X146300*
Y215109*
X147705Y213705*
G75*
G02X147800Y213598I-957J-954*
G01*
Y221700*
X156300*
Y215109*
X157800Y213609*
Y221700*
X166300*
Y217450*
X167800*
Y221700*
X176300*
Y217450*
X177800*
Y221700*
X186300*
Y217450*
X192215*
X170215Y239450*
X72185*
X50185Y217450*
X57800*
G37*
X51239Y169461D02*
G36*
X59350Y161350D01*
Y153850*
X157200*
Y158100*
X165700*
Y153850*
X168547*
Y161250*
G75*
G02X168550Y161337I1203*
G01*
Y162350*
X175661Y169461*
X160952*
X158900Y167409*
Y159822*
X149494*
Y169461*
X140170*
X140100Y169391*
Y159822*
X130694*
Y169569*
X127283Y172985*
G75*
G02X126843Y174050I1067J1065*
G01*
Y174424*
G75*
G02X125900Y175560I1408J2126*
G01*
G75*
G02X124700Y174274I-2350J990*
G01*
Y172350*
G75*
G02X124305Y171395I-1350J0*
G01*
X122500Y169591*
Y159822*
X113094*
Y169970*
X111982Y171086*
G75*
G02X111543Y172150I1067J1064*
G01*
Y172493*
G75*
G02X110554Y175074I1508J2057*
G01*
G75*
G02X109726Y174387I-2005J1576*
G01*
G75*
G02X109505Y174095I-1176J663*
G01*
X104700Y169291*
Y159822*
X95294*
Y168752*
X94570Y169461*
X84300*
Y159822*
X74894*
Y168670*
X74106Y169461*
X51239*
G37*
X59350Y138050D02*
G36*
Y133452D01*
X74048Y118753*
X98047*
Y121450*
G75*
G02X98150Y121937I1203*
G01*
Y123350*
X131778*
X127864Y127264*
G75*
G02X132036Y131436I2086J2086*
G01*
X140122Y123350*
X161078*
X159864Y124564*
G75*
G02X164036Y128736I2086J2086*
G01*
X167036Y125736*
X168547Y127247*
Y138050*
X145291*
X146456Y136907*
G75*
G02X149703Y134450I694J-2457*
G01*
G75*
G02X145685Y132359I-2553*
G01*
G75*
G02X144474Y132946I265J2091*
G01*
X139689Y137643*
X134600*
Y137300*
X125800*
Y141100*
X122800*
Y132900*
X114000*
Y137700*
X113518*
G75*
G02X111182I-1168J1950*
G01*
X110530*
G75*
G02X106901Y138050I-1643J1950*
G01*
X73300*
G75*
G02X68200I-2550*
G01*
X59350*
G37*
X68200D02*
G36*
G75*
G02X73300I2550D01*
G01*
X106901*
G75*
G02X106337Y139650I1986J1600*
G01*
G75*
G02X110400Y141702I2550*
G01*
Y143850*
X59350*
Y138050*
X68200*
G37*
X168547D02*
G36*
Y143850D01*
X165700*
Y139600*
X157200*
Y143850*
X134600*
Y141857*
X140550*
G75*
G02X142026Y141254J-2108*
G01*
X145291Y138050*
X168547*
G37*
X110400Y143850D02*
G36*
Y145500D01*
X102950*
G75*
G02X101571Y146071I0J1950*
G01*
X100333Y147309*
G75*
G02X98000Y149850I217J2541*
G01*
G75*
G02X103091Y150067I2550*
G01*
X103758Y149400*
X110400*
Y149900*
X126700*
Y149813*
G75*
G02X129994Y146000I1350J-2163*
G01*
X134600*
Y143850*
X157200*
Y148100*
X165700*
Y143850*
X168547*
Y153850*
X165700*
Y149600*
X157200*
Y153850*
X59350*
Y143850*
X110400*
G37*
X50600Y112449D02*
Y111650D01*
G75*
G02X50175Y110625I-1450*
G01*
X42000Y102449*
Y101151*
X81151Y62000*
X83385*
X64681Y80703*
X70904Y86926*
X73514Y84316*
G75*
G02X76487Y86562I2536J-266*
G01*
X50600Y112449*
X51033Y95509D02*
G75*
G02X48700Y98050I217J2541D01*
G01*
G75*
G02X53791Y98267I2550*
G01*
X53876Y98182*
X55135Y99442*
X61358Y93219*
X55701Y87562*
X49478Y93785*
X51118Y95424*
X51033Y95509*
X49070Y94081D02*
G36*
X81151Y62000D01*
X83385*
X64681Y80703*
X70904Y86926*
X73514Y84316*
G75*
G02X76487Y86562I2536J-266*
G01*
X68968Y94081*
X60496*
X61358Y93219*
X55701Y87562*
X49478Y93785*
X49775Y94081*
X49070*
G37*
X49775D02*
G36*
X51118Y95424D01*
X51033Y95509*
G75*
G02X48700Y98050I217J2541*
G01*
G75*
G02X53791Y98267I2550*
G01*
X53876Y98182*
X55135Y99442*
X60496Y94081*
X68968*
X50600Y112449*
Y111650*
G75*
G02X50175Y110625I-1450*
G01*
X42000Y102449*
Y101151*
X49070Y94081*
X49775*
G37*
X79849Y77981D02*
X83587Y74243D01*
X86230Y76820*
X81898Y81152*
G75*
G02X81900Y81050I-2552J-100*
G01*
G75*
G02X80625Y78841I-2550*
G01*
G75*
G02X80375Y78507I-1274J693*
G01*
X79849Y77981*
G36*
X83587Y74243*
X86230Y76820*
X81898Y81152*
G75*
G02X81900Y81050I-2552J-100*
G01*
G75*
G02X80625Y78841I-2550*
G01*
G75*
G02X80375Y78507I-1274J693*
G01*
X79849Y77981*
G37*
X168014Y124714D02*
G75*
G02X168600Y122950I-2364J-1765D01*
G01*
Y122370*
X169047*
Y115933*
X168600*
Y113921*
X169921*
Y109059*
X168010*
G75*
G02X164607I-1702J2431*
G01*
X162696*
Y111300*
X160799*
Y110799*
X152200*
Y109421*
X152704*
Y109098*
X153901*
Y109100*
X158799*
Y100299*
X158231*
G75*
G02X157840Y99760I-1880J952*
G01*
X156140Y98060*
G75*
G02X154650Y97443I-1490J1490*
G01*
X152704*
Y97078*
X152200*
Y96067*
X153470*
Y95027*
G75*
G02X157459Y92492I1480J-2077*
G01*
X179051Y70900*
X206500*
Y73700*
X215000*
Y65200*
X206500*
Y68000*
X178450*
G75*
G02X177425Y68425J1450*
G01*
X155408Y90441*
G75*
G02X153470Y90873I-458J2509*
G01*
Y89236*
X150998*
X149403Y87681*
X152322*
Y80456*
X152157*
G75*
G02X151540Y79023I-2107J57*
G01*
X149961Y77444*
X151447*
G75*
G02X155694Y78000I2303J-1094*
G01*
X160450*
G75*
G02X161475Y77575J-1450*
G01*
X176375Y62675*
G75*
G02X176800Y61650I-1025J-1025*
G01*
Y42150*
G75*
G02X176375Y41125I-1450*
G01*
X175275Y40025*
G75*
G02X174600Y39643I-1025J1025*
G01*
Y37500*
X174606*
G75*
G02X179100Y35850I1944J-1650*
G01*
G75*
G02X174600Y34207I-2550*
G01*
Y18850*
X185915*
X239450Y72385*
Y77552*
G75*
G02X219050Y81050I-9900J3498*
G01*
G75*
G02X239450Y84548I10500*
G01*
Y96649*
X237444*
G75*
G02X237800Y95350I-2194J-1300*
G01*
G75*
G02X232700I-2550*
G01*
G75*
G02X233225Y96900I2550*
G01*
X232299*
Y96649*
X226600*
Y99022*
G75*
G02Y100678I2850J828*
G01*
Y103051*
X232299*
Y102800*
X235000*
Y103051*
X239450*
Y137252*
X235000*
Y138000*
X232299*
Y137252*
X228200*
Y134600*
X230948*
Y131366*
G75*
G02X233650Y133000I2702J-1416*
G01*
G75*
G02Y126900J-3050*
G01*
G75*
G02X230948Y128534J3050*
G01*
Y123401*
X228450*
Y116901*
X230948*
Y111766*
G75*
G02X233650Y113400I2702J-1416*
G01*
G75*
G02Y107300J-3050*
G01*
G75*
G02X230948Y108934J3050*
G01*
Y105700*
X222551*
Y108610*
X222500Y108662*
Y105901*
X221657*
Y104644*
G75*
G02X222500Y102750I-1708J-1894*
G01*
G75*
G02X217400I-2550*
G01*
G75*
G02X218443Y104807I2550*
G01*
Y105901*
X213100*
Y114700*
X214100*
Y116052*
G75*
G02X213400Y116779I1450J2098*
G01*
G75*
G02X212857Y116170I-2150J1371*
G01*
Y106250*
G75*
G02X212385Y105111I-1607*
G01*
X200021Y92789*
Y89980*
X195957*
Y89722*
G75*
G02X196184Y86921I-2007J-1572*
G01*
X200021*
Y79696*
X195957*
Y78801*
X196299*
Y73901*
X187500*
Y78801*
X191743*
Y79696*
X187679*
Y86921*
X191716*
G75*
G02X191644Y89239I2234J1229*
G01*
Y89980*
X187679*
Y91394*
G75*
G02X186199Y93952I1470J2557*
G01*
Y103651*
G75*
G02X187064Y105737I2950J0*
G01*
X191265Y109936*
G75*
G02X193350Y110800I2086J-2086*
G01*
X196330*
Y111547*
X202767*
Y110018*
X204400Y111651*
Y118950*
G75*
G02X204825Y119975I1450*
G01*
X211925Y127075*
G75*
G02X212950Y127500I1025J-1025*
G01*
X222551*
Y128700*
X230868*
G75*
G02X230670Y129299I2782J1249*
G01*
X222551*
Y134600*
X225300*
Y137249*
X225208Y137341*
G75*
G02X222200Y139850I-458J2509*
G01*
G75*
G02X224742Y142400I2550*
G01*
X220742Y146400*
X213487*
G75*
G02X213107Y146035I-2237J1949*
G01*
X206551Y139479*
Y128901*
X200149*
Y145200*
X203928*
X208935Y150207*
G75*
G02X210134Y151100I2315J-1857*
G01*
X208448*
Y167000*
X216850*
Y151100*
X212366*
G75*
G02X213487Y150300I-1116J-2750*
G01*
X221550*
G75*
G02X222929Y149729I0J-1950*
G01*
X229009Y143649*
X232299*
Y142900*
X235000*
Y143649*
X239450*
Y157552*
G75*
G02X219050Y161050I-9900J3498*
G01*
G75*
G02X239450Y164548I10500*
G01*
Y170215*
X209082Y200582*
X169750Y161250*
Y126450*
X168014Y124714*
X169143Y100085D02*
Y101578D01*
X162696*
Y106441*
X169179*
G75*
G02X169760Y107540I2071J-391*
G01*
X171560Y109340*
G75*
G02X172980Y109956I1490J-1490*
G01*
Y113921*
X180204*
Y109700*
X180901*
Y114100*
X185799*
Y105299*
X180901*
Y105800*
X180204*
Y101578*
X173357*
Y100085*
G75*
G02X173800Y98650I-2107J-1435*
G01*
G75*
G02X168700I-2550*
G01*
G75*
G02X169143Y100085I2550*
G01*
X175700Y81050D02*
G75*
G02X180800I2550D01*
G01*
G75*
G02X175700I-2550*
G01*
X180937Y33447D02*
X186947Y27437D01*
X180937Y21426*
X174926Y27437*
X180937Y33447*
X183400Y136750D02*
G75*
G02X178300I-2550D01*
G01*
G75*
G02X183400I2550*
G01*
X188008Y40518D02*
X194018Y34508D01*
X188008Y28498*
X181998Y34508*
X188008Y40518*
X190350Y167000D02*
Y151100D01*
X181948*
Y167000*
X190350*
X191800Y156950D02*
G75*
G02X196900I2550D01*
G01*
G75*
G02X191800I-2550*
G01*
X192500Y128901D02*
X192252D01*
Y145200*
X198649*
Y128901*
X198400*
Y120472*
X200325Y118547*
X202767*
Y111756*
X196330*
Y114198*
X193364Y117164*
G75*
G02X192500Y119250I2086J2086*
G01*
Y128901*
X195079Y47589D02*
X201089Y41579D01*
X195079Y35569*
X189069Y41579*
X195079Y47589*
X202150Y54660D02*
X208160Y48650D01*
X202150Y42640*
X196140Y48650*
X202150Y54660*
X206500Y63700D02*
X215000D01*
Y55200*
X206500*
Y63700*
Y83700D02*
X215000D01*
Y75200*
X206500*
Y83700*
Y93700D02*
X215000D01*
Y85200*
X206500*
Y93700*
X221600Y65350D02*
G75*
G02X226700I2550D01*
G01*
G75*
G02X221600I-2550*
G01*
X158799Y105100D02*
G36*
Y100299D01*
X158231*
G75*
G02X157840Y99760I-1880J952*
G01*
X156140Y98060*
G75*
G02X154650Y97443I-1490J1490*
G01*
X152704*
Y97078*
X152200*
Y96067*
X153470*
Y95027*
G75*
G02X157459Y92492I1480J-2077*
G01*
X168901Y81050*
X175700*
G75*
G02X180800I2550*
G01*
X187679*
Y86921*
X191716*
G75*
G02X191644Y89239I2234J1229*
G01*
Y89980*
X187679*
Y91394*
G75*
G02X186199Y93952I1470J2557*
G01*
Y103651*
G75*
G02X186580Y105100I2950J0*
G01*
X180204*
Y101578*
X173357*
Y100085*
G75*
G02X173800Y98650I-2107J-1435*
G01*
G75*
G02X168700I-2550*
G01*
G75*
G02X169143Y100085I2550*
G01*
Y101578*
X162696*
Y105100*
X158799*
G37*
X162696D02*
G36*
Y106441D01*
X169179*
G75*
G02X169760Y107540I2071J-391*
G01*
X171560Y109340*
G75*
G02X172980Y109956I1490J-1490*
G01*
Y113921*
X180204*
Y109700*
X180901*
Y114100*
X185799*
Y105299*
X180901*
Y105800*
X180204*
Y105100*
X186580*
G75*
G02X187064Y105737I2569J-1449*
G01*
X191265Y109936*
G75*
G02X193350Y110800I2086J-2086*
G01*
X196330*
Y111547*
X202767*
Y110018*
X204400Y111651*
Y118950*
G75*
G02X204825Y119975I1450*
G01*
X211925Y127075*
G75*
G02X212950Y127500I1025J-1025*
G01*
X222551*
Y128700*
X230868*
G75*
G02X230670Y129299I2782J1249*
G01*
X222551*
Y134600*
X225300*
Y137249*
X225208Y137341*
G75*
G02X222200Y139850I-458J2509*
G01*
G75*
G02X224742Y142400I2550*
G01*
X220742Y146400*
X213487*
G75*
G02X213107Y146035I-2237J1949*
G01*
X206551Y139479*
Y128901*
X200149*
Y136750*
X198649*
Y128901*
X198400*
Y120472*
X200325Y118547*
X202767*
Y111756*
X196330*
Y114198*
X193364Y117164*
G75*
G02X192500Y119250I2086J2086*
G01*
Y128901*
X192252*
Y136750*
X183400*
G75*
G02X178300I-2550*
G01*
X169750*
Y126450*
X168014Y124714*
G75*
G02X168600Y122950I-2364J-1765*
G01*
Y122370*
X169047*
Y115933*
X168600*
Y113921*
X169921*
Y109059*
X168010*
G75*
G02X164607I-1702J2431*
G01*
X162696*
Y111300*
X160799*
Y110799*
X152200*
Y109421*
X152704*
Y109098*
X153901Y109100*
X158799*
Y105100*
X162696*
G37*
X168901Y81050D02*
G36*
X179051Y70900D01*
X206500*
Y73700*
X215000*
Y65350*
X221600*
G75*
G02X226700I2550*
G01*
X232415*
X239450Y72385*
Y77552*
G75*
G02X219050Y81050I-9900J3498*
G01*
X215000*
Y75200*
X206500*
Y81050*
X200021*
Y79696*
X195957*
Y78801*
X196299*
Y73901*
X187500*
Y78801*
X191743*
Y79696*
X187679*
Y81050*
X180800*
G75*
G02X175700I-2550*
G01*
X168901*
G37*
X206500D02*
G36*
Y83700D01*
X215000*
Y81050*
X219050*
G75*
G02X223250Y89450I10500*
G01*
X215000*
Y85200*
X206500*
Y89450*
X196144*
G75*
G02X196184Y86921I-2194J-1300*
G01*
X200021*
Y81050*
X206500*
G37*
X174600Y27437D02*
G36*
Y18850D01*
X185915*
X194501Y27437*
X186947*
X180937Y21426*
X174926Y27437*
X174600*
G37*
X174926D02*
G36*
X180937Y33447D01*
X186947Y27437*
X194501*
X201572Y34508*
X194018*
X188008Y28498*
X181998Y34508*
X178718*
G75*
G02X174600Y34207I-2168J1342*
G01*
Y27437*
X174926*
G37*
X178300Y136750D02*
G36*
G75*
G02X183400I2550D01*
G01*
X192252*
Y145200*
X198649*
Y136750*
X200149*
Y145200*
X203928*
X208935Y150207*
G75*
G02X210134Y151100I2315J-1857*
G01*
X208448*
Y159050*
X195797*
G75*
G02X196900Y156950I-1447J-2100*
G01*
G75*
G02X191800I-2550*
G01*
G75*
G02X192903Y159050I2550*
G01*
X190350*
Y151100*
X181948*
Y159050*
X169750*
Y136750*
X178300*
G37*
X181998Y34508D02*
G36*
X188008Y40518D01*
X194018Y34508*
X201572*
X208643Y41579*
X201089*
X195079Y35569*
X189069Y41579*
X176683*
G75*
G02X176375Y41125I-1333J572*
G01*
X175275Y40025*
G75*
G02X174600Y39643I-1025J1025*
G01*
Y37500*
X174606*
G75*
G02X179100Y35850I1944J-1650*
G01*
G75*
G02X178718Y34508I-2550*
G01*
X181998*
G37*
X181948Y159050D02*
G36*
Y167000D01*
X190350*
Y159050*
X192903*
G75*
G02X195797I1447J-2100*
G01*
X208448*
Y167000*
X216850*
Y151100*
X212366*
G75*
G02X213487Y150300I-1116J-2750*
G01*
X221550*
G75*
G02X222929Y149729I0J-1950*
G01*
X229009Y143649*
X232299*
Y142900*
X235000*
Y143649*
X239450*
Y157552*
G75*
G02X219050Y161050I-9900J3498*
G01*
G75*
G02X239450Y164548I10500*
G01*
Y170215*
X209082Y200582*
X169750Y161250*
Y159050*
X181948*
G37*
X189069Y41579D02*
G36*
X195079Y47589D01*
X201089Y41579*
X208643*
X215715Y48650*
X208160*
X202150Y42640*
X196140Y48650*
X176800*
Y42150*
G75*
G02X176683Y41579I-1450*
G01*
X189069*
G37*
X196140Y48650D02*
G36*
X202150Y54660D01*
X208160Y48650*
X215715*
X226515Y59450*
X215000*
Y55200*
X206500*
Y59450*
X176800*
Y48650*
X196140*
G37*
X206500Y59450D02*
G36*
Y63700D01*
X215000*
Y59450*
X226515*
X232415Y65350*
X226700*
G75*
G02X221600I-2550*
G01*
X215000*
Y65200*
X206500*
Y68000*
X178450*
G75*
G02X177425Y68425J1450*
G01*
X155408Y90441*
G75*
G02X153470Y90873I-458J2509*
G01*
Y89236*
X150998*
X149403Y87681*
X152322*
Y80456*
X152157*
G75*
G02X151540Y79023I-2107J57*
G01*
X149961Y77444*
X151447*
G75*
G02X155694Y78000I2303J-1094*
G01*
X160450*
G75*
G02X161475Y77575J-1450*
G01*
X176375Y62675*
G75*
G02X176800Y61650I-1025J-1025*
G01*
Y59450*
X206500*
G37*
Y89450D02*
G36*
Y93700D01*
X215000*
Y89450*
X223250*
G75*
G02X239450Y84548I6300J-8400*
G01*
Y96649*
X237444*
G75*
G02X237800Y95350I-2194J-1300*
G01*
G75*
G02X232700I-2550*
G01*
G75*
G02X233225Y96900I2550*
G01*
X232299*
Y96649*
X226600*
Y99022*
G75*
G02Y100678I2850J828*
G01*
Y103051*
X232299*
Y102800*
X235000*
Y103051*
X239450*
Y137252*
X235000*
Y138000*
X232299*
Y137252*
X228200*
Y134600*
X230948*
Y131366*
G75*
G02X233650Y133000I2702J-1416*
G01*
G75*
G02Y126900J-3050*
G01*
G75*
G02X230948Y128534J3050*
G01*
Y123401*
X228450*
Y116901*
X230948*
Y111766*
G75*
G02X233650Y113400I2702J-1416*
G01*
G75*
G02Y107300J-3050*
G01*
G75*
G02X230948Y108934J3050*
G01*
Y105700*
X222551*
Y108610*
X222500Y108662*
Y105901*
X221657*
Y104644*
G75*
G02X222500Y102750I-1708J-1894*
G01*
G75*
G02X217400I-2550*
G01*
G75*
G02X218443Y104807I2550*
G01*
Y105901*
X213100*
Y114700*
X214100*
Y116052*
G75*
G02X213400Y116779I1450J2098*
G01*
G75*
G02X212857Y116170I-2150J1371*
G01*
Y106250*
G75*
G02X212385Y105111I-1607*
G01*
X200021Y92789*
Y89980*
X195957*
Y89722*
G75*
G02X196144Y89450I-2007J-1573*
G01*
X206500*
G37*
D02*
D11*
X44043Y131657D02*
Y131143D01*
X40550Y127650*
X49150Y119050*
Y111650*
X40550Y103050*
Y100550*
X80550Y60550*
X84692*
X87874Y63733*
X51115Y124585D02*
X51350D01*
Y113750*
X88050Y77050*
Y76350*
X87850Y76150*
X86250Y74570*
X81793Y70114*
Y69814*
X58185Y117515D02*
X57750D01*
Y111250*
X64350Y104650*
X66350*
X70850Y109150*
X75550*
X87650Y97050*
X97350*
X72672Y78935D02*
X76050Y82314D01*
Y84050*
X75712Y75895D02*
X79350Y79533D01*
Y81050*
X76644Y161572D02*
Y159572D01*
Y162450D02*
X74644D01*
X78613Y161572D02*
Y159572D01*
X79750Y194050D02*
X77750D01*
X80581Y161572D02*
Y159572D01*
X81550Y193650D02*
Y191650D01*
X81793Y69814D02*
X81950D01*
Y70250*
X87950Y76250*
X108650*
Y76050*
X82550Y161572D02*
Y159572D01*
Y162450D02*
X84550D01*
X83350Y194050D02*
X85350D01*
X92550Y93650D02*
Y79850D01*
X88750*
X71650Y96950*
Y103095*
X72228Y103672*
Y103372*
X72328*
X92550Y93650D02*
Y79950D01*
X97044Y161572D02*
Y159572D01*
Y162450D02*
X95044D01*
X97350Y97050D02*
Y82950D01*
X99013Y161572D02*
Y159572D01*
X99150Y194250D02*
X97150D01*
X100950Y193850D02*
Y191850D01*
X100981Y161572D02*
Y159572D01*
X101750Y72550D02*
X100550D01*
X110150Y62950*
X122850*
X130550Y55250*
Y55150*
X139850*
X102750Y194250D02*
X104750D01*
X102950Y161572D02*
Y159572D01*
Y162450D02*
X104950D01*
X103850Y47650D02*
Y56950D01*
X94150Y66650*
X90792*
X87874Y63733*
X105050Y100250D02*
Y100350D01*
X87950*
X76550Y111750*
X66750*
X65443Y110443*
X65257*
X113950Y31050D02*
Y32050D01*
X73650*
X27650Y78050*
Y127715*
X27685*
X113950Y41050D02*
X89950D01*
X32350Y98650*
Y118250*
X34857Y120757*
Y120643*
X34757*
X113950Y46050D02*
X107550D01*
X105550Y44050*
X92450*
X36750Y99750*
Y109550*
X41550Y114350*
X41650Y113750*
X41828Y113572*
X114844Y161572D02*
Y159572D01*
Y162450D02*
X112844D01*
X116813Y161572D02*
Y159572D01*
X118781Y161572D02*
Y159572D01*
X119350Y194650D02*
X117350D01*
X120350Y134650D02*
Y132650D01*
X120750Y161572D02*
Y159572D01*
Y162450D02*
X122750D01*
X121050Y135350D02*
X123050D01*
X121050Y139150D02*
X123050D01*
X121150Y194250D02*
Y192250D01*
X121296Y142704D02*
X123150Y140850D01*
X122950Y194650D02*
X124950D01*
X124250Y142850D02*
Y140850D01*
X125350Y80650D02*
Y84150D01*
X121950Y87550*
X127404Y142704D02*
X125550Y140850D01*
X127550Y139750D02*
X125550D01*
X128250Y139050D02*
Y137050D01*
X132444Y161572D02*
Y159572D01*
Y162450D02*
X130444D01*
X134413Y161572D02*
Y159572D01*
X136381Y161572D02*
Y159572D01*
X138350Y161572D02*
Y159572D01*
Y162450D02*
X140350D01*
X139150Y194850D02*
X137150D01*
X140950Y194450D02*
Y192450D01*
X142750Y194850D02*
X144750D01*
X151244Y161572D02*
Y159572D01*
Y162450D02*
X149244D01*
X152450Y30550D02*
X159650D01*
Y31050*
X166750*
X152450Y30550D02*
Y54150D01*
X157750Y59450*
Y70250*
X156850Y71150*
Y71950*
X153213Y161572D02*
Y159572D01*
X153750Y76350D02*
Y76550D01*
X160450*
X175350Y61650*
Y42150*
X174250Y41050*
X166750*
X155181Y161572D02*
Y159572D01*
Y167568D02*
Y162450D01*
X156850Y51050D02*
X156650Y51250D01*
X157150Y161572D02*
Y159572D01*
Y162450D02*
X159150D01*
X158950Y143850D02*
X156950D01*
X159150Y195050D02*
X157150D01*
X160950Y194650D02*
Y192650D01*
X161450Y141350D02*
Y139350D01*
Y146350D02*
Y148350D01*
X162750Y195050D02*
X164750D01*
X163950Y143850D02*
X165950D01*
X166750Y36050D02*
X176350D01*
X176550Y35850*
X166750Y46050D02*
X156550D01*
X156450Y46150*
X169550Y207450D02*
X167550D01*
X169550Y217450D02*
X167550D01*
X172050Y204950D02*
Y202950D01*
Y209950D02*
Y211950D01*
Y214950D02*
Y212950D01*
Y219950D02*
Y221950D01*
X174550Y207450D02*
X176550D01*
X174550Y217450D02*
X176550D01*
X179350Y195250D02*
X177350D01*
X179350Y200368D02*
X177350D01*
X181150Y194850D02*
Y192850D01*
Y200768D02*
Y202768D01*
X182950Y195250D02*
X184950D01*
X197590Y93592D02*
Y93550D01*
X198550*
X211250Y106250*
Y118150*
X199550Y108150D02*
X202950D01*
X205850Y111050*
Y118950*
X212950Y126050*
X226750*
X210750Y69450D02*
X178450D01*
X154950Y92950*
X215550Y112250D02*
Y118150D01*
X220050Y108350D02*
Y102850D01*
X219950Y102750*
X220050Y108350D02*
X215550D01*
X220050Y112250D02*
Y118050D01*
X226750Y108350D02*
X225550D01*
Y108450*
X225050*
X221050Y112450*
X220650Y112550*
Y112250*
X220050*
X226750Y131950D02*
Y137850D01*
X224750Y139850*
X235250Y95350D02*
Y99550D01*
X235150Y99650*
X229450*
Y99850*
D02*
D12*
X62050Y207450D03*
Y217450D03*
X72050Y207450D03*
Y217450D03*
X82050Y207450D03*
Y217450D03*
X92050Y207450D03*
Y217450D03*
X102050Y207450D03*
Y217450D03*
X112050Y207450D03*
Y217450D03*
X122050Y207450D03*
Y217450D03*
X132050Y207450D03*
Y217450D03*
X142050Y207450D03*
Y217450D03*
X152050Y207450D03*
Y217450D03*
X161450Y143850D03*
Y153850D03*
X162050Y207450D03*
Y217450D03*
X172050Y207450D03*
Y217450D03*
X182050Y207450D03*
Y217450D03*
X210750Y59450D03*
Y69450D03*
Y79450D03*
Y89450D03*
D02*
D13*
X29901Y145799D03*
X36972Y138728D03*
X44043Y131657D03*
X51115Y124585D03*
X58185Y117515D03*
X65257Y110443D03*
X72328Y103372D03*
X79399Y96301D03*
X180937Y27437D03*
X188008Y34508D03*
X195079Y41579D03*
X202150Y48650D03*
D02*
D14*
X30750Y65250D03*
X41950Y162750D03*
X51250Y98050D03*
X69350Y184650D03*
X70750Y138050D03*
X74050Y174550D03*
X76050Y84050D03*
X77950Y176550D03*
X78150Y35450D03*
X79350Y81050D03*
X79488Y10512D03*
X82050Y174550D03*
X83350Y77550D03*
X85750Y176550D03*
X88150Y54350D03*
X88250Y90450D03*
X89550Y71450D03*
X92550Y79950D03*
Y93650D03*
X92850Y174550D03*
X95150Y114750D03*
X97150Y176550D03*
X97350Y82950D03*
Y97050D03*
X98650Y47650D03*
X99550Y21850D03*
X100550Y149850D03*
X100950Y127850D03*
X101250Y111350D03*
X101750Y37350D03*
Y72550D03*
X102850Y176550D03*
X103750Y95350D03*
X103850Y47650D03*
X104450Y63450D03*
X105050Y100250D03*
X108550Y176650D03*
X108650Y76050D03*
X108887Y139650D03*
X111650Y66250D03*
X111850Y96850D03*
X113050Y174550D03*
X116450Y100750D03*
Y105350D03*
X116550Y176550D03*
X119550Y112850D03*
X120050Y174550D03*
X123550Y50950D03*
Y176550D03*
X124750Y137750D03*
X125350Y80650D03*
X125550Y67150D03*
X126050Y92950D03*
X127850Y63250D03*
X128050Y147650D03*
X128150Y110450D03*
X128250Y176550D03*
X128350Y105450D03*
X128450Y100250D03*
X129950Y129350D03*
X130350Y72850D03*
X133050Y155450D03*
X133450Y176550D03*
X134650Y44150D03*
X134750Y59650D03*
X136450Y86850D03*
X137850Y67450D03*
X139350Y176650D03*
X139850Y55150D03*
X144250Y174550D03*
X145550Y57250D03*
X147150Y134450D03*
X150350Y117850D03*
X151250Y176550D03*
X152450Y30550D03*
X153350Y65550D03*
X153450Y61050D03*
X153750Y76350D03*
X154950Y21050D03*
Y92950D03*
X155350Y174750D03*
X156450Y46150D03*
X156650Y51250D03*
X156850Y71950D03*
X161750Y174550D03*
X161950Y126650D03*
X162350Y63450D03*
X171250Y98650D03*
X171550Y185750D03*
X176550Y35850D03*
X177350Y96550D03*
X178250Y81050D03*
X180850Y136750D03*
X184850Y84250D03*
X189750Y133650D03*
X193950Y88150D03*
X194350Y156950D03*
X211250Y118150D03*
Y148350D03*
X215550Y118150D03*
X219950Y102750D03*
X220050Y118050D03*
X224150Y65350D03*
X224750Y139850D03*
X235250Y95350D03*
D02*
D15*
X116450Y135350D03*
Y139150D03*
X120350Y135350D03*
Y139150D03*
X128250Y139750D03*
Y143550D03*
X132150Y139750D03*
Y143550D03*
X133950Y92850D03*
X137850D03*
X146350Y113350D03*
X150250D03*
X154450Y113250D03*
X158350D03*
X189950Y76351D03*
X190050Y101150D03*
X193850Y76351D03*
X193950Y101150D03*
D02*
D16*
X72950Y194050D03*
Y196550D03*
Y199050D03*
X81550Y194050D03*
Y196609D03*
Y199168D03*
X92350Y194250D03*
Y196750D03*
Y199250D03*
X100950Y194250D03*
Y196809D03*
Y199368D03*
X112550Y194650D03*
Y197150D03*
Y199650D03*
X121150Y194650D03*
Y197209D03*
Y199768D03*
X132350Y194850D03*
Y197350D03*
Y199850D03*
X140950Y194850D03*
Y197409D03*
Y199968D03*
X152350Y195050D03*
Y197550D03*
Y200050D03*
X160950Y195050D03*
Y197609D03*
Y200168D03*
X172550Y195250D03*
Y197750D03*
Y200250D03*
X181150Y195250D03*
Y197809D03*
Y200368D03*
D02*
D17*
X112850Y143550D03*
Y147450D03*
X116650Y143550D03*
Y147450D03*
X120450Y143550D03*
Y147450D03*
X124250Y143550D03*
Y147450D03*
X156350Y102750D03*
Y106650D03*
X183350Y107750D03*
Y111650D03*
X215550Y108350D03*
Y112250D03*
X220050Y108350D03*
Y112250D03*
D02*
D18*
X76644Y162450D03*
Y167568D03*
X78613Y162450D03*
Y167568D03*
X80581Y162450D03*
Y167568D03*
X82550Y162450D03*
Y167568D03*
X97044Y162450D03*
Y167568D03*
X99013Y162450D03*
Y167568D03*
X100981Y162450D03*
Y167568D03*
X102950Y162450D03*
Y167568D03*
X114844Y162450D03*
Y167568D03*
X116813Y162450D03*
Y167568D03*
X118781Y162450D03*
Y167568D03*
X120750Y162450D03*
Y167568D03*
X132444Y162450D03*
Y167568D03*
X134413Y162450D03*
Y167568D03*
X136381Y162450D03*
Y167568D03*
X138350Y162450D03*
Y167568D03*
X151244Y162450D03*
Y167568D03*
X153213Y162450D03*
Y167568D03*
X155181Y162450D03*
Y167568D03*
X157150Y162450D03*
Y167568D03*
D02*
D19*
X26215Y69248D02*
X26752D01*
X30750Y65250*
X55418Y93502D02*
Y93882D01*
X51250Y98050*
X78753Y72854D02*
Y72953D01*
X83350Y77550*
X84834Y66773D02*
X84873D01*
X89550Y71450*
X95794Y52560D02*
X89940D01*
X88150Y54350*
X100550Y149850D02*
X102950Y147450D01*
X112850*
X108887Y139650D02*
X112350D01*
X115950*
X116450Y139150*
X112850Y143550D02*
X112750D01*
Y140550*
X113550*
X115250Y142250*
Y140150*
X116650*
X112850Y143550D02*
Y143250D01*
X113550*
Y140350*
X112850Y139650*
X112350*
X112850Y143550D02*
X116650D01*
X112850Y147450D02*
X116550D01*
Y147350*
X116650*
Y147450*
X113950Y6050D02*
Y11050D01*
Y21050D02*
X106250D01*
X103050Y17850*
Y6350*
X102750Y6050*
X99850*
X116450Y135350D02*
Y139150D01*
X116650Y140150D02*
Y139650D01*
X116450*
Y139150*
X116650Y143550D02*
Y140150D01*
Y147450D02*
X120450D01*
X120350Y139150D02*
X120150Y135350D01*
Y137750*
X124750*
X120350Y139150D02*
Y135350D01*
X120450Y143550D02*
X120750D01*
X122550Y141750*
X120450Y143550D02*
X121150D01*
X120450D02*
X120250D01*
Y139250*
X120350Y139150*
X124250Y143550D02*
X120450D01*
X124250Y147450D02*
X127850D01*
X128050Y147650*
X124250Y147450D02*
X120450D01*
X124750Y137750D02*
X125750D01*
X126550Y138650*
Y143450*
X127750*
X128300Y143350*
X128250*
Y143550*
X124750Y137750D02*
X124787Y141950D01*
X125250*
Y143550*
X124250*
X128250Y139750D02*
Y141850D01*
X127350*
Y143650*
X128250*
Y143550*
X128950Y87550D02*
X135750D01*
X136450Y86850*
X132150Y139750D02*
Y139850D01*
X140550*
X145950Y134450*
X147150*
X132150Y143550D02*
Y139750D01*
X133950Y92850D02*
Y99550D01*
X138808*
Y99510*
X134150Y114350D02*
X121050D01*
X119550Y112850*
X135250Y73850D02*
Y73750D01*
X142510*
Y73832*
X135250Y80850D02*
X137150D01*
Y80650*
X139050Y78750*
X148287*
X150050Y80513*
Y83745*
X149990Y83805*
Y84068*
X137850Y92850D02*
Y90850D01*
X136450Y89450*
Y86850*
X142510Y84068D02*
Y84250D01*
X139050*
X136650Y86650*
X136450*
Y86850*
X146250Y73832D02*
Y69250D01*
Y84068D02*
X146350D01*
Y87550*
X150250Y91450*
Y92650*
X146350Y113350D02*
X141150D01*
X149092Y99510D02*
X150250Y98352D01*
Y92650*
X149092Y99510D02*
Y103250D01*
Y106990D02*
Y106950D01*
X156350*
Y106650*
X149990Y73832D02*
Y69450D01*
X150250Y113350D02*
Y106990D01*
X149092*
X150250Y113350D02*
Y115550D01*
X150350*
Y117850*
X154450Y113250D02*
X150250D01*
Y113350*
X156350Y102750D02*
Y101250D01*
X154650Y99550*
X149250*
X149050Y99750*
Y102950*
X149092Y102250*
Y99510*
X158350Y113250D02*
X164548D01*
X166308Y111490*
X171250Y98650D02*
Y106050D01*
X173050Y107850*
X179750*
X179350Y107750*
X176592*
X183350D02*
X176592D01*
X189150Y93952D02*
X189510Y93592D01*
X190110*
X190050Y101150D02*
X190150D01*
Y93952*
X190110Y93911*
Y93592*
Y83308D02*
Y76510D01*
X189950Y76351*
X193850D02*
X193950Y76350D01*
Y93592*
X193850*
X193950Y101150D02*
X193750D01*
Y97750*
X193650Y88850*
X193950*
Y88150*
X229450Y140450D02*
X221550Y148350D01*
X211250*
D02*
D70*
X72050Y207450D02*
X72150Y207050D01*
Y205250*
X68750Y201850*
Y197950*
X70250Y196450*
X72950*
Y196550*
Y194050D02*
X68550D01*
X63750Y198850*
Y206950*
X63250Y207450*
X62050*
X76644Y167568D02*
X76650D01*
Y169050*
X74556Y171144*
Y174550*
X74050*
X78613Y167568D02*
X78650D01*
Y175650*
X77950Y176350*
Y176550*
X80581Y167568D02*
X80650D01*
Y171550*
X82050Y172950*
Y174550*
X81550Y196609D02*
X78550D01*
X77350Y197809*
Y211750*
X72050Y217050*
Y217450*
X81550Y199168D02*
Y206950D01*
X82050Y207450*
X82550Y167568D02*
Y169950D01*
X85750Y173150*
Y176550*
X92350Y194250D02*
X88750D01*
X86550Y196450*
Y213350*
X82450Y217450*
X82050*
X92350Y196750D02*
X89850D01*
X88950Y197650*
Y203950*
X92050Y207050*
Y207450*
X97044Y167568D02*
X96950D01*
Y169150*
X92850Y173250*
Y174550*
X99013Y167568D02*
X99050D01*
Y170550*
X96950Y172650*
Y176450*
X97050Y176550*
X97150*
X100950Y196809D02*
X98391D01*
X96950Y198250*
Y212350*
X92050Y217250*
Y217450*
X100950Y199368D02*
Y206350D01*
X102050Y207450*
X100981Y167568D02*
Y170550D01*
X100950*
X102750Y172350*
Y176550*
X102850Y176650*
Y176550*
X102950Y167568D02*
Y169450D01*
X108550Y175050*
Y176650*
X112550Y194650D02*
X108350D01*
X106550Y196450*
Y211950*
X102050Y216450*
Y217450*
X112550Y197150D02*
X109850D01*
X108950Y198050*
Y204350*
X112050Y207450*
X114844Y167568D02*
X114850D01*
Y170350*
X113050Y172150*
Y174550*
X116813Y167568D02*
Y176287D01*
X116550Y176550*
X118781Y167568D02*
Y173281D01*
X120050Y174550*
X120750Y167568D02*
Y169750D01*
X123350Y172350*
Y176350*
X123550Y176550*
X121150Y197209D02*
X118591D01*
X117150Y198650*
Y212350*
X112050Y217450*
X121150Y199768D02*
Y206550D01*
X122050Y207450*
X132350Y194850D02*
X128550D01*
X126950Y196450*
Y212550*
X122050Y217450*
X132350Y197350D02*
X129850D01*
X128750Y198450*
Y204150*
X132050Y207450*
X132444Y167568D02*
Y169950D01*
X132450*
X128350Y174050*
Y176550*
X128250*
X133450D02*
X133350D01*
Y176350*
X134413Y175287*
Y167568*
X136381D02*
Y171250D01*
X136350*
X139350Y174250*
Y176650*
X138350Y167568D02*
Y169550D01*
X142950Y174150*
Y174550*
X144250*
X140950Y197409D02*
X138191D01*
X137150Y198450*
Y212350*
X132050Y217450*
X140950Y199968D02*
Y206350D01*
X142050Y207450*
X151244Y167568D02*
Y168644D01*
X151250Y168650*
Y176550*
X152350Y195050D02*
X148750D01*
X146750Y197050*
Y212750*
X142050Y217450*
X152350Y197550D02*
X149650D01*
X148550Y198650*
Y203950*
X152050Y207450*
X153213Y167568D02*
X153150D01*
Y171050*
X155250Y173150*
X155350*
Y174750*
X157150Y167568D02*
X161750Y172168D01*
Y174550*
X160950Y197609D02*
X158591D01*
X157150Y199050*
Y212350*
X152050Y217450*
X162050D02*
Y207450D01*
X172050Y217450D02*
Y207450D01*
X172550Y195250D02*
X169150D01*
X166950Y197450*
Y202550*
X162050Y207450*
X181150Y197809D02*
X184909D01*
X185950Y198850*
Y203550*
X182050Y207450*
X181150Y200368D02*
X179132D01*
X172050Y207450*
D02*
D71*
X20615Y134785D02*
Y134815D01*
X22650Y136850*
X33030*
X34908Y138728*
X36972*
X74512Y15412D02*
X69348Y20576D01*
Y26115*
X74512Y15412D02*
X74550D01*
Y15450*
X79488Y10512*
X99850Y6050D02*
X83950D01*
X79488Y10512*
X113950Y6050D02*
X99850D01*
X113950Y51050D02*
Y56050D01*
Y50950*
X123550*
X122550Y141750D02*
Y139950D01*
X124750Y137750*
X143250Y92650D02*
X142250D01*
X136450Y86850*
X166750Y21050D02*
X154950D01*
X166750Y51050D02*
X156850D01*
X166750D02*
Y56050D01*
X184850Y84250D02*
X189168D01*
X190110Y83308*
X237850Y140450D02*
X229450D01*
D02*
D75*
X28310Y144208D02*
X26543Y142440D01*
X28310Y147390D02*
X26543Y149157D01*
X31492Y144208D02*
X33260Y142440D01*
X31492Y147390D02*
X33260Y149157D01*
X77056Y71157D02*
X75288Y69390D01*
X80450Y74552D02*
X82218Y76319D01*
X82291Y23191D02*
X80523Y21423D01*
X82291Y26585D02*
X80523Y28353D01*
X85685Y23191D02*
X87453Y21423D01*
X85685Y26585D02*
X87453Y28353D01*
X98700Y21850D02*
X96200D01*
X99550Y21000D02*
Y18500D01*
Y22700D02*
Y25200D01*
X100400Y21850D02*
X102900D01*
X100400Y111350D02*
X97900D01*
X101250Y110500D02*
Y108000D01*
Y112200D02*
Y114700D01*
X102100Y111350D02*
X104600D01*
X103600Y63450D02*
X101100D01*
X104450Y62600D02*
Y60100D01*
X108100Y26050D02*
X105600D01*
X119800D02*
X122300D01*
X125200Y92950D02*
X122700D01*
X126050Y93800D02*
Y96300D01*
X126900Y92950D02*
X129400D01*
X127749Y104849D02*
X125981Y103081D01*
X127749Y106051D02*
X125981Y107819D01*
X128451Y62649D02*
X130219Y60881D01*
X128451Y63851D02*
X130219Y65619D01*
X128951Y104849D02*
X130719Y103081D01*
X128951Y106051D02*
X130719Y107819D01*
X129500Y72850D02*
X127000D01*
X130350Y72000D02*
Y69500D01*
Y73700D02*
Y76200D01*
X133800Y44150D02*
X131300D01*
X134650Y43300D02*
Y40800D01*
Y45000D02*
Y47500D01*
X135500Y44150D02*
X138000D01*
X174980Y111490D02*
X172480D01*
X176500Y96550D02*
X174000D01*
X176592Y103579D02*
Y101079D01*
Y111921D02*
Y114421D01*
X177350Y95700D02*
Y93200D01*
Y97400D02*
Y99900D01*
X178200Y96550D02*
X180700D01*
X178204Y104010D02*
X180704D01*
X183350Y112100D02*
Y114600D01*
X183800Y111650D02*
X186300D01*
X184000Y84250D02*
X181500D01*
X184515Y34508D02*
X181291D01*
X184850Y83400D02*
Y80900D01*
Y85100D02*
Y87600D01*
X188008Y31015D02*
Y27791D01*
Y38000D02*
Y41225D01*
X188900Y133650D02*
X186400D01*
X189500Y76351D02*
X187000D01*
X189679Y83308D02*
X187179D01*
X189750Y132800D02*
Y130300D01*
Y134500D02*
Y137000D01*
X189950Y75901D02*
Y73401D01*
X190110Y84920D02*
Y87420D01*
X191500Y34508D02*
X194725D01*
X226750Y126050D02*
Y114250D01*
D02*
D80*
X121950Y87550D03*
X128950D03*
X134150Y114350D03*
X141150D03*
X143250Y92650D03*
X150250D03*
D02*
D81*
X135250Y73850D03*
Y80850D03*
D02*
D87*
X38165Y55035D03*
X60439Y32761D03*
D02*
D88*
X199550Y108150D03*
Y115150D03*
D02*
D89*
X138808Y106990D02*
X141150Y109332D01*
Y114350*
Y113350D02*
Y114350D01*
Y118150*
X129950Y129350*
X158650Y119150D02*
X151650D01*
X150350Y117850*
X161950Y126650D02*
X165650Y122950D01*
Y119150*
Y112148*
X166308Y111490*
X195450Y137050D02*
Y119250D01*
X199550Y115150*
Y108150D02*
Y107851D01*
X193350*
X189150Y103651*
Y93952*
X203350Y137050D02*
Y140450D01*
X211250Y148350*
X237850Y99850D02*
X229450D01*
D02*
D118*
X138808Y99510D03*
Y106990D03*
X149092Y99510D03*
Y103250D03*
Y106990D03*
X166308Y104010D03*
Y111490D03*
X176592Y104010D03*
Y107750D03*
Y111490D03*
D02*
D119*
X142510Y73832D03*
Y84068D03*
X146250Y73832D03*
Y84068D03*
X149990Y73832D03*
Y84068D03*
D02*
D120*
X190110Y83308D03*
Y93592D03*
X193850D03*
X197590Y83308D03*
Y93592D03*
D02*
D121*
X158650Y119150D03*
X165650D03*
D02*
D122*
X74512Y15412D03*
X83988Y24888D03*
D02*
D123*
X113950Y6050D03*
Y11050D03*
Y16050D03*
Y21050D03*
Y26050D03*
Y31050D03*
Y36050D03*
Y41050D03*
Y46050D03*
Y51050D03*
Y56050D03*
X166750Y21050D03*
Y26050D03*
Y31050D03*
Y36050D03*
Y41050D03*
Y46050D03*
Y51050D03*
Y56050D03*
D02*
D124*
X69631Y81976D03*
X72672Y78935D03*
X75712Y75895D03*
X78753Y72854D03*
X81793Y69814D03*
X84834Y66773D03*
X87874Y63733D03*
X90915Y60692D03*
X93956Y57652D03*
D02*
D125*
X26215Y69248D03*
X69348Y26115D03*
D02*
D126*
X55418Y93502D03*
D02*
D127*
X95794Y52560D03*
D02*
D128*
X186150Y159050D03*
X212650D03*
D02*
D129*
X195450Y137050D03*
X203350D03*
D02*
D130*
X226750Y108350D03*
Y114250D03*
Y126050D03*
Y131950D03*
D02*
D131*
X229450Y99850D03*
Y140450D03*
X237850Y99850D03*
Y140450D03*
D02*
D132*
X20615Y134785D03*
X27685Y127715D03*
X34757Y120643D03*
X41828Y113572D03*
X0Y0D02*
M02*
