%FSLAX25Y25*%
%MOIN*%
G04 EasyPC Gerber Version 18.0.8 Build 3632 *
%ADD91R,0.01781X0.05324*%
%ADD100R,0.01800X0.02600*%
%ADD101R,0.02200X0.04100*%
%ADD24R,0.03000X0.03000*%
%ADD98R,0.03200X0.04800*%
%ADD103R,0.04537X0.04891*%
%ADD95R,0.04540X0.04930*%
%ADD97R,0.06100X0.07700*%
%ADD92R,0.05324X0.01781*%
%ADD99R,0.02600X0.01800*%
%ADD26R,0.06600X0.06600*%
%ADD93R,0.06900X0.06900*%
%ADD94R,0.07800X0.02300*%
%ADD23R,0.05200X0.02400*%
%ADD22R,0.03000X0.03000*%
%AMT27*0 Rectangle Pad at angle 45*21,1,0.06600,0.06600,0,0,45*%
%ADD27T27*%
%ADD102C,0.04200*%
%ADD90C,0.19100*%
%ADD96R,0.04930X0.04540*%
X0Y0D02*
D02*
D22*
X82950Y124150D03*
Y137550D03*
X86850Y124150D03*
Y137550D03*
X133450Y107350D03*
Y111350D03*
X137350Y107350D03*
Y111350D03*
X162950Y95450D03*
X166850D03*
X168350Y64850D03*
X172250D03*
X191050Y147250D03*
X194950D03*
D02*
D23*
X96226Y54491D03*
Y57050D03*
Y59609D03*
X104474Y54491D03*
Y59609D03*
D02*
D24*
X87650Y141850D03*
Y145750D03*
X94450Y17150D03*
Y21050D03*
X147450Y153450D03*
Y157350D03*
X147650Y138950D03*
Y142850D03*
X151150Y153550D03*
Y157450D03*
X151250Y138950D03*
Y142850D03*
X181150Y89950D03*
Y93850D03*
X186650Y69350D03*
Y73250D03*
X219850Y108650D03*
Y112550D03*
D02*
D26*
X62050Y207450D03*
Y217450D03*
X72050Y207450D03*
Y217450D03*
X82050Y207450D03*
Y217450D03*
X92050Y207450D03*
Y217450D03*
X102050Y207450D03*
Y217450D03*
X112050Y207450D03*
Y217450D03*
X122050Y207450D03*
Y217450D03*
X132050Y207450D03*
Y217450D03*
X142050Y207450D03*
Y217450D03*
X152050Y207450D03*
Y217450D03*
X161450Y143850D03*
Y153850D03*
X162050Y207450D03*
Y217450D03*
X172050Y207450D03*
Y217450D03*
X182050Y207450D03*
Y217450D03*
X210750Y59450D03*
Y69450D03*
Y79450D03*
Y89450D03*
D02*
D27*
X29901Y145799D03*
X36972Y138728D03*
X44043Y131657D03*
X51115Y124585D03*
X58185Y117515D03*
X65257Y110443D03*
X72328Y103372D03*
X79399Y96301D03*
X180937Y27437D03*
X188008Y34508D03*
X195079Y41579D03*
X202150Y48650D03*
D02*
D90*
X13250Y81050D03*
Y161050D03*
X229550Y81050D03*
Y161050D03*
D02*
D91*
X102750Y118409D03*
Y163291D03*
X104718Y118409D03*
Y163291D03*
X106687Y118409D03*
Y163291D03*
X108655Y118409D03*
Y163291D03*
X110624Y118409D03*
Y163291D03*
X112592Y118409D03*
Y163291D03*
X114561Y118409D03*
Y163291D03*
X116529Y118409D03*
Y163291D03*
X118498Y118409D03*
Y163291D03*
X120466Y118409D03*
Y163291D03*
X122435Y118409D03*
Y163291D03*
X124403Y118409D03*
Y163291D03*
X126372Y118409D03*
Y163291D03*
X128340Y118409D03*
Y163291D03*
X130309Y118409D03*
Y163291D03*
X132277Y118409D03*
Y163291D03*
D02*
D92*
X95073Y126086D03*
Y128055D03*
Y130023D03*
Y131992D03*
Y133960D03*
Y135929D03*
Y137897D03*
Y139866D03*
Y141834D03*
Y143803D03*
Y145771D03*
Y147740D03*
Y149708D03*
Y151677D03*
Y153645D03*
Y155614D03*
X139954Y126086D03*
Y128055D03*
Y130023D03*
Y131992D03*
Y133960D03*
Y135929D03*
Y137897D03*
Y139866D03*
Y141834D03*
Y143803D03*
Y145771D03*
Y147740D03*
Y149708D03*
Y151677D03*
Y153645D03*
Y155614D03*
D02*
D93*
X70750Y131250D03*
X84150D03*
D02*
D94*
X118056Y61916D03*
Y64475D03*
Y67035D03*
Y69593D03*
Y72152D03*
Y74711D03*
Y77270D03*
Y79830D03*
Y82389D03*
Y84948D03*
Y87507D03*
Y90065D03*
Y92625D03*
Y95184D03*
X146844Y61916D03*
Y64475D03*
Y67035D03*
Y69593D03*
Y72152D03*
Y74711D03*
Y77270D03*
Y79830D03*
Y82389D03*
Y84948D03*
Y87507D03*
Y90065D03*
Y92625D03*
Y95184D03*
D02*
D95*
X75250Y142750D03*
X82250D03*
D02*
D96*
X88450Y14450D03*
Y21450D03*
D02*
D97*
X162850Y71350D03*
Y88650D03*
X172250Y71350D03*
Y88650D03*
D02*
D98*
X186650Y125450D03*
Y141850D03*
X186850Y92550D03*
Y108950D03*
X195150Y125450D03*
Y141850D03*
X195350Y92550D03*
Y108950D03*
D02*
D99*
X85481Y29881D03*
Y31881D03*
Y33881D03*
Y35881D03*
Y37881D03*
X95381Y29881D03*
Y31881D03*
Y33881D03*
Y35881D03*
Y37881D03*
D02*
D100*
X88381Y28881D03*
Y38881D03*
X90381Y28881D03*
Y38881D03*
X92381Y28881D03*
Y38881D03*
D02*
D101*
X75150Y181600D03*
Y188100D03*
X78350Y181600D03*
Y188100D03*
X81550Y181600D03*
Y188100D03*
X84750Y181600D03*
Y188100D03*
X94350Y181500D03*
Y188000D03*
X97550Y181500D03*
Y188000D03*
X100750Y181500D03*
Y188000D03*
X103950Y181500D03*
Y188000D03*
X113550Y181600D03*
Y188100D03*
X116750Y181600D03*
Y188100D03*
X119950Y181600D03*
Y188100D03*
X123150Y181600D03*
Y188100D03*
X132750Y181500D03*
Y188000D03*
X135950Y181500D03*
Y188000D03*
X139150Y181500D03*
Y188000D03*
X142350Y181500D03*
Y188000D03*
X152150Y181500D03*
Y188000D03*
X155350Y181500D03*
Y188000D03*
X158550Y181500D03*
Y188000D03*
X161750Y181500D03*
Y188000D03*
D02*
D102*
X38165Y55035D03*
X60439Y32761D03*
X233650Y110350D03*
Y129950D03*
D02*
D103*
X181350Y67250D03*
Y74250D03*
X225050Y123150D03*
Y130150D03*
X0Y0D02*
M02*
