%FSLAX25Y25*%
%MOIN*%
G04 EasyPC Gerber Version 18.0.8 Build 3632 *
%ADD76R,0.01181X0.04724*%
%ADD85R,0.01200X0.02000*%
%ADD86R,0.01600X0.03500*%
%ADD17R,0.02400X0.02400*%
%ADD83R,0.02600X0.04200*%
%ADD88R,0.03937X0.04291*%
%ADD80R,0.03940X0.04330*%
%ADD82R,0.05500X0.07100*%
%ADD77R,0.04724X0.01181*%
%ADD84R,0.02000X0.01200*%
%ADD79R,0.07200X0.01700*%
%ADD16R,0.04600X0.01800*%
%ADD12R,0.06000X0.06000*%
%ADD78R,0.06300X0.06300*%
%ADD10C,0.00500*%
%ADD11C,0.01000*%
%AMT13*0 Rectangle Pad at angle 45*21,1,0.06000,0.06000,0,0,45*%
%ADD13T13*%
%ADD75C,0.01500*%
%ADD19C,0.02000*%
%ADD71C,0.03000*%
%ADD14C,0.03200*%
%ADD15R,0.02400X0.02400*%
%ADD87C,0.03600*%
%ADD89C,0.04000*%
%ADD81R,0.04330X0.03940*%
X0Y0D02*
D02*
D10*
X25818Y193082D02*
X2850Y170115D01*
Y162496*
G75*
G02X23750Y161050I10400J-1446*
G01*
G75*
G02X2850Y159604I-10500*
G01*
Y82496*
G75*
G02X23750Y81050I10400J-1446*
G01*
G75*
G02X2850Y79604I-10500*
G01*
Y72285*
X72085Y3050*
X121150*
Y18150*
X185215*
X239450Y72385*
Y77552*
G75*
G02X219050Y81050I-9900J3498*
G01*
G75*
G02X239450Y84548I10500*
G01*
Y157552*
G75*
G02X219050Y161050I-9900J3498*
G01*
G75*
G02X239450Y164548I10500*
G01*
Y170215*
X208832Y200832*
X169750Y161750*
Y126550*
X164650Y121450*
X134800*
Y118276*
G75*
G02X135100Y117237I-1650J-1039*
G01*
Y113799*
X139799*
Y104901*
X132859*
X132029Y104071*
G75*
G02X130650Y103500I-1379J1379*
G01*
X129993*
G75*
G02X125800Y105450I-1643J1950*
G01*
G75*
G02X127758Y107930I2550*
G01*
G75*
G02X125600Y110450I392J2520*
G01*
G75*
G02X128608Y112959I2550*
G01*
X128859Y113209*
Y114799*
X123885*
Y106735*
G75*
G02X123460Y105709I-1450*
G01*
X118959Y101208*
G75*
G02X113957Y100212I-2509J-458*
G01*
Y98285*
G75*
G02X114363Y97283I-2107J-1436*
G01*
X122905*
Y96634*
X123816*
G75*
G02X124841Y96209J-1450*
G01*
X125592Y95459*
G75*
G02X128339Y94075I458J-2509*
G01*
X141660*
G75*
G02X141324Y94325I690J1276*
G01*
X136849Y98802*
X130549*
G75*
G02X125900Y100250I-2099J1448*
G01*
G75*
G02X130546Y101702I2550*
G01*
X137450*
G75*
G02X138476Y101277J-1450*
G01*
X142468Y97283*
X151693*
Y91743*
X152441Y92492*
G75*
G02X156643Y94857I2509J458*
G01*
Y103350*
G75*
G02X157113Y104487I1607*
G01*
X171313Y118687*
G75*
G02X172450Y119157I1137J-1137*
G01*
X188876*
X192600Y122950*
Y128799*
X193450*
Y133850*
G75*
G02X193250Y134650I1500J800*
G01*
Y138500*
X192600*
Y144799*
X189200*
Y138500*
X188350*
Y135781*
G75*
G02X192300Y133650I1400J-2131*
G01*
G75*
G02X188350Y131519I-2550*
G01*
Y128799*
X189200*
Y122100*
X184100*
Y128799*
X184950*
Y138500*
X184100*
Y145200*
X188600*
Y149700*
X197401*
Y145200*
X197700*
Y138500*
X196850*
Y128799*
X197700*
Y122550*
X211775Y108475*
G75*
G02X212200Y107450I-1025J-1025*
G01*
Y93700*
X215000*
Y85200*
X206500*
Y93700*
X209300*
Y106849*
X195170Y120979*
X190697Y116424*
G75*
G02X189550Y115943I-1147J1126*
G01*
X173116*
X159857Y102684*
Y93448*
X160500*
Y97901*
X169299*
Y93448*
X176252*
Y83850*
X168252*
Y93000*
X166850*
Y83850*
X158850*
Y84397*
X158375Y83922*
G75*
G02X158285Y83839I-1026J1024*
G01*
X163211*
G75*
G02X164237Y83415J-1450*
G01*
X171502Y76149*
X176252*
Y66551*
X174700*
Y62401*
X165901*
Y66551*
X158929*
G75*
G02X158957Y66250I-1579J-300*
G01*
Y62616*
X160716Y60857*
X175384*
X178381Y63854*
X178131*
Y70645*
X184200*
Y70854*
X178131*
Y77645*
X184569*
Y75700*
X189100*
Y67557*
X198050*
G75*
G02X199179Y67094J-1607*
G01*
X206500Y59867*
Y63700*
X215000*
Y55200*
X206500*
Y56643*
X205850*
G75*
G02X204721Y57106J1607*
G01*
X197390Y64343*
X184569*
Y63854*
X182799*
G75*
G02X182487Y63413I-1449J696*
G01*
X177773Y58700*
X193550*
G75*
G02X194575Y58275J-1450*
G01*
X200170Y52680*
X202150Y54660*
X208160Y48650*
X202150Y42640*
X196140Y48650*
X198120Y50630*
X192949Y55800*
X147648*
G75*
G02X143000Y57250I-2098J1450*
G01*
G75*
G02X147648Y58700I2550*
G01*
X152460*
G75*
G02X151219Y59815I990J2350*
G01*
X141994*
Y64643*
X141300Y63949*
Y57248*
G75*
G02X142400Y55150I-1450J-2098*
G01*
G75*
G02X137300I-2550*
G01*
G75*
G02X138400Y57248I2550*
G01*
Y64550*
G75*
G02X138464Y64975I1450J0*
G01*
G75*
G02X136357Y65382I-614J2475*
G01*
Y61630*
G75*
G02X137300Y59650I-1607J-1980*
G01*
G75*
G02X132257Y59112I-2550*
G01*
Y57516*
X141716Y48057*
X154757*
G75*
G02X159000Y46150I1693J-1907*
G01*
G75*
G02X154261Y44843I-2550*
G01*
X141050*
G75*
G02X139913Y45313J1607*
G01*
X129513Y55713*
G75*
G02X129043Y56850I1137J1137*
G01*
Y60996*
G75*
G02X127372Y60745I-1193J2254*
G01*
G75*
G02X126516Y60466I-856J1171*
G01*
X122905*
Y59815*
X114059*
X114187Y59687*
G75*
G02X114657Y58550I-1137J-1137*
G01*
Y41750*
G75*
G02X114187Y40613I-1607*
G01*
X106187Y32613*
G75*
G02X105050Y32143I-1137J1137*
G01*
X99250*
G75*
G02X98113Y32613J1607*
G01*
X97631Y33095*
Y28031*
X96989*
Y24600*
X99550*
G75*
G02X101331Y23831I0J-2450*
G01*
G75*
G02X102098Y21951I-1681J-1782*
G01*
G75*
G02X102100Y21850I-2552J-100*
G01*
G75*
G02X98350Y19600I-2550*
G01*
X96901*
Y14700*
X92000*
Y19700*
X91866*
Y18230*
X85035*
Y24669*
X86774*
Y26631*
X86531*
Y28031*
X83232*
Y32431*
X79719*
G75*
G02X78693Y32856J1450*
G01*
X78608Y32941*
G75*
G02X75600Y35450I-458J2509*
G01*
G75*
G02X80700I2550*
G01*
G75*
G02X80697Y35331I-2550*
G01*
X83232*
Y39732*
X86531*
Y41131*
X86843*
Y43850*
G75*
G02X87313Y44987I1607*
G01*
X91113Y48787*
G75*
G02X92250Y49257I1137J-1137*
G01*
X96670*
G75*
G02X98643Y50200I1980J-1607*
G01*
Y52342*
X92677*
Y61759*
X95143*
Y67550*
G75*
G02X95613Y68687I1607*
G01*
X99214Y72287*
G75*
G02X99241Y73008I2536J264*
G01*
X94224Y78026*
G75*
G02X90024Y79600I-1674J1924*
G01*
X84867*
G75*
G02X85900Y77550I-1517J-2050*
G01*
G75*
G02X80800I-2550*
G01*
G75*
G02X81833Y79600I2550*
G01*
X81448*
G75*
G02X76868Y81635I-2098J1449*
G01*
G75*
G02X73500Y84050I-818J2415*
G01*
G75*
G02X78600I2550*
G01*
G75*
G02X78532Y83465I-2550J1*
G01*
G75*
G02X81448Y82500I818J-2415*
G01*
X91250*
G75*
G02X91806Y82389I0J-1450*
G01*
G75*
G02X94672Y81364I744J-2439*
G01*
G75*
G02X95375Y80975I-322J-1414*
G01*
X101292Y75059*
G75*
G02X104300Y72550I458J-2509*
G01*
G75*
G02X101487Y70014I-2550*
G01*
X98357Y66884*
Y61759*
X99775*
Y58600*
G75*
G02X100487Y58187I-426J-1550*
G01*
X100925Y57748*
Y61759*
X102541*
G75*
G02X101900Y63450I1909J1691*
G01*
G75*
G02X107000I2550*
G01*
G75*
G02X106359Y61759I-2550*
G01*
X107567*
X107513Y61813*
G75*
G02X107043Y62950I1137J1137*
G01*
Y69550*
G75*
G02X107200Y70244I1608*
G01*
Y73952*
G75*
G02X107315Y78223I1450J2098*
G01*
X99850*
G75*
G02X98708Y78699J1607*
G01*
X97359Y80061*
X97350*
G75*
G02X96011Y80780J1607*
G01*
G75*
G02X94800Y82950I1339J2170*
G01*
G75*
G02X99900I2550*
G01*
G75*
G02X99782Y82183I-2550J-1*
G01*
X100520Y81438*
X113206*
Y85644*
X86050*
G75*
G02X84913Y86115J1608*
G01*
X80067Y90959*
X79399Y90291*
X73389Y96301*
X79399Y102311*
X85409Y96301*
X82341Y93233*
X85788Y89787*
G75*
G02X90567Y91515I2462J663*
G01*
X91155*
G75*
G02X91100Y95748I1395J2135*
G01*
Y107950*
G75*
G02X91525Y108975I1450*
G01*
X98125Y115575*
G75*
G02X99150Y116000I1025J-1025*
G01*
X100909*
Y121450*
X99250*
Y117550*
X73650*
X57850Y133350*
Y161050*
X25818Y193082*
X23891Y145799D02*
X29901Y151809D01*
X35911Y145799*
X29901Y139789*
X23891Y145799*
X30962Y138728D02*
X36972Y144738D01*
X42983Y138728*
X36972Y132717*
X30962Y138728*
X36008Y57192D02*
G75*
G02X40321Y52879I2157J-2157D01*
G01*
G75*
G02X36008Y57192I-2157J2157*
G01*
X38033Y131657D02*
X44043Y137667D01*
X50054Y131657*
X44043Y125646*
X38033Y131657*
X45104Y124585D02*
X51115Y130596D01*
X57125Y124585*
X51115Y118575*
X45104Y124585*
X52175Y117515D02*
X58185Y123525D01*
X64196Y117515*
X58185Y111504*
X52175Y117515*
X58282Y34918D02*
G75*
G02X62595Y30605I2157J-2157D01*
G01*
G75*
G02X58282Y34918I-2157J2157*
G01*
X59246Y110443D02*
X65257Y116454D01*
X71267Y110443*
X65257Y104433*
X59246Y110443*
X66317Y103372D02*
X72328Y109383D01*
X78338Y103372*
X72328Y97362*
X66317Y103372*
X91866Y11230D02*
X85035D01*
Y17669*
X91866*
Y11230*
X132100Y44150D02*
G75*
G02X137200I2550D01*
G01*
G75*
G02X132100I-2550*
G01*
X152908Y33059D02*
X162454Y42604D01*
G75*
G02X163479Y43029I1025J-1025*
G01*
X190519*
X195079Y47589*
X201089Y41579*
X195079Y35569*
X190519Y40129*
X188397*
X194018Y34508*
X188008Y28498*
X181998Y34508*
X187619Y40129*
X164080*
X154959Y31008*
G75*
G02X155000Y30550I-2508J-457*
G01*
G75*
G02X149900I-2550*
G01*
G75*
G02X152908Y33059I2550*
G01*
X174000Y35850D02*
G75*
G02X179100I2550D01*
G01*
G75*
G02X174000I-2550*
G01*
X176652Y94097D02*
G75*
G02X174800Y96550I698J2453D01*
G01*
G75*
G02X179900I2550*
G01*
G75*
G02X179888Y96299I-2551J-2*
G01*
X183600*
Y91351*
X184299Y92050*
Y95901*
X185400*
Y105600*
X184299*
Y112299*
X189401*
Y105600*
X188300*
Y95901*
X189401*
Y89200*
X185551*
X184975Y88625*
G75*
G02X183950Y88200I-1025J1025*
G01*
X183600*
Y87500*
X182099*
Y84150*
G75*
G02X181675Y83125I-1450J0*
G01*
X180597Y82046*
G75*
G02X180800Y81050I-2347J-996*
G01*
G75*
G02X180796Y80900I-2550J-2*
G01*
X206500*
Y83700*
X215000*
Y75200*
X206500*
Y78000*
X179850*
G75*
G02X178825Y78425J1450*
G01*
X178708Y78541*
G75*
G02X175700Y81050I-458J2509*
G01*
G75*
G02X178042Y83591I2550*
G01*
X179199Y84750*
Y87500*
X178700*
Y92339*
G75*
G02X178144Y92683I550J1511*
G01*
X176652Y94097*
X180937Y33447D02*
X186947Y27437D01*
X180937Y21426*
X174926Y27437*
X180937Y33447*
X184850Y81700D02*
G75*
G02Y86800J2550D01*
G01*
G75*
G02Y81700J-2550*
G01*
X197901Y95901D02*
Y89200D01*
X192799*
Y95901*
X197901*
Y112299D02*
Y105600D01*
X192799*
Y112299*
X197901*
X206500Y73700D02*
X215000D01*
Y65200*
X206500*
Y73700*
X209802Y120249D02*
Y120350D01*
G75*
G02X210226Y121375I1450J0*
G01*
X219725Y130875*
G75*
G02X220750Y131300I1025J-1025*
G01*
X221830*
Y133547*
X223144*
Y137869*
G75*
G02X222200Y139850I1606J1981*
G01*
G75*
G02X227300I2550*
G01*
G75*
G02X226359Y137872I-2550*
G01*
Y133547*
X228267*
Y126756*
X227112*
G75*
G02X226914Y126547I-1262J997*
G01*
X228267*
Y119756*
X224006*
X222584Y118334*
G75*
G02X222600Y118050I-2534J-283*
G01*
G75*
G02X217500I-2550*
G01*
G75*
G02X220672Y120523I2550*
G01*
X221830Y121681*
Y126547*
X223987*
G75*
G02X223789Y126756I1064J1206*
G01*
X221830*
Y128400*
X221351*
X212978Y120026*
G75*
G02X213800Y118150I-1728J-1876*
G01*
G75*
G02X208700I-2550*
G01*
G75*
G02X209802Y120249I2550*
G01*
X217401Y106200D02*
Y115000D01*
X222299*
Y106200*
X221457*
Y104807*
G75*
G02X222500Y102750I-1507J-2057*
G01*
G75*
G02X217400I-2550*
G01*
G75*
G02X218243Y104644I2550*
G01*
Y106200*
X217401*
X233650Y107300D02*
G75*
G02Y113400J3050D01*
G01*
G75*
G02Y107300J-3050*
G01*
Y126900D02*
G75*
G02Y133000J3050D01*
G01*
G75*
G02Y126900J-3050*
G01*
X2850Y145799D02*
G36*
Y138728D01*
X30962*
X36972Y144738*
X42983Y138728*
X57850*
Y145799*
X35911*
X29901Y139789*
X23891Y145799*
X2850*
G37*
X23891D02*
G36*
X29901Y151809D01*
X35911Y145799*
X57850*
Y161050*
X25818Y193082*
X2850Y170115*
Y162496*
G75*
G02X23750Y161050I10400J-1446*
G01*
G75*
G02X2850Y159604I-10500*
G01*
Y145799*
X23891*
G37*
X2850Y138728D02*
G36*
Y131657D01*
X38033*
X44043Y137667*
X50054Y131657*
X59543*
X57850Y133350*
Y138728*
X42983*
X36972Y132717*
X30962Y138728*
X2850*
G37*
X197700D02*
G36*
Y138500D01*
X196850*
Y131657*
X221830*
Y133547*
X223144*
Y137869*
G75*
G02X222461Y138728I1606J1980*
G01*
X197700*
G37*
X222461D02*
G36*
G75*
G02X222200Y139850I2289J1123D01*
G01*
G75*
G02X227300I2550*
G01*
G75*
G02X227040Y138728I-2550*
G01*
X239450*
Y157552*
G75*
G02X219050Y161050I-9900J3498*
G01*
G75*
G02X239450Y164548I10500*
G01*
Y170215*
X208832Y200832*
X169750Y161750*
Y126550*
X164650Y121450*
X134800*
Y118276*
G75*
G02X135100Y117237I-1650J-1039*
G01*
Y113799*
X139799*
Y104901*
X132859*
X132029Y104071*
G75*
G02X130650Y103500I-1379J1379*
G01*
X129993*
G75*
G02X125800Y105450I-1643J1950*
G01*
G75*
G02X127758Y107930I2550*
G01*
G75*
G02X125600Y110450I392J2520*
G01*
G75*
G02X128608Y112959I2550*
G01*
X128859Y113209*
Y114799*
X123885*
Y106735*
G75*
G02X123460Y105709I-1450*
G01*
X118959Y101208*
G75*
G02X113957Y100212I-2509J-458*
G01*
Y98285*
G75*
G02X114363Y97283I-2107J-1436*
G01*
X122905*
Y96634*
X123816*
G75*
G02X124841Y96209J-1450*
G01*
X125592Y95459*
G75*
G02X128339Y94075I458J-2509*
G01*
X141660*
G75*
G02X141324Y94325I690J1276*
G01*
X136849Y98802*
X130549*
G75*
G02X125900Y100250I-2099J1448*
G01*
G75*
G02X130546Y101702I2550*
G01*
X137450*
G75*
G02X138476Y101277J-1450*
G01*
X142468Y97283*
X151693*
Y91743*
X152441Y92492*
G75*
G02X156643Y94857I2509J458*
G01*
Y103350*
G75*
G02X157113Y104487I1607*
G01*
X171313Y118687*
G75*
G02X172450Y119157I1137J-1137*
G01*
X188876*
X192600Y122950*
Y128799*
X193450*
Y133850*
G75*
G02X193250Y134650I1500J800*
G01*
Y138500*
X192600*
Y144799*
X189200*
Y138500*
X188350*
Y135781*
G75*
G02X192300Y133650I1400J-2131*
G01*
G75*
G02X188350Y131519I-2550*
G01*
Y128799*
X189200*
Y122100*
X184100*
Y128799*
X184950*
Y138500*
X184100*
Y145200*
X188600*
Y149700*
X197401*
Y145200*
X197700*
Y138728*
X222461*
G37*
X227040D02*
G36*
G75*
G02X226359Y137872I-2290J1122D01*
G01*
Y133547*
X228267*
Y131657*
X231122*
G75*
G02X233650Y133000I2528J-1707*
G01*
G75*
G02X236178Y131657J-3050*
G01*
X239450*
Y138728*
X227040*
G37*
X20100Y55035D02*
G36*
X42374Y32761D01*
X57389*
G75*
G02X58282Y34918I3050*
G01*
G75*
G02X63489Y32761I2157J-2157*
G01*
X78798*
G75*
G02X78693Y32856I922J1119*
G01*
X78608Y32941*
G75*
G02X75600Y35450I-458J2509*
G01*
G75*
G02X80700I2550*
G01*
G75*
G02X80697Y35331I-2550*
G01*
X83232*
Y39732*
X86531*
Y41131*
X86843*
Y43850*
G75*
G02X87313Y44987I1607*
G01*
X91113Y48787*
G75*
G02X92250Y49257I1137J-1137*
G01*
X96670*
G75*
G02X98643Y50200I1980J-1607*
G01*
Y52342*
X92677*
Y55035*
X41215*
G75*
G02X40321Y52879I-3050*
G01*
G75*
G02X35115Y55035I-2157J2157*
G01*
X20100*
G37*
X35115D02*
G36*
G75*
G02X36008Y57192I3050D01*
G01*
G75*
G02X41215Y55035I2157J-2157*
G01*
X92677*
Y61759*
X95143*
Y67550*
G75*
G02X95613Y68687I1607*
G01*
X99214Y72287*
G75*
G02X99241Y73008I2536J264*
G01*
X94224Y78026*
G75*
G02X90024Y79600I-1674J1924*
G01*
X84867*
G75*
G02X85900Y77550I-1517J-2050*
G01*
G75*
G02X80800I-2550*
G01*
G75*
G02X81833Y79600I2550*
G01*
X81448*
G75*
G02X76868Y81635I-2098J1449*
G01*
G75*
G02X73500Y84050I-818J2415*
G01*
G75*
G02X78600I2550*
G01*
G75*
G02X78532Y83465I-2550J1*
G01*
G75*
G02X81448Y82500I818J-2415*
G01*
X91250*
G75*
G02X91806Y82389I0J-1450*
G01*
G75*
G02X94672Y81364I744J-2439*
G01*
G75*
G02X95375Y80975I-322J-1414*
G01*
X101292Y75059*
G75*
G02X104300Y72550I458J-2509*
G01*
G75*
G02X101487Y70014I-2550*
G01*
X98357Y66884*
Y61759*
X99775*
Y58600*
G75*
G02X100487Y58187I-426J-1550*
G01*
X100925Y57748*
Y61759*
X102541*
G75*
G02X101900Y63450I1909J1691*
G01*
G75*
G02X107000I2550*
G01*
G75*
G02X106359Y61759I-2550*
G01*
X107567*
X107513Y61813*
G75*
G02X107043Y62950I1137J1137*
G01*
Y69550*
G75*
G02X107200Y70244I1608*
G01*
Y73952*
G75*
G02X107315Y78223I1450J2098*
G01*
X99850*
G75*
G02X98708Y78699J1607*
G01*
X97359Y80061*
X97350*
G75*
G02X96011Y80780J1607*
G01*
G75*
G02X94800Y82950I1339J2170*
G01*
G75*
G02X99900I2550*
G01*
G75*
G02X99782Y82183I-2550J-1*
G01*
X100520Y81438*
X113206*
Y85644*
X86050*
G75*
G02X84913Y86115J1608*
G01*
X80067Y90959*
X79399Y90291*
X73389Y96301*
X79399Y102311*
X85409Y96301*
X82341Y93233*
X85788Y89787*
G75*
G02X90567Y91515I2462J663*
G01*
X91155*
G75*
G02X91100Y95748I1395J2135*
G01*
Y103372*
X78338*
X72328Y97362*
X66317Y103372*
X2850*
Y82496*
G75*
G02X23750Y81050I10400J-1446*
G01*
G75*
G02X2850Y79604I-10500*
G01*
Y72285*
X20100Y55035*
X35115*
G37*
X2850Y131657D02*
G36*
Y124585D01*
X45104*
X51115Y130596*
X57125Y124585*
X66615*
X59543Y131657*
X50054*
X44043Y125646*
X38033Y131657*
X2850*
G37*
X196850D02*
G36*
Y128799D01*
X197700*
Y124585*
X213436*
X219725Y130875*
G75*
G02X220750Y131300I1025J-1025*
G01*
X221830*
Y131657*
X196850*
G37*
X228267D02*
G36*
Y126756D01*
X227112*
G75*
G02X226914Y126547I-1262J997*
G01*
X228267*
Y124585*
X239450*
Y131657*
X236178*
G75*
G02X233650Y126900I-2528J-1707*
G01*
G75*
G02X231122Y131657J3050*
G01*
X228267*
G37*
X2850Y124585D02*
G36*
Y117515D01*
X52175*
X58185Y123525*
X64196Y117515*
X100909*
Y121450*
X99250*
Y117550*
X73650*
X66615Y124585*
X57125*
X51115Y118575*
X45104Y124585*
X2850*
G37*
X197700D02*
G36*
Y122550D01*
X202736Y117515*
X208780*
G75*
G02X208700Y118150I2470J635*
G01*
G75*
G02X209802Y120249I2550*
G01*
Y120350*
G75*
G02X210226Y121375I1450J0*
G01*
X213436Y124585*
X197700*
G37*
X228267D02*
G36*
Y119756D01*
X224006*
X222584Y118334*
G75*
G02X222600Y118050I-2534J-283*
G01*
G75*
G02X222543Y117515I-2550J-1*
G01*
X239450*
Y124585*
X228267*
G37*
X2850Y117515D02*
G36*
Y110443D01*
X59246*
X65257Y116454*
X71267Y110443*
X92993*
X98125Y115575*
G75*
G02X99150Y116000I1025J-1025*
G01*
X100909*
Y117515*
X64196*
X58185Y111504*
X52175Y117515*
X2850*
G37*
X202736D02*
G36*
X209807Y110443D01*
X217401*
Y115000*
X222299*
Y110443*
X230602*
G75*
G02X233650Y113400I3048J-93*
G01*
G75*
G02X236698Y110443J-3050*
G01*
X239450*
Y117515*
X222543*
G75*
G02X217500Y118050I-2493J535*
G01*
G75*
G02X220672Y120523I2550*
G01*
X221830Y121681*
Y126547*
X223987*
G75*
G02X223789Y126756I1064J1206*
G01*
X221830*
Y128400*
X221351*
X212978Y120026*
G75*
G02X213800Y118150I-1728J-1876*
G01*
G75*
G02X208780Y117515I-2550*
G01*
X202736*
G37*
X42374Y32761D02*
G36*
X60686Y14449D01*
X85035*
Y17669*
X91866*
Y14449*
X121150*
Y18150*
X185215*
X199826Y32761*
X192272*
X188008Y28498*
X183744Y32761*
X181622*
X186947Y27437*
X180937Y21426*
X174926Y27437*
X180251Y32761*
X156712*
X154959Y31008*
G75*
G02X155000Y30550I-2508J-457*
G01*
G75*
G02X149900I-2550*
G01*
G75*
G02X151180Y32761I2550*
G01*
X106335*
X106187Y32613*
G75*
G02X105050Y32143I-1137J1137*
G01*
X99250*
G75*
G02X98113Y32613J1607*
G01*
X97631Y33095*
Y28031*
X96989*
Y24600*
X99550*
G75*
G02X101331Y23831I0J-2450*
G01*
G75*
G02X102098Y21951I-1681J-1782*
G01*
G75*
G02X102100Y21850I-2552J-100*
G01*
G75*
G02X98350Y19600I-2550*
G01*
X96901*
Y14700*
X92000*
Y19700*
X91866*
Y18230*
X85035*
Y24669*
X86774*
Y26631*
X86531*
Y28031*
X83232*
Y32431*
X79719*
G75*
G02X78798Y32761J1450*
G01*
X63489*
G75*
G02X62595Y30605I-3050*
G01*
G75*
G02X57389Y32761I-2157J2157*
G01*
X42374*
G37*
X151180D02*
G36*
G75*
G02X152908Y33059I1270J-2211D01*
G01*
X155699Y35850*
X109423*
X106335Y32761*
X151180*
G37*
X180251D02*
G36*
X180937Y33447D01*
X181622Y32761*
X183744*
X181998Y34508*
X183340Y35850*
X179100*
G75*
G02X174000I-2550*
G01*
X159801*
X156712Y32761*
X180251*
G37*
X199826D02*
G36*
X202915Y35850D01*
X195360*
X195079Y35569*
X190519Y40129*
X188397*
X194018Y34508*
X192272Y32761*
X199826*
G37*
X2850Y110443D02*
G36*
Y103372D01*
X66317*
X72328Y109383*
X78338Y103372*
X91100*
Y107950*
G75*
G02X91525Y108975I1450*
G01*
X92993Y110443*
X71267*
X65257Y104433*
X59246Y110443*
X2850*
G37*
X167617D02*
G36*
X160546Y103372D01*
X185400*
Y105600*
X184299*
Y110443*
X167617*
G37*
X184299D02*
G36*
Y112299D01*
X189401*
Y110443*
X192799*
Y112299*
X197901*
Y110443*
X205706*
X195170Y120979*
X190697Y116424*
G75*
G02X189550Y115943I-1147J1126*
G01*
X173116*
X167617Y110443*
X184299*
G37*
X189401D02*
G36*
Y105600D01*
X188300*
Y103372*
X209300*
Y106849*
X205706Y110443*
X197901*
Y105600*
X192799*
Y110443*
X189401*
G37*
X209807D02*
G36*
X211775Y108475D01*
G75*
G02X212200Y107450I-1025J-1025*
G01*
Y103372*
X217477*
G75*
G02X218243Y104644I2473J-623*
G01*
Y106200*
X217401*
Y110443*
X209807*
G37*
X222299D02*
G36*
Y106200D01*
X221457*
Y104807*
G75*
G02X222423Y103372I-1507J-2057*
G01*
X239450*
Y110443*
X236698*
G75*
G02X233650Y107300I-3048J-93*
G01*
G75*
G02X230602Y110443J3050*
G01*
X222299*
G37*
X160546Y103372D02*
G36*
X159857Y102684D01*
Y93448*
X160500*
Y97901*
X169299*
Y93448*
X176252*
Y92551*
X178303*
G75*
G02X178144Y92683I948J1298*
G01*
X176652Y94097*
G75*
G02X174800Y96550I698J2453*
G01*
G75*
G02X179900I2550*
G01*
G75*
G02X179888Y96299I-2551J-2*
G01*
X183600*
Y91351*
X184299Y92050*
Y95901*
X185400*
Y103372*
X160546*
G37*
X188300D02*
G36*
Y95901D01*
X189401*
Y92551*
X192799*
Y95901*
X197901*
Y92551*
X206500*
Y93700*
X209300*
Y103372*
X188300*
G37*
X212200D02*
G36*
Y93700D01*
X215000*
Y85200*
X206500*
Y92551*
X197901*
Y89200*
X192799*
Y92551*
X189401*
Y89200*
X185551*
X184975Y88625*
G75*
G02X183950Y88200I-1025J1025*
G01*
X183600*
Y87500*
X182099*
Y84250*
X182300*
G75*
G02X184850Y86800I2550*
G01*
G75*
G02X187400Y84250J-2550*
G01*
X219550*
G75*
G02X239450Y84548I10000J-3200*
G01*
Y103372*
X222423*
G75*
G02X222500Y102750I-2473J-622*
G01*
G75*
G02X217400I-2550*
G01*
G75*
G02X217477Y103372I2550J2*
G01*
X212200*
G37*
X60686Y14449D02*
G36*
X72085Y3050D01*
X121150*
Y14449*
X91866*
Y11230*
X85035*
Y14449*
X60686*
G37*
X114657Y44150D02*
G36*
Y41750D01*
G75*
G02X114187Y40613I-1607*
G01*
X109423Y35850*
X155699*
X162454Y42604*
G75*
G02X163479Y43029I1025J-1025*
G01*
X190519*
X191640Y44150*
X158032*
G75*
G02X154868I-1582J2000*
G01*
X137200*
G75*
G02X132100I-2550*
G01*
X114657*
G37*
X132100D02*
G36*
G75*
G02X137200I2550D01*
G01*
X154868*
G75*
G02X154261Y44843I1582J2000*
G01*
X141050*
G75*
G02X139913Y45313J1607*
G01*
X129513Y55713*
G75*
G02X129043Y56850I1137J1137*
G01*
Y60996*
G75*
G02X127372Y60745I-1193J2254*
G01*
G75*
G02X126516Y60466I-856J1171*
G01*
X122905*
Y59815*
X114059*
X114187Y59687*
G75*
G02X114657Y58550I-1137J-1137*
G01*
Y44150*
X132100*
G37*
X191640D02*
G36*
X195079Y47589D01*
X198518Y44150*
X200640*
X196140Y48650*
X198120Y50630*
X192949Y55800*
X147648*
G75*
G02X143000Y57250I-2098J1450*
G01*
G75*
G02X147648Y58700I2550*
G01*
X152460*
G75*
G02X151219Y59815I990J2350*
G01*
X141994*
Y64643*
X141300Y63949*
Y57248*
G75*
G02X142400Y55150I-1450J-2098*
G01*
G75*
G02X137300I-2550*
G01*
G75*
G02X138400Y57248I2550*
G01*
Y64550*
G75*
G02X138464Y64975I1450J0*
G01*
G75*
G02X136357Y65382I-614J2475*
G01*
Y61630*
G75*
G02X137300Y59650I-1607J-1980*
G01*
G75*
G02X132257Y59112I-2550*
G01*
Y57516*
X141716Y48057*
X154757*
G75*
G02X159000Y46150I1693J-1907*
G01*
G75*
G02X158032Y44150I-2550*
G01*
X191640*
G37*
X198518D02*
G36*
X201089Y41579D01*
X195360Y35850*
X202915*
X236515Y69450*
X215000*
Y65200*
X206500*
Y69450*
X189100*
Y67557*
X198050*
G75*
G02X199179Y67094J-1607*
G01*
X206500Y59867*
Y63700*
X215000*
Y55200*
X206500*
Y56643*
X205850*
G75*
G02X204721Y57106J1607*
G01*
X197390Y64343*
X184569*
Y63854*
X182799*
G75*
G02X182487Y63413I-1449J696*
G01*
X177773Y58700*
X193550*
G75*
G02X194575Y58275J-1450*
G01*
X200170Y52680*
X202150Y54660*
X208160Y48650*
X202150Y42640*
X200640Y44150*
X198518*
G37*
X174000Y35850D02*
G36*
G75*
G02X179100I2550D01*
G01*
X183340*
X187619Y40129*
X164080*
X159801Y35850*
X174000*
G37*
X176252Y84250D02*
G36*
Y83850D01*
X168252*
Y93000*
X166850*
Y83850*
X158850*
Y84397*
X158375Y83922*
G75*
G02X158285Y83839I-1026J1024*
G01*
X163211*
G75*
G02X164237Y83415J-1450*
G01*
X171502Y76149*
X176252*
Y66551*
X174700*
Y62401*
X165901*
Y66551*
X158929*
G75*
G02X158957Y66250I-1579J-300*
G01*
Y62616*
X160716Y60857*
X175384*
X178381Y63854*
X178131*
Y70645*
X184200*
Y70854*
X178131*
Y77645*
X184569*
Y75700*
X189100*
Y69450*
X206500*
Y73700*
X215000*
Y69450*
X236515*
X239450Y72385*
Y77552*
G75*
G02X219050Y81050I-9900J3498*
G01*
G75*
G02X219550Y84250I10499J0*
G01*
X187400*
G75*
G02X184850Y81700I-2550*
G01*
G75*
G02X182300Y84250J2550*
G01*
X182099*
Y84150*
G75*
G02X181675Y83125I-1450J0*
G01*
X180597Y82046*
G75*
G02X180800Y81050I-2347J-996*
G01*
G75*
G02X180796Y80900I-2550J-2*
G01*
X206500*
Y83700*
X215000*
Y75200*
X206500*
Y78000*
X179850*
G75*
G02X178825Y78425J1450*
G01*
X178708Y78541*
G75*
G02X175700Y81050I-458J2509*
G01*
G75*
G02X178042Y83591I2550*
G01*
X178700Y84250*
X176252*
G37*
X178700D02*
G36*
X179199Y84750D01*
Y87500*
X178700*
Y92339*
G75*
G02X178303Y92551I549J1511*
G01*
X176252*
Y84250*
X178700*
G37*
X26768Y194032D02*
X59250Y161550D01*
Y133550*
X74050Y118750*
X98150*
Y123350*
X131000*
Y126550*
G75*
G02X131098Y127073I1450J0*
G01*
G75*
G02X128000Y130993I-1148J2277*
G01*
Y131650*
G75*
G02X128571Y133029I1950J0*
G01*
X130046Y134503*
G75*
G02X130300Y135118I2205J-553*
G01*
Y140050*
G75*
G02X130871Y141429I1950J0*
G01*
X133571Y144129*
G75*
G02X133607Y144164I1383J-1378*
G01*
X130050*
G75*
G02X128948Y144601J1607*
G01*
X128394Y145123*
G75*
G02X125500Y147650I-344J2527*
G01*
G75*
G02X130600I2550*
G01*
G75*
G02X130593Y147468I-2552J2*
G01*
X130688Y147379*
X136342*
Y157454*
X143566*
Y155095*
X145000*
Y159800*
X146000*
Y160250*
G75*
G02X146425Y161275I1450*
G01*
X159241Y174092*
G75*
G02X160300Y176648I2509J458*
G01*
Y178500*
X156800*
Y176848*
G75*
G02X154892Y172241I-1450J-2098*
G01*
X144916Y162265*
G75*
G02X143891Y161841I-1025J1025*
G01*
X134118*
Y159678*
X100909*
Y161683*
X89591*
G75*
G02X88450Y162158J1607*
G01*
X80650Y170018*
G75*
G02X80183Y171150I1141J1132*
G01*
Y172813*
G75*
G02X79557Y174012I1867J1737*
G01*
Y170220*
X89016Y160762*
X97941*
G75*
G02X99077Y160291J-1607*
G01*
X100687Y158682*
G75*
G02X101157Y157545I-1137J-1137*
G01*
Y155155*
G75*
G02X100687Y154018I-1607*
G01*
X99681Y153013*
G75*
G02X99923Y152813I-896J-1335*
G01*
X100345Y152392*
G75*
G02X100855Y147319I205J-2542*
G01*
X100250Y146713*
G75*
G02X99113Y146243I-1137J1137*
G01*
X98685*
Y145457*
X105150*
G75*
G02X106351Y144919J-1607*
G01*
X108772Y142197*
G75*
G02X111437Y139650I115J-2547*
G01*
G75*
G02X106750Y138258I-2550*
G01*
X98685*
Y124246*
X96523*
Y122773*
G75*
G02X96098Y121748I-1450*
G01*
X94475Y120125*
G75*
G02X93450Y119700I-1025J1025*
G01*
X84450*
G75*
G02X83425Y120125J1450*
G01*
X81925Y121625*
G75*
G02X81855Y121700I1024J1024*
G01*
X80500*
Y122200*
X79350*
G75*
G02X77971Y122771I0J1950*
G01*
X73892Y126850*
X66350*
Y135650*
X67800*
Y136333*
G75*
G02X68034Y139577I2950J1417*
G01*
G75*
G02X68837Y140509I2716J-1527*
G01*
X72030Y143702*
Y146165*
X74485*
X77160Y148840*
G75*
G02X78650Y149457I1490J-1490*
G01*
X86150*
G75*
G02X87687Y148791J-2107*
G01*
X88083Y148370*
X90503Y150835*
G75*
G02X91461Y151305I1147J-1126*
G01*
Y154164*
X85886*
G75*
G02X84861Y154589J1450*
G01*
X73025Y166425*
G75*
G02X72600Y167450I1025J1025*
G01*
Y172452*
G75*
G02X72443Y176530I1450J2098*
G01*
Y178150*
G75*
G02X72964Y179335I1607*
G01*
X73100Y179460*
Y184600*
X86800*
Y178874*
G75*
G02X87200Y174452I-1050J-2324*
G01*
Y172651*
X91251Y168600*
X93627*
X91713Y170513*
G75*
G02X91243Y171650I1137J1137*
G01*
Y172570*
G75*
G02X91143Y176444I1607J1980*
G01*
Y178650*
G75*
G02X91650Y179823I1607J0*
G01*
X92300Y180431*
Y184500*
X106000*
Y181973*
X108784Y179189*
G75*
G02X111046Y176126I-235J-2539*
G01*
G75*
G02X112100Y176917I2005J-1576*
G01*
Y178600*
X111500*
Y184600*
X125200*
Y178600*
X125067*
G75*
G02X125900Y177540I-1517J-2050*
G01*
G75*
G02X128708Y179059I2350J-990*
G01*
X130700Y181051*
Y184500*
X144400*
Y181501*
X145275Y180625*
G75*
G02X145700Y179600I-1025J-1025*
G01*
Y176648*
G75*
G02X146762Y174113I-1450J-2097*
G01*
X148741Y176092*
G75*
G02X149643Y178530I2509J458*
G01*
Y180450*
G75*
G02X150030Y181496I1607*
G01*
X150100Y181578*
Y184500*
X163800*
Y178500*
X163200*
Y176648*
G75*
G02X161292Y172041I-1450J-2098*
G01*
X149151Y159900*
X153600*
Y151158*
X156707*
X157200Y151651*
Y158100*
X165700*
Y149600*
X159251*
X158333Y148683*
G75*
G02X157308Y148258I-1025J1025*
G01*
X143566*
Y144800*
X145200*
Y145300*
X153700*
Y136500*
X148667*
G75*
G02X149700Y134450I-1517J-2050*
G01*
G75*
G02X145126Y132900I-2550*
G01*
G75*
G02X144383Y133345I424J1551*
G01*
X143566Y134207*
Y124246*
X136342*
Y126605*
X134800*
Y123350*
X164550*
X168550Y127350*
Y162250*
X207982Y201682*
X170215Y239450*
X72185*
X26768Y194032*
X66300Y211700D02*
Y203200D01*
X57800*
Y211700*
X66300*
Y221700D02*
Y213200D01*
X57800*
Y221700*
X66300*
X71800Y203200D02*
X67800D01*
Y211700*
X75443*
Y212384*
X74627Y213200*
X67800*
Y221700*
X76300*
Y216073*
X77800Y214573*
Y221700*
X86300*
Y215350*
X87800Y213850*
Y221700*
X96300*
Y215651*
X97800Y214151*
Y221700*
X106300*
Y215251*
X107800Y213751*
Y221700*
X116300*
Y215251*
X117775Y213775*
G75*
G02X117800Y213750I-1020J-1029*
G01*
Y221700*
X126300*
Y215251*
X127800Y213751*
Y221700*
X136300*
Y216173*
X137800Y214673*
Y221700*
X146300*
Y215350*
X147760Y213890*
G75*
G02X147800Y213850I-1012J-1042*
G01*
Y221700*
X156300*
Y215251*
X157775Y213775*
G75*
G02X157800Y213750I-1020J-1029*
G01*
Y221700*
X166300*
Y213200*
X163500*
Y211700*
X166300*
Y203200*
X163357*
Y191000*
X163800*
Y185000*
X150100*
Y191000*
X150543*
Y203200*
X148200*
Y192850*
G75*
G02X147760Y191810I-1450*
G01*
X144400Y188450*
Y185000*
X130700*
Y190339*
G75*
G02X130343Y191350I1250J1011*
G01*
Y203200*
X128500*
Y192450*
G75*
G02X128075Y191425I-1450*
G01*
X125200Y188549*
Y185100*
X111500*
Y188649*
X110825Y189325*
G75*
G02X110400Y190350I1025J1025*
G01*
Y203200*
X108300*
Y191150*
G75*
G02X107875Y190125I-1450*
G01*
X106000Y188249*
Y185000*
X92300*
Y188127*
X91013Y189413*
G75*
G02X90543Y190550I1137J1137*
G01*
Y203200*
X88300*
Y191700*
G75*
G02X87860Y190660I-1450*
G01*
X86800Y189600*
Y185100*
X73100*
Y187899*
X72225Y188775*
G75*
G02X71800Y189800I1025J1025*
G01*
Y203200*
X164500Y126650D02*
G75*
G02X159400I-2550D01*
G01*
G75*
G02X164500I2550*
G01*
X165700Y139600D02*
X157200D01*
Y148100*
X165700*
Y139600*
X176300Y211700D02*
Y203200D01*
X167800*
Y211700*
X176300*
Y221700D02*
Y213200D01*
X167800*
Y221700*
X176300*
X186300Y211700D02*
Y203200D01*
X177800*
Y211700*
X186300*
Y221700D02*
Y213200D01*
X177800*
Y221700*
X186300*
X40185Y207450D02*
G36*
X26768Y194032D01*
X59250Y161550*
Y133550*
X74050Y118750*
X98150*
Y123350*
X131000*
Y126550*
G75*
G02X131098Y127073I1450J0*
G01*
G75*
G02X128000Y130993I-1148J2277*
G01*
Y131650*
G75*
G02X128571Y133029I1950J0*
G01*
X130046Y134503*
G75*
G02X130300Y135118I2205J-553*
G01*
Y140050*
G75*
G02X130871Y141429I1950J0*
G01*
X133571Y144129*
G75*
G02X133607Y144164I1383J-1378*
G01*
X130050*
G75*
G02X128948Y144601J1607*
G01*
X128394Y145123*
G75*
G02X125500Y147650I-344J2527*
G01*
G75*
G02X130600I2550*
G01*
G75*
G02X130593Y147468I-2552J2*
G01*
X130688Y147379*
X136342*
Y157454*
X143566*
Y155095*
X145000*
Y159800*
X146000*
Y160250*
G75*
G02X146425Y161275I1450*
G01*
X159241Y174092*
G75*
G02X160300Y176648I2509J458*
G01*
Y178500*
X156800*
Y176848*
G75*
G02X154892Y172241I-1450J-2098*
G01*
X144916Y162265*
G75*
G02X143891Y161841I-1025J1025*
G01*
X134118*
Y159678*
X100909*
Y161683*
X89591*
G75*
G02X88450Y162158J1607*
G01*
X80650Y170018*
G75*
G02X80183Y171150I1141J1132*
G01*
Y172813*
G75*
G02X79557Y174012I1867J1737*
G01*
Y170220*
X89016Y160762*
X97941*
G75*
G02X99077Y160291J-1607*
G01*
X100687Y158682*
G75*
G02X101157Y157545I-1137J-1137*
G01*
Y155155*
G75*
G02X100687Y154018I-1607*
G01*
X99681Y153013*
G75*
G02X99923Y152813I-896J-1335*
G01*
X100345Y152392*
G75*
G02X100855Y147319I205J-2542*
G01*
X100250Y146713*
G75*
G02X99113Y146243I-1137J1137*
G01*
X98685*
Y145457*
X105150*
G75*
G02X106351Y144919J-1607*
G01*
X108772Y142197*
G75*
G02X111437Y139650I115J-2547*
G01*
G75*
G02X106750Y138258I-2550*
G01*
X98685*
Y124246*
X96523*
Y122773*
G75*
G02X96098Y121748I-1450*
G01*
X94475Y120125*
G75*
G02X93450Y119700I-1025J1025*
G01*
X84450*
G75*
G02X83425Y120125J1450*
G01*
X81925Y121625*
G75*
G02X81855Y121700I1024J1024*
G01*
X80500*
Y122200*
X79350*
G75*
G02X77971Y122771I0J1950*
G01*
X73892Y126850*
X66350*
Y135650*
X67800*
Y136333*
G75*
G02X68034Y139577I2950J1417*
G01*
G75*
G02X68837Y140509I2716J-1527*
G01*
X72030Y143702*
Y146165*
X74485*
X77160Y148840*
G75*
G02X78650Y149457I1490J-1490*
G01*
X86150*
G75*
G02X87687Y148791J-2107*
G01*
X88083Y148370*
X90503Y150835*
G75*
G02X91461Y151305I1147J-1126*
G01*
Y154164*
X85886*
G75*
G02X84861Y154589J1450*
G01*
X73025Y166425*
G75*
G02X72600Y167450I1025J1025*
G01*
Y172452*
G75*
G02X72443Y176530I1450J2098*
G01*
Y178150*
G75*
G02X72964Y179335I1607*
G01*
X73100Y179460*
Y184600*
X86800*
Y178874*
G75*
G02X87200Y174452I-1050J-2324*
G01*
Y172651*
X91251Y168600*
X93627*
X91713Y170513*
G75*
G02X91243Y171650I1137J1137*
G01*
Y172570*
G75*
G02X91143Y176444I1607J1980*
G01*
Y178650*
G75*
G02X91650Y179823I1607J0*
G01*
X92300Y180431*
Y184500*
X106000*
Y181973*
X108784Y179189*
G75*
G02X111046Y176126I-235J-2539*
G01*
G75*
G02X112100Y176917I2005J-1576*
G01*
Y178600*
X111500*
Y184600*
X125200*
Y178600*
X125067*
G75*
G02X125900Y177540I-1517J-2050*
G01*
G75*
G02X128708Y179059I2350J-990*
G01*
X130700Y181051*
Y184500*
X144400*
Y181501*
X145275Y180625*
G75*
G02X145700Y179600I-1025J-1025*
G01*
Y176648*
G75*
G02X146762Y174113I-1450J-2097*
G01*
X148741Y176092*
G75*
G02X149643Y178530I2509J458*
G01*
Y180450*
G75*
G02X150030Y181496I1607*
G01*
X150100Y181578*
Y184500*
X163800*
Y178500*
X163200*
Y176648*
G75*
G02X161292Y172041I-1450J-2098*
G01*
X149151Y159900*
X153600*
Y151158*
X156707*
X157200Y151651*
Y158100*
X165700*
Y149600*
X159251*
X158333Y148683*
G75*
G02X157308Y148258I-1025J1025*
G01*
X143566*
Y144800*
X145200*
Y145300*
X153700*
Y143850*
X157200*
Y148100*
X165700*
Y143850*
X168550*
Y162250*
X207982Y201682*
X202215Y207450*
X186300*
Y203200*
X177800*
Y207450*
X176300*
Y203200*
X167800*
Y207450*
X166300*
Y203200*
X163357*
Y191000*
X163800*
Y185000*
X150100*
Y191000*
X150543*
Y203200*
X148200*
Y192850*
G75*
G02X147760Y191810I-1450*
G01*
X144400Y188450*
Y185000*
X130700*
Y190339*
G75*
G02X130343Y191350I1250J1011*
G01*
Y203200*
X128500*
Y192450*
G75*
G02X128075Y191425I-1450*
G01*
X125200Y188549*
Y185100*
X111500*
Y188649*
X110825Y189325*
G75*
G02X110400Y190350I1025J1025*
G01*
Y203200*
X108300*
Y191150*
G75*
G02X107875Y190125I-1450*
G01*
X106000Y188249*
Y185000*
X92300*
Y188127*
X91013Y189413*
G75*
G02X90543Y190550I1137J1137*
G01*
Y203200*
X88300*
Y191700*
G75*
G02X87860Y190660I-1450*
G01*
X86800Y189600*
Y185100*
X73100*
Y187899*
X72225Y188775*
G75*
G02X71800Y189800I1025J1025*
G01*
Y203200*
X67800*
Y207450*
X66300*
Y203200*
X57800*
Y207450*
X40185*
G37*
X57800D02*
G36*
Y211700D01*
X66300*
Y207450*
X67800*
Y211700*
X75443*
Y212384*
X74627Y213200*
X67800*
Y217450*
X66300*
Y213200*
X57800*
Y217450*
X50185*
X40185Y207450*
X57800*
G37*
X167800D02*
G36*
Y211700D01*
X176300*
Y207450*
X177800*
Y211700*
X186300*
Y207450*
X202215*
X192215Y217450*
X186300*
Y213200*
X177800*
Y217450*
X176300*
Y213200*
X167800*
Y217450*
X166300*
Y213200*
X163500*
Y211700*
X166300*
Y207450*
X167800*
G37*
X57800Y217450D02*
G36*
Y221700D01*
X66300*
Y217450*
X67800*
Y221700*
X76300*
Y216073*
X77800Y214573*
Y221700*
X86300*
Y215350*
X87800Y213850*
Y221700*
X96300*
Y215651*
X97800Y214151*
Y221700*
X106300*
Y215251*
X107800Y213751*
Y221700*
X116300*
Y215251*
X117775Y213775*
G75*
G02X117800Y213750I-1020J-1029*
G01*
Y221700*
X126300*
Y215251*
X127800Y213751*
Y221700*
X136300*
Y216173*
X137800Y214673*
Y221700*
X146300*
Y215350*
X147760Y213890*
G75*
G02X147800Y213850I-1012J-1042*
G01*
Y221700*
X156300*
Y215251*
X157775Y213775*
G75*
G02X157800Y213750I-1020J-1029*
G01*
Y221700*
X166300*
Y217450*
X167800*
Y221700*
X176300*
Y217450*
X177800*
Y221700*
X186300*
Y217450*
X192215*
X170215Y239450*
X72185*
X50185Y217450*
X57800*
G37*
X143566Y126650D02*
G36*
Y124246D01*
X136342*
Y126605*
X134800*
Y123350*
X164550*
X167850Y126650*
X164500*
G75*
G02X159400I-2550*
G01*
X143566*
G37*
X159400D02*
G36*
G75*
G02X164500I2550D01*
G01*
X167850*
X168550Y127350*
Y143850*
X165700*
Y139600*
X157200*
Y143850*
X153700*
Y136500*
X148667*
G75*
G02X149700Y134450I-1517J-2050*
G01*
G75*
G02X145126Y132900I-2550*
G01*
G75*
G02X144383Y133345I424J1551*
G01*
X143566Y134207*
Y126650*
X159400*
G37*
X122905Y83839D02*
X123611D01*
G75*
G02X124637Y83414J-1450*
G01*
X124892Y83159*
G75*
G02X127257Y78957I458J-2509*
G01*
X132150*
G75*
G02X133287Y78487J-1607*
G01*
X135887Y75887*
G75*
G02X136357Y74750I-1137J-1137*
G01*
Y69518*
G75*
G02X136400Y69548I1487J-2067*
G01*
Y72050*
G75*
G02X136825Y73075I1450*
G01*
X139486Y75737*
G75*
G02X140511Y76161I1025J-1025*
G01*
X141994*
Y91175*
X127881*
G75*
G02X123541Y93408I-1830J1776*
G01*
X123215Y93734*
X122905*
Y83839*
G36*
X123611*
G75*
G02X124637Y83414J-1450*
G01*
X124892Y83159*
G75*
G02X127257Y78957I458J-2509*
G01*
X132150*
G75*
G02X133287Y78487J-1607*
G01*
X135887Y75887*
G75*
G02X136357Y74750I-1137J-1137*
G01*
Y69518*
G75*
G02X136400Y69548I1487J-2067*
G01*
Y72050*
G75*
G02X136825Y73075I1450*
G01*
X139486Y75737*
G75*
G02X140511Y76161I1025J-1025*
G01*
X141994*
Y91175*
X127881*
G75*
G02X123541Y93408I-1830J1776*
G01*
X123215Y93734*
X122905*
Y83839*
G37*
X151693Y73602D02*
X154908D01*
G75*
G02X158850Y73532I1942J-1652*
G01*
Y76149*
X166850*
Y67299*
X168252*
Y75298*
X162611Y80939*
X151693*
Y78878*
X152930*
G75*
G02X153238Y78848J-1608*
G01*
G75*
G02X156300Y76350I512J-2498*
G01*
G75*
G02X151693Y74844I-2550*
G01*
Y73602*
G36*
X154908*
G75*
G02X158850Y73532I1942J-1652*
G01*
Y76149*
X166850*
Y67299*
X168252*
Y75298*
X162611Y80939*
X151693*
Y78878*
X152930*
G75*
G02X153238Y78848J-1608*
G01*
G75*
G02X156300Y76350I512J-2498*
G01*
G75*
G02X151693Y74844I-2550*
G01*
Y73602*
G37*
X156800Y191000D02*
X160143D01*
Y203200*
X158200*
Y194750*
G75*
G02X157775Y193725I-1450*
G01*
X156800Y192749*
Y191000*
G36*
X160143*
Y203200*
X158200*
Y194750*
G75*
G02X157775Y193725I-1450*
G01*
X156800Y192749*
Y191000*
G37*
D02*
D11*
X74050Y174550D02*
X74150D01*
Y178150*
X75250Y179250*
Y181600*
X75150*
Y188100D02*
X74950D01*
X73250Y189800*
Y207700*
X72050*
Y207450*
X77950Y176550D02*
Y169555D01*
X88350Y159155*
X97941*
X99550Y157545*
Y155155*
X98145Y153750*
X95073*
Y153645*
X78350Y181600D02*
Y176950D01*
X77950Y176550*
X78350Y188100D02*
X78450D01*
Y191550*
X77050Y192950*
Y213050*
X73500Y216600*
X72050*
Y217450*
X81550Y181600D02*
Y175050D01*
X82050Y174550*
X81550Y188100D02*
X81650D01*
Y191100*
X82250Y191700*
Y207450*
X82050*
X82250Y142750D02*
Y141850D01*
X87650*
X84750Y181600D02*
Y177550D01*
X85750Y176550*
X84750Y188100D02*
Y189600D01*
X86850Y191700*
Y212750*
X81850Y217750*
Y217450*
X82050*
X85481Y31881D02*
X83381D01*
X82450Y30950*
X85481Y33881D02*
X79719D01*
X78150Y35450*
X85481Y35881D02*
X83619D01*
X82450Y37050*
X86850Y124150D02*
X89250D01*
X90550Y125450*
Y128950*
X91623Y130023*
X95073*
X86850Y137550D02*
Y137850D01*
X94726*
X94773Y137897*
X95073*
X88381Y28881D02*
Y21619D01*
X88550Y21450*
X88450Y23750*
Y21450*
X92381Y38881D02*
Y40681D01*
X93150Y41450*
X105950*
X107250Y42750*
Y53115*
X105874Y54491*
X104474*
X92550Y79950D02*
X94350D01*
X101750Y72550*
X92550Y79950D02*
X92350D01*
X91250Y81050*
X79350*
X92550Y93650D02*
Y107950D01*
X99150Y114550*
X103750*
X104718Y115518*
Y118409*
X92850Y174550D02*
Y171650D01*
X95450Y169050*
X104487*
X106587Y166950*
Y163291*
X106687*
X94350Y181500D02*
X94250D01*
Y180150*
X92750Y178650*
Y174550*
X92850*
X94350Y188000D02*
X93950D01*
Y188750*
X92150Y190550*
Y207450*
X92050*
X95073Y126086D02*
Y122773D01*
X93450Y121150*
X84450*
X82950Y122650*
Y124150*
X95073Y133960D02*
Y133850D01*
X84150*
Y131250*
X95073Y139866D02*
Y139850D01*
X108950*
X108887Y139787*
Y139650*
X95073Y141834D02*
X87666D01*
X87650Y141850*
X95073Y143803D02*
Y143850D01*
X90750*
X88803Y145797*
X87650*
Y145750*
X95073Y147740D02*
Y145771D01*
Y149708D02*
X95050D01*
Y149750*
X91650*
Y149650*
X88450Y146450*
Y145750*
X87650*
X95073Y151677D02*
X98787D01*
X99813Y150650*
Y148550*
X99113Y147850*
X95183*
X95073Y147740*
Y155614D02*
X85886D01*
X74050Y167450*
Y174550*
X95381Y29881D02*
X95350Y24450D01*
Y21950*
X94450Y21050*
X95381Y37881D02*
X101219D01*
X101750Y37350*
X96226Y57050D02*
X99350D01*
X100250Y56150*
Y48950*
X98850Y47550*
X98650*
Y47650*
X97350Y97050D02*
Y100550D01*
X108650Y111850*
X108655Y115355*
Y118409*
X97550Y181500D02*
Y176950D01*
X97150Y176550*
X97550Y188000D02*
X97350D01*
Y212550*
X92450Y217450*
X92050*
X98650Y47650D02*
X92250D01*
X88450Y43850*
Y39450*
X88381Y38881*
X100750Y188000D02*
X100450D01*
Y190750*
X101850Y192150*
Y207450*
X102050*
X100950Y127850D02*
X100350D01*
X100150Y128050*
X99550*
X99545Y128055*
X95073*
X101750Y72550D02*
X96750Y67550D01*
Y59350*
X97450Y59526*
Y59609*
X96226*
X102050Y217450D02*
X101650D01*
Y217750*
X101750*
X106850Y212650*
Y191150*
X104450Y188750*
X103950Y187750*
Y188000*
X102750Y118409D02*
Y116550D01*
X97350*
X95550Y114750*
X95150*
X102750Y163291D02*
Y163350D01*
X89591*
X81791Y171150*
Y174550*
X82050*
X102850Y176550D02*
Y176050D01*
X100850Y178150*
Y181500*
X100750*
X103850Y47650D02*
X99450Y43250D01*
X91250*
X90381Y42381*
Y38881*
X104718Y163291D02*
Y166282D01*
X103850Y167150*
X90650*
X85750Y172050*
Y176550*
X105050Y100250D02*
X105950D01*
Y104150*
X110650Y108850*
Y118409*
X110624*
X106687D02*
Y114087D01*
X103350Y110750*
X101750*
Y110650*
X101250Y111350*
X108550Y176650D02*
Y177150D01*
X104750Y180950*
X104100Y181500*
X103950*
X108650Y62950D02*
Y76050D01*
Y62950D02*
Y69550D01*
X117750*
X117407Y69593*
X118056*
X108650Y62950D02*
X113050Y58550D01*
Y41750*
X105050Y33750*
X99250*
X97150Y35850*
X95381*
Y35881*
X108655Y163291D02*
Y163150D01*
X108550*
Y167850*
X104850Y171550*
X99250*
X97150Y173650*
Y176550*
X108887Y139650D02*
X108950D01*
X105150Y143850*
X95150*
Y143803*
X95073*
X110624Y163291D02*
X110650D01*
Y168850*
X102950Y176550*
X102850*
X112592Y163291D02*
X112650D01*
Y170050*
X108550Y174150*
Y176650*
X113550Y181600D02*
Y175050D01*
X113050Y174550*
X113550Y188100D02*
X113350D01*
Y188850*
X111850Y190350*
Y207450*
X112050*
X114561Y118409D02*
X114550D01*
Y109539*
X112350Y107339*
Y97639*
X111850Y97139*
Y96850*
X114561Y163291D02*
X114550D01*
Y172950*
X113539Y173961*
Y174550*
X113050*
X116450Y105350D02*
Y118309D01*
X116529*
Y118409*
Y163291D02*
X116550D01*
Y176550*
X116750Y181600D02*
Y176750D01*
X116550Y176550*
X116750Y188100D02*
Y212750D01*
X112050Y217450*
X118056Y61916D02*
X126516D01*
X127850Y63250*
X118056Y64475D02*
X122875D01*
X125550Y67150*
X118056Y67035D02*
Y67150D01*
X112850*
X111950Y66250*
X111650*
X118056Y74711D02*
X128489D01*
X130350Y72850*
X118056Y79830D02*
Y79850D01*
X99850*
X98030Y81670*
X97350*
Y82950*
X118056Y82389D02*
X123611D01*
X125350Y80650*
X118056Y87507D02*
Y87250D01*
X86050*
X79256Y94044*
X79399*
Y96301*
X118056Y90065D02*
X88635D01*
X88250Y90450*
X118056Y92625D02*
X106475D01*
X103750Y95350*
X118056Y95184D02*
X123816D01*
X126050Y92950*
X118498Y118409D02*
Y113902D01*
X119550Y112850*
X118498Y163291D02*
Y172998D01*
X120050Y174550*
X119950Y181600D02*
Y174650D01*
X120050Y174550*
X119950Y188100D02*
Y190550D01*
X122050Y192650*
Y207450*
X120466Y163291D02*
X120450D01*
Y170750*
X123534Y173834*
Y176550*
X123550*
X122435Y118409D02*
Y106735D01*
X116450Y100750*
X122435Y163291D02*
Y169750D01*
X122350*
X127665Y175065*
X128250Y176550*
X123150Y181600D02*
Y176950D01*
X123550Y176550*
X123150Y188100D02*
X123650D01*
Y189050*
X127050Y192450*
Y212450*
X122050Y217450*
X128340Y163291D02*
Y167050D01*
X130540Y169250*
X139950*
X144250Y173550*
Y174550*
X128450Y100250D02*
X137450D01*
X142350Y95350*
X146678*
X146844Y95184*
X130309Y118409D02*
Y112609D01*
X128150Y110450*
X130309Y163291D02*
Y166109D01*
X131450Y167250*
X141950*
X151250Y176550*
X132277Y163291D02*
X143891D01*
X155350Y174750*
X132750Y181500D02*
Y181050D01*
X128250Y176550*
X132750Y188000D02*
Y190950D01*
X131950Y191750*
Y205550*
X132050Y205650*
Y207450*
X133150Y117237D02*
X132277Y118109D01*
Y118409*
X133450Y176550D02*
X132850D01*
Y176950*
X124350Y168450*
Y163291*
X124403*
X134750Y59650D02*
Y74750D01*
X132150Y77350*
X118056*
Y77270*
X135950Y181500D02*
Y179050D01*
X133450Y176550*
X135950Y188000D02*
X136050D01*
Y192650*
X137350Y193950*
Y212850*
X132750Y217450*
X132050*
X139150Y181500D02*
Y176850D01*
X139350Y176650*
X139150Y188000D02*
Y190550D01*
X142050Y193450*
Y207450*
X139350Y176650D02*
Y174950D01*
X139450Y174850*
Y173950*
X137250Y171750*
X130450*
X126372Y167672*
Y163291*
X139717Y125849D02*
X137863Y123996D01*
X139717Y155851D02*
X137863Y157704D01*
X139954Y128055D02*
X133955D01*
X132450Y126550*
Y118582*
X132277Y118409*
X139954Y130023D02*
X143877D01*
X144750Y129150*
Y126850*
X144050Y126150*
X140018*
X139954Y126086*
Y131992D02*
X135692D01*
X133350Y129650*
Y118250*
X133191Y118409*
X132277*
X139954Y133960D02*
X132260D01*
X132250Y133950*
X139954Y135929D02*
Y135850D01*
X144150*
X145550Y134450*
X147150*
X139954Y135929D02*
X136235D01*
X135513Y136650*
Y139050*
X136313Y139850*
X139838*
X139854Y139866*
X139954*
Y141834D02*
Y143803D01*
X139950*
Y142750*
X139954Y143803D02*
Y142850D01*
Y145771D02*
X138692D01*
X132950Y145650*
X130050*
X127950Y147750*
X128150*
X128250Y147650*
X127750Y147550*
X127950*
Y147650*
X128050*
X139954Y147740D02*
X157560D01*
X161450Y143850*
X139954Y149708D02*
X157308D01*
X161450Y153850*
X139954Y151677D02*
X145677D01*
X147450Y153450*
X139954Y153645D02*
X147255D01*
X147450Y153450*
X139954Y155614D02*
X133214D01*
X133050Y155450*
X140191Y125849D02*
X142044Y123996D01*
X140191Y155851D02*
X142044Y157704D01*
X142050Y217450D02*
X141550D01*
Y218050*
X146750Y212850*
Y192850*
X142450Y188550*
Y188650*
X142250Y188850*
X142350Y188150*
Y188000*
Y181500D02*
X144250Y179600D01*
Y174550*
X146844Y61916D02*
X152584D01*
X153450Y61050*
X146844Y64475D02*
X152275D01*
X153350Y65550*
X146844Y67035D02*
X142335D01*
X139850Y64550*
Y55150*
X146844Y72152D02*
X156648D01*
X156850Y71950*
X146844Y74711D02*
X140511D01*
X137850Y72050*
Y67450*
X146844Y77270D02*
X152930D01*
X153750Y76450*
Y76350*
X146844Y82389D02*
X163211D01*
X171550Y74050*
Y72050*
X172250Y71350*
X146844Y84948D02*
X157350D01*
X161052Y88650*
X162850*
X146844Y90065D02*
X152065D01*
X154950Y92950*
X146844Y92625D02*
X126375D01*
X126050Y92950*
X147450Y157350D02*
Y160250D01*
X161750Y174550*
X147650Y138950D02*
X147550Y139050D01*
X146350*
X145150Y137850*
X139954*
Y137897*
X151150Y153550D02*
X147550D01*
X147450Y153450*
X151150Y157450D02*
X147550D01*
X147450Y157350*
X152150Y181500D02*
Y181350D01*
X151250Y180450*
Y176550*
X152150Y188000D02*
X152050D01*
Y207450*
X155350Y181500D02*
Y174750D01*
Y188000D02*
Y193350D01*
X156750Y194750*
Y212750*
X152050Y217450*
X156450Y46150D02*
Y46450D01*
X141050*
X130650Y56850*
Y66952*
X125350Y72252*
X118056*
Y72152*
X158550Y180250D02*
Y178250D01*
Y186750D02*
Y184750D01*
Y189250D02*
Y191250D01*
X158950Y143850D02*
X156950D01*
X161450Y141350D02*
Y139350D01*
Y146350D02*
Y148350D01*
X161750Y181500D02*
Y174550D01*
Y188000D02*
X161850D01*
Y207450*
X162050*
Y217450D02*
Y207450D01*
X162950Y95450D02*
Y88750D01*
X162850Y88650*
X163950Y143850D02*
X165950D01*
X169550Y207450D02*
X167550D01*
X169550Y217450D02*
X167550D01*
X172050Y204950D02*
Y202950D01*
Y209950D02*
Y211950D01*
Y214950D02*
Y212950D01*
Y219950D02*
Y221950D01*
X172250Y71350D02*
Y64850D01*
X174550Y207450D02*
X176550D01*
X174550Y217450D02*
X176550D01*
X181150Y89950D02*
X180650D01*
Y84150*
X178250Y81750*
Y81050*
X181150Y89950D02*
Y89650D01*
X183950*
X186550Y92250*
X186850*
Y92550*
X181150Y93850D02*
X179250D01*
Y93750*
X177350Y95650*
Y96550*
X181350Y67250D02*
Y64550D01*
X176050Y59250*
X160050*
X157350Y61950*
Y66250*
X154050Y69550*
X146844*
Y69593*
X181350Y74250D02*
X185650D01*
X186650Y73250*
Y141850D02*
X186550D01*
Y133650*
X189750*
X186850Y108950D02*
Y92550D01*
X195050Y123150D02*
Y123050D01*
X189550Y117550*
X172450*
X158250Y103350*
Y90750*
X155007Y87507*
X146844*
X195079Y41579D02*
X163479D01*
X152450Y30550*
X195150Y141850D02*
X195050D01*
Y123150*
X202150Y48650D02*
X193550Y57250D01*
X145550*
X210750Y59450D02*
Y58250D01*
X205850*
Y58150*
X198050Y65950*
X181350*
Y67250*
X210750Y79450D02*
X179850D01*
X178250Y81050*
X210750Y89450D02*
Y107450D01*
X195050Y123150*
X219850Y108650D02*
Y102850D01*
X219950Y102750*
X224750Y139850D02*
X224850D01*
Y131550*
X225850Y127750*
X225050*
Y130150*
Y123150D02*
Y122650D01*
X224850*
X220250Y118050*
X220050*
X225050Y130150D02*
Y129850D01*
X220750*
X211250Y120350*
Y118150*
D02*
D12*
X62050Y207450D03*
Y217450D03*
X72050Y207450D03*
Y217450D03*
X82050Y207450D03*
Y217450D03*
X92050Y207450D03*
Y217450D03*
X102050Y207450D03*
Y217450D03*
X112050Y207450D03*
Y217450D03*
X122050Y207450D03*
Y217450D03*
X132050Y207450D03*
Y217450D03*
X142050Y207450D03*
Y217450D03*
X152050Y207450D03*
Y217450D03*
X161450Y143850D03*
Y153850D03*
X162050Y207450D03*
Y217450D03*
X172050Y207450D03*
Y217450D03*
X182050Y207450D03*
Y217450D03*
X210750Y59450D03*
Y69450D03*
Y79450D03*
Y89450D03*
D02*
D13*
X29901Y145799D03*
X36972Y138728D03*
X44043Y131657D03*
X51115Y124585D03*
X58185Y117515D03*
X65257Y110443D03*
X72328Y103372D03*
X79399Y96301D03*
X180937Y27437D03*
X188008Y34508D03*
X195079Y41579D03*
X202150Y48650D03*
D02*
D14*
X30750Y65250D03*
X41950Y162750D03*
X51250Y98050D03*
X69350Y184650D03*
X70750Y138050D03*
X74050Y174550D03*
X76050Y84050D03*
X77950Y176550D03*
X78150Y35450D03*
X79350Y81050D03*
X79488Y10512D03*
X82050Y174550D03*
X83350Y77550D03*
X85750Y176550D03*
X88150Y54350D03*
X88250Y90450D03*
X89550Y71450D03*
X92550Y79950D03*
Y93650D03*
X92850Y174550D03*
X95150Y114750D03*
X97150Y176550D03*
X97350Y82950D03*
Y97050D03*
X98650Y47650D03*
X99550Y21850D03*
X100550Y149850D03*
X100950Y127850D03*
X101250Y111350D03*
X101750Y37350D03*
Y72550D03*
X102850Y176550D03*
X103750Y95350D03*
X103850Y47650D03*
X104450Y63450D03*
X105050Y100250D03*
X108550Y176650D03*
X108650Y76050D03*
X108887Y139650D03*
X111650Y66250D03*
X111850Y96850D03*
X113050Y174550D03*
X116450Y100750D03*
Y105350D03*
X116550Y176550D03*
X119550Y112850D03*
X120050Y174550D03*
X123550Y50950D03*
Y176550D03*
X124750Y137750D03*
X125350Y80650D03*
X125550Y67150D03*
X126050Y92950D03*
X127850Y63250D03*
X128050Y147650D03*
X128150Y110450D03*
X128250Y176550D03*
X128350Y105450D03*
X128450Y100250D03*
X129950Y129350D03*
X130350Y72850D03*
X133050Y155450D03*
X133450Y176550D03*
X134650Y44150D03*
X134750Y59650D03*
X136450Y86850D03*
X137850Y67450D03*
X139350Y176650D03*
X139850Y55150D03*
X144250Y174550D03*
X145550Y57250D03*
X147150Y134450D03*
X150350Y117850D03*
X151250Y176550D03*
X152450Y30550D03*
X153350Y65550D03*
X153450Y61050D03*
X153750Y76350D03*
X154950Y21050D03*
Y92950D03*
X155350Y174750D03*
X156450Y46150D03*
X156650Y51250D03*
X156850Y71950D03*
X161750Y174550D03*
X161950Y126650D03*
X162350Y63450D03*
X171250Y98650D03*
X171550Y185750D03*
X176550Y35850D03*
X177350Y96550D03*
X178250Y81050D03*
X180850Y136750D03*
X184850Y84250D03*
X189750Y133650D03*
X193950Y88150D03*
X194350Y156950D03*
X211250Y118150D03*
Y148350D03*
X215550Y118150D03*
X219950Y102750D03*
X220050Y118050D03*
X224150Y65350D03*
X224750Y139850D03*
X235250Y95350D03*
D02*
D15*
X82950Y124150D03*
Y137550D03*
X86850Y124150D03*
Y137550D03*
X133450Y107350D03*
Y111350D03*
X137350Y107350D03*
Y111350D03*
X162950Y95450D03*
X166850D03*
X168350Y64850D03*
X172250D03*
X191050Y147250D03*
X194950D03*
D02*
D16*
X96226Y54491D03*
Y57050D03*
Y59609D03*
X104474Y54491D03*
Y59609D03*
D02*
D17*
X87650Y141850D03*
Y145750D03*
X94450Y17150D03*
Y21050D03*
X147450Y153450D03*
Y157350D03*
X147650Y138950D03*
Y142850D03*
X151150Y153550D03*
Y157450D03*
X151250Y138950D03*
Y142850D03*
X181150Y89950D03*
Y93850D03*
X186650Y69350D03*
Y73250D03*
X219850Y108650D03*
Y112550D03*
D02*
D19*
X70750Y138050D02*
X70450D01*
Y133050*
X79350Y124150*
X82950*
Y137550D02*
X70950D01*
X70750Y137750*
X87650Y145750D02*
Y145850D01*
X86150Y147350*
X78650*
X74250Y142950*
X75250*
Y142750*
X94450Y21050D02*
Y22050D01*
X99650D02*
X88450D01*
Y21450*
X128350Y105450D02*
X130650D01*
X132550Y107350*
X133450*
X132250Y133950D02*
X129950Y131650D01*
Y129350*
X133450Y111350D02*
X133150D01*
Y117237*
X133450Y111350D02*
Y107350D01*
X137350D02*
Y111350D01*
X139950Y142750D02*
X134950D01*
X132250Y140050*
Y133950*
X139954Y142850D02*
X147650D01*
X151250Y138950D02*
X147650D01*
X151250Y142850D02*
X147650D01*
X168350Y64850D02*
X164550D01*
X162850Y66550*
X162750*
X162850Y70350*
Y71350*
X186650Y69350D02*
X191050D01*
D02*
D71*
X88450Y21450D02*
Y22150D01*
X99550*
Y21850*
X94450Y22050D02*
X99650D01*
D02*
D75*
X29900Y65250D02*
X27400D01*
X30750Y64400D02*
Y61900D01*
Y66100D02*
Y68600D01*
X31600Y65250D02*
X34100D01*
X33480Y138728D02*
X30255D01*
X36972Y135235D02*
Y132010D01*
Y142220D02*
Y145445D01*
X40465Y138728D02*
X43690D01*
X41100Y162750D02*
X38600D01*
X41950Y161900D02*
Y159400D01*
Y163600D02*
Y166100D01*
X42800Y162750D02*
X45300D01*
X50400Y98050D02*
X47900D01*
X51250Y97200D02*
Y94700D01*
Y98900D02*
Y101400D01*
X52100Y98050D02*
X54600D01*
X78638Y10512D02*
X76138D01*
X79488Y9662D02*
Y7162D01*
Y11362D02*
Y13862D01*
X80338Y10512D02*
X82838D01*
X87035Y14450D02*
X84535D01*
X87300Y54350D02*
X84800D01*
X88150Y53500D02*
Y51000D01*
Y55200D02*
Y57700D01*
X88450Y13230D02*
Y10730D01*
X88700Y71450D02*
X86200D01*
X89000Y54350D02*
X91500D01*
X89550Y70600D02*
Y68100D01*
Y72300D02*
Y74800D01*
X90400Y71450D02*
X92900D01*
X94450Y16700D02*
Y14200D01*
X94900Y17150D02*
X97400D01*
X96226Y54491D02*
X88291D01*
X88150Y54350*
X104474Y59609D02*
Y63426D01*
X104450Y63450*
X118056Y84948D02*
X134548D01*
X136450Y86850*
X122700Y50950D02*
X120200D01*
X123550Y50100D02*
Y47600D01*
Y51800D02*
Y54300D01*
X124400Y50950D02*
X126900D01*
X135600Y86850D02*
X133100D01*
X136450Y86000D02*
Y83500D01*
Y87700D02*
Y90200D01*
X137300Y86850D02*
X139800D01*
X137350Y106900D02*
Y104400D01*
Y111800D02*
Y114300D01*
X137800Y107350D02*
X140300D01*
X137800Y111350D02*
X140300D01*
X146844Y79830D02*
X139270D01*
X136450Y82650*
X136550*
X136450Y86850*
X149749Y117249D02*
X147981Y115481D01*
X149749Y118451D02*
X147981Y120219D01*
X150951Y117249D02*
X152719Y115481D01*
X150951Y118451D02*
X152719Y120219D01*
X154349Y20449D02*
X152581Y18681D01*
X154349Y21651D02*
X152581Y23419D01*
X155551Y20449D02*
X157319Y18681D01*
X155551Y21651D02*
X157319Y23419D01*
X156049Y50649D02*
X154281Y48881D01*
X156049Y51851D02*
X154281Y53619D01*
X157251Y50649D02*
X159019Y48881D01*
X157251Y51851D02*
X159019Y53619D01*
X161749Y64051D02*
X159981Y65819D01*
X162850Y68550D02*
Y66050D01*
Y74150D02*
Y76650D01*
X162951Y64051D02*
X164719Y65819D01*
X164850Y71350D02*
X167350D01*
X166850Y95900D02*
Y98400D01*
X167300Y95450D02*
X169800D01*
X167900Y64850D02*
X165400D01*
X168350Y64400D02*
Y61900D01*
X170250Y88650D02*
X167750D01*
X170400Y98650D02*
X167900D01*
X171250Y97800D02*
Y95300D01*
Y99500D02*
Y102000D01*
X172100Y98650D02*
X174600D01*
X172250Y85850D02*
Y83350D01*
Y91450D02*
Y93950D01*
X174250Y88650D02*
X176750D01*
X177444Y27437D02*
X174219D01*
X180000Y136750D02*
X177500D01*
X180850Y135900D02*
Y133400D01*
Y137600D02*
Y140100D01*
X180937Y23944D02*
Y20719D01*
Y30929D02*
Y34154D01*
X181700Y136750D02*
X184200D01*
X184429Y27437D02*
X187654D01*
X186650Y125450D02*
Y141850D01*
X190600Y147250D02*
X188100D01*
X191050Y146800D02*
Y144300D01*
Y147700D02*
Y150200D01*
X193100Y88150D02*
X190600D01*
X193500Y156950D02*
X191000D01*
X193950Y87300D02*
Y84800D01*
X194350Y156100D02*
Y153600D01*
Y157800D02*
Y160300D01*
X194800Y88150D02*
X197300D01*
X194800Y92550D02*
X192300D01*
X194800Y108950D02*
X192300D01*
X195150Y125450D02*
Y134650D01*
X194950*
Y147250*
X195150Y141850D02*
Y125450D01*
X195200Y156950D02*
X197700D01*
X195350Y91200D02*
Y88700D01*
Y93900D02*
Y96400D01*
Y107600D02*
Y105100D01*
Y110300D02*
Y112800D01*
X195900Y92550D02*
X198400D01*
X195900Y108950D02*
X198400D01*
X210400Y148350D02*
X207900D01*
X211250Y147500D02*
Y145000D01*
Y149200D02*
Y151700D01*
X212100Y148350D02*
X214600D01*
X215550Y117300D02*
Y114800D01*
Y119000D02*
Y121500D01*
X219400Y112550D02*
X216900D01*
X220300D02*
X222800D01*
X223300Y65350D02*
X220800D01*
X224150Y64500D02*
Y62000D01*
Y66200D02*
Y68700D01*
X225000Y65350D02*
X227500D01*
X234400Y95350D02*
X231900D01*
X235250Y94500D02*
Y92000D01*
Y96200D02*
Y98700D01*
X236100Y95350D02*
X238600D01*
D02*
D76*
X102750Y118409D03*
Y163291D03*
X104718Y118409D03*
Y163291D03*
X106687Y118409D03*
Y163291D03*
X108655Y118409D03*
Y163291D03*
X110624Y118409D03*
Y163291D03*
X112592Y118409D03*
Y163291D03*
X114561Y118409D03*
Y163291D03*
X116529Y118409D03*
Y163291D03*
X118498Y118409D03*
Y163291D03*
X120466Y118409D03*
Y163291D03*
X122435Y118409D03*
Y163291D03*
X124403Y118409D03*
Y163291D03*
X126372Y118409D03*
Y163291D03*
X128340Y118409D03*
Y163291D03*
X130309Y118409D03*
Y163291D03*
X132277Y118409D03*
Y163291D03*
D02*
D77*
X95073Y126086D03*
Y128055D03*
Y130023D03*
Y131992D03*
Y133960D03*
Y135929D03*
Y137897D03*
Y139866D03*
Y141834D03*
Y143803D03*
Y145771D03*
Y147740D03*
Y149708D03*
Y151677D03*
Y153645D03*
Y155614D03*
X139954Y126086D03*
Y128055D03*
Y130023D03*
Y131992D03*
Y133960D03*
Y135929D03*
Y137897D03*
Y139866D03*
Y141834D03*
Y143803D03*
Y145771D03*
Y147740D03*
Y149708D03*
Y151677D03*
Y153645D03*
Y155614D03*
D02*
D78*
X70750Y131250D03*
X84150D03*
D02*
D79*
X118056Y61916D03*
Y64475D03*
Y67035D03*
Y69593D03*
Y72152D03*
Y74711D03*
Y77270D03*
Y79830D03*
Y82389D03*
Y84948D03*
Y87507D03*
Y90065D03*
Y92625D03*
Y95184D03*
X146844Y61916D03*
Y64475D03*
Y67035D03*
Y69593D03*
Y72152D03*
Y74711D03*
Y77270D03*
Y79830D03*
Y82389D03*
Y84948D03*
Y87507D03*
Y90065D03*
Y92625D03*
Y95184D03*
D02*
D80*
X75250Y142750D03*
X82250D03*
D02*
D81*
X88450Y14450D03*
Y21450D03*
D02*
D82*
X162850Y71350D03*
Y88650D03*
X172250Y71350D03*
Y88650D03*
D02*
D83*
X186650Y125450D03*
Y141850D03*
X186850Y92550D03*
Y108950D03*
X195150Y125450D03*
Y141850D03*
X195350Y92550D03*
Y108950D03*
D02*
D84*
X85481Y29881D03*
Y31881D03*
Y33881D03*
Y35881D03*
Y37881D03*
X95381Y29881D03*
Y31881D03*
Y33881D03*
Y35881D03*
Y37881D03*
D02*
D85*
X88381Y28881D03*
Y38881D03*
X90381Y28881D03*
Y38881D03*
X92381Y28881D03*
Y38881D03*
D02*
D86*
X75150Y181600D03*
Y188100D03*
X78350Y181600D03*
Y188100D03*
X81550Y181600D03*
Y188100D03*
X84750Y181600D03*
Y188100D03*
X94350Y181500D03*
Y188000D03*
X97550Y181500D03*
Y188000D03*
X100750Y181500D03*
Y188000D03*
X103950Y181500D03*
Y188000D03*
X113550Y181600D03*
Y188100D03*
X116750Y181600D03*
Y188100D03*
X119950Y181600D03*
Y188100D03*
X123150Y181600D03*
Y188100D03*
X132750Y181500D03*
Y188000D03*
X135950Y181500D03*
Y188000D03*
X139150Y181500D03*
Y188000D03*
X142350Y181500D03*
Y188000D03*
X152150Y181500D03*
Y188000D03*
X155350Y181500D03*
Y188000D03*
X158550Y181500D03*
Y188000D03*
X161750Y181500D03*
Y188000D03*
D02*
D87*
X38165Y55035D03*
X60439Y32761D03*
D02*
D88*
X181350Y67250D03*
Y74250D03*
X225050Y123150D03*
Y130150D03*
D02*
D89*
X70750Y131250D02*
Y138050D01*
Y131250D02*
Y137750D01*
Y138250*
X75250Y142750*
X0Y0D02*
M02*
